<?xml version="1.0" encoding="utf-8" standalone="no"?>
<!DOCTYPE svg PUBLIC "-//W3C//DTD SVG 1.1//EN"
  "http://www.w3.org/Graphics/SVG/1.1/DTD/svg11.dtd">
<!-- Created with matplotlib (https://matplotlib.org/) -->
<svg height="264.18pt" version="1.1" viewBox="0 0 494.671562 264.18" width="494.671562pt" xmlns="http://www.w3.org/2000/svg" xmlns:xlink="http://www.w3.org/1999/xlink">
 <defs>
  <style type="text/css">
*{stroke-linecap:butt;stroke-linejoin:round;}
  </style>
 </defs>
 <g id="figure_1">
  <g id="patch_1">
   <path d="M 0 264.18 
L 494.671562 264.18 
L 494.671562 0 
L 0 0 
z
" style="fill:#ffffff;"/>
  </g>
  <g id="axes_1">
   <g id="patch_2">
    <path d="M 33.12 228.96 
L 236.029091 228.96 
L 236.029091 7.2 
L 33.12 7.2 
z
" style="fill:#ffffff;"/>
   </g>
   <g id="PathCollection_1">
    <defs>
     <path d="M 0 7.071068 
C 1.875269 7.071068 3.673985 6.326016 5 5 
C 6.326016 3.673985 7.071068 1.875269 7.071068 0 
C 7.071068 -1.875269 6.326016 -3.673985 5 -5 
C 3.673985 -6.326016 1.875269 -7.071068 0 -7.071068 
C -1.875269 -7.071068 -3.673985 -6.326016 -5 -5 
C -6.326016 -3.673985 -7.071068 -1.875269 -7.071068 0 
C -7.071068 1.875269 -6.326016 3.673985 -5 5 
C -3.673985 6.326016 -1.875269 7.071068 0 7.071068 
z
" id="C0_0_ca16a289e8"/>
    </defs>
    <g clip-path="url(#p400508e3a4)">
     <use style="fill:none;stroke:#ff0000;" x="107.736732" xlink:href="#C0_0_ca16a289e8" y="220.410217"/>
    </g>
    <g clip-path="url(#p400508e3a4)">
     <use style="fill:none;stroke:#ff0000;" x="124.499519" xlink:href="#C0_0_ca16a289e8" y="213.463518"/>
    </g>
    <g clip-path="url(#p400508e3a4)">
     <use style="fill:none;stroke:#ff0000;" x="145.653347" xlink:href="#C0_0_ca16a289e8" y="164.836627"/>
    </g>
    <g clip-path="url(#p400508e3a4)">
     <use style="fill:none;stroke:#ff0000;" x="174.591054" xlink:href="#C0_0_ca16a289e8" y="29.108819"/>
    </g>
   </g>
   <g id="matplotlib.axis_1">
    <g id="xtick_1">
     <g id="line2d_1">
      <defs>
       <path d="M 0 0 
L 0 -6 
" id="md9e2c17927" style="stroke:#000000;stroke-width:0.8;"/>
      </defs>
      <g>
       <use style="stroke:#000000;stroke-width:0.8;" x="33.12" xlink:href="#md9e2c17927" y="228.96"/>
      </g>
     </g>
     <g id="text_1">
      <!-- 0.0 -->
      <defs>
       <path d="M 31.78125 66.40625 
Q 24.171875 66.40625 20.328125 58.90625 
Q 16.5 51.421875 16.5 36.375 
Q 16.5 21.390625 20.328125 13.890625 
Q 24.171875 6.390625 31.78125 6.390625 
Q 39.453125 6.390625 43.28125 13.890625 
Q 47.125 21.390625 47.125 36.375 
Q 47.125 51.421875 43.28125 58.90625 
Q 39.453125 66.40625 31.78125 66.40625 
z
M 31.78125 74.21875 
Q 44.046875 74.21875 50.515625 64.515625 
Q 56.984375 54.828125 56.984375 36.375 
Q 56.984375 17.96875 50.515625 8.265625 
Q 44.046875 -1.421875 31.78125 -1.421875 
Q 19.53125 -1.421875 13.0625 8.265625 
Q 6.59375 17.96875 6.59375 36.375 
Q 6.59375 54.828125 13.0625 64.515625 
Q 19.53125 74.21875 31.78125 74.21875 
z
" id="DejaVuSans-48"/>
       <path d="M 10.6875 12.40625 
L 21 12.40625 
L 21 0 
L 10.6875 0 
z
" id="DejaVuSans-46"/>
      </defs>
      <g transform="translate(25.168438 240.058438)scale(0.1 -0.1)">
       <use xlink:href="#DejaVuSans-48"/>
       <use x="63.623047" xlink:href="#DejaVuSans-46"/>
       <use x="95.410156" xlink:href="#DejaVuSans-48"/>
      </g>
     </g>
    </g>
    <g id="xtick_2">
     <g id="line2d_2">
      <g>
       <use style="stroke:#000000;stroke-width:0.8;" x="73.701818" xlink:href="#md9e2c17927" y="228.96"/>
      </g>
     </g>
     <g id="text_2">
      <!-- 0.2 -->
      <defs>
       <path d="M 19.1875 8.296875 
L 53.609375 8.296875 
L 53.609375 0 
L 7.328125 0 
L 7.328125 8.296875 
Q 12.9375 14.109375 22.625 23.890625 
Q 32.328125 33.6875 34.8125 36.53125 
Q 39.546875 41.84375 41.421875 45.53125 
Q 43.3125 49.21875 43.3125 52.78125 
Q 43.3125 58.59375 39.234375 62.25 
Q 35.15625 65.921875 28.609375 65.921875 
Q 23.96875 65.921875 18.8125 64.3125 
Q 13.671875 62.703125 7.8125 59.421875 
L 7.8125 69.390625 
Q 13.765625 71.78125 18.9375 73 
Q 24.125 74.21875 28.421875 74.21875 
Q 39.75 74.21875 46.484375 68.546875 
Q 53.21875 62.890625 53.21875 53.421875 
Q 53.21875 48.921875 51.53125 44.890625 
Q 49.859375 40.875 45.40625 35.40625 
Q 44.1875 33.984375 37.640625 27.21875 
Q 31.109375 20.453125 19.1875 8.296875 
z
" id="DejaVuSans-50"/>
      </defs>
      <g transform="translate(65.750256 240.058438)scale(0.1 -0.1)">
       <use xlink:href="#DejaVuSans-48"/>
       <use x="63.623047" xlink:href="#DejaVuSans-46"/>
       <use x="95.410156" xlink:href="#DejaVuSans-50"/>
      </g>
     </g>
    </g>
    <g id="xtick_3">
     <g id="line2d_3">
      <g>
       <use style="stroke:#000000;stroke-width:0.8;" x="114.283636" xlink:href="#md9e2c17927" y="228.96"/>
      </g>
     </g>
     <g id="text_3">
      <!-- 0.4 -->
      <defs>
       <path d="M 37.796875 64.3125 
L 12.890625 25.390625 
L 37.796875 25.390625 
z
M 35.203125 72.90625 
L 47.609375 72.90625 
L 47.609375 25.390625 
L 58.015625 25.390625 
L 58.015625 17.1875 
L 47.609375 17.1875 
L 47.609375 0 
L 37.796875 0 
L 37.796875 17.1875 
L 4.890625 17.1875 
L 4.890625 26.703125 
z
" id="DejaVuSans-52"/>
      </defs>
      <g transform="translate(106.332074 240.058438)scale(0.1 -0.1)">
       <use xlink:href="#DejaVuSans-48"/>
       <use x="63.623047" xlink:href="#DejaVuSans-46"/>
       <use x="95.410156" xlink:href="#DejaVuSans-52"/>
      </g>
     </g>
    </g>
    <g id="xtick_4">
     <g id="line2d_4">
      <g>
       <use style="stroke:#000000;stroke-width:0.8;" x="154.865455" xlink:href="#md9e2c17927" y="228.96"/>
      </g>
     </g>
     <g id="text_4">
      <!-- 0.6 -->
      <defs>
       <path d="M 33.015625 40.375 
Q 26.375 40.375 22.484375 35.828125 
Q 18.609375 31.296875 18.609375 23.390625 
Q 18.609375 15.53125 22.484375 10.953125 
Q 26.375 6.390625 33.015625 6.390625 
Q 39.65625 6.390625 43.53125 10.953125 
Q 47.40625 15.53125 47.40625 23.390625 
Q 47.40625 31.296875 43.53125 35.828125 
Q 39.65625 40.375 33.015625 40.375 
z
M 52.59375 71.296875 
L 52.59375 62.3125 
Q 48.875 64.0625 45.09375 64.984375 
Q 41.3125 65.921875 37.59375 65.921875 
Q 27.828125 65.921875 22.671875 59.328125 
Q 17.53125 52.734375 16.796875 39.40625 
Q 19.671875 43.65625 24.015625 45.921875 
Q 28.375 48.1875 33.59375 48.1875 
Q 44.578125 48.1875 50.953125 41.515625 
Q 57.328125 34.859375 57.328125 23.390625 
Q 57.328125 12.15625 50.6875 5.359375 
Q 44.046875 -1.421875 33.015625 -1.421875 
Q 20.359375 -1.421875 13.671875 8.265625 
Q 6.984375 17.96875 6.984375 36.375 
Q 6.984375 53.65625 15.1875 63.9375 
Q 23.390625 74.21875 37.203125 74.21875 
Q 40.921875 74.21875 44.703125 73.484375 
Q 48.484375 72.75 52.59375 71.296875 
z
" id="DejaVuSans-54"/>
      </defs>
      <g transform="translate(146.913892 240.058438)scale(0.1 -0.1)">
       <use xlink:href="#DejaVuSans-48"/>
       <use x="63.623047" xlink:href="#DejaVuSans-46"/>
       <use x="95.410156" xlink:href="#DejaVuSans-54"/>
      </g>
     </g>
    </g>
    <g id="xtick_5">
     <g id="line2d_5">
      <g>
       <use style="stroke:#000000;stroke-width:0.8;" x="195.447273" xlink:href="#md9e2c17927" y="228.96"/>
      </g>
     </g>
     <g id="text_5">
      <!-- 0.8 -->
      <defs>
       <path d="M 31.78125 34.625 
Q 24.75 34.625 20.71875 30.859375 
Q 16.703125 27.09375 16.703125 20.515625 
Q 16.703125 13.921875 20.71875 10.15625 
Q 24.75 6.390625 31.78125 6.390625 
Q 38.8125 6.390625 42.859375 10.171875 
Q 46.921875 13.96875 46.921875 20.515625 
Q 46.921875 27.09375 42.890625 30.859375 
Q 38.875 34.625 31.78125 34.625 
z
M 21.921875 38.8125 
Q 15.578125 40.375 12.03125 44.71875 
Q 8.5 49.078125 8.5 55.328125 
Q 8.5 64.0625 14.71875 69.140625 
Q 20.953125 74.21875 31.78125 74.21875 
Q 42.671875 74.21875 48.875 69.140625 
Q 55.078125 64.0625 55.078125 55.328125 
Q 55.078125 49.078125 51.53125 44.71875 
Q 48 40.375 41.703125 38.8125 
Q 48.828125 37.15625 52.796875 32.3125 
Q 56.78125 27.484375 56.78125 20.515625 
Q 56.78125 9.90625 50.3125 4.234375 
Q 43.84375 -1.421875 31.78125 -1.421875 
Q 19.734375 -1.421875 13.25 4.234375 
Q 6.78125 9.90625 6.78125 20.515625 
Q 6.78125 27.484375 10.78125 32.3125 
Q 14.796875 37.15625 21.921875 38.8125 
z
M 18.3125 54.390625 
Q 18.3125 48.734375 21.84375 45.5625 
Q 25.390625 42.390625 31.78125 42.390625 
Q 38.140625 42.390625 41.71875 45.5625 
Q 45.3125 48.734375 45.3125 54.390625 
Q 45.3125 60.0625 41.71875 63.234375 
Q 38.140625 66.40625 31.78125 66.40625 
Q 25.390625 66.40625 21.84375 63.234375 
Q 18.3125 60.0625 18.3125 54.390625 
z
" id="DejaVuSans-56"/>
      </defs>
      <g transform="translate(187.49571 240.058438)scale(0.1 -0.1)">
       <use xlink:href="#DejaVuSans-48"/>
       <use x="63.623047" xlink:href="#DejaVuSans-46"/>
       <use x="95.410156" xlink:href="#DejaVuSans-56"/>
      </g>
     </g>
    </g>
   </g>
   <g id="matplotlib.axis_2">
    <g id="ytick_1">
     <g id="line2d_6">
      <defs>
       <path d="M 0 0 
L 6 0 
" id="md88cd1f2d8" style="stroke:#000000;stroke-width:0.8;"/>
      </defs>
      <g>
       <use style="stroke:#000000;stroke-width:0.8;" x="33.12" xlink:href="#md88cd1f2d8" y="220.944578"/>
      </g>
     </g>
     <g id="text_6">
      <!-- 0 -->
      <g transform="translate(23.2575 224.743797)scale(0.1 -0.1)">
       <use xlink:href="#DejaVuSans-48"/>
      </g>
     </g>
    </g>
    <g id="ytick_2">
     <g id="line2d_7">
      <g>
       <use style="stroke:#000000;stroke-width:0.8;" x="33.12" xlink:href="#md88cd1f2d8" y="167.508434"/>
      </g>
     </g>
     <g id="text_7">
      <!-- 2 -->
      <g transform="translate(23.2575 171.307652)scale(0.1 -0.1)">
       <use xlink:href="#DejaVuSans-50"/>
      </g>
     </g>
    </g>
    <g id="ytick_3">
     <g id="line2d_8">
      <g>
       <use style="stroke:#000000;stroke-width:0.8;" x="33.12" xlink:href="#md88cd1f2d8" y="114.072289"/>
      </g>
     </g>
     <g id="text_8">
      <!-- 4 -->
      <g transform="translate(23.2575 117.871508)scale(0.1 -0.1)">
       <use xlink:href="#DejaVuSans-52"/>
      </g>
     </g>
    </g>
    <g id="ytick_4">
     <g id="line2d_9">
      <g>
       <use style="stroke:#000000;stroke-width:0.8;" x="33.12" xlink:href="#md88cd1f2d8" y="60.636145"/>
      </g>
     </g>
     <g id="text_9">
      <!-- 6 -->
      <g transform="translate(23.2575 64.435363)scale(0.1 -0.1)">
       <use xlink:href="#DejaVuSans-54"/>
      </g>
     </g>
    </g>
   </g>
   <g id="LineCollection_1">
    <path clip-path="url(#p400508e3a4)" d="M 82.739527 226.815608 
L 82.739527 225.955286 
" style="fill:none;stroke:#000000;stroke-width:1.5;"/>
    <path clip-path="url(#p400508e3a4)" d="M 72.178365 227.909178 
L 72.178365 226.092349 
" style="fill:none;stroke:#000000;stroke-width:1.5;"/>
    <path clip-path="url(#p400508e3a4)" d="M 65.35724 226.712209 
L 65.35724 224.537357 
" style="fill:none;stroke:#000000;stroke-width:1.5;"/>
    <path clip-path="url(#p400508e3a4)" d="M 59.465355 226.496594 
L 59.465355 224.172121 
" style="fill:none;stroke:#000000;stroke-width:1.5;"/>
    <path clip-path="url(#p400508e3a4)" d="M 130.561763 185.137018 
L 130.561763 164.510666 
" style="fill:none;stroke:#000000;stroke-width:1.5;"/>
    <path clip-path="url(#p400508e3a4)" d="M 110.074942 213.465656 
L 110.074942 201.602831 
" style="fill:none;stroke:#000000;stroke-width:1.5;"/>
    <path clip-path="url(#p400508e3a4)" d="M 95.11673 222.028314 
L 95.11673 219.821402 
" style="fill:none;stroke:#000000;stroke-width:1.5;"/>
    <path clip-path="url(#p400508e3a4)" d="M 83.980376 224.402378 
L 83.980376 222.307681 
" style="fill:none;stroke:#000000;stroke-width:1.5;"/>
    <path clip-path="url(#p400508e3a4)" d="M 174.63592 91.784073 
L 174.63592 -1 
" style="fill:none;stroke:#000000;stroke-width:1.5;"/>
    <path clip-path="url(#p400508e3a4)" d="M 146.861022 192.380287 
L 146.861022 135.737974 
" style="fill:none;stroke:#000000;stroke-width:1.5;"/>
    <path clip-path="url(#p400508e3a4)" d="M 125.3698 222.733086 
L 125.3698 203.816691 
" style="fill:none;stroke:#000000;stroke-width:1.5;"/>
    <path clip-path="url(#p400508e3a4)" d="M 107.842073 221.638741 
L 107.842073 219.180678 
" style="fill:none;stroke:#000000;stroke-width:1.5;"/>
    <path clip-path="url(#p400508e3a4)" d="M 215.245195 133.24785 
L 215.245195 97.499069 
" style="fill:none;stroke:#000000;stroke-width:1.5;"/>
    <path clip-path="url(#p400508e3a4)" d="M 180.084914 143.857596 
L 180.084914 113.024941 
" style="fill:none;stroke:#000000;stroke-width:1.5;"/>
    <path clip-path="url(#p400508e3a4)" d="M 153.08779 184.145777 
L 153.08779 157.320833 
" style="fill:none;stroke:#000000;stroke-width:1.5;"/>
    <path clip-path="url(#p400508e3a4)" d="M 131.710439 204.720563 
L 131.710439 192.911175 
" style="fill:none;stroke:#000000;stroke-width:1.5;"/>
   </g>
   <g id="line2d_10">
    <defs>
     <path d="M -0 3 
L 3 -3 
L -3 -3 
z
" id="ma04e97beb5" style="stroke:#0000ff;stroke-linejoin:miter;"/>
    </defs>
    <g clip-path="url(#p400508e3a4)">
     <use style="fill-opacity:0;stroke:#0000ff;stroke-linejoin:miter;" x="82.16406" xlink:href="#ma04e97beb5" y="226.189603"/>
     <use style="fill-opacity:0;stroke:#0000ff;stroke-linejoin:miter;" x="72.060076" xlink:href="#ma04e97beb5" y="226.282048"/>
     <use style="fill-opacity:0;stroke:#0000ff;stroke-linejoin:miter;" x="64.986305" xlink:href="#ma04e97beb5" y="226.348576"/>
     <use style="fill-opacity:0;stroke:#0000ff;stroke-linejoin:miter;" x="58.931707" xlink:href="#ma04e97beb5" y="226.65049"/>
     <use style="fill-opacity:0;stroke:#0000ff;stroke-linejoin:miter;" x="129.391674" xlink:href="#ma04e97beb5" y="194.620063"/>
     <use style="fill-opacity:0;stroke:#0000ff;stroke-linejoin:miter;" x="109.609434" xlink:href="#ma04e97beb5" y="208.120171"/>
     <use style="fill-opacity:0;stroke:#0000ff;stroke-linejoin:miter;" x="94.654934" xlink:href="#ma04e97beb5" y="217.729325"/>
     <use style="fill-opacity:0;stroke:#0000ff;stroke-linejoin:miter;" x="83.853356" xlink:href="#ma04e97beb5" y="221.348021"/>
     <use style="fill-opacity:0;stroke:#0000ff;stroke-linejoin:miter;" x="176.619287" xlink:href="#ma04e97beb5" y="145.278998"/>
     <use style="fill-opacity:0;stroke:#0000ff;stroke-linejoin:miter;" x="147.158793" xlink:href="#ma04e97beb5" y="169.669926"/>
     <use style="fill-opacity:0;stroke:#0000ff;stroke-linejoin:miter;" x="125.422401" xlink:href="#ma04e97beb5" y="189.422597"/>
     <use style="fill-opacity:0;stroke:#0000ff;stroke-linejoin:miter;" x="108.775004" xlink:href="#ma04e97beb5" y="204.909994"/>
     <use style="fill-opacity:0;stroke:#0000ff;stroke-linejoin:miter;" x="214.764667" xlink:href="#ma04e97beb5" y="118.526192"/>
     <use style="fill-opacity:0;stroke:#0000ff;stroke-linejoin:miter;" x="179.145283" xlink:href="#ma04e97beb5" y="144.399973"/>
     <use style="fill-opacity:0;stroke:#0000ff;stroke-linejoin:miter;" x="152.893354" xlink:href="#ma04e97beb5" y="168.673342"/>
     <use style="fill-opacity:0;stroke:#0000ff;stroke-linejoin:miter;" x="131.916535" xlink:href="#ma04e97beb5" y="187.325228"/>
    </g>
   </g>
   <g id="line2d_11">
    <defs>
     <path d="M 0 2.5 
C 0.663008 2.5 1.29895 2.236584 1.767767 1.767767 
C 2.236584 1.29895 2.5 0.663008 2.5 0 
C 2.5 -0.663008 2.236584 -1.29895 1.767767 -1.767767 
C 1.29895 -2.236584 0.663008 -2.5 0 -2.5 
C -0.663008 -2.5 -1.29895 -2.236584 -1.767767 -1.767767 
C -2.236584 -1.29895 -2.5 -0.663008 -2.5 0 
C -2.5 0.663008 -2.236584 1.29895 -1.767767 1.767767 
C -1.29895 2.236584 -0.663008 2.5 0 2.5 
z
" id="mb9cb72089e" style="stroke:#000000;"/>
    </defs>
    <g clip-path="url(#p400508e3a4)">
     <use style="stroke:#000000;" x="82.739527" xlink:href="#mb9cb72089e" y="226.385447"/>
     <use style="stroke:#000000;" x="72.178365" xlink:href="#mb9cb72089e" y="227.000764"/>
     <use style="stroke:#000000;" x="65.35724" xlink:href="#mb9cb72089e" y="225.624783"/>
     <use style="stroke:#000000;" x="59.465355" xlink:href="#mb9cb72089e" y="225.334358"/>
     <use style="stroke:#000000;" x="130.561763" xlink:href="#mb9cb72089e" y="174.823842"/>
     <use style="stroke:#000000;" x="110.074942" xlink:href="#mb9cb72089e" y="207.534243"/>
     <use style="stroke:#000000;" x="95.11673" xlink:href="#mb9cb72089e" y="220.924858"/>
     <use style="stroke:#000000;" x="83.980376" xlink:href="#mb9cb72089e" y="223.355029"/>
     <use style="stroke:#000000;" x="174.63592" xlink:href="#mb9cb72089e" y="28.996603"/>
     <use style="stroke:#000000;" x="146.861022" xlink:href="#mb9cb72089e" y="164.059131"/>
     <use style="stroke:#000000;" x="125.3698" xlink:href="#mb9cb72089e" y="213.274888"/>
     <use style="stroke:#000000;" x="107.842073" xlink:href="#mb9cb72089e" y="220.409709"/>
     <use style="stroke:#000000;" x="215.245195" xlink:href="#mb9cb72089e" y="115.373459"/>
     <use style="stroke:#000000;" x="180.084914" xlink:href="#mb9cb72089e" y="128.441268"/>
     <use style="stroke:#000000;" x="153.08779" xlink:href="#mb9cb72089e" y="170.733305"/>
     <use style="stroke:#000000;" x="131.710439" xlink:href="#mb9cb72089e" y="198.815869"/>
    </g>
   </g>
   <g id="patch_3">
    <path d="M 33.12 228.96 
L 33.12 7.2 
" style="fill:none;stroke:#000000;stroke-linecap:square;stroke-linejoin:miter;stroke-width:0.8;"/>
   </g>
   <g id="patch_4">
    <path d="M 236.029091 228.96 
L 236.029091 7.2 
" style="fill:none;stroke:#000000;stroke-linecap:square;stroke-linejoin:miter;stroke-width:0.8;"/>
   </g>
   <g id="patch_5">
    <path d="M 33.12 228.96 
L 236.029091 228.96 
" style="fill:none;stroke:#000000;stroke-linecap:square;stroke-linejoin:miter;stroke-width:0.8;"/>
   </g>
   <g id="patch_6">
    <path d="M 33.12 7.2 
L 236.029091 7.2 
" style="fill:none;stroke:#000000;stroke-linecap:square;stroke-linejoin:miter;stroke-width:0.8;"/>
   </g>
   <g id="text_10">
    <!-- a) -->
    <defs>
     <path d="M 34.28125 27.484375 
Q 23.390625 27.484375 19.1875 25 
Q 14.984375 22.515625 14.984375 16.5 
Q 14.984375 11.71875 18.140625 8.90625 
Q 21.296875 6.109375 26.703125 6.109375 
Q 34.1875 6.109375 38.703125 11.40625 
Q 43.21875 16.703125 43.21875 25.484375 
L 43.21875 27.484375 
z
M 52.203125 31.203125 
L 52.203125 0 
L 43.21875 0 
L 43.21875 8.296875 
Q 40.140625 3.328125 35.546875 0.953125 
Q 30.953125 -1.421875 24.3125 -1.421875 
Q 15.921875 -1.421875 10.953125 3.296875 
Q 6 8.015625 6 15.921875 
Q 6 25.140625 12.171875 29.828125 
Q 18.359375 34.515625 30.609375 34.515625 
L 43.21875 34.515625 
L 43.21875 35.40625 
Q 43.21875 41.609375 39.140625 45 
Q 35.0625 48.390625 27.6875 48.390625 
Q 23 48.390625 18.546875 47.265625 
Q 14.109375 46.140625 10.015625 43.890625 
L 10.015625 52.203125 
Q 14.9375 54.109375 19.578125 55.046875 
Q 24.21875 56 28.609375 56 
Q 40.484375 56 46.34375 49.84375 
Q 52.203125 43.703125 52.203125 31.203125 
z
" id="DejaVuSans-97"/>
     <path d="M 8.015625 75.875 
L 15.828125 75.875 
Q 23.140625 64.359375 26.78125 53.3125 
Q 30.421875 42.28125 30.421875 31.390625 
Q 30.421875 20.453125 26.78125 9.375 
Q 23.140625 -1.703125 15.828125 -13.1875 
L 8.015625 -13.1875 
Q 14.5 -2 17.703125 9.0625 
Q 20.90625 20.125 20.90625 31.390625 
Q 20.90625 42.671875 17.703125 53.65625 
Q 14.5 64.65625 8.015625 75.875 
z
" id="DejaVuSans-41"/>
    </defs>
    <g transform="translate(37.178182 29.376)scale(0.1 -0.1)">
     <use xlink:href="#DejaVuSans-97"/>
     <use x="61.279297" xlink:href="#DejaVuSans-41"/>
    </g>
   </g>
  </g>
  <g id="axes_2">
   <g id="patch_7">
    <path d="M 276.610909 228.96 
L 479.52 228.96 
L 479.52 7.2 
L 276.610909 7.2 
z
" style="fill:#ffffff;"/>
   </g>
   <g id="PathCollection_2">
    <defs>
     <path d="M 0 7.071068 
C 1.875269 7.071068 3.673985 6.326016 5 5 
C 6.326016 3.673985 7.071068 1.875269 7.071068 0 
C 7.071068 -1.875269 6.326016 -3.673985 5 -5 
C 3.673985 -6.326016 1.875269 -7.071068 0 -7.071068 
C -1.875269 -7.071068 -3.673985 -6.326016 -5 -5 
C -6.326016 -3.673985 -7.071068 -1.875269 -7.071068 0 
C -7.071068 1.875269 -6.326016 3.673985 -5 5 
C -3.673985 6.326016 -1.875269 7.071068 0 7.071068 
z
" id="C1_0_e38b0ab914"/>
    </defs>
    <g clip-path="url(#pc667bffa4e)">
     <use style="fill:none;stroke:#ff0000;" x="463.152738" xlink:href="#C1_0_e38b0ab914" y="174.372923"/>
    </g>
    <g clip-path="url(#pc667bffa4e)">
     <use style="fill:none;stroke:#ff0000;" x="505.059706" xlink:href="#C1_0_e38b0ab914" y="130.020923"/>
    </g>
    <g clip-path="url(#pc667bffa4e)">
     <use style="fill:none;stroke:#ff0000;" x="557.944276" xlink:href="#C1_0_e38b0ab914" y="-180.443077"/>
    </g>
    <g clip-path="url(#pc667bffa4e)">
     <use style="fill:none;stroke:#ff0000;" x="630.288545" xlink:href="#C1_0_e38b0ab914" y="-1047.012923"/>
    </g>
   </g>
   <g id="matplotlib.axis_3">
    <g id="xtick_6">
     <g id="line2d_12">
      <g>
       <use style="stroke:#000000;stroke-width:0.8;" x="276.610909" xlink:href="#md9e2c17927" y="228.96"/>
      </g>
     </g>
     <g id="text_11">
      <!-- 0.0 -->
      <g transform="translate(268.659347 240.058438)scale(0.1 -0.1)">
       <use xlink:href="#DejaVuSans-48"/>
       <use x="63.623047" xlink:href="#DejaVuSans-46"/>
       <use x="95.410156" xlink:href="#DejaVuSans-48"/>
      </g>
     </g>
    </g>
    <g id="xtick_7">
     <g id="line2d_13">
      <g>
       <use style="stroke:#000000;stroke-width:0.8;" x="378.065455" xlink:href="#md9e2c17927" y="228.96"/>
      </g>
     </g>
     <g id="text_12">
      <!-- 0.2 -->
      <g transform="translate(370.113892 240.058438)scale(0.1 -0.1)">
       <use xlink:href="#DejaVuSans-48"/>
       <use x="63.623047" xlink:href="#DejaVuSans-46"/>
       <use x="95.410156" xlink:href="#DejaVuSans-50"/>
      </g>
     </g>
    </g>
    <g id="xtick_8">
     <g id="line2d_14">
      <g>
       <use style="stroke:#000000;stroke-width:0.8;" x="479.52" xlink:href="#md9e2c17927" y="228.96"/>
      </g>
     </g>
     <g id="text_13">
      <!-- 0.4 -->
      <g transform="translate(471.568437 240.058438)scale(0.1 -0.1)">
       <use xlink:href="#DejaVuSans-48"/>
       <use x="63.623047" xlink:href="#DejaVuSans-46"/>
       <use x="95.410156" xlink:href="#DejaVuSans-52"/>
      </g>
     </g>
    </g>
   </g>
   <g id="matplotlib.axis_4">
    <g id="ytick_5">
     <g id="line2d_15">
      <g>
       <use style="stroke:#000000;stroke-width:0.8;" x="276.610909" xlink:href="#md88cd1f2d8" y="211.901538"/>
      </g>
     </g>
     <g id="text_14">
      <!-- −0.2 -->
      <defs>
       <path d="M 10.59375 35.5 
L 73.1875 35.5 
L 73.1875 27.203125 
L 10.59375 27.203125 
z
" id="DejaVuSans-8722"/>
      </defs>
      <g transform="translate(248.828097 215.700757)scale(0.1 -0.1)">
       <use xlink:href="#DejaVuSans-8722"/>
       <use x="83.789062" xlink:href="#DejaVuSans-48"/>
       <use x="147.412109" xlink:href="#DejaVuSans-46"/>
       <use x="179.199219" xlink:href="#DejaVuSans-50"/>
      </g>
     </g>
    </g>
    <g id="ytick_6">
     <g id="line2d_16">
      <g>
       <use style="stroke:#000000;stroke-width:0.8;" x="276.610909" xlink:href="#md88cd1f2d8" y="177.784615"/>
      </g>
     </g>
     <g id="text_15">
      <!-- 0.0 -->
      <g transform="translate(257.207784 181.583834)scale(0.1 -0.1)">
       <use xlink:href="#DejaVuSans-48"/>
       <use x="63.623047" xlink:href="#DejaVuSans-46"/>
       <use x="95.410156" xlink:href="#DejaVuSans-48"/>
      </g>
     </g>
    </g>
    <g id="ytick_7">
     <g id="line2d_17">
      <g>
       <use style="stroke:#000000;stroke-width:0.8;" x="276.610909" xlink:href="#md88cd1f2d8" y="143.667692"/>
      </g>
     </g>
     <g id="text_16">
      <!-- 0.2 -->
      <g transform="translate(257.207784 147.466911)scale(0.1 -0.1)">
       <use xlink:href="#DejaVuSans-48"/>
       <use x="63.623047" xlink:href="#DejaVuSans-46"/>
       <use x="95.410156" xlink:href="#DejaVuSans-50"/>
      </g>
     </g>
    </g>
    <g id="ytick_8">
     <g id="line2d_18">
      <g>
       <use style="stroke:#000000;stroke-width:0.8;" x="276.610909" xlink:href="#md88cd1f2d8" y="109.550769"/>
      </g>
     </g>
     <g id="text_17">
      <!-- 0.4 -->
      <g transform="translate(257.207784 113.349988)scale(0.1 -0.1)">
       <use xlink:href="#DejaVuSans-48"/>
       <use x="63.623047" xlink:href="#DejaVuSans-46"/>
       <use x="95.410156" xlink:href="#DejaVuSans-52"/>
      </g>
     </g>
    </g>
    <g id="ytick_9">
     <g id="line2d_19">
      <g>
       <use style="stroke:#000000;stroke-width:0.8;" x="276.610909" xlink:href="#md88cd1f2d8" y="75.433846"/>
      </g>
     </g>
     <g id="text_18">
      <!-- 0.6 -->
      <g transform="translate(257.207784 79.233065)scale(0.1 -0.1)">
       <use xlink:href="#DejaVuSans-48"/>
       <use x="63.623047" xlink:href="#DejaVuSans-46"/>
       <use x="95.410156" xlink:href="#DejaVuSans-54"/>
      </g>
     </g>
    </g>
    <g id="ytick_10">
     <g id="line2d_20">
      <g>
       <use style="stroke:#000000;stroke-width:0.8;" x="276.610909" xlink:href="#md88cd1f2d8" y="41.316923"/>
      </g>
     </g>
     <g id="text_19">
      <!-- 0.8 -->
      <g transform="translate(257.207784 45.116142)scale(0.1 -0.1)">
       <use xlink:href="#DejaVuSans-48"/>
       <use x="63.623047" xlink:href="#DejaVuSans-46"/>
       <use x="95.410156" xlink:href="#DejaVuSans-56"/>
      </g>
     </g>
    </g>
   </g>
   <g id="LineCollection_2">
    <path clip-path="url(#pc667bffa4e)" d="M 400.659725 215.268879 
L 400.659725 209.776054 
" style="fill:none;stroke:#000000;stroke-width:1.5;"/>
    <path clip-path="url(#pc667bffa4e)" d="M 374.256822 222.250907 
L 374.256822 210.651153 
" style="fill:none;stroke:#000000;stroke-width:1.5;"/>
    <path clip-path="url(#pc667bffa4e)" d="M 357.20401 214.608716 
L 357.20401 200.723129 
" style="fill:none;stroke:#000000;stroke-width:1.5;"/>
    <path clip-path="url(#pc667bffa4e)" d="M 342.474296 213.232098 
L 342.474296 198.391237 
" style="fill:none;stroke:#000000;stroke-width:1.5;"/>
    <path clip-path="url(#pc667bffa4e)" style="fill:none;stroke:#000000;stroke-width:1.5;"/>
    <path clip-path="url(#pc667bffa4e)" d="M 468.998264 130.03457 
L 468.998264 54.295001 
" style="fill:none;stroke:#000000;stroke-width:1.5;"/>
    <path clip-path="url(#pc667bffa4e)" d="M 431.602734 184.703853 
L 431.602734 170.613564 
" style="fill:none;stroke:#000000;stroke-width:1.5;"/>
    <path clip-path="url(#pc667bffa4e)" d="M 403.76185 199.861335 
L 403.76185 186.487501 
" style="fill:none;stroke:#000000;stroke-width:1.5;"/>
    <path clip-path="url(#pc667bffa4e)" style="fill:none;stroke:#000000;stroke-width:1.5;"/>
    <path clip-path="url(#pc667bffa4e)" style="fill:none;stroke:#000000;stroke-width:1.5;"/>
    <path clip-path="url(#pc667bffa4e)" style="fill:none;stroke:#000000;stroke-width:1.5;"/>
    <path clip-path="url(#pc667bffa4e)" d="M 463.416091 182.216574 
L 463.416091 166.52279 
" style="fill:none;stroke:#000000;stroke-width:1.5;"/>
    <path clip-path="url(#pc667bffa4e)" style="fill:none;stroke:#000000;stroke-width:1.5;"/>
    <path clip-path="url(#pc667bffa4e)" style="fill:none;stroke:#000000;stroke-width:1.5;"/>
    <path clip-path="url(#pc667bffa4e)" style="fill:none;stroke:#000000;stroke-width:1.5;"/>
    <path clip-path="url(#pc667bffa4e)" style="fill:none;stroke:#000000;stroke-width:1.5;"/>
   </g>
   <g id="line2d_21">
    <g clip-path="url(#pc667bffa4e)">
     <use style="fill-opacity:0;stroke:#0000ff;stroke-linejoin:miter;" x="399.221059" xlink:href="#ma04e97beb5" y="211.272081"/>
     <use style="fill-opacity:0;stroke:#0000ff;stroke-linejoin:miter;" x="373.961098" xlink:href="#ma04e97beb5" y="211.862304"/>
     <use style="fill-opacity:0;stroke:#0000ff;stroke-linejoin:miter;" x="356.276672" xlink:href="#ma04e97beb5" y="212.28706"/>
     <use style="fill-opacity:0;stroke:#0000ff;stroke-linejoin:miter;" x="341.140177" xlink:href="#ma04e97beb5" y="214.214666"/>
     <use style="fill-opacity:0;stroke:#0000ff;stroke-linejoin:miter;" x="517.290093" xlink:href="#ma04e97beb5" y="9.712711"/>
     <use style="fill-opacity:0;stroke:#0000ff;stroke-linejoin:miter;" x="467.834494" xlink:href="#ma04e97beb5" y="95.905706"/>
     <use style="fill-opacity:0;stroke:#0000ff;stroke-linejoin:miter;" x="430.448245" xlink:href="#ma04e97beb5" y="157.256463"/>
     <use style="fill-opacity:0;stroke:#0000ff;stroke-linejoin:miter;" x="403.444298" xlink:href="#ma04e97beb5" y="180.360443"/>
     <use style="fill-opacity:0;stroke:#0000ff;stroke-linejoin:miter;" x="490.046414" xlink:href="#ma04e97beb5" y="-1"/>
     <use style="fill-opacity:0;stroke:#0000ff;stroke-linejoin:miter;" x="497.908946" xlink:href="#ma04e97beb5" y="-1"/>
     <use style="fill-opacity:0;stroke:#0000ff;stroke-linejoin:miter;" x="465.748419" xlink:href="#ma04e97beb5" y="75.409964"/>
     <use style="fill-opacity:0;stroke:#0000ff;stroke-linejoin:miter;" x="502.458594" xlink:href="#ma04e97beb5" y="-1"/>
    </g>
   </g>
   <g id="line2d_22">
    <g clip-path="url(#pc667bffa4e)">
     <use style="stroke:#000000;" x="400.659725" xlink:href="#mb9cb72089e" y="212.522466"/>
     <use style="stroke:#000000;" x="374.256822" xlink:href="#mb9cb72089e" y="216.45103"/>
     <use style="stroke:#000000;" x="357.20401" xlink:href="#mb9cb72089e" y="207.665922"/>
     <use style="stroke:#000000;" x="342.474296" xlink:href="#mb9cb72089e" y="205.811668"/>
     <use style="stroke:#000000;" x="456.458893" xlink:href="#mb9cb72089e" y="-1"/>
     <use style="stroke:#000000;" x="491.846136" xlink:href="#mb9cb72089e" y="-1"/>
     <use style="stroke:#000000;" x="468.998264" xlink:href="#mb9cb72089e" y="92.164785"/>
     <use style="stroke:#000000;" x="431.602734" xlink:href="#mb9cb72089e" y="177.658709"/>
     <use style="stroke:#000000;" x="403.76185" xlink:href="#mb9cb72089e" y="193.174418"/>
     <use style="stroke:#000000;" x="439.225895" xlink:href="#mb9cb72089e" y="-1"/>
     <use style="stroke:#000000;" x="529.432313" xlink:href="#mb9cb72089e" y="-1"/>
     <use style="stroke:#000000;" x="507.235409" xlink:href="#mb9cb72089e" y="128.816596"/>
     <use style="stroke:#000000;" x="463.416091" xlink:href="#mb9cb72089e" y="174.369682"/>
     <use style="stroke:#000000;" x="533.632317" xlink:href="#mb9cb72089e" y="-1"/>
     <use style="stroke:#000000;" x="534.265131" xlink:href="#mb9cb72089e" y="-1"/>
     <use style="stroke:#000000;" x="523.087006" xlink:href="#mb9cb72089e" y="36.501319"/>
    </g>
   </g>
   <g id="patch_8">
    <path d="M 276.610909 228.96 
L 276.610909 7.2 
" style="fill:none;stroke:#000000;stroke-linecap:square;stroke-linejoin:miter;stroke-width:0.8;"/>
   </g>
   <g id="patch_9">
    <path d="M 479.52 228.96 
L 479.52 7.2 
" style="fill:none;stroke:#000000;stroke-linecap:square;stroke-linejoin:miter;stroke-width:0.8;"/>
   </g>
   <g id="patch_10">
    <path d="M 276.610909 228.96 
L 479.52 228.96 
" style="fill:none;stroke:#000000;stroke-linecap:square;stroke-linejoin:miter;stroke-width:0.8;"/>
   </g>
   <g id="patch_11">
    <path d="M 276.610909 7.2 
L 479.52 7.2 
" style="fill:none;stroke:#000000;stroke-linecap:square;stroke-linejoin:miter;stroke-width:0.8;"/>
   </g>
   <g id="text_20">
    <!-- b) -->
    <defs>
     <path d="M 48.6875 27.296875 
Q 48.6875 37.203125 44.609375 42.84375 
Q 40.53125 48.484375 33.40625 48.484375 
Q 26.265625 48.484375 22.1875 42.84375 
Q 18.109375 37.203125 18.109375 27.296875 
Q 18.109375 17.390625 22.1875 11.75 
Q 26.265625 6.109375 33.40625 6.109375 
Q 40.53125 6.109375 44.609375 11.75 
Q 48.6875 17.390625 48.6875 27.296875 
z
M 18.109375 46.390625 
Q 20.953125 51.265625 25.265625 53.625 
Q 29.59375 56 35.59375 56 
Q 45.5625 56 51.78125 48.09375 
Q 58.015625 40.1875 58.015625 27.296875 
Q 58.015625 14.40625 51.78125 6.484375 
Q 45.5625 -1.421875 35.59375 -1.421875 
Q 29.59375 -1.421875 25.265625 0.953125 
Q 20.953125 3.328125 18.109375 8.203125 
L 18.109375 0 
L 9.078125 0 
L 9.078125 75.984375 
L 18.109375 75.984375 
z
" id="DejaVuSans-98"/>
    </defs>
    <g transform="translate(282.698182 29.376)scale(0.1 -0.1)">
     <use xlink:href="#DejaVuSans-98"/>
     <use x="63.476562" xlink:href="#DejaVuSans-41"/>
    </g>
   </g>
   <g id="legend_1">
    <g id="line2d_23"/>
    <g id="line2d_24">
     <g>
      <use style="fill-opacity:0;stroke:#0000ff;stroke-linejoin:miter;" x="364.32" xlink:href="#ma04e97beb5" y="20.34"/>
     </g>
    </g>
    <g id="text_21">
     <!-- $K^*=3.0$ $D_r^*=0.015$ -->
     <defs>
      <path d="M 16.890625 72.90625 
L 26.8125 72.90625 
L 20.796875 42.1875 
L 59.078125 72.90625 
L 72.21875 72.90625 
L 28.90625 38.09375 
L 60.59375 0 
L 48.578125 0 
L 19.484375 35.5 
L 12.59375 0 
L 2.6875 0 
z
" id="DejaVuSans-Oblique-75"/>
      <path d="M 47.015625 60.890625 
L 29.5 51.421875 
L 47.015625 41.890625 
L 44.1875 37.109375 
L 27.78125 47.015625 
L 27.78125 28.609375 
L 22.21875 28.609375 
L 22.21875 47.015625 
L 5.8125 37.109375 
L 2.984375 41.890625 
L 20.515625 51.421875 
L 2.984375 60.890625 
L 5.8125 65.71875 
L 22.21875 55.8125 
L 22.21875 74.21875 
L 27.78125 74.21875 
L 27.78125 55.8125 
L 44.1875 65.71875 
z
" id="DejaVuSans-42"/>
      <path d="M 10.59375 45.40625 
L 73.1875 45.40625 
L 73.1875 37.203125 
L 10.59375 37.203125 
z
M 10.59375 25.484375 
L 73.1875 25.484375 
L 73.1875 17.1875 
L 10.59375 17.1875 
z
" id="DejaVuSans-61"/>
      <path d="M 40.578125 39.3125 
Q 47.65625 37.796875 51.625 33 
Q 55.609375 28.21875 55.609375 21.1875 
Q 55.609375 10.40625 48.1875 4.484375 
Q 40.765625 -1.421875 27.09375 -1.421875 
Q 22.515625 -1.421875 17.65625 -0.515625 
Q 12.796875 0.390625 7.625 2.203125 
L 7.625 11.71875 
Q 11.71875 9.328125 16.59375 8.109375 
Q 21.484375 6.890625 26.8125 6.890625 
Q 36.078125 6.890625 40.9375 10.546875 
Q 45.796875 14.203125 45.796875 21.1875 
Q 45.796875 27.640625 41.28125 31.265625 
Q 36.765625 34.90625 28.71875 34.90625 
L 20.21875 34.90625 
L 20.21875 43.015625 
L 29.109375 43.015625 
Q 36.375 43.015625 40.234375 45.921875 
Q 44.09375 48.828125 44.09375 54.296875 
Q 44.09375 59.90625 40.109375 62.90625 
Q 36.140625 65.921875 28.71875 65.921875 
Q 24.65625 65.921875 20.015625 65.03125 
Q 15.375 64.15625 9.8125 62.3125 
L 9.8125 71.09375 
Q 15.4375 72.65625 20.34375 73.4375 
Q 25.25 74.21875 29.59375 74.21875 
Q 40.828125 74.21875 47.359375 69.109375 
Q 53.90625 64.015625 53.90625 55.328125 
Q 53.90625 49.265625 50.4375 45.09375 
Q 46.96875 40.921875 40.578125 39.3125 
z
" id="DejaVuSans-51"/>
      <path id="DejaVuSans-32"/>
      <path d="M 16.890625 72.90625 
L 38.09375 72.90625 
Q 54.984375 72.90625 63.59375 65.75 
Q 72.21875 58.59375 72.21875 44.484375 
Q 72.21875 35.15625 68.9375 26.53125 
Q 65.671875 17.921875 59.90625 12.015625 
Q 54.109375 5.953125 45.171875 2.96875 
Q 36.234375 0 24.03125 0 
L 2.6875 0 
z
M 25.203125 64.796875 
L 14.203125 8.109375 
L 27.09375 8.109375 
Q 43.65625 8.109375 52.734375 17.625 
Q 61.8125 27.15625 61.8125 44.484375 
Q 61.8125 54.984375 55.953125 59.890625 
Q 50.09375 64.796875 37.59375 64.796875 
z
" id="DejaVuSans-Oblique-68"/>
      <path d="M 44.578125 46.390625 
Q 43.21875 47.125 41.453125 47.515625 
Q 39.703125 47.90625 37.703125 47.90625 
Q 30.515625 47.90625 25.140625 42.453125 
Q 19.78125 37.015625 18.015625 27.875 
L 12.5 0 
L 3.515625 0 
L 14.203125 54.6875 
L 23.1875 54.6875 
L 21.484375 46.1875 
Q 25.046875 50.921875 30 53.453125 
Q 34.96875 56 40.578125 56 
Q 42.046875 56 43.453125 55.828125 
Q 44.875 55.671875 46.296875 55.28125 
z
" id="DejaVuSans-Oblique-114"/>
      <path d="M 12.40625 8.296875 
L 28.515625 8.296875 
L 28.515625 63.921875 
L 10.984375 60.40625 
L 10.984375 69.390625 
L 28.421875 72.90625 
L 38.28125 72.90625 
L 38.28125 8.296875 
L 54.390625 8.296875 
L 54.390625 0 
L 12.40625 0 
z
" id="DejaVuSans-49"/>
      <path d="M 10.796875 72.90625 
L 49.515625 72.90625 
L 49.515625 64.59375 
L 19.828125 64.59375 
L 19.828125 46.734375 
Q 21.96875 47.46875 24.109375 47.828125 
Q 26.265625 48.1875 28.421875 48.1875 
Q 40.625 48.1875 47.75 41.5 
Q 54.890625 34.8125 54.890625 23.390625 
Q 54.890625 11.625 47.5625 5.09375 
Q 40.234375 -1.421875 26.90625 -1.421875 
Q 22.3125 -1.421875 17.546875 -0.640625 
Q 12.796875 0.140625 7.71875 1.703125 
L 7.71875 11.625 
Q 12.109375 9.234375 16.796875 8.0625 
Q 21.484375 6.890625 26.703125 6.890625 
Q 35.15625 6.890625 40.078125 11.328125 
Q 45.015625 15.765625 45.015625 23.390625 
Q 45.015625 31 40.078125 35.4375 
Q 35.15625 39.890625 26.703125 39.890625 
Q 22.75 39.890625 18.8125 39.015625 
Q 14.890625 38.140625 10.796875 36.28125 
z
" id="DejaVuSans-53"/>
     </defs>
     <g transform="translate(380.52 23.49)scale(0.09 -0.09)">
      <use transform="translate(0 0.765625)" xlink:href="#DejaVuSans-Oblique-75"/>
      <use transform="translate(86.230638 39.046875)scale(0.7)" xlink:href="#DejaVuSans-42"/>
      <use transform="translate(157.08513 0.765625)" xlink:href="#DejaVuSans-61"/>
      <use transform="translate(260.356615 0.765625)" xlink:href="#DejaVuSans-51"/>
      <use transform="translate(323.979661 0.765625)" xlink:href="#DejaVuSans-46"/>
      <use transform="translate(355.766771 0.765625)" xlink:href="#DejaVuSans-48"/>
      <use transform="translate(419.389818 0.765625)" xlink:href="#DejaVuSans-32"/>
      <use transform="translate(451.176927 0.765625)" xlink:href="#DejaVuSans-Oblique-68"/>
      <use transform="translate(548.833346 39.046875)scale(0.7)" xlink:href="#DejaVuSans-42"/>
      <use transform="translate(528.17888 -26.578125)scale(0.7)" xlink:href="#DejaVuSans-Oblique-114"/>
      <use transform="translate(619.687839 0.765625)" xlink:href="#DejaVuSans-61"/>
      <use transform="translate(722.959323 0.765625)" xlink:href="#DejaVuSans-48"/>
      <use transform="translate(786.58237 0.765625)" xlink:href="#DejaVuSans-46"/>
      <use transform="translate(818.369479 0.765625)" xlink:href="#DejaVuSans-48"/>
      <use transform="translate(881.992526 0.765625)" xlink:href="#DejaVuSans-49"/>
      <use transform="translate(945.615573 0.765625)" xlink:href="#DejaVuSans-53"/>
     </g>
    </g>
    <g id="LineCollection_3">
     <path d="M 364.32 38.698594 
L 364.32 29.698594 
" style="fill:none;stroke:#000000;stroke-width:1.5;"/>
    </g>
    <g id="line2d_25"/>
    <g id="line2d_26">
     <g>
      <use style="stroke:#000000;" x="364.32" xlink:href="#mb9cb72089e" y="34.198594"/>
     </g>
    </g>
    <g id="text_22">
     <!-- Experiment -->
     <defs>
      <path d="M 9.8125 72.90625 
L 55.90625 72.90625 
L 55.90625 64.59375 
L 19.671875 64.59375 
L 19.671875 43.015625 
L 54.390625 43.015625 
L 54.390625 34.71875 
L 19.671875 34.71875 
L 19.671875 8.296875 
L 56.78125 8.296875 
L 56.78125 0 
L 9.8125 0 
z
" id="DejaVuSans-69"/>
      <path d="M 54.890625 54.6875 
L 35.109375 28.078125 
L 55.90625 0 
L 45.3125 0 
L 29.390625 21.484375 
L 13.484375 0 
L 2.875 0 
L 24.125 28.609375 
L 4.6875 54.6875 
L 15.28125 54.6875 
L 29.78125 35.203125 
L 44.28125 54.6875 
z
" id="DejaVuSans-120"/>
      <path d="M 18.109375 8.203125 
L 18.109375 -20.796875 
L 9.078125 -20.796875 
L 9.078125 54.6875 
L 18.109375 54.6875 
L 18.109375 46.390625 
Q 20.953125 51.265625 25.265625 53.625 
Q 29.59375 56 35.59375 56 
Q 45.5625 56 51.78125 48.09375 
Q 58.015625 40.1875 58.015625 27.296875 
Q 58.015625 14.40625 51.78125 6.484375 
Q 45.5625 -1.421875 35.59375 -1.421875 
Q 29.59375 -1.421875 25.265625 0.953125 
Q 20.953125 3.328125 18.109375 8.203125 
z
M 48.6875 27.296875 
Q 48.6875 37.203125 44.609375 42.84375 
Q 40.53125 48.484375 33.40625 48.484375 
Q 26.265625 48.484375 22.1875 42.84375 
Q 18.109375 37.203125 18.109375 27.296875 
Q 18.109375 17.390625 22.1875 11.75 
Q 26.265625 6.109375 33.40625 6.109375 
Q 40.53125 6.109375 44.609375 11.75 
Q 48.6875 17.390625 48.6875 27.296875 
z
" id="DejaVuSans-112"/>
      <path d="M 56.203125 29.59375 
L 56.203125 25.203125 
L 14.890625 25.203125 
Q 15.484375 15.921875 20.484375 11.0625 
Q 25.484375 6.203125 34.421875 6.203125 
Q 39.59375 6.203125 44.453125 7.46875 
Q 49.3125 8.734375 54.109375 11.28125 
L 54.109375 2.78125 
Q 49.265625 0.734375 44.1875 -0.34375 
Q 39.109375 -1.421875 33.890625 -1.421875 
Q 20.796875 -1.421875 13.15625 6.1875 
Q 5.515625 13.8125 5.515625 26.8125 
Q 5.515625 40.234375 12.765625 48.109375 
Q 20.015625 56 32.328125 56 
Q 43.359375 56 49.78125 48.890625 
Q 56.203125 41.796875 56.203125 29.59375 
z
M 47.21875 32.234375 
Q 47.125 39.59375 43.09375 43.984375 
Q 39.0625 48.390625 32.421875 48.390625 
Q 24.90625 48.390625 20.390625 44.140625 
Q 15.875 39.890625 15.1875 32.171875 
z
" id="DejaVuSans-101"/>
      <path d="M 41.109375 46.296875 
Q 39.59375 47.171875 37.8125 47.578125 
Q 36.03125 48 33.890625 48 
Q 26.265625 48 22.1875 43.046875 
Q 18.109375 38.09375 18.109375 28.8125 
L 18.109375 0 
L 9.078125 0 
L 9.078125 54.6875 
L 18.109375 54.6875 
L 18.109375 46.1875 
Q 20.953125 51.171875 25.484375 53.578125 
Q 30.03125 56 36.53125 56 
Q 37.453125 56 38.578125 55.875 
Q 39.703125 55.765625 41.0625 55.515625 
z
" id="DejaVuSans-114"/>
      <path d="M 9.421875 54.6875 
L 18.40625 54.6875 
L 18.40625 0 
L 9.421875 0 
z
M 9.421875 75.984375 
L 18.40625 75.984375 
L 18.40625 64.59375 
L 9.421875 64.59375 
z
" id="DejaVuSans-105"/>
      <path d="M 52 44.1875 
Q 55.375 50.25 60.0625 53.125 
Q 64.75 56 71.09375 56 
Q 79.640625 56 84.28125 50.015625 
Q 88.921875 44.046875 88.921875 33.015625 
L 88.921875 0 
L 79.890625 0 
L 79.890625 32.71875 
Q 79.890625 40.578125 77.09375 44.375 
Q 74.3125 48.1875 68.609375 48.1875 
Q 61.625 48.1875 57.5625 43.546875 
Q 53.515625 38.921875 53.515625 30.90625 
L 53.515625 0 
L 44.484375 0 
L 44.484375 32.71875 
Q 44.484375 40.625 41.703125 44.40625 
Q 38.921875 48.1875 33.109375 48.1875 
Q 26.21875 48.1875 22.15625 43.53125 
Q 18.109375 38.875 18.109375 30.90625 
L 18.109375 0 
L 9.078125 0 
L 9.078125 54.6875 
L 18.109375 54.6875 
L 18.109375 46.1875 
Q 21.1875 51.21875 25.484375 53.609375 
Q 29.78125 56 35.6875 56 
Q 41.65625 56 45.828125 52.96875 
Q 50 49.953125 52 44.1875 
z
" id="DejaVuSans-109"/>
      <path d="M 54.890625 33.015625 
L 54.890625 0 
L 45.90625 0 
L 45.90625 32.71875 
Q 45.90625 40.484375 42.875 44.328125 
Q 39.84375 48.1875 33.796875 48.1875 
Q 26.515625 48.1875 22.3125 43.546875 
Q 18.109375 38.921875 18.109375 30.90625 
L 18.109375 0 
L 9.078125 0 
L 9.078125 54.6875 
L 18.109375 54.6875 
L 18.109375 46.1875 
Q 21.34375 51.125 25.703125 53.5625 
Q 30.078125 56 35.796875 56 
Q 45.21875 56 50.046875 50.171875 
Q 54.890625 44.34375 54.890625 33.015625 
z
" id="DejaVuSans-110"/>
      <path d="M 18.3125 70.21875 
L 18.3125 54.6875 
L 36.8125 54.6875 
L 36.8125 47.703125 
L 18.3125 47.703125 
L 18.3125 18.015625 
Q 18.3125 11.328125 20.140625 9.421875 
Q 21.96875 7.515625 27.59375 7.515625 
L 36.8125 7.515625 
L 36.8125 0 
L 27.59375 0 
Q 17.1875 0 13.234375 3.875 
Q 9.28125 7.765625 9.28125 18.015625 
L 9.28125 47.703125 
L 2.6875 47.703125 
L 2.6875 54.6875 
L 9.28125 54.6875 
L 9.28125 70.21875 
z
" id="DejaVuSans-116"/>
     </defs>
     <g transform="translate(380.52 37.348594)scale(0.09 -0.09)">
      <use xlink:href="#DejaVuSans-69"/>
      <use x="63.183594" xlink:href="#DejaVuSans-120"/>
      <use x="122.363281" xlink:href="#DejaVuSans-112"/>
      <use x="185.839844" xlink:href="#DejaVuSans-101"/>
      <use x="247.363281" xlink:href="#DejaVuSans-114"/>
      <use x="288.476562" xlink:href="#DejaVuSans-105"/>
      <use x="316.259766" xlink:href="#DejaVuSans-109"/>
      <use x="413.671875" xlink:href="#DejaVuSans-101"/>
      <use x="475.195312" xlink:href="#DejaVuSans-110"/>
      <use x="538.574219" xlink:href="#DejaVuSans-116"/>
     </g>
    </g>
   </g>
  </g>
  <g id="text_23">
   <!-- $\kappa$ ($\mathrm{\mu m}^{-1}$) -->
   <defs>
    <path d="M 14.65625 54.6875 
L 23.921875 54.6875 
L 19.484375 31.984375 
L 47.515625 54.6875 
L 58.453125 54.6875 
L 32.90625 34.078125 
L 51.171875 0 
L 40.1875 0 
L 25.4375 28.21875 
L 17.53125 21.921875 
L 13.28125 0 
L 4 0 
z
" id="DejaVuSans-Oblique-954"/>
    <path d="M 31 75.875 
Q 24.46875 64.65625 21.28125 53.65625 
Q 18.109375 42.671875 18.109375 31.390625 
Q 18.109375 20.125 21.3125 9.0625 
Q 24.515625 -2 31 -13.1875 
L 23.1875 -13.1875 
Q 15.875 -1.703125 12.234375 9.375 
Q 8.59375 20.453125 8.59375 31.390625 
Q 8.59375 42.28125 12.203125 53.3125 
Q 15.828125 64.359375 23.1875 75.875 
z
" id="DejaVuSans-40"/>
    <path d="M 8.5 -20.796875 
L 8.5 54.6875 
L 17.484375 54.6875 
L 17.484375 20.703125 
Q 17.484375 13.625 20.84375 10 
Q 24.21875 6.390625 30.8125 6.390625 
Q 38.03125 6.390625 41.671875 10.484375 
Q 45.3125 14.59375 45.3125 22.796875 
L 45.3125 54.6875 
L 54.296875 54.6875 
L 54.296875 12.59375 
Q 54.296875 9.671875 55.140625 8.28125 
Q 56 6.890625 57.8125 6.890625 
Q 58.25 6.890625 59.03125 7.15625 
Q 59.8125 7.421875 61.1875 8.015625 
L 61.1875 0.78125 
Q 59.1875 -0.34375 57.390625 -0.875 
Q 55.609375 -1.421875 53.90625 -1.421875 
Q 50.53125 -1.421875 48.53125 0.484375 
Q 46.53125 2.390625 45.796875 6.296875 
Q 43.359375 2.4375 39.8125 0.5 
Q 36.28125 -1.421875 31.5 -1.421875 
Q 26.515625 -1.421875 23.015625 0.484375 
Q 19.53125 2.390625 17.484375 6.203125 
L 17.484375 -20.796875 
z
" id="DejaVuSans-956"/>
   </defs>
   <g transform="translate(227.27 254.88)scale(0.1 -0.1)">
    <use transform="translate(0 0.684375)" xlink:href="#DejaVuSans-Oblique-954"/>
    <use transform="translate(58.935547 0.684375)" xlink:href="#DejaVuSans-32"/>
    <use transform="translate(90.722656 0.684375)" xlink:href="#DejaVuSans-40"/>
    <use transform="translate(129.736328 0.684375)" xlink:href="#DejaVuSans-956"/>
    <use transform="translate(193.359375 0.684375)" xlink:href="#DejaVuSans-109"/>
    <use transform="translate(291.728516 38.965625)scale(0.7)" xlink:href="#DejaVuSans-8722"/>
    <use transform="translate(350.380859 38.965625)scale(0.7)" xlink:href="#DejaVuSans-49"/>
    <use transform="translate(397.651367 0.684375)" xlink:href="#DejaVuSans-41"/>
   </g>
  </g>
  <g id="text_24">
   <!-- $c_1$ -->
   <defs>
    <path d="M 53.609375 52.59375 
L 51.8125 43.703125 
Q 48.578125 46.046875 44.9375 47.21875 
Q 41.3125 48.390625 37.40625 48.390625 
Q 33.109375 48.390625 29.21875 46.875 
Q 25.34375 45.359375 22.703125 42.578125 
Q 18.5 38.328125 16.203125 32.609375 
Q 13.921875 26.90625 13.921875 20.796875 
Q 13.921875 13.421875 17.609375 9.8125 
Q 21.296875 6.203125 28.8125 6.203125 
Q 32.515625 6.203125 36.6875 7.328125 
Q 40.875 8.453125 45.40625 10.6875 
L 43.703125 1.8125 
Q 39.796875 0.203125 35.671875 -0.609375 
Q 31.546875 -1.421875 27.203125 -1.421875 
Q 16.3125 -1.421875 10.453125 4.015625 
Q 4.59375 9.46875 4.59375 19.578125 
Q 4.59375 28.078125 7.640625 35.234375 
Q 10.6875 42.390625 16.703125 48.09375 
Q 20.796875 52 26.3125 54 
Q 31.84375 56 38.375 56 
Q 42.1875 56 45.9375 55.140625 
Q 49.703125 54.296875 53.609375 52.59375 
z
" id="DejaVuSans-Oblique-99"/>
   </defs>
   <g transform="translate(14.798438 121.79)rotate(-90)scale(0.1 -0.1)">
    <use xlink:href="#DejaVuSans-Oblique-99"/>
    <use transform="translate(54.980469 -16.40625)scale(0.7)" xlink:href="#DejaVuSans-49"/>
   </g>
  </g>
 </g>
 <defs>
  <clipPath id="p400508e3a4">
   <rect height="221.76" width="202.909091" x="33.12" y="7.2"/>
  </clipPath>
  <clipPath id="pc667bffa4e">
   <rect height="221.76" width="202.909091" x="276.610909" y="7.2"/>
  </clipPath>
 </defs>
</svg>
