<svg width="542" height="530" xmlns="http://www.w3.org/2000/svg" xmlns:xlink="http://www.w3.org/1999/xlink" overflow="hidden"><defs><clipPath id="clip0"><rect x="1357" y="1015" width="542" height="530"/></clipPath></defs><g clip-path="url(#clip0)" transform="translate(-1357 -1015)"><path d="M1371 1362 1378.44 1339.06 1385.06 1316.94 1391 1295.62 1396.44 1275.31 1401.5 1256 1406.31 1237.87 1411.06 1221 1415.87 1205.5 1418.31 1198.25 1420.87 1191.44 1423.44 1184.94 1426.19 1178.87 1429.06 1173.25 1432.06 1168.06 1435.19 1163.25 1438.56 1158.94 1442.06 1155.06 1445.81 1151.69 1449.81 1148.75 1454 1146.37 1458.5 1144.5 1463.31 1143.12 1468.37 1142.25 1473.81 1142 1476.62 1142.31 1479.37 1143.12 1482.12 1144.5 1484.81 1146.37 1487.5 1148.75 1490.19 1151.62 1492.87 1154.94 1495.5 1158.69 1498.19 1162.87 1500.75 1167.5 1503.37 1172.5 1505.94 1177.87 1511.06 1189.62 1516.12 1202.69 1521.19 1216.87 1526.12 1232.06 1531.06 1248.12 1535.94 1264.94 1540.75 1282.25 1545.56 1300 1555.12 1336.25 1564.56 1372.5 1569.25 1390.25 1573.87 1407.56 1578.56 1424.37 1583.25 1440.44 1587.87 1455.62 1592.56 1469.87 1597.25 1482.94 1601.94 1494.75 1604.25 1500.12 1606.62 1505.12 1609 1509.75 1611.31 1513.94 1613.69 1517.75 1616.06 1521.06 1618.44 1523.94 1620.81 1526.37 1623.25 1528.25 1625.62 1529.62 1628.06 1530.5 1630.44 1530.81 1632.94 1530.75 1635.31 1529.94 1637.69 1528.62 1640.12 1526.81 1642.5 1524.5 1644.87 1521.69 1647.25 1518.37 1649.56 1514.69 1651.94 1510.56 1654.25 1506 1656.62 1501.12 1658.94 1495.81 1663.62 1484.19 1668.25 1471.25 1672.87 1457.25 1677.5 1442.19 1682.12 1426.31 1686.69 1409.75 1691.31 1392.56 1695.94 1375 1705.19 1339.06 1714.56 1303.19 1719.25 1285.56 1723.94 1268.37 1728.69 1251.69 1733.5 1235.75 1738.31 1220.69 1743.12 1206.56 1748.06 1193.56 1753 1181.81 1755.5 1176.44 1758 1171.44 1760.5 1166.87 1763 1162.69 1765.56 1158.87 1768.12 1155.56 1770.69 1152.69 1773.25 1150.25 1775.87 1148.37 1778.5 1146.94 1781.12 1146.06 1783.81 1145.75 1789.5 1146.5 1794.75 1147.56 1799.75 1149.12 1804.37 1151.25 1808.81 1153.94 1812.94 1157.12 1816.81 1160.81 1820.44 1165 1823.87 1169.69 1827.12 1174.87 1830.19 1180.44 1833.06 1186.5 1835.87 1193 1838.5 1199.87 1841.06 1207.19 1843.5 1214.87 1845.87 1222.94 1848.19 1231.37 1852.75 1249.31 1857.31 1268.56 1862 1289 1867 1310.56 1872.37 1333.12 1878.31 1356.56 1885 1380.81 1858.49 1388.12 1851.65 1363.32 1845.62 1339.5 1840.21 1316.77 1835.2 1295.15 1830.55 1274.9 1826.1 1256.09 1821.67 1238.64 1819.5 1230.71 1817.29 1223.19 1815.11 1216.28 1812.81 1209.68 1810.64 1203.92 1808.21 1198.28 1806.1 1193.7 1803.82 1189.48 1801.7 1185.95 1799.65 1183 1797.85 1180.73 1796.12 1178.89 1794.57 1177.46 1792.89 1176.24 1791.55 1175.37 1789.3 1174.52 1785.9 1173.76 1783.6 1173.46 1787.12 1173.05 1789.54 1172.24 1791.86 1170.75 1792.2 1170.18 1791.22 1170.99 1789.88 1172.39 1788.39 1174.22 1786.61 1176.78 1784.62 1180.09 1782.6 1183.74 1780.43 1188.03 1778.35 1192.47 1773.77 1203.33 1769.16 1215.43 1764.51 1229.06 1759.83 1243.7 1755.14 1259.22 1750.47 1275.61 1745.83 1292.63 1741.17 1310.14 1731.82 1345.92 1722.53 1382 1717.87 1399.71 1713.2 1417.05 1708.53 1434 1703.79 1450.26 1698.99 1465.88 1694.15 1480.51 1689.13 1494.47 1684.15 1506.79 1681.35 1513.17 1678.78 1518.43 1675.77 1524.28 1672.86 1529.3 1669.6 1534.4 1665.89 1539.43 1661.68 1544.2 1656.53 1548.88 1650.99 1552.69 1648.61 1554.01C1647.21 1554.78 1645.73 1555.44 1644.21 1555.96L1641.84 1556.77C1639.19 1557.67 1636.42 1558.17 1633.62 1558.24L1631.12 1558.3C1629.7 1558.34 1628.27 1558.26 1626.85 1558.08L1624.47 1557.76C1622.53 1557.51 1620.62 1557.05 1618.77 1556.38L1616.33 1555.51C1614.78 1554.95 1613.28 1554.25 1611.85 1553.42L1606.48 1550.05 1604.05 1548.17C1603.01 1547.38 1602.03 1546.5 1601.12 1545.57L1597.24 1541.45 1593.71 1537.09 1590.35 1532.29 1587.24 1527.23 1584.54 1522.31 1581.78 1516.92 1578.99 1510.99 1576.38 1504.89 1571.37 1492.23 1566.44 1478.47 1561.57 1463.64 1556.85 1448.14 1552.07 1431.76 1547.31 1414.66 1542.66 1397.27 1537.95 1379.43 1528.53 1343.26 1519.02 1307.2 1514.25 1289.61 1509.53 1272.6 1504.78 1256.21 1499.97 1240.56 1495.29 1226.12 1490.48 1212.62 1485.86 1200.62 1481.11 1189.71 1479.03 1185.28 1476.7 1180.83 1475.04 1177.73 1472.97 1174.46 1471.52 1172.26 1470.1 1170.4 1469.29 1169.36 1469.08 1168.93 1468.03 1168.2 1469.25 1168.81 1471.17 1169.38 1472.92 1169.57 1473.06 1169.35 1470.87 1169.57 1469.08 1169.88 1467.57 1170.3 1466.09 1170.92 1464.21 1172.13 1462.47 1173.5 1460.22 1175.89 1458.25 1178.23 1455.87 1181.83 1453.55 1185.77 1451.23 1190.23 1449.02 1195.02 1446.61 1201.12 1444.38 1207.01 1442.14 1213.65 1437.53 1228.45 1432.89 1244.93 1428.1 1262.97 1423 1282.42 1417.49 1303.01 1411.41 1324.83 1404.6 1347.54 1397.16 1370.48Z" fill="#ADC7D6"/><path d="M1628.5 1253.5C1628.5 1240.25 1641.93 1229.5 1658.5 1229.5 1675.07 1229.5 1688.5 1240.25 1688.5 1253.5 1688.5 1266.75 1675.07 1277.5 1658.5 1277.5 1641.93 1277.5 1628.5 1266.75 1628.5 1253.5Z" fill="#DAE3F3" fill-rule="evenodd"/><path d="M1629.79 1253.5C1629.79 1240.96 1642.64 1230.79 1658.5 1230.79 1674.36 1230.79 1687.21 1240.96 1687.21 1253.5 1687.21 1266.04 1674.36 1276.21 1658.5 1276.21 1642.64 1276.21 1629.79 1266.04 1629.79 1253.5Z" stroke="#000000" stroke-width="4.58333" stroke-linejoin="round" stroke-miterlimit="10" fill="none" fill-rule="evenodd"/><path d="M1.10685-0.296323 39.145 141.787 36.9313 142.38-1.10685 0.296323ZM50.1351 134.1 43.9646 164.221 23.5706 141.212Z" transform="matrix(1 0 0 -1 1724 1263.22)"/><path d="M1714.09 1262.26 1718.44 1258.67 1722.5 1263.57 1726.56 1258.67 1730.91 1262.26 1726.16 1268 1730.91 1273.74 1726.56 1277.33 1722.5 1272.43 1718.44 1277.33 1714.09 1273.74 1718.84 1268Z" fill-rule="evenodd"/><path d="M1714.09 1262.26 1718.44 1258.67 1722.5 1263.57 1726.56 1258.67 1730.91 1262.26 1726.16 1268 1730.91 1273.74 1726.56 1277.33 1722.5 1272.43 1718.44 1277.33 1714.09 1273.74 1718.84 1268ZM1723.3 1268 1718.93 1273.28 1717.98 1272.49 1722.5 1267.04 1727.02 1272.49 1726.07 1273.28 1721.7 1268 1726.07 1262.72 1727.02 1263.51 1722.5 1268.96 1717.98 1263.51 1718.93 1262.72Z"/><path d="M1.10685-0.296323 39.145 141.787 36.9313 142.38-1.10685 0.296323ZM50.1351 134.1 43.9646 164.221 23.5706 141.212Z" transform="matrix(-1.83697e-16 -1 -1 1.83697e-16 1721.22 1267.96)"/><path d="M1778.16 1052.15 1784.6 1052.15 1783.05 1058.86 1789.57 1058.86 1788.85 1062.22 1782.27 1062.22 1779.66 1072.96C1779.22 1074.81 1778.91 1076.21 1778.74 1077.17 1778.57 1078.12 1778.48 1078.93 1778.48 1079.6 1778.48 1080.44 1778.63 1081.05 1778.94 1081.44 1779.24 1081.82 1779.69 1082.01 1780.28 1082.01 1781.09 1082.01 1781.91 1081.73 1782.77 1081.15 1783.62 1080.58 1784.53 1079.69 1785.52 1078.5L1787.59 1080.62C1785.78 1082.6 1784.12 1083.99 1782.6 1084.77 1781.09 1085.54 1779.31 1085.93 1777.25 1085.93 1775.21 1085.93 1773.64 1085.41 1772.55 1084.36 1771.45 1083.32 1770.91 1081.87 1770.91 1080.03 1770.91 1079.18 1770.97 1078.38 1771.1 1077.62 1771.22 1076.86 1771.48 1075.61 1771.88 1073.88L1774.64 1062.22 1770.45 1062.22 1770.96 1060.05C1772.22 1060.05 1773.16 1059.93 1773.81 1059.7 1774.45 1059.46 1774.99 1059.11 1775.43 1058.65 1775.87 1058.18 1776.3 1057.48 1776.71 1056.53 1777.12 1055.58 1777.6 1054.12 1778.16 1052.15Z" fill-rule="evenodd"/><text fill="#000000" fill-opacity="0" font-family="Arial,Arial_MSFontService,sans-serif" font-size="33.7842" x="1770.45" y="1081.71">๐</text><path d="M1777.2 1039.65 1780.79 1039.65 1789.92 1048.11 1788.47 1049.64 1778.99 1043.12 1778.7 1043.12 1769.06 1049.64 1767.61 1048.11Z" fill-rule="evenodd"/><text fill="#000000" fill-opacity="0" font-family="Arial,Arial_MSFontService,sans-serif" font-size="9.99023" x="1767.61" y="1048.39">เท</text><path d="M1791.69 1077.2 1797.34 1077.2 1798.86 1093.06C1799.69 1091.77 1800.43 1090.61 1801.07 1089.57 1801.7 1088.52 1802.26 1087.57 1802.75 1086.69 1803.23 1085.82 1803.64 1085.01 1804 1084.27 1804.35 1083.53 1804.64 1082.82 1804.88 1082.14 1805.13 1081.47 1805.33 1080.8 1805.49 1080.15 1805.65 1079.5 1805.79 1078.83 1805.91 1078.14L1806.14 1077.2 1809.27 1077.2 1810.97 1093.06C1813.12 1090.13 1814.74 1087.57 1815.84 1085.38 1816.94 1083.18 1817.49 1081.43 1817.49 1080.11 1817.49 1079.54 1817.36 1079.14 1817.08 1078.9 1816.81 1078.67 1816.31 1078.52 1815.6 1078.45L1815.83 1077.2 1821.34 1077.2 1822.02 1078.34C1821.48 1079.75 1820.87 1081.15 1820.22 1082.53 1819.56 1083.91 1818.79 1085.35 1817.9 1086.84 1817.02 1088.33 1815.98 1089.91 1814.8 1091.58 1813.61 1093.24 1812.22 1095.07 1810.62 1097.05L1808.12 1097.05 1806.54 1083.49C1805.68 1085.47 1804.59 1087.58 1803.28 1089.82 1801.97 1092.06 1800.43 1094.47 1798.66 1097.05L1795.81 1097.05 1793.98 1082.3C1793.87 1081.52 1793.78 1080.89 1793.7 1080.42 1793.62 1079.94 1793.5 1079.57 1793.34 1079.3 1793.18 1079.03 1792.95 1078.84 1792.65 1078.73 1792.35 1078.61 1791.93 1078.52 1791.4 1078.45Z" fill-rule="evenodd"/><text fill="#000000" fill-opacity="0" font-family="Arial,Arial_MSFontService,sans-serif" font-size="19.8438" x="1791.4" y="1094.57">๐ค</text><path d="M1499.72 1338.52C1500.81 1338.52 1501.95 1338.63 1503.15 1338.86L1503.15 1346.28 1498.29 1346.28C1497.99 1345.24 1497.59 1344.44 1497.1 1343.89 1496.61 1343.33 1495.95 1343.05 1495.12 1343.05 1494.73 1343.05 1494.3 1343.18 1493.82 1343.42 1493.35 1343.66 1492.91 1344 1492.51 1344.44 1492.1 1344.88 1491.82 1345.32 1491.65 1345.78 1491.48 1346.24 1491.36 1346.7 1491.31 1347.16 1491.26 1347.63 1491.23 1348.33 1491.23 1349.26L1491.23 1357.82C1491.23 1359.53 1491.29 1360.72 1491.42 1361.4 1491.54 1362.08 1491.79 1362.61 1492.17 1362.99 1492.55 1363.38 1493.18 1363.65 1494.08 1363.81L1494.08 1365.59 1480.84 1365.59 1480.84 1363.81C1481.7 1363.58 1482.29 1363.28 1482.62 1362.9 1482.95 1362.52 1483.18 1362.01 1483.29 1361.37 1483.41 1360.73 1483.47 1359.55 1483.47 1357.85L1483.47 1346.81C1483.47 1345.49 1483.45 1344.51 1483.4 1343.87 1483.36 1343.24 1483.25 1342.73 1483.08 1342.34 1482.91 1341.96 1482.65 1341.64 1482.3 1341.4 1481.95 1341.16 1481.35 1340.95 1480.49 1340.77L1480.49 1338.95 1487.85 1338.73 1491.23 1338.73 1490.85 1342.79 1491.2 1342.87C1492.51 1341.33 1493.85 1340.22 1495.23 1339.54 1496.61 1338.86 1498.1 1338.52 1499.72 1338.52Z" fill-rule="evenodd"/><text fill="#000000" fill-opacity="0" font-family="Arial,Arial_MSFontService,sans-serif" font-size="27.0703" x="1480.49" y="1362.2">๐ซ</text><path d="M1614.12 1378.99C1615.21 1378.99 1616.36 1379.1 1617.56 1379.34L1617.56 1386.75 1612.7 1386.75C1612.39 1385.71 1611.99 1384.91 1611.5 1384.36 1611.01 1383.8 1610.35 1383.52 1609.53 1383.52 1609.13 1383.52 1608.7 1383.65 1608.22 1383.89 1607.75 1384.13 1607.31 1384.47 1606.91 1384.91 1606.51 1385.35 1606.22 1385.79 1606.05 1386.25 1605.88 1386.71 1605.77 1387.17 1605.71 1387.63 1605.66 1388.1 1605.63 1388.8 1605.63 1389.73L1605.63 1398.3C1605.63 1400 1605.7 1401.19 1605.82 1401.87 1605.95 1402.55 1606.2 1403.08 1606.57 1403.46 1606.95 1403.85 1607.58 1404.12 1608.48 1404.28L1608.48 1406.06 1595.24 1406.06 1595.24 1404.28C1596.1 1404.05 1596.69 1403.75 1597.03 1403.37 1597.36 1402.99 1597.58 1402.48 1597.7 1401.84 1597.81 1401.2 1597.87 1400.02 1597.87 1398.32L1597.87 1387.28C1597.87 1385.96 1597.85 1384.98 1597.8 1384.34 1597.76 1383.71 1597.65 1383.2 1597.48 1382.81 1597.31 1382.43 1597.05 1382.11 1596.7 1381.87 1596.35 1381.63 1595.75 1381.42 1594.89 1381.24L1594.89 1379.42 1602.25 1379.2 1605.63 1379.2 1605.26 1383.26 1605.61 1383.34C1606.91 1381.8 1608.26 1380.69 1609.63 1380.01 1611.01 1379.33 1612.51 1378.99 1614.12 1378.99Z" fill-rule="evenodd"/><text fill="#000000" fill-opacity="0" font-family="Arial,Arial_MSFontService,sans-serif" font-size="27.0703" x="1594.89" y="1402.67">๐ซ</text><path d="M1615.95 1397.75 1621.59 1397.75 1623.11 1413.61C1623.95 1412.32 1624.68 1411.16 1625.32 1410.12 1625.96 1409.08 1626.52 1408.12 1627 1407.25 1627.48 1406.37 1627.9 1405.57 1628.25 1404.82 1628.6 1404.08 1628.9 1403.37 1629.14 1402.7 1629.38 1402.02 1629.58 1401.35 1629.75 1400.7 1629.91 1400.05 1630.05 1399.38 1630.17 1398.69L1630.4 1397.75 1633.52 1397.75 1635.22 1413.61C1637.37 1410.68 1639 1408.12 1640.1 1405.93 1641.2 1403.73 1641.75 1401.98 1641.75 1400.66 1641.75 1400.09 1641.61 1399.69 1641.34 1399.45 1641.06 1399.22 1640.57 1399.07 1639.85 1399L1640.09 1397.75 1645.59 1397.75 1646.28 1398.89C1645.73 1400.31 1645.13 1401.71 1644.47 1403.09 1643.81 1404.47 1643.04 1405.9 1642.16 1407.39 1641.27 1408.88 1640.24 1410.46 1639.05 1412.13 1637.87 1413.8 1636.47 1415.62 1634.87 1417.6L1632.37 1417.6 1630.79 1404.04C1629.93 1406.02 1628.85 1408.13 1627.54 1410.37 1626.23 1412.61 1624.69 1415.02 1622.92 1417.6L1620.07 1417.6 1618.23 1402.85C1618.13 1402.07 1618.04 1401.44 1617.96 1400.97 1617.88 1400.49 1617.76 1400.12 1617.6 1399.85 1617.43 1399.59 1617.2 1399.39 1616.9 1399.28 1616.6 1399.16 1616.19 1399.07 1615.65 1399Z" fill-rule="evenodd"/><text fill="#000000" fill-opacity="0" font-family="Arial,Arial_MSFontService,sans-serif" font-size="19.8438" x="1615.65" y="1415.12">๐ค</text><path d="M1524.84 1169.81C1526.33 1169.81 1527.51 1170.23 1528.4 1171.06 1529.29 1171.9 1529.73 1172.99 1529.73 1174.35 1529.73 1174.8 1529.68 1175.23 1529.57 1175.64L1529.84 1175.86C1531.52 1173.76 1533.12 1172.23 1534.63 1171.27 1536.14 1170.3 1537.91 1169.81 1539.93 1169.81 1541.78 1169.81 1543.22 1170.33 1544.27 1171.37 1545.32 1172.41 1545.84 1173.83 1545.84 1175.62 1545.84 1176.19 1545.78 1176.9 1545.67 1177.76 1545.55 1178.62 1545.41 1179.38 1545.25 1180.05L1543.13 1188.43C1542.83 1189.63 1542.67 1190.67 1542.67 1191.57 1542.67 1192.27 1542.79 1192.75 1543.02 1193.02 1543.26 1193.29 1543.59 1193.42 1544.02 1193.42 1544.54 1193.42 1545.12 1193.17 1545.76 1192.68 1546.41 1192.19 1547.17 1191.44 1548.04 1190.44L1549.98 1192.37C1548.22 1194.16 1546.65 1195.44 1545.27 1196.19 1543.88 1196.94 1542.35 1197.31 1540.69 1197.31 1538.79 1197.31 1537.4 1196.84 1536.52 1195.91 1535.65 1194.97 1535.21 1193.58 1535.21 1191.76 1535.21 1190.45 1535.47 1188.77 1535.99 1186.73L1537.17 1182.28C1537.47 1181.13 1537.73 1180 1537.95 1178.88 1538.16 1177.76 1538.27 1176.84 1538.27 1176.13 1538.27 1175.32 1538.1 1174.72 1537.76 1174.33 1537.42 1173.93 1536.94 1173.74 1536.31 1173.74 1535.43 1173.74 1534.43 1174.26 1533.3 1175.29 1532.17 1176.33 1531.27 1177.43 1530.59 1178.58 1529.91 1179.74 1529.37 1181.25 1528.98 1183.11L1525.97 1196.89 1518.26 1196.89 1522.59 1178.22C1522.85 1177.06 1522.99 1176.17 1522.99 1175.56 1522.99 1174.97 1522.89 1174.51 1522.69 1174.19 1522.5 1173.87 1522.16 1173.71 1521.67 1173.71 1521.12 1173.71 1520.52 1173.96 1519.87 1174.46 1519.23 1174.96 1518.48 1175.71 1517.62 1176.69L1515.68 1174.76C1517.47 1172.93 1519.06 1171.65 1520.45 1170.92 1521.84 1170.18 1523.3 1169.81 1524.84 1169.81Z" fill-rule="evenodd"/><text fill="#000000" fill-opacity="0" font-family="Arial,Arial_MSFontService,sans-serif" font-size="27.5" x="1515.68" y="1193.88">๐</text><path d="M1530.83 1157.15 1534.43 1157.15 1548.4 1165.61 1547.29 1167.3 1532.93 1160.61 1532.63 1160.61 1518.29 1167.3 1517.22 1165.61Z" fill-rule="evenodd"/><text fill="#000000" fill-opacity="0" font-family="Arial,Arial_MSFontService,sans-serif" font-size="10.1514" x="1517.22" y="1166.03">เท</text><path d="M1552.03 1188.58 1557.67 1188.58 1559.19 1204.44C1560.03 1203.15 1560.76 1201.99 1561.4 1200.95 1562.04 1199.9 1562.6 1198.95 1563.08 1198.08 1563.56 1197.2 1563.98 1196.4 1564.33 1195.65 1564.68 1194.91 1564.98 1194.2 1565.22 1193.52 1565.46 1192.85 1565.66 1192.18 1565.82 1191.53 1565.99 1190.88 1566.13 1190.21 1566.24 1189.52L1566.48 1188.58 1569.6 1188.58 1571.3 1204.44C1573.45 1201.51 1575.08 1198.95 1576.18 1196.76 1577.28 1194.56 1577.83 1192.81 1577.83 1191.49 1577.83 1190.92 1577.69 1190.52 1577.42 1190.28 1577.14 1190.05 1576.65 1189.9 1575.93 1189.83L1576.17 1188.58 1581.67 1188.58 1582.36 1189.72C1581.81 1191.14 1581.21 1192.54 1580.55 1193.92 1579.89 1195.3 1579.12 1196.73 1578.24 1198.22 1577.35 1199.71 1576.32 1201.29 1575.13 1202.96 1573.95 1204.62 1572.55 1206.45 1570.95 1208.43L1568.45 1208.43 1566.87 1194.87C1566.01 1196.85 1564.93 1198.96 1563.62 1201.2 1562.31 1203.44 1560.77 1205.85 1559 1208.43L1556.15 1208.43 1554.31 1193.68C1554.21 1192.9 1554.11 1192.27 1554.04 1191.8 1553.96 1191.32 1553.84 1190.95 1553.68 1190.68 1553.51 1190.42 1553.28 1190.22 1552.98 1190.11 1552.68 1189.99 1552.27 1189.9 1551.73 1189.83Z" fill-rule="evenodd"/><text fill="#000000" fill-opacity="0" font-family="Arial,Arial_MSFontService,sans-serif" font-size="19.8438" x="1551.73" y="1205.95">๐ค</text><path d="M1675.05 1274.55 1714.72 1366.41 1712.62 1367.32 1672.95 1275.45ZM1724.47 1357.21 1722.75 1387.91 1699.23 1368.11Z"/><path d="M1751.19 1384.41C1750.39 1384.41 1749.61 1384.62 1748.84 1385.03 1748.08 1385.44 1747.46 1386.03 1746.98 1386.79 1746.49 1387.55 1746.25 1388.4 1746.25 1389.35L1746.25 1398.46C1746.25 1400.66 1746.63 1402.28 1747.39 1403.33 1748.16 1404.38 1749.33 1404.9 1750.93 1404.9 1752.57 1404.9 1753.83 1404.04 1754.7 1402.31 1755.57 1400.58 1756 1398.12 1756 1394.91 1756 1391.35 1755.61 1388.71 1754.83 1386.99 1754.05 1385.27 1752.84 1384.41 1751.19 1384.41ZM1754.61 1380.2C1757.79 1380.2 1760.18 1381.32 1761.78 1383.57 1763.37 1385.81 1764.17 1389.17 1764.17 1393.65 1764.17 1398.32 1763.11 1401.83 1761.01 1404.18 1758.91 1406.52 1755.8 1407.7 1751.68 1407.7 1749.83 1407.7 1748.03 1407.46 1746.25 1407L1746.25 1412.07C1746.25 1413.42 1746.32 1414.36 1746.47 1414.92 1746.61 1415.47 1746.87 1415.91 1747.23 1416.24 1747.6 1416.56 1748.25 1416.83 1749.18 1417.04L1749.18 1418.81 1735.81 1418.81 1735.81 1417.04C1736.65 1416.79 1737.23 1416.51 1737.57 1416.21 1737.9 1415.9 1738.13 1415.48 1738.28 1414.93 1738.42 1414.39 1738.49 1413.43 1738.49 1412.07L1738.49 1388.57C1738.49 1387.2 1738.47 1386.2 1738.44 1385.59 1738.4 1384.98 1738.3 1384.48 1738.13 1384.08 1737.96 1383.67 1737.7 1383.35 1737.34 1383.1 1736.98 1382.85 1736.37 1382.63 1735.51 1382.45L1735.51 1380.63 1742.95 1380.41 1746.25 1380.41 1745.85 1384.3 1746.17 1384.39C1747.71 1382.9 1749.15 1381.83 1750.48 1381.18 1751.82 1380.52 1753.19 1380.2 1754.61 1380.2Z" fill-rule="evenodd"/><text fill="#000000" fill-opacity="0" font-family="Arial,Arial_MSFontService,sans-serif" font-size="38.6182" x="1735.51" y="1413.99">๐ฉ</text><path d="M1638.19 1234 1642.31 1218.13 1644.12 1210.5 1645.56 1203.19 1646.56 1196.31 1647 1190.06 1646.81 1184.44 1645.81 1179.69 1644.87 1177.75 1643.62 1176.19 1640.12 1174 1635.75 1172.69 1630.94 1171.88 1626.06 1171.06 1621.62 1169.94 1617.87 1167.94 1616.44 1166.56 1615.37 1164.75 1613.94 1160.38 1613.19 1155.31 1613 1149.69 1613.31 1143.56 1614 1137 1614.94 1130.19 1617.31 1116 1619.57 1116.38 1617.21 1130.5 1616.28 1137.24 1615.6 1143.68 1615.29 1149.61 1615.45 1154.98 1616.18 1159.85 1617.48 1163.8 1618.25 1165.13 1619.23 1166.06 1622.46 1167.78 1626.44 1168.8 1631.32 1169.62 1636.41 1170.49 1640.78 1171.81C1640.98 1171.86 1641.17 1171.95 1641.34 1172.06L1644.84 1174.24C1645.06 1174.38 1645.25 1174.55 1645.41 1174.76L1646.66 1176.32C1646.77 1176.45 1646.86 1176.6 1646.94 1176.75L1647.88 1178.69C1647.96 1178.86 1648.02 1179.03 1648.05 1179.22L1649.05 1183.97C1649.08 1184.1 1649.1 1184.23 1649.1 1184.36L1649.29 1190.22 1648.83 1196.64 1647.81 1203.63 1646.35 1211.03 1644.53 1218.7 1640.41 1234.58Z"/><path d="M1658.57 1228.36 1656.96 1220.89 1654.61 1214.76 1651.73 1209.74 1648.45 1205.56 1644.95 1201.96 1641.39 1198.72 1637.94 1195.57 1634.78 1192.3 1631.81 1189.15 1628.83 1186.61 1622.93 1182.33 1616.9 1178.38 1613.82 1176.1 1610.68 1173.36 1607.7 1169.87 1605.02 1165.51 1602.65 1160.41 1600.47 1154.67 1598.48 1148.39 1596.67 1141.76 1593.29 1127.77 1595.52 1127.24 1598.88 1141.15 1600.66 1147.7 1602.62 1153.86 1604.72 1159.44 1606.98 1164.31 1609.56 1168.52 1612.31 1171.74 1615.18 1174.26 1618.15 1176.47 1624.27 1180.48 1630.31 1184.87 1633.48 1187.57 1636.43 1190.7 1639.49 1193.88 1642.94 1197.03 1646.59 1200.36 1650.26 1204.15 1653.53 1208.32C1653.6 1208.41 1653.66 1208.5 1653.71 1208.6L1656.6 1213.62C1656.66 1213.72 1656.71 1213.83 1656.75 1213.94L1659.1 1220.08C1659.14 1220.18 1659.17 1220.29 1659.2 1220.41L1660.81 1227.87Z"/><path d="M1640.2 1230.95 1639.39 1227.15 1638.11 1223.83 1636.46 1221.07 1634.56 1218.68 1630.03 1214.91 1625.08 1212.06 1620.18 1209.66 1615.77 1207.26 1613.97 1205.92 1612.5 1204.37 1611.4 1202.6 1610.8 1200.55 1610.75 1198.19 1611.29 1195.65 1612.32 1192.97 1613.82 1190.09 1617.56 1184.21 1621.78 1178.34 1625.69 1172.53 1627.32 1169.8 1628.54 1167.24 1629.3 1164.88 1629.54 1162.74 1629.12 1160.81 1627.94 1159.14 1625.98 1157.73 1623.43 1156.37 1620.26 1155.14 1616.69 1153.94 1608.6 1151.55 1599.92 1148.86 1591.4 1145.63 1587.48 1143.77 1583.89 1141.7 1580.7 1139.32 1578.09 1136.7 1576.14 1133.72 1574.92 1130.37 1577.07 1129.58 1578.2 1132.69 1579.88 1135.25 1582.2 1137.58 1585.03 1139.71 1588.47 1141.7 1592.22 1143.49 1600.59 1146.67 1609.25 1149.35 1617.42 1151.77 1621.08 1153 1624.51 1154.35 1627.32 1155.87 1629.27 1157.28C1629.48 1157.42 1629.66 1157.6 1629.8 1157.81L1630.99 1159.48C1631.17 1159.73 1631.3 1160.02 1631.36 1160.32L1631.78 1162.25C1631.83 1162.5 1631.84 1162.75 1631.82 1162.99L1631.57 1165.13C1631.56 1165.29 1631.52 1165.43 1631.48 1165.58L1630.6 1168.23 1629.29 1170.97 1627.59 1173.81 1623.64 1179.67 1619.49 1185.44 1615.85 1191.14 1614.46 1193.79 1613.5 1196.3 1613.04 1198.41 1613.08 1200.19 1613.51 1201.66 1614.32 1202.97 1615.5 1204.2 1617 1205.33 1621.19 1207.6 1626.22 1210.07 1631.17 1212.92C1631.29 1212.99 1631.4 1213.06 1631.5 1213.15L1636.03 1216.92C1636.15 1217.02 1636.26 1217.13 1636.35 1217.25L1638.43 1219.89 1640.08 1222.65C1640.15 1222.76 1640.2 1222.88 1640.25 1223L1641.53 1226.33C1641.58 1226.44 1641.61 1226.56 1641.64 1226.68L1642.44 1230.48Z"/><path d="M1443.93 1445.94 1448.11 1442.51 1452 1447.24 1455.89 1442.51 1460.07 1445.94 1455.5 1451.5 1460.07 1457.06 1455.89 1460.49 1452 1455.76 1448.11 1460.49 1443.93 1457.06 1448.5 1451.5Z" fill-rule="evenodd"/><path d="M1443.93 1445.94 1448.11 1442.51 1452 1447.24 1455.89 1442.51 1460.07 1445.94 1455.5 1451.5 1460.07 1457.06 1455.89 1460.49 1452 1455.76 1448.11 1460.49 1443.93 1457.06 1448.5 1451.5ZM1452.95 1451.5 1448.77 1456.58 1447.64 1455.65 1452 1450.35 1456.36 1455.65 1455.23 1456.58 1451.05 1451.5 1455.23 1446.42 1456.36 1447.35 1452 1452.65 1447.64 1447.35 1448.77 1446.42Z"/><path d="M1421.3 1472.08C1419.77 1472.08 1418.28 1472.75 1416.82 1474.09 1415.37 1475.43 1414.03 1477.37 1412.82 1479.89 1411.61 1482.42 1410.68 1485.27 1410.03 1488.45 1409.38 1491.62 1409.05 1494.24 1409.05 1496.3 1409.05 1498.77 1409.41 1500.56 1410.12 1501.66 1410.84 1502.76 1412 1503.31 1413.62 1503.31 1414.65 1503.31 1415.67 1503.01 1416.68 1502.4 1417.93 1501.65 1419.1 1500.46 1420.2 1498.85 1421.47 1496.99 1422.56 1494.74 1423.47 1492.11 1424.28 1489.8 1424.95 1487 1425.49 1483.71 1425.77 1481.99 1425.92 1480.42 1425.92 1479.01 1425.92 1476.61 1425.56 1474.85 1424.84 1473.74 1424.13 1472.63 1422.94 1472.08 1421.3 1472.08ZM1421.56 1468.94C1425.65 1468.94 1428.74 1470 1430.84 1472.13 1432.95 1474.26 1434 1477.36 1434 1481.42 1434 1483.14 1433.82 1485.05 1433.45 1487.16 1433.08 1489.26 1432.48 1491.37 1431.65 1493.5 1430.82 1495.62 1429.79 1497.5 1428.57 1499.15 1427.36 1500.8 1425.95 1502.17 1424.36 1503.27 1422.76 1504.37 1421.05 1505.18 1419.22 1505.69 1417.38 1506.2 1415.42 1506.45 1413.32 1506.45 1409.24 1506.45 1406.16 1505.38 1404.08 1503.24 1402.01 1501.1 1400.97 1497.96 1400.97 1493.8 1400.97 1492.39 1401.11 1490.77 1401.4 1488.94 1401.68 1487.12 1402.17 1485.19 1402.85 1483.16 1403.53 1481.12 1404.47 1479.2 1405.67 1477.4 1406.87 1475.59 1408.28 1474.04 1409.9 1472.76 1411.52 1471.48 1413.32 1470.52 1415.31 1469.89 1417.29 1469.25 1419.38 1468.94 1421.56 1468.94Z" fill-rule="evenodd"/><text fill="#000000" fill-opacity="0" font-family="Arial,Arial_MSFontService,sans-serif" font-size="37.5171" x="1400.97" y="1501.76">๐ถ</text><path d="M0.791526-0.828505 184.281 174.471 182.697 176.128-0.791526 0.828505ZM189.673 162.191 200.059 191.13 170.677 182.075Z" transform="matrix(1 0 0 -1 1458 1443.13)"/><path d="M0.643324-0.948192 243.442 163.784 242.155 165.68-0.643324 0.948192ZM246.725 150.781 261.762 177.599 231.286 173.537Z" transform="matrix(1 0 0 -1 1458 1443.6)"/></g></svg>