<?xml version="1.0" encoding="utf-8" standalone="no"?>
<!DOCTYPE svg PUBLIC "-//W3C//DTD SVG 1.1//EN"
  "http://www.w3.org/Graphics/SVG/1.1/DTD/svg11.dtd">
<!-- Created with matplotlib (https://matplotlib.org/) -->
<svg height="269.919687pt" version="1.1" viewBox="0 0 509.76 269.919687" width="509.76pt" xmlns="http://www.w3.org/2000/svg" xmlns:xlink="http://www.w3.org/1999/xlink">
 <defs>
  <style type="text/css">
*{stroke-linecap:butt;stroke-linejoin:round;}
  </style>
 </defs>
 <g id="figure_1">
  <g id="patch_1">
   <path d="M 0 269.919687 
L 509.76 269.919687 
L 509.76 0 
L 0 0 
z
" style="fill:#ffffff;"/>
  </g>
  <g id="axes_1">
   <g id="patch_2">
    <path d="M 56.16 228.96 
L 270.775385 228.96 
L 270.775385 7.2 
L 56.16 7.2 
z
" style="fill:#ffffff;"/>
   </g>
   <g id="matplotlib.axis_1">
    <g id="xtick_1">
     <g id="line2d_1">
      <defs>
       <path d="M 0 0 
L 0 3.5 
" id="m0e1171952f" style="stroke:#000000;stroke-width:0.8;"/>
      </defs>
      <g>
       <use style="stroke:#000000;stroke-width:0.8;" x="56.16" xlink:href="#m0e1171952f" y="228.96"/>
      </g>
     </g>
     <g id="text_1">
      <!-- 0 -->
      <defs>
       <path d="M 31.78125 66.40625 
Q 24.171875 66.40625 20.328125 58.90625 
Q 16.5 51.421875 16.5 36.375 
Q 16.5 21.390625 20.328125 13.890625 
Q 24.171875 6.390625 31.78125 6.390625 
Q 39.453125 6.390625 43.28125 13.890625 
Q 47.125 21.390625 47.125 36.375 
Q 47.125 51.421875 43.28125 58.90625 
Q 39.453125 66.40625 31.78125 66.40625 
z
M 31.78125 74.21875 
Q 44.046875 74.21875 50.515625 64.515625 
Q 56.984375 54.828125 56.984375 36.375 
Q 56.984375 17.96875 50.515625 8.265625 
Q 44.046875 -1.421875 31.78125 -1.421875 
Q 19.53125 -1.421875 13.0625 8.265625 
Q 6.59375 17.96875 6.59375 36.375 
Q 6.59375 54.828125 13.0625 64.515625 
Q 19.53125 74.21875 31.78125 74.21875 
z
" id="DejaVuSans-48"/>
      </defs>
      <g transform="translate(52.97875 243.558437)scale(0.1 -0.1)">
       <use xlink:href="#DejaVuSans-48"/>
      </g>
     </g>
    </g>
    <g id="xtick_2">
     <g id="line2d_2">
      <g>
       <use style="stroke:#000000;stroke-width:0.8;" x="127.698462" xlink:href="#m0e1171952f" y="228.96"/>
      </g>
     </g>
     <g id="text_2">
      <!-- 5 -->
      <defs>
       <path d="M 10.796875 72.90625 
L 49.515625 72.90625 
L 49.515625 64.59375 
L 19.828125 64.59375 
L 19.828125 46.734375 
Q 21.96875 47.46875 24.109375 47.828125 
Q 26.265625 48.1875 28.421875 48.1875 
Q 40.625 48.1875 47.75 41.5 
Q 54.890625 34.8125 54.890625 23.390625 
Q 54.890625 11.625 47.5625 5.09375 
Q 40.234375 -1.421875 26.90625 -1.421875 
Q 22.3125 -1.421875 17.546875 -0.640625 
Q 12.796875 0.140625 7.71875 1.703125 
L 7.71875 11.625 
Q 12.109375 9.234375 16.796875 8.0625 
Q 21.484375 6.890625 26.703125 6.890625 
Q 35.15625 6.890625 40.078125 11.328125 
Q 45.015625 15.765625 45.015625 23.390625 
Q 45.015625 31 40.078125 35.4375 
Q 35.15625 39.890625 26.703125 39.890625 
Q 22.75 39.890625 18.8125 39.015625 
Q 14.890625 38.140625 10.796875 36.28125 
z
" id="DejaVuSans-53"/>
      </defs>
      <g transform="translate(124.517212 243.558437)scale(0.1 -0.1)">
       <use xlink:href="#DejaVuSans-53"/>
      </g>
     </g>
    </g>
    <g id="xtick_3">
     <g id="line2d_3">
      <g>
       <use style="stroke:#000000;stroke-width:0.8;" x="199.236923" xlink:href="#m0e1171952f" y="228.96"/>
      </g>
     </g>
     <g id="text_3">
      <!-- 10 -->
      <defs>
       <path d="M 12.40625 8.296875 
L 28.515625 8.296875 
L 28.515625 63.921875 
L 10.984375 60.40625 
L 10.984375 69.390625 
L 28.421875 72.90625 
L 38.28125 72.90625 
L 38.28125 8.296875 
L 54.390625 8.296875 
L 54.390625 0 
L 12.40625 0 
z
" id="DejaVuSans-49"/>
      </defs>
      <g transform="translate(192.874423 243.558437)scale(0.1 -0.1)">
       <use xlink:href="#DejaVuSans-49"/>
       <use x="63.623047" xlink:href="#DejaVuSans-48"/>
      </g>
     </g>
    </g>
   </g>
   <g id="matplotlib.axis_2">
    <g id="ytick_1">
     <g id="line2d_4">
      <defs>
       <path d="M 0 0 
L -3.5 0 
" id="mfebaeb380e" style="stroke:#000000;stroke-width:0.8;"/>
      </defs>
      <g>
       <use style="stroke:#000000;stroke-width:0.8;" x="56.16" xlink:href="#mfebaeb380e" y="228.96"/>
      </g>
     </g>
     <g id="text_4">
      <!-- 0.0 -->
      <defs>
       <path d="M 10.6875 12.40625 
L 21 12.40625 
L 21 0 
L 10.6875 0 
z
" id="DejaVuSans-46"/>
      </defs>
      <g transform="translate(33.256875 232.759219)scale(0.1 -0.1)">
       <use xlink:href="#DejaVuSans-48"/>
       <use x="63.623047" xlink:href="#DejaVuSans-46"/>
       <use x="95.410156" xlink:href="#DejaVuSans-48"/>
      </g>
     </g>
    </g>
    <g id="ytick_2">
     <g id="line2d_5">
      <g>
       <use style="stroke:#000000;stroke-width:0.8;" x="56.16" xlink:href="#mfebaeb380e" y="184.608"/>
      </g>
     </g>
     <g id="text_5">
      <!-- 0.2 -->
      <defs>
       <path d="M 19.1875 8.296875 
L 53.609375 8.296875 
L 53.609375 0 
L 7.328125 0 
L 7.328125 8.296875 
Q 12.9375 14.109375 22.625 23.890625 
Q 32.328125 33.6875 34.8125 36.53125 
Q 39.546875 41.84375 41.421875 45.53125 
Q 43.3125 49.21875 43.3125 52.78125 
Q 43.3125 58.59375 39.234375 62.25 
Q 35.15625 65.921875 28.609375 65.921875 
Q 23.96875 65.921875 18.8125 64.3125 
Q 13.671875 62.703125 7.8125 59.421875 
L 7.8125 69.390625 
Q 13.765625 71.78125 18.9375 73 
Q 24.125 74.21875 28.421875 74.21875 
Q 39.75 74.21875 46.484375 68.546875 
Q 53.21875 62.890625 53.21875 53.421875 
Q 53.21875 48.921875 51.53125 44.890625 
Q 49.859375 40.875 45.40625 35.40625 
Q 44.1875 33.984375 37.640625 27.21875 
Q 31.109375 20.453125 19.1875 8.296875 
z
" id="DejaVuSans-50"/>
      </defs>
      <g transform="translate(33.256875 188.407219)scale(0.1 -0.1)">
       <use xlink:href="#DejaVuSans-48"/>
       <use x="63.623047" xlink:href="#DejaVuSans-46"/>
       <use x="95.410156" xlink:href="#DejaVuSans-50"/>
      </g>
     </g>
    </g>
    <g id="ytick_3">
     <g id="line2d_6">
      <g>
       <use style="stroke:#000000;stroke-width:0.8;" x="56.16" xlink:href="#mfebaeb380e" y="140.256"/>
      </g>
     </g>
     <g id="text_6">
      <!-- 0.4 -->
      <defs>
       <path d="M 37.796875 64.3125 
L 12.890625 25.390625 
L 37.796875 25.390625 
z
M 35.203125 72.90625 
L 47.609375 72.90625 
L 47.609375 25.390625 
L 58.015625 25.390625 
L 58.015625 17.1875 
L 47.609375 17.1875 
L 47.609375 0 
L 37.796875 0 
L 37.796875 17.1875 
L 4.890625 17.1875 
L 4.890625 26.703125 
z
" id="DejaVuSans-52"/>
      </defs>
      <g transform="translate(33.256875 144.055219)scale(0.1 -0.1)">
       <use xlink:href="#DejaVuSans-48"/>
       <use x="63.623047" xlink:href="#DejaVuSans-46"/>
       <use x="95.410156" xlink:href="#DejaVuSans-52"/>
      </g>
     </g>
    </g>
    <g id="ytick_4">
     <g id="line2d_7">
      <g>
       <use style="stroke:#000000;stroke-width:0.8;" x="56.16" xlink:href="#mfebaeb380e" y="95.904"/>
      </g>
     </g>
     <g id="text_7">
      <!-- 0.6 -->
      <defs>
       <path d="M 33.015625 40.375 
Q 26.375 40.375 22.484375 35.828125 
Q 18.609375 31.296875 18.609375 23.390625 
Q 18.609375 15.53125 22.484375 10.953125 
Q 26.375 6.390625 33.015625 6.390625 
Q 39.65625 6.390625 43.53125 10.953125 
Q 47.40625 15.53125 47.40625 23.390625 
Q 47.40625 31.296875 43.53125 35.828125 
Q 39.65625 40.375 33.015625 40.375 
z
M 52.59375 71.296875 
L 52.59375 62.3125 
Q 48.875 64.0625 45.09375 64.984375 
Q 41.3125 65.921875 37.59375 65.921875 
Q 27.828125 65.921875 22.671875 59.328125 
Q 17.53125 52.734375 16.796875 39.40625 
Q 19.671875 43.65625 24.015625 45.921875 
Q 28.375 48.1875 33.59375 48.1875 
Q 44.578125 48.1875 50.953125 41.515625 
Q 57.328125 34.859375 57.328125 23.390625 
Q 57.328125 12.15625 50.6875 5.359375 
Q 44.046875 -1.421875 33.015625 -1.421875 
Q 20.359375 -1.421875 13.671875 8.265625 
Q 6.984375 17.96875 6.984375 36.375 
Q 6.984375 53.65625 15.1875 63.9375 
Q 23.390625 74.21875 37.203125 74.21875 
Q 40.921875 74.21875 44.703125 73.484375 
Q 48.484375 72.75 52.59375 71.296875 
z
" id="DejaVuSans-54"/>
      </defs>
      <g transform="translate(33.256875 99.703219)scale(0.1 -0.1)">
       <use xlink:href="#DejaVuSans-48"/>
       <use x="63.623047" xlink:href="#DejaVuSans-46"/>
       <use x="95.410156" xlink:href="#DejaVuSans-54"/>
      </g>
     </g>
    </g>
    <g id="ytick_5">
     <g id="line2d_8">
      <g>
       <use style="stroke:#000000;stroke-width:0.8;" x="56.16" xlink:href="#mfebaeb380e" y="51.552"/>
      </g>
     </g>
     <g id="text_8">
      <!-- 0.8 -->
      <defs>
       <path d="M 31.78125 34.625 
Q 24.75 34.625 20.71875 30.859375 
Q 16.703125 27.09375 16.703125 20.515625 
Q 16.703125 13.921875 20.71875 10.15625 
Q 24.75 6.390625 31.78125 6.390625 
Q 38.8125 6.390625 42.859375 10.171875 
Q 46.921875 13.96875 46.921875 20.515625 
Q 46.921875 27.09375 42.890625 30.859375 
Q 38.875 34.625 31.78125 34.625 
z
M 21.921875 38.8125 
Q 15.578125 40.375 12.03125 44.71875 
Q 8.5 49.078125 8.5 55.328125 
Q 8.5 64.0625 14.71875 69.140625 
Q 20.953125 74.21875 31.78125 74.21875 
Q 42.671875 74.21875 48.875 69.140625 
Q 55.078125 64.0625 55.078125 55.328125 
Q 55.078125 49.078125 51.53125 44.71875 
Q 48 40.375 41.703125 38.8125 
Q 48.828125 37.15625 52.796875 32.3125 
Q 56.78125 27.484375 56.78125 20.515625 
Q 56.78125 9.90625 50.3125 4.234375 
Q 43.84375 -1.421875 31.78125 -1.421875 
Q 19.734375 -1.421875 13.25 4.234375 
Q 6.78125 9.90625 6.78125 20.515625 
Q 6.78125 27.484375 10.78125 32.3125 
Q 14.796875 37.15625 21.921875 38.8125 
z
M 18.3125 54.390625 
Q 18.3125 48.734375 21.84375 45.5625 
Q 25.390625 42.390625 31.78125 42.390625 
Q 38.140625 42.390625 41.71875 45.5625 
Q 45.3125 48.734375 45.3125 54.390625 
Q 45.3125 60.0625 41.71875 63.234375 
Q 38.140625 66.40625 31.78125 66.40625 
Q 25.390625 66.40625 21.84375 63.234375 
Q 18.3125 60.0625 18.3125 54.390625 
z
" id="DejaVuSans-56"/>
      </defs>
      <g transform="translate(33.256875 55.351219)scale(0.1 -0.1)">
       <use xlink:href="#DejaVuSans-48"/>
       <use x="63.623047" xlink:href="#DejaVuSans-46"/>
       <use x="95.410156" xlink:href="#DejaVuSans-56"/>
      </g>
     </g>
    </g>
   </g>
   <g id="line2d_9">
    <path clip-path="url(#p575873f6b2)" d="M 69.036923 228.96 
L 70.467692 228.470464 
L 73.329231 227.980927 
L 73.329231 227.491391 
L 74.76 227.001854 
L 74.76 226.022781 
L 76.190769 225.533245 
L 76.190769 225.043709 
L 77.621538 224.554172 
L 77.621538 223.575099 
L 79.052308 223.085563 
L 79.052308 222.10649 
L 80.483077 221.616954 
L 80.483077 218.190199 
L 81.913846 217.700662 
L 81.913846 213.784371 
L 83.344615 213.294834 
L 83.344615 206.930861 
L 84.775385 206.441325 
L 84.775385 200.566887 
L 86.206154 200.077351 
L 86.206154 192.734305 
L 87.636923 192.244768 
L 87.636923 185.880795 
L 89.067692 185.391258 
L 89.067692 178.537748 
L 90.498462 178.048212 
L 90.498462 169.726093 
L 91.929231 169.236556 
L 91.929231 159.935364 
L 93.36 159.445828 
L 93.36 154.550464 
L 94.790769 154.060927 
L 94.790769 145.249272 
L 96.221538 144.759735 
L 96.221538 137.906225 
L 97.652308 137.416689 
L 97.652308 132.031788 
L 99.083077 131.542252 
L 99.083077 124.688742 
L 100.513846 124.199205 
L 100.513846 118.814305 
L 101.944615 118.324768 
L 101.944615 114.408477 
L 103.375385 113.91894 
L 103.375385 109.023576 
L 104.806154 108.53404 
L 104.806154 103.638675 
L 106.236923 103.149139 
L 106.236923 96.295629 
L 107.667692 95.806093 
L 107.667692 91.889801 
L 109.098462 91.400265 
L 109.098462 86.504901 
L 110.529231 86.015364 
L 110.529231 82.588609 
L 111.96 82.099073 
L 111.96 79.161854 
L 113.390769 78.672318 
L 113.390769 75.245563 
L 114.821538 74.756026 
L 114.821538 70.350199 
L 116.252308 69.860662 
L 116.252308 65.944371 
L 117.683077 65.454834 
L 117.683077 62.517616 
L 119.113846 62.028079 
L 119.113846 59.580397 
L 120.544615 59.090861 
L 120.544615 57.622252 
L 121.975385 57.132715 
L 121.975385 54.685033 
L 123.406154 54.195497 
L 123.406154 50.279205 
L 124.836923 49.789669 
L 124.836923 46.85245 
L 127.698462 45.873377 
L 127.698462 44.404768 
L 129.129231 43.915232 
L 129.129231 43.425695 
L 130.56 42.936159 
L 130.56 41.957086 
L 131.990769 41.46755 
L 131.990769 40.488477 
L 133.421538 39.99894 
L 133.421538 39.509404 
L 134.852308 39.019868 
L 134.852308 34.61404 
L 136.283077 34.124503 
L 136.283077 33.634967 
L 137.713846 33.14543 
L 137.713846 32.166358 
L 139.144615 31.676821 
L 139.144615 30.208212 
L 140.575385 29.718675 
L 140.575385 29.229139 
L 142.006154 28.739603 
L 142.006154 28.250066 
L 143.436923 27.76053 
L 143.436923 26.781457 
L 144.867692 26.291921 
L 144.867692 25.802384 
L 150.590769 23.844238 
L 150.590769 23.354702 
L 152.021538 22.865166 
L 152.021538 22.375629 
L 157.744615 21.886093 
L 157.744615 21.396556 
L 159.175385 20.90702 
L 164.898462 19.927947 
L 164.898462 18.948874 
L 174.913846 18.459338 
L 176.344615 17.969801 
L 182.067692 16.990728 
L 189.221538 16.501192 
L 189.221538 16.011656 
L 190.652308 15.522119 
L 190.652308 15.032583 
L 192.083077 14.543046 
L 192.083077 14.05351 
L 193.513846 13.563974 
L 197.806154 13.074437 
L 204.96 12.584901 
L 204.96 12.095364 
L 210.683077 11.605828 
L 227.852308 11.116291 
L 230.713846 10.626755 
L 239.298462 10.137219 
L 297.96 9.158146 
L 322.283077 8.668609 
L 355.190769 8.179073 
L 376.652308 7.689536 
L 510.76 7.547917 
L 510.76 7.547917 
" style="fill:none;stroke:#db5f57;stroke-linecap:square;stroke-width:1.5;"/>
   </g>
   <g id="line2d_10">
    <path clip-path="url(#p575873f6b2)" d="M 69.036923 228.96 
L 71.898462 227.954286 
L 71.898462 226.445714 
L 74.76 225.44 
L 74.76 224.937143 
L 76.190769 224.434286 
L 76.190769 223.428571 
L 77.621538 222.925714 
L 77.621538 219.405714 
L 80.483077 218.4 
L 80.483077 216.388571 
L 81.913846 215.885714 
L 81.913846 214.377143 
L 83.344615 213.874286 
L 83.344615 210.857143 
L 84.775385 210.354286 
L 84.775385 198.788571 
L 86.206154 198.285714 
L 86.206154 190.742857 
L 87.636923 190.24 
L 87.636923 181.691429 
L 89.067692 181.188571 
L 89.067692 172.137143 
L 90.498462 171.634286 
L 90.498462 163.085714 
L 91.929231 162.582857 
L 91.929231 151.017143 
L 93.36 150.514286 
L 93.36 139.954286 
L 94.790769 139.451429 
L 94.790769 131.405714 
L 96.221538 130.902857 
L 96.221538 123.36 
L 97.652308 122.857143 
L 97.652308 111.794286 
L 99.083077 111.291429 
L 99.083077 105.76 
L 100.513846 105.257143 
L 100.513846 98.217143 
L 101.944615 97.714286 
L 101.944615 91.177143 
L 103.375385 90.674286 
L 103.375385 85.645714 
L 104.806154 85.142857 
L 104.806154 80.617143 
L 106.236923 80.114286 
L 106.236923 75.588571 
L 107.667692 75.085714 
L 107.667692 70.057143 
L 109.098462 69.554286 
L 109.098462 65.531429 
L 110.529231 65.028571 
L 110.529231 62.011429 
L 111.96 61.508571 
L 111.96 57.485714 
L 113.390769 56.982857 
L 113.390769 52.96 
L 114.821538 52.457143 
L 114.821538 48.434286 
L 116.252308 47.931429 
L 116.252308 44.914286 
L 117.683077 44.411429 
L 117.683077 41.394286 
L 119.113846 40.891429 
L 119.113846 39.382857 
L 120.544615 38.88 
L 120.544615 36.365714 
L 123.406154 35.862857 
L 123.406154 35.36 
L 124.836923 34.857143 
L 124.836923 33.851429 
L 126.267692 33.348571 
L 126.267692 32.342857 
L 127.698462 31.84 
L 127.698462 30.331429 
L 129.129231 29.828571 
L 129.129231 29.325714 
L 130.56 28.822857 
L 130.56 28.32 
L 131.990769 27.817143 
L 131.990769 27.314286 
L 134.852308 26.308571 
L 134.852308 25.805714 
L 136.283077 25.302857 
L 136.283077 23.291429 
L 137.713846 22.788571 
L 137.713846 21.782857 
L 142.006154 20.274286 
L 142.006154 18.765714 
L 144.867692 18.262857 
L 144.867692 17.76 
L 149.16 16.251429 
L 152.021538 15.748571 
L 152.021538 15.245714 
L 153.452308 14.742857 
L 156.313846 14.24 
L 157.744615 13.737143 
L 162.036923 13.234286 
L 164.898462 12.731429 
L 167.76 11.725714 
L 167.76 11.222857 
L 179.206154 10.72 
L 184.929231 10.217143 
L 189.221538 9.714286 
L 196.375385 9.211429 
L 216.406154 8.708571 
L 224.990769 8.205714 
L 240.729231 7.702857 
L 263.621538 7.2 
L 263.621538 7.2 
" style="fill:none;stroke:#d3db57;stroke-linecap:square;stroke-width:1.5;"/>
   </g>
   <g id="line2d_11">
    <path clip-path="url(#p575873f6b2)" d="M 69.036923 228.96 
L 71.898462 227.878244 
L 71.898462 225.714732 
L 74.76 224.632976 
L 76.190769 223.55122 
L 76.190769 222.469463 
L 77.621538 221.387707 
L 77.621538 220.305951 
L 80.483077 218.142439 
L 80.483077 215.978927 
L 81.913846 214.897171 
L 81.913846 211.651902 
L 83.344615 210.570146 
L 83.344615 208.406634 
L 84.775385 207.324878 
L 84.775385 202.997854 
L 86.206154 201.916098 
L 86.206154 190.01678 
L 87.636923 188.935024 
L 87.636923 184.608 
L 89.067692 183.526244 
L 89.067692 182.444488 
L 90.498462 181.362732 
L 90.498462 175.953951 
L 91.929231 174.872195 
L 91.929231 172.708683 
L 93.36 171.626927 
L 93.36 169.463415 
L 96.221538 168.381659 
L 96.221538 160.809366 
L 97.652308 159.72761 
L 97.652308 147.828293 
L 99.083077 146.746537 
L 99.083077 138.092488 
L 100.513846 137.010732 
L 100.513846 130.520195 
L 101.944615 129.438439 
L 101.944615 117.539122 
L 103.375385 116.457366 
L 103.375385 108.885073 
L 104.806154 107.803317 
L 104.806154 103.476293 
L 106.236923 102.394537 
L 106.236923 98.067512 
L 107.667692 96.985756 
L 107.667692 95.904 
L 109.098462 94.822244 
L 109.098462 87.249951 
L 110.529231 86.168195 
L 110.529231 82.922927 
L 111.96 81.841171 
L 111.96 79.677659 
L 114.821538 77.514146 
L 114.821538 75.350634 
L 116.252308 74.268878 
L 116.252308 69.941854 
L 119.113846 67.778341 
L 119.113846 66.696585 
L 120.544615 65.614829 
L 120.544615 60.206049 
L 121.975385 59.124293 
L 121.975385 55.879024 
L 124.836923 53.715512 
L 124.836923 52.633756 
L 126.267692 51.552 
L 126.267692 50.470244 
L 130.56 47.224976 
L 133.421538 46.14322 
L 133.421538 43.979707 
L 134.852308 42.897951 
L 134.852308 41.816195 
L 139.144615 40.734439 
L 140.575385 39.652683 
L 140.575385 38.570927 
L 142.006154 37.489171 
L 142.006154 36.407415 
L 143.436923 35.325659 
L 146.298462 34.243902 
L 146.298462 32.08039 
L 147.729231 30.998634 
L 150.590769 29.916878 
L 150.590769 28.835122 
L 152.021538 27.753366 
L 152.021538 26.67161 
L 153.452308 25.589854 
L 153.452308 24.508098 
L 157.744615 23.426341 
L 162.036923 20.181073 
L 166.329231 19.099317 
L 166.329231 18.017561 
L 172.052308 13.690537 
L 176.344615 12.60878 
L 182.067692 11.527024 
L 190.652308 9.363512 
L 196.375385 8.281756 
L 227.852308 7.2 
L 227.852308 7.2 
" style="fill:none;stroke:#57db5f;stroke-linecap:square;stroke-width:1.5;"/>
   </g>
   <g id="line2d_12">
    <path clip-path="url(#p575873f6b2)" d="M 70.467692 228.96 
L 80.483077 227.317333 
L 80.483077 225.674667 
L 81.913846 224.032 
L 84.775385 222.389333 
L 86.206154 220.746667 
L 86.206154 215.818667 
L 87.636923 214.176 
L 87.636923 207.605333 
L 89.067692 205.962667 
L 89.067692 202.677333 
L 90.498462 201.034667 
L 90.498462 189.536 
L 91.929231 187.893333 
L 91.929231 186.250667 
L 93.36 184.608 
L 93.36 178.037333 
L 94.790769 176.394667 
L 94.790769 173.109333 
L 96.221538 171.466667 
L 96.221538 164.896 
L 97.652308 163.253333 
L 97.652308 158.325333 
L 100.513846 155.04 
L 100.513846 150.112 
L 101.944615 148.469333 
L 101.944615 145.184 
L 103.375385 143.541333 
L 103.375385 136.970667 
L 104.806154 135.328 
L 104.806154 132.042667 
L 106.236923 130.4 
L 106.236923 128.757333 
L 107.667692 127.114667 
L 107.667692 125.472 
L 109.098462 123.829333 
L 109.098462 118.901333 
L 110.529231 117.258667 
L 110.529231 115.616 
L 111.96 113.973333 
L 111.96 109.045333 
L 113.390769 107.402667 
L 113.390769 105.76 
L 114.821538 104.117333 
L 114.821538 99.189333 
L 117.683077 95.904 
L 117.683077 94.261333 
L 119.113846 92.618667 
L 119.113846 86.048 
L 120.544615 84.405333 
L 120.544615 81.12 
L 121.975385 79.477333 
L 121.975385 77.834667 
L 124.836923 74.549333 
L 124.836923 72.906667 
L 127.698462 71.264 
L 127.698462 67.978667 
L 129.129231 66.336 
L 129.129231 64.693333 
L 131.990769 63.050667 
L 131.990769 61.408 
L 133.421538 59.765333 
L 133.421538 58.122667 
L 134.852308 56.48 
L 134.852308 54.837333 
L 136.283077 53.194667 
L 139.144615 51.552 
L 140.575385 49.909333 
L 140.575385 48.266667 
L 143.436923 44.981333 
L 143.436923 43.338667 
L 146.298462 41.696 
L 147.729231 40.053333 
L 153.452308 38.410667 
L 156.313846 35.125333 
L 156.313846 31.84 
L 159.175385 28.554667 
L 162.036923 26.912 
L 174.913846 25.269333 
L 177.775385 23.626667 
L 182.067692 21.984 
L 183.498462 20.341333 
L 197.806154 17.056 
L 202.098462 15.413333 
L 220.698462 13.770667 
L 222.129231 12.128 
L 245.021538 10.485333 
L 256.467692 8.842667 
L 293.667692 7.2 
L 293.667692 7.2 
" style="fill:none;stroke:#57d3db;stroke-linecap:square;stroke-width:1.5;"/>
   </g>
   <g id="line2d_13">
    <path clip-path="url(#p575873f6b2)" d="M 73.329231 228.96 
L 73.329231 227.292632 
L 79.052308 223.957895 
L 80.483077 222.290526 
L 80.483077 217.288421 
L 83.344615 213.953684 
L 83.344615 207.284211 
L 84.775385 205.616842 
L 84.775385 203.949474 
L 86.206154 202.282105 
L 86.206154 195.612632 
L 87.636923 193.945263 
L 87.636923 190.610526 
L 89.067692 188.943158 
L 89.067692 183.941053 
L 90.498462 182.273684 
L 90.498462 175.604211 
L 91.929231 173.936842 
L 91.929231 167.267368 
L 93.36 165.6 
L 93.36 160.597895 
L 94.790769 158.930526 
L 94.790769 153.928421 
L 96.221538 152.261053 
L 96.221538 148.926316 
L 97.652308 147.258947 
L 97.652308 143.924211 
L 99.083077 142.256842 
L 99.083077 140.589474 
L 100.513846 138.922105 
L 100.513846 135.587368 
L 101.944615 133.92 
L 101.944615 130.585263 
L 103.375385 128.917895 
L 103.375385 123.915789 
L 104.806154 122.248421 
L 104.806154 120.581053 
L 106.236923 118.913684 
L 106.236923 113.911579 
L 107.667692 112.244211 
L 107.667692 110.576842 
L 109.098462 108.909474 
L 109.098462 102.24 
L 110.529231 100.572632 
L 110.529231 95.570526 
L 111.96 93.903158 
L 111.96 90.568421 
L 113.390769 88.901053 
L 113.390769 87.233684 
L 114.821538 85.566316 
L 114.821538 83.898947 
L 116.252308 82.231579 
L 116.252308 77.229474 
L 117.683077 75.562105 
L 117.683077 73.894737 
L 119.113846 72.227368 
L 119.113846 70.56 
L 121.975385 68.892632 
L 121.975385 65.557895 
L 126.267692 63.890526 
L 129.129231 60.555789 
L 129.129231 58.888421 
L 131.990769 55.553684 
L 131.990769 53.886316 
L 137.713846 47.216842 
L 137.713846 45.549474 
L 139.144615 43.882105 
L 139.144615 40.547368 
L 140.575385 38.88 
L 140.575385 37.212632 
L 142.006154 35.545263 
L 142.006154 33.877895 
L 146.298462 28.875789 
L 146.298462 23.873684 
L 147.729231 22.206316 
L 150.590769 20.538947 
L 154.883077 18.871579 
L 162.036923 17.204211 
L 174.913846 15.536842 
L 189.221538 13.869474 
L 202.098462 12.202105 
L 220.698462 10.534737 
L 223.56 8.867368 
L 236.436923 7.2 
L 236.436923 7.2 
" style="fill:none;stroke:#5f57db;stroke-linecap:square;stroke-width:1.5;"/>
   </g>
   <g id="line2d_14">
    <path clip-path="url(#p575873f6b2)" d="M 77.621538 228.96 
L 79.052308 226.411034 
L 79.052308 223.862069 
L 83.344615 221.313103 
L 84.775385 218.764138 
L 86.206154 216.215172 
L 87.636923 213.666207 
L 89.067692 211.117241 
L 89.067692 208.568276 
L 89.067692 206.01931 
L 90.498462 203.470345 
L 90.498462 200.921379 
L 90.498462 198.372414 
L 90.498462 195.823448 
L 90.498462 193.274483 
L 91.929231 190.725517 
L 93.36 188.176552 
L 96.221538 185.627586 
L 96.221538 183.078621 
L 96.221538 180.529655 
L 97.652308 177.98069 
L 97.652308 175.431724 
L 97.652308 172.882759 
L 99.083077 170.333793 
L 99.083077 167.784828 
L 99.083077 165.235862 
L 100.513846 162.686897 
L 101.944615 160.137931 
L 104.806154 157.588966 
L 104.806154 155.04 
L 104.806154 152.491034 
L 104.806154 149.942069 
L 106.236923 147.393103 
L 106.236923 144.844138 
L 106.236923 142.295172 
L 107.667692 139.746207 
L 107.667692 137.197241 
L 107.667692 134.648276 
L 107.667692 132.09931 
L 109.098462 129.550345 
L 109.098462 127.001379 
L 109.098462 124.452414 
L 110.529231 121.903448 
L 110.529231 119.354483 
L 110.529231 116.805517 
L 110.529231 114.256552 
L 110.529231 111.707586 
L 113.390769 109.158621 
L 116.252308 106.609655 
L 117.683077 104.06069 
L 119.113846 101.511724 
L 120.544615 98.962759 
L 120.544615 96.413793 
L 120.544615 93.864828 
L 120.544615 91.315862 
L 121.975385 88.766897 
L 121.975385 86.217931 
L 123.406154 83.668966 
L 123.406154 81.12 
L 126.267692 78.571034 
L 126.267692 76.022069 
L 126.267692 73.473103 
L 126.267692 70.924138 
L 127.698462 68.375172 
L 127.698462 65.826207 
L 129.129231 63.277241 
L 130.56 60.728276 
L 130.56 58.17931 
L 131.990769 55.630345 
L 131.990769 53.081379 
L 131.990769 50.532414 
L 131.990769 47.983448 
L 133.421538 45.434483 
L 133.421538 42.885517 
L 133.421538 40.336552 
L 133.421538 37.787586 
L 136.283077 35.238621 
L 137.713846 32.689655 
L 139.144615 30.14069 
L 146.298462 27.591724 
L 150.590769 25.042759 
L 154.883077 22.493793 
L 159.175385 19.944828 
L 162.036923 17.395862 
L 164.898462 14.846897 
L 173.483077 12.297931 
L 177.775385 9.748966 
L 257.898462 7.2 
" style="fill:none;stroke:#db57d3;stroke-linecap:square;stroke-width:1.5;"/>
   </g>
   <g id="patch_3">
    <path d="M 56.16 228.96 
L 56.16 7.2 
" style="fill:none;stroke:#000000;stroke-linecap:square;stroke-linejoin:miter;stroke-width:0.8;"/>
   </g>
   <g id="patch_4">
    <path d="M 270.775385 228.96 
L 270.775385 7.2 
" style="fill:none;stroke:#000000;stroke-linecap:square;stroke-linejoin:miter;stroke-width:0.8;"/>
   </g>
   <g id="patch_5">
    <path d="M 56.16 228.96 
L 270.775385 228.96 
" style="fill:none;stroke:#000000;stroke-linecap:square;stroke-linejoin:miter;stroke-width:0.8;"/>
   </g>
   <g id="patch_6">
    <path d="M 56.16 7.2 
L 270.775385 7.2 
" style="fill:none;stroke:#000000;stroke-linecap:square;stroke-linejoin:miter;stroke-width:0.8;"/>
   </g>
   <g id="text_9">
    <!-- a) Escape times -->
    <defs>
     <path d="M 34.28125 27.484375 
Q 23.390625 27.484375 19.1875 25 
Q 14.984375 22.515625 14.984375 16.5 
Q 14.984375 11.71875 18.140625 8.90625 
Q 21.296875 6.109375 26.703125 6.109375 
Q 34.1875 6.109375 38.703125 11.40625 
Q 43.21875 16.703125 43.21875 25.484375 
L 43.21875 27.484375 
z
M 52.203125 31.203125 
L 52.203125 0 
L 43.21875 0 
L 43.21875 8.296875 
Q 40.140625 3.328125 35.546875 0.953125 
Q 30.953125 -1.421875 24.3125 -1.421875 
Q 15.921875 -1.421875 10.953125 3.296875 
Q 6 8.015625 6 15.921875 
Q 6 25.140625 12.171875 29.828125 
Q 18.359375 34.515625 30.609375 34.515625 
L 43.21875 34.515625 
L 43.21875 35.40625 
Q 43.21875 41.609375 39.140625 45 
Q 35.0625 48.390625 27.6875 48.390625 
Q 23 48.390625 18.546875 47.265625 
Q 14.109375 46.140625 10.015625 43.890625 
L 10.015625 52.203125 
Q 14.9375 54.109375 19.578125 55.046875 
Q 24.21875 56 28.609375 56 
Q 40.484375 56 46.34375 49.84375 
Q 52.203125 43.703125 52.203125 31.203125 
z
" id="DejaVuSans-97"/>
     <path d="M 8.015625 75.875 
L 15.828125 75.875 
Q 23.140625 64.359375 26.78125 53.3125 
Q 30.421875 42.28125 30.421875 31.390625 
Q 30.421875 20.453125 26.78125 9.375 
Q 23.140625 -1.703125 15.828125 -13.1875 
L 8.015625 -13.1875 
Q 14.5 -2 17.703125 9.0625 
Q 20.90625 20.125 20.90625 31.390625 
Q 20.90625 42.671875 17.703125 53.65625 
Q 14.5 64.65625 8.015625 75.875 
z
" id="DejaVuSans-41"/>
     <path id="DejaVuSans-32"/>
     <path d="M 9.8125 72.90625 
L 55.90625 72.90625 
L 55.90625 64.59375 
L 19.671875 64.59375 
L 19.671875 43.015625 
L 54.390625 43.015625 
L 54.390625 34.71875 
L 19.671875 34.71875 
L 19.671875 8.296875 
L 56.78125 8.296875 
L 56.78125 0 
L 9.8125 0 
z
" id="DejaVuSans-69"/>
     <path d="M 44.28125 53.078125 
L 44.28125 44.578125 
Q 40.484375 46.53125 36.375 47.5 
Q 32.28125 48.484375 27.875 48.484375 
Q 21.1875 48.484375 17.84375 46.4375 
Q 14.5 44.390625 14.5 40.28125 
Q 14.5 37.15625 16.890625 35.375 
Q 19.28125 33.59375 26.515625 31.984375 
L 29.59375 31.296875 
Q 39.15625 29.25 43.1875 25.515625 
Q 47.21875 21.78125 47.21875 15.09375 
Q 47.21875 7.46875 41.1875 3.015625 
Q 35.15625 -1.421875 24.609375 -1.421875 
Q 20.21875 -1.421875 15.453125 -0.5625 
Q 10.6875 0.296875 5.421875 2 
L 5.421875 11.28125 
Q 10.40625 8.6875 15.234375 7.390625 
Q 20.0625 6.109375 24.8125 6.109375 
Q 31.15625 6.109375 34.5625 8.28125 
Q 37.984375 10.453125 37.984375 14.40625 
Q 37.984375 18.0625 35.515625 20.015625 
Q 33.0625 21.96875 24.703125 23.78125 
L 21.578125 24.515625 
Q 13.234375 26.265625 9.515625 29.90625 
Q 5.8125 33.546875 5.8125 39.890625 
Q 5.8125 47.609375 11.28125 51.796875 
Q 16.75 56 26.8125 56 
Q 31.78125 56 36.171875 55.265625 
Q 40.578125 54.546875 44.28125 53.078125 
z
" id="DejaVuSans-115"/>
     <path d="M 48.78125 52.59375 
L 48.78125 44.1875 
Q 44.96875 46.296875 41.140625 47.34375 
Q 37.3125 48.390625 33.40625 48.390625 
Q 24.65625 48.390625 19.8125 42.84375 
Q 14.984375 37.3125 14.984375 27.296875 
Q 14.984375 17.28125 19.8125 11.734375 
Q 24.65625 6.203125 33.40625 6.203125 
Q 37.3125 6.203125 41.140625 7.25 
Q 44.96875 8.296875 48.78125 10.40625 
L 48.78125 2.09375 
Q 45.015625 0.34375 40.984375 -0.53125 
Q 36.96875 -1.421875 32.421875 -1.421875 
Q 20.0625 -1.421875 12.78125 6.34375 
Q 5.515625 14.109375 5.515625 27.296875 
Q 5.515625 40.671875 12.859375 48.328125 
Q 20.21875 56 33.015625 56 
Q 37.15625 56 41.109375 55.140625 
Q 45.0625 54.296875 48.78125 52.59375 
z
" id="DejaVuSans-99"/>
     <path d="M 18.109375 8.203125 
L 18.109375 -20.796875 
L 9.078125 -20.796875 
L 9.078125 54.6875 
L 18.109375 54.6875 
L 18.109375 46.390625 
Q 20.953125 51.265625 25.265625 53.625 
Q 29.59375 56 35.59375 56 
Q 45.5625 56 51.78125 48.09375 
Q 58.015625 40.1875 58.015625 27.296875 
Q 58.015625 14.40625 51.78125 6.484375 
Q 45.5625 -1.421875 35.59375 -1.421875 
Q 29.59375 -1.421875 25.265625 0.953125 
Q 20.953125 3.328125 18.109375 8.203125 
z
M 48.6875 27.296875 
Q 48.6875 37.203125 44.609375 42.84375 
Q 40.53125 48.484375 33.40625 48.484375 
Q 26.265625 48.484375 22.1875 42.84375 
Q 18.109375 37.203125 18.109375 27.296875 
Q 18.109375 17.390625 22.1875 11.75 
Q 26.265625 6.109375 33.40625 6.109375 
Q 40.53125 6.109375 44.609375 11.75 
Q 48.6875 17.390625 48.6875 27.296875 
z
" id="DejaVuSans-112"/>
     <path d="M 56.203125 29.59375 
L 56.203125 25.203125 
L 14.890625 25.203125 
Q 15.484375 15.921875 20.484375 11.0625 
Q 25.484375 6.203125 34.421875 6.203125 
Q 39.59375 6.203125 44.453125 7.46875 
Q 49.3125 8.734375 54.109375 11.28125 
L 54.109375 2.78125 
Q 49.265625 0.734375 44.1875 -0.34375 
Q 39.109375 -1.421875 33.890625 -1.421875 
Q 20.796875 -1.421875 13.15625 6.1875 
Q 5.515625 13.8125 5.515625 26.8125 
Q 5.515625 40.234375 12.765625 48.109375 
Q 20.015625 56 32.328125 56 
Q 43.359375 56 49.78125 48.890625 
Q 56.203125 41.796875 56.203125 29.59375 
z
M 47.21875 32.234375 
Q 47.125 39.59375 43.09375 43.984375 
Q 39.0625 48.390625 32.421875 48.390625 
Q 24.90625 48.390625 20.390625 44.140625 
Q 15.875 39.890625 15.1875 32.171875 
z
" id="DejaVuSans-101"/>
     <path d="M 18.3125 70.21875 
L 18.3125 54.6875 
L 36.8125 54.6875 
L 36.8125 47.703125 
L 18.3125 47.703125 
L 18.3125 18.015625 
Q 18.3125 11.328125 20.140625 9.421875 
Q 21.96875 7.515625 27.59375 7.515625 
L 36.8125 7.515625 
L 36.8125 0 
L 27.59375 0 
Q 17.1875 0 13.234375 3.875 
Q 9.28125 7.765625 9.28125 18.015625 
L 9.28125 47.703125 
L 2.6875 47.703125 
L 2.6875 54.6875 
L 9.28125 54.6875 
L 9.28125 70.21875 
z
" id="DejaVuSans-116"/>
     <path d="M 9.421875 54.6875 
L 18.40625 54.6875 
L 18.40625 0 
L 9.421875 0 
z
M 9.421875 75.984375 
L 18.40625 75.984375 
L 18.40625 64.59375 
L 9.421875 64.59375 
z
" id="DejaVuSans-105"/>
     <path d="M 52 44.1875 
Q 55.375 50.25 60.0625 53.125 
Q 64.75 56 71.09375 56 
Q 79.640625 56 84.28125 50.015625 
Q 88.921875 44.046875 88.921875 33.015625 
L 88.921875 0 
L 79.890625 0 
L 79.890625 32.71875 
Q 79.890625 40.578125 77.09375 44.375 
Q 74.3125 48.1875 68.609375 48.1875 
Q 61.625 48.1875 57.5625 43.546875 
Q 53.515625 38.921875 53.515625 30.90625 
L 53.515625 0 
L 44.484375 0 
L 44.484375 32.71875 
Q 44.484375 40.625 41.703125 44.40625 
Q 38.921875 48.1875 33.109375 48.1875 
Q 26.21875 48.1875 22.15625 43.53125 
Q 18.109375 38.875 18.109375 30.90625 
L 18.109375 0 
L 9.078125 0 
L 9.078125 54.6875 
L 18.109375 54.6875 
L 18.109375 46.1875 
Q 21.1875 51.21875 25.484375 53.609375 
Q 29.78125 56 35.6875 56 
Q 41.65625 56 45.828125 52.96875 
Q 50 49.953125 52 44.1875 
z
" id="DejaVuSans-109"/>
    </defs>
    <g transform="translate(170.621538 217.872)scale(0.1 -0.1)">
     <use xlink:href="#DejaVuSans-97"/>
     <use x="61.279297" xlink:href="#DejaVuSans-41"/>
     <use x="100.292969" xlink:href="#DejaVuSans-32"/>
     <use x="132.080078" xlink:href="#DejaVuSans-69"/>
     <use x="195.263672" xlink:href="#DejaVuSans-115"/>
     <use x="247.363281" xlink:href="#DejaVuSans-99"/>
     <use x="302.34375" xlink:href="#DejaVuSans-97"/>
     <use x="363.623047" xlink:href="#DejaVuSans-112"/>
     <use x="427.099609" xlink:href="#DejaVuSans-101"/>
     <use x="488.623047" xlink:href="#DejaVuSans-32"/>
     <use x="520.410156" xlink:href="#DejaVuSans-116"/>
     <use x="559.619141" xlink:href="#DejaVuSans-105"/>
     <use x="587.402344" xlink:href="#DejaVuSans-109"/>
     <use x="684.814453" xlink:href="#DejaVuSans-101"/>
     <use x="746.337891" xlink:href="#DejaVuSans-115"/>
    </g>
   </g>
  </g>
  <g id="axes_2">
   <g id="patch_7">
    <path d="M 287.944615 228.96 
L 502.56 228.96 
L 502.56 7.2 
L 287.944615 7.2 
z
" style="fill:#ffffff;"/>
   </g>
   <g id="matplotlib.axis_3">
    <g id="xtick_4">
     <g id="line2d_15">
      <g>
       <use style="stroke:#000000;stroke-width:0.8;" x="287.944615" xlink:href="#m0e1171952f" y="228.96"/>
      </g>
     </g>
     <g id="text_10">
      <!-- 0 -->
      <g transform="translate(284.763365 243.558437)scale(0.1 -0.1)">
       <use xlink:href="#DejaVuSans-48"/>
      </g>
     </g>
    </g>
    <g id="xtick_5">
     <g id="line2d_16">
      <g>
       <use style="stroke:#000000;stroke-width:0.8;" x="359.483077" xlink:href="#m0e1171952f" y="228.96"/>
      </g>
     </g>
     <g id="text_11">
      <!-- 5 -->
      <g transform="translate(356.301827 243.558437)scale(0.1 -0.1)">
       <use xlink:href="#DejaVuSans-53"/>
      </g>
     </g>
    </g>
    <g id="xtick_6">
     <g id="line2d_17">
      <g>
       <use style="stroke:#000000;stroke-width:0.8;" x="431.021538" xlink:href="#m0e1171952f" y="228.96"/>
      </g>
     </g>
     <g id="text_12">
      <!-- 10 -->
      <g transform="translate(424.659038 243.558437)scale(0.1 -0.1)">
       <use xlink:href="#DejaVuSans-49"/>
       <use x="63.623047" xlink:href="#DejaVuSans-48"/>
      </g>
     </g>
    </g>
   </g>
   <g id="matplotlib.axis_4">
    <g id="ytick_6">
     <g id="line2d_18">
      <g>
       <use style="stroke:#000000;stroke-width:0.8;" x="287.944615" xlink:href="#mfebaeb380e" y="228.96"/>
      </g>
     </g>
    </g>
    <g id="ytick_7">
     <g id="line2d_19">
      <g>
       <use style="stroke:#000000;stroke-width:0.8;" x="287.944615" xlink:href="#mfebaeb380e" y="184.608"/>
      </g>
     </g>
    </g>
    <g id="ytick_8">
     <g id="line2d_20">
      <g>
       <use style="stroke:#000000;stroke-width:0.8;" x="287.944615" xlink:href="#mfebaeb380e" y="140.256"/>
      </g>
     </g>
    </g>
    <g id="ytick_9">
     <g id="line2d_21">
      <g>
       <use style="stroke:#000000;stroke-width:0.8;" x="287.944615" xlink:href="#mfebaeb380e" y="95.904"/>
      </g>
     </g>
    </g>
    <g id="ytick_10">
     <g id="line2d_22">
      <g>
       <use style="stroke:#000000;stroke-width:0.8;" x="287.944615" xlink:href="#mfebaeb380e" y="51.552"/>
      </g>
     </g>
    </g>
   </g>
   <g id="line2d_23">
    <path clip-path="url(#pc9c53b7554)" d="M 290.806154 228.96 
L 290.806154 225.201356 
L 292.236923 224.825492 
L 292.236923 220.690983 
L 293.667692 220.315119 
L 293.667692 209.039186 
L 295.098462 208.663322 
L 295.098462 198.139119 
L 296.529231 197.763254 
L 296.529231 186.111458 
L 297.96 185.735593 
L 297.96 180.849356 
L 299.390769 180.473492 
L 299.390769 175.21139 
L 300.821538 174.835525 
L 300.821538 168.069966 
L 302.252308 167.694102 
L 302.252308 163.935458 
L 303.683077 163.559593 
L 303.683077 157.169898 
L 305.113846 156.794034 
L 305.113846 143.63878 
L 306.544615 143.262915 
L 306.544615 128.980068 
L 307.975385 128.604203 
L 307.975385 116.200678 
L 309.406154 115.824814 
L 309.406154 107.555797 
L 310.836923 107.179932 
L 310.836923 99.28678 
L 312.267692 98.910915 
L 312.267692 91.769492 
L 313.698462 91.393627 
L 313.698462 83.876339 
L 315.129231 83.500475 
L 315.129231 76.359051 
L 316.56 75.983186 
L 316.56 70.721085 
L 317.990769 70.34522 
L 317.990769 62.827932 
L 319.421538 62.452068 
L 319.421538 57.941695 
L 320.852308 57.565831 
L 320.852308 53.807186 
L 322.283077 53.431322 
L 322.283077 50.048542 
L 323.713846 49.672678 
L 323.713846 44.786441 
L 325.144615 44.410576 
L 325.144615 41.779525 
L 326.575385 41.403661 
L 326.575385 38.020881 
L 328.006154 37.645017 
L 328.006154 34.262237 
L 329.436923 33.886373 
L 329.436923 30.127729 
L 330.867692 29.751864 
L 330.867692 26.744949 
L 332.298462 26.369085 
L 332.298462 25.241492 
L 333.729231 24.865627 
L 333.729231 22.986305 
L 335.16 22.610441 
L 335.16 21.858712 
L 336.590769 21.482847 
L 336.590769 20.731119 
L 338.021538 20.355254 
L 338.021538 18.475932 
L 339.452308 18.100068 
L 339.452308 17.724203 
L 342.313846 16.972475 
L 342.313846 16.59661 
L 346.606154 16.220746 
L 348.036923 15.844881 
L 348.036923 15.469017 
L 350.898462 14.717288 
L 350.898462 14.341424 
L 352.329231 13.965559 
L 352.329231 13.589695 
L 355.190769 13.213831 
L 360.913846 11.710373 
L 366.636923 10.958644 
L 376.652308 10.58278 
L 409.56 9.831051 
L 410.990769 9.455186 
L 452.483077 9.079322 
L 455.344615 8.703458 
L 510.76 8.06393 
L 510.76 8.06393 
" style="fill:none;stroke:#db5f57;stroke-linecap:square;stroke-width:1.5;"/>
   </g>
   <g id="line2d_24">
    <path clip-path="url(#pc9c53b7554)" d="M 290.806154 228.96 
L 290.806154 223.616386 
L 292.236923 223.234699 
L 292.236923 215.600964 
L 293.667692 215.219277 
L 293.667692 204.150361 
L 295.098462 203.768675 
L 295.098462 194.98988 
L 296.529231 194.608193 
L 296.529231 183.15759 
L 297.96 182.775904 
L 297.96 174.378795 
L 299.390769 173.997108 
L 299.390769 164.836627 
L 300.821538 164.45494 
L 300.821538 154.912771 
L 302.252308 154.531084 
L 302.252308 146.897349 
L 303.683077 146.515663 
L 303.683077 143.080482 
L 305.113846 142.698795 
L 305.113846 133.538313 
L 306.544615 133.156627 
L 306.544615 124.377831 
L 307.975385 123.996145 
L 307.975385 114.835663 
L 309.406154 114.453976 
L 309.406154 103.003373 
L 310.836923 102.621687 
L 310.836923 91.934458 
L 312.267692 91.552771 
L 312.267692 82.010602 
L 313.698462 81.628916 
L 313.698462 72.086747 
L 315.129231 71.70506 
L 315.129231 60.636145 
L 316.56 60.254458 
L 316.56 53.384096 
L 317.990769 53.00241 
L 317.990769 44.605301 
L 319.421538 44.223614 
L 319.421538 37.353253 
L 320.852308 36.971566 
L 320.852308 32.773012 
L 322.283077 32.391325 
L 322.283077 27.047711 
L 323.713846 26.666024 
L 323.713846 22.46747 
L 325.144615 22.085783 
L 325.144615 20.177349 
L 326.575385 19.795663 
L 326.575385 18.650602 
L 328.006154 18.268916 
L 328.006154 14.452048 
L 329.436923 14.070361 
L 329.436923 13.306988 
L 330.867692 12.925301 
L 330.867692 12.543614 
L 332.298462 12.161928 
L 332.298462 10.253494 
L 335.16 9.49012 
L 335.16 8.726747 
L 339.452308 8.34506 
L 345.175385 7.963373 
L 365.206154 7.581687 
L 373.790769 7.2 
L 373.790769 7.2 
" style="fill:none;stroke:#d3db57;stroke-linecap:square;stroke-width:1.5;"/>
   </g>
   <g id="line2d_25">
    <path clip-path="url(#pc9c53b7554)" d="M 290.806154 228.96 
L 290.806154 222.989538 
L 292.236923 222.136615 
L 292.236923 215.313231 
L 293.667692 214.460308 
L 293.667692 206.784 
L 295.098462 205.931077 
L 295.098462 197.401846 
L 296.529231 196.548923 
L 296.529231 188.872615 
L 297.96 188.019692 
L 297.96 174.372923 
L 299.390769 173.52 
L 299.390769 164.137846 
L 300.821538 163.284923 
L 300.821538 159.020308 
L 302.252308 158.167385 
L 302.252308 146.226462 
L 303.683077 145.373538 
L 303.683077 139.403077 
L 305.113846 138.550154 
L 305.113846 129.168 
L 306.544615 128.315077 
L 306.544615 116.374154 
L 307.975385 115.521231 
L 307.975385 106.992 
L 309.406154 106.139077 
L 309.406154 95.904 
L 310.836923 95.051077 
L 310.836923 87.374769 
L 312.267692 86.521846 
L 312.267692 70.316308 
L 313.698462 69.463385 
L 313.698462 65.198769 
L 315.129231 64.345846 
L 315.129231 53.257846 
L 316.56 52.404923 
L 316.56 46.434462 
L 317.990769 45.581538 
L 317.990769 41.316923 
L 319.421538 40.464 
L 319.421538 37.905231 
L 320.852308 37.052308 
L 320.852308 32.787692 
L 322.283077 31.934769 
L 322.283077 27.670154 
L 323.713846 26.817231 
L 323.713846 25.964308 
L 325.144615 25.111385 
L 325.144615 24.258462 
L 332.298462 23.405538 
L 332.298462 21.699692 
L 336.590769 20.846769 
L 336.590769 19.993846 
L 338.021538 19.140923 
L 338.021538 18.288 
L 339.452308 17.435077 
L 339.452308 15.729231 
L 348.036923 14.876308 
L 350.898462 13.170462 
L 350.898462 12.317538 
L 352.329231 11.464615 
L 355.190769 10.611692 
L 356.621538 9.758769 
L 360.913846 8.905846 
L 362.344615 8.052923 
L 376.652308 7.2 
L 376.652308 7.2 
" style="fill:none;stroke:#57db5f;stroke-linecap:square;stroke-width:1.5;"/>
   </g>
   <g id="line2d_26">
    <path clip-path="url(#pc9c53b7554)" d="M 290.806154 228.96 
L 290.806154 220.045025 
L 292.236923 218.930653 
L 292.236923 210.015678 
L 293.667692 208.901307 
L 293.667692 204.443819 
L 295.098462 203.329447 
L 295.098462 198.87196 
L 296.529231 197.757588 
L 296.529231 187.728241 
L 297.96 186.613869 
L 297.96 175.470151 
L 299.390769 174.355779 
L 299.390769 167.669548 
L 300.821538 166.555176 
L 300.821538 155.411457 
L 302.252308 154.297085 
L 302.252308 144.267739 
L 303.683077 143.153367 
L 303.683077 136.467136 
L 305.113846 135.352764 
L 305.113846 127.552161 
L 306.544615 126.437789 
L 306.544615 118.637186 
L 307.975385 117.522814 
L 307.975385 113.065327 
L 309.406154 111.950955 
L 309.406154 99.692864 
L 310.836923 98.578492 
L 310.836923 87.434774 
L 312.267692 86.320402 
L 312.267692 85.20603 
L 313.698462 84.091658 
L 313.698462 76.291055 
L 315.129231 75.176683 
L 315.129231 62.918593 
L 316.56 61.804221 
L 316.56 57.346734 
L 317.990769 56.232362 
L 317.990769 51.774874 
L 319.421538 50.660503 
L 319.421538 48.431759 
L 320.852308 47.317387 
L 320.852308 43.974271 
L 322.283077 42.859899 
L 322.283077 39.516784 
L 323.713846 38.402412 
L 323.713846 36.173668 
L 325.144615 35.059296 
L 325.144615 33.944925 
L 326.575385 32.830553 
L 326.575385 29.487437 
L 329.436923 27.258693 
L 332.298462 26.144322 
L 332.298462 22.801206 
L 335.16 20.572462 
L 335.16 19.45809 
L 338.021538 17.229347 
L 340.883077 16.114975 
L 349.467692 15.000603 
L 349.467692 13.886231 
L 352.329231 12.771859 
L 360.913846 11.657487 
L 379.513846 10.543116 
L 380.944615 9.428744 
L 396.683077 8.314372 
L 510.76 7.203745 
L 510.76 7.203745 
" style="fill:none;stroke:#57d3db;stroke-linecap:square;stroke-width:1.5;"/>
   </g>
   <g id="line2d_27">
    <path clip-path="url(#pc9c53b7554)" d="M 290.806154 228.96 
L 290.806154 217.529072 
L 292.236923 216.385979 
L 292.236923 208.38433 
L 293.667692 207.241237 
L 293.667692 199.239588 
L 295.098462 198.096495 
L 295.098462 185.522474 
L 296.529231 184.379381 
L 296.529231 171.805361 
L 297.96 170.662268 
L 297.96 155.802062 
L 299.390769 154.658969 
L 299.390769 143.228041 
L 300.821538 142.084948 
L 300.821538 135.226392 
L 302.252308 134.083299 
L 302.252308 124.938557 
L 303.683077 123.795464 
L 303.683077 118.08 
L 305.113846 116.936907 
L 305.113846 113.507629 
L 306.544615 112.364536 
L 306.544615 104.362887 
L 307.975385 103.219794 
L 307.975385 100.933608 
L 309.406154 99.790515 
L 309.406154 97.50433 
L 310.836923 96.361237 
L 310.836923 91.788866 
L 312.267692 90.645773 
L 312.267692 78.071753 
L 313.698462 76.92866 
L 313.698462 73.499381 
L 315.129231 72.356289 
L 315.129231 64.354639 
L 316.56 63.211546 
L 316.56 55.209897 
L 317.990769 54.066804 
L 317.990769 48.35134 
L 319.421538 47.208247 
L 319.421538 43.778969 
L 320.852308 42.635876 
L 320.852308 39.206598 
L 322.283077 38.063505 
L 322.283077 33.491134 
L 323.713846 32.348041 
L 323.713846 31.204948 
L 325.144615 30.061856 
L 325.144615 28.918763 
L 326.575385 27.77567 
L 326.575385 26.632577 
L 328.006154 25.489485 
L 328.006154 24.346392 
L 330.867692 22.060206 
L 333.729231 20.917113 
L 335.16 19.774021 
L 346.606154 15.201649 
L 349.467692 12.915464 
L 353.76 11.772371 
L 353.76 10.629278 
L 362.344615 9.486186 
L 395.252308 7.2 
L 395.252308 7.2 
" style="fill:none;stroke:#5f57db;stroke-linecap:square;stroke-width:1.5;"/>
   </g>
   <g id="line2d_28">
    <path clip-path="url(#pc9c53b7554)" d="M 290.806154 228.96 
L 290.806154 227.213858 
L 292.236923 225.467717 
L 292.236923 218.48315 
L 293.667692 216.737008 
L 293.667692 206.260157 
L 295.098462 204.514016 
L 295.098462 199.275591 
L 296.529231 197.529449 
L 296.529231 190.544882 
L 297.96 188.79874 
L 297.96 180.068031 
L 299.390769 178.32189 
L 299.390769 164.352756 
L 300.821538 162.606614 
L 300.821538 159.114331 
L 302.252308 157.368189 
L 302.252308 152.129764 
L 303.683077 150.383622 
L 303.683077 145.145197 
L 305.113846 143.399055 
L 305.113846 134.668346 
L 306.544615 132.922205 
L 306.544615 129.429921 
L 307.975385 127.68378 
L 307.975385 120.699213 
L 309.406154 118.953071 
L 309.406154 111.968504 
L 310.836923 110.222362 
L 310.836923 103.237795 
L 312.267692 101.491654 
L 312.267692 92.760945 
L 313.698462 91.014803 
L 313.698462 84.030236 
L 315.129231 82.284094 
L 315.129231 78.791811 
L 316.56 77.045669 
L 316.56 66.568819 
L 317.990769 64.822677 
L 317.990769 59.584252 
L 319.421538 57.83811 
L 319.421538 52.599685 
L 320.852308 50.853543 
L 320.852308 45.615118 
L 322.283077 43.868976 
L 322.283077 42.122835 
L 326.575385 36.884409 
L 326.575385 31.645984 
L 328.006154 29.899843 
L 328.006154 26.407559 
L 330.867692 22.915276 
L 330.867692 21.169134 
L 332.298462 19.422992 
L 332.298462 17.67685 
L 335.16 15.930709 
L 336.590769 14.184567 
L 342.313846 12.438425 
L 356.621538 8.946142 
L 358.052308 7.2 
L 358.052308 7.2 
" style="fill:none;stroke:#db57d3;stroke-linecap:square;stroke-width:1.5;"/>
   </g>
   <g id="patch_8">
    <path d="M 287.944615 228.96 
L 287.944615 7.2 
" style="fill:none;stroke:#000000;stroke-linecap:square;stroke-linejoin:miter;stroke-width:0.8;"/>
   </g>
   <g id="patch_9">
    <path d="M 502.56 228.96 
L 502.56 7.2 
" style="fill:none;stroke:#000000;stroke-linecap:square;stroke-linejoin:miter;stroke-width:0.8;"/>
   </g>
   <g id="patch_10">
    <path d="M 287.944615 228.96 
L 502.56 228.96 
" style="fill:none;stroke:#000000;stroke-linecap:square;stroke-linejoin:miter;stroke-width:0.8;"/>
   </g>
   <g id="patch_11">
    <path d="M 287.944615 7.2 
L 502.56 7.2 
" style="fill:none;stroke:#000000;stroke-linecap:square;stroke-linejoin:miter;stroke-width:0.8;"/>
   </g>
   <g id="text_13">
    <!-- b) In band times -->
    <defs>
     <path d="M 48.6875 27.296875 
Q 48.6875 37.203125 44.609375 42.84375 
Q 40.53125 48.484375 33.40625 48.484375 
Q 26.265625 48.484375 22.1875 42.84375 
Q 18.109375 37.203125 18.109375 27.296875 
Q 18.109375 17.390625 22.1875 11.75 
Q 26.265625 6.109375 33.40625 6.109375 
Q 40.53125 6.109375 44.609375 11.75 
Q 48.6875 17.390625 48.6875 27.296875 
z
M 18.109375 46.390625 
Q 20.953125 51.265625 25.265625 53.625 
Q 29.59375 56 35.59375 56 
Q 45.5625 56 51.78125 48.09375 
Q 58.015625 40.1875 58.015625 27.296875 
Q 58.015625 14.40625 51.78125 6.484375 
Q 45.5625 -1.421875 35.59375 -1.421875 
Q 29.59375 -1.421875 25.265625 0.953125 
Q 20.953125 3.328125 18.109375 8.203125 
L 18.109375 0 
L 9.078125 0 
L 9.078125 75.984375 
L 18.109375 75.984375 
z
" id="DejaVuSans-98"/>
     <path d="M 9.8125 72.90625 
L 19.671875 72.90625 
L 19.671875 0 
L 9.8125 0 
z
" id="DejaVuSans-73"/>
     <path d="M 54.890625 33.015625 
L 54.890625 0 
L 45.90625 0 
L 45.90625 32.71875 
Q 45.90625 40.484375 42.875 44.328125 
Q 39.84375 48.1875 33.796875 48.1875 
Q 26.515625 48.1875 22.3125 43.546875 
Q 18.109375 38.921875 18.109375 30.90625 
L 18.109375 0 
L 9.078125 0 
L 9.078125 54.6875 
L 18.109375 54.6875 
L 18.109375 46.1875 
Q 21.34375 51.125 25.703125 53.5625 
Q 30.078125 56 35.796875 56 
Q 45.21875 56 50.046875 50.171875 
Q 54.890625 44.34375 54.890625 33.015625 
z
" id="DejaVuSans-110"/>
     <path d="M 45.40625 46.390625 
L 45.40625 75.984375 
L 54.390625 75.984375 
L 54.390625 0 
L 45.40625 0 
L 45.40625 8.203125 
Q 42.578125 3.328125 38.25 0.953125 
Q 33.9375 -1.421875 27.875 -1.421875 
Q 17.96875 -1.421875 11.734375 6.484375 
Q 5.515625 14.40625 5.515625 27.296875 
Q 5.515625 40.1875 11.734375 48.09375 
Q 17.96875 56 27.875 56 
Q 33.9375 56 38.25 53.625 
Q 42.578125 51.265625 45.40625 46.390625 
z
M 14.796875 27.296875 
Q 14.796875 17.390625 18.875 11.75 
Q 22.953125 6.109375 30.078125 6.109375 
Q 37.203125 6.109375 41.296875 11.75 
Q 45.40625 17.390625 45.40625 27.296875 
Q 45.40625 37.203125 41.296875 42.84375 
Q 37.203125 48.484375 30.078125 48.484375 
Q 22.953125 48.484375 18.875 42.84375 
Q 14.796875 37.203125 14.796875 27.296875 
z
" id="DejaVuSans-100"/>
    </defs>
    <g transform="translate(402.406154 217.872)scale(0.1 -0.1)">
     <use xlink:href="#DejaVuSans-98"/>
     <use x="63.476562" xlink:href="#DejaVuSans-41"/>
     <use x="102.490234" xlink:href="#DejaVuSans-32"/>
     <use x="134.277344" xlink:href="#DejaVuSans-73"/>
     <use x="163.769531" xlink:href="#DejaVuSans-110"/>
     <use x="227.148438" xlink:href="#DejaVuSans-32"/>
     <use x="258.935547" xlink:href="#DejaVuSans-98"/>
     <use x="322.412109" xlink:href="#DejaVuSans-97"/>
     <use x="383.691406" xlink:href="#DejaVuSans-110"/>
     <use x="447.070312" xlink:href="#DejaVuSans-100"/>
     <use x="510.546875" xlink:href="#DejaVuSans-32"/>
     <use x="542.333984" xlink:href="#DejaVuSans-116"/>
     <use x="581.542969" xlink:href="#DejaVuSans-105"/>
     <use x="609.326172" xlink:href="#DejaVuSans-109"/>
     <use x="706.738281" xlink:href="#DejaVuSans-101"/>
     <use x="768.261719" xlink:href="#DejaVuSans-115"/>
    </g>
   </g>
   <g id="legend_1">
    <g id="line2d_29">
     <path d="M 404.82 84.387656 
L 422.82 84.387656 
" style="fill:none;stroke:#db5f57;stroke-linecap:square;stroke-width:1.5;"/>
    </g>
    <g id="line2d_30"/>
    <g id="text_14">
     <!-- $A$= 5.6  $\lambda=$27 -->
     <defs>
      <path d="M 36.8125 72.90625 
L 48 72.90625 
L 61.53125 0 
L 51.21875 0 
L 48.1875 18.703125 
L 15.375 18.703125 
L 5.078125 0 
L -5.328125 0 
z
M 40.375 63.1875 
L 19.921875 26.90625 
L 46.6875 26.90625 
z
" id="DejaVuSans-Oblique-65"/>
      <path d="M 10.59375 45.40625 
L 73.1875 45.40625 
L 73.1875 37.203125 
L 10.59375 37.203125 
z
M 10.59375 25.484375 
L 73.1875 25.484375 
L 73.1875 17.1875 
L 10.59375 17.1875 
z
" id="DejaVuSans-61"/>
      <path d="M 36.71875 67.4375 
L 48.828125 0 
L 39.3125 0 
L 31.84375 40.4375 
L 5.125 0 
L -4.390625 0 
L 29.734375 52.4375 
L 28.03125 62.109375 
Q 26.953125 68.265625 21.734375 68.265625 
L 17.046875 68.265625 
L 18.5 75.984375 
L 24.21875 75.875 
Q 35.203125 75.734375 36.71875 67.4375 
z
" id="DejaVuSans-Oblique-955"/>
      <path d="M 8.203125 72.90625 
L 55.078125 72.90625 
L 55.078125 68.703125 
L 28.609375 0 
L 18.3125 0 
L 43.21875 64.59375 
L 8.203125 64.59375 
z
" id="DejaVuSans-55"/>
     </defs>
     <g transform="translate(430.02 87.537656)scale(0.09 -0.09)">
      <use transform="translate(0 0.015625)" xlink:href="#DejaVuSans-Oblique-65"/>
      <use transform="translate(68.408203 0.015625)" xlink:href="#DejaVuSans-61"/>
      <use transform="translate(152.197266 0.015625)" xlink:href="#DejaVuSans-32"/>
      <use transform="translate(183.984375 0.015625)" xlink:href="#DejaVuSans-53"/>
      <use transform="translate(247.607422 0.015625)" xlink:href="#DejaVuSans-46"/>
      <use transform="translate(279.394531 0.015625)" xlink:href="#DejaVuSans-54"/>
      <use transform="translate(343.017578 0.015625)" xlink:href="#DejaVuSans-32"/>
      <use transform="translate(374.804688 0.015625)" xlink:href="#DejaVuSans-32"/>
      <use transform="translate(406.591797 0.015625)" xlink:href="#DejaVuSans-Oblique-955"/>
      <use transform="translate(485.253906 0.015625)" xlink:href="#DejaVuSans-61"/>
      <use transform="translate(588.525391 0.015625)" xlink:href="#DejaVuSans-50"/>
      <use transform="translate(652.148438 0.015625)" xlink:href="#DejaVuSans-55"/>
     </g>
    </g>
    <g id="line2d_31">
     <path d="M 404.82 97.597969 
L 422.82 97.597969 
" style="fill:none;stroke:#d3db57;stroke-linecap:square;stroke-width:1.5;"/>
    </g>
    <g id="line2d_32"/>
    <g id="text_15">
     <!-- $A$= 5.7  $\lambda=$30 -->
     <defs>
      <path d="M 40.578125 39.3125 
Q 47.65625 37.796875 51.625 33 
Q 55.609375 28.21875 55.609375 21.1875 
Q 55.609375 10.40625 48.1875 4.484375 
Q 40.765625 -1.421875 27.09375 -1.421875 
Q 22.515625 -1.421875 17.65625 -0.515625 
Q 12.796875 0.390625 7.625 2.203125 
L 7.625 11.71875 
Q 11.71875 9.328125 16.59375 8.109375 
Q 21.484375 6.890625 26.8125 6.890625 
Q 36.078125 6.890625 40.9375 10.546875 
Q 45.796875 14.203125 45.796875 21.1875 
Q 45.796875 27.640625 41.28125 31.265625 
Q 36.765625 34.90625 28.71875 34.90625 
L 20.21875 34.90625 
L 20.21875 43.015625 
L 29.109375 43.015625 
Q 36.375 43.015625 40.234375 45.921875 
Q 44.09375 48.828125 44.09375 54.296875 
Q 44.09375 59.90625 40.109375 62.90625 
Q 36.140625 65.921875 28.71875 65.921875 
Q 24.65625 65.921875 20.015625 65.03125 
Q 15.375 64.15625 9.8125 62.3125 
L 9.8125 71.09375 
Q 15.4375 72.65625 20.34375 73.4375 
Q 25.25 74.21875 29.59375 74.21875 
Q 40.828125 74.21875 47.359375 69.109375 
Q 53.90625 64.015625 53.90625 55.328125 
Q 53.90625 49.265625 50.4375 45.09375 
Q 46.96875 40.921875 40.578125 39.3125 
z
" id="DejaVuSans-51"/>
     </defs>
     <g transform="translate(430.02 100.747969)scale(0.09 -0.09)">
      <use transform="translate(0 0.015625)" xlink:href="#DejaVuSans-Oblique-65"/>
      <use transform="translate(68.408203 0.015625)" xlink:href="#DejaVuSans-61"/>
      <use transform="translate(152.197266 0.015625)" xlink:href="#DejaVuSans-32"/>
      <use transform="translate(183.984375 0.015625)" xlink:href="#DejaVuSans-53"/>
      <use transform="translate(247.607422 0.015625)" xlink:href="#DejaVuSans-46"/>
      <use transform="translate(271.644531 0.015625)" xlink:href="#DejaVuSans-55"/>
      <use transform="translate(335.267578 0.015625)" xlink:href="#DejaVuSans-32"/>
      <use transform="translate(367.054688 0.015625)" xlink:href="#DejaVuSans-32"/>
      <use transform="translate(398.841797 0.015625)" xlink:href="#DejaVuSans-Oblique-955"/>
      <use transform="translate(477.503906 0.015625)" xlink:href="#DejaVuSans-61"/>
      <use transform="translate(580.775391 0.015625)" xlink:href="#DejaVuSans-51"/>
      <use transform="translate(644.398438 0.015625)" xlink:href="#DejaVuSans-48"/>
     </g>
    </g>
    <g id="line2d_33">
     <path d="M 404.82 110.808281 
L 422.82 110.808281 
" style="fill:none;stroke:#57db5f;stroke-linecap:square;stroke-width:1.5;"/>
    </g>
    <g id="line2d_34"/>
    <g id="text_16">
     <!-- $A$= 2.7  $\lambda=$21 -->
     <g transform="translate(430.02 113.958281)scale(0.09 -0.09)">
      <use transform="translate(0 0.015625)" xlink:href="#DejaVuSans-Oblique-65"/>
      <use transform="translate(68.408203 0.015625)" xlink:href="#DejaVuSans-61"/>
      <use transform="translate(152.197266 0.015625)" xlink:href="#DejaVuSans-32"/>
      <use transform="translate(183.984375 0.015625)" xlink:href="#DejaVuSans-50"/>
      <use transform="translate(247.607422 0.015625)" xlink:href="#DejaVuSans-46"/>
      <use transform="translate(271.644531 0.015625)" xlink:href="#DejaVuSans-55"/>
      <use transform="translate(335.267578 0.015625)" xlink:href="#DejaVuSans-32"/>
      <use transform="translate(367.054688 0.015625)" xlink:href="#DejaVuSans-32"/>
      <use transform="translate(398.841797 0.015625)" xlink:href="#DejaVuSans-Oblique-955"/>
      <use transform="translate(477.503906 0.015625)" xlink:href="#DejaVuSans-61"/>
      <use transform="translate(580.775391 0.015625)" xlink:href="#DejaVuSans-50"/>
      <use transform="translate(644.398438 0.015625)" xlink:href="#DejaVuSans-49"/>
     </g>
    </g>
    <g id="line2d_35">
     <path d="M 404.82 124.018594 
L 422.82 124.018594 
" style="fill:none;stroke:#57d3db;stroke-linecap:square;stroke-width:1.5;"/>
    </g>
    <g id="line2d_36"/>
    <g id="text_17">
     <!-- $A$= 2.8  $\lambda=$24 -->
     <g transform="translate(430.02 127.168594)scale(0.09 -0.09)">
      <use transform="translate(0 0.015625)" xlink:href="#DejaVuSans-Oblique-65"/>
      <use transform="translate(68.408203 0.015625)" xlink:href="#DejaVuSans-61"/>
      <use transform="translate(152.197266 0.015625)" xlink:href="#DejaVuSans-32"/>
      <use transform="translate(183.984375 0.015625)" xlink:href="#DejaVuSans-50"/>
      <use transform="translate(247.607422 0.015625)" xlink:href="#DejaVuSans-46"/>
      <use transform="translate(276.769531 0.015625)" xlink:href="#DejaVuSans-56"/>
      <use transform="translate(340.392578 0.015625)" xlink:href="#DejaVuSans-32"/>
      <use transform="translate(372.179688 0.015625)" xlink:href="#DejaVuSans-32"/>
      <use transform="translate(403.966797 0.015625)" xlink:href="#DejaVuSans-Oblique-955"/>
      <use transform="translate(482.628906 0.015625)" xlink:href="#DejaVuSans-61"/>
      <use transform="translate(585.900391 0.015625)" xlink:href="#DejaVuSans-50"/>
      <use transform="translate(649.523438 0.015625)" xlink:href="#DejaVuSans-52"/>
     </g>
    </g>
    <g id="line2d_37">
     <path d="M 404.82 137.228906 
L 422.82 137.228906 
" style="fill:none;stroke:#5f57db;stroke-linecap:square;stroke-width:1.5;"/>
    </g>
    <g id="line2d_38"/>
    <g id="text_18">
     <!-- $A$= 2.9  $\lambda=$27 -->
     <defs>
      <path d="M 10.984375 1.515625 
L 10.984375 10.5 
Q 14.703125 8.734375 18.5 7.8125 
Q 22.3125 6.890625 25.984375 6.890625 
Q 35.75 6.890625 40.890625 13.453125 
Q 46.046875 20.015625 46.78125 33.40625 
Q 43.953125 29.203125 39.59375 26.953125 
Q 35.25 24.703125 29.984375 24.703125 
Q 19.046875 24.703125 12.671875 31.3125 
Q 6.296875 37.9375 6.296875 49.421875 
Q 6.296875 60.640625 12.9375 67.421875 
Q 19.578125 74.21875 30.609375 74.21875 
Q 43.265625 74.21875 49.921875 64.515625 
Q 56.59375 54.828125 56.59375 36.375 
Q 56.59375 19.140625 48.40625 8.859375 
Q 40.234375 -1.421875 26.421875 -1.421875 
Q 22.703125 -1.421875 18.890625 -0.6875 
Q 15.09375 0.046875 10.984375 1.515625 
z
M 30.609375 32.421875 
Q 37.25 32.421875 41.125 36.953125 
Q 45.015625 41.5 45.015625 49.421875 
Q 45.015625 57.28125 41.125 61.84375 
Q 37.25 66.40625 30.609375 66.40625 
Q 23.96875 66.40625 20.09375 61.84375 
Q 16.21875 57.28125 16.21875 49.421875 
Q 16.21875 41.5 20.09375 36.953125 
Q 23.96875 32.421875 30.609375 32.421875 
z
" id="DejaVuSans-57"/>
     </defs>
     <g transform="translate(430.02 140.378906)scale(0.09 -0.09)">
      <use transform="translate(0 0.015625)" xlink:href="#DejaVuSans-Oblique-65"/>
      <use transform="translate(68.408203 0.015625)" xlink:href="#DejaVuSans-61"/>
      <use transform="translate(152.197266 0.015625)" xlink:href="#DejaVuSans-32"/>
      <use transform="translate(183.984375 0.015625)" xlink:href="#DejaVuSans-50"/>
      <use transform="translate(247.607422 0.015625)" xlink:href="#DejaVuSans-46"/>
      <use transform="translate(279.394531 0.015625)" xlink:href="#DejaVuSans-57"/>
      <use transform="translate(343.017578 0.015625)" xlink:href="#DejaVuSans-32"/>
      <use transform="translate(374.804688 0.015625)" xlink:href="#DejaVuSans-32"/>
      <use transform="translate(406.591797 0.015625)" xlink:href="#DejaVuSans-Oblique-955"/>
      <use transform="translate(485.253906 0.015625)" xlink:href="#DejaVuSans-61"/>
      <use transform="translate(588.525391 0.015625)" xlink:href="#DejaVuSans-50"/>
      <use transform="translate(652.148438 0.015625)" xlink:href="#DejaVuSans-55"/>
     </g>
    </g>
    <g id="line2d_39">
     <path d="M 404.82 150.439219 
L 422.82 150.439219 
" style="fill:none;stroke:#db57d3;stroke-linecap:square;stroke-width:1.5;"/>
    </g>
    <g id="line2d_40"/>
    <g id="text_19">
     <!-- $A$= 2.9  $\lambda=$30 -->
     <g transform="translate(430.02 153.589219)scale(0.09 -0.09)">
      <use transform="translate(0 0.015625)" xlink:href="#DejaVuSans-Oblique-65"/>
      <use transform="translate(68.408203 0.015625)" xlink:href="#DejaVuSans-61"/>
      <use transform="translate(152.197266 0.015625)" xlink:href="#DejaVuSans-32"/>
      <use transform="translate(183.984375 0.015625)" xlink:href="#DejaVuSans-50"/>
      <use transform="translate(247.607422 0.015625)" xlink:href="#DejaVuSans-46"/>
      <use transform="translate(279.394531 0.015625)" xlink:href="#DejaVuSans-57"/>
      <use transform="translate(343.017578 0.015625)" xlink:href="#DejaVuSans-32"/>
      <use transform="translate(374.804688 0.015625)" xlink:href="#DejaVuSans-32"/>
      <use transform="translate(406.591797 0.015625)" xlink:href="#DejaVuSans-Oblique-955"/>
      <use transform="translate(485.253906 0.015625)" xlink:href="#DejaVuSans-61"/>
      <use transform="translate(588.525391 0.015625)" xlink:href="#DejaVuSans-51"/>
      <use transform="translate(652.148438 0.015625)" xlink:href="#DejaVuSans-48"/>
     </g>
    </g>
   </g>
  </g>
  <g id="text_20">
   <!-- $\tau$ (s) -->
   <defs>
    <path d="M 32.859375 9.96875 
Q 34.1875 7.625 39.453125 7.625 
L 43.75 7.625 
L 42.28125 0 
L 36.921875 0 
Q 28.125 0 25 4.6875 
Q 21.921875 9.46875 23.96875 19.828125 
L 29 45.703125 
L 8.453125 45.703125 
L 10.203125 54.6875 
L 60.640625 54.6875 
L 58.890625 45.703125 
L 38.1875 45.703125 
L 33.015625 19.28125 
Q 31.640625 12.203125 32.859375 9.96875 
z
" id="DejaVuSans-Oblique-964"/>
    <path d="M 31 75.875 
Q 24.46875 64.65625 21.28125 53.65625 
Q 18.109375 42.671875 18.109375 31.390625 
Q 18.109375 20.125 21.3125 9.0625 
Q 24.515625 -2 31 -13.1875 
L 23.1875 -13.1875 
Q 15.875 -1.703125 12.234375 9.375 
Q 8.59375 20.453125 8.59375 31.390625 
Q 8.59375 42.28125 12.203125 53.3125 
Q 15.828125 64.359375 23.1875 75.875 
z
" id="DejaVuSans-40"/>
   </defs>
   <g transform="translate(272.53 260.64)scale(0.1 -0.1)">
    <use transform="translate(0 0.125)" xlink:href="#DejaVuSans-Oblique-964"/>
    <use transform="translate(60.205078 0.125)" xlink:href="#DejaVuSans-32"/>
    <use transform="translate(91.992188 0.125)" xlink:href="#DejaVuSans-40"/>
    <use transform="translate(131.005859 0.125)" xlink:href="#DejaVuSans-115"/>
    <use transform="translate(183.105469 0.125)" xlink:href="#DejaVuSans-41"/>
   </g>
  </g>
  <g id="text_21">
   <!-- $F(\tau)$ -->
   <defs>
    <path d="M 16.890625 72.90625 
L 58.6875 72.90625 
L 57.078125 64.59375 
L 25.09375 64.59375 
L 20.90625 43.109375 
L 49.8125 43.109375 
L 48.1875 34.8125 
L 19.28125 34.8125 
L 12.5 0 
L 2.6875 0 
z
" id="DejaVuSans-Oblique-70"/>
   </defs>
   <g transform="translate(14.798438 126.44)rotate(-90)scale(0.1 -0.1)">
    <use transform="translate(0 0.125)" xlink:href="#DejaVuSans-Oblique-70"/>
    <use transform="translate(57.519531 0.125)" xlink:href="#DejaVuSans-40"/>
    <use transform="translate(96.533203 0.125)" xlink:href="#DejaVuSans-Oblique-964"/>
    <use transform="translate(156.738281 0.125)" xlink:href="#DejaVuSans-41"/>
   </g>
  </g>
 </g>
 <defs>
  <clipPath id="p575873f6b2">
   <rect height="221.76" width="214.615385" x="56.16" y="7.2"/>
  </clipPath>
  <clipPath id="pc9c53b7554">
   <rect height="221.76" width="214.615385" x="287.944615" y="7.2"/>
  </clipPath>
 </defs>
</svg>
