<svg width="3074" height="871" xmlns="http://www.w3.org/2000/svg" xmlns:xlink="http://www.w3.org/1999/xlink" overflow="hidden"><defs><clipPath id="clip0"><rect x="555" y="300" width="3074" height="871"/></clipPath></defs><g clip-path="url(#clip0)" transform="translate(-555 -300)"><path d="M2016.5 494.91 2075.91 435.5 2752.5 435.5 2752.5 1109.09 2693.09 1168.5 2016.5 1168.5ZM2016.5 494.91 2693.09 494.91 2752.5 435.5M2693.09 494.91 2693.09 1168.5" stroke="#FF0000" stroke-width="4.58333" stroke-miterlimit="8" fill="none" fill-rule="evenodd"/><path d="M645.5 990.384C678.742 921.906 711.984 853.43 750.665 867.306 789.346 881.182 840.116 1056.75 877.588 1073.64 915.061 1090.53 945.28 1029.6 975.5 968.664" stroke="#2F528F" stroke-width="4.58333" stroke-miterlimit="8" fill="none" fill-rule="evenodd"/><path d="M959.5 1001.38C992.742 932.906 1025.98 864.43 1064.67 878.306 1103.35 892.182 1154.12 1067.75 1191.59 1084.64 1229.06 1101.53 1259.28 1040.6 1289.5 979.664" stroke="#2F528F" stroke-width="4.58333" stroke-miterlimit="8" fill="none" fill-rule="evenodd"/><path d="M557.5 469.5 557.5 987.889" stroke="#2F5597" stroke-width="4.58333" stroke-miterlimit="8" fill="none" fill-rule="evenodd"/><path d="M557.5 469.5 3455.7 469.5" stroke="#2F5597" stroke-width="4.58333" stroke-miterlimit="8" fill="none" fill-rule="evenodd"/><path d="M3455.5 469.5 3455.5 987.889" stroke="#2F5597" stroke-width="4.58333" stroke-miterlimit="8" fill="none" fill-rule="evenodd"/><path d="M0 0 170.198 166.995" stroke="#2F5597" stroke-width="4.58333" stroke-miterlimit="8" fill="none" fill-rule="evenodd" transform="matrix(1 0 0 -1 3455.5 469.495)"/><path d="M3625.5 302.5 3625.5 820.889" stroke="#2F5597" stroke-width="4.58333" stroke-miterlimit="8" fill="none" fill-rule="evenodd"/><path d="M3455.5 469.5 3455.5 987.889" stroke="#2F5597" stroke-width="4.58333" stroke-miterlimit="8" fill="none" fill-rule="evenodd"/><path d="M0 0 172.948 166.996" stroke="#2F5597" stroke-width="4.58333" stroke-miterlimit="8" fill="none" fill-rule="evenodd" transform="matrix(1 0 0 -1 557.5 469.496)"/><path d="M730.5 302.5 3625.95 302.5" stroke="#2F5597" stroke-width="4.58333" stroke-miterlimit="8" fill="none" fill-rule="evenodd"/><path d="M0 0 170.197 166.995" stroke="#2F5597" stroke-width="4.58333" stroke-miterlimit="8" fill="none" fill-rule="evenodd" transform="matrix(1 0 0 -1 3455.5 987.495)"/><path d="M557.5 987.5 645.861 987.5" stroke="#2F5597" stroke-width="4.58333" stroke-miterlimit="8" fill="none" fill-rule="evenodd"/><path d="M1289.5 982.5 1380.51 982.5" stroke="#2F5597" stroke-width="4.58333" stroke-miterlimit="8" fill="none" fill-rule="evenodd"/><path d="M0 0 183.194 1.17001" stroke="#2F5597" stroke-width="4.58333" stroke-miterlimit="8" fill="none" fill-rule="evenodd" transform="matrix(1 0 0 -1 3273.5 988.67)"/><path d="M2017.5 988.384C2041.07 919.906 2064.64 851.429 2092.07 865.306 2119.5 879.182 2155.5 1054.75 2182.07 1071.64 2208.64 1088.53 2230.07 1027.6 2251.5 966.664" stroke="#2F528F" stroke-width="4.58333" stroke-miterlimit="8" fill="none" fill-rule="evenodd"/><path d="M2244.5 989.384C2268.17 920.906 2291.84 852.43 2319.39 866.306 2346.94 880.182 2383.09 1055.75 2409.77 1072.64 2436.46 1089.53 2457.98 1028.6 2479.5 967.664" stroke="#2F528F" stroke-width="4.58333" stroke-miterlimit="8" fill="none" fill-rule="evenodd"/><path d="M2471.5 987.397C2494.96 918.912 2518.42 850.428 2545.73 864.306 2573.03 878.184 2608.86 1053.77 2635.31 1070.66 2661.76 1087.56 2681.17 1046.73 2702.5 985.786" stroke="#2F528F" stroke-width="4.58333" stroke-miterlimit="8" fill="none" fill-rule="evenodd"/><path d="M2703.5 989.5 2792.27 989.501" stroke="#2F5597" stroke-width="4.58333" stroke-miterlimit="8" fill="none" fill-rule="evenodd"/><path d="M2787.5 987.254C2804.54 918.488 2824.78 833.695 2845.25 844.425 2865.72 855.154 2891.1 1034.67 2910.31 1051.63 2929.52 1068.59 2945.01 1007.4 2960.5 946.21" stroke="#2F528F" stroke-width="4.58333" stroke-miterlimit="8" fill="none" fill-rule="evenodd"/><path d="M2954.5 969.384C2971.52 900.906 2988.55 832.43 3008.36 846.306 3028.17 860.183 3054.17 1035.75 3073.36 1052.64 3092.55 1069.53 3108.02 1008.6 3123.5 947.664" stroke="#2F528F" stroke-width="4.58333" stroke-miterlimit="8" fill="none" fill-rule="evenodd"/><path d="M3117.5 969.426C3134.5 900.926 3151.51 832.425 3171.29 846.307 3191.08 860.188 3217.05 1035.81 3236.21 1052.71 3255.38 1069.61 3259.04 1049.85 3274.5 988.89" stroke="#2F528F" stroke-width="4.58333" stroke-miterlimit="8" fill="none" fill-rule="evenodd"/><path d="M1376.5 985.383C1406.52 916.906 1436.54 848.429 1471.47 862.306 1506.4 876.182 1552.24 1051.75 1586.08 1068.64 1619.92 1085.53 1647.21 1024.6 1674.5 963.664" stroke="#2F528F" stroke-width="4.58333" stroke-miterlimit="8" fill="none" fill-rule="evenodd"/><path d="M1660.5 996.604C1690.54 928.006 1720.59 859.408 1755.55 873.309 1790.51 887.21 1836.4 1063.09 1870.27 1080.01 1904.13 1096.93 1923.19 1050.03 1950.5 988.989" stroke="#2F528F" stroke-width="4.58333" stroke-miterlimit="8" fill="none" fill-rule="evenodd"/><path d="M1947.5 987.5 2017.47 987.5" stroke="#2F5597" stroke-width="4.58333" stroke-miterlimit="8" fill="none" fill-rule="evenodd"/></g></svg>