<?xml version="1.0" encoding="utf-8" standalone="no"?>
<!DOCTYPE svg PUBLIC "-//W3C//DTD SVG 1.1//EN"
  "http://www.w3.org/Graphics/SVG/1.1/DTD/svg11.dtd">
<!-- Created with matplotlib (https://matplotlib.org/) -->
<svg height="547.839687pt" version="1.1" viewBox="0 0 509.76 547.839687" width="509.76pt" xmlns="http://www.w3.org/2000/svg" xmlns:xlink="http://www.w3.org/1999/xlink">
 <defs>
  <style type="text/css">
*{stroke-linecap:butt;stroke-linejoin:round;}
  </style>
 </defs>
 <g id="figure_1">
  <g id="patch_1">
   <path d="M 0 547.839687 
L 509.76 547.839687 
L 509.76 0 
L 0 0 
z
" style="fill:#ffffff;"/>
  </g>
  <g id="axes_1">
   <g id="patch_2">
    <path d="M 56.16 165.098734 
L 197.425823 165.098734 
L 197.425823 7.2 
L 56.16 7.2 
z
" style="fill:#ffffff;"/>
   </g>
   <g id="patch_3">
    <path clip-path="url(#pbd3f700e0e)" d="M 56.16 165.098734 
L 56.16 14.712408 
L 63.223291 14.712408 
L 63.223291 84.258313 
L 70.286582 84.258313 
L 70.286582 137.795016 
L 77.349873 137.795016 
L 77.349873 152.491704 
L 84.413165 152.491704 
L 84.413165 156.101114 
L 91.476456 156.101114 
L 91.476456 158.294392 
L 98.539747 158.294392 
L 98.539747 158.277122 
L 105.603038 158.277122 
L 105.603038 158.449821 
L 112.666329 158.449821 
L 112.666329 160.574019 
L 119.72962 160.574019 
L 119.72962 161.541134 
L 126.792911 161.541134 
L 126.792911 162.525518 
L 133.856203 162.525518 
L 133.856203 163.026346 
L 140.919494 163.026346 
L 140.919494 164.07981 
L 147.982785 164.07981 
L 147.982785 164.597907 
L 155.046076 164.597907 
L 155.046076 164.511557 
L 162.109367 164.511557 
L 162.109367 164.891495 
L 169.172658 164.891495 
L 169.172658 164.908765 
L 176.235949 164.908765 
L 176.235949 165.012385 
L 183.299241 165.012385 
L 183.299241 165.081464 
L 190.362532 165.081464 
L 190.362532 165.046924 
L 197.425823 165.046924 
L 197.425823 165.098734 
" style="fill:none;stroke:#db5f57;stroke-linejoin:miter;"/>
   </g>
   <g id="matplotlib.axis_1">
    <g id="xtick_1">
     <g id="line2d_1">
      <defs>
       <path d="M 0 0 
L 0 6 
" id="me87f7079e3" style="stroke:#000000;stroke-width:0.8;"/>
      </defs>
      <g>
       <use style="stroke:#000000;stroke-width:0.8;" x="56.16" xlink:href="#me87f7079e3" y="165.098734"/>
      </g>
     </g>
    </g>
    <g id="xtick_2">
     <g id="line2d_2">
      <g>
       <use style="stroke:#000000;stroke-width:0.8;" x="84.413165" xlink:href="#me87f7079e3" y="165.098734"/>
      </g>
     </g>
    </g>
    <g id="xtick_3">
     <g id="line2d_3">
      <g>
       <use style="stroke:#000000;stroke-width:0.8;" x="112.666329" xlink:href="#me87f7079e3" y="165.098734"/>
      </g>
     </g>
    </g>
    <g id="xtick_4">
     <g id="line2d_4">
      <g>
       <use style="stroke:#000000;stroke-width:0.8;" x="140.919494" xlink:href="#me87f7079e3" y="165.098734"/>
      </g>
     </g>
    </g>
    <g id="xtick_5">
     <g id="line2d_5">
      <g>
       <use style="stroke:#000000;stroke-width:0.8;" x="169.172658" xlink:href="#me87f7079e3" y="165.098734"/>
      </g>
     </g>
    </g>
   </g>
   <g id="matplotlib.axis_2">
    <g id="ytick_1">
     <g id="line2d_6">
      <defs>
       <path d="M 0 0 
L -6 0 
" id="m44d2687297" style="stroke:#000000;stroke-width:0.8;"/>
      </defs>
      <g>
       <use style="stroke:#000000;stroke-width:0.8;" x="56.16" xlink:href="#m44d2687297" y="165.098734"/>
      </g>
     </g>
     <g id="text_1">
      <!-- 0 -->
      <defs>
       <path d="M 31.78125 66.40625 
Q 24.171875 66.40625 20.328125 58.90625 
Q 16.5 51.421875 16.5 36.375 
Q 16.5 21.390625 20.328125 13.890625 
Q 24.171875 6.390625 31.78125 6.390625 
Q 39.453125 6.390625 43.28125 13.890625 
Q 47.125 21.390625 47.125 36.375 
Q 47.125 51.421875 43.28125 58.90625 
Q 39.453125 66.40625 31.78125 66.40625 
z
M 31.78125 74.21875 
Q 44.046875 74.21875 50.515625 64.515625 
Q 56.984375 54.828125 56.984375 36.375 
Q 56.984375 17.96875 50.515625 8.265625 
Q 44.046875 -1.421875 31.78125 -1.421875 
Q 19.53125 -1.421875 13.0625 8.265625 
Q 6.59375 17.96875 6.59375 36.375 
Q 6.59375 54.828125 13.0625 64.515625 
Q 19.53125 74.21875 31.78125 74.21875 
z
" id="DejaVuSans-48"/>
      </defs>
      <g transform="translate(40.2975 168.897953)scale(0.1 -0.1)">
       <use xlink:href="#DejaVuSans-48"/>
      </g>
     </g>
    </g>
    <g id="ytick_2">
     <g id="line2d_7">
      <g>
       <use style="stroke:#000000;stroke-width:0.8;" x="56.16" xlink:href="#m44d2687297" y="125.624051"/>
      </g>
     </g>
     <g id="text_2">
      <!-- 1 -->
      <defs>
       <path d="M 12.40625 8.296875 
L 28.515625 8.296875 
L 28.515625 63.921875 
L 10.984375 60.40625 
L 10.984375 69.390625 
L 28.421875 72.90625 
L 38.28125 72.90625 
L 38.28125 8.296875 
L 54.390625 8.296875 
L 54.390625 0 
L 12.40625 0 
z
" id="DejaVuSans-49"/>
      </defs>
      <g transform="translate(40.2975 129.423269)scale(0.1 -0.1)">
       <use xlink:href="#DejaVuSans-49"/>
      </g>
     </g>
    </g>
    <g id="ytick_3">
     <g id="line2d_8">
      <g>
       <use style="stroke:#000000;stroke-width:0.8;" x="56.16" xlink:href="#m44d2687297" y="86.149367"/>
      </g>
     </g>
     <g id="text_3">
      <!-- 2 -->
      <defs>
       <path d="M 19.1875 8.296875 
L 53.609375 8.296875 
L 53.609375 0 
L 7.328125 0 
L 7.328125 8.296875 
Q 12.9375 14.109375 22.625 23.890625 
Q 32.328125 33.6875 34.8125 36.53125 
Q 39.546875 41.84375 41.421875 45.53125 
Q 43.3125 49.21875 43.3125 52.78125 
Q 43.3125 58.59375 39.234375 62.25 
Q 35.15625 65.921875 28.609375 65.921875 
Q 23.96875 65.921875 18.8125 64.3125 
Q 13.671875 62.703125 7.8125 59.421875 
L 7.8125 69.390625 
Q 13.765625 71.78125 18.9375 73 
Q 24.125 74.21875 28.421875 74.21875 
Q 39.75 74.21875 46.484375 68.546875 
Q 53.21875 62.890625 53.21875 53.421875 
Q 53.21875 48.921875 51.53125 44.890625 
Q 49.859375 40.875 45.40625 35.40625 
Q 44.1875 33.984375 37.640625 27.21875 
Q 31.109375 20.453125 19.1875 8.296875 
z
" id="DejaVuSans-50"/>
      </defs>
      <g transform="translate(40.2975 89.948586)scale(0.1 -0.1)">
       <use xlink:href="#DejaVuSans-50"/>
      </g>
     </g>
    </g>
    <g id="ytick_4">
     <g id="line2d_9">
      <g>
       <use style="stroke:#000000;stroke-width:0.8;" x="56.16" xlink:href="#m44d2687297" y="46.674684"/>
      </g>
     </g>
     <g id="text_4">
      <!-- 3 -->
      <defs>
       <path d="M 40.578125 39.3125 
Q 47.65625 37.796875 51.625 33 
Q 55.609375 28.21875 55.609375 21.1875 
Q 55.609375 10.40625 48.1875 4.484375 
Q 40.765625 -1.421875 27.09375 -1.421875 
Q 22.515625 -1.421875 17.65625 -0.515625 
Q 12.796875 0.390625 7.625 2.203125 
L 7.625 11.71875 
Q 11.71875 9.328125 16.59375 8.109375 
Q 21.484375 6.890625 26.8125 6.890625 
Q 36.078125 6.890625 40.9375 10.546875 
Q 45.796875 14.203125 45.796875 21.1875 
Q 45.796875 27.640625 41.28125 31.265625 
Q 36.765625 34.90625 28.71875 34.90625 
L 20.21875 34.90625 
L 20.21875 43.015625 
L 29.109375 43.015625 
Q 36.375 43.015625 40.234375 45.921875 
Q 44.09375 48.828125 44.09375 54.296875 
Q 44.09375 59.90625 40.109375 62.90625 
Q 36.140625 65.921875 28.71875 65.921875 
Q 24.65625 65.921875 20.015625 65.03125 
Q 15.375 64.15625 9.8125 62.3125 
L 9.8125 71.09375 
Q 15.4375 72.65625 20.34375 73.4375 
Q 25.25 74.21875 29.59375 74.21875 
Q 40.828125 74.21875 47.359375 69.109375 
Q 53.90625 64.015625 53.90625 55.328125 
Q 53.90625 49.265625 50.4375 45.09375 
Q 46.96875 40.921875 40.578125 39.3125 
z
" id="DejaVuSans-51"/>
      </defs>
      <g transform="translate(40.2975 50.473902)scale(0.1 -0.1)">
       <use xlink:href="#DejaVuSans-51"/>
      </g>
     </g>
    </g>
   </g>
   <g id="patch_4">
    <path d="M 56.16 165.098734 
L 56.16 7.2 
" style="fill:none;stroke:#000000;stroke-linecap:square;stroke-linejoin:miter;stroke-width:0.8;"/>
   </g>
   <g id="patch_5">
    <path d="M 197.425823 165.098734 
L 197.425823 7.2 
" style="fill:none;stroke:#000000;stroke-linecap:square;stroke-linejoin:miter;stroke-width:0.8;"/>
   </g>
   <g id="patch_6">
    <path d="M 56.16 165.098734 
L 197.425823 165.098734 
" style="fill:none;stroke:#000000;stroke-linecap:square;stroke-linejoin:miter;stroke-width:0.8;"/>
   </g>
   <g id="patch_7">
    <path d="M 56.16 7.2 
L 197.425823 7.2 
" style="fill:none;stroke:#000000;stroke-linecap:square;stroke-linejoin:miter;stroke-width:0.8;"/>
   </g>
   <g id="text_5">
    <!-- a) $A$= 8.2  $\lambda=$24 -->
    <defs>
     <path d="M 34.28125 27.484375 
Q 23.390625 27.484375 19.1875 25 
Q 14.984375 22.515625 14.984375 16.5 
Q 14.984375 11.71875 18.140625 8.90625 
Q 21.296875 6.109375 26.703125 6.109375 
Q 34.1875 6.109375 38.703125 11.40625 
Q 43.21875 16.703125 43.21875 25.484375 
L 43.21875 27.484375 
z
M 52.203125 31.203125 
L 52.203125 0 
L 43.21875 0 
L 43.21875 8.296875 
Q 40.140625 3.328125 35.546875 0.953125 
Q 30.953125 -1.421875 24.3125 -1.421875 
Q 15.921875 -1.421875 10.953125 3.296875 
Q 6 8.015625 6 15.921875 
Q 6 25.140625 12.171875 29.828125 
Q 18.359375 34.515625 30.609375 34.515625 
L 43.21875 34.515625 
L 43.21875 35.40625 
Q 43.21875 41.609375 39.140625 45 
Q 35.0625 48.390625 27.6875 48.390625 
Q 23 48.390625 18.546875 47.265625 
Q 14.109375 46.140625 10.015625 43.890625 
L 10.015625 52.203125 
Q 14.9375 54.109375 19.578125 55.046875 
Q 24.21875 56 28.609375 56 
Q 40.484375 56 46.34375 49.84375 
Q 52.203125 43.703125 52.203125 31.203125 
z
" id="DejaVuSans-97"/>
     <path d="M 8.015625 75.875 
L 15.828125 75.875 
Q 23.140625 64.359375 26.78125 53.3125 
Q 30.421875 42.28125 30.421875 31.390625 
Q 30.421875 20.453125 26.78125 9.375 
Q 23.140625 -1.703125 15.828125 -13.1875 
L 8.015625 -13.1875 
Q 14.5 -2 17.703125 9.0625 
Q 20.90625 20.125 20.90625 31.390625 
Q 20.90625 42.671875 17.703125 53.65625 
Q 14.5 64.65625 8.015625 75.875 
z
" id="DejaVuSans-41"/>
     <path id="DejaVuSans-32"/>
     <path d="M 36.8125 72.90625 
L 48 72.90625 
L 61.53125 0 
L 51.21875 0 
L 48.1875 18.703125 
L 15.375 18.703125 
L 5.078125 0 
L -5.328125 0 
z
M 40.375 63.1875 
L 19.921875 26.90625 
L 46.6875 26.90625 
z
" id="DejaVuSans-Oblique-65"/>
     <path d="M 10.59375 45.40625 
L 73.1875 45.40625 
L 73.1875 37.203125 
L 10.59375 37.203125 
z
M 10.59375 25.484375 
L 73.1875 25.484375 
L 73.1875 17.1875 
L 10.59375 17.1875 
z
" id="DejaVuSans-61"/>
     <path d="M 31.78125 34.625 
Q 24.75 34.625 20.71875 30.859375 
Q 16.703125 27.09375 16.703125 20.515625 
Q 16.703125 13.921875 20.71875 10.15625 
Q 24.75 6.390625 31.78125 6.390625 
Q 38.8125 6.390625 42.859375 10.171875 
Q 46.921875 13.96875 46.921875 20.515625 
Q 46.921875 27.09375 42.890625 30.859375 
Q 38.875 34.625 31.78125 34.625 
z
M 21.921875 38.8125 
Q 15.578125 40.375 12.03125 44.71875 
Q 8.5 49.078125 8.5 55.328125 
Q 8.5 64.0625 14.71875 69.140625 
Q 20.953125 74.21875 31.78125 74.21875 
Q 42.671875 74.21875 48.875 69.140625 
Q 55.078125 64.0625 55.078125 55.328125 
Q 55.078125 49.078125 51.53125 44.71875 
Q 48 40.375 41.703125 38.8125 
Q 48.828125 37.15625 52.796875 32.3125 
Q 56.78125 27.484375 56.78125 20.515625 
Q 56.78125 9.90625 50.3125 4.234375 
Q 43.84375 -1.421875 31.78125 -1.421875 
Q 19.734375 -1.421875 13.25 4.234375 
Q 6.78125 9.90625 6.78125 20.515625 
Q 6.78125 27.484375 10.78125 32.3125 
Q 14.796875 37.15625 21.921875 38.8125 
z
M 18.3125 54.390625 
Q 18.3125 48.734375 21.84375 45.5625 
Q 25.390625 42.390625 31.78125 42.390625 
Q 38.140625 42.390625 41.71875 45.5625 
Q 45.3125 48.734375 45.3125 54.390625 
Q 45.3125 60.0625 41.71875 63.234375 
Q 38.140625 66.40625 31.78125 66.40625 
Q 25.390625 66.40625 21.84375 63.234375 
Q 18.3125 60.0625 18.3125 54.390625 
z
" id="DejaVuSans-56"/>
     <path d="M 10.6875 12.40625 
L 21 12.40625 
L 21 0 
L 10.6875 0 
z
" id="DejaVuSans-46"/>
     <path d="M 36.71875 67.4375 
L 48.828125 0 
L 39.3125 0 
L 31.84375 40.4375 
L 5.125 0 
L -4.390625 0 
L 29.734375 52.4375 
L 28.03125 62.109375 
Q 26.953125 68.265625 21.734375 68.265625 
L 17.046875 68.265625 
L 18.5 75.984375 
L 24.21875 75.875 
Q 35.203125 75.734375 36.71875 67.4375 
z
" id="DejaVuSans-Oblique-955"/>
     <path d="M 37.796875 64.3125 
L 12.890625 25.390625 
L 37.796875 25.390625 
z
M 35.203125 72.90625 
L 47.609375 72.90625 
L 47.609375 25.390625 
L 58.015625 25.390625 
L 58.015625 17.1875 
L 47.609375 17.1875 
L 47.609375 0 
L 37.796875 0 
L 37.796875 17.1875 
L 4.890625 17.1875 
L 4.890625 26.703125 
z
" id="DejaVuSans-52"/>
    </defs>
    <g transform="translate(70.286582 22.989873)scale(0.1 -0.1)">
     <use transform="translate(0 0.015625)" xlink:href="#DejaVuSans-97"/>
     <use transform="translate(61.279297 0.015625)" xlink:href="#DejaVuSans-41"/>
     <use transform="translate(100.292969 0.015625)" xlink:href="#DejaVuSans-32"/>
     <use transform="translate(132.080078 0.015625)" xlink:href="#DejaVuSans-Oblique-65"/>
     <use transform="translate(200.488281 0.015625)" xlink:href="#DejaVuSans-61"/>
     <use transform="translate(284.277344 0.015625)" xlink:href="#DejaVuSans-32"/>
     <use transform="translate(316.064453 0.015625)" xlink:href="#DejaVuSans-56"/>
     <use transform="translate(379.6875 0.015625)" xlink:href="#DejaVuSans-46"/>
     <use transform="translate(405.974609 0.015625)" xlink:href="#DejaVuSans-50"/>
     <use transform="translate(469.597656 0.015625)" xlink:href="#DejaVuSans-32"/>
     <use transform="translate(501.384766 0.015625)" xlink:href="#DejaVuSans-32"/>
     <use transform="translate(533.171875 0.015625)" xlink:href="#DejaVuSans-Oblique-955"/>
     <use transform="translate(611.833984 0.015625)" xlink:href="#DejaVuSans-61"/>
     <use transform="translate(715.105469 0.015625)" xlink:href="#DejaVuSans-50"/>
     <use transform="translate(778.728516 0.015625)" xlink:href="#DejaVuSans-52"/>
    </g>
   </g>
  </g>
  <g id="axes_2">
   <g id="patch_8">
    <path d="M 208.727089 165.098734 
L 349.992911 165.098734 
L 349.992911 7.2 
L 208.727089 7.2 
z
" style="fill:#ffffff;"/>
   </g>
   <g id="patch_9">
    <path clip-path="url(#p0f4d323966)" d="M 208.727089 165.098734 
L 208.727089 47.118653 
L 215.79038 47.118653 
L 215.79038 105.645421 
L 222.853671 105.645421 
L 222.853671 134.059472 
L 229.916962 134.059472 
L 229.916962 144.972115 
L 236.980253 144.972115 
L 236.980253 148.215023 
L 244.043544 148.215023 
L 244.043544 147.906174 
L 251.106835 147.906174 
L 251.106835 149.553366 
L 258.170127 149.553366 
L 258.170127 152.590375 
L 265.233418 152.590375 
L 265.233418 154.186091 
L 272.296709 154.186091 
L 272.296709 159.17914 
L 279.36 159.17914 
L 279.36 160.723382 
L 286.423291 160.723382 
L 286.423291 162.782371 
L 293.486582 162.782371 
L 293.486582 164.481037 
L 300.549873 164.481037 
L 300.549873 164.481037 
L 307.613165 164.481037 
L 307.613165 164.995785 
L 314.676456 164.995785 
L 314.676456 164.94431 
L 321.739747 164.94431 
L 321.739747 165.047259 
L 328.803038 165.047259 
L 328.803038 165.098734 
L 335.866329 165.098734 
L 335.866329 165.098734 
L 342.92962 165.098734 
L 342.92962 165.098734 
L 349.992911 165.098734 
L 349.992911 165.098734 
" style="fill:none;stroke:#db5f57;stroke-linejoin:miter;"/>
   </g>
   <g id="matplotlib.axis_3">
    <g id="xtick_6">
     <g id="line2d_10">
      <g>
       <use style="stroke:#000000;stroke-width:0.8;" x="208.727089" xlink:href="#me87f7079e3" y="165.098734"/>
      </g>
     </g>
    </g>
    <g id="xtick_7">
     <g id="line2d_11">
      <g>
       <use style="stroke:#000000;stroke-width:0.8;" x="236.980253" xlink:href="#me87f7079e3" y="165.098734"/>
      </g>
     </g>
    </g>
    <g id="xtick_8">
     <g id="line2d_12">
      <g>
       <use style="stroke:#000000;stroke-width:0.8;" x="265.233418" xlink:href="#me87f7079e3" y="165.098734"/>
      </g>
     </g>
    </g>
    <g id="xtick_9">
     <g id="line2d_13">
      <g>
       <use style="stroke:#000000;stroke-width:0.8;" x="293.486582" xlink:href="#me87f7079e3" y="165.098734"/>
      </g>
     </g>
    </g>
    <g id="xtick_10">
     <g id="line2d_14">
      <g>
       <use style="stroke:#000000;stroke-width:0.8;" x="321.739747" xlink:href="#me87f7079e3" y="165.098734"/>
      </g>
     </g>
    </g>
   </g>
   <g id="matplotlib.axis_4">
    <g id="ytick_5">
     <g id="line2d_15">
      <g>
       <use style="stroke:#000000;stroke-width:0.8;" x="208.727089" xlink:href="#m44d2687297" y="165.098734"/>
      </g>
     </g>
    </g>
    <g id="ytick_6">
     <g id="line2d_16">
      <g>
       <use style="stroke:#000000;stroke-width:0.8;" x="208.727089" xlink:href="#m44d2687297" y="125.624051"/>
      </g>
     </g>
    </g>
    <g id="ytick_7">
     <g id="line2d_17">
      <g>
       <use style="stroke:#000000;stroke-width:0.8;" x="208.727089" xlink:href="#m44d2687297" y="86.149367"/>
      </g>
     </g>
    </g>
    <g id="ytick_8">
     <g id="line2d_18">
      <g>
       <use style="stroke:#000000;stroke-width:0.8;" x="208.727089" xlink:href="#m44d2687297" y="46.674684"/>
      </g>
     </g>
    </g>
   </g>
   <g id="patch_10">
    <path d="M 208.727089 165.098734 
L 208.727089 7.2 
" style="fill:none;stroke:#000000;stroke-linecap:square;stroke-linejoin:miter;stroke-width:0.8;"/>
   </g>
   <g id="patch_11">
    <path d="M 349.992911 165.098734 
L 349.992911 7.2 
" style="fill:none;stroke:#000000;stroke-linecap:square;stroke-linejoin:miter;stroke-width:0.8;"/>
   </g>
   <g id="patch_12">
    <path d="M 208.727089 165.098734 
L 349.992911 165.098734 
" style="fill:none;stroke:#000000;stroke-linecap:square;stroke-linejoin:miter;stroke-width:0.8;"/>
   </g>
   <g id="patch_13">
    <path d="M 208.727089 7.2 
L 349.992911 7.2 
" style="fill:none;stroke:#000000;stroke-linecap:square;stroke-linejoin:miter;stroke-width:0.8;"/>
   </g>
   <g id="text_6">
    <!-- b) $A$= 8.4  $\lambda=$27 -->
    <defs>
     <path d="M 48.6875 27.296875 
Q 48.6875 37.203125 44.609375 42.84375 
Q 40.53125 48.484375 33.40625 48.484375 
Q 26.265625 48.484375 22.1875 42.84375 
Q 18.109375 37.203125 18.109375 27.296875 
Q 18.109375 17.390625 22.1875 11.75 
Q 26.265625 6.109375 33.40625 6.109375 
Q 40.53125 6.109375 44.609375 11.75 
Q 48.6875 17.390625 48.6875 27.296875 
z
M 18.109375 46.390625 
Q 20.953125 51.265625 25.265625 53.625 
Q 29.59375 56 35.59375 56 
Q 45.5625 56 51.78125 48.09375 
Q 58.015625 40.1875 58.015625 27.296875 
Q 58.015625 14.40625 51.78125 6.484375 
Q 45.5625 -1.421875 35.59375 -1.421875 
Q 29.59375 -1.421875 25.265625 0.953125 
Q 20.953125 3.328125 18.109375 8.203125 
L 18.109375 0 
L 9.078125 0 
L 9.078125 75.984375 
L 18.109375 75.984375 
z
" id="DejaVuSans-98"/>
     <path d="M 8.203125 72.90625 
L 55.078125 72.90625 
L 55.078125 68.703125 
L 28.609375 0 
L 18.3125 0 
L 43.21875 64.59375 
L 8.203125 64.59375 
z
" id="DejaVuSans-55"/>
    </defs>
    <g transform="translate(222.853671 22.989873)scale(0.1 -0.1)">
     <use transform="translate(0 0.015625)" xlink:href="#DejaVuSans-98"/>
     <use transform="translate(63.476562 0.015625)" xlink:href="#DejaVuSans-41"/>
     <use transform="translate(102.490234 0.015625)" xlink:href="#DejaVuSans-32"/>
     <use transform="translate(134.277344 0.015625)" xlink:href="#DejaVuSans-Oblique-65"/>
     <use transform="translate(202.685547 0.015625)" xlink:href="#DejaVuSans-61"/>
     <use transform="translate(286.474609 0.015625)" xlink:href="#DejaVuSans-32"/>
     <use transform="translate(318.261719 0.015625)" xlink:href="#DejaVuSans-56"/>
     <use transform="translate(381.884766 0.015625)" xlink:href="#DejaVuSans-46"/>
     <use transform="translate(413.671875 0.015625)" xlink:href="#DejaVuSans-52"/>
     <use transform="translate(477.294922 0.015625)" xlink:href="#DejaVuSans-32"/>
     <use transform="translate(509.082031 0.015625)" xlink:href="#DejaVuSans-32"/>
     <use transform="translate(540.869141 0.015625)" xlink:href="#DejaVuSans-Oblique-955"/>
     <use transform="translate(619.53125 0.015625)" xlink:href="#DejaVuSans-61"/>
     <use transform="translate(722.802734 0.015625)" xlink:href="#DejaVuSans-50"/>
     <use transform="translate(786.425781 0.015625)" xlink:href="#DejaVuSans-55"/>
    </g>
   </g>
  </g>
  <g id="axes_3">
   <g id="patch_14">
    <path d="M 361.294177 165.098734 
L 502.56 165.098734 
L 502.56 7.2 
L 361.294177 7.2 
z
" style="fill:#ffffff;"/>
   </g>
   <g id="patch_15">
    <path clip-path="url(#p0303ebd28d)" d="M 361.294177 165.098734 
L 361.294177 119.435775 
L 368.357468 119.435775 
L 368.357468 123.21388 
L 375.420759 123.21388 
L 375.420759 131.356348 
L 382.484051 131.356348 
L 382.484051 129.206736 
L 389.547342 129.206736 
L 389.547342 132.528863 
L 396.610633 132.528863 
L 396.610633 134.548195 
L 403.673924 134.548195 
L 403.673924 136.437248 
L 410.737215 136.437248 
L 410.737215 143.34206 
L 417.800506 143.34206 
L 417.800506 145.165973 
L 424.863797 145.165973 
L 424.863797 151.745087 
L 431.927089 151.745087 
L 431.927089 157.998502 
L 438.99038 157.998502 
L 438.99038 161.906887 
L 446.053671 161.906887 
L 446.053671 164.186778 
L 453.116962 164.186778 
L 453.116962 164.707896 
L 460.180253 164.707896 
L 460.180253 164.968455 
L 467.243544 164.968455 
L 467.243544 165.098734 
L 474.306835 165.098734 
L 474.306835 165.033594 
L 481.370127 165.033594 
L 481.370127 165.098734 
L 488.433418 165.098734 
L 488.433418 165.098734 
L 495.496709 165.098734 
L 495.496709 165.098734 
L 502.56 165.098734 
L 502.56 165.098734 
" style="fill:none;stroke:#db5f57;stroke-linejoin:miter;"/>
   </g>
   <g id="matplotlib.axis_5">
    <g id="xtick_11">
     <g id="line2d_19">
      <g>
       <use style="stroke:#000000;stroke-width:0.8;" x="361.294177" xlink:href="#me87f7079e3" y="165.098734"/>
      </g>
     </g>
    </g>
    <g id="xtick_12">
     <g id="line2d_20">
      <g>
       <use style="stroke:#000000;stroke-width:0.8;" x="389.547342" xlink:href="#me87f7079e3" y="165.098734"/>
      </g>
     </g>
    </g>
    <g id="xtick_13">
     <g id="line2d_21">
      <g>
       <use style="stroke:#000000;stroke-width:0.8;" x="417.800506" xlink:href="#me87f7079e3" y="165.098734"/>
      </g>
     </g>
    </g>
    <g id="xtick_14">
     <g id="line2d_22">
      <g>
       <use style="stroke:#000000;stroke-width:0.8;" x="446.053671" xlink:href="#me87f7079e3" y="165.098734"/>
      </g>
     </g>
    </g>
    <g id="xtick_15">
     <g id="line2d_23">
      <g>
       <use style="stroke:#000000;stroke-width:0.8;" x="474.306835" xlink:href="#me87f7079e3" y="165.098734"/>
      </g>
     </g>
    </g>
   </g>
   <g id="matplotlib.axis_6">
    <g id="ytick_9">
     <g id="line2d_24">
      <g>
       <use style="stroke:#000000;stroke-width:0.8;" x="361.294177" xlink:href="#m44d2687297" y="165.098734"/>
      </g>
     </g>
    </g>
    <g id="ytick_10">
     <g id="line2d_25">
      <g>
       <use style="stroke:#000000;stroke-width:0.8;" x="361.294177" xlink:href="#m44d2687297" y="125.624051"/>
      </g>
     </g>
    </g>
    <g id="ytick_11">
     <g id="line2d_26">
      <g>
       <use style="stroke:#000000;stroke-width:0.8;" x="361.294177" xlink:href="#m44d2687297" y="86.149367"/>
      </g>
     </g>
    </g>
    <g id="ytick_12">
     <g id="line2d_27">
      <g>
       <use style="stroke:#000000;stroke-width:0.8;" x="361.294177" xlink:href="#m44d2687297" y="46.674684"/>
      </g>
     </g>
    </g>
   </g>
   <g id="patch_16">
    <path d="M 361.294177 165.098734 
L 361.294177 7.2 
" style="fill:none;stroke:#000000;stroke-linecap:square;stroke-linejoin:miter;stroke-width:0.8;"/>
   </g>
   <g id="patch_17">
    <path d="M 502.56 165.098734 
L 502.56 7.2 
" style="fill:none;stroke:#000000;stroke-linecap:square;stroke-linejoin:miter;stroke-width:0.8;"/>
   </g>
   <g id="patch_18">
    <path d="M 361.294177 165.098734 
L 502.56 165.098734 
" style="fill:none;stroke:#000000;stroke-linecap:square;stroke-linejoin:miter;stroke-width:0.8;"/>
   </g>
   <g id="patch_19">
    <path d="M 361.294177 7.2 
L 502.56 7.2 
" style="fill:none;stroke:#000000;stroke-linecap:square;stroke-linejoin:miter;stroke-width:0.8;"/>
   </g>
   <g id="text_7">
    <!-- c) $A$= 8.5  $\lambda=$30 -->
    <defs>
     <path d="M 48.78125 52.59375 
L 48.78125 44.1875 
Q 44.96875 46.296875 41.140625 47.34375 
Q 37.3125 48.390625 33.40625 48.390625 
Q 24.65625 48.390625 19.8125 42.84375 
Q 14.984375 37.3125 14.984375 27.296875 
Q 14.984375 17.28125 19.8125 11.734375 
Q 24.65625 6.203125 33.40625 6.203125 
Q 37.3125 6.203125 41.140625 7.25 
Q 44.96875 8.296875 48.78125 10.40625 
L 48.78125 2.09375 
Q 45.015625 0.34375 40.984375 -0.53125 
Q 36.96875 -1.421875 32.421875 -1.421875 
Q 20.0625 -1.421875 12.78125 6.34375 
Q 5.515625 14.109375 5.515625 27.296875 
Q 5.515625 40.671875 12.859375 48.328125 
Q 20.21875 56 33.015625 56 
Q 37.15625 56 41.109375 55.140625 
Q 45.0625 54.296875 48.78125 52.59375 
z
" id="DejaVuSans-99"/>
     <path d="M 10.796875 72.90625 
L 49.515625 72.90625 
L 49.515625 64.59375 
L 19.828125 64.59375 
L 19.828125 46.734375 
Q 21.96875 47.46875 24.109375 47.828125 
Q 26.265625 48.1875 28.421875 48.1875 
Q 40.625 48.1875 47.75 41.5 
Q 54.890625 34.8125 54.890625 23.390625 
Q 54.890625 11.625 47.5625 5.09375 
Q 40.234375 -1.421875 26.90625 -1.421875 
Q 22.3125 -1.421875 17.546875 -0.640625 
Q 12.796875 0.140625 7.71875 1.703125 
L 7.71875 11.625 
Q 12.109375 9.234375 16.796875 8.0625 
Q 21.484375 6.890625 26.703125 6.890625 
Q 35.15625 6.890625 40.078125 11.328125 
Q 45.015625 15.765625 45.015625 23.390625 
Q 45.015625 31 40.078125 35.4375 
Q 35.15625 39.890625 26.703125 39.890625 
Q 22.75 39.890625 18.8125 39.015625 
Q 14.890625 38.140625 10.796875 36.28125 
z
" id="DejaVuSans-53"/>
    </defs>
    <g transform="translate(375.420759 22.989873)scale(0.1 -0.1)">
     <use transform="translate(0 0.015625)" xlink:href="#DejaVuSans-99"/>
     <use transform="translate(54.980469 0.015625)" xlink:href="#DejaVuSans-41"/>
     <use transform="translate(93.994141 0.015625)" xlink:href="#DejaVuSans-32"/>
     <use transform="translate(125.78125 0.015625)" xlink:href="#DejaVuSans-Oblique-65"/>
     <use transform="translate(194.189453 0.015625)" xlink:href="#DejaVuSans-61"/>
     <use transform="translate(277.978516 0.015625)" xlink:href="#DejaVuSans-32"/>
     <use transform="translate(309.765625 0.015625)" xlink:href="#DejaVuSans-56"/>
     <use transform="translate(373.388672 0.015625)" xlink:href="#DejaVuSans-46"/>
     <use transform="translate(405.175781 0.015625)" xlink:href="#DejaVuSans-53"/>
     <use transform="translate(468.798828 0.015625)" xlink:href="#DejaVuSans-32"/>
     <use transform="translate(500.585938 0.015625)" xlink:href="#DejaVuSans-32"/>
     <use transform="translate(532.373047 0.015625)" xlink:href="#DejaVuSans-Oblique-955"/>
     <use transform="translate(611.035156 0.015625)" xlink:href="#DejaVuSans-61"/>
     <use transform="translate(714.306641 0.015625)" xlink:href="#DejaVuSans-51"/>
     <use transform="translate(777.929688 0.015625)" xlink:href="#DejaVuSans-48"/>
    </g>
   </g>
  </g>
  <g id="axes_4">
   <g id="patch_20">
    <path d="M 56.16 335.629367 
L 197.425823 335.629367 
L 197.425823 177.730633 
L 56.16 177.730633 
z
" style="fill:#ffffff;"/>
   </g>
   <g id="patch_21">
    <path clip-path="url(#p4c1fff0fe0)" d="M 56.16 335.629367 
L 56.16 195.064312 
L 63.223291 195.064312 
L 63.223291 283.972111 
L 70.286582 283.972111 
L 70.286582 313.447398 
L 77.349873 313.447398 
L 77.349873 317.958332 
L 84.413165 317.958332 
L 84.413165 320.702161 
L 91.476456 320.702161 
L 91.476456 321.209802 
L 98.539747 321.209802 
L 98.539747 322.360026 
L 105.603038 322.360026 
L 105.603038 323.009035 
L 112.666329 323.009035 
L 112.666329 324.885378 
L 119.72962 324.885378 
L 119.72962 328.130422 
L 126.792911 328.130422 
L 126.792911 330.604367 
L 133.856203 330.604367 
L 133.856203 333.007628 
L 140.919494 333.007628 
L 140.919494 334.267091 
L 147.982785 334.267091 
L 147.982785 335.063894 
L 155.046076 335.063894 
L 155.046076 335.282372 
L 162.109367 335.282372 
L 162.109367 335.475147 
L 169.172658 335.475147 
L 169.172658 335.552257 
L 176.235949 335.552257 
L 176.235949 335.571535 
L 183.299241 335.571535 
L 183.299241 335.61009 
L 190.362532 335.61009 
L 190.362532 335.616515 
L 197.425823 335.616515 
L 197.425823 335.629367 
" style="fill:none;stroke:#db5f57;stroke-linejoin:miter;"/>
   </g>
   <g id="matplotlib.axis_7">
    <g id="xtick_16">
     <g id="line2d_28">
      <g>
       <use style="stroke:#000000;stroke-width:0.8;" x="56.16" xlink:href="#me87f7079e3" y="335.629367"/>
      </g>
     </g>
    </g>
    <g id="xtick_17">
     <g id="line2d_29">
      <g>
       <use style="stroke:#000000;stroke-width:0.8;" x="84.413165" xlink:href="#me87f7079e3" y="335.629367"/>
      </g>
     </g>
    </g>
    <g id="xtick_18">
     <g id="line2d_30">
      <g>
       <use style="stroke:#000000;stroke-width:0.8;" x="112.666329" xlink:href="#me87f7079e3" y="335.629367"/>
      </g>
     </g>
    </g>
    <g id="xtick_19">
     <g id="line2d_31">
      <g>
       <use style="stroke:#000000;stroke-width:0.8;" x="140.919494" xlink:href="#me87f7079e3" y="335.629367"/>
      </g>
     </g>
    </g>
    <g id="xtick_20">
     <g id="line2d_32">
      <g>
       <use style="stroke:#000000;stroke-width:0.8;" x="169.172658" xlink:href="#me87f7079e3" y="335.629367"/>
      </g>
     </g>
    </g>
   </g>
   <g id="matplotlib.axis_8">
    <g id="ytick_13">
     <g id="line2d_33">
      <g>
       <use style="stroke:#000000;stroke-width:0.8;" x="56.16" xlink:href="#m44d2687297" y="335.629367"/>
      </g>
     </g>
     <g id="text_8">
      <!-- 0 -->
      <g transform="translate(40.2975 339.428586)scale(0.1 -0.1)">
       <use xlink:href="#DejaVuSans-48"/>
      </g>
     </g>
    </g>
    <g id="ytick_14">
     <g id="line2d_34">
      <g>
       <use style="stroke:#000000;stroke-width:0.8;" x="56.16" xlink:href="#m44d2687297" y="296.154684"/>
      </g>
     </g>
     <g id="text_9">
      <!-- 1 -->
      <g transform="translate(40.2975 299.953902)scale(0.1 -0.1)">
       <use xlink:href="#DejaVuSans-49"/>
      </g>
     </g>
    </g>
    <g id="ytick_15">
     <g id="line2d_35">
      <g>
       <use style="stroke:#000000;stroke-width:0.8;" x="56.16" xlink:href="#m44d2687297" y="256.68"/>
      </g>
     </g>
     <g id="text_10">
      <!-- 2 -->
      <g transform="translate(40.2975 260.479219)scale(0.1 -0.1)">
       <use xlink:href="#DejaVuSans-50"/>
      </g>
     </g>
    </g>
    <g id="ytick_16">
     <g id="line2d_36">
      <g>
       <use style="stroke:#000000;stroke-width:0.8;" x="56.16" xlink:href="#m44d2687297" y="217.205316"/>
      </g>
     </g>
     <g id="text_11">
      <!-- 3 -->
      <g transform="translate(40.2975 221.004535)scale(0.1 -0.1)">
       <use xlink:href="#DejaVuSans-51"/>
      </g>
     </g>
    </g>
   </g>
   <g id="patch_22">
    <path d="M 56.16 335.629367 
L 56.16 177.730633 
" style="fill:none;stroke:#000000;stroke-linecap:square;stroke-linejoin:miter;stroke-width:0.8;"/>
   </g>
   <g id="patch_23">
    <path d="M 197.425823 335.629367 
L 197.425823 177.730633 
" style="fill:none;stroke:#000000;stroke-linecap:square;stroke-linejoin:miter;stroke-width:0.8;"/>
   </g>
   <g id="patch_24">
    <path d="M 56.16 335.629367 
L 197.425823 335.629367 
" style="fill:none;stroke:#000000;stroke-linecap:square;stroke-linejoin:miter;stroke-width:0.8;"/>
   </g>
   <g id="patch_25">
    <path d="M 56.16 177.730633 
L 197.425823 177.730633 
" style="fill:none;stroke:#000000;stroke-linecap:square;stroke-linejoin:miter;stroke-width:0.8;"/>
   </g>
   <g id="text_12">
    <!-- d) $A$= 5.5  $\lambda=$24 -->
    <defs>
     <path d="M 45.40625 46.390625 
L 45.40625 75.984375 
L 54.390625 75.984375 
L 54.390625 0 
L 45.40625 0 
L 45.40625 8.203125 
Q 42.578125 3.328125 38.25 0.953125 
Q 33.9375 -1.421875 27.875 -1.421875 
Q 17.96875 -1.421875 11.734375 6.484375 
Q 5.515625 14.40625 5.515625 27.296875 
Q 5.515625 40.1875 11.734375 48.09375 
Q 17.96875 56 27.875 56 
Q 33.9375 56 38.25 53.625 
Q 42.578125 51.265625 45.40625 46.390625 
z
M 14.796875 27.296875 
Q 14.796875 17.390625 18.875 11.75 
Q 22.953125 6.109375 30.078125 6.109375 
Q 37.203125 6.109375 41.296875 11.75 
Q 45.40625 17.390625 45.40625 27.296875 
Q 45.40625 37.203125 41.296875 42.84375 
Q 37.203125 48.484375 30.078125 48.484375 
Q 22.953125 48.484375 18.875 42.84375 
Q 14.796875 37.203125 14.796875 27.296875 
z
" id="DejaVuSans-100"/>
    </defs>
    <g transform="translate(70.286582 193.520506)scale(0.1 -0.1)">
     <use transform="translate(0 0.015625)" xlink:href="#DejaVuSans-100"/>
     <use transform="translate(63.476562 0.015625)" xlink:href="#DejaVuSans-41"/>
     <use transform="translate(102.490234 0.015625)" xlink:href="#DejaVuSans-32"/>
     <use transform="translate(134.277344 0.015625)" xlink:href="#DejaVuSans-Oblique-65"/>
     <use transform="translate(202.685547 0.015625)" xlink:href="#DejaVuSans-61"/>
     <use transform="translate(286.474609 0.015625)" xlink:href="#DejaVuSans-32"/>
     <use transform="translate(318.261719 0.015625)" xlink:href="#DejaVuSans-53"/>
     <use transform="translate(381.884766 0.015625)" xlink:href="#DejaVuSans-46"/>
     <use transform="translate(413.671875 0.015625)" xlink:href="#DejaVuSans-53"/>
     <use transform="translate(477.294922 0.015625)" xlink:href="#DejaVuSans-32"/>
     <use transform="translate(509.082031 0.015625)" xlink:href="#DejaVuSans-32"/>
     <use transform="translate(540.869141 0.015625)" xlink:href="#DejaVuSans-Oblique-955"/>
     <use transform="translate(619.53125 0.015625)" xlink:href="#DejaVuSans-61"/>
     <use transform="translate(722.802734 0.015625)" xlink:href="#DejaVuSans-50"/>
     <use transform="translate(786.425781 0.015625)" xlink:href="#DejaVuSans-52"/>
    </g>
   </g>
  </g>
  <g id="axes_5">
   <g id="patch_26">
    <path d="M 208.727089 335.629367 
L 349.992911 335.629367 
L 349.992911 177.730633 
L 208.727089 177.730633 
z
" style="fill:#ffffff;"/>
   </g>
   <g id="patch_27">
    <path clip-path="url(#p9165497622)" d="M 208.727089 335.629367 
L 208.727089 278.556912 
L 215.79038 278.556912 
L 215.79038 298.384804 
L 222.853671 298.384804 
L 222.853671 307.719229 
L 229.916962 307.719229 
L 229.916962 308.795482 
L 236.980253 308.795482 
L 236.980253 309.406049 
L 244.043544 309.406049 
L 244.043544 309.426746 
L 251.106835 309.426746 
L 251.106835 310.440907 
L 258.170127 310.440907 
L 258.170127 310.585788 
L 265.233418 310.585788 
L 265.233418 312.46923 
L 272.296709 312.46923 
L 272.296709 317.4469 
L 279.36 317.4469 
L 279.36 323.873373 
L 286.423291 323.873373 
L 286.423291 329.409867 
L 293.486582 329.409867 
L 293.486582 332.980129 
L 300.549873 332.980129 
L 300.549873 334.449628 
L 307.613165 334.449628 
L 307.613165 335.132635 
L 314.676456 335.132635 
L 314.676456 335.401698 
L 321.739747 335.401698 
L 321.739747 335.53623 
L 328.803038 335.53623 
L 328.803038 335.577624 
L 335.866329 335.577624 
L 335.866329 335.567276 
L 342.92962 335.567276 
L 342.92962 335.629367 
L 349.992911 335.629367 
L 349.992911 335.629367 
" style="fill:none;stroke:#db5f57;stroke-linejoin:miter;"/>
   </g>
   <g id="matplotlib.axis_9">
    <g id="xtick_21">
     <g id="line2d_37">
      <g>
       <use style="stroke:#000000;stroke-width:0.8;" x="208.727089" xlink:href="#me87f7079e3" y="335.629367"/>
      </g>
     </g>
    </g>
    <g id="xtick_22">
     <g id="line2d_38">
      <g>
       <use style="stroke:#000000;stroke-width:0.8;" x="236.980253" xlink:href="#me87f7079e3" y="335.629367"/>
      </g>
     </g>
    </g>
    <g id="xtick_23">
     <g id="line2d_39">
      <g>
       <use style="stroke:#000000;stroke-width:0.8;" x="265.233418" xlink:href="#me87f7079e3" y="335.629367"/>
      </g>
     </g>
    </g>
    <g id="xtick_24">
     <g id="line2d_40">
      <g>
       <use style="stroke:#000000;stroke-width:0.8;" x="293.486582" xlink:href="#me87f7079e3" y="335.629367"/>
      </g>
     </g>
    </g>
    <g id="xtick_25">
     <g id="line2d_41">
      <g>
       <use style="stroke:#000000;stroke-width:0.8;" x="321.739747" xlink:href="#me87f7079e3" y="335.629367"/>
      </g>
     </g>
    </g>
   </g>
   <g id="matplotlib.axis_10">
    <g id="ytick_17">
     <g id="line2d_42">
      <g>
       <use style="stroke:#000000;stroke-width:0.8;" x="208.727089" xlink:href="#m44d2687297" y="335.629367"/>
      </g>
     </g>
    </g>
    <g id="ytick_18">
     <g id="line2d_43">
      <g>
       <use style="stroke:#000000;stroke-width:0.8;" x="208.727089" xlink:href="#m44d2687297" y="296.154684"/>
      </g>
     </g>
    </g>
    <g id="ytick_19">
     <g id="line2d_44">
      <g>
       <use style="stroke:#000000;stroke-width:0.8;" x="208.727089" xlink:href="#m44d2687297" y="256.68"/>
      </g>
     </g>
    </g>
    <g id="ytick_20">
     <g id="line2d_45">
      <g>
       <use style="stroke:#000000;stroke-width:0.8;" x="208.727089" xlink:href="#m44d2687297" y="217.205316"/>
      </g>
     </g>
    </g>
   </g>
   <g id="patch_28">
    <path d="M 208.727089 335.629367 
L 208.727089 177.730633 
" style="fill:none;stroke:#000000;stroke-linecap:square;stroke-linejoin:miter;stroke-width:0.8;"/>
   </g>
   <g id="patch_29">
    <path d="M 349.992911 335.629367 
L 349.992911 177.730633 
" style="fill:none;stroke:#000000;stroke-linecap:square;stroke-linejoin:miter;stroke-width:0.8;"/>
   </g>
   <g id="patch_30">
    <path d="M 208.727089 335.629367 
L 349.992911 335.629367 
" style="fill:none;stroke:#000000;stroke-linecap:square;stroke-linejoin:miter;stroke-width:0.8;"/>
   </g>
   <g id="patch_31">
    <path d="M 208.727089 177.730633 
L 349.992911 177.730633 
" style="fill:none;stroke:#000000;stroke-linecap:square;stroke-linejoin:miter;stroke-width:0.8;"/>
   </g>
   <g id="text_13">
    <!-- e) $A$= 5.6  $\lambda=$27 -->
    <defs>
     <path d="M 56.203125 29.59375 
L 56.203125 25.203125 
L 14.890625 25.203125 
Q 15.484375 15.921875 20.484375 11.0625 
Q 25.484375 6.203125 34.421875 6.203125 
Q 39.59375 6.203125 44.453125 7.46875 
Q 49.3125 8.734375 54.109375 11.28125 
L 54.109375 2.78125 
Q 49.265625 0.734375 44.1875 -0.34375 
Q 39.109375 -1.421875 33.890625 -1.421875 
Q 20.796875 -1.421875 13.15625 6.1875 
Q 5.515625 13.8125 5.515625 26.8125 
Q 5.515625 40.234375 12.765625 48.109375 
Q 20.015625 56 32.328125 56 
Q 43.359375 56 49.78125 48.890625 
Q 56.203125 41.796875 56.203125 29.59375 
z
M 47.21875 32.234375 
Q 47.125 39.59375 43.09375 43.984375 
Q 39.0625 48.390625 32.421875 48.390625 
Q 24.90625 48.390625 20.390625 44.140625 
Q 15.875 39.890625 15.1875 32.171875 
z
" id="DejaVuSans-101"/>
     <path d="M 33.015625 40.375 
Q 26.375 40.375 22.484375 35.828125 
Q 18.609375 31.296875 18.609375 23.390625 
Q 18.609375 15.53125 22.484375 10.953125 
Q 26.375 6.390625 33.015625 6.390625 
Q 39.65625 6.390625 43.53125 10.953125 
Q 47.40625 15.53125 47.40625 23.390625 
Q 47.40625 31.296875 43.53125 35.828125 
Q 39.65625 40.375 33.015625 40.375 
z
M 52.59375 71.296875 
L 52.59375 62.3125 
Q 48.875 64.0625 45.09375 64.984375 
Q 41.3125 65.921875 37.59375 65.921875 
Q 27.828125 65.921875 22.671875 59.328125 
Q 17.53125 52.734375 16.796875 39.40625 
Q 19.671875 43.65625 24.015625 45.921875 
Q 28.375 48.1875 33.59375 48.1875 
Q 44.578125 48.1875 50.953125 41.515625 
Q 57.328125 34.859375 57.328125 23.390625 
Q 57.328125 12.15625 50.6875 5.359375 
Q 44.046875 -1.421875 33.015625 -1.421875 
Q 20.359375 -1.421875 13.671875 8.265625 
Q 6.984375 17.96875 6.984375 36.375 
Q 6.984375 53.65625 15.1875 63.9375 
Q 23.390625 74.21875 37.203125 74.21875 
Q 40.921875 74.21875 44.703125 73.484375 
Q 48.484375 72.75 52.59375 71.296875 
z
" id="DejaVuSans-54"/>
    </defs>
    <g transform="translate(222.853671 193.520506)scale(0.1 -0.1)">
     <use transform="translate(0 0.015625)" xlink:href="#DejaVuSans-101"/>
     <use transform="translate(61.523438 0.015625)" xlink:href="#DejaVuSans-41"/>
     <use transform="translate(100.537109 0.015625)" xlink:href="#DejaVuSans-32"/>
     <use transform="translate(132.324219 0.015625)" xlink:href="#DejaVuSans-Oblique-65"/>
     <use transform="translate(200.732422 0.015625)" xlink:href="#DejaVuSans-61"/>
     <use transform="translate(284.521484 0.015625)" xlink:href="#DejaVuSans-32"/>
     <use transform="translate(316.308594 0.015625)" xlink:href="#DejaVuSans-53"/>
     <use transform="translate(379.931641 0.015625)" xlink:href="#DejaVuSans-46"/>
     <use transform="translate(411.71875 0.015625)" xlink:href="#DejaVuSans-54"/>
     <use transform="translate(475.341797 0.015625)" xlink:href="#DejaVuSans-32"/>
     <use transform="translate(507.128906 0.015625)" xlink:href="#DejaVuSans-32"/>
     <use transform="translate(538.916016 0.015625)" xlink:href="#DejaVuSans-Oblique-955"/>
     <use transform="translate(617.578125 0.015625)" xlink:href="#DejaVuSans-61"/>
     <use transform="translate(720.849609 0.015625)" xlink:href="#DejaVuSans-50"/>
     <use transform="translate(784.472656 0.015625)" xlink:href="#DejaVuSans-55"/>
    </g>
   </g>
  </g>
  <g id="axes_6">
   <g id="patch_32">
    <path d="M 361.294177 335.629367 
L 502.56 335.629367 
L 502.56 177.730633 
L 361.294177 177.730633 
z
" style="fill:#ffffff;"/>
   </g>
   <g id="patch_33">
    <path clip-path="url(#paa3522e913)" d="M 361.294177 335.629367 
L 361.294177 297.124617 
L 368.357468 297.124617 
L 368.357468 313.215964 
L 375.420759 313.215964 
L 375.420759 307.987866 
L 382.484051 307.987866 
L 382.484051 303.879166 
L 389.547342 303.879166 
L 389.547342 301.029789 
L 396.610633 301.029789 
L 396.610633 302.683446 
L 403.673924 302.683446 
L 403.673924 303.154102 
L 410.737215 303.154102 
L 410.737215 304.642392 
L 417.800506 304.642392 
L 417.800506 309.819609 
L 424.863797 309.819609 
L 424.863797 317.146578 
L 431.927089 317.146578 
L 431.927089 324.371784 
L 438.99038 324.371784 
L 438.99038 330.363108 
L 446.053671 330.363108 
L 446.053671 333.225205 
L 453.116962 333.225205 
L 453.116962 334.82798 
L 460.180253 334.82798 
L 460.180253 335.336797 
L 467.243544 335.336797 
L 467.243544 335.527604 
L 474.306835 335.527604 
L 474.306835 335.603926 
L 481.370127 335.603926 
L 481.370127 335.591206 
L 488.433418 335.591206 
L 488.433418 335.629367 
L 495.496709 335.629367 
L 495.496709 335.629367 
L 502.56 335.629367 
L 502.56 335.629367 
" style="fill:none;stroke:#db5f57;stroke-linejoin:miter;"/>
   </g>
   <g id="matplotlib.axis_11">
    <g id="xtick_26">
     <g id="line2d_46">
      <g>
       <use style="stroke:#000000;stroke-width:0.8;" x="361.294177" xlink:href="#me87f7079e3" y="335.629367"/>
      </g>
     </g>
    </g>
    <g id="xtick_27">
     <g id="line2d_47">
      <g>
       <use style="stroke:#000000;stroke-width:0.8;" x="389.547342" xlink:href="#me87f7079e3" y="335.629367"/>
      </g>
     </g>
    </g>
    <g id="xtick_28">
     <g id="line2d_48">
      <g>
       <use style="stroke:#000000;stroke-width:0.8;" x="417.800506" xlink:href="#me87f7079e3" y="335.629367"/>
      </g>
     </g>
    </g>
    <g id="xtick_29">
     <g id="line2d_49">
      <g>
       <use style="stroke:#000000;stroke-width:0.8;" x="446.053671" xlink:href="#me87f7079e3" y="335.629367"/>
      </g>
     </g>
    </g>
    <g id="xtick_30">
     <g id="line2d_50">
      <g>
       <use style="stroke:#000000;stroke-width:0.8;" x="474.306835" xlink:href="#me87f7079e3" y="335.629367"/>
      </g>
     </g>
    </g>
   </g>
   <g id="matplotlib.axis_12">
    <g id="ytick_21">
     <g id="line2d_51">
      <g>
       <use style="stroke:#000000;stroke-width:0.8;" x="361.294177" xlink:href="#m44d2687297" y="335.629367"/>
      </g>
     </g>
    </g>
    <g id="ytick_22">
     <g id="line2d_52">
      <g>
       <use style="stroke:#000000;stroke-width:0.8;" x="361.294177" xlink:href="#m44d2687297" y="296.154684"/>
      </g>
     </g>
    </g>
    <g id="ytick_23">
     <g id="line2d_53">
      <g>
       <use style="stroke:#000000;stroke-width:0.8;" x="361.294177" xlink:href="#m44d2687297" y="256.68"/>
      </g>
     </g>
    </g>
    <g id="ytick_24">
     <g id="line2d_54">
      <g>
       <use style="stroke:#000000;stroke-width:0.8;" x="361.294177" xlink:href="#m44d2687297" y="217.205316"/>
      </g>
     </g>
    </g>
   </g>
   <g id="patch_34">
    <path d="M 361.294177 335.629367 
L 361.294177 177.730633 
" style="fill:none;stroke:#000000;stroke-linecap:square;stroke-linejoin:miter;stroke-width:0.8;"/>
   </g>
   <g id="patch_35">
    <path d="M 502.56 335.629367 
L 502.56 177.730633 
" style="fill:none;stroke:#000000;stroke-linecap:square;stroke-linejoin:miter;stroke-width:0.8;"/>
   </g>
   <g id="patch_36">
    <path d="M 361.294177 335.629367 
L 502.56 335.629367 
" style="fill:none;stroke:#000000;stroke-linecap:square;stroke-linejoin:miter;stroke-width:0.8;"/>
   </g>
   <g id="patch_37">
    <path d="M 361.294177 177.730633 
L 502.56 177.730633 
" style="fill:none;stroke:#000000;stroke-linecap:square;stroke-linejoin:miter;stroke-width:0.8;"/>
   </g>
   <g id="text_14">
    <!-- f) $A$= 5.7  $\lambda=$30 -->
    <defs>
     <path d="M 37.109375 75.984375 
L 37.109375 68.5 
L 28.515625 68.5 
Q 23.6875 68.5 21.796875 66.546875 
Q 19.921875 64.59375 19.921875 59.515625 
L 19.921875 54.6875 
L 34.71875 54.6875 
L 34.71875 47.703125 
L 19.921875 47.703125 
L 19.921875 0 
L 10.890625 0 
L 10.890625 47.703125 
L 2.296875 47.703125 
L 2.296875 54.6875 
L 10.890625 54.6875 
L 10.890625 58.5 
Q 10.890625 67.625 15.140625 71.796875 
Q 19.390625 75.984375 28.609375 75.984375 
z
" id="DejaVuSans-102"/>
    </defs>
    <g transform="translate(375.420759 193.520506)scale(0.1 -0.1)">
     <use transform="translate(0 0.015625)" xlink:href="#DejaVuSans-102"/>
     <use transform="translate(35.205078 0.015625)" xlink:href="#DejaVuSans-41"/>
     <use transform="translate(74.21875 0.015625)" xlink:href="#DejaVuSans-32"/>
     <use transform="translate(106.005859 0.015625)" xlink:href="#DejaVuSans-Oblique-65"/>
     <use transform="translate(174.414062 0.015625)" xlink:href="#DejaVuSans-61"/>
     <use transform="translate(258.203125 0.015625)" xlink:href="#DejaVuSans-32"/>
     <use transform="translate(289.990234 0.015625)" xlink:href="#DejaVuSans-53"/>
     <use transform="translate(353.613281 0.015625)" xlink:href="#DejaVuSans-46"/>
     <use transform="translate(377.650391 0.015625)" xlink:href="#DejaVuSans-55"/>
     <use transform="translate(441.273438 0.015625)" xlink:href="#DejaVuSans-32"/>
     <use transform="translate(473.060547 0.015625)" xlink:href="#DejaVuSans-32"/>
     <use transform="translate(504.847656 0.015625)" xlink:href="#DejaVuSans-Oblique-955"/>
     <use transform="translate(583.509766 0.015625)" xlink:href="#DejaVuSans-61"/>
     <use transform="translate(686.78125 0.015625)" xlink:href="#DejaVuSans-51"/>
     <use transform="translate(750.404297 0.015625)" xlink:href="#DejaVuSans-48"/>
    </g>
   </g>
  </g>
  <g id="axes_7">
   <g id="patch_38">
    <path d="M 56.16 506.16 
L 197.425823 506.16 
L 197.425823 348.261266 
L 56.16 348.261266 
z
" style="fill:#ffffff;"/>
   </g>
   <g id="patch_39">
    <path clip-path="url(#p6b9ade4312)" d="M 56.16 506.16 
L 56.16 488.888515 
L 63.223291 488.888515 
L 63.223291 494.806012 
L 70.286582 494.806012 
L 70.286582 487.870571 
L 77.349873 487.870571 
L 77.349873 477.579272 
L 84.413165 477.579272 
L 84.413165 472.892256 
L 91.476456 472.892256 
L 91.476456 470.9123 
L 98.539747 470.9123 
L 98.539747 468.518454 
L 105.603038 468.518454 
L 105.603038 470.856369 
L 112.666329 470.856369 
L 112.666329 472.623788 
L 119.72962 472.623788 
L 119.72962 479.861256 
L 126.792911 479.861256 
L 126.792911 488.105481 
L 133.856203 488.105481 
L 133.856203 495.689722 
L 140.919494 495.689722 
L 140.919494 500.39911 
L 147.982785 500.39911 
L 147.982785 503.654292 
L 155.046076 503.654292 
L 155.046076 504.862401 
L 162.109367 504.862401 
L 162.109367 505.746111 
L 169.172658 505.746111 
L 169.172658 505.869159 
L 176.235949 505.869159 
L 176.235949 506.036952 
L 183.299241 506.036952 
L 183.299241 506.092883 
L 190.362532 506.092883 
L 190.362532 506.137628 
L 197.425823 506.137628 
L 197.425823 506.16 
" style="fill:none;stroke:#db5f57;stroke-linejoin:miter;"/>
   </g>
   <g id="matplotlib.axis_13">
    <g id="xtick_31">
     <g id="line2d_55">
      <g>
       <use style="stroke:#000000;stroke-width:0.8;" x="56.16" xlink:href="#me87f7079e3" y="506.16"/>
      </g>
     </g>
     <g id="text_15">
      <!-- 0.0 -->
      <g transform="translate(48.208438 523.258437)scale(0.1 -0.1)">
       <use xlink:href="#DejaVuSans-48"/>
       <use x="63.623047" xlink:href="#DejaVuSans-46"/>
       <use x="95.410156" xlink:href="#DejaVuSans-48"/>
      </g>
     </g>
    </g>
    <g id="xtick_32">
     <g id="line2d_56">
      <g>
       <use style="stroke:#000000;stroke-width:0.8;" x="84.413165" xlink:href="#me87f7079e3" y="506.16"/>
      </g>
     </g>
     <g id="text_16">
      <!-- 0.5 -->
      <g transform="translate(76.461602 523.258437)scale(0.1 -0.1)">
       <use xlink:href="#DejaVuSans-48"/>
       <use x="63.623047" xlink:href="#DejaVuSans-46"/>
       <use x="95.410156" xlink:href="#DejaVuSans-53"/>
      </g>
     </g>
    </g>
    <g id="xtick_33">
     <g id="line2d_57">
      <g>
       <use style="stroke:#000000;stroke-width:0.8;" x="112.666329" xlink:href="#me87f7079e3" y="506.16"/>
      </g>
     </g>
     <g id="text_17">
      <!-- 1.0 -->
      <g transform="translate(104.714767 523.258437)scale(0.1 -0.1)">
       <use xlink:href="#DejaVuSans-49"/>
       <use x="63.623047" xlink:href="#DejaVuSans-46"/>
       <use x="95.410156" xlink:href="#DejaVuSans-48"/>
      </g>
     </g>
    </g>
    <g id="xtick_34">
     <g id="line2d_58">
      <g>
       <use style="stroke:#000000;stroke-width:0.8;" x="140.919494" xlink:href="#me87f7079e3" y="506.16"/>
      </g>
     </g>
     <g id="text_18">
      <!-- 1.5 -->
      <g transform="translate(132.967931 523.258437)scale(0.1 -0.1)">
       <use xlink:href="#DejaVuSans-49"/>
       <use x="63.623047" xlink:href="#DejaVuSans-46"/>
       <use x="95.410156" xlink:href="#DejaVuSans-53"/>
      </g>
     </g>
    </g>
    <g id="xtick_35">
     <g id="line2d_59">
      <g>
       <use style="stroke:#000000;stroke-width:0.8;" x="169.172658" xlink:href="#me87f7079e3" y="506.16"/>
      </g>
     </g>
     <g id="text_19">
      <!-- 2.0 -->
      <g transform="translate(161.221096 523.258437)scale(0.1 -0.1)">
       <use xlink:href="#DejaVuSans-50"/>
       <use x="63.623047" xlink:href="#DejaVuSans-46"/>
       <use x="95.410156" xlink:href="#DejaVuSans-48"/>
      </g>
     </g>
    </g>
   </g>
   <g id="matplotlib.axis_14">
    <g id="ytick_25">
     <g id="line2d_60">
      <g>
       <use style="stroke:#000000;stroke-width:0.8;" x="56.16" xlink:href="#m44d2687297" y="506.16"/>
      </g>
     </g>
     <g id="text_20">
      <!-- 0 -->
      <g transform="translate(40.2975 509.959219)scale(0.1 -0.1)">
       <use xlink:href="#DejaVuSans-48"/>
      </g>
     </g>
    </g>
    <g id="ytick_26">
     <g id="line2d_61">
      <g>
       <use style="stroke:#000000;stroke-width:0.8;" x="56.16" xlink:href="#m44d2687297" y="466.685316"/>
      </g>
     </g>
     <g id="text_21">
      <!-- 1 -->
      <g transform="translate(40.2975 470.484535)scale(0.1 -0.1)">
       <use xlink:href="#DejaVuSans-49"/>
      </g>
     </g>
    </g>
    <g id="ytick_27">
     <g id="line2d_62">
      <g>
       <use style="stroke:#000000;stroke-width:0.8;" x="56.16" xlink:href="#m44d2687297" y="427.210633"/>
      </g>
     </g>
     <g id="text_22">
      <!-- 2 -->
      <g transform="translate(40.2975 431.009852)scale(0.1 -0.1)">
       <use xlink:href="#DejaVuSans-50"/>
      </g>
     </g>
    </g>
    <g id="ytick_28">
     <g id="line2d_63">
      <g>
       <use style="stroke:#000000;stroke-width:0.8;" x="56.16" xlink:href="#m44d2687297" y="387.735949"/>
      </g>
     </g>
     <g id="text_23">
      <!-- 3 -->
      <g transform="translate(40.2975 391.535168)scale(0.1 -0.1)">
       <use xlink:href="#DejaVuSans-51"/>
      </g>
     </g>
    </g>
   </g>
   <g id="patch_40">
    <path d="M 56.16 506.16 
L 56.16 348.261266 
" style="fill:none;stroke:#000000;stroke-linecap:square;stroke-linejoin:miter;stroke-width:0.8;"/>
   </g>
   <g id="patch_41">
    <path d="M 197.425823 506.16 
L 197.425823 348.261266 
" style="fill:none;stroke:#000000;stroke-linecap:square;stroke-linejoin:miter;stroke-width:0.8;"/>
   </g>
   <g id="patch_42">
    <path d="M 56.16 506.16 
L 197.425823 506.16 
" style="fill:none;stroke:#000000;stroke-linecap:square;stroke-linejoin:miter;stroke-width:0.8;"/>
   </g>
   <g id="patch_43">
    <path d="M 56.16 348.261266 
L 197.425823 348.261266 
" style="fill:none;stroke:#000000;stroke-linecap:square;stroke-linejoin:miter;stroke-width:0.8;"/>
   </g>
   <g id="text_24">
    <!-- g) $A$= 2.8  $\lambda=$24 -->
    <defs>
     <path d="M 45.40625 27.984375 
Q 45.40625 37.75 41.375 43.109375 
Q 37.359375 48.484375 30.078125 48.484375 
Q 22.859375 48.484375 18.828125 43.109375 
Q 14.796875 37.75 14.796875 27.984375 
Q 14.796875 18.265625 18.828125 12.890625 
Q 22.859375 7.515625 30.078125 7.515625 
Q 37.359375 7.515625 41.375 12.890625 
Q 45.40625 18.265625 45.40625 27.984375 
z
M 54.390625 6.78125 
Q 54.390625 -7.171875 48.1875 -13.984375 
Q 42 -20.796875 29.203125 -20.796875 
Q 24.46875 -20.796875 20.265625 -20.09375 
Q 16.0625 -19.390625 12.109375 -17.921875 
L 12.109375 -9.1875 
Q 16.0625 -11.328125 19.921875 -12.34375 
Q 23.78125 -13.375 27.78125 -13.375 
Q 36.625 -13.375 41.015625 -8.765625 
Q 45.40625 -4.15625 45.40625 5.171875 
L 45.40625 9.625 
Q 42.625 4.78125 38.28125 2.390625 
Q 33.9375 0 27.875 0 
Q 17.828125 0 11.671875 7.65625 
Q 5.515625 15.328125 5.515625 27.984375 
Q 5.515625 40.671875 11.671875 48.328125 
Q 17.828125 56 27.875 56 
Q 33.9375 56 38.28125 53.609375 
Q 42.625 51.21875 45.40625 46.390625 
L 45.40625 54.6875 
L 54.390625 54.6875 
z
" id="DejaVuSans-103"/>
    </defs>
    <g transform="translate(70.286582 364.051139)scale(0.1 -0.1)">
     <use transform="translate(0 0.015625)" xlink:href="#DejaVuSans-103"/>
     <use transform="translate(63.476562 0.015625)" xlink:href="#DejaVuSans-41"/>
     <use transform="translate(102.490234 0.015625)" xlink:href="#DejaVuSans-32"/>
     <use transform="translate(134.277344 0.015625)" xlink:href="#DejaVuSans-Oblique-65"/>
     <use transform="translate(202.685547 0.015625)" xlink:href="#DejaVuSans-61"/>
     <use transform="translate(286.474609 0.015625)" xlink:href="#DejaVuSans-32"/>
     <use transform="translate(318.261719 0.015625)" xlink:href="#DejaVuSans-50"/>
     <use transform="translate(381.884766 0.015625)" xlink:href="#DejaVuSans-46"/>
     <use transform="translate(411.046875 0.015625)" xlink:href="#DejaVuSans-56"/>
     <use transform="translate(474.669922 0.015625)" xlink:href="#DejaVuSans-32"/>
     <use transform="translate(506.457031 0.015625)" xlink:href="#DejaVuSans-32"/>
     <use transform="translate(538.244141 0.015625)" xlink:href="#DejaVuSans-Oblique-955"/>
     <use transform="translate(616.90625 0.015625)" xlink:href="#DejaVuSans-61"/>
     <use transform="translate(720.177734 0.015625)" xlink:href="#DejaVuSans-50"/>
     <use transform="translate(783.800781 0.015625)" xlink:href="#DejaVuSans-52"/>
    </g>
   </g>
  </g>
  <g id="axes_8">
   <g id="patch_44">
    <path d="M 208.727089 506.16 
L 349.992911 506.16 
L 349.992911 348.261266 
L 208.727089 348.261266 
z
" style="fill:#ffffff;"/>
   </g>
   <g id="patch_45">
    <path clip-path="url(#p37fcb88427)" d="M 208.727089 506.16 
L 208.727089 498.178872 
L 215.79038 498.178872 
L 215.79038 498.962433 
L 222.853671 498.962433 
L 222.853671 492.022321 
L 229.916962 492.022321 
L 229.916962 476.172001 
L 236.980253 476.172001 
L 236.980253 468.258035 
L 244.043544 468.258035 
L 244.043544 467.519249 
L 251.106835 467.519249 
L 251.106835 466.735688 
L 258.170127 466.735688 
L 258.170127 465.493184 
L 265.233418 465.493184 
L 265.233418 468.593847 
L 272.296709 468.593847 
L 272.296709 478.858496 
L 279.36 478.858496 
L 279.36 489.43657 
L 286.423291 489.43657 
L 286.423291 496.757268 
L 293.486582 496.757268 
L 293.486582 501.35789 
L 300.549873 501.35789 
L 300.549873 503.831704 
L 307.613165 503.831704 
L 307.613165 505.208533 
L 314.676456 505.208533 
L 314.676456 505.67867 
L 321.739747 505.67867 
L 321.739747 505.958513 
L 328.803038 505.958513 
L 328.803038 506.092838 
L 335.866329 506.092838 
L 335.866329 506.137613 
L 342.92962 506.137613 
L 342.92962 506.148806 
L 349.992911 506.148806 
L 349.992911 506.16 
" style="fill:none;stroke:#db5f57;stroke-linejoin:miter;"/>
   </g>
   <g id="matplotlib.axis_15">
    <g id="xtick_36">
     <g id="line2d_64">
      <g>
       <use style="stroke:#000000;stroke-width:0.8;" x="208.727089" xlink:href="#me87f7079e3" y="506.16"/>
      </g>
     </g>
     <g id="text_25">
      <!-- 0.0 -->
      <g transform="translate(200.775526 523.258437)scale(0.1 -0.1)">
       <use xlink:href="#DejaVuSans-48"/>
       <use x="63.623047" xlink:href="#DejaVuSans-46"/>
       <use x="95.410156" xlink:href="#DejaVuSans-48"/>
      </g>
     </g>
    </g>
    <g id="xtick_37">
     <g id="line2d_65">
      <g>
       <use style="stroke:#000000;stroke-width:0.8;" x="236.980253" xlink:href="#me87f7079e3" y="506.16"/>
      </g>
     </g>
     <g id="text_26">
      <!-- 0.5 -->
      <g transform="translate(229.028691 523.258437)scale(0.1 -0.1)">
       <use xlink:href="#DejaVuSans-48"/>
       <use x="63.623047" xlink:href="#DejaVuSans-46"/>
       <use x="95.410156" xlink:href="#DejaVuSans-53"/>
      </g>
     </g>
    </g>
    <g id="xtick_38">
     <g id="line2d_66">
      <g>
       <use style="stroke:#000000;stroke-width:0.8;" x="265.233418" xlink:href="#me87f7079e3" y="506.16"/>
      </g>
     </g>
     <g id="text_27">
      <!-- 1.0 -->
      <g transform="translate(257.281855 523.258437)scale(0.1 -0.1)">
       <use xlink:href="#DejaVuSans-49"/>
       <use x="63.623047" xlink:href="#DejaVuSans-46"/>
       <use x="95.410156" xlink:href="#DejaVuSans-48"/>
      </g>
     </g>
    </g>
    <g id="xtick_39">
     <g id="line2d_67">
      <g>
       <use style="stroke:#000000;stroke-width:0.8;" x="293.486582" xlink:href="#me87f7079e3" y="506.16"/>
      </g>
     </g>
     <g id="text_28">
      <!-- 1.5 -->
      <g transform="translate(285.53502 523.258437)scale(0.1 -0.1)">
       <use xlink:href="#DejaVuSans-49"/>
       <use x="63.623047" xlink:href="#DejaVuSans-46"/>
       <use x="95.410156" xlink:href="#DejaVuSans-53"/>
      </g>
     </g>
    </g>
    <g id="xtick_40">
     <g id="line2d_68">
      <g>
       <use style="stroke:#000000;stroke-width:0.8;" x="321.739747" xlink:href="#me87f7079e3" y="506.16"/>
      </g>
     </g>
     <g id="text_29">
      <!-- 2.0 -->
      <g transform="translate(313.788184 523.258437)scale(0.1 -0.1)">
       <use xlink:href="#DejaVuSans-50"/>
       <use x="63.623047" xlink:href="#DejaVuSans-46"/>
       <use x="95.410156" xlink:href="#DejaVuSans-48"/>
      </g>
     </g>
    </g>
   </g>
   <g id="matplotlib.axis_16">
    <g id="ytick_29">
     <g id="line2d_69">
      <g>
       <use style="stroke:#000000;stroke-width:0.8;" x="208.727089" xlink:href="#m44d2687297" y="506.16"/>
      </g>
     </g>
    </g>
    <g id="ytick_30">
     <g id="line2d_70">
      <g>
       <use style="stroke:#000000;stroke-width:0.8;" x="208.727089" xlink:href="#m44d2687297" y="466.685316"/>
      </g>
     </g>
    </g>
    <g id="ytick_31">
     <g id="line2d_71">
      <g>
       <use style="stroke:#000000;stroke-width:0.8;" x="208.727089" xlink:href="#m44d2687297" y="427.210633"/>
      </g>
     </g>
    </g>
    <g id="ytick_32">
     <g id="line2d_72">
      <g>
       <use style="stroke:#000000;stroke-width:0.8;" x="208.727089" xlink:href="#m44d2687297" y="387.735949"/>
      </g>
     </g>
    </g>
   </g>
   <g id="patch_46">
    <path d="M 208.727089 506.16 
L 208.727089 348.261266 
" style="fill:none;stroke:#000000;stroke-linecap:square;stroke-linejoin:miter;stroke-width:0.8;"/>
   </g>
   <g id="patch_47">
    <path d="M 349.992911 506.16 
L 349.992911 348.261266 
" style="fill:none;stroke:#000000;stroke-linecap:square;stroke-linejoin:miter;stroke-width:0.8;"/>
   </g>
   <g id="patch_48">
    <path d="M 208.727089 506.16 
L 349.992911 506.16 
" style="fill:none;stroke:#000000;stroke-linecap:square;stroke-linejoin:miter;stroke-width:0.8;"/>
   </g>
   <g id="patch_49">
    <path d="M 208.727089 348.261266 
L 349.992911 348.261266 
" style="fill:none;stroke:#000000;stroke-linecap:square;stroke-linejoin:miter;stroke-width:0.8;"/>
   </g>
   <g id="text_30">
    <!-- h) $A$= 2.9  $\lambda=$27 -->
    <defs>
     <path d="M 54.890625 33.015625 
L 54.890625 0 
L 45.90625 0 
L 45.90625 32.71875 
Q 45.90625 40.484375 42.875 44.328125 
Q 39.84375 48.1875 33.796875 48.1875 
Q 26.515625 48.1875 22.3125 43.546875 
Q 18.109375 38.921875 18.109375 30.90625 
L 18.109375 0 
L 9.078125 0 
L 9.078125 75.984375 
L 18.109375 75.984375 
L 18.109375 46.1875 
Q 21.34375 51.125 25.703125 53.5625 
Q 30.078125 56 35.796875 56 
Q 45.21875 56 50.046875 50.171875 
Q 54.890625 44.34375 54.890625 33.015625 
z
" id="DejaVuSans-104"/>
     <path d="M 10.984375 1.515625 
L 10.984375 10.5 
Q 14.703125 8.734375 18.5 7.8125 
Q 22.3125 6.890625 25.984375 6.890625 
Q 35.75 6.890625 40.890625 13.453125 
Q 46.046875 20.015625 46.78125 33.40625 
Q 43.953125 29.203125 39.59375 26.953125 
Q 35.25 24.703125 29.984375 24.703125 
Q 19.046875 24.703125 12.671875 31.3125 
Q 6.296875 37.9375 6.296875 49.421875 
Q 6.296875 60.640625 12.9375 67.421875 
Q 19.578125 74.21875 30.609375 74.21875 
Q 43.265625 74.21875 49.921875 64.515625 
Q 56.59375 54.828125 56.59375 36.375 
Q 56.59375 19.140625 48.40625 8.859375 
Q 40.234375 -1.421875 26.421875 -1.421875 
Q 22.703125 -1.421875 18.890625 -0.6875 
Q 15.09375 0.046875 10.984375 1.515625 
z
M 30.609375 32.421875 
Q 37.25 32.421875 41.125 36.953125 
Q 45.015625 41.5 45.015625 49.421875 
Q 45.015625 57.28125 41.125 61.84375 
Q 37.25 66.40625 30.609375 66.40625 
Q 23.96875 66.40625 20.09375 61.84375 
Q 16.21875 57.28125 16.21875 49.421875 
Q 16.21875 41.5 20.09375 36.953125 
Q 23.96875 32.421875 30.609375 32.421875 
z
" id="DejaVuSans-57"/>
    </defs>
    <g transform="translate(222.853671 364.051139)scale(0.1 -0.1)">
     <use transform="translate(0 0.015625)" xlink:href="#DejaVuSans-104"/>
     <use transform="translate(63.378906 0.015625)" xlink:href="#DejaVuSans-41"/>
     <use transform="translate(102.392578 0.015625)" xlink:href="#DejaVuSans-32"/>
     <use transform="translate(134.179688 0.015625)" xlink:href="#DejaVuSans-Oblique-65"/>
     <use transform="translate(202.587891 0.015625)" xlink:href="#DejaVuSans-61"/>
     <use transform="translate(286.376953 0.015625)" xlink:href="#DejaVuSans-32"/>
     <use transform="translate(318.164062 0.015625)" xlink:href="#DejaVuSans-50"/>
     <use transform="translate(381.787109 0.015625)" xlink:href="#DejaVuSans-46"/>
     <use transform="translate(413.574219 0.015625)" xlink:href="#DejaVuSans-57"/>
     <use transform="translate(477.197266 0.015625)" xlink:href="#DejaVuSans-32"/>
     <use transform="translate(508.984375 0.015625)" xlink:href="#DejaVuSans-32"/>
     <use transform="translate(540.771484 0.015625)" xlink:href="#DejaVuSans-Oblique-955"/>
     <use transform="translate(619.433594 0.015625)" xlink:href="#DejaVuSans-61"/>
     <use transform="translate(722.705078 0.015625)" xlink:href="#DejaVuSans-50"/>
     <use transform="translate(786.328125 0.015625)" xlink:href="#DejaVuSans-55"/>
    </g>
   </g>
  </g>
  <g id="axes_9">
   <g id="patch_50">
    <path d="M 361.294177 506.16 
L 502.56 506.16 
L 502.56 348.261266 
L 361.294177 348.261266 
z
" style="fill:#ffffff;"/>
   </g>
   <g id="patch_51">
    <path clip-path="url(#p0327a4a4ab)" d="M 361.294177 506.16 
L 361.294177 500.11311 
L 368.357468 500.11311 
L 368.357468 502.125173 
L 375.420759 502.125173 
L 375.420759 496.902373 
L 382.484051 496.902373 
L 382.484051 480.174429 
L 389.547342 480.174429 
L 389.547342 463.660534 
L 396.610633 463.660534 
L 396.610633 462.097975 
L 403.673924 462.097975 
L 403.673924 462.290619 
L 410.737215 462.290619 
L 410.737215 465.790323 
L 417.800506 465.790323 
L 417.800506 469.546887 
L 424.863797 469.546887 
L 424.863797 478.686787 
L 431.927089 478.686787 
L 431.927089 488.49024 
L 438.99038 488.49024 
L 438.99038 496.078283 
L 446.053671 496.078283 
L 446.053671 501.900421 
L 453.116962 501.900421 
L 453.116962 503.998103 
L 460.180253 503.998103 
L 460.180253 505.453638 
L 467.243544 505.453638 
L 467.243544 505.731902 
L 474.306835 505.731902 
L 474.306835 505.988761 
L 481.370127 505.988761 
L 481.370127 506.085083 
L 488.433418 506.085083 
L 488.433418 506.127893 
L 495.496709 506.127893 
L 495.496709 506.16 
L 502.56 506.16 
L 502.56 506.16 
" style="fill:none;stroke:#db5f57;stroke-linejoin:miter;"/>
   </g>
   <g id="matplotlib.axis_17">
    <g id="xtick_41">
     <g id="line2d_73">
      <g>
       <use style="stroke:#000000;stroke-width:0.8;" x="361.294177" xlink:href="#me87f7079e3" y="506.16"/>
      </g>
     </g>
     <g id="text_31">
      <!-- 0.0 -->
      <g transform="translate(353.342615 523.258437)scale(0.1 -0.1)">
       <use xlink:href="#DejaVuSans-48"/>
       <use x="63.623047" xlink:href="#DejaVuSans-46"/>
       <use x="95.410156" xlink:href="#DejaVuSans-48"/>
      </g>
     </g>
    </g>
    <g id="xtick_42">
     <g id="line2d_74">
      <g>
       <use style="stroke:#000000;stroke-width:0.8;" x="389.547342" xlink:href="#me87f7079e3" y="506.16"/>
      </g>
     </g>
     <g id="text_32">
      <!-- 0.5 -->
      <g transform="translate(381.595779 523.258437)scale(0.1 -0.1)">
       <use xlink:href="#DejaVuSans-48"/>
       <use x="63.623047" xlink:href="#DejaVuSans-46"/>
       <use x="95.410156" xlink:href="#DejaVuSans-53"/>
      </g>
     </g>
    </g>
    <g id="xtick_43">
     <g id="line2d_75">
      <g>
       <use style="stroke:#000000;stroke-width:0.8;" x="417.800506" xlink:href="#me87f7079e3" y="506.16"/>
      </g>
     </g>
     <g id="text_33">
      <!-- 1.0 -->
      <g transform="translate(409.848944 523.258437)scale(0.1 -0.1)">
       <use xlink:href="#DejaVuSans-49"/>
       <use x="63.623047" xlink:href="#DejaVuSans-46"/>
       <use x="95.410156" xlink:href="#DejaVuSans-48"/>
      </g>
     </g>
    </g>
    <g id="xtick_44">
     <g id="line2d_76">
      <g>
       <use style="stroke:#000000;stroke-width:0.8;" x="446.053671" xlink:href="#me87f7079e3" y="506.16"/>
      </g>
     </g>
     <g id="text_34">
      <!-- 1.5 -->
      <g transform="translate(438.102108 523.258437)scale(0.1 -0.1)">
       <use xlink:href="#DejaVuSans-49"/>
       <use x="63.623047" xlink:href="#DejaVuSans-46"/>
       <use x="95.410156" xlink:href="#DejaVuSans-53"/>
      </g>
     </g>
    </g>
    <g id="xtick_45">
     <g id="line2d_77">
      <g>
       <use style="stroke:#000000;stroke-width:0.8;" x="474.306835" xlink:href="#me87f7079e3" y="506.16"/>
      </g>
     </g>
     <g id="text_35">
      <!-- 2.0 -->
      <g transform="translate(466.355273 523.258437)scale(0.1 -0.1)">
       <use xlink:href="#DejaVuSans-50"/>
       <use x="63.623047" xlink:href="#DejaVuSans-46"/>
       <use x="95.410156" xlink:href="#DejaVuSans-48"/>
      </g>
     </g>
    </g>
   </g>
   <g id="matplotlib.axis_18">
    <g id="ytick_33">
     <g id="line2d_78">
      <g>
       <use style="stroke:#000000;stroke-width:0.8;" x="361.294177" xlink:href="#m44d2687297" y="506.16"/>
      </g>
     </g>
    </g>
    <g id="ytick_34">
     <g id="line2d_79">
      <g>
       <use style="stroke:#000000;stroke-width:0.8;" x="361.294177" xlink:href="#m44d2687297" y="466.685316"/>
      </g>
     </g>
    </g>
    <g id="ytick_35">
     <g id="line2d_80">
      <g>
       <use style="stroke:#000000;stroke-width:0.8;" x="361.294177" xlink:href="#m44d2687297" y="427.210633"/>
      </g>
     </g>
    </g>
    <g id="ytick_36">
     <g id="line2d_81">
      <g>
       <use style="stroke:#000000;stroke-width:0.8;" x="361.294177" xlink:href="#m44d2687297" y="387.735949"/>
      </g>
     </g>
    </g>
   </g>
   <g id="patch_52">
    <path d="M 361.294177 506.16 
L 361.294177 348.261266 
" style="fill:none;stroke:#000000;stroke-linecap:square;stroke-linejoin:miter;stroke-width:0.8;"/>
   </g>
   <g id="patch_53">
    <path d="M 502.56 506.16 
L 502.56 348.261266 
" style="fill:none;stroke:#000000;stroke-linecap:square;stroke-linejoin:miter;stroke-width:0.8;"/>
   </g>
   <g id="patch_54">
    <path d="M 361.294177 506.16 
L 502.56 506.16 
" style="fill:none;stroke:#000000;stroke-linecap:square;stroke-linejoin:miter;stroke-width:0.8;"/>
   </g>
   <g id="patch_55">
    <path d="M 361.294177 348.261266 
L 502.56 348.261266 
" style="fill:none;stroke:#000000;stroke-linecap:square;stroke-linejoin:miter;stroke-width:0.8;"/>
   </g>
   <g id="text_36">
    <!-- i) $A$= 2.9  $\lambda=$30 -->
    <defs>
     <path d="M 9.421875 54.6875 
L 18.40625 54.6875 
L 18.40625 0 
L 9.421875 0 
z
M 9.421875 75.984375 
L 18.40625 75.984375 
L 18.40625 64.59375 
L 9.421875 64.59375 
z
" id="DejaVuSans-105"/>
    </defs>
    <g transform="translate(375.420759 364.051139)scale(0.1 -0.1)">
     <use transform="translate(0 0.015625)" xlink:href="#DejaVuSans-105"/>
     <use transform="translate(27.783203 0.015625)" xlink:href="#DejaVuSans-41"/>
     <use transform="translate(66.796875 0.015625)" xlink:href="#DejaVuSans-32"/>
     <use transform="translate(98.583984 0.015625)" xlink:href="#DejaVuSans-Oblique-65"/>
     <use transform="translate(166.992188 0.015625)" xlink:href="#DejaVuSans-61"/>
     <use transform="translate(250.78125 0.015625)" xlink:href="#DejaVuSans-32"/>
     <use transform="translate(282.568359 0.015625)" xlink:href="#DejaVuSans-50"/>
     <use transform="translate(346.191406 0.015625)" xlink:href="#DejaVuSans-46"/>
     <use transform="translate(377.978516 0.015625)" xlink:href="#DejaVuSans-57"/>
     <use transform="translate(441.601562 0.015625)" xlink:href="#DejaVuSans-32"/>
     <use transform="translate(473.388672 0.015625)" xlink:href="#DejaVuSans-32"/>
     <use transform="translate(505.175781 0.015625)" xlink:href="#DejaVuSans-Oblique-955"/>
     <use transform="translate(583.837891 0.015625)" xlink:href="#DejaVuSans-61"/>
     <use transform="translate(687.109375 0.015625)" xlink:href="#DejaVuSans-51"/>
     <use transform="translate(750.732422 0.015625)" xlink:href="#DejaVuSans-48"/>
    </g>
   </g>
  </g>
  <g id="text_37">
   <!-- $v$ -->
   <defs>
    <path d="M 7.171875 54.6875 
L 16.703125 54.6875 
L 24.703125 8.203125 
L 50.875 54.6875 
L 60.40625 54.6875 
L 29.296875 0 
L 17.1875 0 
z
" id="DejaVuSans-Oblique-118"/>
   </defs>
   <g transform="translate(280.68 538.56)scale(0.1 -0.1)">
    <use transform="translate(0 0.3125)" xlink:href="#DejaVuSans-Oblique-118"/>
   </g>
  </g>
  <g id="text_38">
   <!-- $P(v)$ -->
   <defs>
    <path d="M 16.890625 72.90625 
L 39.703125 72.90625 
Q 49.65625 72.90625 54.875 68.265625 
Q 60.109375 63.625 60.109375 54.6875 
Q 60.109375 42.671875 52.390625 35.984375 
Q 44.671875 29.296875 30.71875 29.296875 
L 18.3125 29.296875 
L 12.59375 0 
L 2.6875 0 
z
M 25.203125 64.796875 
L 19.921875 37.40625 
L 32.328125 37.40625 
Q 40.71875 37.40625 45.203125 41.703125 
Q 49.703125 46 49.703125 54 
Q 49.703125 59.125 46.65625 61.953125 
Q 43.609375 64.796875 38.09375 64.796875 
z
" id="DejaVuSans-Oblique-80"/>
    <path d="M 31 75.875 
Q 24.46875 64.65625 21.28125 53.65625 
Q 18.109375 42.671875 18.109375 31.390625 
Q 18.109375 20.125 21.3125 9.0625 
Q 24.515625 -2 31 -13.1875 
L 23.1875 -13.1875 
Q 15.875 -1.703125 12.234375 9.375 
Q 8.59375 20.453125 8.59375 31.390625 
Q 8.59375 42.28125 12.203125 53.3125 
Q 15.828125 64.359375 23.1875 75.875 
z
" id="DejaVuSans-40"/>
   </defs>
   <g transform="translate(14.798438 263.34)rotate(-90)scale(0.1 -0.1)">
    <use transform="translate(0 0.125)" xlink:href="#DejaVuSans-Oblique-80"/>
    <use transform="translate(60.302734 0.125)" xlink:href="#DejaVuSans-40"/>
    <use transform="translate(99.316406 0.125)" xlink:href="#DejaVuSans-Oblique-118"/>
    <use transform="translate(158.496094 0.125)" xlink:href="#DejaVuSans-41"/>
   </g>
  </g>
 </g>
 <defs>
  <clipPath id="pbd3f700e0e">
   <rect height="157.898734" width="141.265823" x="56.16" y="7.2"/>
  </clipPath>
  <clipPath id="p0f4d323966">
   <rect height="157.898734" width="141.265823" x="208.727089" y="7.2"/>
  </clipPath>
  <clipPath id="p0303ebd28d">
   <rect height="157.898734" width="141.265823" x="361.294177" y="7.2"/>
  </clipPath>
  <clipPath id="p4c1fff0fe0">
   <rect height="157.898734" width="141.265823" x="56.16" y="177.730633"/>
  </clipPath>
  <clipPath id="p9165497622">
   <rect height="157.898734" width="141.265823" x="208.727089" y="177.730633"/>
  </clipPath>
  <clipPath id="paa3522e913">
   <rect height="157.898734" width="141.265823" x="361.294177" y="177.730633"/>
  </clipPath>
  <clipPath id="p6b9ade4312">
   <rect height="157.898734" width="141.265823" x="56.16" y="348.261266"/>
  </clipPath>
  <clipPath id="p37fcb88427">
   <rect height="157.898734" width="141.265823" x="208.727089" y="348.261266"/>
  </clipPath>
  <clipPath id="p0327a4a4ab">
   <rect height="157.898734" width="141.265823" x="361.294177" y="348.261266"/>
  </clipPath>
 </defs>
</svg>
