<svg width="4226" height="1725" xmlns="http://www.w3.org/2000/svg" xmlns:xlink="http://www.w3.org/1999/xlink" overflow="hidden"><defs><clipPath id="clip0"><rect x="109" y="318" width="4226" height="1725"/></clipPath></defs><g clip-path="url(#clip0)" transform="translate(-109 -318)"><path d="M3843.22 772.087C3818.56 744.507 3865.27 662.525 3947.54 588.975 4029.81 515.425 4116.5 478.159 4141.15 505.739 4165.81 533.319 4119.1 615.301 4036.83 688.851 3954.56 762.401 3867.87 799.667 3843.22 772.087Z" stroke="#2F528F" stroke-width="4.58333" stroke-miterlimit="8" fill="#4472C4" fill-rule="evenodd"/><path d="M119 1739.25C420.773 1561.65 722.546 1384.05 1072.77 1433.49 1422.98 1482.94 1832.62 2028.48 2220.31 2035.93 2608.01 2043.38 3221.69 1475.01 3580.46 1418.79 3939.23 1362.56 4065.91 1564.41 4231 1622.7" stroke="#000000" stroke-width="13.75" stroke-miterlimit="8" fill="none" fill-rule="evenodd"/><path d="M1291.64 1191.78C1325.27 1176.37 1389.79 1245.22 1435.75 1345.55 1481.7 1445.88 1491.69 1539.7 1458.06 1555.11 1424.42 1570.51 1359.9 1501.67 1313.95 1401.34 1267.99 1301 1258 1207.18 1291.64 1191.78Z" stroke="#2F528F" stroke-width="4.58333" stroke-miterlimit="8" fill="#4472C4" fill-rule="evenodd"/><path d="M1474.16 1305.73 1479.76 1305.73 1477.53 1315.74 1489.85 1315.74 1488.96 1319.83 1476.63 1319.83 1473.03 1335.56C1472.33 1338.61 1471.88 1340.81 1471.69 1342.15 1471.5 1343.48 1471.41 1344.56 1471.41 1345.37 1471.41 1348.72 1472.8 1350.39 1475.58 1350.39 1476.77 1350.39 1478.03 1349.94 1479.37 1349.03 1480.71 1348.13 1482.3 1346.58 1484.13 1344.39L1486.48 1346.83C1484.13 1349.66 1481.87 1351.76 1479.69 1353.11 1477.52 1354.46 1475.24 1355.13 1472.87 1355.13 1467.22 1355.13 1464.4 1352.28 1464.4 1346.58 1464.4 1344.77 1464.63 1342.87 1465.08 1340.87L1469.87 1319.83 1463.06 1319.83 1463.67 1317.04C1465.26 1317.01 1466.47 1316.89 1467.29 1316.67 1468.12 1316.46 1468.81 1316.16 1469.36 1315.78 1469.91 1315.4 1470.42 1314.86 1470.88 1314.16 1471.34 1313.46 1471.79 1312.56 1472.22 1311.47 1472.65 1310.37 1473.3 1308.46 1474.16 1305.73Z" fill-rule="evenodd"/><text fill="#000000" fill-opacity="0" font-family="Arial,Arial_MSFontService,sans-serif" font-size="49.4028" x="1463.06" y="1348.96">ğ‘¡</text><path d="M1500.66 1341.22 1502.8 1341.22 1502.8 1363.73C1502.8 1364.95 1502.83 1365.87 1502.89 1366.5 1502.95 1367.14 1503.11 1367.63 1503.35 1367.98 1503.6 1368.33 1503.97 1368.58 1504.46 1368.75 1504.94 1368.92 1505.61 1369.15 1506.47 1369.42L1506.47 1371.33 1493.39 1371.33 1493.39 1369.42C1494.19 1369.15 1494.82 1368.93 1495.28 1368.77 1495.75 1368.61 1496.1 1368.37 1496.34 1368.04 1496.58 1367.71 1496.73 1367.23 1496.8 1366.59 1496.87 1365.96 1496.91 1365.03 1496.91 1363.82L1496.91 1349.79C1496.91 1349.1 1496.89 1348.51 1496.86 1348.02 1496.83 1347.54 1496.8 1347.12 1496.76 1346.79 1496.72 1346.31 1496.65 1345.91 1496.55 1345.58 1496.45 1345.25 1496.27 1344.96 1496 1344.72 1495.73 1344.47 1495.35 1344.25 1494.87 1344.08 1494.38 1343.9 1493.74 1343.73 1492.95 1343.57L1492.95 1341.54ZM1531.81 1340.92C1533.28 1340.92 1534.57 1341.11 1535.67 1341.5 1536.77 1341.89 1537.69 1342.51 1538.42 1343.36 1539.16 1344.21 1539.71 1345.31 1540.08 1346.64 1540.44 1347.97 1540.63 1349.57 1540.63 1351.43L1540.63 1363.73C1540.63 1364.91 1540.64 1365.81 1540.66 1366.44 1540.68 1367.08 1540.8 1367.57 1541.02 1367.92 1541.23 1368.27 1541.59 1368.54 1542.09 1368.74 1542.58 1368.94 1543.31 1369.16 1544.26 1369.42L1544.26 1371.33 1531.16 1371.33 1531.16 1369.42C1531.97 1369.15 1532.61 1368.92 1533.08 1368.75 1533.54 1368.58 1533.9 1368.34 1534.14 1368.01 1534.37 1367.68 1534.53 1367.21 1534.6 1366.59 1534.67 1365.98 1534.7 1365.07 1534.7 1363.88L1534.7 1355.6C1534.7 1353.48 1534.61 1351.73 1534.43 1350.36 1534.25 1348.99 1533.95 1347.91 1533.52 1347.13 1533.1 1346.34 1532.53 1345.8 1531.83 1345.49 1531.12 1345.18 1530.25 1345.03 1529.22 1345.03 1528.35 1345.03 1527.47 1345.25 1526.58 1345.68 1525.7 1346.12 1524.91 1346.66 1524.2 1347.31 1523.5 1347.95 1522.92 1348.66 1522.47 1349.42 1522.03 1350.19 1521.8 1350.9 1521.8 1351.55L1521.8 1363.73C1521.8 1364.95 1521.83 1365.87 1521.89 1366.5 1521.95 1367.14 1522.11 1367.63 1522.35 1367.98 1522.6 1368.33 1522.97 1368.58 1523.46 1368.75 1523.94 1368.92 1524.61 1369.15 1525.47 1369.42L1525.47 1371.33 1512.39 1371.33 1512.39 1369.42C1513.19 1369.15 1513.82 1368.93 1514.28 1368.77 1514.75 1368.61 1515.1 1368.37 1515.34 1368.04 1515.58 1367.71 1515.73 1367.23 1515.8 1366.59 1515.87 1365.96 1515.91 1365.03 1515.91 1363.82L1515.91 1349.79C1515.91 1349.1 1515.89 1348.51 1515.86 1348.02 1515.83 1347.54 1515.8 1347.12 1515.76 1346.79 1515.72 1346.31 1515.65 1345.91 1515.55 1345.58 1515.45 1345.25 1515.27 1344.96 1515 1344.72 1514.73 1344.47 1514.35 1344.25 1513.87 1344.08 1513.38 1343.9 1512.74 1343.73 1511.95 1343.57L1511.95 1341.54 1519.75 1341.22 1521.86 1341.22C1521.8 1342.07 1521.73 1342.91 1521.66 1343.73 1521.58 1344.56 1521.51 1345.39 1521.45 1346.22 1521.51 1346.26 1521.57 1346.28 1521.63 1346.28 1521.68 1346.28 1521.74 1346.3 1521.8 1346.34 1522.78 1345.35 1523.69 1344.51 1524.54 1343.82 1525.4 1343.14 1526.22 1342.58 1527.02 1342.14 1527.81 1341.7 1528.6 1341.39 1529.38 1341.2 1530.17 1341.01 1530.98 1340.92 1531.81 1340.92ZM1496.7 1329.21 1502.98 1329.21 1502.98 1335.62 1496.7 1335.62Z" fill-rule="evenodd"/><text fill="#000000" fill-opacity="0" font-family="Arial,Arial_MSFontService,sans-serif" font-size="42.1162" x="1492.95" y="1366.06">in</text><path d="M2863.67 1640.91C2839.01 1613.33 2885.72 1531.35 2967.99 1457.8 3050.27 1384.25 3136.95 1346.99 3161.6 1374.57 3186.26 1402.15 3139.55 1484.13 3057.28 1557.68 2975.01 1631.23 2888.33 1668.49 2863.67 1640.91Z" stroke="#2F528F" stroke-width="4.58333" stroke-miterlimit="8" fill="#4472C4" fill-rule="evenodd"/><path d="M2977.37 1285.05 2982.97 1285.05 2980.74 1295.06 2993.06 1295.06 2992.17 1299.15 2979.85 1299.15 2976.24 1314.88C2975.54 1317.93 2975.09 1320.12 2974.9 1321.46 2974.71 1322.8 2974.62 1323.87 2974.62 1324.68 2974.62 1328.03 2976.01 1329.71 2978.79 1329.71 2979.98 1329.71 2981.24 1329.26 2982.58 1328.35 2983.92 1327.45 2985.51 1325.9 2987.34 1323.71L2989.69 1326.14C2987.34 1328.98 2985.08 1331.07 2982.91 1332.42 2980.73 1333.78 2978.45 1334.45 2976.08 1334.45 2970.43 1334.45 2967.61 1331.6 2967.61 1325.9 2967.61 1324.09 2967.84 1322.18 2968.3 1320.19L2973.08 1299.15 2966.27 1299.15 2966.88 1296.36C2968.47 1296.33 2969.68 1296.21 2970.5 1295.99 2971.33 1295.77 2972.02 1295.48 2972.57 1295.1 2973.13 1294.72 2973.63 1294.18 2974.09 1293.48 2974.55 1292.78 2975 1291.88 2975.43 1290.78 2975.86 1289.69 2976.51 1287.78 2977.37 1285.05Z" fill-rule="evenodd"/><text fill="#000000" fill-opacity="0" font-family="Arial,Arial_MSFontService,sans-serif" font-size="49.4028" x="2966.27" y="1328.28">ğ‘¡</text><path d="M3011.26 1324.4C3008.72 1324.4 3006.75 1325.46 3005.37 1327.59 3003.99 1329.71 3003.3 1332.74 3003.3 1336.67 3003.3 1338.72 3003.48 1340.53 3003.84 1342.12 3004.2 1343.71 3004.72 1345.05 3005.4 1346.14 3006.09 1347.23 3006.93 1348.07 3007.92 1348.64 3008.91 1349.22 3010.05 1349.51 3011.32 1349.51 3012.75 1349.51 3013.96 1349.18 3014.97 1348.52 3015.97 1347.87 3016.78 1346.99 3017.39 1345.89 3018.01 1344.79 3018.46 1343.51 3018.73 1342.05 3019.01 1340.59 3019.15 1339.05 3019.15 1337.44 3019.15 1335.18 3018.95 1333.23 3018.54 1331.59 3018.13 1329.95 3017.58 1328.6 3016.87 1327.54 3016.17 1326.48 3015.33 1325.69 3014.37 1325.17 3013.41 1324.66 3012.37 1324.4 3011.26 1324.4ZM3031.86 1322.08 3041.42 1322.08 3041.42 1337.62C3041.42 1339.77 3041.49 1341.54 3041.63 1342.93 3041.77 1344.32 3042.03 1345.41 3042.42 1346.22 3042.8 1347.02 3043.36 1347.58 3044.07 1347.88 3044.79 1348.19 3045.73 1348.35 3046.9 1348.35 3047.67 1348.35 3048.5 1348.16 3049.37 1347.78 3050.25 1347.4 3051.04 1346.91 3051.77 1346.29 3052.49 1345.68 3053.1 1344.97 3053.57 1344.18 3054.05 1343.38 3054.29 1342.58 3054.29 1341.76L3054.29 1329.58C3054.29 1328.45 3054.26 1327.57 3054.21 1326.95 3054.16 1326.32 3054.02 1325.83 3053.78 1325.47 3053.54 1325.11 3053.18 1324.84 3052.69 1324.65 3052.21 1324.46 3051.53 1324.24 3050.65 1323.98L3050.65 1322.08 3060.12 1322.08 3060.12 1343.67C3060.12 1344.68 3060.12 1345.54 3060.11 1346.23 3060.1 1346.93 3060.2 1347.5 3060.41 1347.96 3060.62 1348.42 3061 1348.79 3061.57 1349.08 3062.14 1349.36 3062.99 1349.61 3064.15 1349.81L3064.15 1351.86 3056.49 1352.16 3054.35 1352.16C3054.41 1351.32 3054.46 1350.5 3054.5 1349.69 3054.53 1348.87 3054.57 1348.05 3054.61 1347.21 3054.53 1347.17 3054.47 1347.15 3054.41 1347.15 3054.35 1347.15 3054.29 1347.13 3054.23 1347.1 3053.29 1348.09 3052.41 1348.92 3051.58 1349.6 3050.74 1350.27 3049.93 1350.82 3049.13 1351.24 3048.34 1351.65 3047.55 1351.95 3046.77 1352.13 3045.98 1352.31 3045.16 1352.4 3044.31 1352.4 3042.82 1352.38 3041.52 1352.18 3040.41 1351.8 3039.29 1351.42 3038.38 1350.82 3037.65 1349.98 3036.93 1349.15 3036.38 1348.07 3036.01 1346.74 3035.65 1345.41 3035.45 1343.77 3035.43 1341.82L3035.43 1329.58C3035.43 1328.49 3035.43 1327.64 3035.42 1327.02 3035.41 1326.4 3035.3 1325.92 3035.09 1325.58 3034.88 1325.23 3034.53 1324.95 3034.05 1324.74 3033.56 1324.53 3032.83 1324.28 3031.86 1323.98ZM3011.38 1321.45C3013.86 1321.45 3015.99 1321.82 3017.78 1322.55 3019.57 1323.29 3021.04 1324.32 3022.19 1325.65 3023.34 1326.98 3024.19 1328.58 3024.74 1330.45 3025.28 1332.31 3025.55 1334.37 3025.55 1336.61 3025.55 1339.19 3025.21 1341.47 3024.53 1343.43 3023.84 1345.4 3022.86 1347.05 3021.58 1348.38 3020.3 1349.71 3018.75 1350.71 3016.95 1351.38 3015.14 1352.06 3013.12 1352.4 3010.9 1352.4 3008.7 1352.4 3006.73 1352.09 3004.99 1351.47 3003.25 1350.86 3001.78 1349.92 3000.56 1348.66 2999.35 1347.4 2998.43 1345.81 2997.79 1343.91 2997.16 1342 2996.84 1339.76 2996.84 1337.18 2996.84 1334.62 2997.21 1332.36 2997.94 1330.4 2998.68 1328.44 2999.7 1326.8 3001 1325.47 3002.3 1324.14 3003.83 1323.14 3005.6 1322.46 3007.37 1321.79 3009.29 1321.45 3011.38 1321.45ZM3073.48 1314.51 3078.36 1314.51 3078.36 1322.08 3088.78 1322.08 3088.78 1325.38 3078.36 1325.38 3078.36 1339.59C3078.38 1341.42 3078.49 1342.9 3078.69 1344.04 3078.89 1345.18 3079.19 1346.07 3079.61 1346.71 3080.03 1347.34 3080.54 1347.78 3081.16 1348 3081.78 1348.23 3082.51 1348.35 3083.36 1348.35 3084.22 1348.35 3085.06 1348.15 3085.88 1347.77 3086.7 1347.38 3087.51 1346.86 3088.31 1346.2 3088.59 1346.56 3088.84 1346.92 3089.08 1347.27 3089.32 1347.63 3089.57 1347.99 3089.83 1348.35 3088.18 1349.76 3086.65 1350.78 3085.24 1351.43 3083.83 1352.07 3082.4 1352.4 3080.95 1352.4 3078.07 1352.4 3075.93 1351.62 3074.53 1350.07 3073.13 1348.52 3072.43 1346.1 3072.43 1342.81L3072.43 1325.38 3067.7 1325.38 3067.7 1323.56C3068.33 1323.47 3068.91 1323.31 3069.42 1323.1 3069.94 1322.89 3070.4 1322.65 3070.79 1322.37 3071.15 1322.12 3071.46 1321.81 3071.72 1321.45 3071.98 1321.09 3072.2 1320.63 3072.4 1320.05 3072.6 1319.47 3072.79 1318.74 3072.95 1317.85 3073.12 1316.95 3073.3 1315.84 3073.48 1314.51Z" fill-rule="evenodd"/><text fill="#000000" fill-opacity="0" font-family="Arial,Arial_MSFontService,sans-serif" font-size="37.8867" x="2996.84" y="1347.66">out</text><path d="M3057.62 1288.09C3053.21 1288.19 3049.97 1288.75 3047.91 1289.78 3045.84 1290.82 3044.81 1292.39 3044.81 1294.49 3044.81 1296.12 3045.27 1297.3 3046.19 1298.02 3047.12 1298.74 3048.38 1299.11 3049.99 1299.11 3051.12 1299.11 3052.16 1298.91 3053.09 1298.51 3054.02 1298.11 3054.82 1297.6 3055.49 1296.98 3056.15 1296.35 3056.67 1295.66 3057.05 1294.89 3057.43 1294.13 3057.62 1293.38 3057.62 1292.64ZM3019.16 1276.08C3018.14 1276.08 3017.15 1276.27 3016.18 1276.65 3015.2 1277.03 3014.34 1277.52 3013.57 1278.14 3012.81 1278.75 3012.19 1279.45 3011.72 1280.24 3011.26 1281.02 3011.02 1281.83 3011.02 1282.67L3011.02 1291.39C3011.02 1293.06 3011.16 1294.45 3011.44 1295.55 3011.72 1296.65 3012.16 1297.53 3012.77 1298.2 3013.37 1298.86 3014.15 1299.34 3015.09 1299.61 3016.03 1299.89 3017.18 1300.03 3018.53 1300.03 3021.09 1300.03 3023.03 1299.02 3024.35 1297.01 3025.67 1294.99 3026.33 1292.02 3026.33 1288.09 3026.33 1280.08 3023.94 1276.08 3019.16 1276.08ZM3125.4 1274.92C3122.68 1274.92 3120.6 1275.97 3119.17 1278.06 3117.74 1280.16 3117.03 1283.14 3117.03 1287.01 3117.03 1291.01 3117.62 1293.98 3118.82 1295.94 3120.01 1297.89 3121.84 1298.87 3124.33 1298.87 3125.52 1298.87 3126.61 1298.65 3127.59 1298.21 3128.57 1297.78 3129.41 1297.22 3130.1 1296.53 3130.8 1295.85 3131.34 1295.08 3131.73 1294.22 3132.12 1293.37 3132.31 1292.51 3132.31 1291.66L3132.31 1283.62C3132.31 1281.87 3132.17 1280.44 3131.89 1279.32 3131.61 1278.19 3131.19 1277.3 3130.63 1276.65 3130.06 1275.99 3129.34 1275.54 3128.47 1275.29 3127.59 1275.05 3126.57 1274.92 3125.4 1274.92ZM3091.87 1271.97C3093.34 1271.97 3094.62 1272.17 3095.72 1272.55 3096.83 1272.94 3097.74 1273.56 3098.48 1274.42 3099.21 1275.27 3099.76 1276.36 3100.13 1277.69 3100.5 1279.02 3100.68 1280.62 3100.68 1282.49L3100.68 1294.79C3100.68 1295.96 3100.69 1296.86 3100.71 1297.5 3100.73 1298.13 3100.85 1298.63 3101.07 1298.97 3101.29 1299.32 3101.65 1299.59 3102.14 1299.79 3102.64 1299.99 3103.36 1300.22 3104.32 1300.48L3104.32 1302.38 3091.21 1302.38 3091.21 1300.48C3092.03 1300.2 3092.67 1299.98 3093.13 1299.81 3093.6 1299.64 3093.95 1299.39 3094.19 1299.06 3094.43 1298.73 3094.58 1298.26 3094.65 1297.65 3094.72 1297.03 3094.76 1296.13 3094.76 1294.94L3094.76 1286.66C3094.76 1284.53 3094.67 1282.79 3094.49 1281.41 3094.31 1280.04 3094.01 1278.97 3093.58 1278.18 3093.15 1277.4 3092.59 1276.85 3091.88 1276.55 3091.18 1276.24 3090.31 1276.08 3089.28 1276.08 3088.4 1276.08 3087.52 1276.3 3086.64 1276.74 3085.76 1277.18 3084.96 1277.72 3084.26 1278.36 3083.55 1279.01 3082.98 1279.71 3082.53 1280.48 3082.08 1281.24 3081.86 1281.95 3081.86 1282.61L3081.86 1294.79C3081.86 1296 3081.89 1296.92 3081.95 1297.56 3082.01 1298.19 3082.16 1298.69 3082.41 1299.03 3082.66 1299.38 3083.03 1299.64 3083.51 1299.81 3084 1299.98 3084.67 1300.2 3085.52 1300.48L3085.52 1302.38 3072.45 1302.38 3072.45 1300.48C3073.24 1300.2 3073.87 1299.98 3074.34 1299.82 3074.8 1299.66 3075.16 1299.42 3075.4 1299.09 3075.63 1298.76 3075.79 1298.28 3075.86 1297.65 3075.93 1297.01 3075.96 1296.09 3075.96 1294.88L3075.96 1280.85C3075.96 1280.15 3075.95 1279.56 3075.92 1279.08 3075.89 1278.59 3075.85 1278.18 3075.81 1277.84 3075.77 1277.36 3075.7 1276.96 3075.6 1276.63 3075.5 1276.31 3075.32 1276.02 3075.05 1275.77 3074.78 1275.52 3074.41 1275.31 3073.92 1275.13 3073.43 1274.95 3072.79 1274.78 3072 1274.62L3072 1272.6 3079.8 1272.27 3081.92 1272.27C3081.86 1273.12 3081.79 1273.96 3081.71 1274.79 3081.63 1275.61 3081.56 1276.44 3081.5 1277.27 3081.56 1277.31 3081.62 1277.33 3081.68 1277.33 3081.74 1277.33 3081.8 1277.35 3081.86 1277.39 3082.83 1276.4 3083.75 1275.56 3084.6 1274.88 3085.45 1274.19 3086.28 1273.63 3087.07 1273.19 3087.87 1272.76 3088.65 1272.44 3089.44 1272.26 3090.22 1272.07 3091.03 1271.97 3091.87 1271.97ZM3054.28 1271.97C3055.81 1272.01 3057.14 1272.19 3058.29 1272.49 3059.43 1272.8 3060.38 1273.33 3061.15 1274.09 3061.91 1274.84 3062.49 1275.86 3062.87 1277.14 3063.26 1278.42 3063.46 1280.04 3063.48 1282.01L3063.48 1293.39C3063.48 1294.68 3063.47 1295.72 3063.45 1296.52 3063.43 1297.31 3063.52 1297.96 3063.72 1298.45 3063.92 1298.95 3064.28 1299.34 3064.79 1299.63 3065.31 1299.92 3066.09 1300.2 3067.15 1300.48L3067.15 1302.38 3057.97 1302.38C3058.01 1301.65 3058.04 1300.91 3058.06 1300.18 3058.08 1299.44 3058.11 1298.73 3058.15 1298.04 3058.09 1298 3058.03 1297.97 3057.97 1297.96 3057.91 1297.95 3057.83 1297.93 3057.73 1297.89 3056.8 1298.8 3055.91 1299.57 3055.07 1300.21 3054.23 1300.84 3053.38 1301.37 3052.54 1301.77 3051.69 1302.18 3050.84 1302.47 3049.98 1302.65 3049.11 1302.83 3048.21 1302.92 3047.28 1302.92 3045.99 1302.92 3044.82 1302.73 3043.78 1302.35 3042.74 1301.98 3041.85 1301.45 3041.13 1300.76 3040.4 1300.08 3039.85 1299.27 3039.46 1298.33 3039.07 1297.4 3038.88 1296.37 3038.88 1295.24 3038.88 1292.18 3040.44 1289.83 3043.57 1288.21 3046.7 1286.58 3051.38 1285.6 3057.62 1285.29L3057.62 1283.14C3057.62 1281.67 3057.5 1280.43 3057.27 1279.4 3057.04 1278.38 3056.69 1277.55 3056.2 1276.92 3055.71 1276.28 3055.07 1275.82 3054.28 1275.53 3053.49 1275.24 3052.52 1275.1 3051.39 1275.1 3049.82 1275.1 3048.5 1275.52 3047.43 1276.35 3046.36 1277.19 3045.56 1278.51 3045.05 1280.31L3040.64 1280.31 3040.64 1275.79C3042.07 1275.11 3043.38 1274.53 3044.57 1274.06 3045.76 1273.58 3046.9 1273.19 3047.98 1272.88 3049.06 1272.57 3050.11 1272.35 3051.14 1272.21 3052.16 1272.07 3053.21 1271.99 3054.28 1271.97ZM3008.91 1259.17 3011.02 1259.17 3011.02 1277.33 3011.08 1277.33C3012.14 1276.3 3013.09 1275.45 3013.94 1274.77 3014.8 1274.1 3015.62 1273.56 3016.4 1273.15 3017.19 1272.74 3017.97 1272.45 3018.77 1272.29 3019.56 1272.12 3020.43 1272.01 3021.36 1271.97 3023.09 1271.97 3024.65 1272.31 3026.04 1272.97 3027.43 1273.64 3028.61 1274.61 3029.6 1275.9 3030.58 1277.2 3031.34 1278.79 3031.87 1280.69 3032.41 1282.58 3032.68 1284.75 3032.68 1287.19 3032.68 1289.95 3032.33 1292.32 3031.64 1294.3 3030.94 1296.27 3029.98 1297.9 3028.75 1299.18 3027.52 1300.46 3026.05 1301.41 3024.35 1302.01 3022.66 1302.62 3020.8 1302.92 3018.8 1302.92 3017.09 1302.92 3015.52 1302.78 3014.09 1302.49 3012.66 1302.2 3011.23 1301.72 3009.8 1301.04 3009.03 1301.7 3008.28 1302.32 3007.57 1302.92 3007.17 1302.82 3006.77 1302.74 3006.36 1302.68 3005.96 1302.62 3005.55 1302.54 3005.16 1302.44L3005.16 1269.5C3005.16 1268.43 3005.16 1267.5 3005.17 1266.72 3005.18 1265.93 3005.16 1265.26 3005.1 1264.71 3005.04 1264.15 3004.93 1263.69 3004.78 1263.32 3004.64 1262.95 3004.4 1262.65 3004.08 1262.41 3003.77 1262.17 3003.36 1261.98 3002.85 1261.83 3002.34 1261.68 3001.7 1261.55 3000.93 1261.43L3000.93 1259.46ZM3136.15 1259.05 3138.15 1259.05 3138.15 1294.19C3138.15 1295.42 3138.15 1296.39 3138.16 1297.1 3138.17 1297.8 3138.29 1298.36 3138.52 1298.76 3138.75 1299.17 3139.14 1299.47 3139.7 1299.67 3140.25 1299.87 3141.09 1300.09 3142.2 1300.33L3142.2 1302.38C3140.89 1302.44 3139.59 1302.49 3138.31 1302.53 3137.03 1302.57 3135.75 1302.62 3134.48 1302.68L3132.31 1302.68C3132.39 1301.85 3132.45 1301.02 3132.49 1300.21 3132.53 1299.4 3132.58 1298.57 3132.64 1297.74 3132.58 1297.7 3132.51 1297.68 3132.44 1297.68 3132.37 1297.68 3132.31 1297.66 3132.25 1297.62 3131.18 1298.71 3130.22 1299.59 3129.38 1300.25 3128.53 1300.92 3127.73 1301.44 3126.96 1301.82 3126.2 1302.2 3125.42 1302.46 3124.62 1302.61 3123.83 1302.76 3122.95 1302.86 3121.97 1302.92 3120.19 1302.92 3118.59 1302.59 3117.19 1301.92 3115.79 1301.26 3114.61 1300.28 3113.65 1298.99 3112.69 1297.7 3111.95 1296.1 3111.44 1294.21 3110.94 1292.31 3110.69 1290.14 3110.69 1287.7 3110.69 1285.14 3111.05 1282.88 3111.79 1280.92 3112.52 1278.97 3113.53 1277.32 3114.83 1275.99 3116.12 1274.66 3117.64 1273.66 3119.4 1272.99 3121.15 1272.31 3123.06 1271.97 3125.1 1271.97 3125.84 1271.97 3126.52 1272 3127.14 1272.05 3127.77 1272.1 3128.36 1272.18 3128.93 1272.3 3129.49 1272.42 3130.06 1272.57 3130.61 1272.75 3131.17 1272.93 3131.73 1273.13 3132.31 1273.37L3132.31 1269.5C3132.31 1268.25 3132.3 1267.25 3132.28 1266.49 3132.26 1265.74 3132.23 1265.13 3132.19 1264.68 3132.11 1264.24 3132.03 1263.85 3131.94 1263.5 3131.85 1263.15 3131.67 1262.84 3131.4 1262.58 3131.13 1262.31 3130.75 1262.08 3130.24 1261.89 3129.73 1261.7 3129.03 1261.55 3128.14 1261.43L3128.14 1259.46Z" fill-rule="evenodd"/><text fill="#000000" fill-opacity="0" font-family="Arial,Arial_MSFontService,sans-serif" font-size="43.8735" x="3000.93" y="1297.44">band</text><path d="M198 639 4224.6 639" stroke="#548235" stroke-width="13.75" stroke-miterlimit="8" fill="none" fill-rule="evenodd"/><path d="M950.146 661.917 950.146 1402.48 947.855 1402.48 947.854 661.917ZM935.25 666.5 949 639 962.75 666.5ZM962.75 1397.9 949 1425.4 935.25 1397.9Z"/><path d="M811.986 1044.58 818.794 1044.58 813.81 1066.67C813.404 1068.45 813.087 1070 812.857 1071.31 812.628 1072.62 812.513 1073.81 812.513 1074.89 812.513 1076.3 812.884 1077.36 813.627 1078.09 814.37 1078.82 815.431 1079.19 816.809 1079.19 818.403 1079.19 820.139 1078.34 822.016 1076.64 823.894 1074.93 825.576 1072.8 827.062 1070.23 828.548 1067.67 829.507 1065.4 829.94 1063.42L833.952 1044.58 840.963 1044.58 835.208 1070.23C834.587 1073.02 834.276 1075.01 834.276 1076.23 834.276 1077.31 834.452 1078.09 834.803 1078.58 835.154 1079.07 835.708 1079.31 836.464 1079.31 837.086 1079.31 837.836 1079.07 838.714 1078.58 839.592 1078.09 840.571 1077.24 841.652 1076.03L843.921 1078.3C842.408 1079.78 841.064 1080.93 839.889 1081.74 838.714 1082.55 837.64 1083.13 836.667 1083.46 835.694 1083.8 834.641 1083.97 833.506 1083.97 831.75 1083.97 830.385 1083.45 829.413 1082.41 828.44 1081.37 827.954 1079.92 827.954 1078.05 827.954 1076.54 828.305 1074.92 829.007 1073.19L828.562 1072.95C826.049 1076.68 823.725 1079.38 821.591 1081.07 819.456 1082.76 817.254 1083.61 814.985 1083.61 813.85 1083.61 812.817 1083.42 811.885 1083.06 810.952 1082.69 809.987 1082 808.987 1080.97 808.663 1082.59 808.372 1084.77 808.116 1087.52 807.859 1090.26 807.731 1092.72 807.731 1094.91 807.731 1095.72 807.758 1096.37 807.812 1096.86L807.244 1099.57 801.976 1099.57 799.99 1097.14C801.206 1092.66 802.34 1088.05 803.394 1083.32ZM857.148 1043.89C858.85 1043.89 860.194 1044.45 861.18 1045.57 862.167 1046.69 862.66 1048.16 862.66 1049.97 862.66 1051.45 862.349 1053.04 861.728 1054.71L862.214 1054.87C864.7 1051.17 867.172 1048.42 869.63 1046.62 872.089 1044.83 874.575 1043.93 877.087 1043.93 879.681 1043.93 881.654 1044.67 883.004 1046.14 884.355 1047.61 885.031 1049.74 885.031 1052.52L885.031 1053.09C885.031 1053.28 885.017 1053.48 884.99 1053.7 887.314 1050.4 889.631 1047.95 891.941 1046.34 894.251 1044.73 896.649 1043.93 899.134 1043.93 901.62 1043.93 903.538 1044.65 904.889 1046.08 906.24 1047.51 906.916 1049.52 906.916 1052.12 906.916 1053.82 906.524 1056.24 905.74 1059.37L903.106 1069.99C902.377 1072.93 902.012 1075.01 902.012 1076.23 902.012 1077.31 902.187 1078.09 902.539 1078.58 902.89 1079.07 903.444 1079.31 904.2 1079.31 905.011 1079.31 905.875 1078.98 906.794 1078.32 907.713 1077.66 909.01 1076.39 910.685 1074.53L912.995 1076.8C910.671 1079.26 908.645 1081.07 906.916 1082.23 905.186 1083.39 903.214 1083.97 900.999 1083.97 899.242 1083.97 897.837 1083.34 896.784 1082.09 895.73 1080.83 895.203 1079.23 895.203 1077.28 895.203 1075.53 895.649 1072.95 896.541 1069.54L898.324 1062.53C898.972 1059.99 899.398 1058.11 899.6 1056.9 899.803 1055.68 899.904 1054.7 899.904 1053.94 899.904 1052.08 899.594 1050.73 898.972 1049.91 898.351 1049.08 897.338 1048.67 895.933 1048.67 894.798 1048.67 893.582 1049.1 892.285 1049.95 890.988 1050.8 889.624 1052.12 888.192 1053.92 886.76 1055.72 885.591 1057.49 884.686 1059.23 883.781 1060.97 883.058 1063.1 882.518 1065.61L878.83 1083.32 871.819 1083.32 876.48 1062.73C877.047 1060.22 877.432 1058.36 877.635 1057.16 877.837 1055.96 877.939 1054.93 877.939 1054.06 877.939 1052.12 877.594 1050.73 876.905 1049.91 876.216 1049.08 875.142 1048.67 873.683 1048.67 872.656 1048.67 871.488 1049.1 870.178 1049.95 868.867 1050.8 867.469 1052.16 865.983 1054.04 864.497 1055.92 863.335 1057.72 862.498 1059.45 861.66 1061.18 860.958 1063.29 860.39 1065.77L856.54 1083.32 849.529 1083.32 855.446 1057.63C856.04 1055.03 856.337 1053.04 856.337 1051.63 856.337 1050.55 856.162 1049.77 855.811 1049.28 855.459 1048.79 854.906 1048.55 854.149 1048.55 853.311 1048.55 852.427 1048.89 851.494 1049.58 850.562 1050.27 849.286 1051.52 847.665 1053.33L845.355 1051.06C847.732 1048.58 849.779 1046.76 851.494 1045.61 853.21 1044.46 855.095 1043.89 857.148 1043.89ZM776.361 1030.8C774.497 1030.8 772.936 1031.35 771.68 1032.46 770.424 1033.57 769.41 1035.16 768.64 1037.24 767.87 1039.32 767.323 1041.86 766.999 1044.84 766.675 1047.83 766.513 1051.2 766.513 1054.95 766.513 1063.76 767.33 1070.23 768.965 1074.35 770.599 1078.47 773.132 1080.53 776.564 1080.53 779.833 1080.53 782.258 1078.59 783.838 1074.71 785.419 1070.83 786.209 1064.83 786.209 1056.7 786.209 1050.48 785.804 1045.45 784.993 1041.6 784.183 1037.75 783.055 1034.99 781.609 1033.31 780.164 1031.64 778.414 1030.8 776.361 1030.8ZM776.564 1027.35C782.481 1027.35 786.885 1029.64 789.775 1034.2 792.666 1038.77 794.112 1045.67 794.112 1054.91 794.112 1064.48 792.565 1071.71 789.471 1076.62 786.378 1081.52 781.859 1083.97 775.915 1083.97 770.079 1083.97 765.736 1081.67 762.886 1077.08 760.035 1072.49 758.61 1065.52 758.61 1056.17 758.61 1051.2 759.049 1046.9 759.927 1043.28 760.805 1039.66 762.034 1036.67 763.615 1034.3 765.196 1031.94 767.094 1030.19 769.309 1029.06 771.525 1027.92 773.943 1027.35 776.564 1027.35ZM730.685 1027.35C735.711 1027.35 739.507 1028.46 742.073 1030.66 744.64 1032.86 745.923 1036.05 745.923 1040.24 745.923 1041.67 745.782 1042.99 745.498 1044.19 745.214 1045.4 744.768 1046.58 744.16 1047.76 743.553 1048.94 742.735 1050.2 741.709 1051.55 740.682 1052.9 739.547 1054.27 738.304 1055.66 737.061 1057.05 734.913 1059.37 731.86 1062.61 726.727 1068.04 722.958 1072.79 720.553 1076.84L735.832 1076.84C737.156 1076.84 738.223 1076.76 739.034 1076.59 739.844 1076.43 740.493 1076.16 740.979 1075.78 741.465 1075.41 741.85 1074.91 742.134 1074.31 742.418 1073.7 742.776 1072.76 743.208 1071.49L746.653 1071.49 745.964 1083.32 712.61 1083.32 712.61 1081.38C713.772 1078.54 715.339 1075.64 717.311 1072.66 719.283 1069.69 722.08 1066.19 725.7 1062.17 728.834 1058.71 731.09 1056.09 732.468 1054.3 733.981 1052.36 735.109 1050.68 735.852 1049.26 736.595 1047.84 737.129 1046.5 737.453 1045.25 737.777 1043.99 737.94 1042.73 737.94 1041.46 737.94 1039.43 737.615 1037.64 736.967 1036.09 736.318 1034.53 735.326 1033.31 733.988 1032.42 732.651 1031.53 730.969 1031.08 728.942 1031.08 723.89 1031.08 720.486 1033.89 718.73 1039.51L713.826 1039.51 713.826 1031.73C717.095 1030.19 720.155 1029.08 723.005 1028.39 725.856 1027.7 728.416 1027.35 730.685 1027.35Z" fill-rule="evenodd"/><text fill="#000000" fill-opacity="0" font-family="Arial,Arial_MSFontService,sans-serif" font-size="72.2197" x="712.61" y="1090.55">20ğœ‡ğ‘š</text><path d="M1208 649.536C1249.12 1000.82 1290.24 1352.11 1489.54 1563.44 1688.83 1774.76 1994.08 2065.78 2403.77 1917.5 2813.46 1769.21 3647.48 919.328 3947.68 673.746 4247.89 428.163 4157.86 494.679 4205 444" stroke="#4472C4" stroke-width="10.3125" stroke-miterlimit="8" stroke-dasharray="41.25 30.9375 10.3125 30.9375" fill="none" fill-rule="evenodd"/><path d="M3808.62 492.543 3814.21 492.543 3811.98 502.553 3824.3 502.553 3823.41 506.646 3811.09 506.646 3807.48 522.371C3806.78 525.424 3806.34 527.619 3806.15 528.957 3805.96 530.294 3805.86 531.368 3805.86 532.179 3805.86 535.529 3807.25 537.204 3810.04 537.204 3811.23 537.204 3812.49 536.751 3813.83 535.846 3815.16 534.941 3816.75 533.394 3818.59 531.206L3820.94 533.638C3818.59 536.474 3816.33 538.568 3814.15 539.919 3811.98 541.27 3809.7 541.946 3807.32 541.946 3801.68 541.946 3798.85 539.095 3798.85 533.394 3798.85 531.584 3799.08 529.679 3799.54 527.68L3804.32 506.646 3797.51 506.646 3798.12 503.85C3799.72 503.823 3800.93 503.701 3801.75 503.485 3802.57 503.269 3803.26 502.972 3803.82 502.594 3804.37 502.215 3804.88 501.675 3805.34 500.973 3805.8 500.27 3806.24 499.372 3806.67 498.277 3807.11 497.183 3807.75 495.272 3808.62 492.543Z" fill-rule="evenodd"/><text fill="#000000" fill-opacity="0" font-family="Arial,Arial_MSFontService,sans-serif" font-size="49.4028" x="3797.51" y="535.77">ğ‘¡</text><path d="M3842.5 531.894C3839.96 531.894 3838 532.956 3836.62 535.081 3835.24 537.205 3834.55 540.234 3834.55 544.165 3834.55 546.21 3834.73 548.027 3835.09 549.616 3835.44 551.204 3835.97 552.545 3836.65 553.637 3837.34 554.729 3838.17 555.563 3839.17 556.139 3840.16 556.715 3841.29 557.003 3842.56 557.003 3843.99 557.003 3845.21 556.675 3846.21 556.02 3847.21 555.364 3848.02 554.486 3848.64 553.384 3849.25 552.282 3849.7 551.001 3849.98 549.541 3850.26 548.082 3850.4 546.548 3850.4 544.94 3850.4 542.676 3850.19 540.725 3849.79 539.087 3849.38 537.449 3848.82 536.098 3848.12 535.036 3847.41 533.974 3846.58 533.184 3845.62 532.668 3844.65 532.152 3843.61 531.894 3842.5 531.894ZM3863.1 529.57 3872.67 529.57 3872.67 545.118C3872.67 547.263 3872.73 549.03 3872.87 550.42 3873.01 551.81 3873.28 552.907 3873.66 553.711 3874.05 554.516 3874.6 555.071 3875.32 555.379 3876.03 555.687 3876.97 555.841 3878.15 555.841 3878.92 555.841 3879.74 555.652 3880.62 555.275 3881.49 554.898 3882.29 554.401 3883.02 553.786 3883.74 553.17 3884.34 552.465 3884.82 551.671 3885.29 550.877 3885.53 550.073 3885.53 549.258L3885.53 537.076C3885.53 535.944 3885.51 535.066 3885.46 534.44 3885.41 533.815 3885.26 533.323 3885.03 532.966 3884.79 532.609 3884.43 532.336 3883.94 532.147 3883.45 531.958 3882.77 531.735 3881.9 531.477L3881.9 529.57 3891.37 529.57 3891.37 551.165C3891.37 552.177 3891.37 553.031 3891.36 553.726 3891.35 554.421 3891.44 554.997 3891.65 555.454 3891.86 555.91 3892.25 556.283 3892.81 556.571 3893.38 556.859 3894.24 557.102 3895.39 557.3L3895.39 559.356 3887.74 559.653 3885.59 559.653C3885.65 558.819 3885.7 557.995 3885.74 557.181 3885.78 556.367 3885.82 555.543 3885.86 554.709 3885.78 554.669 3885.71 554.65 3885.65 554.65 3885.59 554.65 3885.53 554.63 3885.47 554.59 3884.54 555.583 3883.66 556.417 3882.82 557.092 3881.99 557.767 3881.17 558.313 3880.38 558.73 3879.59 559.147 3878.8 559.445 3878.01 559.624 3877.23 559.802 3876.41 559.892 3875.55 559.892 3874.06 559.872 3872.76 559.673 3871.65 559.296 3870.54 558.919 3869.62 558.313 3868.9 557.479 3868.17 556.645 3867.63 555.563 3867.26 554.233 3866.89 552.902 3866.7 551.264 3866.68 549.318L3866.68 537.076C3866.68 535.984 3866.67 535.13 3866.66 534.515 3866.65 533.899 3866.54 533.418 3866.34 533.07 3866.13 532.723 3865.78 532.445 3865.29 532.236 3864.81 532.028 3864.08 531.775 3863.1 531.477ZM3842.62 528.945C3845.1 528.945 3847.24 529.312 3849.03 530.047 3850.81 530.782 3852.28 531.814 3853.43 533.145 3854.59 534.475 3855.43 536.074 3855.98 537.94 3856.53 539.807 3856.8 541.862 3856.8 544.106 3856.8 546.687 3856.46 548.961 3855.77 550.926 3855.09 552.892 3854.1 554.54 3852.82 555.871 3851.54 557.201 3850 558.204 3848.19 558.879 3846.39 559.554 3844.37 559.892 3842.15 559.892 3839.94 559.892 3837.97 559.584 3836.23 558.968 3834.5 558.353 3833.02 557.415 3831.81 556.154 3830.6 554.893 3829.68 553.309 3829.04 551.403 3828.4 549.497 3828.09 547.253 3828.09 544.672 3828.09 542.11 3828.45 539.851 3829.19 537.895 3829.92 535.94 3830.94 534.296 3832.24 532.966 3833.54 531.636 3835.08 530.633 3836.84 529.958 3838.61 529.283 3840.54 528.945 3842.62 528.945ZM3904.72 522.005 3909.61 522.005 3909.61 529.57 3920.03 529.57 3920.03 532.877 3909.61 532.877 3909.61 547.084C3909.63 548.911 3909.73 550.395 3909.93 551.537 3910.13 552.679 3910.44 553.567 3910.86 554.203 3911.27 554.838 3911.79 555.27 3912.41 555.498 3913.02 555.727 3913.76 555.841 3914.61 555.841 3915.46 555.841 3916.3 555.647 3917.13 555.26 3917.95 554.873 3918.76 554.352 3919.55 553.696 3919.83 554.054 3920.09 554.411 3920.33 554.769 3920.57 555.126 3920.81 555.484 3921.07 555.841 3919.42 557.251 3917.9 558.278 3916.49 558.924 3915.08 559.569 3913.65 559.892 3912.2 559.892 3909.32 559.892 3907.18 559.117 3905.78 557.568 3904.38 556.02 3903.68 553.597 3903.68 550.301L3903.68 532.877 3898.94 532.877 3898.94 531.06C3899.58 530.96 3900.15 530.807 3900.67 530.598 3901.19 530.39 3901.64 530.146 3902.04 529.868 3902.4 529.61 3902.71 529.302 3902.96 528.945 3903.22 528.588 3903.45 528.121 3903.65 527.545 3903.85 526.969 3904.03 526.234 3904.2 525.341 3904.37 524.447 3904.54 523.335 3904.72 522.005Z" fill-rule="evenodd"/><text fill="#000000" fill-opacity="0" font-family="Arial,Arial_MSFontService,sans-serif" font-size="37.8867" x="3828.09" y="555.156">out</text><path d="M3903.86 495.582C3899.45 495.681 3896.22 496.247 3894.15 497.279 3892.09 498.312 3891.05 499.881 3891.05 501.985 3891.05 503.614 3891.52 504.79 3892.44 505.515 3893.36 506.24 3894.63 506.602 3896.24 506.602 3897.37 506.602 3898.4 506.404 3899.33 506.006 3900.27 505.609 3901.07 505.098 3901.73 504.472 3902.4 503.847 3902.92 503.152 3903.3 502.388 3903.67 501.623 3903.86 500.873 3903.86 500.139ZM3831.67 480.093 3844.77 480.093 3844.77 482C3843.6 482.158 3842.77 482.436 3842.27 482.834 3841.77 483.231 3841.53 483.777 3841.53 484.472 3841.53 484.968 3841.6 485.514 3841.73 486.11 3841.87 486.706 3842.07 487.391 3842.33 488.165L3847.3 503.534 3855.55 480.093 3860.26 480.093 3867.2 503.534 3872.8 488.761C3873.14 487.887 3873.4 487.118 3873.59 486.452 3873.78 485.787 3873.87 485.206 3873.87 484.71 3873.87 483.936 3873.61 483.33 3873.08 482.893 3872.56 482.456 3871.73 482.158 3870.6 482L3870.6 480.093 3882.18 480.093 3882.18 482C3881.61 482.139 3881.12 482.297 3880.72 482.476 3880.33 482.655 3879.97 482.928 3879.65 483.295 3879.33 483.663 3879.02 484.154 3878.71 484.77 3878.4 485.385 3878.04 486.199 3877.63 487.212L3868.27 509.998 3863.57 509.998 3856.75 487.272 3848.35 509.998 3843.64 509.998 3835.93 487.033C3835.61 486.06 3835.32 485.281 3835.05 484.695 3834.78 484.109 3834.49 483.643 3834.18 483.295 3833.88 482.948 3833.52 482.685 3833.13 482.506 3832.73 482.327 3832.24 482.158 3831.67 482ZM3900.53 479.468C3902.05 479.508 3903.39 479.681 3904.53 479.989 3905.67 480.297 3906.63 480.828 3907.39 481.583 3908.16 482.337 3908.73 483.355 3909.12 484.636 3909.51 485.916 3909.71 487.54 3909.73 489.505L3909.73 500.883C3909.73 502.174 3909.72 503.217 3909.7 504.011 3909.68 504.805 3909.77 505.45 3909.97 505.947 3910.17 506.443 3910.52 506.835 3911.04 507.123 3911.56 507.411 3912.34 507.694 3913.39 507.972L3913.39 509.878 3904.22 509.878C3904.26 509.144 3904.29 508.409 3904.31 507.674 3904.33 506.94 3904.36 506.225 3904.4 505.53 3904.34 505.49 3904.28 505.465 3904.22 505.455 3904.16 505.445 3904.08 505.421 3903.98 505.381 3903.05 506.294 3902.16 507.069 3901.31 507.704 3900.47 508.34 3899.63 508.861 3898.78 509.268 3897.94 509.675 3897.09 509.968 3896.22 510.147 3895.36 510.325 3894.46 510.415 3893.53 510.415 3892.24 510.415 3891.07 510.226 3890.03 509.849 3888.98 509.471 3888.1 508.94 3887.38 508.255 3886.65 507.57 3886.09 506.761 3885.71 505.828 3885.32 504.894 3885.13 503.862 3885.13 502.73 3885.13 499.672 3886.69 497.329 3889.82 495.701 3892.95 494.072 3897.63 493.1 3903.86 492.782L3903.86 490.637C3903.86 489.168 3903.75 487.922 3903.52 486.899 3903.29 485.877 3902.93 485.048 3902.45 484.412 3901.96 483.777 3901.32 483.315 3900.53 483.027 3899.73 482.739 3898.77 482.595 3897.64 482.595 3896.07 482.595 3894.75 483.012 3893.67 483.846 3892.6 484.68 3891.81 486.001 3891.29 487.808L3886.88 487.808 3886.88 483.28C3888.31 482.605 3889.62 482.029 3890.82 481.553 3892.01 481.076 3893.14 480.684 3894.23 480.376 3895.31 480.069 3896.36 479.845 3897.38 479.706 3898.41 479.567 3899.45 479.488 3900.53 479.468ZM3944.51 466.541 3946.69 466.541 3946.69 502.283C3946.69 503.475 3946.71 504.388 3946.76 505.023 3946.81 505.659 3946.96 506.15 3947.19 506.498 3947.43 506.845 3947.79 507.108 3948.27 507.287 3948.74 507.466 3949.41 507.694 3950.26 507.972L3950.26 509.878 3937.13 509.878 3937.13 507.972C3938.06 507.694 3938.78 507.456 3939.29 507.257 3939.79 507.059 3940.16 506.781 3940.39 506.423 3940.62 506.066 3940.75 505.575 3940.78 504.949 3940.8 504.324 3940.82 503.435 3940.82 502.283L3940.82 476.996C3940.82 475.526 3940.8 474.404 3940.76 473.63 3940.72 472.856 3940.66 472.23 3940.58 471.753 3940.5 471.376 3940.41 471.044 3940.3 470.756 3940.19 470.468 3940 470.21 3939.73 469.981 3939.46 469.753 3939.08 469.554 3938.59 469.386 3938.09 469.217 3937.42 469.063 3936.59 468.924L3936.59 466.958ZM3925.51 466.541 3927.69 466.541 3927.69 502.283C3927.69 503.475 3927.71 504.388 3927.76 505.023 3927.81 505.659 3927.96 506.15 3928.19 506.498 3928.43 506.845 3928.79 507.108 3929.27 507.287 3929.74 507.466 3930.41 507.694 3931.26 507.972L3931.26 509.878 3918.13 509.878 3918.13 507.972C3919.06 507.694 3919.78 507.456 3920.29 507.257 3920.79 507.059 3921.16 506.781 3921.39 506.423 3921.62 506.066 3921.75 505.575 3921.78 504.949 3921.8 504.324 3921.82 503.435 3921.82 502.283L3921.82 476.996C3921.82 475.526 3921.8 474.404 3921.76 473.63 3921.72 472.856 3921.66 472.23 3921.58 471.753 3921.5 471.376 3921.41 471.044 3921.3 470.756 3921.19 470.468 3921 470.21 3920.73 469.981 3920.46 469.753 3920.08 469.554 3919.59 469.386 3919.09 469.217 3918.42 469.063 3917.59 468.924L3917.59 466.958Z" fill-rule="evenodd"/><text fill="#000000" fill-opacity="0" font-family="Arial,Arial_MSFontService,sans-serif" font-size="43.8735" x="3831.67" y="504.93">wall</text><path d="M1494.68 1552.51 1574.74 1685.75 1597.55 1672.04 1579.35 1745.08 1506.31 1726.87 1529.12 1713.17 1449.05 1579.92Z" fill="#ADC7D6" fill-rule="evenodd"/><path d="M1494.68 1552.51 1574.74 1685.75 1597.55 1672.04 1579.35 1745.08 1506.31 1726.87 1529.12 1713.17 1449.05 1579.92ZM1486.79 1589.33 1566.86 1722.57 1577.38 1716.25 1559.31 1711.75 1554.81 1729.81 1565.33 1723.49 1485.27 1590.24Z" fill="#ADC7D6"/><path d="M3167.16 1338.45 3281.45 1233.09 3263.41 1213.52 3338.62 1216.58 3335.56 1291.79 3317.53 1272.22 3203.23 1377.59Z" fill="#ADC7D6" fill-rule="evenodd"/><path d="M3167.16 1338.45 3281.45 1233.09 3263.41 1213.52 3338.62 1216.58 3335.56 1291.79 3317.53 1272.22 3203.23 1377.59ZM3204.81 1338.73 3319.1 1233.36 3310.78 1224.33 3310.03 1242.94 3328.63 1243.69 3320.31 1234.67 3206.02 1340.03Z" fill="#ADC7D6"/><path d="M4149.15 458.062 4263.44 352.696 4245.4 333.13 4320.61 336.186 4317.55 411.395 4299.52 391.829 4185.22 497.195Z" fill="#ADC7D6" fill-rule="evenodd"/><path d="M4149.15 458.062 4263.44 352.696 4245.4 333.13 4320.61 336.186 4317.55 411.395 4299.52 391.829 4185.22 497.195ZM4186.8 458.336 4301.09 352.97 4292.77 343.943 4292.02 362.547 4310.62 363.303 4302.3 354.275 4188.01 459.641Z" fill="#ADC7D6"/><path d="M113 1551.25C414.773 1373.65 716.547 1196.05 1066.77 1245.49 1416.98 1294.94 1826.62 1840.48 2214.31 1847.93 2602.01 1855.38 3215.69 1287.01 3574.46 1230.79 3933.23 1174.56 4059.91 1376.41 4225 1434.7" stroke="#000000" stroke-width="13.75" stroke-miterlimit="8" stroke-dasharray="110 41.25" fill="none" fill-rule="evenodd"/></g></svg>