<?xml version="1.0" encoding="utf-8" standalone="no"?>
<!DOCTYPE svg PUBLIC "-//W3C//DTD SVG 1.1//EN"
  "http://www.w3.org/Graphics/SVG/1.1/DTD/svg11.dtd">
<!-- Created with matplotlib (https://matplotlib.org/) -->
<svg height="247.248pt" version="1.1" viewBox="0 0 460.8 247.248" width="460.8pt" xmlns="http://www.w3.org/2000/svg" xmlns:xlink="http://www.w3.org/1999/xlink">
 <defs>
  <style type="text/css">
*{stroke-linecap:butt;stroke-linejoin:round;}
  </style>
 </defs>
 <g id="figure_1">
  <g id="patch_1">
   <path d="M 0 247.248 
L 460.8 247.248 
L 460.8 0 
L 0 0 
z
" style="fill:#ffffff;"/>
  </g>
  <g id="axes_1">
   <g id="patch_2">
    <path d="M 7.2 120.78439 
L 114.766265 120.78439 
L 114.766265 7.2 
L 7.2 7.2 
z
" style="fill:#ffffff;"/>
   </g>
   <g id="PathCollection_1">
    <defs>
     <path d="M 0 0.67908 
C 0.180094 0.67908 0.352836 0.607528 0.480182 0.480182 
C 0.607528 0.352836 0.67908 0.180094 0.67908 0 
C 0.67908 -0.180094 0.607528 -0.352836 0.480182 -0.480182 
C 0.352836 -0.607528 0.180094 -0.67908 0 -0.67908 
C -0.180094 -0.67908 -0.352836 -0.607528 -0.480182 -0.480182 
C -0.607528 -0.352836 -0.67908 -0.180094 -0.67908 0 
C -0.67908 0.180094 -0.607528 0.352836 -0.480182 0.480182 
C -0.352836 0.607528 -0.180094 0.67908 0 0.67908 
z
" id="m6cbd80ad22" style="stroke:#000000;"/>
    </defs>
    <g clip-path="url(#p44301cdf1e)">
     <use style="stroke:#000000;" x="32.950441" xlink:href="#m6cbd80ad22" y="83.7127"/>
    </g>
   </g>
   <g id="Quiver_1">
    <path clip-path="url(#p44301cdf1e)" d="M 33.429531 83.957108 
L 30.741046 89.2271 
L 31.943634 89.236825 
L 28.062285 93.294503 
L 29.069093 87.770379 
L 29.782865 88.738284 
L 32.471351 83.468293 
L 33.429531 83.957108 
"/>
   </g>
   <g id="matplotlib.axis_1">
    <g id="xtick_1">
     <g id="line2d_1"/>
    </g>
    <g id="xtick_2">
     <g id="line2d_2"/>
    </g>
    <g id="xtick_3">
     <g id="line2d_3"/>
    </g>
   </g>
   <g id="matplotlib.axis_2">
    <g id="ytick_1">
     <g id="line2d_4"/>
    </g>
    <g id="ytick_2">
     <g id="line2d_5"/>
    </g>
    <g id="ytick_3">
     <g id="line2d_6"/>
    </g>
    <g id="ytick_4">
     <g id="line2d_7"/>
    </g>
    <g id="ytick_5">
     <g id="line2d_8"/>
    </g>
    <g id="ytick_6">
     <g id="line2d_9"/>
    </g>
   </g>
   <g id="line2d_10">
    <path clip-path="url(#p44301cdf1e)" d="M 7.191786 48.390989 
L 8.400349 46.904737 
L 9.472462 45.920313 
L 10.466603 45.300082 
L 11.382772 44.984124 
L 12.259955 44.914338 
L 13.117646 45.066869 
L 14.014322 45.458311 
L 14.949984 46.115697 
L 15.963618 47.107112 
L 17.074717 48.513843 
L 18.322266 50.467891 
L 19.725759 53.097495 
L 21.343675 56.62011 
L 23.312464 61.468353 
L 26.119451 69.039117 
L 30.817254 81.714873 
L 32.864015 86.56104 
L 34.520917 89.941692 
L 35.943903 92.368982 
L 37.210945 94.111163 
L 38.341537 95.304856 
L 39.374664 96.082365 
L 40.310326 96.520005 
L 41.207002 96.697402 
L 42.064692 96.643877 
L 42.941876 96.363857 
L 43.858045 95.83086 
L 44.832693 94.999787 
L 45.904806 93.781915 
L 47.093876 92.078184 
L 48.419398 89.774397 
L 49.939849 86.665163 
L 51.733201 82.465702 
L 54.052863 76.422339 
L 61.323738 57.049381 
L 63.136583 53.075081 
L 64.657034 50.250003 
L 66.002048 48.202126 
L 67.191119 46.780433 
L 68.263232 45.831597 
L 69.23788 45.254147 
L 70.154049 44.964862 
L 71.031232 44.92079 
L 71.908416 45.104975 
L 72.805092 45.527473 
L 73.760247 46.23359 
L 74.793374 47.28625 
L 75.923965 48.767249 
L 77.191008 50.80923 
L 78.633487 53.579024 
L 80.309882 57.308433 
L 82.356643 62.436898 
L 85.495009 70.987518 
L 89.393601 81.472423 
L 91.459855 86.391753 
L 93.13625 89.834484 
L 94.578729 92.310922 
L 95.845771 94.065391 
L 96.976363 95.270766 
L 98.00949 96.059391 
L 98.945152 96.507343 
L 99.841828 96.694745 
L 100.699519 96.650813 
L 101.576702 96.380543 
L 102.492871 95.857571 
L 103.467519 95.036879 
L 104.539632 93.829955 
L 105.728703 92.137621 
L 107.054224 89.845396 
L 108.574675 86.747654 
L 110.368027 82.558923 
L 112.668197 76.577025 
L 114.773436 70.78737 
L 114.773436 70.78737 
" style="fill:none;stroke:#ff0000;stroke-linecap:square;stroke-width:0.2;"/>
   </g>
   <g id="line2d_11">
    <path clip-path="url(#p44301cdf1e)" d="M 0 0 
" style="fill:none;stroke:#ff0000;stroke-linecap:square;stroke-width:0.2;"/>
   </g>
   <g id="patch_3">
    <path d="M 7.2 120.78439 
L 7.2 7.2 
" style="fill:none;stroke:#000000;stroke-linecap:square;stroke-linejoin:miter;stroke-width:0.8;"/>
   </g>
   <g id="patch_4">
    <path d="M 114.766265 120.78439 
L 114.766265 7.2 
" style="fill:none;stroke:#000000;stroke-linecap:square;stroke-linejoin:miter;stroke-width:0.8;"/>
   </g>
   <g id="patch_5">
    <path d="M 7.2 120.78439 
L 114.766265 120.78439 
" style="fill:none;stroke:#000000;stroke-linecap:square;stroke-linejoin:miter;stroke-width:0.8;"/>
   </g>
   <g id="patch_6">
    <path d="M 7.2 7.2 
L 114.766265 7.2 
" style="fill:none;stroke:#000000;stroke-linecap:square;stroke-linejoin:miter;stroke-width:0.8;"/>
   </g>
   <g id="text_1">
    <!-- t = 0.0 $\mathrm{s}$ -->
    <defs>
     <path d="M 18.3125 70.21875 
L 18.3125 54.6875 
L 36.8125 54.6875 
L 36.8125 47.703125 
L 18.3125 47.703125 
L 18.3125 18.015625 
Q 18.3125 11.328125 20.140625 9.421875 
Q 21.96875 7.515625 27.59375 7.515625 
L 36.8125 7.515625 
L 36.8125 0 
L 27.59375 0 
Q 17.1875 0 13.234375 3.875 
Q 9.28125 7.765625 9.28125 18.015625 
L 9.28125 47.703125 
L 2.6875 47.703125 
L 2.6875 54.6875 
L 9.28125 54.6875 
L 9.28125 70.21875 
z
" id="DejaVuSans-116"/>
     <path id="DejaVuSans-32"/>
     <path d="M 10.59375 45.40625 
L 73.1875 45.40625 
L 73.1875 37.203125 
L 10.59375 37.203125 
z
M 10.59375 25.484375 
L 73.1875 25.484375 
L 73.1875 17.1875 
L 10.59375 17.1875 
z
" id="DejaVuSans-61"/>
     <path d="M 31.78125 66.40625 
Q 24.171875 66.40625 20.328125 58.90625 
Q 16.5 51.421875 16.5 36.375 
Q 16.5 21.390625 20.328125 13.890625 
Q 24.171875 6.390625 31.78125 6.390625 
Q 39.453125 6.390625 43.28125 13.890625 
Q 47.125 21.390625 47.125 36.375 
Q 47.125 51.421875 43.28125 58.90625 
Q 39.453125 66.40625 31.78125 66.40625 
z
M 31.78125 74.21875 
Q 44.046875 74.21875 50.515625 64.515625 
Q 56.984375 54.828125 56.984375 36.375 
Q 56.984375 17.96875 50.515625 8.265625 
Q 44.046875 -1.421875 31.78125 -1.421875 
Q 19.53125 -1.421875 13.0625 8.265625 
Q 6.59375 17.96875 6.59375 36.375 
Q 6.59375 54.828125 13.0625 64.515625 
Q 19.53125 74.21875 31.78125 74.21875 
z
" id="DejaVuSans-48"/>
     <path d="M 10.6875 12.40625 
L 21 12.40625 
L 21 0 
L 10.6875 0 
z
" id="DejaVuSans-46"/>
     <path d="M 44.28125 53.078125 
L 44.28125 44.578125 
Q 40.484375 46.53125 36.375 47.5 
Q 32.28125 48.484375 27.875 48.484375 
Q 21.1875 48.484375 17.84375 46.4375 
Q 14.5 44.390625 14.5 40.28125 
Q 14.5 37.15625 16.890625 35.375 
Q 19.28125 33.59375 26.515625 31.984375 
L 29.59375 31.296875 
Q 39.15625 29.25 43.1875 25.515625 
Q 47.21875 21.78125 47.21875 15.09375 
Q 47.21875 7.46875 41.1875 3.015625 
Q 35.15625 -1.421875 24.609375 -1.421875 
Q 20.21875 -1.421875 15.453125 -0.5625 
Q 10.6875 0.296875 5.421875 2 
L 5.421875 11.28125 
Q 10.40625 8.6875 15.234375 7.390625 
Q 20.0625 6.109375 24.8125 6.109375 
Q 31.15625 6.109375 34.5625 8.28125 
Q 37.984375 10.453125 37.984375 14.40625 
Q 37.984375 18.0625 35.515625 20.015625 
Q 33.0625 21.96875 24.703125 23.78125 
L 21.578125 24.515625 
Q 13.234375 26.265625 9.515625 29.90625 
Q 5.8125 33.546875 5.8125 39.890625 
Q 5.8125 47.609375 11.28125 51.796875 
Q 16.75 56 26.8125 56 
Q 31.78125 56 36.171875 55.265625 
Q 40.578125 54.546875 44.28125 53.078125 
z
" id="DejaVuSans-115"/>
    </defs>
    <g transform="translate(12.578313 115.105171)scale(0.1 -0.1)">
     <use transform="translate(0 0.78125)" xlink:href="#DejaVuSans-116"/>
     <use transform="translate(39.208984 0.78125)" xlink:href="#DejaVuSans-32"/>
     <use transform="translate(70.996094 0.78125)" xlink:href="#DejaVuSans-61"/>
     <use transform="translate(154.785156 0.78125)" xlink:href="#DejaVuSans-32"/>
     <use transform="translate(186.572266 0.78125)" xlink:href="#DejaVuSans-48"/>
     <use transform="translate(250.195312 0.78125)" xlink:href="#DejaVuSans-46"/>
     <use transform="translate(281.982422 0.78125)" xlink:href="#DejaVuSans-48"/>
     <use transform="translate(345.605469 0.78125)" xlink:href="#DejaVuSans-32"/>
     <use transform="translate(377.392578 0.78125)" xlink:href="#DejaVuSans-115"/>
    </g>
   </g>
   <g id="text_2">
    <!-- a) A=5.7 $\lambda=30$ -->
    <defs>
     <path d="M 34.28125 27.484375 
Q 23.390625 27.484375 19.1875 25 
Q 14.984375 22.515625 14.984375 16.5 
Q 14.984375 11.71875 18.140625 8.90625 
Q 21.296875 6.109375 26.703125 6.109375 
Q 34.1875 6.109375 38.703125 11.40625 
Q 43.21875 16.703125 43.21875 25.484375 
L 43.21875 27.484375 
z
M 52.203125 31.203125 
L 52.203125 0 
L 43.21875 0 
L 43.21875 8.296875 
Q 40.140625 3.328125 35.546875 0.953125 
Q 30.953125 -1.421875 24.3125 -1.421875 
Q 15.921875 -1.421875 10.953125 3.296875 
Q 6 8.015625 6 15.921875 
Q 6 25.140625 12.171875 29.828125 
Q 18.359375 34.515625 30.609375 34.515625 
L 43.21875 34.515625 
L 43.21875 35.40625 
Q 43.21875 41.609375 39.140625 45 
Q 35.0625 48.390625 27.6875 48.390625 
Q 23 48.390625 18.546875 47.265625 
Q 14.109375 46.140625 10.015625 43.890625 
L 10.015625 52.203125 
Q 14.9375 54.109375 19.578125 55.046875 
Q 24.21875 56 28.609375 56 
Q 40.484375 56 46.34375 49.84375 
Q 52.203125 43.703125 52.203125 31.203125 
z
" id="DejaVuSans-97"/>
     <path d="M 8.015625 75.875 
L 15.828125 75.875 
Q 23.140625 64.359375 26.78125 53.3125 
Q 30.421875 42.28125 30.421875 31.390625 
Q 30.421875 20.453125 26.78125 9.375 
Q 23.140625 -1.703125 15.828125 -13.1875 
L 8.015625 -13.1875 
Q 14.5 -2 17.703125 9.0625 
Q 20.90625 20.125 20.90625 31.390625 
Q 20.90625 42.671875 17.703125 53.65625 
Q 14.5 64.65625 8.015625 75.875 
z
" id="DejaVuSans-41"/>
     <path d="M 34.1875 63.1875 
L 20.796875 26.90625 
L 47.609375 26.90625 
z
M 28.609375 72.90625 
L 39.796875 72.90625 
L 67.578125 0 
L 57.328125 0 
L 50.6875 18.703125 
L 17.828125 18.703125 
L 11.1875 0 
L 0.78125 0 
z
" id="DejaVuSans-65"/>
     <path d="M 10.796875 72.90625 
L 49.515625 72.90625 
L 49.515625 64.59375 
L 19.828125 64.59375 
L 19.828125 46.734375 
Q 21.96875 47.46875 24.109375 47.828125 
Q 26.265625 48.1875 28.421875 48.1875 
Q 40.625 48.1875 47.75 41.5 
Q 54.890625 34.8125 54.890625 23.390625 
Q 54.890625 11.625 47.5625 5.09375 
Q 40.234375 -1.421875 26.90625 -1.421875 
Q 22.3125 -1.421875 17.546875 -0.640625 
Q 12.796875 0.140625 7.71875 1.703125 
L 7.71875 11.625 
Q 12.109375 9.234375 16.796875 8.0625 
Q 21.484375 6.890625 26.703125 6.890625 
Q 35.15625 6.890625 40.078125 11.328125 
Q 45.015625 15.765625 45.015625 23.390625 
Q 45.015625 31 40.078125 35.4375 
Q 35.15625 39.890625 26.703125 39.890625 
Q 22.75 39.890625 18.8125 39.015625 
Q 14.890625 38.140625 10.796875 36.28125 
z
" id="DejaVuSans-53"/>
     <path d="M 8.203125 72.90625 
L 55.078125 72.90625 
L 55.078125 68.703125 
L 28.609375 0 
L 18.3125 0 
L 43.21875 64.59375 
L 8.203125 64.59375 
z
" id="DejaVuSans-55"/>
     <path d="M 36.71875 67.4375 
L 48.828125 0 
L 39.3125 0 
L 31.84375 40.4375 
L 5.125 0 
L -4.390625 0 
L 29.734375 52.4375 
L 28.03125 62.109375 
Q 26.953125 68.265625 21.734375 68.265625 
L 17.046875 68.265625 
L 18.5 75.984375 
L 24.21875 75.875 
Q 35.203125 75.734375 36.71875 67.4375 
z
" id="DejaVuSans-Oblique-955"/>
     <path d="M 40.578125 39.3125 
Q 47.65625 37.796875 51.625 33 
Q 55.609375 28.21875 55.609375 21.1875 
Q 55.609375 10.40625 48.1875 4.484375 
Q 40.765625 -1.421875 27.09375 -1.421875 
Q 22.515625 -1.421875 17.65625 -0.515625 
Q 12.796875 0.390625 7.625 2.203125 
L 7.625 11.71875 
Q 11.71875 9.328125 16.59375 8.109375 
Q 21.484375 6.890625 26.8125 6.890625 
Q 36.078125 6.890625 40.9375 10.546875 
Q 45.796875 14.203125 45.796875 21.1875 
Q 45.796875 27.640625 41.28125 31.265625 
Q 36.765625 34.90625 28.71875 34.90625 
L 20.21875 34.90625 
L 20.21875 43.015625 
L 29.109375 43.015625 
Q 36.375 43.015625 40.234375 45.921875 
Q 44.09375 48.828125 44.09375 54.296875 
Q 44.09375 59.90625 40.109375 62.90625 
Q 36.140625 65.921875 28.71875 65.921875 
Q 24.65625 65.921875 20.015625 65.03125 
Q 15.375 64.15625 9.8125 62.3125 
L 9.8125 71.09375 
Q 15.4375 72.65625 20.34375 73.4375 
Q 25.25 74.21875 29.59375 74.21875 
Q 40.828125 74.21875 47.359375 69.109375 
Q 53.90625 64.015625 53.90625 55.328125 
Q 53.90625 49.265625 50.4375 45.09375 
Q 46.96875 40.921875 40.578125 39.3125 
z
" id="DejaVuSans-51"/>
    </defs>
    <g transform="translate(12.578313 18.558439)scale(0.1 -0.1)">
     <use transform="translate(0 0.015625)" xlink:href="#DejaVuSans-97"/>
     <use transform="translate(61.279297 0.015625)" xlink:href="#DejaVuSans-41"/>
     <use transform="translate(100.292969 0.015625)" xlink:href="#DejaVuSans-32"/>
     <use transform="translate(132.080078 0.015625)" xlink:href="#DejaVuSans-65"/>
     <use transform="translate(200.488281 0.015625)" xlink:href="#DejaVuSans-61"/>
     <use transform="translate(284.277344 0.015625)" xlink:href="#DejaVuSans-53"/>
     <use transform="translate(347.900391 0.015625)" xlink:href="#DejaVuSans-46"/>
     <use transform="translate(371.9375 0.015625)" xlink:href="#DejaVuSans-55"/>
     <use transform="translate(435.560547 0.015625)" xlink:href="#DejaVuSans-32"/>
     <use transform="translate(467.347656 0.015625)" xlink:href="#DejaVuSans-Oblique-955"/>
     <use transform="translate(546.009766 0.015625)" xlink:href="#DejaVuSans-61"/>
     <use transform="translate(649.28125 0.015625)" xlink:href="#DejaVuSans-51"/>
     <use transform="translate(712.904297 0.015625)" xlink:href="#DejaVuSans-48"/>
    </g>
   </g>
  </g>
  <g id="axes_2">
   <g id="patch_7">
    <path d="M 120.144578 120.78439 
L 227.710843 120.78439 
L 227.710843 7.2 
L 120.144578 7.2 
z
" style="fill:#ffffff;"/>
   </g>
   <g id="PathCollection_2">
    <g clip-path="url(#p7e11c8731d)">
     <use style="stroke:#000000;" x="153.0424" xlink:href="#m6cbd80ad22" y="94.217306"/>
    </g>
   </g>
   <g id="Quiver_2">
    <path clip-path="url(#p7e11c8731d)" d="M 153.559587 94.069725 
L 155.182977 99.758782 
L 156.06977 98.946433 
L 155.994018 104.561046 
L 152.966648 99.831919 
L 154.148603 100.053944 
L 152.525213 94.364887 
L 153.559587 94.069725 
"/>
   </g>
   <g id="matplotlib.axis_3">
    <g id="xtick_4">
     <g id="line2d_12"/>
    </g>
    <g id="xtick_5">
     <g id="line2d_13"/>
    </g>
    <g id="xtick_6">
     <g id="line2d_14"/>
    </g>
   </g>
   <g id="matplotlib.axis_4">
    <g id="ytick_7">
     <g id="line2d_15"/>
    </g>
    <g id="ytick_8">
     <g id="line2d_16"/>
    </g>
    <g id="ytick_9">
     <g id="line2d_17"/>
    </g>
    <g id="ytick_10">
     <g id="line2d_18"/>
    </g>
    <g id="ytick_11">
     <g id="line2d_19"/>
    </g>
    <g id="ytick_12">
     <g id="line2d_20"/>
    </g>
   </g>
   <g id="line2d_21">
    <path clip-path="url(#p7e11c8731d)" d="M 120.136364 48.390989 
L 121.344927 46.904737 
L 122.41704 45.920313 
L 123.411181 45.300082 
L 124.32735 44.984124 
L 125.204534 44.914338 
L 126.062224 45.066869 
L 126.9589 45.458311 
L 127.894562 46.115697 
L 128.908196 47.107112 
L 130.019295 48.513843 
L 131.266845 50.467891 
L 132.670338 53.097495 
L 134.288253 56.62011 
L 136.257042 61.468353 
L 139.064029 69.039117 
L 143.761832 81.714873 
L 145.808593 86.56104 
L 147.465495 89.941692 
L 148.888481 92.368982 
L 150.155524 94.111163 
L 151.286115 95.304856 
L 152.319242 96.082365 
L 153.254904 96.520005 
L 154.151581 96.697402 
L 155.009271 96.643877 
L 155.886454 96.363857 
L 156.802623 95.83086 
L 157.777271 94.999787 
L 158.849384 93.781915 
L 160.038455 92.078184 
L 161.363976 89.774397 
L 162.884427 86.665163 
L 164.677779 82.465702 
L 166.997442 76.422339 
L 174.268316 57.049381 
L 176.081161 53.075081 
L 177.601612 50.250003 
L 178.946627 48.202126 
L 180.135697 46.780433 
L 181.20781 45.831597 
L 182.182458 45.254147 
L 183.098627 44.964862 
L 183.975811 44.92079 
L 184.852994 45.104975 
L 185.74967 45.527473 
L 186.704825 46.23359 
L 187.737952 47.28625 
L 188.868544 48.767249 
L 190.135586 50.80923 
L 191.578065 53.579024 
L 193.25446 57.308433 
L 195.301221 62.436898 
L 198.439588 70.987518 
L 202.33818 81.472423 
L 204.404434 86.391753 
L 206.080828 89.834484 
L 207.523307 92.310922 
L 208.79035 94.065391 
L 209.920941 95.270766 
L 210.954068 96.059391 
L 211.889731 96.507343 
L 212.786407 96.694745 
L 213.644097 96.650813 
L 214.52128 96.380543 
L 215.437449 95.857571 
L 216.412097 95.036879 
L 217.48421 93.829955 
L 218.673281 92.137621 
L 219.998802 89.845396 
L 221.519253 86.747654 
L 223.312606 82.558923 
L 225.612775 76.577025 
L 227.718015 70.78737 
L 227.718015 70.78737 
" style="fill:none;stroke:#ff0000;stroke-linecap:square;stroke-width:0.2;"/>
   </g>
   <g id="line2d_22">
    <path clip-path="url(#p7e11c8731d)" d="M 0 0 
" style="fill:none;stroke:#ff0000;stroke-linecap:square;stroke-width:0.2;"/>
   </g>
   <g id="patch_8">
    <path d="M 120.144578 120.78439 
L 120.144578 7.2 
" style="fill:none;stroke:#000000;stroke-linecap:square;stroke-linejoin:miter;stroke-width:0.8;"/>
   </g>
   <g id="patch_9">
    <path d="M 227.710843 120.78439 
L 227.710843 7.2 
" style="fill:none;stroke:#000000;stroke-linecap:square;stroke-linejoin:miter;stroke-width:0.8;"/>
   </g>
   <g id="patch_10">
    <path d="M 120.144578 120.78439 
L 227.710843 120.78439 
" style="fill:none;stroke:#000000;stroke-linecap:square;stroke-linejoin:miter;stroke-width:0.8;"/>
   </g>
   <g id="patch_11">
    <path d="M 120.144578 7.2 
L 227.710843 7.2 
" style="fill:none;stroke:#000000;stroke-linecap:square;stroke-linejoin:miter;stroke-width:0.8;"/>
   </g>
   <g id="text_3">
    <!-- t = 0.5 $\mathrm{s}$ -->
    <g transform="translate(125.522892 115.105171)scale(0.1 -0.1)">
     <use transform="translate(0 0.78125)" xlink:href="#DejaVuSans-116"/>
     <use transform="translate(39.208984 0.78125)" xlink:href="#DejaVuSans-32"/>
     <use transform="translate(70.996094 0.78125)" xlink:href="#DejaVuSans-61"/>
     <use transform="translate(154.785156 0.78125)" xlink:href="#DejaVuSans-32"/>
     <use transform="translate(186.572266 0.78125)" xlink:href="#DejaVuSans-48"/>
     <use transform="translate(250.195312 0.78125)" xlink:href="#DejaVuSans-46"/>
     <use transform="translate(281.982422 0.78125)" xlink:href="#DejaVuSans-53"/>
     <use transform="translate(345.605469 0.78125)" xlink:href="#DejaVuSans-32"/>
     <use transform="translate(377.392578 0.78125)" xlink:href="#DejaVuSans-115"/>
    </g>
   </g>
  </g>
  <g id="axes_3">
   <g id="patch_12">
    <path d="M 233.089157 120.78439 
L 340.655422 120.78439 
L 340.655422 7.2 
L 233.089157 7.2 
z
" style="fill:#ffffff;"/>
   </g>
   <g id="PathCollection_3">
    <g clip-path="url(#p3379d2e272)">
     <use style="stroke:#000000;" x="277.99712" xlink:href="#m6cbd80ad22" y="78.253086"/>
    </g>
   </g>
   <g id="Quiver_3">
    <path clip-path="url(#p3379d2e272)" d="M 278.046645 77.71754 
L 283.937654 78.262316 
L 283.501158 77.141698 
L 288.708046 79.243587 
L 283.204008 80.354976 
L 283.838604 79.333408 
L 277.947595 78.788632 
L 278.046645 77.71754 
"/>
   </g>
   <g id="matplotlib.axis_5">
    <g id="xtick_7">
     <g id="line2d_23"/>
    </g>
    <g id="xtick_8">
     <g id="line2d_24"/>
    </g>
    <g id="xtick_9">
     <g id="line2d_25"/>
    </g>
   </g>
   <g id="matplotlib.axis_6">
    <g id="ytick_13">
     <g id="line2d_26"/>
    </g>
    <g id="ytick_14">
     <g id="line2d_27"/>
    </g>
    <g id="ytick_15">
     <g id="line2d_28"/>
    </g>
    <g id="ytick_16">
     <g id="line2d_29"/>
    </g>
    <g id="ytick_17">
     <g id="line2d_30"/>
    </g>
    <g id="ytick_18">
     <g id="line2d_31"/>
    </g>
   </g>
   <g id="line2d_32">
    <path clip-path="url(#p3379d2e272)" d="M 233.080942 48.390989 
L 234.289506 46.904737 
L 235.361619 45.920313 
L 236.35576 45.300082 
L 237.271929 44.984124 
L 238.149112 44.914338 
L 239.006802 45.066869 
L 239.903478 45.458311 
L 240.839141 46.115697 
L 241.852775 47.107112 
L 242.963873 48.513843 
L 244.211423 50.467891 
L 245.614916 53.097495 
L 247.232832 56.62011 
L 249.201621 61.468353 
L 252.008607 69.039117 
L 256.706411 81.714873 
L 258.753172 86.56104 
L 260.410073 89.941692 
L 261.833059 92.368982 
L 263.100102 94.111163 
L 264.230694 95.304856 
L 265.263821 96.082365 
L 266.199483 96.520005 
L 267.096159 96.697402 
L 267.953849 96.643877 
L 268.831032 96.363857 
L 269.747202 95.83086 
L 270.72185 94.999787 
L 271.793962 93.781915 
L 272.983033 92.078184 
L 274.308554 89.774397 
L 275.829005 86.665163 
L 277.622358 82.465702 
L 279.94202 76.422339 
L 287.212894 57.049381 
L 289.02574 53.075081 
L 290.546191 50.250003 
L 291.891205 48.202126 
L 293.080276 46.780433 
L 294.152388 45.831597 
L 295.127037 45.254147 
L 296.043206 44.964862 
L 296.920389 44.92079 
L 297.797572 45.104975 
L 298.694248 45.527473 
L 299.649403 46.23359 
L 300.68253 47.28625 
L 301.813122 48.767249 
L 303.080165 50.80923 
L 304.522644 53.579024 
L 306.199038 57.308433 
L 308.245799 62.436898 
L 311.384166 70.987518 
L 315.282758 81.472423 
L 317.349012 86.391753 
L 319.025406 89.834484 
L 320.467886 92.310922 
L 321.734928 94.065391 
L 322.86552 95.270766 
L 323.898647 96.059391 
L 324.834309 96.507343 
L 325.730985 96.694745 
L 326.588675 96.650813 
L 327.465859 96.380543 
L 328.382028 95.857571 
L 329.356676 95.036879 
L 330.428789 93.829955 
L 331.617859 92.137621 
L 332.943381 89.845396 
L 334.463831 86.747654 
L 336.257184 82.558923 
L 338.557353 76.577025 
L 340.662593 70.78737 
L 340.662593 70.78737 
" style="fill:none;stroke:#ff0000;stroke-linecap:square;stroke-width:0.2;"/>
   </g>
   <g id="line2d_33">
    <path clip-path="url(#p3379d2e272)" d="M 0 0 
" style="fill:none;stroke:#ff0000;stroke-linecap:square;stroke-width:0.2;"/>
   </g>
   <g id="patch_13">
    <path d="M 233.089157 120.78439 
L 233.089157 7.2 
" style="fill:none;stroke:#000000;stroke-linecap:square;stroke-linejoin:miter;stroke-width:0.8;"/>
   </g>
   <g id="patch_14">
    <path d="M 340.655422 120.78439 
L 340.655422 7.2 
" style="fill:none;stroke:#000000;stroke-linecap:square;stroke-linejoin:miter;stroke-width:0.8;"/>
   </g>
   <g id="patch_15">
    <path d="M 233.089157 120.78439 
L 340.655422 120.78439 
" style="fill:none;stroke:#000000;stroke-linecap:square;stroke-linejoin:miter;stroke-width:0.8;"/>
   </g>
   <g id="patch_16">
    <path d="M 233.089157 7.2 
L 340.655422 7.2 
" style="fill:none;stroke:#000000;stroke-linecap:square;stroke-linejoin:miter;stroke-width:0.8;"/>
   </g>
   <g id="text_4">
    <!-- t = 1.5 $\mathrm{s}$ -->
    <defs>
     <path d="M 12.40625 8.296875 
L 28.515625 8.296875 
L 28.515625 63.921875 
L 10.984375 60.40625 
L 10.984375 69.390625 
L 28.421875 72.90625 
L 38.28125 72.90625 
L 38.28125 8.296875 
L 54.390625 8.296875 
L 54.390625 0 
L 12.40625 0 
z
" id="DejaVuSans-49"/>
    </defs>
    <g transform="translate(238.46747 115.105171)scale(0.1 -0.1)">
     <use transform="translate(0 0.09375)" xlink:href="#DejaVuSans-116"/>
     <use transform="translate(39.208984 0.09375)" xlink:href="#DejaVuSans-32"/>
     <use transform="translate(70.996094 0.09375)" xlink:href="#DejaVuSans-61"/>
     <use transform="translate(154.785156 0.09375)" xlink:href="#DejaVuSans-32"/>
     <use transform="translate(186.572266 0.09375)" xlink:href="#DejaVuSans-49"/>
     <use transform="translate(250.195312 0.09375)" xlink:href="#DejaVuSans-46"/>
     <use transform="translate(281.982422 0.09375)" xlink:href="#DejaVuSans-53"/>
     <use transform="translate(345.605469 0.09375)" xlink:href="#DejaVuSans-32"/>
     <use transform="translate(377.392578 0.09375)" xlink:href="#DejaVuSans-115"/>
    </g>
   </g>
  </g>
  <g id="axes_4">
   <g id="patch_17">
    <path d="M 346.033735 120.78439 
L 453.6 120.78439 
L 453.6 7.2 
L 346.033735 7.2 
z
" style="fill:#ffffff;"/>
   </g>
   <g id="PathCollection_4">
    <g clip-path="url(#p967bd7ae6a)">
     <use style="stroke:#000000;" x="410.627113" xlink:href="#m6cbd80ad22" y="32.920864"/>
    </g>
   </g>
   <g id="Quiver_4">
    <path clip-path="url(#p967bd7ae6a)" d="M 410.261208 32.526687 
L 414.597156 28.501726 
L 413.471168 28.079277 
L 418.510656 25.602752 
L 415.666602 30.44434 
L 415.328968 29.29008 
L 410.993019 33.315041 
L 410.261208 32.526687 
"/>
   </g>
   <g id="matplotlib.axis_7">
    <g id="xtick_10">
     <g id="line2d_34"/>
    </g>
    <g id="xtick_11">
     <g id="line2d_35"/>
    </g>
    <g id="xtick_12">
     <g id="line2d_36"/>
    </g>
   </g>
   <g id="matplotlib.axis_8">
    <g id="ytick_19">
     <g id="line2d_37"/>
    </g>
    <g id="ytick_20">
     <g id="line2d_38"/>
    </g>
    <g id="ytick_21">
     <g id="line2d_39"/>
    </g>
    <g id="ytick_22">
     <g id="line2d_40"/>
    </g>
    <g id="ytick_23">
     <g id="line2d_41"/>
    </g>
    <g id="ytick_24">
     <g id="line2d_42"/>
    </g>
   </g>
   <g id="line2d_43">
    <path clip-path="url(#p967bd7ae6a)" d="M 346.025521 48.390989 
L 347.234084 46.904737 
L 348.306197 45.920313 
L 349.300338 45.300082 
L 350.216507 44.984124 
L 351.09369 44.914338 
L 351.951381 45.066869 
L 352.848057 45.458311 
L 353.783719 46.115697 
L 354.797353 47.107112 
L 355.908452 48.513843 
L 357.156001 50.467891 
L 358.559494 53.097495 
L 360.17741 56.62011 
L 362.146199 61.468353 
L 364.953185 69.039117 
L 369.650989 81.714873 
L 371.69775 86.56104 
L 373.354652 89.941692 
L 374.777638 92.368982 
L 376.04468 94.111163 
L 377.175272 95.304856 
L 378.208399 96.082365 
L 379.144061 96.520005 
L 380.040737 96.697402 
L 380.898427 96.643877 
L 381.775611 96.363857 
L 382.69178 95.83086 
L 383.666428 94.999787 
L 384.738541 93.781915 
L 385.927611 92.078184 
L 387.253133 89.774397 
L 388.773584 86.665163 
L 390.566936 82.465702 
L 392.886598 76.422339 
L 400.157473 57.049381 
L 401.970318 53.075081 
L 403.490769 50.250003 
L 404.835783 48.202126 
L 406.024854 46.780433 
L 407.096967 45.831597 
L 408.071615 45.254147 
L 408.987784 44.964862 
L 409.864967 44.92079 
L 410.74215 45.104975 
L 411.638827 45.527473 
L 412.593982 46.23359 
L 413.627109 47.28625 
L 414.7577 48.767249 
L 416.024743 50.80923 
L 417.467222 53.579024 
L 419.143617 57.308433 
L 421.190377 62.436898 
L 424.328744 70.987518 
L 428.227336 81.472423 
L 430.29359 86.391753 
L 431.969985 89.834484 
L 433.412464 92.310922 
L 434.679506 94.065391 
L 435.810098 95.270766 
L 436.843225 96.059391 
L 437.778887 96.507343 
L 438.675563 96.694745 
L 439.533254 96.650813 
L 440.410437 96.380543 
L 441.326606 95.857571 
L 442.301254 95.036879 
L 443.373367 93.829955 
L 444.562437 92.137621 
L 445.887959 89.845396 
L 447.40841 86.747654 
L 449.201762 82.558923 
L 451.501932 76.577025 
L 453.607171 70.78737 
L 453.607171 70.78737 
" style="fill:none;stroke:#ff0000;stroke-linecap:square;stroke-width:0.2;"/>
   </g>
   <g id="line2d_44">
    <path clip-path="url(#p967bd7ae6a)" d="M 0 0 
" style="fill:none;stroke:#ff0000;stroke-linecap:square;stroke-width:0.2;"/>
   </g>
   <g id="patch_18">
    <path d="M 346.033735 120.78439 
L 346.033735 7.2 
" style="fill:none;stroke:#000000;stroke-linecap:square;stroke-linejoin:miter;stroke-width:0.8;"/>
   </g>
   <g id="patch_19">
    <path d="M 453.6 120.78439 
L 453.6 7.2 
" style="fill:none;stroke:#000000;stroke-linecap:square;stroke-linejoin:miter;stroke-width:0.8;"/>
   </g>
   <g id="patch_20">
    <path d="M 346.033735 120.78439 
L 453.6 120.78439 
" style="fill:none;stroke:#000000;stroke-linecap:square;stroke-linejoin:miter;stroke-width:0.8;"/>
   </g>
   <g id="patch_21">
    <path d="M 346.033735 7.2 
L 453.6 7.2 
" style="fill:none;stroke:#000000;stroke-linecap:square;stroke-linejoin:miter;stroke-width:0.8;"/>
   </g>
   <g id="text_5">
    <!-- t = 2.3 $\mathrm{s}$ -->
    <defs>
     <path d="M 19.1875 8.296875 
L 53.609375 8.296875 
L 53.609375 0 
L 7.328125 0 
L 7.328125 8.296875 
Q 12.9375 14.109375 22.625 23.890625 
Q 32.328125 33.6875 34.8125 36.53125 
Q 39.546875 41.84375 41.421875 45.53125 
Q 43.3125 49.21875 43.3125 52.78125 
Q 43.3125 58.59375 39.234375 62.25 
Q 35.15625 65.921875 28.609375 65.921875 
Q 23.96875 65.921875 18.8125 64.3125 
Q 13.671875 62.703125 7.8125 59.421875 
L 7.8125 69.390625 
Q 13.765625 71.78125 18.9375 73 
Q 24.125 74.21875 28.421875 74.21875 
Q 39.75 74.21875 46.484375 68.546875 
Q 53.21875 62.890625 53.21875 53.421875 
Q 53.21875 48.921875 51.53125 44.890625 
Q 49.859375 40.875 45.40625 35.40625 
Q 44.1875 33.984375 37.640625 27.21875 
Q 31.109375 20.453125 19.1875 8.296875 
z
" id="DejaVuSans-50"/>
    </defs>
    <g transform="translate(351.412048 115.105171)scale(0.1 -0.1)">
     <use transform="translate(0 0.78125)" xlink:href="#DejaVuSans-116"/>
     <use transform="translate(39.208984 0.78125)" xlink:href="#DejaVuSans-32"/>
     <use transform="translate(70.996094 0.78125)" xlink:href="#DejaVuSans-61"/>
     <use transform="translate(154.785156 0.78125)" xlink:href="#DejaVuSans-32"/>
     <use transform="translate(186.572266 0.78125)" xlink:href="#DejaVuSans-50"/>
     <use transform="translate(250.195312 0.78125)" xlink:href="#DejaVuSans-46"/>
     <use transform="translate(281.982422 0.78125)" xlink:href="#DejaVuSans-51"/>
     <use transform="translate(345.605469 0.78125)" xlink:href="#DejaVuSans-32"/>
     <use transform="translate(377.392578 0.78125)" xlink:href="#DejaVuSans-115"/>
    </g>
   </g>
  </g>
  <g id="axes_5">
   <g id="patch_22">
    <path d="M 7.2 240.048 
L 114.766265 240.048 
L 114.766265 126.46361 
L 7.2 126.46361 
z
" style="fill:#ffffff;"/>
   </g>
   <g id="PathCollection_5">
    <g clip-path="url(#pc85c35a7e8)">
     <use style="stroke:#000000;" x="65.492233" xlink:href="#m6cbd80ad22" y="215.97187"/>
    </g>
   </g>
   <g id="Quiver_5">
    <path clip-path="url(#pc85c35a7e8)" d="M 65.94203 216.266735 
L 62.69851 221.214497 
L 63.892968 221.354431 
L 59.594924 224.9678 
L 61.194189 219.585238 
L 61.798917 220.624766 
L 65.042437 215.677004 
L 65.94203 216.266735 
"/>
   </g>
   <g id="matplotlib.axis_9">
    <g id="xtick_13">
     <g id="line2d_45"/>
    </g>
    <g id="xtick_14">
     <g id="line2d_46"/>
    </g>
    <g id="xtick_15">
     <g id="line2d_47"/>
    </g>
   </g>
   <g id="matplotlib.axis_10">
    <g id="ytick_25">
     <g id="line2d_48"/>
    </g>
    <g id="ytick_26">
     <g id="line2d_49"/>
    </g>
    <g id="ytick_27">
     <g id="line2d_50"/>
    </g>
    <g id="ytick_28">
     <g id="line2d_51"/>
    </g>
   </g>
   <g id="line2d_52">
    <path clip-path="url(#pc85c35a7e8)" d="M 7.197653 219.315561 
L 8.347738 221.292939 
L 9.361372 222.619909 
L 10.277541 223.470245 
L 11.096245 223.942651 
L 11.856471 224.134981 
L 12.597203 224.09293 
L 13.337936 223.824667 
L 14.117654 223.299775 
L 14.975344 222.439483 
L 15.911007 221.171361 
L 16.963626 219.349221 
L 18.133204 216.860937 
L 19.458725 213.499013 
L 20.998669 208.957412 
L 22.850501 202.759515 
L 25.326107 193.623883 
L 31.290953 171.314336 
L 33.201263 165.192494 
L 34.780193 160.844503 
L 36.1447 157.709759 
L 37.33377 155.504645 
L 38.38639 153.992382 
L 39.322052 153.011381 
L 40.179743 152.421374 
L 40.959461 152.146107 
L 41.700194 152.116799 
L 42.440926 152.313941 
L 43.201152 152.750427 
L 44.019856 153.482423 
L 44.936025 154.616736 
L 45.949659 156.246697 
L 47.080251 158.50638 
L 48.366786 161.603079 
L 49.828758 165.728485 
L 51.563632 171.325682 
L 53.766336 179.238086 
L 61.680479 208.41227 
L 63.395859 213.508115 
L 64.857831 217.182832 
L 66.124874 219.795401 
L 67.235972 221.608657 
L 68.230113 222.830292 
L 69.12679 223.595365 
L 69.926001 224.001962 
L 70.686226 224.145003 
L 71.426959 224.05486 
L 72.167691 223.738744 
L 72.966903 223.146554 
L 73.844086 222.201677 
L 74.799241 220.831422 
L 75.871354 218.886943 
L 77.079918 216.210824 
L 78.444425 212.627374 
L 80.042848 207.771579 
L 81.972651 201.158237 
L 84.721158 190.855562 
L 89.477441 172.994586 
L 91.485216 166.367974 
L 93.122624 161.692951 
L 94.526118 158.326166 
L 95.754174 155.929128 
L 96.84578 154.264127 
L 97.820428 153.167522 
L 98.678118 152.516935 
L 99.47733 152.180807 
L 100.218062 152.1042 
L 100.958795 152.254122 
L 101.71902 152.642539 
L 102.537724 153.323577 
L 103.434401 154.375959 
L 104.428542 155.905695 
L 105.53964 158.046167 
L 106.78719 160.954681 
L 108.210176 164.859979 
L 109.886571 170.144821 
L 111.972317 177.505827 
L 112.810515 180.634213 
L 112.810515 180.634213 
" style="fill:none;stroke:#ff0000;stroke-linecap:square;stroke-width:0.2;"/>
   </g>
   <g id="line2d_53">
    <path clip-path="url(#pc85c35a7e8)" d="M 0 0 
" style="fill:none;stroke:#ff0000;stroke-linecap:square;stroke-width:0.2;"/>
   </g>
   <g id="line2d_54">
    <path clip-path="url(#pc85c35a7e8)" d="M 82.496386 234.36878 
L 102.053888 234.36878 
" style="fill:none;stroke:#000000;stroke-linecap:square;stroke-width:2;"/>
   </g>
   <g id="patch_23">
    <path d="M 7.2 240.048 
L 7.2 126.46361 
" style="fill:none;stroke:#000000;stroke-linecap:square;stroke-linejoin:miter;stroke-width:0.8;"/>
   </g>
   <g id="patch_24">
    <path d="M 114.766265 240.048 
L 114.766265 126.46361 
" style="fill:none;stroke:#000000;stroke-linecap:square;stroke-linejoin:miter;stroke-width:0.8;"/>
   </g>
   <g id="patch_25">
    <path d="M 7.2 240.048 
L 114.766265 240.048 
" style="fill:none;stroke:#000000;stroke-linecap:square;stroke-linejoin:miter;stroke-width:0.8;"/>
   </g>
   <g id="patch_26">
    <path d="M 7.2 126.46361 
L 114.766265 126.46361 
" style="fill:none;stroke:#000000;stroke-linecap:square;stroke-linejoin:miter;stroke-width:0.8;"/>
   </g>
   <g id="text_6">
    <!-- t = 0.0 $\mathrm{s}$ -->
    <g transform="translate(12.578313 234.36878)scale(0.1 -0.1)">
     <use transform="translate(0 0.78125)" xlink:href="#DejaVuSans-116"/>
     <use transform="translate(39.208984 0.78125)" xlink:href="#DejaVuSans-32"/>
     <use transform="translate(70.996094 0.78125)" xlink:href="#DejaVuSans-61"/>
     <use transform="translate(154.785156 0.78125)" xlink:href="#DejaVuSans-32"/>
     <use transform="translate(186.572266 0.78125)" xlink:href="#DejaVuSans-48"/>
     <use transform="translate(250.195312 0.78125)" xlink:href="#DejaVuSans-46"/>
     <use transform="translate(281.982422 0.78125)" xlink:href="#DejaVuSans-48"/>
     <use transform="translate(345.605469 0.78125)" xlink:href="#DejaVuSans-32"/>
     <use transform="translate(377.392578 0.78125)" xlink:href="#DejaVuSans-115"/>
    </g>
   </g>
   <g id="text_7">
    <!-- a) A=11.1 $\lambda=30$ -->
    <g transform="translate(12.578313 137.822049)scale(0.1 -0.1)">
     <use transform="translate(0 0.015625)" xlink:href="#DejaVuSans-97"/>
     <use transform="translate(61.279297 0.015625)" xlink:href="#DejaVuSans-41"/>
     <use transform="translate(100.292969 0.015625)" xlink:href="#DejaVuSans-32"/>
     <use transform="translate(132.080078 0.015625)" xlink:href="#DejaVuSans-65"/>
     <use transform="translate(200.488281 0.015625)" xlink:href="#DejaVuSans-61"/>
     <use transform="translate(284.277344 0.015625)" xlink:href="#DejaVuSans-49"/>
     <use transform="translate(347.900391 0.015625)" xlink:href="#DejaVuSans-49"/>
     <use transform="translate(411.523438 0.015625)" xlink:href="#DejaVuSans-46"/>
     <use transform="translate(443.310547 0.015625)" xlink:href="#DejaVuSans-49"/>
     <use transform="translate(506.933594 0.015625)" xlink:href="#DejaVuSans-32"/>
     <use transform="translate(538.720703 0.015625)" xlink:href="#DejaVuSans-Oblique-955"/>
     <use transform="translate(617.382812 0.015625)" xlink:href="#DejaVuSans-61"/>
     <use transform="translate(720.654297 0.015625)" xlink:href="#DejaVuSans-51"/>
     <use transform="translate(784.277344 0.015625)" xlink:href="#DejaVuSans-48"/>
    </g>
   </g>
   <g id="text_8">
    <!-- 10 $\mathrm{\mu m}$ -->
    <defs>
     <path d="M 8.5 -20.796875 
L 8.5 54.6875 
L 17.484375 54.6875 
L 17.484375 20.703125 
Q 17.484375 13.625 20.84375 10 
Q 24.21875 6.390625 30.8125 6.390625 
Q 38.03125 6.390625 41.671875 10.484375 
Q 45.3125 14.59375 45.3125 22.796875 
L 45.3125 54.6875 
L 54.296875 54.6875 
L 54.296875 12.59375 
Q 54.296875 9.671875 55.140625 8.28125 
Q 56 6.890625 57.8125 6.890625 
Q 58.25 6.890625 59.03125 7.15625 
Q 59.8125 7.421875 61.1875 8.015625 
L 61.1875 0.78125 
Q 59.1875 -0.34375 57.390625 -0.875 
Q 55.609375 -1.421875 53.90625 -1.421875 
Q 50.53125 -1.421875 48.53125 0.484375 
Q 46.53125 2.390625 45.796875 6.296875 
Q 43.359375 2.4375 39.8125 0.5 
Q 36.28125 -1.421875 31.5 -1.421875 
Q 26.515625 -1.421875 23.015625 0.484375 
Q 19.53125 2.390625 17.484375 6.203125 
L 17.484375 -20.796875 
z
" id="DejaVuSans-956"/>
     <path d="M 52 44.1875 
Q 55.375 50.25 60.0625 53.125 
Q 64.75 56 71.09375 56 
Q 79.640625 56 84.28125 50.015625 
Q 88.921875 44.046875 88.921875 33.015625 
L 88.921875 0 
L 79.890625 0 
L 79.890625 32.71875 
Q 79.890625 40.578125 77.09375 44.375 
Q 74.3125 48.1875 68.609375 48.1875 
Q 61.625 48.1875 57.5625 43.546875 
Q 53.515625 38.921875 53.515625 30.90625 
L 53.515625 0 
L 44.484375 0 
L 44.484375 32.71875 
Q 44.484375 40.625 41.703125 44.40625 
Q 38.921875 48.1875 33.109375 48.1875 
Q 26.21875 48.1875 22.15625 43.53125 
Q 18.109375 38.875 18.109375 30.90625 
L 18.109375 0 
L 9.078125 0 
L 9.078125 54.6875 
L 18.109375 54.6875 
L 18.109375 46.1875 
Q 21.1875 51.21875 25.484375 53.609375 
Q 29.78125 56 35.6875 56 
Q 41.65625 56 45.828125 52.96875 
Q 50 49.953125 52 44.1875 
z
" id="DejaVuSans-109"/>
    </defs>
    <g transform="translate(77.118072 228.689561)scale(0.1 -0.1)">
     <use transform="translate(0 0.78125)" xlink:href="#DejaVuSans-49"/>
     <use transform="translate(63.623047 0.78125)" xlink:href="#DejaVuSans-48"/>
     <use transform="translate(127.246094 0.78125)" xlink:href="#DejaVuSans-32"/>
     <use transform="translate(159.033203 0.78125)" xlink:href="#DejaVuSans-956"/>
     <use transform="translate(222.65625 0.78125)" xlink:href="#DejaVuSans-109"/>
    </g>
   </g>
  </g>
  <g id="axes_6">
   <g id="patch_27">
    <path d="M 120.144578 240.048 
L 227.710843 240.048 
L 227.710843 126.46361 
L 120.144578 126.46361 
z
" style="fill:#ffffff;"/>
   </g>
   <g id="PathCollection_6">
    <g clip-path="url(#p77aed626d5)">
     <use style="stroke:#000000;" x="183.888712" xlink:href="#m6cbd80ad22" y="222.579491"/>
    </g>
   </g>
   <g id="Quiver_6">
    <path clip-path="url(#p77aed626d5)" d="M 184.426247 222.561647 
L 184.62253 228.474535 
L 185.679756 227.901312 
L 184.24559 233.330196 
L 182.454545 228.008375 
L 183.547459 228.510223 
L 183.351177 222.597335 
L 184.426247 222.561647 
"/>
   </g>
   <g id="matplotlib.axis_11">
    <g id="xtick_16">
     <g id="line2d_55"/>
    </g>
    <g id="xtick_17">
     <g id="line2d_56"/>
    </g>
    <g id="xtick_18">
     <g id="line2d_57"/>
    </g>
   </g>
   <g id="matplotlib.axis_12">
    <g id="ytick_29">
     <g id="line2d_58"/>
    </g>
    <g id="ytick_30">
     <g id="line2d_59"/>
    </g>
    <g id="ytick_31">
     <g id="line2d_60"/>
    </g>
    <g id="ytick_32">
     <g id="line2d_61"/>
    </g>
   </g>
   <g id="line2d_62">
    <path clip-path="url(#p77aed626d5)" d="M 120.142231 219.315561 
L 121.292316 221.292939 
L 122.30595 222.619909 
L 123.222119 223.470245 
L 124.040824 223.942651 
L 124.801049 224.134981 
L 125.541781 224.09293 
L 126.282514 223.824667 
L 127.062232 223.299775 
L 127.919923 222.439483 
L 128.855585 221.171361 
L 129.908205 219.349221 
L 131.077782 216.860937 
L 132.403304 213.499013 
L 133.943248 208.957412 
L 135.795079 202.759515 
L 138.270685 193.623883 
L 144.235531 171.314336 
L 146.145841 165.192494 
L 147.724771 160.844503 
L 149.089278 157.709759 
L 150.278349 155.504645 
L 151.330969 153.992382 
L 152.266631 153.011381 
L 153.124321 152.421374 
L 153.904039 152.146107 
L 154.644772 152.116799 
L 155.385505 152.313941 
L 156.14573 152.750427 
L 156.964434 153.482423 
L 157.880603 154.616736 
L 158.894237 156.246697 
L 160.024829 158.50638 
L 161.311365 161.603079 
L 162.773337 165.728485 
L 164.50821 171.325682 
L 166.710915 179.238086 
L 174.625057 208.41227 
L 176.340437 213.508115 
L 177.802409 217.182832 
L 179.069452 219.795401 
L 180.180551 221.608657 
L 181.174692 222.830292 
L 182.071368 223.595365 
L 182.870579 224.001962 
L 183.630805 224.145003 
L 184.371537 224.05486 
L 185.11227 223.738744 
L 185.911481 223.146554 
L 186.788664 222.201677 
L 187.743819 220.831422 
L 188.815932 218.886943 
L 190.024496 216.210824 
L 191.389003 212.627374 
L 192.987426 207.771579 
L 194.917229 201.158237 
L 197.665737 190.855562 
L 202.422019 172.994586 
L 204.429794 166.367974 
L 206.067203 161.692951 
L 207.470696 158.326166 
L 208.698752 155.929128 
L 209.790358 154.264127 
L 210.765006 153.167522 
L 211.622696 152.516935 
L 212.421908 152.180807 
L 213.16264 152.1042 
L 213.903373 152.254122 
L 214.663598 152.642539 
L 215.482303 153.323577 
L 216.378979 154.375959 
L 217.37312 155.905695 
L 218.484219 158.046167 
L 219.731768 160.954681 
L 221.154754 164.859979 
L 222.831149 170.144821 
L 224.916896 177.505827 
L 225.755093 180.634213 
L 225.755093 180.634213 
" style="fill:none;stroke:#ff0000;stroke-linecap:square;stroke-width:0.2;"/>
   </g>
   <g id="line2d_63">
    <path clip-path="url(#p77aed626d5)" d="M 0 0 
" style="fill:none;stroke:#ff0000;stroke-linecap:square;stroke-width:0.2;"/>
   </g>
   <g id="patch_28">
    <path d="M 120.144578 240.048 
L 120.144578 126.46361 
" style="fill:none;stroke:#000000;stroke-linecap:square;stroke-linejoin:miter;stroke-width:0.8;"/>
   </g>
   <g id="patch_29">
    <path d="M 227.710843 240.048 
L 227.710843 126.46361 
" style="fill:none;stroke:#000000;stroke-linecap:square;stroke-linejoin:miter;stroke-width:0.8;"/>
   </g>
   <g id="patch_30">
    <path d="M 120.144578 240.048 
L 227.710843 240.048 
" style="fill:none;stroke:#000000;stroke-linecap:square;stroke-linejoin:miter;stroke-width:0.8;"/>
   </g>
   <g id="patch_31">
    <path d="M 120.144578 126.46361 
L 227.710843 126.46361 
" style="fill:none;stroke:#000000;stroke-linecap:square;stroke-linejoin:miter;stroke-width:0.8;"/>
   </g>
   <g id="text_9">
    <!-- t = 2.0 $\mathrm{s}$ -->
    <g transform="translate(125.522892 234.36878)scale(0.1 -0.1)">
     <use transform="translate(0 0.78125)" xlink:href="#DejaVuSans-116"/>
     <use transform="translate(39.208984 0.78125)" xlink:href="#DejaVuSans-32"/>
     <use transform="translate(70.996094 0.78125)" xlink:href="#DejaVuSans-61"/>
     <use transform="translate(154.785156 0.78125)" xlink:href="#DejaVuSans-32"/>
     <use transform="translate(186.572266 0.78125)" xlink:href="#DejaVuSans-50"/>
     <use transform="translate(250.195312 0.78125)" xlink:href="#DejaVuSans-46"/>
     <use transform="translate(281.982422 0.78125)" xlink:href="#DejaVuSans-48"/>
     <use transform="translate(345.605469 0.78125)" xlink:href="#DejaVuSans-32"/>
     <use transform="translate(377.392578 0.78125)" xlink:href="#DejaVuSans-115"/>
    </g>
   </g>
  </g>
  <g id="axes_7">
   <g id="patch_32">
    <path d="M 233.089157 240.048 
L 340.655422 240.048 
L 340.655422 126.46361 
L 233.089157 126.46361 
z
" style="fill:#ffffff;"/>
   </g>
   <g id="PathCollection_7">
    <g clip-path="url(#p29cd4c9e98)">
     <use style="stroke:#000000;" x="299.243598" xlink:href="#m6cbd80ad22" y="220.86189"/>
    </g>
   </g>
   <g id="Quiver_7">
    <path clip-path="url(#p29cd4c9e98)" d="M 299.637242 220.495411 
L 303.668515 224.825492 
L 304.089323 223.69889 
L 306.573186 228.734765 
L 301.727461 225.897766 
L 302.881228 225.558451 
L 298.849955 221.22837 
L 299.637242 220.495411 
"/>
   </g>
   <g id="matplotlib.axis_13">
    <g id="xtick_19">
     <g id="line2d_64"/>
    </g>
    <g id="xtick_20">
     <g id="line2d_65"/>
    </g>
    <g id="xtick_21">
     <g id="line2d_66"/>
    </g>
   </g>
   <g id="matplotlib.axis_14">
    <g id="ytick_33">
     <g id="line2d_67"/>
    </g>
    <g id="ytick_34">
     <g id="line2d_68"/>
    </g>
    <g id="ytick_35">
     <g id="line2d_69"/>
    </g>
    <g id="ytick_36">
     <g id="line2d_70"/>
    </g>
   </g>
   <g id="line2d_71">
    <path clip-path="url(#p29cd4c9e98)" d="M 233.08681 219.315561 
L 234.236894 221.292939 
L 235.250528 222.619909 
L 236.166697 223.470245 
L 236.985402 223.942651 
L 237.745627 224.134981 
L 238.48636 224.09293 
L 239.227092 223.824667 
L 240.006811 223.299775 
L 240.864501 222.439483 
L 241.800163 221.171361 
L 242.852783 219.349221 
L 244.022361 216.860937 
L 245.347882 213.499013 
L 246.887826 208.957412 
L 248.739657 202.759515 
L 251.215263 193.623883 
L 257.180109 171.314336 
L 259.090419 165.192494 
L 260.669349 160.844503 
L 262.033856 157.709759 
L 263.222927 155.504645 
L 264.275547 153.992382 
L 265.211209 153.011381 
L 266.068899 152.421374 
L 266.848618 152.146107 
L 267.58935 152.116799 
L 268.330083 152.313941 
L 269.090308 152.750427 
L 269.909013 153.482423 
L 270.825182 154.616736 
L 271.838816 156.246697 
L 272.969408 158.50638 
L 274.255943 161.603079 
L 275.717915 165.728485 
L 277.452788 171.325682 
L 279.655493 179.238086 
L 287.569635 208.41227 
L 289.285016 213.508115 
L 290.746988 217.182832 
L 292.01403 219.795401 
L 293.125129 221.608657 
L 294.11927 222.830292 
L 295.015946 223.595365 
L 295.815158 224.001962 
L 296.575383 224.145003 
L 297.316116 224.05486 
L 298.056848 223.738744 
L 298.856059 223.146554 
L 299.733243 222.201677 
L 300.688398 220.831422 
L 301.760511 218.886943 
L 302.969074 216.210824 
L 304.333581 212.627374 
L 305.932004 207.771579 
L 307.861807 201.158237 
L 310.610315 190.855562 
L 315.366597 172.994586 
L 317.374372 166.367974 
L 319.011781 161.692951 
L 320.415274 158.326166 
L 321.643331 155.929128 
L 322.734936 154.264127 
L 323.709585 153.167522 
L 324.567275 152.516935 
L 325.366486 152.180807 
L 326.107219 152.1042 
L 326.847951 152.254122 
L 327.608177 152.642539 
L 328.426881 153.323577 
L 329.323557 154.375959 
L 330.317698 155.905695 
L 331.428797 158.046167 
L 332.676347 160.954681 
L 334.099333 164.859979 
L 335.775727 170.144821 
L 337.861474 177.505827 
L 338.699671 180.634213 
L 338.699671 180.634213 
" style="fill:none;stroke:#ff0000;stroke-linecap:square;stroke-width:0.2;"/>
   </g>
   <g id="line2d_72">
    <path clip-path="url(#p29cd4c9e98)" d="M 0 0 
" style="fill:none;stroke:#ff0000;stroke-linecap:square;stroke-width:0.2;"/>
   </g>
   <g id="patch_33">
    <path d="M 233.089157 240.048 
L 233.089157 126.46361 
" style="fill:none;stroke:#000000;stroke-linecap:square;stroke-linejoin:miter;stroke-width:0.8;"/>
   </g>
   <g id="patch_34">
    <path d="M 340.655422 240.048 
L 340.655422 126.46361 
" style="fill:none;stroke:#000000;stroke-linecap:square;stroke-linejoin:miter;stroke-width:0.8;"/>
   </g>
   <g id="patch_35">
    <path d="M 233.089157 240.048 
L 340.655422 240.048 
" style="fill:none;stroke:#000000;stroke-linecap:square;stroke-linejoin:miter;stroke-width:0.8;"/>
   </g>
   <g id="patch_36">
    <path d="M 233.089157 126.46361 
L 340.655422 126.46361 
" style="fill:none;stroke:#000000;stroke-linecap:square;stroke-linejoin:miter;stroke-width:0.8;"/>
   </g>
   <g id="text_10">
    <!-- t = 5.0 $\mathrm{s}$ -->
    <g transform="translate(238.46747 234.36878)scale(0.1 -0.1)">
     <use transform="translate(0 0.78125)" xlink:href="#DejaVuSans-116"/>
     <use transform="translate(39.208984 0.78125)" xlink:href="#DejaVuSans-32"/>
     <use transform="translate(70.996094 0.78125)" xlink:href="#DejaVuSans-61"/>
     <use transform="translate(154.785156 0.78125)" xlink:href="#DejaVuSans-32"/>
     <use transform="translate(186.572266 0.78125)" xlink:href="#DejaVuSans-53"/>
     <use transform="translate(250.195312 0.78125)" xlink:href="#DejaVuSans-46"/>
     <use transform="translate(281.982422 0.78125)" xlink:href="#DejaVuSans-48"/>
     <use transform="translate(345.605469 0.78125)" xlink:href="#DejaVuSans-32"/>
     <use transform="translate(377.392578 0.78125)" xlink:href="#DejaVuSans-115"/>
    </g>
   </g>
  </g>
  <g id="axes_8">
   <g id="patch_37">
    <path d="M 346.033735 240.048 
L 453.6 240.048 
L 453.6 126.46361 
L 346.033735 126.46361 
z
" style="fill:#ffffff;"/>
   </g>
   <g id="PathCollection_8">
    <g clip-path="url(#pb68235ed93)">
     <use style="stroke:#000000;" x="437.580243" xlink:href="#m6cbd80ad22" y="146.331975"/>
    </g>
   </g>
   <g id="Quiver_8">
    <path clip-path="url(#pb68235ed93)" d="M 437.166937 145.987823 
L 440.952605 141.441453 
L 439.78184 141.166456 
L 444.463276 138.065847 
L 442.261679 143.231366 
L 441.779217 142.129756 
L 437.993549 146.676127 
L 437.166937 145.987823 
"/>
   </g>
   <g id="matplotlib.axis_15">
    <g id="xtick_22">
     <g id="line2d_73"/>
    </g>
    <g id="xtick_23">
     <g id="line2d_74"/>
    </g>
    <g id="xtick_24">
     <g id="line2d_75"/>
    </g>
   </g>
   <g id="matplotlib.axis_16">
    <g id="ytick_37">
     <g id="line2d_76"/>
    </g>
    <g id="ytick_38">
     <g id="line2d_77"/>
    </g>
    <g id="ytick_39">
     <g id="line2d_78"/>
    </g>
    <g id="ytick_40">
     <g id="line2d_79"/>
    </g>
   </g>
   <g id="line2d_80">
    <path clip-path="url(#pb68235ed93)" d="M 346.031388 219.315561 
L 347.181473 221.292939 
L 348.195107 222.619909 
L 349.111276 223.470245 
L 349.92998 223.942651 
L 350.690206 224.134981 
L 351.430938 224.09293 
L 352.171671 223.824667 
L 352.951389 223.299775 
L 353.809079 222.439483 
L 354.744741 221.171361 
L 355.797361 219.349221 
L 356.966939 216.860937 
L 358.29246 213.499013 
L 359.832404 208.957412 
L 361.684236 202.759515 
L 364.159842 193.623883 
L 370.124688 171.314336 
L 372.034998 165.192494 
L 373.613928 160.844503 
L 374.978435 157.709759 
L 376.167505 155.504645 
L 377.220125 153.992382 
L 378.155787 153.011381 
L 379.013478 152.421374 
L 379.793196 152.146107 
L 380.533929 152.116799 
L 381.274661 152.313941 
L 382.034887 152.750427 
L 382.853591 153.482423 
L 383.76976 154.616736 
L 384.783394 156.246697 
L 385.913986 158.50638 
L 387.200521 161.603079 
L 388.662493 165.728485 
L 390.397367 171.325682 
L 392.600071 179.238086 
L 400.514213 208.41227 
L 402.229594 213.508115 
L 403.691566 217.182832 
L 404.958609 219.795401 
L 406.069707 221.608657 
L 407.063848 222.830292 
L 407.960525 223.595365 
L 408.759736 224.001962 
L 409.519961 224.145003 
L 410.260694 224.05486 
L 411.001426 223.738744 
L 411.800638 223.146554 
L 412.677821 222.201677 
L 413.632976 220.831422 
L 414.705089 218.886943 
L 415.913653 216.210824 
L 417.27816 212.627374 
L 418.876583 207.771579 
L 420.806386 201.158237 
L 423.554893 190.855562 
L 428.311176 172.994586 
L 430.318951 166.367974 
L 431.956359 161.692951 
L 433.359852 158.326166 
L 434.587909 155.929128 
L 435.679515 154.264127 
L 436.654163 153.167522 
L 437.511853 152.516935 
L 438.311065 152.180807 
L 439.051797 152.1042 
L 439.79253 152.254122 
L 440.552755 152.642539 
L 441.371459 153.323577 
L 442.268136 154.375959 
L 443.262277 155.905695 
L 444.373375 158.046167 
L 445.620925 160.954681 
L 447.043911 164.859979 
L 448.720306 170.144821 
L 450.806052 177.505827 
L 451.64425 180.634213 
L 451.64425 180.634213 
" style="fill:none;stroke:#ff0000;stroke-linecap:square;stroke-width:0.2;"/>
   </g>
   <g id="line2d_81">
    <path clip-path="url(#pb68235ed93)" d="M 0 0 
" style="fill:none;stroke:#ff0000;stroke-linecap:square;stroke-width:0.2;"/>
   </g>
   <g id="patch_38">
    <path d="M 346.033735 240.048 
L 346.033735 126.46361 
" style="fill:none;stroke:#000000;stroke-linecap:square;stroke-linejoin:miter;stroke-width:0.8;"/>
   </g>
   <g id="patch_39">
    <path d="M 453.6 240.048 
L 453.6 126.46361 
" style="fill:none;stroke:#000000;stroke-linecap:square;stroke-linejoin:miter;stroke-width:0.8;"/>
   </g>
   <g id="patch_40">
    <path d="M 346.033735 240.048 
L 453.6 240.048 
" style="fill:none;stroke:#000000;stroke-linecap:square;stroke-linejoin:miter;stroke-width:0.8;"/>
   </g>
   <g id="patch_41">
    <path d="M 346.033735 126.46361 
L 453.6 126.46361 
" style="fill:none;stroke:#000000;stroke-linecap:square;stroke-linejoin:miter;stroke-width:0.8;"/>
   </g>
   <g id="text_11">
    <!-- t = 7.3 $\mathrm{s}$ -->
    <g transform="translate(351.412048 234.36878)scale(0.1 -0.1)">
     <use transform="translate(0 0.78125)" xlink:href="#DejaVuSans-116"/>
     <use transform="translate(39.208984 0.78125)" xlink:href="#DejaVuSans-32"/>
     <use transform="translate(70.996094 0.78125)" xlink:href="#DejaVuSans-61"/>
     <use transform="translate(154.785156 0.78125)" xlink:href="#DejaVuSans-32"/>
     <use transform="translate(186.572266 0.78125)" xlink:href="#DejaVuSans-55"/>
     <use transform="translate(250.195312 0.78125)" xlink:href="#DejaVuSans-46"/>
     <use transform="translate(281.982422 0.78125)" xlink:href="#DejaVuSans-51"/>
     <use transform="translate(345.605469 0.78125)" xlink:href="#DejaVuSans-32"/>
     <use transform="translate(377.392578 0.78125)" xlink:href="#DejaVuSans-115"/>
    </g>
   </g>
  </g>
 </g>
 <defs>
  <clipPath id="p44301cdf1e">
   <rect height="113.58439" width="107.566265" x="7.2" y="7.2"/>
  </clipPath>
  <clipPath id="p7e11c8731d">
   <rect height="113.58439" width="107.566265" x="120.144578" y="7.2"/>
  </clipPath>
  <clipPath id="p3379d2e272">
   <rect height="113.58439" width="107.566265" x="233.089157" y="7.2"/>
  </clipPath>
  <clipPath id="p967bd7ae6a">
   <rect height="113.58439" width="107.566265" x="346.033735" y="7.2"/>
  </clipPath>
  <clipPath id="pc85c35a7e8">
   <rect height="113.58439" width="107.566265" x="7.2" y="126.46361"/>
  </clipPath>
  <clipPath id="p77aed626d5">
   <rect height="113.58439" width="107.566265" x="120.144578" y="126.46361"/>
  </clipPath>
  <clipPath id="p29cd4c9e98">
   <rect height="113.58439" width="107.566265" x="233.089157" y="126.46361"/>
  </clipPath>
  <clipPath id="pb68235ed93">
   <rect height="113.58439" width="107.566265" x="346.033735" y="126.46361"/>
  </clipPath>
 </defs>
</svg>
