<?xml version="1.0" encoding="utf-8" standalone="no"?>
<!DOCTYPE svg PUBLIC "-//W3C//DTD SVG 1.1//EN"
  "http://www.w3.org/Graphics/SVG/1.1/DTD/svg11.dtd">
<!-- Created with matplotlib (https://matplotlib.org/) -->
<svg height="240.098437pt" version="1.1" viewBox="0 0 509.76 240.098437" width="509.76pt" xmlns="http://www.w3.org/2000/svg" xmlns:xlink="http://www.w3.org/1999/xlink">
 <defs>
  <style type="text/css">
*{stroke-linecap:butt;stroke-linejoin:round;}
  </style>
 </defs>
 <g id="figure_1">
  <g id="patch_1">
   <path d="M 0 240.098437 
L 509.76 240.098437 
L 509.76 0 
L 0 0 
z
" style="fill:#ffffff;"/>
  </g>
  <g id="axes_1">
   <g id="patch_2">
    <path d="M 56.16 202.718437 
L 250.246957 202.718437 
L 250.246957 36.398437 
L 56.16 36.398437 
z
" style="fill:#ffffff;"/>
   </g>
   <g id="axes_2">
    <g id="patch_3">
     <path d="M 56.16 36.398437 
L 250.246957 36.398437 
L 250.246957 36.398437 
L 56.16 36.398437 
z
" style="fill:#ffffff;"/>
    </g>
    <g id="matplotlib.axis_1">
     <g id="xtick_1">
      <g id="line2d_1">
       <defs>
        <path d="M 0 0 
L 0 -3.5 
" id="m4f047a7053" style="stroke:#000000;stroke-width:0.8;"/>
       </defs>
       <g>
        <use style="stroke:#000000;stroke-width:0.8;" x="104.681739" xlink:href="#m4f047a7053" y="36.398437"/>
       </g>
      </g>
      <g id="text_1">
       <!-- −0.25 -->
       <defs>
        <path d="M 10.59375 35.5 
L 73.1875 35.5 
L 73.1875 27.203125 
L 10.59375 27.203125 
z
" id="DejaVuSans-8722"/>
        <path d="M 31.78125 66.40625 
Q 24.171875 66.40625 20.328125 58.90625 
Q 16.5 51.421875 16.5 36.375 
Q 16.5 21.390625 20.328125 13.890625 
Q 24.171875 6.390625 31.78125 6.390625 
Q 39.453125 6.390625 43.28125 13.890625 
Q 47.125 21.390625 47.125 36.375 
Q 47.125 51.421875 43.28125 58.90625 
Q 39.453125 66.40625 31.78125 66.40625 
z
M 31.78125 74.21875 
Q 44.046875 74.21875 50.515625 64.515625 
Q 56.984375 54.828125 56.984375 36.375 
Q 56.984375 17.96875 50.515625 8.265625 
Q 44.046875 -1.421875 31.78125 -1.421875 
Q 19.53125 -1.421875 13.0625 8.265625 
Q 6.59375 17.96875 6.59375 36.375 
Q 6.59375 54.828125 13.0625 64.515625 
Q 19.53125 74.21875 31.78125 74.21875 
z
" id="DejaVuSans-48"/>
        <path d="M 10.6875 12.40625 
L 21 12.40625 
L 21 0 
L 10.6875 0 
z
" id="DejaVuSans-46"/>
        <path d="M 19.1875 8.296875 
L 53.609375 8.296875 
L 53.609375 0 
L 7.328125 0 
L 7.328125 8.296875 
Q 12.9375 14.109375 22.625 23.890625 
Q 32.328125 33.6875 34.8125 36.53125 
Q 39.546875 41.84375 41.421875 45.53125 
Q 43.3125 49.21875 43.3125 52.78125 
Q 43.3125 58.59375 39.234375 62.25 
Q 35.15625 65.921875 28.609375 65.921875 
Q 23.96875 65.921875 18.8125 64.3125 
Q 13.671875 62.703125 7.8125 59.421875 
L 7.8125 69.390625 
Q 13.765625 71.78125 18.9375 73 
Q 24.125 74.21875 28.421875 74.21875 
Q 39.75 74.21875 46.484375 68.546875 
Q 53.21875 62.890625 53.21875 53.421875 
Q 53.21875 48.921875 51.53125 44.890625 
Q 49.859375 40.875 45.40625 35.40625 
Q 44.1875 33.984375 37.640625 27.21875 
Q 31.109375 20.453125 19.1875 8.296875 
z
" id="DejaVuSans-50"/>
        <path d="M 10.796875 72.90625 
L 49.515625 72.90625 
L 49.515625 64.59375 
L 19.828125 64.59375 
L 19.828125 46.734375 
Q 21.96875 47.46875 24.109375 47.828125 
Q 26.265625 48.1875 28.421875 48.1875 
Q 40.625 48.1875 47.75 41.5 
Q 54.890625 34.8125 54.890625 23.390625 
Q 54.890625 11.625 47.5625 5.09375 
Q 40.234375 -1.421875 26.90625 -1.421875 
Q 22.3125 -1.421875 17.546875 -0.640625 
Q 12.796875 0.140625 7.71875 1.703125 
L 7.71875 11.625 
Q 12.109375 9.234375 16.796875 8.0625 
Q 21.484375 6.890625 26.703125 6.890625 
Q 35.15625 6.890625 40.078125 11.328125 
Q 45.015625 15.765625 45.015625 23.390625 
Q 45.015625 31 40.078125 35.4375 
Q 35.15625 39.890625 26.703125 39.890625 
Q 22.75 39.890625 18.8125 39.015625 
Q 14.890625 38.140625 10.796875 36.28125 
z
" id="DejaVuSans-53"/>
       </defs>
       <g transform="translate(89.359083 27.31875)scale(0.1 -0.1)">
        <use xlink:href="#DejaVuSans-8722"/>
        <use x="83.789062" xlink:href="#DejaVuSans-48"/>
        <use x="147.412109" xlink:href="#DejaVuSans-46"/>
        <use x="179.199219" xlink:href="#DejaVuSans-50"/>
        <use x="242.822266" xlink:href="#DejaVuSans-53"/>
       </g>
      </g>
     </g>
     <g id="xtick_2">
      <g id="line2d_2">
       <g>
        <use style="stroke:#000000;stroke-width:0.8;" x="153.203478" xlink:href="#m4f047a7053" y="36.398437"/>
       </g>
      </g>
      <g id="text_2">
       <!-- 0.00 -->
       <g transform="translate(142.070666 27.31875)scale(0.1 -0.1)">
        <use xlink:href="#DejaVuSans-48"/>
        <use x="63.623047" xlink:href="#DejaVuSans-46"/>
        <use x="95.410156" xlink:href="#DejaVuSans-48"/>
        <use x="159.033203" xlink:href="#DejaVuSans-48"/>
       </g>
      </g>
     </g>
     <g id="xtick_3">
      <g id="line2d_3">
       <g>
        <use style="stroke:#000000;stroke-width:0.8;" x="201.725217" xlink:href="#m4f047a7053" y="36.398437"/>
       </g>
      </g>
      <g id="text_3">
       <!-- 0.25 -->
       <g transform="translate(190.592405 27.31875)scale(0.1 -0.1)">
        <use xlink:href="#DejaVuSans-48"/>
        <use x="63.623047" xlink:href="#DejaVuSans-46"/>
        <use x="95.410156" xlink:href="#DejaVuSans-50"/>
        <use x="159.033203" xlink:href="#DejaVuSans-53"/>
       </g>
      </g>
     </g>
    </g>
    <g id="matplotlib.axis_2"/>
    <g id="patch_4">
     <path d="M 56.16 36.398437 
L 250.246957 36.398437 
" style="fill:none;stroke:#000000;stroke-linecap:square;stroke-linejoin:miter;stroke-width:0.8;"/>
    </g>
   </g>
   <g id="matplotlib.axis_3">
    <g id="xtick_4">
     <g id="line2d_4">
      <defs>
       <path d="M 0 0 
L 0 6 
" id="m840e6fd23f" style="stroke:#000000;stroke-width:0.8;"/>
      </defs>
      <g>
       <use style="stroke:#000000;stroke-width:0.8;" x="104.681739" xlink:href="#m840e6fd23f" y="202.718437"/>
      </g>
     </g>
     <g id="text_4">
      <!-- −6.75 -->
      <defs>
       <path d="M 33.015625 40.375 
Q 26.375 40.375 22.484375 35.828125 
Q 18.609375 31.296875 18.609375 23.390625 
Q 18.609375 15.53125 22.484375 10.953125 
Q 26.375 6.390625 33.015625 6.390625 
Q 39.65625 6.390625 43.53125 10.953125 
Q 47.40625 15.53125 47.40625 23.390625 
Q 47.40625 31.296875 43.53125 35.828125 
Q 39.65625 40.375 33.015625 40.375 
z
M 52.59375 71.296875 
L 52.59375 62.3125 
Q 48.875 64.0625 45.09375 64.984375 
Q 41.3125 65.921875 37.59375 65.921875 
Q 27.828125 65.921875 22.671875 59.328125 
Q 17.53125 52.734375 16.796875 39.40625 
Q 19.671875 43.65625 24.015625 45.921875 
Q 28.375 48.1875 33.59375 48.1875 
Q 44.578125 48.1875 50.953125 41.515625 
Q 57.328125 34.859375 57.328125 23.390625 
Q 57.328125 12.15625 50.6875 5.359375 
Q 44.046875 -1.421875 33.015625 -1.421875 
Q 20.359375 -1.421875 13.671875 8.265625 
Q 6.984375 17.96875 6.984375 36.375 
Q 6.984375 53.65625 15.1875 63.9375 
Q 23.390625 74.21875 37.203125 74.21875 
Q 40.921875 74.21875 44.703125 73.484375 
Q 48.484375 72.75 52.59375 71.296875 
z
" id="DejaVuSans-54"/>
       <path d="M 8.203125 72.90625 
L 55.078125 72.90625 
L 55.078125 68.703125 
L 28.609375 0 
L 18.3125 0 
L 43.21875 64.59375 
L 8.203125 64.59375 
z
" id="DejaVuSans-55"/>
      </defs>
      <g transform="translate(89.359083 219.816875)scale(0.1 -0.1)">
       <use xlink:href="#DejaVuSans-8722"/>
       <use x="83.789062" xlink:href="#DejaVuSans-54"/>
       <use x="147.412109" xlink:href="#DejaVuSans-46"/>
       <use x="179.199219" xlink:href="#DejaVuSans-55"/>
       <use x="242.822266" xlink:href="#DejaVuSans-53"/>
      </g>
     </g>
    </g>
    <g id="xtick_5">
     <g id="line2d_5">
      <g>
       <use style="stroke:#000000;stroke-width:0.8;" x="153.203478" xlink:href="#m840e6fd23f" y="202.718437"/>
      </g>
     </g>
     <g id="text_5">
      <!-- 0.00 -->
      <g transform="translate(142.070666 219.816875)scale(0.1 -0.1)">
       <use xlink:href="#DejaVuSans-48"/>
       <use x="63.623047" xlink:href="#DejaVuSans-46"/>
       <use x="95.410156" xlink:href="#DejaVuSans-48"/>
       <use x="159.033203" xlink:href="#DejaVuSans-48"/>
      </g>
     </g>
    </g>
    <g id="xtick_6">
     <g id="line2d_6">
      <g>
       <use style="stroke:#000000;stroke-width:0.8;" x="201.725217" xlink:href="#m840e6fd23f" y="202.718437"/>
      </g>
     </g>
     <g id="text_6">
      <!-- 6.75 -->
      <g transform="translate(190.592405 219.816875)scale(0.1 -0.1)">
       <use xlink:href="#DejaVuSans-54"/>
       <use x="63.623047" xlink:href="#DejaVuSans-46"/>
       <use x="95.410156" xlink:href="#DejaVuSans-55"/>
       <use x="159.033203" xlink:href="#DejaVuSans-53"/>
      </g>
     </g>
    </g>
   </g>
   <g id="matplotlib.axis_4">
    <g id="ytick_1">
     <g id="line2d_7">
      <defs>
       <path d="M 0 0 
L -6 0 
" id="m66cf8bd185" style="stroke:#000000;stroke-width:0.8;"/>
      </defs>
      <g>
       <use style="stroke:#000000;stroke-width:0.8;" x="56.16" xlink:href="#m66cf8bd185" y="188.641618"/>
      </g>
     </g>
     <g id="text_7">
      <!-- 0.0 -->
      <g transform="translate(30.756875 192.440836)scale(0.1 -0.1)">
       <use xlink:href="#DejaVuSans-48"/>
       <use x="63.623047" xlink:href="#DejaVuSans-46"/>
       <use x="95.410156" xlink:href="#DejaVuSans-48"/>
      </g>
     </g>
    </g>
    <g id="ytick_2">
     <g id="line2d_8">
      <g>
       <use style="stroke:#000000;stroke-width:0.8;" x="56.16" xlink:href="#m66cf8bd185" y="160.487978"/>
      </g>
     </g>
     <g id="text_8">
      <!-- 0.2 -->
      <g transform="translate(30.756875 164.287197)scale(0.1 -0.1)">
       <use xlink:href="#DejaVuSans-48"/>
       <use x="63.623047" xlink:href="#DejaVuSans-46"/>
       <use x="95.410156" xlink:href="#DejaVuSans-50"/>
      </g>
     </g>
    </g>
    <g id="ytick_3">
     <g id="line2d_9">
      <g>
       <use style="stroke:#000000;stroke-width:0.8;" x="56.16" xlink:href="#m66cf8bd185" y="132.334338"/>
      </g>
     </g>
     <g id="text_9">
      <!-- 0.4 -->
      <defs>
       <path d="M 37.796875 64.3125 
L 12.890625 25.390625 
L 37.796875 25.390625 
z
M 35.203125 72.90625 
L 47.609375 72.90625 
L 47.609375 25.390625 
L 58.015625 25.390625 
L 58.015625 17.1875 
L 47.609375 17.1875 
L 47.609375 0 
L 37.796875 0 
L 37.796875 17.1875 
L 4.890625 17.1875 
L 4.890625 26.703125 
z
" id="DejaVuSans-52"/>
      </defs>
      <g transform="translate(30.756875 136.133557)scale(0.1 -0.1)">
       <use xlink:href="#DejaVuSans-48"/>
       <use x="63.623047" xlink:href="#DejaVuSans-46"/>
       <use x="95.410156" xlink:href="#DejaVuSans-52"/>
      </g>
     </g>
    </g>
    <g id="ytick_4">
     <g id="line2d_10">
      <g>
       <use style="stroke:#000000;stroke-width:0.8;" x="56.16" xlink:href="#m66cf8bd185" y="104.180699"/>
      </g>
     </g>
     <g id="text_10">
      <!-- 0.6 -->
      <g transform="translate(30.756875 107.979918)scale(0.1 -0.1)">
       <use xlink:href="#DejaVuSans-48"/>
       <use x="63.623047" xlink:href="#DejaVuSans-46"/>
       <use x="95.410156" xlink:href="#DejaVuSans-54"/>
      </g>
     </g>
    </g>
    <g id="ytick_5">
     <g id="line2d_11">
      <g>
       <use style="stroke:#000000;stroke-width:0.8;" x="56.16" xlink:href="#m66cf8bd185" y="76.027059"/>
      </g>
     </g>
     <g id="text_11">
      <!-- 0.8 -->
      <defs>
       <path d="M 31.78125 34.625 
Q 24.75 34.625 20.71875 30.859375 
Q 16.703125 27.09375 16.703125 20.515625 
Q 16.703125 13.921875 20.71875 10.15625 
Q 24.75 6.390625 31.78125 6.390625 
Q 38.8125 6.390625 42.859375 10.171875 
Q 46.921875 13.96875 46.921875 20.515625 
Q 46.921875 27.09375 42.890625 30.859375 
Q 38.875 34.625 31.78125 34.625 
z
M 21.921875 38.8125 
Q 15.578125 40.375 12.03125 44.71875 
Q 8.5 49.078125 8.5 55.328125 
Q 8.5 64.0625 14.71875 69.140625 
Q 20.953125 74.21875 31.78125 74.21875 
Q 42.671875 74.21875 48.875 69.140625 
Q 55.078125 64.0625 55.078125 55.328125 
Q 55.078125 49.078125 51.53125 44.71875 
Q 48 40.375 41.703125 38.8125 
Q 48.828125 37.15625 52.796875 32.3125 
Q 56.78125 27.484375 56.78125 20.515625 
Q 56.78125 9.90625 50.3125 4.234375 
Q 43.84375 -1.421875 31.78125 -1.421875 
Q 19.734375 -1.421875 13.25 4.234375 
Q 6.78125 9.90625 6.78125 20.515625 
Q 6.78125 27.484375 10.78125 32.3125 
Q 14.796875 37.15625 21.921875 38.8125 
z
M 18.3125 54.390625 
Q 18.3125 48.734375 21.84375 45.5625 
Q 25.390625 42.390625 31.78125 42.390625 
Q 38.140625 42.390625 41.71875 45.5625 
Q 45.3125 48.734375 45.3125 54.390625 
Q 45.3125 60.0625 41.71875 63.234375 
Q 38.140625 66.40625 31.78125 66.40625 
Q 25.390625 66.40625 21.84375 63.234375 
Q 18.3125 60.0625 18.3125 54.390625 
z
" id="DejaVuSans-56"/>
      </defs>
      <g transform="translate(30.756875 79.826278)scale(0.1 -0.1)">
       <use xlink:href="#DejaVuSans-48"/>
       <use x="63.623047" xlink:href="#DejaVuSans-46"/>
       <use x="95.410156" xlink:href="#DejaVuSans-56"/>
      </g>
     </g>
    </g>
    <g id="ytick_6">
     <g id="line2d_12">
      <g>
       <use style="stroke:#000000;stroke-width:0.8;" x="56.16" xlink:href="#m66cf8bd185" y="47.87342"/>
      </g>
     </g>
     <g id="text_12">
      <!-- 1.0 -->
      <defs>
       <path d="M 12.40625 8.296875 
L 28.515625 8.296875 
L 28.515625 63.921875 
L 10.984375 60.40625 
L 10.984375 69.390625 
L 28.421875 72.90625 
L 38.28125 72.90625 
L 38.28125 8.296875 
L 54.390625 8.296875 
L 54.390625 0 
L 12.40625 0 
z
" id="DejaVuSans-49"/>
      </defs>
      <g transform="translate(30.756875 51.672638)scale(0.1 -0.1)">
       <use xlink:href="#DejaVuSans-49"/>
       <use x="63.623047" xlink:href="#DejaVuSans-46"/>
       <use x="95.410156" xlink:href="#DejaVuSans-48"/>
      </g>
     </g>
    </g>
   </g>
   <g id="LineCollection_1">
    <path clip-path="url(#p43b51ffd3a)" d="M 54.291014 178.41817 
L 54.291014 157.430298 
" style="fill:none;stroke:#ba55d3;stroke-opacity:0.25;stroke-width:1.5;"/>
    <path clip-path="url(#p43b51ffd3a)" d="M 56.618367 181.137359 
L 56.618367 162.430955 
" style="fill:none;stroke:#ba55d3;stroke-opacity:0.25;stroke-width:1.5;"/>
    <path clip-path="url(#p43b51ffd3a)" d="M 58.945719 178.517581 
L 58.945719 160.55835 
" style="fill:none;stroke:#ba55d3;stroke-opacity:0.25;stroke-width:1.5;"/>
    <path clip-path="url(#p43b51ffd3a)" d="M 61.273071 181.137826 
L 61.273071 160.346767 
" style="fill:none;stroke:#ba55d3;stroke-opacity:0.25;stroke-width:1.5;"/>
    <path clip-path="url(#p43b51ffd3a)" d="M 63.600423 180.835762 
L 63.600423 163.091276 
" style="fill:none;stroke:#ba55d3;stroke-opacity:0.25;stroke-width:1.5;"/>
    <path clip-path="url(#p43b51ffd3a)" d="M 65.927775 182.796062 
L 65.927775 162.488333 
" style="fill:none;stroke:#ba55d3;stroke-opacity:0.25;stroke-width:1.5;"/>
    <path clip-path="url(#p43b51ffd3a)" d="M 68.255127 188.814873 
L 68.255127 162.28231 
" style="fill:none;stroke:#ba55d3;stroke-opacity:0.25;stroke-width:1.5;"/>
    <path clip-path="url(#p43b51ffd3a)" d="M 70.582479 183.167666 
L 70.582479 162.452814 
" style="fill:none;stroke:#ba55d3;stroke-opacity:0.25;stroke-width:1.5;"/>
    <path clip-path="url(#p43b51ffd3a)" d="M 72.909831 183.134001 
L 72.909831 161.884694 
" style="fill:none;stroke:#ba55d3;stroke-opacity:0.25;stroke-width:1.5;"/>
    <path clip-path="url(#p43b51ffd3a)" d="M 75.237183 187.747454 
L 75.237183 165.310747 
" style="fill:none;stroke:#ba55d3;stroke-opacity:0.25;stroke-width:1.5;"/>
    <path clip-path="url(#p43b51ffd3a)" d="M 77.564535 185.002016 
L 77.564535 162.786059 
" style="fill:none;stroke:#ba55d3;stroke-opacity:0.25;stroke-width:1.5;"/>
    <path clip-path="url(#p43b51ffd3a)" d="M 79.891887 191.434111 
L 79.891887 166.219586 
" style="fill:none;stroke:#ba55d3;stroke-opacity:0.25;stroke-width:1.5;"/>
    <path clip-path="url(#p43b51ffd3a)" d="M 82.21924 185.026999 
L 82.21924 163.25048 
" style="fill:none;stroke:#ba55d3;stroke-opacity:0.25;stroke-width:1.5;"/>
    <path clip-path="url(#p43b51ffd3a)" d="M 84.546592 184.019745 
L 84.546592 164.381376 
" style="fill:none;stroke:#ba55d3;stroke-opacity:0.25;stroke-width:1.5;"/>
    <path clip-path="url(#p43b51ffd3a)" d="M 86.873944 188.872202 
L 86.873944 165.876391 
" style="fill:none;stroke:#ba55d3;stroke-opacity:0.25;stroke-width:1.5;"/>
    <path clip-path="url(#p43b51ffd3a)" d="M 89.201296 189.14753 
L 89.201296 165.87345 
" style="fill:none;stroke:#ba55d3;stroke-opacity:0.25;stroke-width:1.5;"/>
    <path clip-path="url(#p43b51ffd3a)" d="M 91.528648 184.897331 
L 91.528648 165.904239 
" style="fill:none;stroke:#ba55d3;stroke-opacity:0.25;stroke-width:1.5;"/>
    <path clip-path="url(#p43b51ffd3a)" d="M 93.856 189.81924 
L 93.856 168.633082 
" style="fill:none;stroke:#ba55d3;stroke-opacity:0.25;stroke-width:1.5;"/>
    <path clip-path="url(#p43b51ffd3a)" d="M 96.183352 190.137865 
L 96.183352 170.302338 
" style="fill:none;stroke:#ba55d3;stroke-opacity:0.25;stroke-width:1.5;"/>
    <path clip-path="url(#p43b51ffd3a)" d="M 98.510704 190.480291 
L 98.510704 167.454003 
" style="fill:none;stroke:#ba55d3;stroke-opacity:0.25;stroke-width:1.5;"/>
    <path clip-path="url(#p43b51ffd3a)" d="M 100.838056 185.923268 
L 100.838056 164.282031 
" style="fill:none;stroke:#ba55d3;stroke-opacity:0.25;stroke-width:1.5;"/>
    <path clip-path="url(#p43b51ffd3a)" d="M 103.165408 187.627313 
L 103.165408 168.935665 
" style="fill:none;stroke:#ba55d3;stroke-opacity:0.25;stroke-width:1.5;"/>
    <path clip-path="url(#p43b51ffd3a)" d="M 105.49276 185.341661 
L 105.49276 163.157762 
" style="fill:none;stroke:#ba55d3;stroke-opacity:0.25;stroke-width:1.5;"/>
    <path clip-path="url(#p43b51ffd3a)" d="M 107.820113 188.912839 
L 107.820113 167.789265 
" style="fill:none;stroke:#ba55d3;stroke-opacity:0.25;stroke-width:1.5;"/>
    <path clip-path="url(#p43b51ffd3a)" d="M 110.147465 191.758404 
L 110.147465 168.911604 
" style="fill:none;stroke:#ba55d3;stroke-opacity:0.25;stroke-width:1.5;"/>
    <path clip-path="url(#p43b51ffd3a)" d="M 112.474817 197.978788 
L 112.474817 171.761619 
" style="fill:none;stroke:#ba55d3;stroke-opacity:0.25;stroke-width:1.5;"/>
    <path clip-path="url(#p43b51ffd3a)" d="M 114.802169 189.455551 
L 114.802169 167.838014 
" style="fill:none;stroke:#ba55d3;stroke-opacity:0.25;stroke-width:1.5;"/>
    <path clip-path="url(#p43b51ffd3a)" d="M 117.129521 192.027303 
L 117.129521 167.679263 
" style="fill:none;stroke:#ba55d3;stroke-opacity:0.25;stroke-width:1.5;"/>
    <path clip-path="url(#p43b51ffd3a)" d="M 119.456873 194.331848 
L 119.456873 170.331518 
" style="fill:none;stroke:#ba55d3;stroke-opacity:0.25;stroke-width:1.5;"/>
    <path clip-path="url(#p43b51ffd3a)" d="M 121.784225 186.58963 
L 121.784225 162.806487 
" style="fill:none;stroke:#ba55d3;stroke-opacity:0.25;stroke-width:1.5;"/>
    <path clip-path="url(#p43b51ffd3a)" d="M 124.111577 189.738393 
L 124.111577 166.479937 
" style="fill:none;stroke:#ba55d3;stroke-opacity:0.25;stroke-width:1.5;"/>
    <path clip-path="url(#p43b51ffd3a)" d="M 126.438929 186.677361 
L 126.438929 163.05918 
" style="fill:none;stroke:#ba55d3;stroke-opacity:0.25;stroke-width:1.5;"/>
    <path clip-path="url(#p43b51ffd3a)" d="M 128.766281 189.111222 
L 128.766281 164.42348 
" style="fill:none;stroke:#ba55d3;stroke-opacity:0.25;stroke-width:1.5;"/>
    <path clip-path="url(#p43b51ffd3a)" d="M 131.093633 183.287438 
L 131.093633 158.08759 
" style="fill:none;stroke:#ba55d3;stroke-opacity:0.25;stroke-width:1.5;"/>
    <path clip-path="url(#p43b51ffd3a)" d="M 133.420986 177.265624 
L 133.420986 153.347792 
" style="fill:none;stroke:#ba55d3;stroke-opacity:0.25;stroke-width:1.5;"/>
    <path clip-path="url(#p43b51ffd3a)" d="M 135.748338 177.561149 
L 135.748338 149.159791 
" style="fill:none;stroke:#ba55d3;stroke-opacity:0.25;stroke-width:1.5;"/>
    <path clip-path="url(#p43b51ffd3a)" d="M 138.07569 176.427548 
L 138.07569 144.594275 
" style="fill:none;stroke:#ba55d3;stroke-opacity:0.25;stroke-width:1.5;"/>
    <path clip-path="url(#p43b51ffd3a)" d="M 140.403042 175.50492 
L 140.403042 142.407334 
" style="fill:none;stroke:#ba55d3;stroke-opacity:0.25;stroke-width:1.5;"/>
    <path clip-path="url(#p43b51ffd3a)" d="M 142.730394 173.971908 
L 142.730394 141.785771 
" style="fill:none;stroke:#ba55d3;stroke-opacity:0.25;stroke-width:1.5;"/>
    <path clip-path="url(#p43b51ffd3a)" d="M 145.057746 178.462638 
L 145.057746 140.244956 
" style="fill:none;stroke:#ba55d3;stroke-opacity:0.25;stroke-width:1.5;"/>
    <path clip-path="url(#p43b51ffd3a)" d="M 147.385098 179.003618 
L 147.385098 141.871806 
" style="fill:none;stroke:#ba55d3;stroke-opacity:0.25;stroke-width:1.5;"/>
    <path clip-path="url(#p43b51ffd3a)" d="M 149.71245 181.898468 
L 149.71245 140.679665 
" style="fill:none;stroke:#ba55d3;stroke-opacity:0.25;stroke-width:1.5;"/>
    <path clip-path="url(#p43b51ffd3a)" d="M 152.039802 187.199266 
L 152.039802 140.4701 
" style="fill:none;stroke:#ba55d3;stroke-opacity:0.25;stroke-width:1.5;"/>
    <path clip-path="url(#p43b51ffd3a)" d="M 154.367154 181.740272 
L 154.367154 134.552208 
" style="fill:none;stroke:#ba55d3;stroke-opacity:0.25;stroke-width:1.5;"/>
    <path clip-path="url(#p43b51ffd3a)" d="M 156.694506 184.090481 
L 156.694506 136.002741 
" style="fill:none;stroke:#ba55d3;stroke-opacity:0.25;stroke-width:1.5;"/>
    <path clip-path="url(#p43b51ffd3a)" d="M 159.021858 184.390163 
L 159.021858 136.127241 
" style="fill:none;stroke:#ba55d3;stroke-opacity:0.25;stroke-width:1.5;"/>
    <path clip-path="url(#p43b51ffd3a)" d="M 161.349211 188.39216 
L 161.349211 143.751876 
" style="fill:none;stroke:#ba55d3;stroke-opacity:0.25;stroke-width:1.5;"/>
    <path clip-path="url(#p43b51ffd3a)" d="M 163.676563 189.401178 
L 163.676563 147.374132 
" style="fill:none;stroke:#ba55d3;stroke-opacity:0.25;stroke-width:1.5;"/>
    <path clip-path="url(#p43b51ffd3a)" d="M 166.003915 192.337667 
L 166.003915 146.245107 
" style="fill:none;stroke:#ba55d3;stroke-opacity:0.25;stroke-width:1.5;"/>
    <path clip-path="url(#p43b51ffd3a)" d="M 168.331267 196.483295 
L 168.331267 152.270449 
" style="fill:none;stroke:#ba55d3;stroke-opacity:0.25;stroke-width:1.5;"/>
    <path clip-path="url(#p43b51ffd3a)" d="M 170.658619 202.769369 
L 170.658619 164.309697 
" style="fill:none;stroke:#ba55d3;stroke-opacity:0.25;stroke-width:1.5;"/>
    <path clip-path="url(#p43b51ffd3a)" d="M 172.985971 198.654312 
L 172.985971 172.406969 
" style="fill:none;stroke:#ba55d3;stroke-opacity:0.25;stroke-width:1.5;"/>
    <path clip-path="url(#p43b51ffd3a)" d="M 175.313323 203.18877 
L 175.313323 175.468715 
" style="fill:none;stroke:#ba55d3;stroke-opacity:0.25;stroke-width:1.5;"/>
    <path clip-path="url(#p43b51ffd3a)" d="M 177.640675 204.609729 
L 177.640675 178.736862 
" style="fill:none;stroke:#ba55d3;stroke-opacity:0.25;stroke-width:1.5;"/>
    <path clip-path="url(#p43b51ffd3a)" d="M 179.968027 202.35554 
L 179.968027 177.304684 
" style="fill:none;stroke:#ba55d3;stroke-opacity:0.25;stroke-width:1.5;"/>
    <path clip-path="url(#p43b51ffd3a)" d="M 182.295379 203.674126 
L 182.295379 178.314755 
" style="fill:none;stroke:#ba55d3;stroke-opacity:0.25;stroke-width:1.5;"/>
    <path clip-path="url(#p43b51ffd3a)" d="M 184.622731 202.027297 
L 184.622731 179.654944 
" style="fill:none;stroke:#ba55d3;stroke-opacity:0.25;stroke-width:1.5;"/>
    <path clip-path="url(#p43b51ffd3a)" d="M 186.950084 203.291029 
L 186.950084 183.007705 
" style="fill:none;stroke:#ba55d3;stroke-opacity:0.25;stroke-width:1.5;"/>
    <path clip-path="url(#p43b51ffd3a)" d="M 189.277436 202.687298 
L 189.277436 180.651316 
" style="fill:none;stroke:#ba55d3;stroke-opacity:0.25;stroke-width:1.5;"/>
    <path clip-path="url(#p43b51ffd3a)" d="M 191.604788 202.471909 
L 191.604788 182.58091 
" style="fill:none;stroke:#ba55d3;stroke-opacity:0.25;stroke-width:1.5;"/>
    <path clip-path="url(#p43b51ffd3a)" d="M 193.93214 203.349448 
L 193.93214 180.859817 
" style="fill:none;stroke:#ba55d3;stroke-opacity:0.25;stroke-width:1.5;"/>
    <path clip-path="url(#p43b51ffd3a)" d="M 196.259492 203.336512 
L 196.259492 184.072884 
" style="fill:none;stroke:#ba55d3;stroke-opacity:0.25;stroke-width:1.5;"/>
    <path clip-path="url(#p43b51ffd3a)" d="M 198.586844 203.484314 
L 198.586844 182.769374 
" style="fill:none;stroke:#ba55d3;stroke-opacity:0.25;stroke-width:1.5;"/>
    <path clip-path="url(#p43b51ffd3a)" d="M 200.914196 203.036908 
L 200.914196 182.263898 
" style="fill:none;stroke:#ba55d3;stroke-opacity:0.25;stroke-width:1.5;"/>
    <path clip-path="url(#p43b51ffd3a)" d="M 203.241548 198.311741 
L 203.241548 182.789128 
" style="fill:none;stroke:#ba55d3;stroke-opacity:0.25;stroke-width:1.5;"/>
    <path clip-path="url(#p43b51ffd3a)" d="M 205.5689 201.348758 
L 205.5689 181.966043 
" style="fill:none;stroke:#ba55d3;stroke-opacity:0.25;stroke-width:1.5;"/>
    <path clip-path="url(#p43b51ffd3a)" d="M 207.896252 197.665899 
L 207.896252 180.805655 
" style="fill:none;stroke:#ba55d3;stroke-opacity:0.25;stroke-width:1.5;"/>
    <path clip-path="url(#p43b51ffd3a)" d="M 210.223604 202.590193 
L 210.223604 179.292408 
" style="fill:none;stroke:#ba55d3;stroke-opacity:0.25;stroke-width:1.5;"/>
    <path clip-path="url(#p43b51ffd3a)" d="M 212.550957 201.019068 
L 212.550957 181.445258 
" style="fill:none;stroke:#ba55d3;stroke-opacity:0.25;stroke-width:1.5;"/>
    <path clip-path="url(#p43b51ffd3a)" d="M 214.878309 198.473317 
L 214.878309 178.005663 
" style="fill:none;stroke:#ba55d3;stroke-opacity:0.25;stroke-width:1.5;"/>
    <path clip-path="url(#p43b51ffd3a)" d="M 217.205661 200.325257 
L 217.205661 179.206399 
" style="fill:none;stroke:#ba55d3;stroke-opacity:0.25;stroke-width:1.5;"/>
    <path clip-path="url(#p43b51ffd3a)" d="M 219.533013 197.049386 
L 219.533013 179.318621 
" style="fill:none;stroke:#ba55d3;stroke-opacity:0.25;stroke-width:1.5;"/>
    <path clip-path="url(#p43b51ffd3a)" d="M 221.860365 190.036429 
L 221.860365 171.821193 
" style="fill:none;stroke:#ba55d3;stroke-opacity:0.25;stroke-width:1.5;"/>
    <path clip-path="url(#p43b51ffd3a)" d="M 224.187717 187.473208 
L 224.187717 174.374912 
" style="fill:none;stroke:#ba55d3;stroke-opacity:0.25;stroke-width:1.5;"/>
    <path clip-path="url(#p43b51ffd3a)" d="M 226.515069 188.700242 
L 226.515069 173.982047 
" style="fill:none;stroke:#ba55d3;stroke-opacity:0.25;stroke-width:1.5;"/>
    <path clip-path="url(#p43b51ffd3a)" d="M 228.842421 185.556719 
L 228.842421 171.796086 
" style="fill:none;stroke:#ba55d3;stroke-opacity:0.25;stroke-width:1.5;"/>
    <path clip-path="url(#p43b51ffd3a)" d="M 231.169773 186.815608 
L 231.169773 171.698886 
" style="fill:none;stroke:#ba55d3;stroke-opacity:0.25;stroke-width:1.5;"/>
    <path clip-path="url(#p43b51ffd3a)" d="M 233.497125 179.722012 
L 233.497125 164.03411 
" style="fill:none;stroke:#ba55d3;stroke-opacity:0.25;stroke-width:1.5;"/>
    <path clip-path="url(#p43b51ffd3a)" d="M 235.824477 182.974934 
L 235.824477 165.728721 
" style="fill:none;stroke:#ba55d3;stroke-opacity:0.25;stroke-width:1.5;"/>
    <path clip-path="url(#p43b51ffd3a)" d="M 238.151829 176.478543 
L 238.151829 161.440156 
" style="fill:none;stroke:#ba55d3;stroke-opacity:0.25;stroke-width:1.5;"/>
    <path clip-path="url(#p43b51ffd3a)" d="M 240.479182 177.306655 
L 240.479182 160.833872 
" style="fill:none;stroke:#ba55d3;stroke-opacity:0.25;stroke-width:1.5;"/>
    <path clip-path="url(#p43b51ffd3a)" d="M 242.806534 173.430951 
L 242.806534 160.501897 
" style="fill:none;stroke:#ba55d3;stroke-opacity:0.25;stroke-width:1.5;"/>
    <path clip-path="url(#p43b51ffd3a)" d="M 245.133886 169.639721 
L 245.133886 155.530659 
" style="fill:none;stroke:#ba55d3;stroke-opacity:0.25;stroke-width:1.5;"/>
    <path clip-path="url(#p43b51ffd3a)" d="M 247.461238 172.402347 
L 247.461238 158.256232 
" style="fill:none;stroke:#ba55d3;stroke-opacity:0.25;stroke-width:1.5;"/>
    <path clip-path="url(#p43b51ffd3a)" d="M 249.78859 166.699215 
L 249.78859 150.763988 
" style="fill:none;stroke:#ba55d3;stroke-opacity:0.25;stroke-width:1.5;"/>
    <path clip-path="url(#p43b51ffd3a)" d="M 252.115942 172.988555 
L 252.115942 159.130494 
" style="fill:none;stroke:#ba55d3;stroke-opacity:0.25;stroke-width:1.5;"/>
   </g>
   <g id="line2d_13">
    <path clip-path="url(#p43b51ffd3a)" d="M 60.041739 134.758636 
L 62.370783 134.811117 
L 64.699826 134.897386 
L 67.02887 135.067414 
L 69.357913 135.383336 
L 71.686957 135.900329 
L 74.016 136.649603 
L 76.345043 137.627034 
L 78.674087 138.789244 
L 81.00313 140.060563 
L 83.332174 141.352227 
L 85.661217 142.586927 
L 87.990261 143.71564 
L 90.319304 144.719674 
L 92.648348 145.603303 
L 94.977391 146.383635 
L 97.306435 147.077106 
L 99.635478 147.68756 
L 101.964522 148.209533 
L 104.293565 148.643138 
L 106.622609 148.994189 
L 108.951652 149.25295 
L 111.280696 149.383712 
L 113.609739 149.345746 
L 115.938783 149.11567 
L 118.267826 148.674565 
L 120.59687 147.973509 
L 122.925913 146.921487 
L 125.254957 145.406423 
L 127.584 143.311571 
L 129.913043 140.490166 
L 132.242087 136.707209 
L 134.57113 131.590958 
L 136.900174 124.636186 
L 139.229217 115.314335 
L 141.558261 103.369304 
L 143.887304 89.274247 
L 146.216348 74.563308 
L 148.545391 61.646369 
L 150.874435 53.045881 
L 153.203478 50.475257 
L 155.532522 54.276423 
L 157.861565 63.421496 
L 160.190609 75.96438 
L 162.519652 89.702389 
L 164.848696 102.785598 
L 167.177739 114.058846 
L 169.506783 123.076514 
L 171.835826 129.904408 
L 174.16487 134.87807 
L 176.493913 138.420963 
L 178.822957 140.937587 
L 181.152 142.756265 
L 183.481043 144.106294 
L 185.810087 145.129113 
L 188.13913 145.91421 
L 190.468174 146.537231 
L 192.797217 147.077863 
L 195.126261 147.604177 
L 197.455304 148.131585 
L 199.784348 148.593148 
L 202.113391 148.860526 
L 204.442435 148.813497 
L 206.771478 148.407761 
L 209.100522 147.690043 
L 211.429565 146.759341 
L 213.758609 145.715837 
L 216.087652 144.631316 
L 218.416696 143.541861 
L 220.745739 142.450687 
L 223.074783 141.338744 
L 225.403826 140.186554 
L 227.73287 139.001977 
L 230.061913 137.836965 
L 232.390957 136.777897 
L 234.72 135.912101 
L 237.049043 135.291793 
L 239.378087 134.916791 
L 241.70713 134.741379 
L 244.036174 134.696756 
L 246.365217 134.716943 
" style="fill:none;stroke:#db5f57;stroke-linecap:square;stroke-opacity:0.7;stroke-width:1.5;"/>
   </g>
   <g id="line2d_14">
    <defs>
     <path d="M 0 1 
C 0.265203 1 0.51958 0.894634 0.707107 0.707107 
C 0.894634 0.51958 1 0.265203 1 0 
C 1 -0.265203 0.894634 -0.51958 0.707107 -0.707107 
C 0.51958 -0.894634 0.265203 -1 0 -1 
C -0.265203 -1 -0.51958 -0.894634 -0.707107 -0.707107 
C -0.894634 -0.51958 -1 -0.265203 -1 0 
C -1 0.265203 -0.894634 0.51958 -0.707107 0.707107 
C -0.51958 0.894634 -0.265203 1 0 1 
z
" id="m1a53180373" style="stroke:#ba55d3;"/>
    </defs>
    <g clip-path="url(#p43b51ffd3a)">
     <use style="fill:#ffffff;stroke:#ba55d3;" x="54.291014" xlink:href="#m1a53180373" y="167.924234"/>
     <use style="fill:#ffffff;stroke:#ba55d3;" x="56.618367" xlink:href="#m1a53180373" y="171.784157"/>
     <use style="fill:#ffffff;stroke:#ba55d3;" x="58.945719" xlink:href="#m1a53180373" y="169.537966"/>
     <use style="fill:#ffffff;stroke:#ba55d3;" x="61.273071" xlink:href="#m1a53180373" y="170.742296"/>
     <use style="fill:#ffffff;stroke:#ba55d3;" x="63.600423" xlink:href="#m1a53180373" y="171.963519"/>
     <use style="fill:#ffffff;stroke:#ba55d3;" x="65.927775" xlink:href="#m1a53180373" y="172.642198"/>
     <use style="fill:#ffffff;stroke:#ba55d3;" x="68.255127" xlink:href="#m1a53180373" y="175.548592"/>
     <use style="fill:#ffffff;stroke:#ba55d3;" x="70.582479" xlink:href="#m1a53180373" y="172.81024"/>
     <use style="fill:#ffffff;stroke:#ba55d3;" x="72.909831" xlink:href="#m1a53180373" y="172.509348"/>
     <use style="fill:#ffffff;stroke:#ba55d3;" x="75.237183" xlink:href="#m1a53180373" y="176.529101"/>
     <use style="fill:#ffffff;stroke:#ba55d3;" x="77.564535" xlink:href="#m1a53180373" y="173.894037"/>
     <use style="fill:#ffffff;stroke:#ba55d3;" x="79.891887" xlink:href="#m1a53180373" y="178.826848"/>
     <use style="fill:#ffffff;stroke:#ba55d3;" x="82.21924" xlink:href="#m1a53180373" y="174.138739"/>
     <use style="fill:#ffffff;stroke:#ba55d3;" x="84.546592" xlink:href="#m1a53180373" y="174.20056"/>
     <use style="fill:#ffffff;stroke:#ba55d3;" x="86.873944" xlink:href="#m1a53180373" y="177.374297"/>
     <use style="fill:#ffffff;stroke:#ba55d3;" x="89.201296" xlink:href="#m1a53180373" y="177.51049"/>
     <use style="fill:#ffffff;stroke:#ba55d3;" x="91.528648" xlink:href="#m1a53180373" y="175.400785"/>
     <use style="fill:#ffffff;stroke:#ba55d3;" x="93.856" xlink:href="#m1a53180373" y="179.226161"/>
     <use style="fill:#ffffff;stroke:#ba55d3;" x="96.183352" xlink:href="#m1a53180373" y="180.220102"/>
     <use style="fill:#ffffff;stroke:#ba55d3;" x="98.510704" xlink:href="#m1a53180373" y="178.967147"/>
     <use style="fill:#ffffff;stroke:#ba55d3;" x="100.838056" xlink:href="#m1a53180373" y="175.10265"/>
     <use style="fill:#ffffff;stroke:#ba55d3;" x="103.165408" xlink:href="#m1a53180373" y="178.281489"/>
     <use style="fill:#ffffff;stroke:#ba55d3;" x="105.49276" xlink:href="#m1a53180373" y="174.249712"/>
     <use style="fill:#ffffff;stroke:#ba55d3;" x="107.820113" xlink:href="#m1a53180373" y="178.351052"/>
     <use style="fill:#ffffff;stroke:#ba55d3;" x="110.147465" xlink:href="#m1a53180373" y="180.335004"/>
     <use style="fill:#ffffff;stroke:#ba55d3;" x="112.474817" xlink:href="#m1a53180373" y="184.870203"/>
     <use style="fill:#ffffff;stroke:#ba55d3;" x="114.802169" xlink:href="#m1a53180373" y="178.646782"/>
     <use style="fill:#ffffff;stroke:#ba55d3;" x="117.129521" xlink:href="#m1a53180373" y="179.853283"/>
     <use style="fill:#ffffff;stroke:#ba55d3;" x="119.456873" xlink:href="#m1a53180373" y="182.331683"/>
     <use style="fill:#ffffff;stroke:#ba55d3;" x="121.784225" xlink:href="#m1a53180373" y="174.698058"/>
     <use style="fill:#ffffff;stroke:#ba55d3;" x="124.111577" xlink:href="#m1a53180373" y="178.109165"/>
     <use style="fill:#ffffff;stroke:#ba55d3;" x="126.438929" xlink:href="#m1a53180373" y="174.868271"/>
     <use style="fill:#ffffff;stroke:#ba55d3;" x="128.766281" xlink:href="#m1a53180373" y="176.767351"/>
     <use style="fill:#ffffff;stroke:#ba55d3;" x="131.093633" xlink:href="#m1a53180373" y="170.687514"/>
     <use style="fill:#ffffff;stroke:#ba55d3;" x="133.420986" xlink:href="#m1a53180373" y="165.306708"/>
     <use style="fill:#ffffff;stroke:#ba55d3;" x="135.748338" xlink:href="#m1a53180373" y="163.36047"/>
     <use style="fill:#ffffff;stroke:#ba55d3;" x="138.07569" xlink:href="#m1a53180373" y="160.510912"/>
     <use style="fill:#ffffff;stroke:#ba55d3;" x="140.403042" xlink:href="#m1a53180373" y="158.956127"/>
     <use style="fill:#ffffff;stroke:#ba55d3;" x="142.730394" xlink:href="#m1a53180373" y="157.87884"/>
     <use style="fill:#ffffff;stroke:#ba55d3;" x="145.057746" xlink:href="#m1a53180373" y="159.353797"/>
     <use style="fill:#ffffff;stroke:#ba55d3;" x="147.385098" xlink:href="#m1a53180373" y="160.437712"/>
     <use style="fill:#ffffff;stroke:#ba55d3;" x="149.71245" xlink:href="#m1a53180373" y="161.289066"/>
     <use style="fill:#ffffff;stroke:#ba55d3;" x="152.039802" xlink:href="#m1a53180373" y="163.834683"/>
     <use style="fill:#ffffff;stroke:#ba55d3;" x="154.367154" xlink:href="#m1a53180373" y="158.14624"/>
     <use style="fill:#ffffff;stroke:#ba55d3;" x="156.694506" xlink:href="#m1a53180373" y="160.046611"/>
     <use style="fill:#ffffff;stroke:#ba55d3;" x="159.021858" xlink:href="#m1a53180373" y="160.258702"/>
     <use style="fill:#ffffff;stroke:#ba55d3;" x="161.349211" xlink:href="#m1a53180373" y="166.072018"/>
     <use style="fill:#ffffff;stroke:#ba55d3;" x="163.676563" xlink:href="#m1a53180373" y="168.387655"/>
     <use style="fill:#ffffff;stroke:#ba55d3;" x="166.003915" xlink:href="#m1a53180373" y="169.291387"/>
     <use style="fill:#ffffff;stroke:#ba55d3;" x="168.331267" xlink:href="#m1a53180373" y="174.376872"/>
     <use style="fill:#ffffff;stroke:#ba55d3;" x="170.658619" xlink:href="#m1a53180373" y="183.539533"/>
     <use style="fill:#ffffff;stroke:#ba55d3;" x="172.985971" xlink:href="#m1a53180373" y="185.530641"/>
     <use style="fill:#ffffff;stroke:#ba55d3;" x="175.313323" xlink:href="#m1a53180373" y="189.328742"/>
     <use style="fill:#ffffff;stroke:#ba55d3;" x="177.640675" xlink:href="#m1a53180373" y="191.673295"/>
     <use style="fill:#ffffff;stroke:#ba55d3;" x="179.968027" xlink:href="#m1a53180373" y="189.830112"/>
     <use style="fill:#ffffff;stroke:#ba55d3;" x="182.295379" xlink:href="#m1a53180373" y="190.994441"/>
     <use style="fill:#ffffff;stroke:#ba55d3;" x="184.622731" xlink:href="#m1a53180373" y="190.841121"/>
     <use style="fill:#ffffff;stroke:#ba55d3;" x="186.950084" xlink:href="#m1a53180373" y="193.149367"/>
     <use style="fill:#ffffff;stroke:#ba55d3;" x="189.277436" xlink:href="#m1a53180373" y="191.669307"/>
     <use style="fill:#ffffff;stroke:#ba55d3;" x="191.604788" xlink:href="#m1a53180373" y="192.526409"/>
     <use style="fill:#ffffff;stroke:#ba55d3;" x="193.93214" xlink:href="#m1a53180373" y="192.104633"/>
     <use style="fill:#ffffff;stroke:#ba55d3;" x="196.259492" xlink:href="#m1a53180373" y="193.704698"/>
     <use style="fill:#ffffff;stroke:#ba55d3;" x="198.586844" xlink:href="#m1a53180373" y="193.126844"/>
     <use style="fill:#ffffff;stroke:#ba55d3;" x="200.914196" xlink:href="#m1a53180373" y="192.650403"/>
     <use style="fill:#ffffff;stroke:#ba55d3;" x="203.241548" xlink:href="#m1a53180373" y="190.550434"/>
     <use style="fill:#ffffff;stroke:#ba55d3;" x="205.5689" xlink:href="#m1a53180373" y="191.6574"/>
     <use style="fill:#ffffff;stroke:#ba55d3;" x="207.896252" xlink:href="#m1a53180373" y="189.235777"/>
     <use style="fill:#ffffff;stroke:#ba55d3;" x="210.223604" xlink:href="#m1a53180373" y="190.941301"/>
     <use style="fill:#ffffff;stroke:#ba55d3;" x="212.550957" xlink:href="#m1a53180373" y="191.232163"/>
     <use style="fill:#ffffff;stroke:#ba55d3;" x="214.878309" xlink:href="#m1a53180373" y="188.23949"/>
     <use style="fill:#ffffff;stroke:#ba55d3;" x="217.205661" xlink:href="#m1a53180373" y="189.765828"/>
     <use style="fill:#ffffff;stroke:#ba55d3;" x="219.533013" xlink:href="#m1a53180373" y="188.184004"/>
     <use style="fill:#ffffff;stroke:#ba55d3;" x="221.860365" xlink:href="#m1a53180373" y="180.928811"/>
     <use style="fill:#ffffff;stroke:#ba55d3;" x="224.187717" xlink:href="#m1a53180373" y="180.92406"/>
     <use style="fill:#ffffff;stroke:#ba55d3;" x="226.515069" xlink:href="#m1a53180373" y="181.341144"/>
     <use style="fill:#ffffff;stroke:#ba55d3;" x="228.842421" xlink:href="#m1a53180373" y="178.676402"/>
     <use style="fill:#ffffff;stroke:#ba55d3;" x="231.169773" xlink:href="#m1a53180373" y="179.257247"/>
     <use style="fill:#ffffff;stroke:#ba55d3;" x="233.497125" xlink:href="#m1a53180373" y="171.878061"/>
     <use style="fill:#ffffff;stroke:#ba55d3;" x="235.824477" xlink:href="#m1a53180373" y="174.351827"/>
     <use style="fill:#ffffff;stroke:#ba55d3;" x="238.151829" xlink:href="#m1a53180373" y="168.95935"/>
     <use style="fill:#ffffff;stroke:#ba55d3;" x="240.479182" xlink:href="#m1a53180373" y="169.070263"/>
     <use style="fill:#ffffff;stroke:#ba55d3;" x="242.806534" xlink:href="#m1a53180373" y="166.966424"/>
     <use style="fill:#ffffff;stroke:#ba55d3;" x="245.133886" xlink:href="#m1a53180373" y="162.58519"/>
     <use style="fill:#ffffff;stroke:#ba55d3;" x="247.461238" xlink:href="#m1a53180373" y="165.32929"/>
     <use style="fill:#ffffff;stroke:#ba55d3;" x="249.78859" xlink:href="#m1a53180373" y="158.731602"/>
     <use style="fill:#ffffff;stroke:#ba55d3;" x="252.115942" xlink:href="#m1a53180373" y="166.059525"/>
    </g>
   </g>
   <g id="patch_5">
    <path d="M 56.16 202.718437 
L 56.16 36.398438 
" style="fill:none;stroke:#000000;stroke-linecap:square;stroke-linejoin:miter;stroke-width:0.8;"/>
   </g>
   <g id="patch_6">
    <path d="M 250.246957 202.718437 
L 250.246957 36.398438 
" style="fill:none;stroke:#000000;stroke-linecap:square;stroke-linejoin:miter;stroke-width:0.8;"/>
   </g>
   <g id="patch_7">
    <path d="M 56.16 202.718437 
L 250.246957 202.718437 
" style="fill:none;stroke:#000000;stroke-linecap:square;stroke-linejoin:miter;stroke-width:0.8;"/>
   </g>
   <g id="patch_8">
    <path d="M 56.16 36.398437 
L 250.246957 36.398437 
" style="fill:none;stroke:#000000;stroke-linecap:square;stroke-linejoin:miter;stroke-width:0.8;"/>
   </g>
   <g id="text_13">
    <!--  $A$= 5.6  $\lambda=$27 -->
    <defs>
     <path id="DejaVuSans-32"/>
     <path d="M 36.8125 72.90625 
L 48 72.90625 
L 61.53125 0 
L 51.21875 0 
L 48.1875 18.703125 
L 15.375 18.703125 
L 5.078125 0 
L -5.328125 0 
z
M 40.375 63.1875 
L 19.921875 26.90625 
L 46.6875 26.90625 
z
" id="DejaVuSans-Oblique-65"/>
     <path d="M 10.59375 45.40625 
L 73.1875 45.40625 
L 73.1875 37.203125 
L 10.59375 37.203125 
z
M 10.59375 25.484375 
L 73.1875 25.484375 
L 73.1875 17.1875 
L 10.59375 17.1875 
z
" id="DejaVuSans-61"/>
     <path d="M 36.71875 67.4375 
L 48.828125 0 
L 39.3125 0 
L 31.84375 40.4375 
L 5.125 0 
L -4.390625 0 
L 29.734375 52.4375 
L 28.03125 62.109375 
Q 26.953125 68.265625 21.734375 68.265625 
L 17.046875 68.265625 
L 18.5 75.984375 
L 24.21875 75.875 
Q 35.203125 75.734375 36.71875 67.4375 
z
" id="DejaVuSans-Oblique-955"/>
    </defs>
    <g transform="translate(61.012174 51.622756)scale(0.1 -0.1)">
     <use transform="translate(0 0.015625)" xlink:href="#DejaVuSans-32"/>
     <use transform="translate(31.787109 0.015625)" xlink:href="#DejaVuSans-Oblique-65"/>
     <use transform="translate(100.195312 0.015625)" xlink:href="#DejaVuSans-61"/>
     <use transform="translate(183.984375 0.015625)" xlink:href="#DejaVuSans-32"/>
     <use transform="translate(215.771484 0.015625)" xlink:href="#DejaVuSans-53"/>
     <use transform="translate(279.394531 0.015625)" xlink:href="#DejaVuSans-46"/>
     <use transform="translate(311.181641 0.015625)" xlink:href="#DejaVuSans-54"/>
     <use transform="translate(374.804688 0.015625)" xlink:href="#DejaVuSans-32"/>
     <use transform="translate(406.591797 0.015625)" xlink:href="#DejaVuSans-32"/>
     <use transform="translate(438.378906 0.015625)" xlink:href="#DejaVuSans-Oblique-955"/>
     <use transform="translate(517.041016 0.015625)" xlink:href="#DejaVuSans-61"/>
     <use transform="translate(620.3125 0.015625)" xlink:href="#DejaVuSans-50"/>
     <use transform="translate(683.935547 0.015625)" xlink:href="#DejaVuSans-55"/>
    </g>
   </g>
   <g id="text_14">
    <!-- $\kappa$= 0.30 -->
    <defs>
     <path d="M 14.65625 54.6875 
L 23.921875 54.6875 
L 19.484375 31.984375 
L 47.515625 54.6875 
L 58.453125 54.6875 
L 32.90625 34.078125 
L 51.171875 0 
L 40.1875 0 
L 25.4375 28.21875 
L 17.53125 21.921875 
L 13.28125 0 
L 4 0 
z
" id="DejaVuSans-Oblique-954"/>
     <path d="M 40.578125 39.3125 
Q 47.65625 37.796875 51.625 33 
Q 55.609375 28.21875 55.609375 21.1875 
Q 55.609375 10.40625 48.1875 4.484375 
Q 40.765625 -1.421875 27.09375 -1.421875 
Q 22.515625 -1.421875 17.65625 -0.515625 
Q 12.796875 0.390625 7.625 2.203125 
L 7.625 11.71875 
Q 11.71875 9.328125 16.59375 8.109375 
Q 21.484375 6.890625 26.8125 6.890625 
Q 36.078125 6.890625 40.9375 10.546875 
Q 45.796875 14.203125 45.796875 21.1875 
Q 45.796875 27.640625 41.28125 31.265625 
Q 36.765625 34.90625 28.71875 34.90625 
L 20.21875 34.90625 
L 20.21875 43.015625 
L 29.109375 43.015625 
Q 36.375 43.015625 40.234375 45.921875 
Q 44.09375 48.828125 44.09375 54.296875 
Q 44.09375 59.90625 40.109375 62.90625 
Q 36.140625 65.921875 28.71875 65.921875 
Q 24.65625 65.921875 20.015625 65.03125 
Q 15.375 64.15625 9.8125 62.3125 
L 9.8125 71.09375 
Q 15.4375 72.65625 20.34375 73.4375 
Q 25.25 74.21875 29.59375 74.21875 
Q 40.828125 74.21875 47.359375 69.109375 
Q 53.90625 64.015625 53.90625 55.328125 
Q 53.90625 49.265625 50.4375 45.09375 
Q 46.96875 40.921875 40.578125 39.3125 
z
" id="DejaVuSans-51"/>
    </defs>
    <g transform="translate(63.091677 66.847074)scale(0.1 -0.1)">
     <use transform="translate(0 0.78125)" xlink:href="#DejaVuSans-Oblique-954"/>
     <use transform="translate(58.935547 0.78125)" xlink:href="#DejaVuSans-61"/>
     <use transform="translate(142.724609 0.78125)" xlink:href="#DejaVuSans-32"/>
     <use transform="translate(174.511719 0.78125)" xlink:href="#DejaVuSans-48"/>
     <use transform="translate(238.134766 0.78125)" xlink:href="#DejaVuSans-46"/>
     <use transform="translate(269.921875 0.78125)" xlink:href="#DejaVuSans-51"/>
     <use transform="translate(333.544922 0.78125)" xlink:href="#DejaVuSans-48"/>
    </g>
   </g>
  </g>
  <g id="axes_3">
   <g id="patch_9">
    <path d="M 308.473043 202.718437 
L 502.56 202.718437 
L 502.56 36.398437 
L 308.473043 36.398437 
z
" style="fill:#ffffff;"/>
   </g>
   <g id="axes_4">
    <g id="patch_10">
     <path d="M 308.473043 36.398437 
L 502.56 36.398437 
L 502.56 36.398437 
L 308.473043 36.398437 
z
" style="fill:#ffffff;"/>
    </g>
    <g id="matplotlib.axis_5">
     <g id="xtick_7">
      <g id="line2d_15">
       <g>
        <use style="stroke:#000000;stroke-width:0.8;" x="356.994783" xlink:href="#m4f047a7053" y="36.398437"/>
       </g>
      </g>
      <g id="text_15">
       <!-- −0.25 -->
       <g transform="translate(341.672126 27.31875)scale(0.1 -0.1)">
        <use xlink:href="#DejaVuSans-8722"/>
        <use x="83.789062" xlink:href="#DejaVuSans-48"/>
        <use x="147.412109" xlink:href="#DejaVuSans-46"/>
        <use x="179.199219" xlink:href="#DejaVuSans-50"/>
        <use x="242.822266" xlink:href="#DejaVuSans-53"/>
       </g>
      </g>
     </g>
     <g id="xtick_8">
      <g id="line2d_16">
       <g>
        <use style="stroke:#000000;stroke-width:0.8;" x="405.516522" xlink:href="#m4f047a7053" y="36.398437"/>
       </g>
      </g>
      <g id="text_16">
       <!-- 0.00 -->
       <g transform="translate(394.383709 27.31875)scale(0.1 -0.1)">
        <use xlink:href="#DejaVuSans-48"/>
        <use x="63.623047" xlink:href="#DejaVuSans-46"/>
        <use x="95.410156" xlink:href="#DejaVuSans-48"/>
        <use x="159.033203" xlink:href="#DejaVuSans-48"/>
       </g>
      </g>
     </g>
     <g id="xtick_9">
      <g id="line2d_17">
       <g>
        <use style="stroke:#000000;stroke-width:0.8;" x="454.038261" xlink:href="#m4f047a7053" y="36.398437"/>
       </g>
      </g>
      <g id="text_17">
       <!-- 0.25 -->
       <g transform="translate(442.905448 27.31875)scale(0.1 -0.1)">
        <use xlink:href="#DejaVuSans-48"/>
        <use x="63.623047" xlink:href="#DejaVuSans-46"/>
        <use x="95.410156" xlink:href="#DejaVuSans-50"/>
        <use x="159.033203" xlink:href="#DejaVuSans-53"/>
       </g>
      </g>
     </g>
    </g>
    <g id="matplotlib.axis_6"/>
    <g id="patch_11">
     <path d="M 308.473043 36.398437 
L 502.56 36.398437 
" style="fill:none;stroke:#000000;stroke-linecap:square;stroke-linejoin:miter;stroke-width:0.8;"/>
    </g>
   </g>
   <g id="matplotlib.axis_7">
    <g id="xtick_10">
     <g id="line2d_18">
      <g>
       <use style="stroke:#000000;stroke-width:0.8;" x="356.994783" xlink:href="#m840e6fd23f" y="202.718437"/>
      </g>
     </g>
     <g id="text_18">
      <!-- −6.75 -->
      <g transform="translate(341.672126 219.816875)scale(0.1 -0.1)">
       <use xlink:href="#DejaVuSans-8722"/>
       <use x="83.789062" xlink:href="#DejaVuSans-54"/>
       <use x="147.412109" xlink:href="#DejaVuSans-46"/>
       <use x="179.199219" xlink:href="#DejaVuSans-55"/>
       <use x="242.822266" xlink:href="#DejaVuSans-53"/>
      </g>
     </g>
    </g>
    <g id="xtick_11">
     <g id="line2d_19">
      <g>
       <use style="stroke:#000000;stroke-width:0.8;" x="405.516522" xlink:href="#m840e6fd23f" y="202.718437"/>
      </g>
     </g>
     <g id="text_19">
      <!-- 0.00 -->
      <g transform="translate(394.383709 219.816875)scale(0.1 -0.1)">
       <use xlink:href="#DejaVuSans-48"/>
       <use x="63.623047" xlink:href="#DejaVuSans-46"/>
       <use x="95.410156" xlink:href="#DejaVuSans-48"/>
       <use x="159.033203" xlink:href="#DejaVuSans-48"/>
      </g>
     </g>
    </g>
    <g id="xtick_12">
     <g id="line2d_20">
      <g>
       <use style="stroke:#000000;stroke-width:0.8;" x="454.038261" xlink:href="#m840e6fd23f" y="202.718437"/>
      </g>
     </g>
     <g id="text_20">
      <!-- 6.75 -->
      <g transform="translate(442.905448 219.816875)scale(0.1 -0.1)">
       <use xlink:href="#DejaVuSans-54"/>
       <use x="63.623047" xlink:href="#DejaVuSans-46"/>
       <use x="95.410156" xlink:href="#DejaVuSans-55"/>
       <use x="159.033203" xlink:href="#DejaVuSans-53"/>
      </g>
     </g>
    </g>
   </g>
   <g id="matplotlib.axis_8">
    <g id="ytick_7">
     <g id="line2d_21">
      <g>
       <use style="stroke:#000000;stroke-width:0.8;" x="308.473043" xlink:href="#m66cf8bd185" y="202.718437"/>
      </g>
     </g>
     <g id="text_21">
      <!-- 0.0 -->
      <g transform="translate(283.069918 206.517656)scale(0.1 -0.1)">
       <use xlink:href="#DejaVuSans-48"/>
       <use x="63.623047" xlink:href="#DejaVuSans-46"/>
       <use x="95.410156" xlink:href="#DejaVuSans-48"/>
      </g>
     </g>
    </g>
    <g id="ytick_8">
     <g id="line2d_22">
      <g>
       <use style="stroke:#000000;stroke-width:0.8;" x="308.473043" xlink:href="#m66cf8bd185" y="178.078438"/>
      </g>
     </g>
     <g id="text_22">
      <!-- 0.2 -->
      <g transform="translate(283.069918 181.877656)scale(0.1 -0.1)">
       <use xlink:href="#DejaVuSans-48"/>
       <use x="63.623047" xlink:href="#DejaVuSans-46"/>
       <use x="95.410156" xlink:href="#DejaVuSans-50"/>
      </g>
     </g>
    </g>
    <g id="ytick_9">
     <g id="line2d_23">
      <g>
       <use style="stroke:#000000;stroke-width:0.8;" x="308.473043" xlink:href="#m66cf8bd185" y="153.438437"/>
      </g>
     </g>
     <g id="text_23">
      <!-- 0.4 -->
      <g transform="translate(283.069918 157.237656)scale(0.1 -0.1)">
       <use xlink:href="#DejaVuSans-48"/>
       <use x="63.623047" xlink:href="#DejaVuSans-46"/>
       <use x="95.410156" xlink:href="#DejaVuSans-52"/>
      </g>
     </g>
    </g>
    <g id="ytick_10">
     <g id="line2d_24">
      <g>
       <use style="stroke:#000000;stroke-width:0.8;" x="308.473043" xlink:href="#m66cf8bd185" y="128.798437"/>
      </g>
     </g>
     <g id="text_24">
      <!-- 0.6 -->
      <g transform="translate(283.069918 132.597656)scale(0.1 -0.1)">
       <use xlink:href="#DejaVuSans-48"/>
       <use x="63.623047" xlink:href="#DejaVuSans-46"/>
       <use x="95.410156" xlink:href="#DejaVuSans-54"/>
      </g>
     </g>
    </g>
    <g id="ytick_11">
     <g id="line2d_25">
      <g>
       <use style="stroke:#000000;stroke-width:0.8;" x="308.473043" xlink:href="#m66cf8bd185" y="104.158437"/>
      </g>
     </g>
     <g id="text_25">
      <!-- 0.8 -->
      <g transform="translate(283.069918 107.957656)scale(0.1 -0.1)">
       <use xlink:href="#DejaVuSans-48"/>
       <use x="63.623047" xlink:href="#DejaVuSans-46"/>
       <use x="95.410156" xlink:href="#DejaVuSans-56"/>
      </g>
     </g>
    </g>
    <g id="ytick_12">
     <g id="line2d_26">
      <g>
       <use style="stroke:#000000;stroke-width:0.8;" x="308.473043" xlink:href="#m66cf8bd185" y="79.518437"/>
      </g>
     </g>
     <g id="text_26">
      <!-- 1.0 -->
      <g transform="translate(283.069918 83.317656)scale(0.1 -0.1)">
       <use xlink:href="#DejaVuSans-49"/>
       <use x="63.623047" xlink:href="#DejaVuSans-46"/>
       <use x="95.410156" xlink:href="#DejaVuSans-48"/>
      </g>
     </g>
    </g>
    <g id="text_27">
     <!-- Normalized speed $v(x)$ -->
     <defs>
      <path d="M 9.8125 72.90625 
L 23.09375 72.90625 
L 55.421875 11.921875 
L 55.421875 72.90625 
L 64.984375 72.90625 
L 64.984375 0 
L 51.703125 0 
L 19.390625 60.984375 
L 19.390625 0 
L 9.8125 0 
z
" id="DejaVuSans-78"/>
      <path d="M 30.609375 48.390625 
Q 23.390625 48.390625 19.1875 42.75 
Q 14.984375 37.109375 14.984375 27.296875 
Q 14.984375 17.484375 19.15625 11.84375 
Q 23.34375 6.203125 30.609375 6.203125 
Q 37.796875 6.203125 41.984375 11.859375 
Q 46.1875 17.53125 46.1875 27.296875 
Q 46.1875 37.015625 41.984375 42.703125 
Q 37.796875 48.390625 30.609375 48.390625 
z
M 30.609375 56 
Q 42.328125 56 49.015625 48.375 
Q 55.71875 40.765625 55.71875 27.296875 
Q 55.71875 13.875 49.015625 6.21875 
Q 42.328125 -1.421875 30.609375 -1.421875 
Q 18.84375 -1.421875 12.171875 6.21875 
Q 5.515625 13.875 5.515625 27.296875 
Q 5.515625 40.765625 12.171875 48.375 
Q 18.84375 56 30.609375 56 
z
" id="DejaVuSans-111"/>
      <path d="M 41.109375 46.296875 
Q 39.59375 47.171875 37.8125 47.578125 
Q 36.03125 48 33.890625 48 
Q 26.265625 48 22.1875 43.046875 
Q 18.109375 38.09375 18.109375 28.8125 
L 18.109375 0 
L 9.078125 0 
L 9.078125 54.6875 
L 18.109375 54.6875 
L 18.109375 46.1875 
Q 20.953125 51.171875 25.484375 53.578125 
Q 30.03125 56 36.53125 56 
Q 37.453125 56 38.578125 55.875 
Q 39.703125 55.765625 41.0625 55.515625 
z
" id="DejaVuSans-114"/>
      <path d="M 52 44.1875 
Q 55.375 50.25 60.0625 53.125 
Q 64.75 56 71.09375 56 
Q 79.640625 56 84.28125 50.015625 
Q 88.921875 44.046875 88.921875 33.015625 
L 88.921875 0 
L 79.890625 0 
L 79.890625 32.71875 
Q 79.890625 40.578125 77.09375 44.375 
Q 74.3125 48.1875 68.609375 48.1875 
Q 61.625 48.1875 57.5625 43.546875 
Q 53.515625 38.921875 53.515625 30.90625 
L 53.515625 0 
L 44.484375 0 
L 44.484375 32.71875 
Q 44.484375 40.625 41.703125 44.40625 
Q 38.921875 48.1875 33.109375 48.1875 
Q 26.21875 48.1875 22.15625 43.53125 
Q 18.109375 38.875 18.109375 30.90625 
L 18.109375 0 
L 9.078125 0 
L 9.078125 54.6875 
L 18.109375 54.6875 
L 18.109375 46.1875 
Q 21.1875 51.21875 25.484375 53.609375 
Q 29.78125 56 35.6875 56 
Q 41.65625 56 45.828125 52.96875 
Q 50 49.953125 52 44.1875 
z
" id="DejaVuSans-109"/>
      <path d="M 34.28125 27.484375 
Q 23.390625 27.484375 19.1875 25 
Q 14.984375 22.515625 14.984375 16.5 
Q 14.984375 11.71875 18.140625 8.90625 
Q 21.296875 6.109375 26.703125 6.109375 
Q 34.1875 6.109375 38.703125 11.40625 
Q 43.21875 16.703125 43.21875 25.484375 
L 43.21875 27.484375 
z
M 52.203125 31.203125 
L 52.203125 0 
L 43.21875 0 
L 43.21875 8.296875 
Q 40.140625 3.328125 35.546875 0.953125 
Q 30.953125 -1.421875 24.3125 -1.421875 
Q 15.921875 -1.421875 10.953125 3.296875 
Q 6 8.015625 6 15.921875 
Q 6 25.140625 12.171875 29.828125 
Q 18.359375 34.515625 30.609375 34.515625 
L 43.21875 34.515625 
L 43.21875 35.40625 
Q 43.21875 41.609375 39.140625 45 
Q 35.0625 48.390625 27.6875 48.390625 
Q 23 48.390625 18.546875 47.265625 
Q 14.109375 46.140625 10.015625 43.890625 
L 10.015625 52.203125 
Q 14.9375 54.109375 19.578125 55.046875 
Q 24.21875 56 28.609375 56 
Q 40.484375 56 46.34375 49.84375 
Q 52.203125 43.703125 52.203125 31.203125 
z
" id="DejaVuSans-97"/>
      <path d="M 9.421875 75.984375 
L 18.40625 75.984375 
L 18.40625 0 
L 9.421875 0 
z
" id="DejaVuSans-108"/>
      <path d="M 9.421875 54.6875 
L 18.40625 54.6875 
L 18.40625 0 
L 9.421875 0 
z
M 9.421875 75.984375 
L 18.40625 75.984375 
L 18.40625 64.59375 
L 9.421875 64.59375 
z
" id="DejaVuSans-105"/>
      <path d="M 5.515625 54.6875 
L 48.1875 54.6875 
L 48.1875 46.484375 
L 14.40625 7.171875 
L 48.1875 7.171875 
L 48.1875 0 
L 4.296875 0 
L 4.296875 8.203125 
L 38.09375 47.515625 
L 5.515625 47.515625 
z
" id="DejaVuSans-122"/>
      <path d="M 56.203125 29.59375 
L 56.203125 25.203125 
L 14.890625 25.203125 
Q 15.484375 15.921875 20.484375 11.0625 
Q 25.484375 6.203125 34.421875 6.203125 
Q 39.59375 6.203125 44.453125 7.46875 
Q 49.3125 8.734375 54.109375 11.28125 
L 54.109375 2.78125 
Q 49.265625 0.734375 44.1875 -0.34375 
Q 39.109375 -1.421875 33.890625 -1.421875 
Q 20.796875 -1.421875 13.15625 6.1875 
Q 5.515625 13.8125 5.515625 26.8125 
Q 5.515625 40.234375 12.765625 48.109375 
Q 20.015625 56 32.328125 56 
Q 43.359375 56 49.78125 48.890625 
Q 56.203125 41.796875 56.203125 29.59375 
z
M 47.21875 32.234375 
Q 47.125 39.59375 43.09375 43.984375 
Q 39.0625 48.390625 32.421875 48.390625 
Q 24.90625 48.390625 20.390625 44.140625 
Q 15.875 39.890625 15.1875 32.171875 
z
" id="DejaVuSans-101"/>
      <path d="M 45.40625 46.390625 
L 45.40625 75.984375 
L 54.390625 75.984375 
L 54.390625 0 
L 45.40625 0 
L 45.40625 8.203125 
Q 42.578125 3.328125 38.25 0.953125 
Q 33.9375 -1.421875 27.875 -1.421875 
Q 17.96875 -1.421875 11.734375 6.484375 
Q 5.515625 14.40625 5.515625 27.296875 
Q 5.515625 40.1875 11.734375 48.09375 
Q 17.96875 56 27.875 56 
Q 33.9375 56 38.25 53.625 
Q 42.578125 51.265625 45.40625 46.390625 
z
M 14.796875 27.296875 
Q 14.796875 17.390625 18.875 11.75 
Q 22.953125 6.109375 30.078125 6.109375 
Q 37.203125 6.109375 41.296875 11.75 
Q 45.40625 17.390625 45.40625 27.296875 
Q 45.40625 37.203125 41.296875 42.84375 
Q 37.203125 48.484375 30.078125 48.484375 
Q 22.953125 48.484375 18.875 42.84375 
Q 14.796875 37.203125 14.796875 27.296875 
z
" id="DejaVuSans-100"/>
      <path d="M 44.28125 53.078125 
L 44.28125 44.578125 
Q 40.484375 46.53125 36.375 47.5 
Q 32.28125 48.484375 27.875 48.484375 
Q 21.1875 48.484375 17.84375 46.4375 
Q 14.5 44.390625 14.5 40.28125 
Q 14.5 37.15625 16.890625 35.375 
Q 19.28125 33.59375 26.515625 31.984375 
L 29.59375 31.296875 
Q 39.15625 29.25 43.1875 25.515625 
Q 47.21875 21.78125 47.21875 15.09375 
Q 47.21875 7.46875 41.1875 3.015625 
Q 35.15625 -1.421875 24.609375 -1.421875 
Q 20.21875 -1.421875 15.453125 -0.5625 
Q 10.6875 0.296875 5.421875 2 
L 5.421875 11.28125 
Q 10.40625 8.6875 15.234375 7.390625 
Q 20.0625 6.109375 24.8125 6.109375 
Q 31.15625 6.109375 34.5625 8.28125 
Q 37.984375 10.453125 37.984375 14.40625 
Q 37.984375 18.0625 35.515625 20.015625 
Q 33.0625 21.96875 24.703125 23.78125 
L 21.578125 24.515625 
Q 13.234375 26.265625 9.515625 29.90625 
Q 5.8125 33.546875 5.8125 39.890625 
Q 5.8125 47.609375 11.28125 51.796875 
Q 16.75 56 26.8125 56 
Q 31.78125 56 36.171875 55.265625 
Q 40.578125 54.546875 44.28125 53.078125 
z
" id="DejaVuSans-115"/>
      <path d="M 18.109375 8.203125 
L 18.109375 -20.796875 
L 9.078125 -20.796875 
L 9.078125 54.6875 
L 18.109375 54.6875 
L 18.109375 46.390625 
Q 20.953125 51.265625 25.265625 53.625 
Q 29.59375 56 35.59375 56 
Q 45.5625 56 51.78125 48.09375 
Q 58.015625 40.1875 58.015625 27.296875 
Q 58.015625 14.40625 51.78125 6.484375 
Q 45.5625 -1.421875 35.59375 -1.421875 
Q 29.59375 -1.421875 25.265625 0.953125 
Q 20.953125 3.328125 18.109375 8.203125 
z
M 48.6875 27.296875 
Q 48.6875 37.203125 44.609375 42.84375 
Q 40.53125 48.484375 33.40625 48.484375 
Q 26.265625 48.484375 22.1875 42.84375 
Q 18.109375 37.203125 18.109375 27.296875 
Q 18.109375 17.390625 22.1875 11.75 
Q 26.265625 6.109375 33.40625 6.109375 
Q 40.53125 6.109375 44.609375 11.75 
Q 48.6875 17.390625 48.6875 27.296875 
z
" id="DejaVuSans-112"/>
      <path d="M 7.171875 54.6875 
L 16.703125 54.6875 
L 24.703125 8.203125 
L 50.875 54.6875 
L 60.40625 54.6875 
L 29.296875 0 
L 17.1875 0 
z
" id="DejaVuSans-Oblique-118"/>
      <path d="M 31 75.875 
Q 24.46875 64.65625 21.28125 53.65625 
Q 18.109375 42.671875 18.109375 31.390625 
Q 18.109375 20.125 21.3125 9.0625 
Q 24.515625 -2 31 -13.1875 
L 23.1875 -13.1875 
Q 15.875 -1.703125 12.234375 9.375 
Q 8.59375 20.453125 8.59375 31.390625 
Q 8.59375 42.28125 12.203125 53.3125 
Q 15.828125 64.359375 23.1875 75.875 
z
" id="DejaVuSans-40"/>
      <path d="M 60.015625 54.6875 
L 34.90625 27.875 
L 50.296875 0 
L 39.984375 0 
L 28.421875 21.6875 
L 8.296875 0 
L -2.59375 0 
L 24.3125 28.8125 
L 10.015625 54.6875 
L 20.3125 54.6875 
L 30.8125 34.90625 
L 49.125 54.6875 
z
" id="DejaVuSans-Oblique-120"/>
      <path d="M 8.015625 75.875 
L 15.828125 75.875 
Q 23.140625 64.359375 26.78125 53.3125 
Q 30.421875 42.28125 30.421875 31.390625 
Q 30.421875 20.453125 26.78125 9.375 
Q 23.140625 -1.703125 15.828125 -13.1875 
L 8.015625 -13.1875 
Q 14.5 -2 17.703125 9.0625 
Q 20.90625 20.125 20.90625 31.390625 
Q 20.90625 42.671875 17.703125 53.65625 
Q 14.5 64.65625 8.015625 75.875 
z
" id="DejaVuSans-41"/>
     </defs>
     <g transform="translate(276.969918 176.108437)rotate(-90)scale(0.1 -0.1)">
      <use transform="translate(0 0.015625)" xlink:href="#DejaVuSans-78"/>
      <use transform="translate(74.804688 0.015625)" xlink:href="#DejaVuSans-111"/>
      <use transform="translate(135.986328 0.015625)" xlink:href="#DejaVuSans-114"/>
      <use transform="translate(177.099609 0.015625)" xlink:href="#DejaVuSans-109"/>
      <use transform="translate(274.511719 0.015625)" xlink:href="#DejaVuSans-97"/>
      <use transform="translate(335.791016 0.015625)" xlink:href="#DejaVuSans-108"/>
      <use transform="translate(363.574219 0.015625)" xlink:href="#DejaVuSans-105"/>
      <use transform="translate(391.357422 0.015625)" xlink:href="#DejaVuSans-122"/>
      <use transform="translate(443.847656 0.015625)" xlink:href="#DejaVuSans-101"/>
      <use transform="translate(505.371094 0.015625)" xlink:href="#DejaVuSans-100"/>
      <use transform="translate(568.847656 0.015625)" xlink:href="#DejaVuSans-32"/>
      <use transform="translate(600.634766 0.015625)" xlink:href="#DejaVuSans-115"/>
      <use transform="translate(652.734375 0.015625)" xlink:href="#DejaVuSans-112"/>
      <use transform="translate(716.210938 0.015625)" xlink:href="#DejaVuSans-101"/>
      <use transform="translate(777.734375 0.015625)" xlink:href="#DejaVuSans-101"/>
      <use transform="translate(839.257812 0.015625)" xlink:href="#DejaVuSans-100"/>
      <use transform="translate(902.734375 0.015625)" xlink:href="#DejaVuSans-32"/>
      <use transform="translate(934.521484 0.015625)" xlink:href="#DejaVuSans-Oblique-118"/>
      <use transform="translate(993.701172 0.015625)" xlink:href="#DejaVuSans-40"/>
      <use transform="translate(1032.714844 0.015625)" xlink:href="#DejaVuSans-Oblique-120"/>
      <use transform="translate(1091.894531 0.015625)" xlink:href="#DejaVuSans-41"/>
     </g>
    </g>
   </g>
   <g id="LineCollection_2">
    <path clip-path="url(#pc49b9cb4b5)" d="M 312.067246 76.008094 
L 312.067246 71.475892 
" style="fill:none;stroke:#ba55d3;stroke-opacity:0.25;stroke-width:1.5;"/>
    <path clip-path="url(#pc49b9cb4b5)" d="M 319.543188 76.008094 
L 319.543188 71.475892 
" style="fill:none;stroke:#ba55d3;stroke-opacity:0.25;stroke-width:1.5;"/>
    <path clip-path="url(#pc49b9cb4b5)" d="M 327.01913 85.899962 
L 327.01913 77.954551 
" style="fill:none;stroke:#ba55d3;stroke-opacity:0.25;stroke-width:1.5;"/>
    <path clip-path="url(#pc49b9cb4b5)" d="M 334.495072 89.668492 
L 334.495072 84.191793 
" style="fill:none;stroke:#ba55d3;stroke-opacity:0.25;stroke-width:1.5;"/>
    <path clip-path="url(#pc49b9cb4b5)" d="M 341.971014 102.495663 
L 341.971014 92.836589 
" style="fill:none;stroke:#ba55d3;stroke-opacity:0.25;stroke-width:1.5;"/>
    <path clip-path="url(#pc49b9cb4b5)" d="M 349.446957 113.925433 
L 349.446957 104.585773 
" style="fill:none;stroke:#ba55d3;stroke-opacity:0.25;stroke-width:1.5;"/>
    <path clip-path="url(#pc49b9cb4b5)" d="M 356.922899 126.495199 
L 356.922899 117.113829 
" style="fill:none;stroke:#ba55d3;stroke-opacity:0.25;stroke-width:1.5;"/>
    <path clip-path="url(#pc49b9cb4b5)" d="M 364.398841 136.366243 
L 364.398841 127.326982 
" style="fill:none;stroke:#ba55d3;stroke-opacity:0.25;stroke-width:1.5;"/>
    <path clip-path="url(#pc49b9cb4b5)" d="M 371.874783 142.110796 
L 371.874783 137.116881 
" style="fill:none;stroke:#ba55d3;stroke-opacity:0.25;stroke-width:1.5;"/>
    <path clip-path="url(#pc49b9cb4b5)" d="M 379.350725 148.89014 
L 379.350725 140.530324 
" style="fill:none;stroke:#ba55d3;stroke-opacity:0.25;stroke-width:1.5;"/>
    <path clip-path="url(#pc49b9cb4b5)" d="M 386.826667 162.725078 
L 386.826667 155.495513 
" style="fill:none;stroke:#ba55d3;stroke-opacity:0.25;stroke-width:1.5;"/>
    <path clip-path="url(#pc49b9cb4b5)" d="M 394.302609 174.628105 
L 394.302609 169.080491 
" style="fill:none;stroke:#ba55d3;stroke-opacity:0.25;stroke-width:1.5;"/>
    <path clip-path="url(#pc49b9cb4b5)" d="M 401.778551 185.193697 
L 401.778551 176.178281 
" style="fill:none;stroke:#ba55d3;stroke-opacity:0.25;stroke-width:1.5;"/>
    <path clip-path="url(#pc49b9cb4b5)" d="M 409.254493 188.7166 
L 409.254493 179.077727 
" style="fill:none;stroke:#ba55d3;stroke-opacity:0.25;stroke-width:1.5;"/>
    <path clip-path="url(#pc49b9cb4b5)" d="M 416.730435 179.204654 
L 416.730435 169.499298 
" style="fill:none;stroke:#ba55d3;stroke-opacity:0.25;stroke-width:1.5;"/>
    <path clip-path="url(#pc49b9cb4b5)" d="M 424.206377 167.796163 
L 424.206377 156.321115 
" style="fill:none;stroke:#ba55d3;stroke-opacity:0.25;stroke-width:1.5;"/>
    <path clip-path="url(#pc49b9cb4b5)" d="M 431.682319 141.81934 
L 431.682319 132.51521 
" style="fill:none;stroke:#ba55d3;stroke-opacity:0.25;stroke-width:1.5;"/>
    <path clip-path="url(#pc49b9cb4b5)" d="M 439.158261 136.937639 
L 439.158261 123.478739 
" style="fill:none;stroke:#ba55d3;stroke-opacity:0.25;stroke-width:1.5;"/>
    <path clip-path="url(#pc49b9cb4b5)" d="M 446.634203 127.854638 
L 446.634203 116.316964 
" style="fill:none;stroke:#ba55d3;stroke-opacity:0.25;stroke-width:1.5;"/>
    <path clip-path="url(#pc49b9cb4b5)" d="M 454.110145 128.47229 
L 454.110145 116.985264 
" style="fill:none;stroke:#ba55d3;stroke-opacity:0.25;stroke-width:1.5;"/>
    <path clip-path="url(#pc49b9cb4b5)" d="M 461.586087 118.120908 
L 461.586087 106.303457 
" style="fill:none;stroke:#ba55d3;stroke-opacity:0.25;stroke-width:1.5;"/>
    <path clip-path="url(#pc49b9cb4b5)" d="M 469.062029 101.523977 
L 469.062029 88.261133 
" style="fill:none;stroke:#ba55d3;stroke-opacity:0.25;stroke-width:1.5;"/>
    <path clip-path="url(#pc49b9cb4b5)" d="M 476.537971 89.431446 
L 476.537971 77.17515 
" style="fill:none;stroke:#ba55d3;stroke-opacity:0.25;stroke-width:1.5;"/>
    <path clip-path="url(#pc49b9cb4b5)" d="M 484.013913 80.34467 
L 484.013913 70.688518 
" style="fill:none;stroke:#ba55d3;stroke-opacity:0.25;stroke-width:1.5;"/>
    <path clip-path="url(#pc49b9cb4b5)" d="M 491.489855 77.784042 
L 491.489855 70.653525 
" style="fill:none;stroke:#ba55d3;stroke-opacity:0.25;stroke-width:1.5;"/>
    <path clip-path="url(#pc49b9cb4b5)" d="M 498.965797 77.784042 
L 498.965797 70.653525 
" style="fill:none;stroke:#ba55d3;stroke-opacity:0.25;stroke-width:1.5;"/>
   </g>
   <g id="line2d_27">
    <path clip-path="url(#pc49b9cb4b5)" d="M 310.054493 81.454073 
L 312.382835 81.454073 
L 314.711177 81.510724 
L 317.039519 81.624447 
L 319.367861 82.588428 
L 321.696204 82.564291 
L 324.024546 83.083627 
L 326.352888 84.657503 
L 328.68123 85.871262 
L 331.009572 88.377377 
L 333.337914 90.964362 
L 335.666257 93.073126 
L 337.994599 96.219298 
L 340.322941 98.714916 
L 342.651283 101.713813 
L 344.979625 104.532146 
L 347.307967 110.09108 
L 349.63631 113.449844 
L 351.964652 115.374225 
L 354.292994 117.088195 
L 356.621336 118.27477 
L 358.949678 120.860262 
L 361.278021 123.859572 
L 363.606363 127.596508 
L 365.934705 129.977842 
L 368.263047 133.950495 
L 370.591389 138.390465 
L 372.919731 139.688208 
L 375.248074 142.173729 
L 377.576416 145.391955 
L 379.904758 149.646813 
L 382.2331 154.979164 
L 384.561442 158.933797 
L 386.889784 163.361052 
L 389.218127 167.575211 
L 391.546469 173.115736 
L 393.874811 175.740301 
L 396.203153 180.162686 
L 398.531495 184.625558 
L 400.859837 187.561898 
L 403.18818 187.921918 
L 405.516522 188.494098 
L 407.844864 188.027884 
L 410.173206 186.32653 
L 412.501548 183.7362 
L 414.82989 179.983412 
L 417.158233 177.167589 
L 419.486575 172.614577 
L 421.814917 168.096346 
L 424.143259 165.161405 
L 426.471601 158.993947 
L 428.799943 155.847485 
L 431.128286 152.465475 
L 433.456628 148.589093 
L 435.78497 144.767323 
L 438.113312 143.22155 
L 440.441654 139.93649 
L 442.769996 136.619463 
L 445.098339 135.985583 
L 447.426681 132.477173 
L 449.755023 128.925163 
L 452.083365 124.002575 
L 454.411707 119.129634 
L 456.740049 115.453773 
L 459.068392 114.469002 
L 461.396734 113.653124 
L 463.725076 109.612942 
L 466.053418 107.936046 
L 468.38176 104.115817 
L 470.710103 101.08998 
L 473.038445 98.555978 
L 475.366787 94.866616 
L 477.695129 92.194535 
L 480.023471 89.80835 
L 482.351813 87.777845 
L 484.680156 86.360738 
L 487.008498 84.900074 
L 489.33684 84.196954 
L 491.665182 83.170962 
L 493.993524 82.224685 
L 496.321866 81.870662 
L 498.650209 81.624269 
L 500.978551 81.624269 
" style="fill:none;stroke:#db5f57;stroke-linecap:square;stroke-opacity:0.7;stroke-width:1.5;"/>
   </g>
   <g id="line2d_28">
    <g clip-path="url(#pc49b9cb4b5)">
     <use style="fill:#ffffff;stroke:#ba55d3;" x="312.067246" xlink:href="#m1a53180373" y="73.741993"/>
     <use style="fill:#ffffff;stroke:#ba55d3;" x="319.543188" xlink:href="#m1a53180373" y="73.741993"/>
     <use style="fill:#ffffff;stroke:#ba55d3;" x="327.01913" xlink:href="#m1a53180373" y="81.927257"/>
     <use style="fill:#ffffff;stroke:#ba55d3;" x="334.495072" xlink:href="#m1a53180373" y="86.930142"/>
     <use style="fill:#ffffff;stroke:#ba55d3;" x="341.971014" xlink:href="#m1a53180373" y="97.666126"/>
     <use style="fill:#ffffff;stroke:#ba55d3;" x="349.446957" xlink:href="#m1a53180373" y="109.255603"/>
     <use style="fill:#ffffff;stroke:#ba55d3;" x="356.922899" xlink:href="#m1a53180373" y="121.804514"/>
     <use style="fill:#ffffff;stroke:#ba55d3;" x="364.398841" xlink:href="#m1a53180373" y="131.846613"/>
     <use style="fill:#ffffff;stroke:#ba55d3;" x="371.874783" xlink:href="#m1a53180373" y="139.613838"/>
     <use style="fill:#ffffff;stroke:#ba55d3;" x="379.350725" xlink:href="#m1a53180373" y="144.710232"/>
     <use style="fill:#ffffff;stroke:#ba55d3;" x="386.826667" xlink:href="#m1a53180373" y="159.110295"/>
     <use style="fill:#ffffff;stroke:#ba55d3;" x="394.302609" xlink:href="#m1a53180373" y="171.854298"/>
     <use style="fill:#ffffff;stroke:#ba55d3;" x="401.778551" xlink:href="#m1a53180373" y="180.685989"/>
     <use style="fill:#ffffff;stroke:#ba55d3;" x="409.254493" xlink:href="#m1a53180373" y="183.897164"/>
     <use style="fill:#ffffff;stroke:#ba55d3;" x="416.730435" xlink:href="#m1a53180373" y="174.351976"/>
     <use style="fill:#ffffff;stroke:#ba55d3;" x="424.206377" xlink:href="#m1a53180373" y="162.058639"/>
     <use style="fill:#ffffff;stroke:#ba55d3;" x="431.682319" xlink:href="#m1a53180373" y="137.167275"/>
     <use style="fill:#ffffff;stroke:#ba55d3;" x="439.158261" xlink:href="#m1a53180373" y="130.208189"/>
     <use style="fill:#ffffff;stroke:#ba55d3;" x="446.634203" xlink:href="#m1a53180373" y="122.085801"/>
     <use style="fill:#ffffff;stroke:#ba55d3;" x="454.110145" xlink:href="#m1a53180373" y="122.728777"/>
     <use style="fill:#ffffff;stroke:#ba55d3;" x="461.586087" xlink:href="#m1a53180373" y="112.212182"/>
     <use style="fill:#ffffff;stroke:#ba55d3;" x="469.062029" xlink:href="#m1a53180373" y="94.892555"/>
     <use style="fill:#ffffff;stroke:#ba55d3;" x="476.537971" xlink:href="#m1a53180373" y="83.303298"/>
     <use style="fill:#ffffff;stroke:#ba55d3;" x="484.013913" xlink:href="#m1a53180373" y="75.516594"/>
     <use style="fill:#ffffff;stroke:#ba55d3;" x="491.489855" xlink:href="#m1a53180373" y="74.218783"/>
     <use style="fill:#ffffff;stroke:#ba55d3;" x="498.965797" xlink:href="#m1a53180373" y="74.218783"/>
    </g>
   </g>
   <g id="patch_12">
    <path d="M 308.473043 202.718437 
L 308.473043 36.398437 
" style="fill:none;stroke:#000000;stroke-linecap:square;stroke-linejoin:miter;stroke-width:0.8;"/>
   </g>
   <g id="patch_13">
    <path d="M 502.56 202.718437 
L 502.56 36.398437 
" style="fill:none;stroke:#000000;stroke-linecap:square;stroke-linejoin:miter;stroke-width:0.8;"/>
   </g>
   <g id="patch_14">
    <path d="M 308.473043 202.718437 
L 502.56 202.718437 
" style="fill:none;stroke:#000000;stroke-linecap:square;stroke-linejoin:miter;stroke-width:0.8;"/>
   </g>
   <g id="patch_15">
    <path d="M 308.473043 36.398437 
L 502.56 36.398437 
" style="fill:none;stroke:#000000;stroke-linecap:square;stroke-linejoin:miter;stroke-width:0.8;"/>
   </g>
   <g id="legend_1">
    <g id="line2d_29">
     <path d="M 347.781522 49.538437 
L 365.781522 49.538437 
" style="fill:none;stroke:#db5f57;stroke-linecap:square;stroke-opacity:0.7;stroke-width:1.5;"/>
    </g>
    <g id="line2d_30"/>
    <g id="text_28">
     <!-- $K^*$= 3.0 $D_r^*=$0.015 -->
     <defs>
      <path d="M 16.890625 72.90625 
L 26.8125 72.90625 
L 20.796875 42.1875 
L 59.078125 72.90625 
L 72.21875 72.90625 
L 28.90625 38.09375 
L 60.59375 0 
L 48.578125 0 
L 19.484375 35.5 
L 12.59375 0 
L 2.6875 0 
z
" id="DejaVuSans-Oblique-75"/>
      <path d="M 47.015625 60.890625 
L 29.5 51.421875 
L 47.015625 41.890625 
L 44.1875 37.109375 
L 27.78125 47.015625 
L 27.78125 28.609375 
L 22.21875 28.609375 
L 22.21875 47.015625 
L 5.8125 37.109375 
L 2.984375 41.890625 
L 20.515625 51.421875 
L 2.984375 60.890625 
L 5.8125 65.71875 
L 22.21875 55.8125 
L 22.21875 74.21875 
L 27.78125 74.21875 
L 27.78125 55.8125 
L 44.1875 65.71875 
z
" id="DejaVuSans-42"/>
      <path d="M 16.890625 72.90625 
L 38.09375 72.90625 
Q 54.984375 72.90625 63.59375 65.75 
Q 72.21875 58.59375 72.21875 44.484375 
Q 72.21875 35.15625 68.9375 26.53125 
Q 65.671875 17.921875 59.90625 12.015625 
Q 54.109375 5.953125 45.171875 2.96875 
Q 36.234375 0 24.03125 0 
L 2.6875 0 
z
M 25.203125 64.796875 
L 14.203125 8.109375 
L 27.09375 8.109375 
Q 43.65625 8.109375 52.734375 17.625 
Q 61.8125 27.15625 61.8125 44.484375 
Q 61.8125 54.984375 55.953125 59.890625 
Q 50.09375 64.796875 37.59375 64.796875 
z
" id="DejaVuSans-Oblique-68"/>
      <path d="M 44.578125 46.390625 
Q 43.21875 47.125 41.453125 47.515625 
Q 39.703125 47.90625 37.703125 47.90625 
Q 30.515625 47.90625 25.140625 42.453125 
Q 19.78125 37.015625 18.015625 27.875 
L 12.5 0 
L 3.515625 0 
L 14.203125 54.6875 
L 23.1875 54.6875 
L 21.484375 46.1875 
Q 25.046875 50.921875 30 53.453125 
Q 34.96875 56 40.578125 56 
Q 42.046875 56 43.453125 55.828125 
Q 44.875 55.671875 46.296875 55.28125 
z
" id="DejaVuSans-Oblique-114"/>
     </defs>
     <g transform="translate(372.981522 52.688437)scale(0.09 -0.09)">
      <use transform="translate(0 0.765625)" xlink:href="#DejaVuSans-Oblique-75"/>
      <use transform="translate(86.230638 39.046875)scale(0.7)" xlink:href="#DejaVuSans-42"/>
      <use transform="translate(137.602708 0.765625)" xlink:href="#DejaVuSans-61"/>
      <use transform="translate(221.391771 0.765625)" xlink:href="#DejaVuSans-32"/>
      <use transform="translate(253.17888 0.765625)" xlink:href="#DejaVuSans-51"/>
      <use transform="translate(316.801927 0.765625)" xlink:href="#DejaVuSans-46"/>
      <use transform="translate(348.589036 0.765625)" xlink:href="#DejaVuSans-48"/>
      <use transform="translate(412.212083 0.765625)" xlink:href="#DejaVuSans-32"/>
      <use transform="translate(443.999193 0.765625)" xlink:href="#DejaVuSans-Oblique-68"/>
      <use transform="translate(541.655612 39.046875)scale(0.7)" xlink:href="#DejaVuSans-42"/>
      <use transform="translate(521.001146 -26.578125)scale(0.7)" xlink:href="#DejaVuSans-Oblique-114"/>
      <use transform="translate(612.510104 0.765625)" xlink:href="#DejaVuSans-61"/>
      <use transform="translate(715.781589 0.765625)" xlink:href="#DejaVuSans-48"/>
      <use transform="translate(779.404635 0.765625)" xlink:href="#DejaVuSans-46"/>
      <use transform="translate(811.191745 0.765625)" xlink:href="#DejaVuSans-48"/>
      <use transform="translate(874.814792 0.765625)" xlink:href="#DejaVuSans-49"/>
      <use transform="translate(938.437839 0.765625)" xlink:href="#DejaVuSans-53"/>
     </g>
    </g>
    <g id="LineCollection_3">
     <path d="M 356.781522 67.897031 
L 356.781522 58.897031 
" style="fill:none;stroke:#ba55d3;stroke-opacity:0.25;stroke-width:1.5;"/>
    </g>
    <g id="line2d_31"/>
    <g id="line2d_32">
     <g>
      <use style="fill:#ffffff;stroke:#ba55d3;" x="356.781522" xlink:href="#m1a53180373" y="63.397031"/>
     </g>
    </g>
    <g id="text_29">
     <!-- Experiment -->
     <defs>
      <path d="M 9.8125 72.90625 
L 55.90625 72.90625 
L 55.90625 64.59375 
L 19.671875 64.59375 
L 19.671875 43.015625 
L 54.390625 43.015625 
L 54.390625 34.71875 
L 19.671875 34.71875 
L 19.671875 8.296875 
L 56.78125 8.296875 
L 56.78125 0 
L 9.8125 0 
z
" id="DejaVuSans-69"/>
      <path d="M 54.890625 54.6875 
L 35.109375 28.078125 
L 55.90625 0 
L 45.3125 0 
L 29.390625 21.484375 
L 13.484375 0 
L 2.875 0 
L 24.125 28.609375 
L 4.6875 54.6875 
L 15.28125 54.6875 
L 29.78125 35.203125 
L 44.28125 54.6875 
z
" id="DejaVuSans-120"/>
      <path d="M 54.890625 33.015625 
L 54.890625 0 
L 45.90625 0 
L 45.90625 32.71875 
Q 45.90625 40.484375 42.875 44.328125 
Q 39.84375 48.1875 33.796875 48.1875 
Q 26.515625 48.1875 22.3125 43.546875 
Q 18.109375 38.921875 18.109375 30.90625 
L 18.109375 0 
L 9.078125 0 
L 9.078125 54.6875 
L 18.109375 54.6875 
L 18.109375 46.1875 
Q 21.34375 51.125 25.703125 53.5625 
Q 30.078125 56 35.796875 56 
Q 45.21875 56 50.046875 50.171875 
Q 54.890625 44.34375 54.890625 33.015625 
z
" id="DejaVuSans-110"/>
      <path d="M 18.3125 70.21875 
L 18.3125 54.6875 
L 36.8125 54.6875 
L 36.8125 47.703125 
L 18.3125 47.703125 
L 18.3125 18.015625 
Q 18.3125 11.328125 20.140625 9.421875 
Q 21.96875 7.515625 27.59375 7.515625 
L 36.8125 7.515625 
L 36.8125 0 
L 27.59375 0 
Q 17.1875 0 13.234375 3.875 
Q 9.28125 7.765625 9.28125 18.015625 
L 9.28125 47.703125 
L 2.6875 47.703125 
L 2.6875 54.6875 
L 9.28125 54.6875 
L 9.28125 70.21875 
z
" id="DejaVuSans-116"/>
     </defs>
     <g transform="translate(372.981522 66.547031)scale(0.09 -0.09)">
      <use xlink:href="#DejaVuSans-69"/>
      <use x="63.183594" xlink:href="#DejaVuSans-120"/>
      <use x="122.363281" xlink:href="#DejaVuSans-112"/>
      <use x="185.839844" xlink:href="#DejaVuSans-101"/>
      <use x="247.363281" xlink:href="#DejaVuSans-114"/>
      <use x="288.476562" xlink:href="#DejaVuSans-105"/>
      <use x="316.259766" xlink:href="#DejaVuSans-109"/>
      <use x="413.671875" xlink:href="#DejaVuSans-101"/>
      <use x="475.195312" xlink:href="#DejaVuSans-110"/>
      <use x="538.574219" xlink:href="#DejaVuSans-116"/>
     </g>
    </g>
   </g>
  </g>
  <g id="text_30">
   <!-- $x$ ($\mathrm{\mu m}$) -->
   <defs>
    <path d="M 8.5 -20.796875 
L 8.5 54.6875 
L 17.484375 54.6875 
L 17.484375 20.703125 
Q 17.484375 13.625 20.84375 10 
Q 24.21875 6.390625 30.8125 6.390625 
Q 38.03125 6.390625 41.671875 10.484375 
Q 45.3125 14.59375 45.3125 22.796875 
L 45.3125 54.6875 
L 54.296875 54.6875 
L 54.296875 12.59375 
Q 54.296875 9.671875 55.140625 8.28125 
Q 56 6.890625 57.8125 6.890625 
Q 58.25 6.890625 59.03125 7.15625 
Q 59.8125 7.421875 61.1875 8.015625 
L 61.1875 0.78125 
Q 59.1875 -0.34375 57.390625 -0.875 
Q 55.609375 -1.421875 53.90625 -1.421875 
Q 50.53125 -1.421875 48.53125 0.484375 
Q 46.53125 2.390625 45.796875 6.296875 
Q 43.359375 2.4375 39.8125 0.5 
Q 36.28125 -1.421875 31.5 -1.421875 
Q 26.515625 -1.421875 23.015625 0.484375 
Q 19.53125 2.390625 17.484375 6.203125 
L 17.484375 -20.796875 
z
" id="DejaVuSans-956"/>
   </defs>
   <g transform="translate(267.13 230.798437)scale(0.1 -0.1)">
    <use transform="translate(0 0.125)" xlink:href="#DejaVuSans-Oblique-120"/>
    <use transform="translate(59.179688 0.125)" xlink:href="#DejaVuSans-32"/>
    <use transform="translate(90.966797 0.125)" xlink:href="#DejaVuSans-40"/>
    <use transform="translate(129.980469 0.125)" xlink:href="#DejaVuSans-956"/>
    <use transform="translate(193.603516 0.125)" xlink:href="#DejaVuSans-109"/>
    <use transform="translate(291.015625 0.125)" xlink:href="#DejaVuSans-41"/>
   </g>
  </g>
  <g id="text_31">
   <!-- x/$\lambda$ -->
   <defs>
    <path d="M 25.390625 72.90625 
L 33.6875 72.90625 
L 8.296875 -9.28125 
L 0 -9.28125 
z
" id="DejaVuSans-47"/>
   </defs>
   <g transform="translate(276.03 14.798437)scale(0.1 -0.1)">
    <use transform="translate(0 0.015625)" xlink:href="#DejaVuSans-120"/>
    <use transform="translate(59.179688 0.015625)" xlink:href="#DejaVuSans-47"/>
    <use transform="translate(92.871094 0.015625)" xlink:href="#DejaVuSans-Oblique-955"/>
   </g>
  </g>
  <g id="text_32">
   <!-- Normalized intensity $I(x)$ -->
   <defs>
    <path d="M 32.171875 -5.078125 
Q 28.375 -14.84375 24.75 -17.8125 
Q 21.140625 -20.796875 15.09375 -20.796875 
L 7.90625 -20.796875 
L 7.90625 -13.28125 
L 13.1875 -13.28125 
Q 16.890625 -13.28125 18.9375 -11.515625 
Q 21 -9.765625 23.484375 -3.21875 
L 25.09375 0.875 
L 2.984375 54.6875 
L 12.5 54.6875 
L 29.59375 11.921875 
L 46.6875 54.6875 
L 56.203125 54.6875 
z
" id="DejaVuSans-121"/>
    <path d="M 16.890625 72.90625 
L 26.8125 72.90625 
L 12.59375 0 
L 2.6875 0 
z
" id="DejaVuSans-Oblique-73"/>
   </defs>
   <g transform="translate(14.8 180.128437)rotate(-90)scale(0.1 -0.1)">
    <use transform="translate(0 0.015625)" xlink:href="#DejaVuSans-78"/>
    <use transform="translate(74.804688 0.015625)" xlink:href="#DejaVuSans-111"/>
    <use transform="translate(135.986328 0.015625)" xlink:href="#DejaVuSans-114"/>
    <use transform="translate(177.099609 0.015625)" xlink:href="#DejaVuSans-109"/>
    <use transform="translate(274.511719 0.015625)" xlink:href="#DejaVuSans-97"/>
    <use transform="translate(335.791016 0.015625)" xlink:href="#DejaVuSans-108"/>
    <use transform="translate(363.574219 0.015625)" xlink:href="#DejaVuSans-105"/>
    <use transform="translate(391.357422 0.015625)" xlink:href="#DejaVuSans-122"/>
    <use transform="translate(443.847656 0.015625)" xlink:href="#DejaVuSans-101"/>
    <use transform="translate(505.371094 0.015625)" xlink:href="#DejaVuSans-100"/>
    <use transform="translate(568.847656 0.015625)" xlink:href="#DejaVuSans-32"/>
    <use transform="translate(600.634766 0.015625)" xlink:href="#DejaVuSans-105"/>
    <use transform="translate(628.417969 0.015625)" xlink:href="#DejaVuSans-110"/>
    <use transform="translate(691.796875 0.015625)" xlink:href="#DejaVuSans-116"/>
    <use transform="translate(731.005859 0.015625)" xlink:href="#DejaVuSans-101"/>
    <use transform="translate(792.529297 0.015625)" xlink:href="#DejaVuSans-110"/>
    <use transform="translate(855.908203 0.015625)" xlink:href="#DejaVuSans-115"/>
    <use transform="translate(908.007812 0.015625)" xlink:href="#DejaVuSans-105"/>
    <use transform="translate(935.791016 0.015625)" xlink:href="#DejaVuSans-116"/>
    <use transform="translate(975 0.015625)" xlink:href="#DejaVuSans-121"/>
    <use transform="translate(1034.179688 0.015625)" xlink:href="#DejaVuSans-32"/>
    <use transform="translate(1065.966797 0.015625)" xlink:href="#DejaVuSans-Oblique-73"/>
    <use transform="translate(1095.458984 0.015625)" xlink:href="#DejaVuSans-40"/>
    <use transform="translate(1134.472656 0.015625)" xlink:href="#DejaVuSans-Oblique-120"/>
    <use transform="translate(1193.652344 0.015625)" xlink:href="#DejaVuSans-41"/>
   </g>
  </g>
 </g>
 <defs>
  <clipPath id="p43b51ffd3a">
   <rect height="166.32" width="194.086957" x="56.16" y="36.398437"/>
  </clipPath>
  <clipPath id="pc49b9cb4b5">
   <rect height="166.32" width="194.086957" x="308.473043" y="36.398437"/>
  </clipPath>
 </defs>
</svg>
