<?xml version="1.0" encoding="utf-8" standalone="no"?>
<!DOCTYPE svg PUBLIC "-//W3C//DTD SVG 1.1//EN"
  "http://www.w3.org/Graphics/SVG/1.1/DTD/svg11.dtd">
<!-- Created with matplotlib (https://matplotlib.org/) -->
<svg height="240.098437pt" version="1.1" viewBox="0 0 509.76 240.098437" width="509.76pt" xmlns="http://www.w3.org/2000/svg" xmlns:xlink="http://www.w3.org/1999/xlink">
 <defs>
  <style type="text/css">
*{stroke-linecap:butt;stroke-linejoin:round;}
  </style>
 </defs>
 <g id="figure_1">
  <g id="patch_1">
   <path d="M 0 240.098437 
L 509.76 240.098437 
L 509.76 0 
L 0 0 
z
" style="fill:#ffffff;"/>
  </g>
  <g id="axes_1">
   <g id="patch_2">
    <path d="M 56.16 202.718437 
L 250.246957 202.718437 
L 250.246957 36.398437 
L 56.16 36.398437 
z
" style="fill:#ffffff;"/>
   </g>
   <g id="axes_2">
    <g id="patch_3">
     <path d="M 56.16 36.398437 
L 250.246957 36.398437 
L 250.246957 36.398437 
L 56.16 36.398437 
z
" style="fill:#ffffff;"/>
    </g>
    <g id="matplotlib.axis_1">
     <g id="xtick_1">
      <g id="line2d_1">
       <defs>
        <path d="M 0 0 
L 0 -3.5 
" id="m2fdd30d906" style="stroke:#000000;stroke-width:0.8;"/>
       </defs>
       <g>
        <use style="stroke:#000000;stroke-width:0.8;" x="104.681739" xlink:href="#m2fdd30d906" y="36.398437"/>
       </g>
      </g>
      <g id="text_1">
       <!-- −0.25 -->
       <defs>
        <path d="M 10.59375 35.5 
L 73.1875 35.5 
L 73.1875 27.203125 
L 10.59375 27.203125 
z
" id="DejaVuSans-8722"/>
        <path d="M 31.78125 66.40625 
Q 24.171875 66.40625 20.328125 58.90625 
Q 16.5 51.421875 16.5 36.375 
Q 16.5 21.390625 20.328125 13.890625 
Q 24.171875 6.390625 31.78125 6.390625 
Q 39.453125 6.390625 43.28125 13.890625 
Q 47.125 21.390625 47.125 36.375 
Q 47.125 51.421875 43.28125 58.90625 
Q 39.453125 66.40625 31.78125 66.40625 
z
M 31.78125 74.21875 
Q 44.046875 74.21875 50.515625 64.515625 
Q 56.984375 54.828125 56.984375 36.375 
Q 56.984375 17.96875 50.515625 8.265625 
Q 44.046875 -1.421875 31.78125 -1.421875 
Q 19.53125 -1.421875 13.0625 8.265625 
Q 6.59375 17.96875 6.59375 36.375 
Q 6.59375 54.828125 13.0625 64.515625 
Q 19.53125 74.21875 31.78125 74.21875 
z
" id="DejaVuSans-48"/>
        <path d="M 10.6875 12.40625 
L 21 12.40625 
L 21 0 
L 10.6875 0 
z
" id="DejaVuSans-46"/>
        <path d="M 19.1875 8.296875 
L 53.609375 8.296875 
L 53.609375 0 
L 7.328125 0 
L 7.328125 8.296875 
Q 12.9375 14.109375 22.625 23.890625 
Q 32.328125 33.6875 34.8125 36.53125 
Q 39.546875 41.84375 41.421875 45.53125 
Q 43.3125 49.21875 43.3125 52.78125 
Q 43.3125 58.59375 39.234375 62.25 
Q 35.15625 65.921875 28.609375 65.921875 
Q 23.96875 65.921875 18.8125 64.3125 
Q 13.671875 62.703125 7.8125 59.421875 
L 7.8125 69.390625 
Q 13.765625 71.78125 18.9375 73 
Q 24.125 74.21875 28.421875 74.21875 
Q 39.75 74.21875 46.484375 68.546875 
Q 53.21875 62.890625 53.21875 53.421875 
Q 53.21875 48.921875 51.53125 44.890625 
Q 49.859375 40.875 45.40625 35.40625 
Q 44.1875 33.984375 37.640625 27.21875 
Q 31.109375 20.453125 19.1875 8.296875 
z
" id="DejaVuSans-50"/>
        <path d="M 10.796875 72.90625 
L 49.515625 72.90625 
L 49.515625 64.59375 
L 19.828125 64.59375 
L 19.828125 46.734375 
Q 21.96875 47.46875 24.109375 47.828125 
Q 26.265625 48.1875 28.421875 48.1875 
Q 40.625 48.1875 47.75 41.5 
Q 54.890625 34.8125 54.890625 23.390625 
Q 54.890625 11.625 47.5625 5.09375 
Q 40.234375 -1.421875 26.90625 -1.421875 
Q 22.3125 -1.421875 17.546875 -0.640625 
Q 12.796875 0.140625 7.71875 1.703125 
L 7.71875 11.625 
Q 12.109375 9.234375 16.796875 8.0625 
Q 21.484375 6.890625 26.703125 6.890625 
Q 35.15625 6.890625 40.078125 11.328125 
Q 45.015625 15.765625 45.015625 23.390625 
Q 45.015625 31 40.078125 35.4375 
Q 35.15625 39.890625 26.703125 39.890625 
Q 22.75 39.890625 18.8125 39.015625 
Q 14.890625 38.140625 10.796875 36.28125 
z
" id="DejaVuSans-53"/>
       </defs>
       <g transform="translate(89.359083 27.31875)scale(0.1 -0.1)">
        <use xlink:href="#DejaVuSans-8722"/>
        <use x="83.789062" xlink:href="#DejaVuSans-48"/>
        <use x="147.412109" xlink:href="#DejaVuSans-46"/>
        <use x="179.199219" xlink:href="#DejaVuSans-50"/>
        <use x="242.822266" xlink:href="#DejaVuSans-53"/>
       </g>
      </g>
     </g>
     <g id="xtick_2">
      <g id="line2d_2">
       <g>
        <use style="stroke:#000000;stroke-width:0.8;" x="153.203478" xlink:href="#m2fdd30d906" y="36.398437"/>
       </g>
      </g>
      <g id="text_2">
       <!-- 0.00 -->
       <g transform="translate(142.070666 27.31875)scale(0.1 -0.1)">
        <use xlink:href="#DejaVuSans-48"/>
        <use x="63.623047" xlink:href="#DejaVuSans-46"/>
        <use x="95.410156" xlink:href="#DejaVuSans-48"/>
        <use x="159.033203" xlink:href="#DejaVuSans-48"/>
       </g>
      </g>
     </g>
     <g id="xtick_3">
      <g id="line2d_3">
       <g>
        <use style="stroke:#000000;stroke-width:0.8;" x="201.725217" xlink:href="#m2fdd30d906" y="36.398437"/>
       </g>
      </g>
      <g id="text_3">
       <!-- 0.25 -->
       <g transform="translate(190.592405 27.31875)scale(0.1 -0.1)">
        <use xlink:href="#DejaVuSans-48"/>
        <use x="63.623047" xlink:href="#DejaVuSans-46"/>
        <use x="95.410156" xlink:href="#DejaVuSans-50"/>
        <use x="159.033203" xlink:href="#DejaVuSans-53"/>
       </g>
      </g>
     </g>
    </g>
    <g id="matplotlib.axis_2"/>
    <g id="patch_4">
     <path d="M 56.16 36.398437 
L 250.246957 36.398437 
" style="fill:none;stroke:#000000;stroke-linecap:square;stroke-linejoin:miter;stroke-width:0.8;"/>
    </g>
   </g>
   <g id="matplotlib.axis_3">
    <g id="xtick_4">
     <g id="line2d_4">
      <defs>
       <path d="M 0 0 
L 0 6 
" id="md7c18a95d8" style="stroke:#000000;stroke-width:0.8;"/>
      </defs>
      <g>
       <use style="stroke:#000000;stroke-width:0.8;" x="104.681739" xlink:href="#md7c18a95d8" y="202.718437"/>
      </g>
     </g>
     <g id="text_4">
      <!-- −7.5 -->
      <defs>
       <path d="M 8.203125 72.90625 
L 55.078125 72.90625 
L 55.078125 68.703125 
L 28.609375 0 
L 18.3125 0 
L 43.21875 64.59375 
L 8.203125 64.59375 
z
" id="DejaVuSans-55"/>
      </defs>
      <g transform="translate(92.540333 219.816875)scale(0.1 -0.1)">
       <use xlink:href="#DejaVuSans-8722"/>
       <use x="83.789062" xlink:href="#DejaVuSans-55"/>
       <use x="147.412109" xlink:href="#DejaVuSans-46"/>
       <use x="179.199219" xlink:href="#DejaVuSans-53"/>
      </g>
     </g>
    </g>
    <g id="xtick_5">
     <g id="line2d_5">
      <g>
       <use style="stroke:#000000;stroke-width:0.8;" x="153.203478" xlink:href="#md7c18a95d8" y="202.718437"/>
      </g>
     </g>
     <g id="text_5">
      <!-- 0.0 -->
      <g transform="translate(145.251916 219.816875)scale(0.1 -0.1)">
       <use xlink:href="#DejaVuSans-48"/>
       <use x="63.623047" xlink:href="#DejaVuSans-46"/>
       <use x="95.410156" xlink:href="#DejaVuSans-48"/>
      </g>
     </g>
    </g>
    <g id="xtick_6">
     <g id="line2d_6">
      <g>
       <use style="stroke:#000000;stroke-width:0.8;" x="201.725217" xlink:href="#md7c18a95d8" y="202.718437"/>
      </g>
     </g>
     <g id="text_6">
      <!-- 7.5 -->
      <g transform="translate(193.773655 219.816875)scale(0.1 -0.1)">
       <use xlink:href="#DejaVuSans-55"/>
       <use x="63.623047" xlink:href="#DejaVuSans-46"/>
       <use x="95.410156" xlink:href="#DejaVuSans-53"/>
      </g>
     </g>
    </g>
   </g>
   <g id="matplotlib.axis_4">
    <g id="ytick_1">
     <g id="line2d_7">
      <defs>
       <path d="M 0 0 
L -6 0 
" id="mf048f2c08a" style="stroke:#000000;stroke-width:0.8;"/>
      </defs>
      <g>
       <use style="stroke:#000000;stroke-width:0.8;" x="56.16" xlink:href="#mf048f2c08a" y="202.718437"/>
      </g>
     </g>
     <g id="text_7">
      <!-- 0.0 -->
      <g transform="translate(30.756875 206.517656)scale(0.1 -0.1)">
       <use xlink:href="#DejaVuSans-48"/>
       <use x="63.623047" xlink:href="#DejaVuSans-46"/>
       <use x="95.410156" xlink:href="#DejaVuSans-48"/>
      </g>
     </g>
    </g>
    <g id="ytick_2">
     <g id="line2d_8">
      <g>
       <use style="stroke:#000000;stroke-width:0.8;" x="56.16" xlink:href="#mf048f2c08a" y="170.945339"/>
      </g>
     </g>
     <g id="text_8">
      <!-- 0.6 -->
      <defs>
       <path d="M 33.015625 40.375 
Q 26.375 40.375 22.484375 35.828125 
Q 18.609375 31.296875 18.609375 23.390625 
Q 18.609375 15.53125 22.484375 10.953125 
Q 26.375 6.390625 33.015625 6.390625 
Q 39.65625 6.390625 43.53125 10.953125 
Q 47.40625 15.53125 47.40625 23.390625 
Q 47.40625 31.296875 43.53125 35.828125 
Q 39.65625 40.375 33.015625 40.375 
z
M 52.59375 71.296875 
L 52.59375 62.3125 
Q 48.875 64.0625 45.09375 64.984375 
Q 41.3125 65.921875 37.59375 65.921875 
Q 27.828125 65.921875 22.671875 59.328125 
Q 17.53125 52.734375 16.796875 39.40625 
Q 19.671875 43.65625 24.015625 45.921875 
Q 28.375 48.1875 33.59375 48.1875 
Q 44.578125 48.1875 50.953125 41.515625 
Q 57.328125 34.859375 57.328125 23.390625 
Q 57.328125 12.15625 50.6875 5.359375 
Q 44.046875 -1.421875 33.015625 -1.421875 
Q 20.359375 -1.421875 13.671875 8.265625 
Q 6.984375 17.96875 6.984375 36.375 
Q 6.984375 53.65625 15.1875 63.9375 
Q 23.390625 74.21875 37.203125 74.21875 
Q 40.921875 74.21875 44.703125 73.484375 
Q 48.484375 72.75 52.59375 71.296875 
z
" id="DejaVuSans-54"/>
      </defs>
      <g transform="translate(30.756875 174.744558)scale(0.1 -0.1)">
       <use xlink:href="#DejaVuSans-48"/>
       <use x="63.623047" xlink:href="#DejaVuSans-46"/>
       <use x="95.410156" xlink:href="#DejaVuSans-54"/>
      </g>
     </g>
    </g>
    <g id="ytick_3">
     <g id="line2d_9">
      <g>
       <use style="stroke:#000000;stroke-width:0.8;" x="56.16" xlink:href="#mf048f2c08a" y="139.17224"/>
      </g>
     </g>
     <g id="text_9">
      <!-- 1.2 -->
      <defs>
       <path d="M 12.40625 8.296875 
L 28.515625 8.296875 
L 28.515625 63.921875 
L 10.984375 60.40625 
L 10.984375 69.390625 
L 28.421875 72.90625 
L 38.28125 72.90625 
L 38.28125 8.296875 
L 54.390625 8.296875 
L 54.390625 0 
L 12.40625 0 
z
" id="DejaVuSans-49"/>
      </defs>
      <g transform="translate(30.756875 142.971459)scale(0.1 -0.1)">
       <use xlink:href="#DejaVuSans-49"/>
       <use x="63.623047" xlink:href="#DejaVuSans-46"/>
       <use x="95.410156" xlink:href="#DejaVuSans-50"/>
      </g>
     </g>
    </g>
    <g id="ytick_4">
     <g id="line2d_10">
      <g>
       <use style="stroke:#000000;stroke-width:0.8;" x="56.16" xlink:href="#mf048f2c08a" y="107.399142"/>
      </g>
     </g>
     <g id="text_10">
      <!-- 1.8 -->
      <defs>
       <path d="M 31.78125 34.625 
Q 24.75 34.625 20.71875 30.859375 
Q 16.703125 27.09375 16.703125 20.515625 
Q 16.703125 13.921875 20.71875 10.15625 
Q 24.75 6.390625 31.78125 6.390625 
Q 38.8125 6.390625 42.859375 10.171875 
Q 46.921875 13.96875 46.921875 20.515625 
Q 46.921875 27.09375 42.890625 30.859375 
Q 38.875 34.625 31.78125 34.625 
z
M 21.921875 38.8125 
Q 15.578125 40.375 12.03125 44.71875 
Q 8.5 49.078125 8.5 55.328125 
Q 8.5 64.0625 14.71875 69.140625 
Q 20.953125 74.21875 31.78125 74.21875 
Q 42.671875 74.21875 48.875 69.140625 
Q 55.078125 64.0625 55.078125 55.328125 
Q 55.078125 49.078125 51.53125 44.71875 
Q 48 40.375 41.703125 38.8125 
Q 48.828125 37.15625 52.796875 32.3125 
Q 56.78125 27.484375 56.78125 20.515625 
Q 56.78125 9.90625 50.3125 4.234375 
Q 43.84375 -1.421875 31.78125 -1.421875 
Q 19.734375 -1.421875 13.25 4.234375 
Q 6.78125 9.90625 6.78125 20.515625 
Q 6.78125 27.484375 10.78125 32.3125 
Q 14.796875 37.15625 21.921875 38.8125 
z
M 18.3125 54.390625 
Q 18.3125 48.734375 21.84375 45.5625 
Q 25.390625 42.390625 31.78125 42.390625 
Q 38.140625 42.390625 41.71875 45.5625 
Q 45.3125 48.734375 45.3125 54.390625 
Q 45.3125 60.0625 41.71875 63.234375 
Q 38.140625 66.40625 31.78125 66.40625 
Q 25.390625 66.40625 21.84375 63.234375 
Q 18.3125 60.0625 18.3125 54.390625 
z
" id="DejaVuSans-56"/>
      </defs>
      <g transform="translate(30.756875 111.198361)scale(0.1 -0.1)">
       <use xlink:href="#DejaVuSans-49"/>
       <use x="63.623047" xlink:href="#DejaVuSans-46"/>
       <use x="95.410156" xlink:href="#DejaVuSans-56"/>
      </g>
     </g>
    </g>
    <g id="ytick_5">
     <g id="line2d_11">
      <g>
       <use style="stroke:#000000;stroke-width:0.8;" x="56.16" xlink:href="#mf048f2c08a" y="75.626043"/>
      </g>
     </g>
     <g id="text_11">
      <!-- 2.4 -->
      <defs>
       <path d="M 37.796875 64.3125 
L 12.890625 25.390625 
L 37.796875 25.390625 
z
M 35.203125 72.90625 
L 47.609375 72.90625 
L 47.609375 25.390625 
L 58.015625 25.390625 
L 58.015625 17.1875 
L 47.609375 17.1875 
L 47.609375 0 
L 37.796875 0 
L 37.796875 17.1875 
L 4.890625 17.1875 
L 4.890625 26.703125 
z
" id="DejaVuSans-52"/>
      </defs>
      <g transform="translate(30.756875 79.425262)scale(0.1 -0.1)">
       <use xlink:href="#DejaVuSans-50"/>
       <use x="63.623047" xlink:href="#DejaVuSans-46"/>
       <use x="95.410156" xlink:href="#DejaVuSans-52"/>
      </g>
     </g>
    </g>
    <g id="ytick_6">
     <g id="line2d_12">
      <g>
       <use style="stroke:#000000;stroke-width:0.8;" x="56.16" xlink:href="#mf048f2c08a" y="43.852945"/>
      </g>
     </g>
     <g id="text_12">
      <!-- 3.0 -->
      <defs>
       <path d="M 40.578125 39.3125 
Q 47.65625 37.796875 51.625 33 
Q 55.609375 28.21875 55.609375 21.1875 
Q 55.609375 10.40625 48.1875 4.484375 
Q 40.765625 -1.421875 27.09375 -1.421875 
Q 22.515625 -1.421875 17.65625 -0.515625 
Q 12.796875 0.390625 7.625 2.203125 
L 7.625 11.71875 
Q 11.71875 9.328125 16.59375 8.109375 
Q 21.484375 6.890625 26.8125 6.890625 
Q 36.078125 6.890625 40.9375 10.546875 
Q 45.796875 14.203125 45.796875 21.1875 
Q 45.796875 27.640625 41.28125 31.265625 
Q 36.765625 34.90625 28.71875 34.90625 
L 20.21875 34.90625 
L 20.21875 43.015625 
L 29.109375 43.015625 
Q 36.375 43.015625 40.234375 45.921875 
Q 44.09375 48.828125 44.09375 54.296875 
Q 44.09375 59.90625 40.109375 62.90625 
Q 36.140625 65.921875 28.71875 65.921875 
Q 24.65625 65.921875 20.015625 65.03125 
Q 15.375 64.15625 9.8125 62.3125 
L 9.8125 71.09375 
Q 15.4375 72.65625 20.34375 73.4375 
Q 25.25 74.21875 29.59375 74.21875 
Q 40.828125 74.21875 47.359375 69.109375 
Q 53.90625 64.015625 53.90625 55.328125 
Q 53.90625 49.265625 50.4375 45.09375 
Q 46.96875 40.921875 40.578125 39.3125 
z
" id="DejaVuSans-51"/>
      </defs>
      <g transform="translate(30.756875 47.652164)scale(0.1 -0.1)">
       <use xlink:href="#DejaVuSans-51"/>
       <use x="63.623047" xlink:href="#DejaVuSans-46"/>
       <use x="95.410156" xlink:href="#DejaVuSans-48"/>
      </g>
     </g>
    </g>
   </g>
   <g id="LineCollection_1">
    <path clip-path="url(#p1f78494a7b)" d="M 53.830957 207.021466 
L 53.830957 188.199961 
" style="fill:none;stroke:#ba55d3;stroke-opacity:0.25;stroke-width:1.5;"/>
    <path clip-path="url(#p1f78494a7b)" d="M 55.92301 206.392543 
L 55.92301 190.193141 
" style="fill:none;stroke:#ba55d3;stroke-opacity:0.25;stroke-width:1.5;"/>
    <path clip-path="url(#p1f78494a7b)" d="M 58.015063 202.698746 
L 58.015063 187.366436 
" style="fill:none;stroke:#ba55d3;stroke-opacity:0.25;stroke-width:1.5;"/>
    <path clip-path="url(#p1f78494a7b)" d="M 60.107116 210.888608 
L 60.107116 189.544798 
" style="fill:none;stroke:#ba55d3;stroke-opacity:0.25;stroke-width:1.5;"/>
    <path clip-path="url(#p1f78494a7b)" d="M 62.199169 208.335001 
L 62.199169 189.435687 
" style="fill:none;stroke:#ba55d3;stroke-opacity:0.25;stroke-width:1.5;"/>
    <path clip-path="url(#p1f78494a7b)" d="M 64.291222 200.989227 
L 64.291222 188.546404 
" style="fill:none;stroke:#ba55d3;stroke-opacity:0.25;stroke-width:1.5;"/>
    <path clip-path="url(#p1f78494a7b)" d="M 66.383275 199.46405 
L 66.383275 188.413819 
" style="fill:none;stroke:#ba55d3;stroke-opacity:0.25;stroke-width:1.5;"/>
    <path clip-path="url(#p1f78494a7b)" d="M 68.475328 208.499307 
L 68.475328 193.147964 
" style="fill:none;stroke:#ba55d3;stroke-opacity:0.25;stroke-width:1.5;"/>
    <path clip-path="url(#p1f78494a7b)" d="M 70.567381 208.434588 
L 70.567381 188.655229 
" style="fill:none;stroke:#ba55d3;stroke-opacity:0.25;stroke-width:1.5;"/>
    <path clip-path="url(#p1f78494a7b)" d="M 72.659434 208.043168 
L 72.659434 190.729961 
" style="fill:none;stroke:#ba55d3;stroke-opacity:0.25;stroke-width:1.5;"/>
    <path clip-path="url(#p1f78494a7b)" d="M 74.751487 206.012762 
L 74.751487 191.646323 
" style="fill:none;stroke:#ba55d3;stroke-opacity:0.25;stroke-width:1.5;"/>
    <path clip-path="url(#p1f78494a7b)" d="M 76.843541 203.502356 
L 76.843541 187.993807 
" style="fill:none;stroke:#ba55d3;stroke-opacity:0.25;stroke-width:1.5;"/>
    <path clip-path="url(#p1f78494a7b)" d="M 78.935594 197.82783 
L 78.935594 185.928009 
" style="fill:none;stroke:#ba55d3;stroke-opacity:0.25;stroke-width:1.5;"/>
    <path clip-path="url(#p1f78494a7b)" d="M 81.027647 202.194918 
L 81.027647 188.780829 
" style="fill:none;stroke:#ba55d3;stroke-opacity:0.25;stroke-width:1.5;"/>
    <path clip-path="url(#p1f78494a7b)" d="M 83.1197 207.121667 
L 83.1197 188.641624 
" style="fill:none;stroke:#ba55d3;stroke-opacity:0.25;stroke-width:1.5;"/>
    <path clip-path="url(#p1f78494a7b)" d="M 85.211753 202.726155 
L 85.211753 189.325111 
" style="fill:none;stroke:#ba55d3;stroke-opacity:0.25;stroke-width:1.5;"/>
    <path clip-path="url(#p1f78494a7b)" d="M 87.303806 202.317207 
L 87.303806 186.469108 
" style="fill:none;stroke:#ba55d3;stroke-opacity:0.25;stroke-width:1.5;"/>
    <path clip-path="url(#p1f78494a7b)" d="M 89.395859 203.820353 
L 89.395859 184.405167 
" style="fill:none;stroke:#ba55d3;stroke-opacity:0.25;stroke-width:1.5;"/>
    <path clip-path="url(#p1f78494a7b)" d="M 91.487912 204.23909 
L 91.487912 189.506476 
" style="fill:none;stroke:#ba55d3;stroke-opacity:0.25;stroke-width:1.5;"/>
    <path clip-path="url(#p1f78494a7b)" d="M 93.579965 207.834212 
L 93.579965 187.907632 
" style="fill:none;stroke:#ba55d3;stroke-opacity:0.25;stroke-width:1.5;"/>
    <path clip-path="url(#p1f78494a7b)" d="M 95.672018 201.919774 
L 95.672018 190.71572 
" style="fill:none;stroke:#ba55d3;stroke-opacity:0.25;stroke-width:1.5;"/>
    <path clip-path="url(#p1f78494a7b)" d="M 97.764071 207.221665 
L 97.764071 190.519633 
" style="fill:none;stroke:#ba55d3;stroke-opacity:0.25;stroke-width:1.5;"/>
    <path clip-path="url(#p1f78494a7b)" d="M 99.856124 202.981478 
L 99.856124 186.906569 
" style="fill:none;stroke:#ba55d3;stroke-opacity:0.25;stroke-width:1.5;"/>
    <path clip-path="url(#p1f78494a7b)" d="M 101.948178 205.612705 
L 101.948178 190.433498 
" style="fill:none;stroke:#ba55d3;stroke-opacity:0.25;stroke-width:1.5;"/>
    <path clip-path="url(#p1f78494a7b)" d="M 104.040231 202.474725 
L 104.040231 189.895463 
" style="fill:none;stroke:#ba55d3;stroke-opacity:0.25;stroke-width:1.5;"/>
    <path clip-path="url(#p1f78494a7b)" d="M 106.132284 200.950802 
L 106.132284 188.509368 
" style="fill:none;stroke:#ba55d3;stroke-opacity:0.25;stroke-width:1.5;"/>
    <path clip-path="url(#p1f78494a7b)" d="M 108.224337 202.915941 
L 108.224337 185.645579 
" style="fill:none;stroke:#ba55d3;stroke-opacity:0.25;stroke-width:1.5;"/>
    <path clip-path="url(#p1f78494a7b)" d="M 110.31639 203.496047 
L 110.31639 188.434878 
" style="fill:none;stroke:#ba55d3;stroke-opacity:0.25;stroke-width:1.5;"/>
    <path clip-path="url(#p1f78494a7b)" d="M 112.408443 197.534473 
L 112.408443 184.965799 
" style="fill:none;stroke:#ba55d3;stroke-opacity:0.25;stroke-width:1.5;"/>
    <path clip-path="url(#p1f78494a7b)" d="M 114.500496 201.714814 
L 114.500496 185.365286 
" style="fill:none;stroke:#ba55d3;stroke-opacity:0.25;stroke-width:1.5;"/>
    <path clip-path="url(#p1f78494a7b)" d="M 116.592549 198.142083 
L 116.592549 189.628949 
" style="fill:none;stroke:#ba55d3;stroke-opacity:0.25;stroke-width:1.5;"/>
    <path clip-path="url(#p1f78494a7b)" d="M 118.684602 203.479269 
L 118.684602 192.844551 
" style="fill:none;stroke:#ba55d3;stroke-opacity:0.25;stroke-width:1.5;"/>
    <path clip-path="url(#p1f78494a7b)" d="M 120.776655 203.466376 
L 120.776655 189.75917 
" style="fill:none;stroke:#ba55d3;stroke-opacity:0.25;stroke-width:1.5;"/>
    <path clip-path="url(#p1f78494a7b)" d="M 122.868708 198.096279 
L 122.868708 187.280782 
" style="fill:none;stroke:#ba55d3;stroke-opacity:0.25;stroke-width:1.5;"/>
    <path clip-path="url(#p1f78494a7b)" d="M 124.960762 206.607369 
L 124.960762 187.77869 
" style="fill:none;stroke:#ba55d3;stroke-opacity:0.25;stroke-width:1.5;"/>
    <path clip-path="url(#p1f78494a7b)" d="M 127.052815 206.066842 
L 127.052815 187.165853 
" style="fill:none;stroke:#ba55d3;stroke-opacity:0.25;stroke-width:1.5;"/>
    <path clip-path="url(#p1f78494a7b)" d="M 129.144868 201.547622 
L 129.144868 188.990979 
" style="fill:none;stroke:#ba55d3;stroke-opacity:0.25;stroke-width:1.5;"/>
    <path clip-path="url(#p1f78494a7b)" d="M 131.236921 196.095727 
L 131.236921 185.606643 
" style="fill:none;stroke:#ba55d3;stroke-opacity:0.25;stroke-width:1.5;"/>
    <path clip-path="url(#p1f78494a7b)" d="M 133.328974 200.207922 
L 133.328974 189.943445 
" style="fill:none;stroke:#ba55d3;stroke-opacity:0.25;stroke-width:1.5;"/>
    <path clip-path="url(#p1f78494a7b)" d="M 135.421027 207.246104 
L 135.421027 188.176817 
" style="fill:none;stroke:#ba55d3;stroke-opacity:0.25;stroke-width:1.5;"/>
    <path clip-path="url(#p1f78494a7b)" d="M 137.51308 203.020156 
L 137.51308 184.13236 
" style="fill:none;stroke:#ba55d3;stroke-opacity:0.25;stroke-width:1.5;"/>
    <path clip-path="url(#p1f78494a7b)" d="M 139.605133 196.390897 
L 139.605133 183.782525 
" style="fill:none;stroke:#ba55d3;stroke-opacity:0.25;stroke-width:1.5;"/>
    <path clip-path="url(#p1f78494a7b)" d="M 141.697186 197.095029 
L 141.697186 180.946286 
" style="fill:none;stroke:#ba55d3;stroke-opacity:0.25;stroke-width:1.5;"/>
    <path clip-path="url(#p1f78494a7b)" d="M 143.789239 201.710168 
L 143.789239 185.199019 
" style="fill:none;stroke:#ba55d3;stroke-opacity:0.25;stroke-width:1.5;"/>
    <path clip-path="url(#p1f78494a7b)" d="M 145.881292 197.712826 
L 145.881292 182.431471 
" style="fill:none;stroke:#ba55d3;stroke-opacity:0.25;stroke-width:1.5;"/>
    <path clip-path="url(#p1f78494a7b)" d="M 147.973346 195.233091 
L 147.973346 181.870786 
" style="fill:none;stroke:#ba55d3;stroke-opacity:0.25;stroke-width:1.5;"/>
    <path clip-path="url(#p1f78494a7b)" d="M 150.065399 196.484212 
L 150.065399 179.416125 
" style="fill:none;stroke:#ba55d3;stroke-opacity:0.25;stroke-width:1.5;"/>
    <path clip-path="url(#p1f78494a7b)" d="M 152.157452 195.657072 
L 152.157452 184.803897 
" style="fill:none;stroke:#ba55d3;stroke-opacity:0.25;stroke-width:1.5;"/>
    <path clip-path="url(#p1f78494a7b)" d="M 154.249505 193.725382 
L 154.249505 179.233429 
" style="fill:none;stroke:#ba55d3;stroke-opacity:0.25;stroke-width:1.5;"/>
    <path clip-path="url(#p1f78494a7b)" d="M 156.341558 196.094038 
L 156.341558 179.304947 
" style="fill:none;stroke:#ba55d3;stroke-opacity:0.25;stroke-width:1.5;"/>
    <path clip-path="url(#p1f78494a7b)" d="M 158.433611 199.653551 
L 158.433611 184.497731 
" style="fill:none;stroke:#ba55d3;stroke-opacity:0.25;stroke-width:1.5;"/>
    <path clip-path="url(#p1f78494a7b)" d="M 160.525664 199.545902 
L 160.525664 180.60369 
" style="fill:none;stroke:#ba55d3;stroke-opacity:0.25;stroke-width:1.5;"/>
    <path clip-path="url(#p1f78494a7b)" d="M 162.617717 199.332157 
L 162.617717 182.864153 
" style="fill:none;stroke:#ba55d3;stroke-opacity:0.25;stroke-width:1.5;"/>
    <path clip-path="url(#p1f78494a7b)" d="M 164.70977 194.644871 
L 164.70977 184.889515 
" style="fill:none;stroke:#ba55d3;stroke-opacity:0.25;stroke-width:1.5;"/>
    <path clip-path="url(#p1f78494a7b)" d="M 166.801823 201.937883 
L 166.801823 187.54797 
" style="fill:none;stroke:#ba55d3;stroke-opacity:0.25;stroke-width:1.5;"/>
    <path clip-path="url(#p1f78494a7b)" d="M 168.893876 203.884589 
L 168.893876 193.572737 
" style="fill:none;stroke:#ba55d3;stroke-opacity:0.25;stroke-width:1.5;"/>
    <path clip-path="url(#p1f78494a7b)" d="M 170.98593 199.885289 
L 170.98593 187.36109 
" style="fill:none;stroke:#ba55d3;stroke-opacity:0.25;stroke-width:1.5;"/>
    <path clip-path="url(#p1f78494a7b)" d="M 173.077983 196.914684 
L 173.077983 181.557686 
" style="fill:none;stroke:#ba55d3;stroke-opacity:0.25;stroke-width:1.5;"/>
    <path clip-path="url(#p1f78494a7b)" d="M 175.170036 204.687335 
L 175.170036 186.617263 
" style="fill:none;stroke:#ba55d3;stroke-opacity:0.25;stroke-width:1.5;"/>
    <path clip-path="url(#p1f78494a7b)" d="M 177.262089 204.382833 
L 177.262089 185.038414 
" style="fill:none;stroke:#ba55d3;stroke-opacity:0.25;stroke-width:1.5;"/>
    <path clip-path="url(#p1f78494a7b)" d="M 179.354142 205.574955 
L 179.354142 186.603006 
" style="fill:none;stroke:#ba55d3;stroke-opacity:0.25;stroke-width:1.5;"/>
    <path clip-path="url(#p1f78494a7b)" d="M 181.446195 208.420241 
L 181.446195 187.032467 
" style="fill:none;stroke:#ba55d3;stroke-opacity:0.25;stroke-width:1.5;"/>
    <path clip-path="url(#p1f78494a7b)" d="M 183.538248 207.579569 
L 183.538248 185.621089 
" style="fill:none;stroke:#ba55d3;stroke-opacity:0.25;stroke-width:1.5;"/>
    <path clip-path="url(#p1f78494a7b)" d="M 185.630301 202.824462 
L 185.630301 185.77426 
" style="fill:none;stroke:#ba55d3;stroke-opacity:0.25;stroke-width:1.5;"/>
    <path clip-path="url(#p1f78494a7b)" d="M 187.722354 200.175662 
L 187.722354 190.183157 
" style="fill:none;stroke:#ba55d3;stroke-opacity:0.25;stroke-width:1.5;"/>
    <path clip-path="url(#p1f78494a7b)" d="M 189.814407 199.933793 
L 189.814407 185.114814 
" style="fill:none;stroke:#ba55d3;stroke-opacity:0.25;stroke-width:1.5;"/>
    <path clip-path="url(#p1f78494a7b)" d="M 191.90646 203.49739 
L 191.90646 188.186632 
" style="fill:none;stroke:#ba55d3;stroke-opacity:0.25;stroke-width:1.5;"/>
    <path clip-path="url(#p1f78494a7b)" d="M 193.998514 201.769385 
L 193.998514 188.90915 
" style="fill:none;stroke:#ba55d3;stroke-opacity:0.25;stroke-width:1.5;"/>
    <path clip-path="url(#p1f78494a7b)" d="M 196.090567 201.490198 
L 196.090567 186.973752 
" style="fill:none;stroke:#ba55d3;stroke-opacity:0.25;stroke-width:1.5;"/>
    <path clip-path="url(#p1f78494a7b)" d="M 198.18262 200.262084 
L 198.18262 181.732467 
" style="fill:none;stroke:#ba55d3;stroke-opacity:0.25;stroke-width:1.5;"/>
    <path clip-path="url(#p1f78494a7b)" d="M 200.274673 205.772923 
L 200.274673 186.326134 
" style="fill:none;stroke:#ba55d3;stroke-opacity:0.25;stroke-width:1.5;"/>
    <path clip-path="url(#p1f78494a7b)" d="M 202.366726 205.99452 
L 202.366726 185.914429 
" style="fill:none;stroke:#ba55d3;stroke-opacity:0.25;stroke-width:1.5;"/>
    <path clip-path="url(#p1f78494a7b)" d="M 204.458779 205.293751 
L 204.458779 191.176359 
" style="fill:none;stroke:#ba55d3;stroke-opacity:0.25;stroke-width:1.5;"/>
    <path clip-path="url(#p1f78494a7b)" d="M 206.550832 199.813428 
L 206.550832 186.261318 
" style="fill:none;stroke:#ba55d3;stroke-opacity:0.25;stroke-width:1.5;"/>
    <path clip-path="url(#p1f78494a7b)" d="M 208.642885 203.438295 
L 208.642885 188.672015 
" style="fill:none;stroke:#ba55d3;stroke-opacity:0.25;stroke-width:1.5;"/>
    <path clip-path="url(#p1f78494a7b)" d="M 210.734938 200.723437 
L 210.734938 186.542535 
" style="fill:none;stroke:#ba55d3;stroke-opacity:0.25;stroke-width:1.5;"/>
    <path clip-path="url(#p1f78494a7b)" d="M 212.826991 203.536215 
L 212.826991 187.799495 
" style="fill:none;stroke:#ba55d3;stroke-opacity:0.25;stroke-width:1.5;"/>
    <path clip-path="url(#p1f78494a7b)" d="M 214.919044 201.302629 
L 214.919044 187.341899 
" style="fill:none;stroke:#ba55d3;stroke-opacity:0.25;stroke-width:1.5;"/>
    <path clip-path="url(#p1f78494a7b)" d="M 217.011097 199.009499 
L 217.011097 192.135042 
" style="fill:none;stroke:#ba55d3;stroke-opacity:0.25;stroke-width:1.5;"/>
    <path clip-path="url(#p1f78494a7b)" d="M 219.103151 199.992651 
L 219.103151 192.761065 
" style="fill:none;stroke:#ba55d3;stroke-opacity:0.25;stroke-width:1.5;"/>
    <path clip-path="url(#p1f78494a7b)" d="M 221.195204 200.952152 
L 221.195204 189.391442 
" style="fill:none;stroke:#ba55d3;stroke-opacity:0.25;stroke-width:1.5;"/>
    <path clip-path="url(#p1f78494a7b)" d="M 223.287257 201.621786 
L 223.287257 185.463344 
" style="fill:none;stroke:#ba55d3;stroke-opacity:0.25;stroke-width:1.5;"/>
    <path clip-path="url(#p1f78494a7b)" d="M 225.37931 198.545023 
L 225.37931 186.816814 
" style="fill:none;stroke:#ba55d3;stroke-opacity:0.25;stroke-width:1.5;"/>
    <path clip-path="url(#p1f78494a7b)" d="M 227.471363 200.58045 
L 227.471363 187.614356 
" style="fill:none;stroke:#ba55d3;stroke-opacity:0.25;stroke-width:1.5;"/>
    <path clip-path="url(#p1f78494a7b)" d="M 229.563416 199.293943 
L 229.563416 183.856354 
" style="fill:none;stroke:#ba55d3;stroke-opacity:0.25;stroke-width:1.5;"/>
    <path clip-path="url(#p1f78494a7b)" d="M 231.655469 205.798686 
L 231.655469 187.360402 
" style="fill:none;stroke:#ba55d3;stroke-opacity:0.25;stroke-width:1.5;"/>
    <path clip-path="url(#p1f78494a7b)" d="M 233.747522 201.398841 
L 233.747522 183.9671 
" style="fill:none;stroke:#ba55d3;stroke-opacity:0.25;stroke-width:1.5;"/>
    <path clip-path="url(#p1f78494a7b)" d="M 235.839575 200.616606 
L 235.839575 183.623508 
" style="fill:none;stroke:#ba55d3;stroke-opacity:0.25;stroke-width:1.5;"/>
    <path clip-path="url(#p1f78494a7b)" d="M 237.931628 197.11525 
L 237.931628 182.135825 
" style="fill:none;stroke:#ba55d3;stroke-opacity:0.25;stroke-width:1.5;"/>
    <path clip-path="url(#p1f78494a7b)" d="M 240.023681 196.770956 
L 240.023681 182.980281 
" style="fill:none;stroke:#ba55d3;stroke-opacity:0.25;stroke-width:1.5;"/>
    <path clip-path="url(#p1f78494a7b)" d="M 242.115735 202.908139 
L 242.115735 185.209353 
" style="fill:none;stroke:#ba55d3;stroke-opacity:0.25;stroke-width:1.5;"/>
    <path clip-path="url(#p1f78494a7b)" d="M 244.207788 199.47938 
L 244.207788 184.054047 
" style="fill:none;stroke:#ba55d3;stroke-opacity:0.25;stroke-width:1.5;"/>
    <path clip-path="url(#p1f78494a7b)" d="M 246.299841 200.950313 
L 246.299841 184.171505 
" style="fill:none;stroke:#ba55d3;stroke-opacity:0.25;stroke-width:1.5;"/>
    <path clip-path="url(#p1f78494a7b)" d="M 248.391894 203.57149 
L 248.391894 183.375428 
" style="fill:none;stroke:#ba55d3;stroke-opacity:0.25;stroke-width:1.5;"/>
    <path clip-path="url(#p1f78494a7b)" d="M 250.483947 199.802335 
L 250.483947 186.782369 
" style="fill:none;stroke:#ba55d3;stroke-opacity:0.25;stroke-width:1.5;"/>
    <path clip-path="url(#p1f78494a7b)" d="M 252.576 199.109301 
L 252.576 188.130061 
" style="fill:none;stroke:#ba55d3;stroke-opacity:0.25;stroke-width:1.5;"/>
   </g>
   <g id="line2d_13">
    <path clip-path="url(#p1f78494a7b)" d="M 60.041739 184.777242 
L 62.135261 184.984355 
L 64.228784 185.351115 
L 66.322306 185.820854 
L 68.415828 186.321424 
L 70.50935 186.78166 
L 72.602872 187.154351 
L 74.696395 187.433493 
L 76.789917 187.652497 
L 78.883439 187.860217 
L 80.976961 188.087531 
L 83.070484 188.326005 
L 85.164006 188.532963 
L 87.257528 188.659826 
L 89.35105 188.68492 
L 91.444573 188.627316 
L 93.538095 188.530351 
L 95.631617 188.427625 
L 97.725139 188.319498 
L 99.818661 188.178427 
L 101.912184 187.975643 
L 104.005706 187.703914 
L 106.099228 187.378046 
L 108.19275 187.019397 
L 110.286273 186.644388 
L 112.379795 186.262918 
L 114.473317 185.87454 
L 116.566839 185.457529 
L 118.660362 184.963864 
L 120.753884 184.328553 
L 122.847406 183.481596 
L 124.940928 182.34615 
L 127.03445 180.819959 
L 129.127973 178.748237 
L 131.221495 175.895742 
L 133.315017 171.916276 
L 135.408539 166.311496 
L 137.502062 158.394463 
L 139.595584 147.334327 
L 141.689106 132.40376 
L 143.782628 113.489811 
L 145.87615 91.723487 
L 147.969673 69.838365 
L 150.063195 51.816611 
L 152.156717 41.693954 
L 154.250239 41.971891 
L 156.343762 52.514754 
L 158.437284 70.634846 
L 160.530806 92.302225 
L 162.624328 113.698938 
L 164.717851 132.278965 
L 166.811373 147.004864 
L 168.904895 157.971401 
L 170.998417 165.837026 
L 173.091939 171.379599 
L 175.185462 175.274646 
L 177.278984 178.039605 
L 179.372506 180.049344 
L 181.466028 181.562962 
L 183.559551 182.745567 
L 185.653073 183.689538 
L 187.746595 184.440632 
L 189.840117 185.026627 
L 191.933639 185.477459 
L 194.027162 185.827675 
L 196.120684 186.107024 
L 198.214206 186.334123 
L 200.307728 186.5194 
L 202.401251 186.671515 
L 204.494773 186.799819 
L 206.588295 186.911935 
L 208.681817 187.012977 
L 210.77534 187.110568 
L 212.868862 187.216681 
L 214.962384 187.336212 
L 217.055906 187.452982 
L 219.149428 187.535476 
L 221.242951 187.562598 
L 223.336473 187.542075 
L 225.429995 187.500382 
L 227.523517 187.454589 
L 229.61704 187.392705 
L 231.710562 187.276533 
L 233.804084 187.062008 
L 235.897606 186.724612 
L 237.991128 186.278229 
L 240.084651 185.778449 
L 242.178173 185.307669 
L 244.271695 184.949155 
L 246.365217 184.763456 
" style="fill:none;stroke:#db5f57;stroke-linecap:square;stroke-opacity:0.7;stroke-width:1.5;"/>
   </g>
   <g id="line2d_14">
    <defs>
     <path d="M 0 1 
C 0.265203 1 0.51958 0.894634 0.707107 0.707107 
C 0.894634 0.51958 1 0.265203 1 0 
C 1 -0.265203 0.894634 -0.51958 0.707107 -0.707107 
C 0.51958 -0.894634 0.265203 -1 0 -1 
C -0.265203 -1 -0.51958 -0.894634 -0.707107 -0.707107 
C -0.894634 -0.51958 -1 -0.265203 -1 0 
C -1 0.265203 -0.894634 0.51958 -0.707107 0.707107 
C -0.51958 0.894634 -0.265203 1 0 1 
z
" id="m1e8e8929ab" style="stroke:#ba55d3;"/>
    </defs>
    <g clip-path="url(#p1f78494a7b)">
     <use style="fill:#ffffff;stroke:#ba55d3;" x="53.830957" xlink:href="#m1e8e8929ab" y="197.610713"/>
     <use style="fill:#ffffff;stroke:#ba55d3;" x="55.92301" xlink:href="#m1e8e8929ab" y="198.292842"/>
     <use style="fill:#ffffff;stroke:#ba55d3;" x="58.015063" xlink:href="#m1e8e8929ab" y="195.032591"/>
     <use style="fill:#ffffff;stroke:#ba55d3;" x="60.107116" xlink:href="#m1e8e8929ab" y="200.216703"/>
     <use style="fill:#ffffff;stroke:#ba55d3;" x="62.199169" xlink:href="#m1e8e8929ab" y="198.885344"/>
     <use style="fill:#ffffff;stroke:#ba55d3;" x="64.291222" xlink:href="#m1e8e8929ab" y="194.767815"/>
     <use style="fill:#ffffff;stroke:#ba55d3;" x="66.383275" xlink:href="#m1e8e8929ab" y="193.938935"/>
     <use style="fill:#ffffff;stroke:#ba55d3;" x="68.475328" xlink:href="#m1e8e8929ab" y="200.823636"/>
     <use style="fill:#ffffff;stroke:#ba55d3;" x="70.567381" xlink:href="#m1e8e8929ab" y="198.544909"/>
     <use style="fill:#ffffff;stroke:#ba55d3;" x="72.659434" xlink:href="#m1e8e8929ab" y="199.386565"/>
     <use style="fill:#ffffff;stroke:#ba55d3;" x="74.751487" xlink:href="#m1e8e8929ab" y="198.829543"/>
     <use style="fill:#ffffff;stroke:#ba55d3;" x="76.843541" xlink:href="#m1e8e8929ab" y="195.748082"/>
     <use style="fill:#ffffff;stroke:#ba55d3;" x="78.935594" xlink:href="#m1e8e8929ab" y="191.87792"/>
     <use style="fill:#ffffff;stroke:#ba55d3;" x="81.027647" xlink:href="#m1e8e8929ab" y="195.487873"/>
     <use style="fill:#ffffff;stroke:#ba55d3;" x="83.1197" xlink:href="#m1e8e8929ab" y="197.881645"/>
     <use style="fill:#ffffff;stroke:#ba55d3;" x="85.211753" xlink:href="#m1e8e8929ab" y="196.025633"/>
     <use style="fill:#ffffff;stroke:#ba55d3;" x="87.303806" xlink:href="#m1e8e8929ab" y="194.393158"/>
     <use style="fill:#ffffff;stroke:#ba55d3;" x="89.395859" xlink:href="#m1e8e8929ab" y="194.11276"/>
     <use style="fill:#ffffff;stroke:#ba55d3;" x="91.487912" xlink:href="#m1e8e8929ab" y="196.872783"/>
     <use style="fill:#ffffff;stroke:#ba55d3;" x="93.579965" xlink:href="#m1e8e8929ab" y="197.870922"/>
     <use style="fill:#ffffff;stroke:#ba55d3;" x="95.672018" xlink:href="#m1e8e8929ab" y="196.317747"/>
     <use style="fill:#ffffff;stroke:#ba55d3;" x="97.764071" xlink:href="#m1e8e8929ab" y="198.870649"/>
     <use style="fill:#ffffff;stroke:#ba55d3;" x="99.856124" xlink:href="#m1e8e8929ab" y="194.944024"/>
     <use style="fill:#ffffff;stroke:#ba55d3;" x="101.948178" xlink:href="#m1e8e8929ab" y="198.023102"/>
     <use style="fill:#ffffff;stroke:#ba55d3;" x="104.040231" xlink:href="#m1e8e8929ab" y="196.185094"/>
     <use style="fill:#ffffff;stroke:#ba55d3;" x="106.132284" xlink:href="#m1e8e8929ab" y="194.730085"/>
     <use style="fill:#ffffff;stroke:#ba55d3;" x="108.224337" xlink:href="#m1e8e8929ab" y="194.28076"/>
     <use style="fill:#ffffff;stroke:#ba55d3;" x="110.31639" xlink:href="#m1e8e8929ab" y="195.965463"/>
     <use style="fill:#ffffff;stroke:#ba55d3;" x="112.408443" xlink:href="#m1e8e8929ab" y="191.250136"/>
     <use style="fill:#ffffff;stroke:#ba55d3;" x="114.500496" xlink:href="#m1e8e8929ab" y="193.54005"/>
     <use style="fill:#ffffff;stroke:#ba55d3;" x="116.592549" xlink:href="#m1e8e8929ab" y="193.885516"/>
     <use style="fill:#ffffff;stroke:#ba55d3;" x="118.684602" xlink:href="#m1e8e8929ab" y="198.16191"/>
     <use style="fill:#ffffff;stroke:#ba55d3;" x="120.776655" xlink:href="#m1e8e8929ab" y="196.612773"/>
     <use style="fill:#ffffff;stroke:#ba55d3;" x="122.868708" xlink:href="#m1e8e8929ab" y="192.688531"/>
     <use style="fill:#ffffff;stroke:#ba55d3;" x="124.960762" xlink:href="#m1e8e8929ab" y="197.193029"/>
     <use style="fill:#ffffff;stroke:#ba55d3;" x="127.052815" xlink:href="#m1e8e8929ab" y="196.616348"/>
     <use style="fill:#ffffff;stroke:#ba55d3;" x="129.144868" xlink:href="#m1e8e8929ab" y="195.269301"/>
     <use style="fill:#ffffff;stroke:#ba55d3;" x="131.236921" xlink:href="#m1e8e8929ab" y="190.851185"/>
     <use style="fill:#ffffff;stroke:#ba55d3;" x="133.328974" xlink:href="#m1e8e8929ab" y="195.075683"/>
     <use style="fill:#ffffff;stroke:#ba55d3;" x="135.421027" xlink:href="#m1e8e8929ab" y="197.711461"/>
     <use style="fill:#ffffff;stroke:#ba55d3;" x="137.51308" xlink:href="#m1e8e8929ab" y="193.576258"/>
     <use style="fill:#ffffff;stroke:#ba55d3;" x="139.605133" xlink:href="#m1e8e8929ab" y="190.086711"/>
     <use style="fill:#ffffff;stroke:#ba55d3;" x="141.697186" xlink:href="#m1e8e8929ab" y="189.020658"/>
     <use style="fill:#ffffff;stroke:#ba55d3;" x="143.789239" xlink:href="#m1e8e8929ab" y="193.454593"/>
     <use style="fill:#ffffff;stroke:#ba55d3;" x="145.881292" xlink:href="#m1e8e8929ab" y="190.072149"/>
     <use style="fill:#ffffff;stroke:#ba55d3;" x="147.973346" xlink:href="#m1e8e8929ab" y="188.551938"/>
     <use style="fill:#ffffff;stroke:#ba55d3;" x="150.065399" xlink:href="#m1e8e8929ab" y="187.950169"/>
     <use style="fill:#ffffff;stroke:#ba55d3;" x="152.157452" xlink:href="#m1e8e8929ab" y="190.230484"/>
     <use style="fill:#ffffff;stroke:#ba55d3;" x="154.249505" xlink:href="#m1e8e8929ab" y="186.479405"/>
     <use style="fill:#ffffff;stroke:#ba55d3;" x="156.341558" xlink:href="#m1e8e8929ab" y="187.699492"/>
     <use style="fill:#ffffff;stroke:#ba55d3;" x="158.433611" xlink:href="#m1e8e8929ab" y="192.075641"/>
     <use style="fill:#ffffff;stroke:#ba55d3;" x="160.525664" xlink:href="#m1e8e8929ab" y="190.074796"/>
     <use style="fill:#ffffff;stroke:#ba55d3;" x="162.617717" xlink:href="#m1e8e8929ab" y="191.098155"/>
     <use style="fill:#ffffff;stroke:#ba55d3;" x="164.70977" xlink:href="#m1e8e8929ab" y="189.767193"/>
     <use style="fill:#ffffff;stroke:#ba55d3;" x="166.801823" xlink:href="#m1e8e8929ab" y="194.742926"/>
     <use style="fill:#ffffff;stroke:#ba55d3;" x="168.893876" xlink:href="#m1e8e8929ab" y="198.728663"/>
     <use style="fill:#ffffff;stroke:#ba55d3;" x="170.98593" xlink:href="#m1e8e8929ab" y="193.623189"/>
     <use style="fill:#ffffff;stroke:#ba55d3;" x="173.077983" xlink:href="#m1e8e8929ab" y="189.236185"/>
     <use style="fill:#ffffff;stroke:#ba55d3;" x="175.170036" xlink:href="#m1e8e8929ab" y="195.652299"/>
     <use style="fill:#ffffff;stroke:#ba55d3;" x="177.262089" xlink:href="#m1e8e8929ab" y="194.710624"/>
     <use style="fill:#ffffff;stroke:#ba55d3;" x="179.354142" xlink:href="#m1e8e8929ab" y="196.08898"/>
     <use style="fill:#ffffff;stroke:#ba55d3;" x="181.446195" xlink:href="#m1e8e8929ab" y="197.726354"/>
     <use style="fill:#ffffff;stroke:#ba55d3;" x="183.538248" xlink:href="#m1e8e8929ab" y="196.600329"/>
     <use style="fill:#ffffff;stroke:#ba55d3;" x="185.630301" xlink:href="#m1e8e8929ab" y="194.299361"/>
     <use style="fill:#ffffff;stroke:#ba55d3;" x="187.722354" xlink:href="#m1e8e8929ab" y="195.179409"/>
     <use style="fill:#ffffff;stroke:#ba55d3;" x="189.814407" xlink:href="#m1e8e8929ab" y="192.524304"/>
     <use style="fill:#ffffff;stroke:#ba55d3;" x="191.90646" xlink:href="#m1e8e8929ab" y="195.842011"/>
     <use style="fill:#ffffff;stroke:#ba55d3;" x="193.998514" xlink:href="#m1e8e8929ab" y="195.339268"/>
     <use style="fill:#ffffff;stroke:#ba55d3;" x="196.090567" xlink:href="#m1e8e8929ab" y="194.231975"/>
     <use style="fill:#ffffff;stroke:#ba55d3;" x="198.18262" xlink:href="#m1e8e8929ab" y="190.997275"/>
     <use style="fill:#ffffff;stroke:#ba55d3;" x="200.274673" xlink:href="#m1e8e8929ab" y="196.049529"/>
     <use style="fill:#ffffff;stroke:#ba55d3;" x="202.366726" xlink:href="#m1e8e8929ab" y="195.954474"/>
     <use style="fill:#ffffff;stroke:#ba55d3;" x="204.458779" xlink:href="#m1e8e8929ab" y="198.235055"/>
     <use style="fill:#ffffff;stroke:#ba55d3;" x="206.550832" xlink:href="#m1e8e8929ab" y="193.037373"/>
     <use style="fill:#ffffff;stroke:#ba55d3;" x="208.642885" xlink:href="#m1e8e8929ab" y="196.055155"/>
     <use style="fill:#ffffff;stroke:#ba55d3;" x="210.734938" xlink:href="#m1e8e8929ab" y="193.632986"/>
     <use style="fill:#ffffff;stroke:#ba55d3;" x="212.826991" xlink:href="#m1e8e8929ab" y="195.667855"/>
     <use style="fill:#ffffff;stroke:#ba55d3;" x="214.919044" xlink:href="#m1e8e8929ab" y="194.322264"/>
     <use style="fill:#ffffff;stroke:#ba55d3;" x="217.011097" xlink:href="#m1e8e8929ab" y="195.57227"/>
     <use style="fill:#ffffff;stroke:#ba55d3;" x="219.103151" xlink:href="#m1e8e8929ab" y="196.376858"/>
     <use style="fill:#ffffff;stroke:#ba55d3;" x="221.195204" xlink:href="#m1e8e8929ab" y="195.171797"/>
     <use style="fill:#ffffff;stroke:#ba55d3;" x="223.287257" xlink:href="#m1e8e8929ab" y="193.542565"/>
     <use style="fill:#ffffff;stroke:#ba55d3;" x="225.37931" xlink:href="#m1e8e8929ab" y="192.680919"/>
     <use style="fill:#ffffff;stroke:#ba55d3;" x="227.471363" xlink:href="#m1e8e8929ab" y="194.097403"/>
     <use style="fill:#ffffff;stroke:#ba55d3;" x="229.563416" xlink:href="#m1e8e8929ab" y="191.575148"/>
     <use style="fill:#ffffff;stroke:#ba55d3;" x="231.655469" xlink:href="#m1e8e8929ab" y="196.579544"/>
     <use style="fill:#ffffff;stroke:#ba55d3;" x="233.747522" xlink:href="#m1e8e8929ab" y="192.682971"/>
     <use style="fill:#ffffff;stroke:#ba55d3;" x="235.839575" xlink:href="#m1e8e8929ab" y="192.120057"/>
     <use style="fill:#ffffff;stroke:#ba55d3;" x="237.931628" xlink:href="#m1e8e8929ab" y="189.625538"/>
     <use style="fill:#ffffff;stroke:#ba55d3;" x="240.023681" xlink:href="#m1e8e8929ab" y="189.875619"/>
     <use style="fill:#ffffff;stroke:#ba55d3;" x="242.115735" xlink:href="#m1e8e8929ab" y="194.058746"/>
     <use style="fill:#ffffff;stroke:#ba55d3;" x="244.207788" xlink:href="#m1e8e8929ab" y="191.766714"/>
     <use style="fill:#ffffff;stroke:#ba55d3;" x="246.299841" xlink:href="#m1e8e8929ab" y="192.560909"/>
     <use style="fill:#ffffff;stroke:#ba55d3;" x="248.391894" xlink:href="#m1e8e8929ab" y="193.473459"/>
     <use style="fill:#ffffff;stroke:#ba55d3;" x="250.483947" xlink:href="#m1e8e8929ab" y="193.292352"/>
     <use style="fill:#ffffff;stroke:#ba55d3;" x="252.576" xlink:href="#m1e8e8929ab" y="193.619681"/>
    </g>
   </g>
   <g id="patch_5">
    <path d="M 56.16 202.718437 
L 56.16 36.398437 
" style="fill:none;stroke:#000000;stroke-linecap:square;stroke-linejoin:miter;stroke-width:0.8;"/>
   </g>
   <g id="patch_6">
    <path d="M 250.246957 202.718437 
L 250.246957 36.398437 
" style="fill:none;stroke:#000000;stroke-linecap:square;stroke-linejoin:miter;stroke-width:0.8;"/>
   </g>
   <g id="patch_7">
    <path d="M 56.16 202.718437 
L 250.246957 202.718437 
" style="fill:none;stroke:#000000;stroke-linecap:square;stroke-linejoin:miter;stroke-width:0.8;"/>
   </g>
   <g id="patch_8">
    <path d="M 56.16 36.398437 
L 250.246957 36.398437 
" style="fill:none;stroke:#000000;stroke-linecap:square;stroke-linejoin:miter;stroke-width:0.8;"/>
   </g>
   <g id="text_13">
    <!--  $A$= 8.5  $\lambda=$30 -->
    <defs>
     <path id="DejaVuSans-32"/>
     <path d="M 36.8125 72.90625 
L 48 72.90625 
L 61.53125 0 
L 51.21875 0 
L 48.1875 18.703125 
L 15.375 18.703125 
L 5.078125 0 
L -5.328125 0 
z
M 40.375 63.1875 
L 19.921875 26.90625 
L 46.6875 26.90625 
z
" id="DejaVuSans-Oblique-65"/>
     <path d="M 10.59375 45.40625 
L 73.1875 45.40625 
L 73.1875 37.203125 
L 10.59375 37.203125 
z
M 10.59375 25.484375 
L 73.1875 25.484375 
L 73.1875 17.1875 
L 10.59375 17.1875 
z
" id="DejaVuSans-61"/>
     <path d="M 36.71875 67.4375 
L 48.828125 0 
L 39.3125 0 
L 31.84375 40.4375 
L 5.125 0 
L -4.390625 0 
L 29.734375 52.4375 
L 28.03125 62.109375 
Q 26.953125 68.265625 21.734375 68.265625 
L 17.046875 68.265625 
L 18.5 75.984375 
L 24.21875 75.875 
Q 35.203125 75.734375 36.71875 67.4375 
z
" id="DejaVuSans-Oblique-955"/>
    </defs>
    <g transform="translate(61.012174 53.030437)scale(0.1 -0.1)">
     <use transform="translate(0 0.015625)" xlink:href="#DejaVuSans-32"/>
     <use transform="translate(31.787109 0.015625)" xlink:href="#DejaVuSans-Oblique-65"/>
     <use transform="translate(100.195312 0.015625)" xlink:href="#DejaVuSans-61"/>
     <use transform="translate(183.984375 0.015625)" xlink:href="#DejaVuSans-32"/>
     <use transform="translate(215.771484 0.015625)" xlink:href="#DejaVuSans-56"/>
     <use transform="translate(279.394531 0.015625)" xlink:href="#DejaVuSans-46"/>
     <use transform="translate(311.181641 0.015625)" xlink:href="#DejaVuSans-53"/>
     <use transform="translate(374.804688 0.015625)" xlink:href="#DejaVuSans-32"/>
     <use transform="translate(406.591797 0.015625)" xlink:href="#DejaVuSans-32"/>
     <use transform="translate(438.378906 0.015625)" xlink:href="#DejaVuSans-Oblique-955"/>
     <use transform="translate(517.041016 0.015625)" xlink:href="#DejaVuSans-61"/>
     <use transform="translate(620.3125 0.015625)" xlink:href="#DejaVuSans-51"/>
     <use transform="translate(683.935547 0.015625)" xlink:href="#DejaVuSans-48"/>
    </g>
   </g>
   <g id="text_14">
    <!-- $\kappa$= 0.37 -->
    <defs>
     <path d="M 14.65625 54.6875 
L 23.921875 54.6875 
L 19.484375 31.984375 
L 47.515625 54.6875 
L 58.453125 54.6875 
L 32.90625 34.078125 
L 51.171875 0 
L 40.1875 0 
L 25.4375 28.21875 
L 17.53125 21.921875 
L 13.28125 0 
L 4 0 
z
" id="DejaVuSans-Oblique-954"/>
    </defs>
    <g transform="translate(63.091677 69.662437)scale(0.1 -0.1)">
     <use transform="translate(0 0.78125)" xlink:href="#DejaVuSans-Oblique-954"/>
     <use transform="translate(58.935547 0.78125)" xlink:href="#DejaVuSans-61"/>
     <use transform="translate(142.724609 0.78125)" xlink:href="#DejaVuSans-32"/>
     <use transform="translate(174.511719 0.78125)" xlink:href="#DejaVuSans-48"/>
     <use transform="translate(238.134766 0.78125)" xlink:href="#DejaVuSans-46"/>
     <use transform="translate(269.921875 0.78125)" xlink:href="#DejaVuSans-51"/>
     <use transform="translate(333.544922 0.78125)" xlink:href="#DejaVuSans-55"/>
    </g>
   </g>
  </g>
  <g id="axes_3">
   <g id="patch_9">
    <path d="M 308.473043 202.718437 
L 502.56 202.718437 
L 502.56 36.398437 
L 308.473043 36.398437 
z
" style="fill:#ffffff;"/>
   </g>
   <g id="axes_4">
    <g id="patch_10">
     <path d="M 308.473043 36.398437 
L 502.56 36.398437 
L 502.56 36.398437 
L 308.473043 36.398437 
z
" style="fill:#ffffff;"/>
    </g>
    <g id="matplotlib.axis_5">
     <g id="xtick_7">
      <g id="line2d_15">
       <g>
        <use style="stroke:#000000;stroke-width:0.8;" x="356.994783" xlink:href="#m2fdd30d906" y="36.398437"/>
       </g>
      </g>
      <g id="text_15">
       <!-- −0.25 -->
       <g transform="translate(341.672126 27.31875)scale(0.1 -0.1)">
        <use xlink:href="#DejaVuSans-8722"/>
        <use x="83.789062" xlink:href="#DejaVuSans-48"/>
        <use x="147.412109" xlink:href="#DejaVuSans-46"/>
        <use x="179.199219" xlink:href="#DejaVuSans-50"/>
        <use x="242.822266" xlink:href="#DejaVuSans-53"/>
       </g>
      </g>
     </g>
     <g id="xtick_8">
      <g id="line2d_16">
       <g>
        <use style="stroke:#000000;stroke-width:0.8;" x="405.516522" xlink:href="#m2fdd30d906" y="36.398437"/>
       </g>
      </g>
      <g id="text_16">
       <!-- 0.00 -->
       <g transform="translate(394.383709 27.31875)scale(0.1 -0.1)">
        <use xlink:href="#DejaVuSans-48"/>
        <use x="63.623047" xlink:href="#DejaVuSans-46"/>
        <use x="95.410156" xlink:href="#DejaVuSans-48"/>
        <use x="159.033203" xlink:href="#DejaVuSans-48"/>
       </g>
      </g>
     </g>
     <g id="xtick_9">
      <g id="line2d_17">
       <g>
        <use style="stroke:#000000;stroke-width:0.8;" x="454.038261" xlink:href="#m2fdd30d906" y="36.398437"/>
       </g>
      </g>
      <g id="text_17">
       <!-- 0.25 -->
       <g transform="translate(442.905448 27.31875)scale(0.1 -0.1)">
        <use xlink:href="#DejaVuSans-48"/>
        <use x="63.623047" xlink:href="#DejaVuSans-46"/>
        <use x="95.410156" xlink:href="#DejaVuSans-50"/>
        <use x="159.033203" xlink:href="#DejaVuSans-53"/>
       </g>
      </g>
     </g>
    </g>
    <g id="matplotlib.axis_6"/>
    <g id="patch_11">
     <path d="M 308.473043 36.398437 
L 502.56 36.398437 
" style="fill:none;stroke:#000000;stroke-linecap:square;stroke-linejoin:miter;stroke-width:0.8;"/>
    </g>
   </g>
   <g id="matplotlib.axis_7">
    <g id="xtick_10">
     <g id="line2d_18">
      <g>
       <use style="stroke:#000000;stroke-width:0.8;" x="356.994783" xlink:href="#md7c18a95d8" y="202.718437"/>
      </g>
     </g>
     <g id="text_18">
      <!-- −7.5 -->
      <g transform="translate(344.853376 219.816875)scale(0.1 -0.1)">
       <use xlink:href="#DejaVuSans-8722"/>
       <use x="83.789062" xlink:href="#DejaVuSans-55"/>
       <use x="147.412109" xlink:href="#DejaVuSans-46"/>
       <use x="179.199219" xlink:href="#DejaVuSans-53"/>
      </g>
     </g>
    </g>
    <g id="xtick_11">
     <g id="line2d_19">
      <g>
       <use style="stroke:#000000;stroke-width:0.8;" x="405.516522" xlink:href="#md7c18a95d8" y="202.718437"/>
      </g>
     </g>
     <g id="text_19">
      <!-- 0.0 -->
      <g transform="translate(397.564959 219.816875)scale(0.1 -0.1)">
       <use xlink:href="#DejaVuSans-48"/>
       <use x="63.623047" xlink:href="#DejaVuSans-46"/>
       <use x="95.410156" xlink:href="#DejaVuSans-48"/>
      </g>
     </g>
    </g>
    <g id="xtick_12">
     <g id="line2d_20">
      <g>
       <use style="stroke:#000000;stroke-width:0.8;" x="454.038261" xlink:href="#md7c18a95d8" y="202.718437"/>
      </g>
     </g>
     <g id="text_20">
      <!-- 7.5 -->
      <g transform="translate(446.086698 219.816875)scale(0.1 -0.1)">
       <use xlink:href="#DejaVuSans-55"/>
       <use x="63.623047" xlink:href="#DejaVuSans-46"/>
       <use x="95.410156" xlink:href="#DejaVuSans-53"/>
      </g>
     </g>
    </g>
   </g>
   <g id="matplotlib.axis_8">
    <g id="ytick_7">
     <g id="line2d_21">
      <g>
       <use style="stroke:#000000;stroke-width:0.8;" x="308.473043" xlink:href="#mf048f2c08a" y="202.718437"/>
      </g>
     </g>
     <g id="text_21">
      <!-- 0.0 -->
      <g transform="translate(283.069918 206.517656)scale(0.1 -0.1)">
       <use xlink:href="#DejaVuSans-48"/>
       <use x="63.623047" xlink:href="#DejaVuSans-46"/>
       <use x="95.410156" xlink:href="#DejaVuSans-48"/>
      </g>
     </g>
    </g>
    <g id="ytick_8">
     <g id="line2d_22">
      <g>
       <use style="stroke:#000000;stroke-width:0.8;" x="308.473043" xlink:href="#mf048f2c08a" y="178.078438"/>
      </g>
     </g>
     <g id="text_22">
      <!-- 0.2 -->
      <g transform="translate(283.069918 181.877656)scale(0.1 -0.1)">
       <use xlink:href="#DejaVuSans-48"/>
       <use x="63.623047" xlink:href="#DejaVuSans-46"/>
       <use x="95.410156" xlink:href="#DejaVuSans-50"/>
      </g>
     </g>
    </g>
    <g id="ytick_9">
     <g id="line2d_23">
      <g>
       <use style="stroke:#000000;stroke-width:0.8;" x="308.473043" xlink:href="#mf048f2c08a" y="153.438437"/>
      </g>
     </g>
     <g id="text_23">
      <!-- 0.4 -->
      <g transform="translate(283.069918 157.237656)scale(0.1 -0.1)">
       <use xlink:href="#DejaVuSans-48"/>
       <use x="63.623047" xlink:href="#DejaVuSans-46"/>
       <use x="95.410156" xlink:href="#DejaVuSans-52"/>
      </g>
     </g>
    </g>
    <g id="ytick_10">
     <g id="line2d_24">
      <g>
       <use style="stroke:#000000;stroke-width:0.8;" x="308.473043" xlink:href="#mf048f2c08a" y="128.798437"/>
      </g>
     </g>
     <g id="text_24">
      <!-- 0.6 -->
      <g transform="translate(283.069918 132.597656)scale(0.1 -0.1)">
       <use xlink:href="#DejaVuSans-48"/>
       <use x="63.623047" xlink:href="#DejaVuSans-46"/>
       <use x="95.410156" xlink:href="#DejaVuSans-54"/>
      </g>
     </g>
    </g>
    <g id="ytick_11">
     <g id="line2d_25">
      <g>
       <use style="stroke:#000000;stroke-width:0.8;" x="308.473043" xlink:href="#mf048f2c08a" y="104.158437"/>
      </g>
     </g>
     <g id="text_25">
      <!-- 0.8 -->
      <g transform="translate(283.069918 107.957656)scale(0.1 -0.1)">
       <use xlink:href="#DejaVuSans-48"/>
       <use x="63.623047" xlink:href="#DejaVuSans-46"/>
       <use x="95.410156" xlink:href="#DejaVuSans-56"/>
      </g>
     </g>
    </g>
    <g id="ytick_12">
     <g id="line2d_26">
      <g>
       <use style="stroke:#000000;stroke-width:0.8;" x="308.473043" xlink:href="#mf048f2c08a" y="79.518437"/>
      </g>
     </g>
     <g id="text_26">
      <!-- 1.0 -->
      <g transform="translate(283.069918 83.317656)scale(0.1 -0.1)">
       <use xlink:href="#DejaVuSans-49"/>
       <use x="63.623047" xlink:href="#DejaVuSans-46"/>
       <use x="95.410156" xlink:href="#DejaVuSans-48"/>
      </g>
     </g>
    </g>
    <g id="text_27">
     <!-- Normalized speed $v(x)$ -->
     <defs>
      <path d="M 9.8125 72.90625 
L 23.09375 72.90625 
L 55.421875 11.921875 
L 55.421875 72.90625 
L 64.984375 72.90625 
L 64.984375 0 
L 51.703125 0 
L 19.390625 60.984375 
L 19.390625 0 
L 9.8125 0 
z
" id="DejaVuSans-78"/>
      <path d="M 30.609375 48.390625 
Q 23.390625 48.390625 19.1875 42.75 
Q 14.984375 37.109375 14.984375 27.296875 
Q 14.984375 17.484375 19.15625 11.84375 
Q 23.34375 6.203125 30.609375 6.203125 
Q 37.796875 6.203125 41.984375 11.859375 
Q 46.1875 17.53125 46.1875 27.296875 
Q 46.1875 37.015625 41.984375 42.703125 
Q 37.796875 48.390625 30.609375 48.390625 
z
M 30.609375 56 
Q 42.328125 56 49.015625 48.375 
Q 55.71875 40.765625 55.71875 27.296875 
Q 55.71875 13.875 49.015625 6.21875 
Q 42.328125 -1.421875 30.609375 -1.421875 
Q 18.84375 -1.421875 12.171875 6.21875 
Q 5.515625 13.875 5.515625 27.296875 
Q 5.515625 40.765625 12.171875 48.375 
Q 18.84375 56 30.609375 56 
z
" id="DejaVuSans-111"/>
      <path d="M 41.109375 46.296875 
Q 39.59375 47.171875 37.8125 47.578125 
Q 36.03125 48 33.890625 48 
Q 26.265625 48 22.1875 43.046875 
Q 18.109375 38.09375 18.109375 28.8125 
L 18.109375 0 
L 9.078125 0 
L 9.078125 54.6875 
L 18.109375 54.6875 
L 18.109375 46.1875 
Q 20.953125 51.171875 25.484375 53.578125 
Q 30.03125 56 36.53125 56 
Q 37.453125 56 38.578125 55.875 
Q 39.703125 55.765625 41.0625 55.515625 
z
" id="DejaVuSans-114"/>
      <path d="M 52 44.1875 
Q 55.375 50.25 60.0625 53.125 
Q 64.75 56 71.09375 56 
Q 79.640625 56 84.28125 50.015625 
Q 88.921875 44.046875 88.921875 33.015625 
L 88.921875 0 
L 79.890625 0 
L 79.890625 32.71875 
Q 79.890625 40.578125 77.09375 44.375 
Q 74.3125 48.1875 68.609375 48.1875 
Q 61.625 48.1875 57.5625 43.546875 
Q 53.515625 38.921875 53.515625 30.90625 
L 53.515625 0 
L 44.484375 0 
L 44.484375 32.71875 
Q 44.484375 40.625 41.703125 44.40625 
Q 38.921875 48.1875 33.109375 48.1875 
Q 26.21875 48.1875 22.15625 43.53125 
Q 18.109375 38.875 18.109375 30.90625 
L 18.109375 0 
L 9.078125 0 
L 9.078125 54.6875 
L 18.109375 54.6875 
L 18.109375 46.1875 
Q 21.1875 51.21875 25.484375 53.609375 
Q 29.78125 56 35.6875 56 
Q 41.65625 56 45.828125 52.96875 
Q 50 49.953125 52 44.1875 
z
" id="DejaVuSans-109"/>
      <path d="M 34.28125 27.484375 
Q 23.390625 27.484375 19.1875 25 
Q 14.984375 22.515625 14.984375 16.5 
Q 14.984375 11.71875 18.140625 8.90625 
Q 21.296875 6.109375 26.703125 6.109375 
Q 34.1875 6.109375 38.703125 11.40625 
Q 43.21875 16.703125 43.21875 25.484375 
L 43.21875 27.484375 
z
M 52.203125 31.203125 
L 52.203125 0 
L 43.21875 0 
L 43.21875 8.296875 
Q 40.140625 3.328125 35.546875 0.953125 
Q 30.953125 -1.421875 24.3125 -1.421875 
Q 15.921875 -1.421875 10.953125 3.296875 
Q 6 8.015625 6 15.921875 
Q 6 25.140625 12.171875 29.828125 
Q 18.359375 34.515625 30.609375 34.515625 
L 43.21875 34.515625 
L 43.21875 35.40625 
Q 43.21875 41.609375 39.140625 45 
Q 35.0625 48.390625 27.6875 48.390625 
Q 23 48.390625 18.546875 47.265625 
Q 14.109375 46.140625 10.015625 43.890625 
L 10.015625 52.203125 
Q 14.9375 54.109375 19.578125 55.046875 
Q 24.21875 56 28.609375 56 
Q 40.484375 56 46.34375 49.84375 
Q 52.203125 43.703125 52.203125 31.203125 
z
" id="DejaVuSans-97"/>
      <path d="M 9.421875 75.984375 
L 18.40625 75.984375 
L 18.40625 0 
L 9.421875 0 
z
" id="DejaVuSans-108"/>
      <path d="M 9.421875 54.6875 
L 18.40625 54.6875 
L 18.40625 0 
L 9.421875 0 
z
M 9.421875 75.984375 
L 18.40625 75.984375 
L 18.40625 64.59375 
L 9.421875 64.59375 
z
" id="DejaVuSans-105"/>
      <path d="M 5.515625 54.6875 
L 48.1875 54.6875 
L 48.1875 46.484375 
L 14.40625 7.171875 
L 48.1875 7.171875 
L 48.1875 0 
L 4.296875 0 
L 4.296875 8.203125 
L 38.09375 47.515625 
L 5.515625 47.515625 
z
" id="DejaVuSans-122"/>
      <path d="M 56.203125 29.59375 
L 56.203125 25.203125 
L 14.890625 25.203125 
Q 15.484375 15.921875 20.484375 11.0625 
Q 25.484375 6.203125 34.421875 6.203125 
Q 39.59375 6.203125 44.453125 7.46875 
Q 49.3125 8.734375 54.109375 11.28125 
L 54.109375 2.78125 
Q 49.265625 0.734375 44.1875 -0.34375 
Q 39.109375 -1.421875 33.890625 -1.421875 
Q 20.796875 -1.421875 13.15625 6.1875 
Q 5.515625 13.8125 5.515625 26.8125 
Q 5.515625 40.234375 12.765625 48.109375 
Q 20.015625 56 32.328125 56 
Q 43.359375 56 49.78125 48.890625 
Q 56.203125 41.796875 56.203125 29.59375 
z
M 47.21875 32.234375 
Q 47.125 39.59375 43.09375 43.984375 
Q 39.0625 48.390625 32.421875 48.390625 
Q 24.90625 48.390625 20.390625 44.140625 
Q 15.875 39.890625 15.1875 32.171875 
z
" id="DejaVuSans-101"/>
      <path d="M 45.40625 46.390625 
L 45.40625 75.984375 
L 54.390625 75.984375 
L 54.390625 0 
L 45.40625 0 
L 45.40625 8.203125 
Q 42.578125 3.328125 38.25 0.953125 
Q 33.9375 -1.421875 27.875 -1.421875 
Q 17.96875 -1.421875 11.734375 6.484375 
Q 5.515625 14.40625 5.515625 27.296875 
Q 5.515625 40.1875 11.734375 48.09375 
Q 17.96875 56 27.875 56 
Q 33.9375 56 38.25 53.625 
Q 42.578125 51.265625 45.40625 46.390625 
z
M 14.796875 27.296875 
Q 14.796875 17.390625 18.875 11.75 
Q 22.953125 6.109375 30.078125 6.109375 
Q 37.203125 6.109375 41.296875 11.75 
Q 45.40625 17.390625 45.40625 27.296875 
Q 45.40625 37.203125 41.296875 42.84375 
Q 37.203125 48.484375 30.078125 48.484375 
Q 22.953125 48.484375 18.875 42.84375 
Q 14.796875 37.203125 14.796875 27.296875 
z
" id="DejaVuSans-100"/>
      <path d="M 44.28125 53.078125 
L 44.28125 44.578125 
Q 40.484375 46.53125 36.375 47.5 
Q 32.28125 48.484375 27.875 48.484375 
Q 21.1875 48.484375 17.84375 46.4375 
Q 14.5 44.390625 14.5 40.28125 
Q 14.5 37.15625 16.890625 35.375 
Q 19.28125 33.59375 26.515625 31.984375 
L 29.59375 31.296875 
Q 39.15625 29.25 43.1875 25.515625 
Q 47.21875 21.78125 47.21875 15.09375 
Q 47.21875 7.46875 41.1875 3.015625 
Q 35.15625 -1.421875 24.609375 -1.421875 
Q 20.21875 -1.421875 15.453125 -0.5625 
Q 10.6875 0.296875 5.421875 2 
L 5.421875 11.28125 
Q 10.40625 8.6875 15.234375 7.390625 
Q 20.0625 6.109375 24.8125 6.109375 
Q 31.15625 6.109375 34.5625 8.28125 
Q 37.984375 10.453125 37.984375 14.40625 
Q 37.984375 18.0625 35.515625 20.015625 
Q 33.0625 21.96875 24.703125 23.78125 
L 21.578125 24.515625 
Q 13.234375 26.265625 9.515625 29.90625 
Q 5.8125 33.546875 5.8125 39.890625 
Q 5.8125 47.609375 11.28125 51.796875 
Q 16.75 56 26.8125 56 
Q 31.78125 56 36.171875 55.265625 
Q 40.578125 54.546875 44.28125 53.078125 
z
" id="DejaVuSans-115"/>
      <path d="M 18.109375 8.203125 
L 18.109375 -20.796875 
L 9.078125 -20.796875 
L 9.078125 54.6875 
L 18.109375 54.6875 
L 18.109375 46.390625 
Q 20.953125 51.265625 25.265625 53.625 
Q 29.59375 56 35.59375 56 
Q 45.5625 56 51.78125 48.09375 
Q 58.015625 40.1875 58.015625 27.296875 
Q 58.015625 14.40625 51.78125 6.484375 
Q 45.5625 -1.421875 35.59375 -1.421875 
Q 29.59375 -1.421875 25.265625 0.953125 
Q 20.953125 3.328125 18.109375 8.203125 
z
M 48.6875 27.296875 
Q 48.6875 37.203125 44.609375 42.84375 
Q 40.53125 48.484375 33.40625 48.484375 
Q 26.265625 48.484375 22.1875 42.84375 
Q 18.109375 37.203125 18.109375 27.296875 
Q 18.109375 17.390625 22.1875 11.75 
Q 26.265625 6.109375 33.40625 6.109375 
Q 40.53125 6.109375 44.609375 11.75 
Q 48.6875 17.390625 48.6875 27.296875 
z
" id="DejaVuSans-112"/>
      <path d="M 7.171875 54.6875 
L 16.703125 54.6875 
L 24.703125 8.203125 
L 50.875 54.6875 
L 60.40625 54.6875 
L 29.296875 0 
L 17.1875 0 
z
" id="DejaVuSans-Oblique-118"/>
      <path d="M 31 75.875 
Q 24.46875 64.65625 21.28125 53.65625 
Q 18.109375 42.671875 18.109375 31.390625 
Q 18.109375 20.125 21.3125 9.0625 
Q 24.515625 -2 31 -13.1875 
L 23.1875 -13.1875 
Q 15.875 -1.703125 12.234375 9.375 
Q 8.59375 20.453125 8.59375 31.390625 
Q 8.59375 42.28125 12.203125 53.3125 
Q 15.828125 64.359375 23.1875 75.875 
z
" id="DejaVuSans-40"/>
      <path d="M 60.015625 54.6875 
L 34.90625 27.875 
L 50.296875 0 
L 39.984375 0 
L 28.421875 21.6875 
L 8.296875 0 
L -2.59375 0 
L 24.3125 28.8125 
L 10.015625 54.6875 
L 20.3125 54.6875 
L 30.8125 34.90625 
L 49.125 54.6875 
z
" id="DejaVuSans-Oblique-120"/>
      <path d="M 8.015625 75.875 
L 15.828125 75.875 
Q 23.140625 64.359375 26.78125 53.3125 
Q 30.421875 42.28125 30.421875 31.390625 
Q 30.421875 20.453125 26.78125 9.375 
Q 23.140625 -1.703125 15.828125 -13.1875 
L 8.015625 -13.1875 
Q 14.5 -2 17.703125 9.0625 
Q 20.90625 20.125 20.90625 31.390625 
Q 20.90625 42.671875 17.703125 53.65625 
Q 14.5 64.65625 8.015625 75.875 
z
" id="DejaVuSans-41"/>
     </defs>
     <g transform="translate(276.969918 176.108437)rotate(-90)scale(0.1 -0.1)">
      <use transform="translate(0 0.015625)" xlink:href="#DejaVuSans-78"/>
      <use transform="translate(74.804688 0.015625)" xlink:href="#DejaVuSans-111"/>
      <use transform="translate(135.986328 0.015625)" xlink:href="#DejaVuSans-114"/>
      <use transform="translate(177.099609 0.015625)" xlink:href="#DejaVuSans-109"/>
      <use transform="translate(274.511719 0.015625)" xlink:href="#DejaVuSans-97"/>
      <use transform="translate(335.791016 0.015625)" xlink:href="#DejaVuSans-108"/>
      <use transform="translate(363.574219 0.015625)" xlink:href="#DejaVuSans-105"/>
      <use transform="translate(391.357422 0.015625)" xlink:href="#DejaVuSans-122"/>
      <use transform="translate(443.847656 0.015625)" xlink:href="#DejaVuSans-101"/>
      <use transform="translate(505.371094 0.015625)" xlink:href="#DejaVuSans-100"/>
      <use transform="translate(568.847656 0.015625)" xlink:href="#DejaVuSans-32"/>
      <use transform="translate(600.634766 0.015625)" xlink:href="#DejaVuSans-115"/>
      <use transform="translate(652.734375 0.015625)" xlink:href="#DejaVuSans-112"/>
      <use transform="translate(716.210938 0.015625)" xlink:href="#DejaVuSans-101"/>
      <use transform="translate(777.734375 0.015625)" xlink:href="#DejaVuSans-101"/>
      <use transform="translate(839.257812 0.015625)" xlink:href="#DejaVuSans-100"/>
      <use transform="translate(902.734375 0.015625)" xlink:href="#DejaVuSans-32"/>
      <use transform="translate(934.521484 0.015625)" xlink:href="#DejaVuSans-Oblique-118"/>
      <use transform="translate(993.701172 0.015625)" xlink:href="#DejaVuSans-40"/>
      <use transform="translate(1032.714844 0.015625)" xlink:href="#DejaVuSans-Oblique-120"/>
      <use transform="translate(1091.894531 0.015625)" xlink:href="#DejaVuSans-41"/>
     </g>
    </g>
   </g>
   <g id="LineCollection_2">
    <path clip-path="url(#p7fd9a74afc)" d="M 308.473043 85.828541 
L 308.473043 69.813714 
" style="fill:none;stroke:#ba55d3;stroke-opacity:0.25;stroke-width:1.5;"/>
    <path clip-path="url(#p7fd9a74afc)" d="M 315.165697 85.828541 
L 315.165697 69.813714 
" style="fill:none;stroke:#ba55d3;stroke-opacity:0.25;stroke-width:1.5;"/>
    <path clip-path="url(#p7fd9a74afc)" d="M 321.858351 100.295572 
L 321.858351 86.227438 
" style="fill:none;stroke:#ba55d3;stroke-opacity:0.25;stroke-width:1.5;"/>
    <path clip-path="url(#p7fd9a74afc)" d="M 328.551004 106.585419 
L 328.551004 89.620993 
" style="fill:none;stroke:#ba55d3;stroke-opacity:0.25;stroke-width:1.5;"/>
    <path clip-path="url(#p7fd9a74afc)" d="M 335.243658 123.221837 
L 335.243658 96.287358 
" style="fill:none;stroke:#ba55d3;stroke-opacity:0.25;stroke-width:1.5;"/>
    <path clip-path="url(#p7fd9a74afc)" d="M 341.936312 120.706331 
L 341.936312 95.895089 
" style="fill:none;stroke:#ba55d3;stroke-opacity:0.25;stroke-width:1.5;"/>
    <path clip-path="url(#p7fd9a74afc)" d="M 348.628966 122.728646 
L 348.628966 101.763633 
" style="fill:none;stroke:#ba55d3;stroke-opacity:0.25;stroke-width:1.5;"/>
    <path clip-path="url(#p7fd9a74afc)" d="M 355.321619 136.605328 
L 355.321619 106.650213 
" style="fill:none;stroke:#ba55d3;stroke-opacity:0.25;stroke-width:1.5;"/>
    <path clip-path="url(#p7fd9a74afc)" d="M 362.014273 131.990802 
L 362.014273 109.217208 
" style="fill:none;stroke:#ba55d3;stroke-opacity:0.25;stroke-width:1.5;"/>
    <path clip-path="url(#p7fd9a74afc)" d="M 368.706927 134.985938 
L 368.706927 116.046706 
" style="fill:none;stroke:#ba55d3;stroke-opacity:0.25;stroke-width:1.5;"/>
    <path clip-path="url(#p7fd9a74afc)" d="M 375.39958 137.418044 
L 375.39958 125.056627 
" style="fill:none;stroke:#ba55d3;stroke-opacity:0.25;stroke-width:1.5;"/>
    <path clip-path="url(#p7fd9a74afc)" d="M 382.092234 163.031535 
L 382.092234 139.371178 
" style="fill:none;stroke:#ba55d3;stroke-opacity:0.25;stroke-width:1.5;"/>
    <path clip-path="url(#p7fd9a74afc)" d="M 388.784888 163.180868 
L 388.784888 153.549507 
" style="fill:none;stroke:#ba55d3;stroke-opacity:0.25;stroke-width:1.5;"/>
    <path clip-path="url(#p7fd9a74afc)" d="M 395.477541 174.067821 
L 395.477541 166.165622 
" style="fill:none;stroke:#ba55d3;stroke-opacity:0.25;stroke-width:1.5;"/>
    <path clip-path="url(#p7fd9a74afc)" d="M 402.170195 178.034689 
L 402.170195 171.244577 
" style="fill:none;stroke:#ba55d3;stroke-opacity:0.25;stroke-width:1.5;"/>
    <path clip-path="url(#p7fd9a74afc)" d="M 408.862849 176.087084 
L 408.862849 166.929838 
" style="fill:none;stroke:#ba55d3;stroke-opacity:0.25;stroke-width:1.5;"/>
    <path clip-path="url(#p7fd9a74afc)" d="M 415.555502 162.958882 
L 415.555502 147.336781 
" style="fill:none;stroke:#ba55d3;stroke-opacity:0.25;stroke-width:1.5;"/>
    <path clip-path="url(#p7fd9a74afc)" d="M 422.248156 144.669949 
L 422.248156 130.34047 
" style="fill:none;stroke:#ba55d3;stroke-opacity:0.25;stroke-width:1.5;"/>
    <path clip-path="url(#p7fd9a74afc)" d="M 428.94081 137.933486 
L 428.94081 123.862928 
" style="fill:none;stroke:#ba55d3;stroke-opacity:0.25;stroke-width:1.5;"/>
    <path clip-path="url(#p7fd9a74afc)" d="M 435.633463 123.216039 
L 435.633463 107.073468 
" style="fill:none;stroke:#ba55d3;stroke-opacity:0.25;stroke-width:1.5;"/>
    <path clip-path="url(#p7fd9a74afc)" d="M 442.326117 130.774452 
L 442.326117 109.057698 
" style="fill:none;stroke:#ba55d3;stroke-opacity:0.25;stroke-width:1.5;"/>
    <path clip-path="url(#p7fd9a74afc)" d="M 449.018771 119.269136 
L 449.018771 103.188815 
" style="fill:none;stroke:#ba55d3;stroke-opacity:0.25;stroke-width:1.5;"/>
    <path clip-path="url(#p7fd9a74afc)" d="M 455.711424 115.79727 
L 455.711424 95.131221 
" style="fill:none;stroke:#ba55d3;stroke-opacity:0.25;stroke-width:1.5;"/>
    <path clip-path="url(#p7fd9a74afc)" d="M 462.404078 107.953646 
L 462.404078 90.355331 
" style="fill:none;stroke:#ba55d3;stroke-opacity:0.25;stroke-width:1.5;"/>
    <path clip-path="url(#p7fd9a74afc)" d="M 469.096732 103.730487 
L 469.096732 88.819934 
" style="fill:none;stroke:#ba55d3;stroke-opacity:0.25;stroke-width:1.5;"/>
    <path clip-path="url(#p7fd9a74afc)" d="M 475.789385 108.246123 
L 475.789385 77.211055 
" style="fill:none;stroke:#ba55d3;stroke-opacity:0.25;stroke-width:1.5;"/>
    <path clip-path="url(#p7fd9a74afc)" d="M 482.482039 87.563913 
L 482.482039 67.24508 
" style="fill:none;stroke:#ba55d3;stroke-opacity:0.25;stroke-width:1.5;"/>
    <path clip-path="url(#p7fd9a74afc)" d="M 489.174693 85.07273 
L 489.174693 67.378329 
" style="fill:none;stroke:#ba55d3;stroke-opacity:0.25;stroke-width:1.5;"/>
    <path clip-path="url(#p7fd9a74afc)" d="M 495.867346 86.201174 
L 495.867346 70.675487 
" style="fill:none;stroke:#ba55d3;stroke-opacity:0.25;stroke-width:1.5;"/>
    <path clip-path="url(#p7fd9a74afc)" d="M 502.56 86.201174 
L 502.56 70.675487 
" style="fill:none;stroke:#ba55d3;stroke-opacity:0.25;stroke-width:1.5;"/>
   </g>
   <g id="line2d_27">
    <path clip-path="url(#p7fd9a74afc)" d="M 310.284522 81.089132 
L 312.377533 81.089132 
L 314.470544 81.259165 
L 316.563555 82.251521 
L 318.656566 82.547476 
L 320.749577 83.98562 
L 322.842588 85.490294 
L 324.935599 87.91161 
L 327.02861 89.816895 
L 329.121621 95.023765 
L 331.214632 97.260052 
L 333.307643 98.455648 
L 335.400654 100.27856 
L 337.493665 101.542759 
L 339.586676 102.015827 
L 341.679687 105.210293 
L 343.772698 110.893541 
L 345.865709 113.451099 
L 347.95872 113.625906 
L 350.051731 116.014967 
L 352.144742 113.133532 
L 354.237753 116.680799 
L 356.330763 117.469542 
L 358.423774 122.052415 
L 360.516785 121.339292 
L 362.609796 121.330256 
L 364.702807 124.388516 
L 366.795818 126.807013 
L 368.888829 126.865195 
L 370.98184 129.433694 
L 373.074851 132.46867 
L 375.167862 136.423571 
L 377.260873 139.585541 
L 379.353884 145.569212 
L 381.446895 150.812853 
L 383.539906 155.647753 
L 385.632917 161.721615 
L 387.725928 169.192627 
L 389.818939 174.198819 
L 391.91195 179.411706 
L 394.004961 183.436779 
L 396.097972 187.275057 
L 398.190983 190.293725 
L 400.283994 192.857553 
L 402.377005 194.110002 
L 404.470016 194.84867 
L 406.563027 194.891184 
L 408.656038 193.787364 
L 410.749049 192.645598 
L 412.84206 190.030385 
L 414.935071 186.980793 
L 417.028082 183.227784 
L 419.121093 178.638079 
L 421.214104 173.396857 
L 423.307115 167.543935 
L 425.400126 161.340794 
L 427.493137 155.401581 
L 429.586148 150.541407 
L 431.679159 145.043495 
L 433.77217 140.690134 
L 435.865181 137.215771 
L 437.958192 133.6078 
L 440.051203 130.587556 
L 442.144214 126.092067 
L 444.237225 127.503342 
L 446.330236 124.913219 
L 448.423247 121.086643 
L 450.516258 123.586441 
L 452.609269 121.984503 
L 454.70228 117.563619 
L 456.795291 120.710781 
L 458.888302 118.87595 
L 460.981313 115.605818 
L 463.074324 115.392584 
L 465.167335 115.059147 
L 467.260346 112.934169 
L 469.353357 108.402173 
L 471.446368 104.045628 
L 473.539379 101.930878 
L 475.63239 101.713501 
L 477.725401 99.462182 
L 479.818412 95.111876 
L 481.911423 92.587897 
L 484.004434 90.55813 
L 486.097445 88.125406 
L 488.190456 85.377748 
L 490.283467 83.624485 
L 492.376478 82.623667 
L 494.469489 81.715133 
L 496.5625 81.454546 
L 498.655511 81.185833 
L 500.748522 81.185833 
" style="fill:none;stroke:#db5f57;stroke-linecap:square;stroke-opacity:0.7;stroke-width:1.5;"/>
   </g>
   <g id="line2d_28">
    <g clip-path="url(#p7fd9a74afc)">
     <use style="fill:#ffffff;stroke:#ba55d3;" x="308.473043" xlink:href="#m1e8e8929ab" y="77.821128"/>
     <use style="fill:#ffffff;stroke:#ba55d3;" x="315.165697" xlink:href="#m1e8e8929ab" y="77.821128"/>
     <use style="fill:#ffffff;stroke:#ba55d3;" x="321.858351" xlink:href="#m1e8e8929ab" y="93.261505"/>
     <use style="fill:#ffffff;stroke:#ba55d3;" x="328.551004" xlink:href="#m1e8e8929ab" y="98.103206"/>
     <use style="fill:#ffffff;stroke:#ba55d3;" x="335.243658" xlink:href="#m1e8e8929ab" y="109.754597"/>
     <use style="fill:#ffffff;stroke:#ba55d3;" x="341.936312" xlink:href="#m1e8e8929ab" y="108.30071"/>
     <use style="fill:#ffffff;stroke:#ba55d3;" x="348.628966" xlink:href="#m1e8e8929ab" y="112.24614"/>
     <use style="fill:#ffffff;stroke:#ba55d3;" x="355.321619" xlink:href="#m1e8e8929ab" y="121.62777"/>
     <use style="fill:#ffffff;stroke:#ba55d3;" x="362.014273" xlink:href="#m1e8e8929ab" y="120.604005"/>
     <use style="fill:#ffffff;stroke:#ba55d3;" x="368.706927" xlink:href="#m1e8e8929ab" y="125.516322"/>
     <use style="fill:#ffffff;stroke:#ba55d3;" x="375.39958" xlink:href="#m1e8e8929ab" y="131.237335"/>
     <use style="fill:#ffffff;stroke:#ba55d3;" x="382.092234" xlink:href="#m1e8e8929ab" y="151.201357"/>
     <use style="fill:#ffffff;stroke:#ba55d3;" x="388.784888" xlink:href="#m1e8e8929ab" y="158.365188"/>
     <use style="fill:#ffffff;stroke:#ba55d3;" x="395.477541" xlink:href="#m1e8e8929ab" y="170.116721"/>
     <use style="fill:#ffffff;stroke:#ba55d3;" x="402.170195" xlink:href="#m1e8e8929ab" y="174.639633"/>
     <use style="fill:#ffffff;stroke:#ba55d3;" x="408.862849" xlink:href="#m1e8e8929ab" y="171.508461"/>
     <use style="fill:#ffffff;stroke:#ba55d3;" x="415.555502" xlink:href="#m1e8e8929ab" y="155.147832"/>
     <use style="fill:#ffffff;stroke:#ba55d3;" x="422.248156" xlink:href="#m1e8e8929ab" y="137.50521"/>
     <use style="fill:#ffffff;stroke:#ba55d3;" x="428.94081" xlink:href="#m1e8e8929ab" y="130.898207"/>
     <use style="fill:#ffffff;stroke:#ba55d3;" x="435.633463" xlink:href="#m1e8e8929ab" y="115.144753"/>
     <use style="fill:#ffffff;stroke:#ba55d3;" x="442.326117" xlink:href="#m1e8e8929ab" y="119.916075"/>
     <use style="fill:#ffffff;stroke:#ba55d3;" x="449.018771" xlink:href="#m1e8e8929ab" y="111.228976"/>
     <use style="fill:#ffffff;stroke:#ba55d3;" x="455.711424" xlink:href="#m1e8e8929ab" y="105.464245"/>
     <use style="fill:#ffffff;stroke:#ba55d3;" x="462.404078" xlink:href="#m1e8e8929ab" y="99.154488"/>
     <use style="fill:#ffffff;stroke:#ba55d3;" x="469.096732" xlink:href="#m1e8e8929ab" y="96.275211"/>
     <use style="fill:#ffffff;stroke:#ba55d3;" x="475.789385" xlink:href="#m1e8e8929ab" y="92.728589"/>
     <use style="fill:#ffffff;stroke:#ba55d3;" x="482.482039" xlink:href="#m1e8e8929ab" y="77.404497"/>
     <use style="fill:#ffffff;stroke:#ba55d3;" x="489.174693" xlink:href="#m1e8e8929ab" y="76.22553"/>
     <use style="fill:#ffffff;stroke:#ba55d3;" x="495.867346" xlink:href="#m1e8e8929ab" y="78.438331"/>
     <use style="fill:#ffffff;stroke:#ba55d3;" x="502.56" xlink:href="#m1e8e8929ab" y="78.438331"/>
    </g>
   </g>
   <g id="patch_12">
    <path d="M 308.473043 202.718437 
L 308.473043 36.398437 
" style="fill:none;stroke:#000000;stroke-linecap:square;stroke-linejoin:miter;stroke-width:0.8;"/>
   </g>
   <g id="patch_13">
    <path d="M 502.56 202.718437 
L 502.56 36.398437 
" style="fill:none;stroke:#000000;stroke-linecap:square;stroke-linejoin:miter;stroke-width:0.8;"/>
   </g>
   <g id="patch_14">
    <path d="M 308.473043 202.718437 
L 502.56 202.718437 
" style="fill:none;stroke:#000000;stroke-linecap:square;stroke-linejoin:miter;stroke-width:0.8;"/>
   </g>
   <g id="patch_15">
    <path d="M 308.473043 36.398437 
L 502.56 36.398437 
" style="fill:none;stroke:#000000;stroke-linecap:square;stroke-linejoin:miter;stroke-width:0.8;"/>
   </g>
   <g id="legend_1">
    <g id="line2d_29">
     <path d="M 347.781522 49.538437 
L 365.781522 49.538437 
" style="fill:none;stroke:#db5f57;stroke-linecap:square;stroke-opacity:0.7;stroke-width:1.5;"/>
    </g>
    <g id="line2d_30"/>
    <g id="text_28">
     <!-- $K^*$= 3.0 $D_r^*=$0.015 -->
     <defs>
      <path d="M 16.890625 72.90625 
L 26.8125 72.90625 
L 20.796875 42.1875 
L 59.078125 72.90625 
L 72.21875 72.90625 
L 28.90625 38.09375 
L 60.59375 0 
L 48.578125 0 
L 19.484375 35.5 
L 12.59375 0 
L 2.6875 0 
z
" id="DejaVuSans-Oblique-75"/>
      <path d="M 47.015625 60.890625 
L 29.5 51.421875 
L 47.015625 41.890625 
L 44.1875 37.109375 
L 27.78125 47.015625 
L 27.78125 28.609375 
L 22.21875 28.609375 
L 22.21875 47.015625 
L 5.8125 37.109375 
L 2.984375 41.890625 
L 20.515625 51.421875 
L 2.984375 60.890625 
L 5.8125 65.71875 
L 22.21875 55.8125 
L 22.21875 74.21875 
L 27.78125 74.21875 
L 27.78125 55.8125 
L 44.1875 65.71875 
z
" id="DejaVuSans-42"/>
      <path d="M 16.890625 72.90625 
L 38.09375 72.90625 
Q 54.984375 72.90625 63.59375 65.75 
Q 72.21875 58.59375 72.21875 44.484375 
Q 72.21875 35.15625 68.9375 26.53125 
Q 65.671875 17.921875 59.90625 12.015625 
Q 54.109375 5.953125 45.171875 2.96875 
Q 36.234375 0 24.03125 0 
L 2.6875 0 
z
M 25.203125 64.796875 
L 14.203125 8.109375 
L 27.09375 8.109375 
Q 43.65625 8.109375 52.734375 17.625 
Q 61.8125 27.15625 61.8125 44.484375 
Q 61.8125 54.984375 55.953125 59.890625 
Q 50.09375 64.796875 37.59375 64.796875 
z
" id="DejaVuSans-Oblique-68"/>
      <path d="M 44.578125 46.390625 
Q 43.21875 47.125 41.453125 47.515625 
Q 39.703125 47.90625 37.703125 47.90625 
Q 30.515625 47.90625 25.140625 42.453125 
Q 19.78125 37.015625 18.015625 27.875 
L 12.5 0 
L 3.515625 0 
L 14.203125 54.6875 
L 23.1875 54.6875 
L 21.484375 46.1875 
Q 25.046875 50.921875 30 53.453125 
Q 34.96875 56 40.578125 56 
Q 42.046875 56 43.453125 55.828125 
Q 44.875 55.671875 46.296875 55.28125 
z
" id="DejaVuSans-Oblique-114"/>
     </defs>
     <g transform="translate(372.981522 52.688437)scale(0.09 -0.09)">
      <use transform="translate(0 0.765625)" xlink:href="#DejaVuSans-Oblique-75"/>
      <use transform="translate(86.230638 39.046875)scale(0.7)" xlink:href="#DejaVuSans-42"/>
      <use transform="translate(137.602708 0.765625)" xlink:href="#DejaVuSans-61"/>
      <use transform="translate(221.391771 0.765625)" xlink:href="#DejaVuSans-32"/>
      <use transform="translate(253.17888 0.765625)" xlink:href="#DejaVuSans-51"/>
      <use transform="translate(316.801927 0.765625)" xlink:href="#DejaVuSans-46"/>
      <use transform="translate(348.589036 0.765625)" xlink:href="#DejaVuSans-48"/>
      <use transform="translate(412.212083 0.765625)" xlink:href="#DejaVuSans-32"/>
      <use transform="translate(443.999193 0.765625)" xlink:href="#DejaVuSans-Oblique-68"/>
      <use transform="translate(541.655612 39.046875)scale(0.7)" xlink:href="#DejaVuSans-42"/>
      <use transform="translate(521.001146 -26.578125)scale(0.7)" xlink:href="#DejaVuSans-Oblique-114"/>
      <use transform="translate(612.510104 0.765625)" xlink:href="#DejaVuSans-61"/>
      <use transform="translate(715.781589 0.765625)" xlink:href="#DejaVuSans-48"/>
      <use transform="translate(779.404635 0.765625)" xlink:href="#DejaVuSans-46"/>
      <use transform="translate(811.191745 0.765625)" xlink:href="#DejaVuSans-48"/>
      <use transform="translate(874.814792 0.765625)" xlink:href="#DejaVuSans-49"/>
      <use transform="translate(938.437839 0.765625)" xlink:href="#DejaVuSans-53"/>
     </g>
    </g>
    <g id="LineCollection_3">
     <path d="M 356.781522 67.897031 
L 356.781522 58.897031 
" style="fill:none;stroke:#ba55d3;stroke-opacity:0.25;stroke-width:1.5;"/>
    </g>
    <g id="line2d_31"/>
    <g id="line2d_32">
     <g>
      <use style="fill:#ffffff;stroke:#ba55d3;" x="356.781522" xlink:href="#m1e8e8929ab" y="63.397031"/>
     </g>
    </g>
    <g id="text_29">
     <!-- Experiment -->
     <defs>
      <path d="M 9.8125 72.90625 
L 55.90625 72.90625 
L 55.90625 64.59375 
L 19.671875 64.59375 
L 19.671875 43.015625 
L 54.390625 43.015625 
L 54.390625 34.71875 
L 19.671875 34.71875 
L 19.671875 8.296875 
L 56.78125 8.296875 
L 56.78125 0 
L 9.8125 0 
z
" id="DejaVuSans-69"/>
      <path d="M 54.890625 54.6875 
L 35.109375 28.078125 
L 55.90625 0 
L 45.3125 0 
L 29.390625 21.484375 
L 13.484375 0 
L 2.875 0 
L 24.125 28.609375 
L 4.6875 54.6875 
L 15.28125 54.6875 
L 29.78125 35.203125 
L 44.28125 54.6875 
z
" id="DejaVuSans-120"/>
      <path d="M 54.890625 33.015625 
L 54.890625 0 
L 45.90625 0 
L 45.90625 32.71875 
Q 45.90625 40.484375 42.875 44.328125 
Q 39.84375 48.1875 33.796875 48.1875 
Q 26.515625 48.1875 22.3125 43.546875 
Q 18.109375 38.921875 18.109375 30.90625 
L 18.109375 0 
L 9.078125 0 
L 9.078125 54.6875 
L 18.109375 54.6875 
L 18.109375 46.1875 
Q 21.34375 51.125 25.703125 53.5625 
Q 30.078125 56 35.796875 56 
Q 45.21875 56 50.046875 50.171875 
Q 54.890625 44.34375 54.890625 33.015625 
z
" id="DejaVuSans-110"/>
      <path d="M 18.3125 70.21875 
L 18.3125 54.6875 
L 36.8125 54.6875 
L 36.8125 47.703125 
L 18.3125 47.703125 
L 18.3125 18.015625 
Q 18.3125 11.328125 20.140625 9.421875 
Q 21.96875 7.515625 27.59375 7.515625 
L 36.8125 7.515625 
L 36.8125 0 
L 27.59375 0 
Q 17.1875 0 13.234375 3.875 
Q 9.28125 7.765625 9.28125 18.015625 
L 9.28125 47.703125 
L 2.6875 47.703125 
L 2.6875 54.6875 
L 9.28125 54.6875 
L 9.28125 70.21875 
z
" id="DejaVuSans-116"/>
     </defs>
     <g transform="translate(372.981522 66.547031)scale(0.09 -0.09)">
      <use xlink:href="#DejaVuSans-69"/>
      <use x="63.183594" xlink:href="#DejaVuSans-120"/>
      <use x="122.363281" xlink:href="#DejaVuSans-112"/>
      <use x="185.839844" xlink:href="#DejaVuSans-101"/>
      <use x="247.363281" xlink:href="#DejaVuSans-114"/>
      <use x="288.476562" xlink:href="#DejaVuSans-105"/>
      <use x="316.259766" xlink:href="#DejaVuSans-109"/>
      <use x="413.671875" xlink:href="#DejaVuSans-101"/>
      <use x="475.195312" xlink:href="#DejaVuSans-110"/>
      <use x="538.574219" xlink:href="#DejaVuSans-116"/>
     </g>
    </g>
   </g>
  </g>
  <g id="text_30">
   <!-- $x$ ($\mathrm{\mu m}$) -->
   <defs>
    <path d="M 8.5 -20.796875 
L 8.5 54.6875 
L 17.484375 54.6875 
L 17.484375 20.703125 
Q 17.484375 13.625 20.84375 10 
Q 24.21875 6.390625 30.8125 6.390625 
Q 38.03125 6.390625 41.671875 10.484375 
Q 45.3125 14.59375 45.3125 22.796875 
L 45.3125 54.6875 
L 54.296875 54.6875 
L 54.296875 12.59375 
Q 54.296875 9.671875 55.140625 8.28125 
Q 56 6.890625 57.8125 6.890625 
Q 58.25 6.890625 59.03125 7.15625 
Q 59.8125 7.421875 61.1875 8.015625 
L 61.1875 0.78125 
Q 59.1875 -0.34375 57.390625 -0.875 
Q 55.609375 -1.421875 53.90625 -1.421875 
Q 50.53125 -1.421875 48.53125 0.484375 
Q 46.53125 2.390625 45.796875 6.296875 
Q 43.359375 2.4375 39.8125 0.5 
Q 36.28125 -1.421875 31.5 -1.421875 
Q 26.515625 -1.421875 23.015625 0.484375 
Q 19.53125 2.390625 17.484375 6.203125 
L 17.484375 -20.796875 
z
" id="DejaVuSans-956"/>
   </defs>
   <g transform="translate(267.13 230.798437)scale(0.1 -0.1)">
    <use transform="translate(0 0.125)" xlink:href="#DejaVuSans-Oblique-120"/>
    <use transform="translate(59.179688 0.125)" xlink:href="#DejaVuSans-32"/>
    <use transform="translate(90.966797 0.125)" xlink:href="#DejaVuSans-40"/>
    <use transform="translate(129.980469 0.125)" xlink:href="#DejaVuSans-956"/>
    <use transform="translate(193.603516 0.125)" xlink:href="#DejaVuSans-109"/>
    <use transform="translate(291.015625 0.125)" xlink:href="#DejaVuSans-41"/>
   </g>
  </g>
  <g id="text_31">
   <!-- x/$\lambda$ -->
   <defs>
    <path d="M 25.390625 72.90625 
L 33.6875 72.90625 
L 8.296875 -9.28125 
L 0 -9.28125 
z
" id="DejaVuSans-47"/>
   </defs>
   <g transform="translate(276.03 14.798437)scale(0.1 -0.1)">
    <use transform="translate(0 0.015625)" xlink:href="#DejaVuSans-120"/>
    <use transform="translate(59.179688 0.015625)" xlink:href="#DejaVuSans-47"/>
    <use transform="translate(92.871094 0.015625)" xlink:href="#DejaVuSans-Oblique-955"/>
   </g>
  </g>
  <g id="text_32">
   <!-- Normalized intensity $I(x)$ -->
   <defs>
    <path d="M 32.171875 -5.078125 
Q 28.375 -14.84375 24.75 -17.8125 
Q 21.140625 -20.796875 15.09375 -20.796875 
L 7.90625 -20.796875 
L 7.90625 -13.28125 
L 13.1875 -13.28125 
Q 16.890625 -13.28125 18.9375 -11.515625 
Q 21 -9.765625 23.484375 -3.21875 
L 25.09375 0.875 
L 2.984375 54.6875 
L 12.5 54.6875 
L 29.59375 11.921875 
L 46.6875 54.6875 
L 56.203125 54.6875 
z
" id="DejaVuSans-121"/>
    <path d="M 16.890625 72.90625 
L 26.8125 72.90625 
L 12.59375 0 
L 2.6875 0 
z
" id="DejaVuSans-Oblique-73"/>
   </defs>
   <g transform="translate(14.8 180.128437)rotate(-90)scale(0.1 -0.1)">
    <use transform="translate(0 0.015625)" xlink:href="#DejaVuSans-78"/>
    <use transform="translate(74.804688 0.015625)" xlink:href="#DejaVuSans-111"/>
    <use transform="translate(135.986328 0.015625)" xlink:href="#DejaVuSans-114"/>
    <use transform="translate(177.099609 0.015625)" xlink:href="#DejaVuSans-109"/>
    <use transform="translate(274.511719 0.015625)" xlink:href="#DejaVuSans-97"/>
    <use transform="translate(335.791016 0.015625)" xlink:href="#DejaVuSans-108"/>
    <use transform="translate(363.574219 0.015625)" xlink:href="#DejaVuSans-105"/>
    <use transform="translate(391.357422 0.015625)" xlink:href="#DejaVuSans-122"/>
    <use transform="translate(443.847656 0.015625)" xlink:href="#DejaVuSans-101"/>
    <use transform="translate(505.371094 0.015625)" xlink:href="#DejaVuSans-100"/>
    <use transform="translate(568.847656 0.015625)" xlink:href="#DejaVuSans-32"/>
    <use transform="translate(600.634766 0.015625)" xlink:href="#DejaVuSans-105"/>
    <use transform="translate(628.417969 0.015625)" xlink:href="#DejaVuSans-110"/>
    <use transform="translate(691.796875 0.015625)" xlink:href="#DejaVuSans-116"/>
    <use transform="translate(731.005859 0.015625)" xlink:href="#DejaVuSans-101"/>
    <use transform="translate(792.529297 0.015625)" xlink:href="#DejaVuSans-110"/>
    <use transform="translate(855.908203 0.015625)" xlink:href="#DejaVuSans-115"/>
    <use transform="translate(908.007812 0.015625)" xlink:href="#DejaVuSans-105"/>
    <use transform="translate(935.791016 0.015625)" xlink:href="#DejaVuSans-116"/>
    <use transform="translate(975 0.015625)" xlink:href="#DejaVuSans-121"/>
    <use transform="translate(1034.179688 0.015625)" xlink:href="#DejaVuSans-32"/>
    <use transform="translate(1065.966797 0.015625)" xlink:href="#DejaVuSans-Oblique-73"/>
    <use transform="translate(1095.458984 0.015625)" xlink:href="#DejaVuSans-40"/>
    <use transform="translate(1134.472656 0.015625)" xlink:href="#DejaVuSans-Oblique-120"/>
    <use transform="translate(1193.652344 0.015625)" xlink:href="#DejaVuSans-41"/>
   </g>
  </g>
 </g>
 <defs>
  <clipPath id="p1f78494a7b">
   <rect height="166.32" width="194.086957" x="56.16" y="36.398437"/>
  </clipPath>
  <clipPath id="p7fd9a74afc">
   <rect height="166.32" width="194.086957" x="308.473043" y="36.398437"/>
  </clipPath>
 </defs>
</svg>
