<?xml version="1.0" encoding="utf-8" standalone="no"?>
<!DOCTYPE svg PUBLIC "-//W3C//DTD SVG 1.1//EN"
  "http://www.w3.org/Graphics/SVG/1.1/DTD/svg11.dtd">
<!-- Created with matplotlib (https://matplotlib.org/) -->
<svg height="240.098437pt" version="1.1" viewBox="0 0 509.76 240.098437" width="509.76pt" xmlns="http://www.w3.org/2000/svg" xmlns:xlink="http://www.w3.org/1999/xlink">
 <defs>
  <style type="text/css">
*{stroke-linecap:butt;stroke-linejoin:round;}
  </style>
 </defs>
 <g id="figure_1">
  <g id="patch_1">
   <path d="M 0 240.098437 
L 509.76 240.098437 
L 509.76 0 
L 0 0 
z
" style="fill:#ffffff;"/>
  </g>
  <g id="axes_1">
   <g id="patch_2">
    <path d="M 56.16 202.718437 
L 250.246957 202.718437 
L 250.246957 36.398437 
L 56.16 36.398437 
z
" style="fill:#ffffff;"/>
   </g>
   <g id="axes_2">
    <g id="patch_3">
     <path d="M 56.16 36.398437 
L 250.246957 36.398437 
L 250.246957 36.398437 
L 56.16 36.398437 
z
" style="fill:#ffffff;"/>
    </g>
    <g id="matplotlib.axis_1">
     <g id="xtick_1">
      <g id="line2d_1">
       <defs>
        <path d="M 0 0 
L 0 -3.5 
" id="mb72dc0ef62" style="stroke:#000000;stroke-width:0.8;"/>
       </defs>
       <g>
        <use style="stroke:#000000;stroke-width:0.8;" x="104.681739" xlink:href="#mb72dc0ef62" y="36.398437"/>
       </g>
      </g>
      <g id="text_1">
       <!-- −0.25 -->
       <defs>
        <path d="M 10.59375 35.5 
L 73.1875 35.5 
L 73.1875 27.203125 
L 10.59375 27.203125 
z
" id="DejaVuSans-8722"/>
        <path d="M 31.78125 66.40625 
Q 24.171875 66.40625 20.328125 58.90625 
Q 16.5 51.421875 16.5 36.375 
Q 16.5 21.390625 20.328125 13.890625 
Q 24.171875 6.390625 31.78125 6.390625 
Q 39.453125 6.390625 43.28125 13.890625 
Q 47.125 21.390625 47.125 36.375 
Q 47.125 51.421875 43.28125 58.90625 
Q 39.453125 66.40625 31.78125 66.40625 
z
M 31.78125 74.21875 
Q 44.046875 74.21875 50.515625 64.515625 
Q 56.984375 54.828125 56.984375 36.375 
Q 56.984375 17.96875 50.515625 8.265625 
Q 44.046875 -1.421875 31.78125 -1.421875 
Q 19.53125 -1.421875 13.0625 8.265625 
Q 6.59375 17.96875 6.59375 36.375 
Q 6.59375 54.828125 13.0625 64.515625 
Q 19.53125 74.21875 31.78125 74.21875 
z
" id="DejaVuSans-48"/>
        <path d="M 10.6875 12.40625 
L 21 12.40625 
L 21 0 
L 10.6875 0 
z
" id="DejaVuSans-46"/>
        <path d="M 19.1875 8.296875 
L 53.609375 8.296875 
L 53.609375 0 
L 7.328125 0 
L 7.328125 8.296875 
Q 12.9375 14.109375 22.625 23.890625 
Q 32.328125 33.6875 34.8125 36.53125 
Q 39.546875 41.84375 41.421875 45.53125 
Q 43.3125 49.21875 43.3125 52.78125 
Q 43.3125 58.59375 39.234375 62.25 
Q 35.15625 65.921875 28.609375 65.921875 
Q 23.96875 65.921875 18.8125 64.3125 
Q 13.671875 62.703125 7.8125 59.421875 
L 7.8125 69.390625 
Q 13.765625 71.78125 18.9375 73 
Q 24.125 74.21875 28.421875 74.21875 
Q 39.75 74.21875 46.484375 68.546875 
Q 53.21875 62.890625 53.21875 53.421875 
Q 53.21875 48.921875 51.53125 44.890625 
Q 49.859375 40.875 45.40625 35.40625 
Q 44.1875 33.984375 37.640625 27.21875 
Q 31.109375 20.453125 19.1875 8.296875 
z
" id="DejaVuSans-50"/>
        <path d="M 10.796875 72.90625 
L 49.515625 72.90625 
L 49.515625 64.59375 
L 19.828125 64.59375 
L 19.828125 46.734375 
Q 21.96875 47.46875 24.109375 47.828125 
Q 26.265625 48.1875 28.421875 48.1875 
Q 40.625 48.1875 47.75 41.5 
Q 54.890625 34.8125 54.890625 23.390625 
Q 54.890625 11.625 47.5625 5.09375 
Q 40.234375 -1.421875 26.90625 -1.421875 
Q 22.3125 -1.421875 17.546875 -0.640625 
Q 12.796875 0.140625 7.71875 1.703125 
L 7.71875 11.625 
Q 12.109375 9.234375 16.796875 8.0625 
Q 21.484375 6.890625 26.703125 6.890625 
Q 35.15625 6.890625 40.078125 11.328125 
Q 45.015625 15.765625 45.015625 23.390625 
Q 45.015625 31 40.078125 35.4375 
Q 35.15625 39.890625 26.703125 39.890625 
Q 22.75 39.890625 18.8125 39.015625 
Q 14.890625 38.140625 10.796875 36.28125 
z
" id="DejaVuSans-53"/>
       </defs>
       <g transform="translate(89.359083 27.31875)scale(0.1 -0.1)">
        <use xlink:href="#DejaVuSans-8722"/>
        <use x="83.789062" xlink:href="#DejaVuSans-48"/>
        <use x="147.412109" xlink:href="#DejaVuSans-46"/>
        <use x="179.199219" xlink:href="#DejaVuSans-50"/>
        <use x="242.822266" xlink:href="#DejaVuSans-53"/>
       </g>
      </g>
     </g>
     <g id="xtick_2">
      <g id="line2d_2">
       <g>
        <use style="stroke:#000000;stroke-width:0.8;" x="153.203478" xlink:href="#mb72dc0ef62" y="36.398437"/>
       </g>
      </g>
      <g id="text_2">
       <!-- 0.00 -->
       <g transform="translate(142.070666 27.31875)scale(0.1 -0.1)">
        <use xlink:href="#DejaVuSans-48"/>
        <use x="63.623047" xlink:href="#DejaVuSans-46"/>
        <use x="95.410156" xlink:href="#DejaVuSans-48"/>
        <use x="159.033203" xlink:href="#DejaVuSans-48"/>
       </g>
      </g>
     </g>
     <g id="xtick_3">
      <g id="line2d_3">
       <g>
        <use style="stroke:#000000;stroke-width:0.8;" x="201.725217" xlink:href="#mb72dc0ef62" y="36.398437"/>
       </g>
      </g>
      <g id="text_3">
       <!-- 0.25 -->
       <g transform="translate(190.592405 27.31875)scale(0.1 -0.1)">
        <use xlink:href="#DejaVuSans-48"/>
        <use x="63.623047" xlink:href="#DejaVuSans-46"/>
        <use x="95.410156" xlink:href="#DejaVuSans-50"/>
        <use x="159.033203" xlink:href="#DejaVuSans-53"/>
       </g>
      </g>
     </g>
    </g>
    <g id="matplotlib.axis_2"/>
    <g id="patch_4">
     <path d="M 56.16 36.398437 
L 250.246957 36.398437 
" style="fill:none;stroke:#000000;stroke-linecap:square;stroke-linejoin:miter;stroke-width:0.8;"/>
    </g>
   </g>
   <g id="matplotlib.axis_3">
    <g id="xtick_4">
     <g id="line2d_4">
      <defs>
       <path d="M 0 0 
L 0 6 
" id="m5fe254085f" style="stroke:#000000;stroke-width:0.8;"/>
      </defs>
      <g>
       <use style="stroke:#000000;stroke-width:0.8;" x="104.681739" xlink:href="#m5fe254085f" y="202.718437"/>
      </g>
     </g>
     <g id="text_4">
      <!-- −7.5 -->
      <defs>
       <path d="M 8.203125 72.90625 
L 55.078125 72.90625 
L 55.078125 68.703125 
L 28.609375 0 
L 18.3125 0 
L 43.21875 64.59375 
L 8.203125 64.59375 
z
" id="DejaVuSans-55"/>
      </defs>
      <g transform="translate(92.540333 219.816875)scale(0.1 -0.1)">
       <use xlink:href="#DejaVuSans-8722"/>
       <use x="83.789062" xlink:href="#DejaVuSans-55"/>
       <use x="147.412109" xlink:href="#DejaVuSans-46"/>
       <use x="179.199219" xlink:href="#DejaVuSans-53"/>
      </g>
     </g>
    </g>
    <g id="xtick_5">
     <g id="line2d_5">
      <g>
       <use style="stroke:#000000;stroke-width:0.8;" x="153.203478" xlink:href="#m5fe254085f" y="202.718437"/>
      </g>
     </g>
     <g id="text_5">
      <!-- 0.0 -->
      <g transform="translate(145.251916 219.816875)scale(0.1 -0.1)">
       <use xlink:href="#DejaVuSans-48"/>
       <use x="63.623047" xlink:href="#DejaVuSans-46"/>
       <use x="95.410156" xlink:href="#DejaVuSans-48"/>
      </g>
     </g>
    </g>
    <g id="xtick_6">
     <g id="line2d_6">
      <g>
       <use style="stroke:#000000;stroke-width:0.8;" x="201.725217" xlink:href="#m5fe254085f" y="202.718437"/>
      </g>
     </g>
     <g id="text_6">
      <!-- 7.5 -->
      <g transform="translate(193.773655 219.816875)scale(0.1 -0.1)">
       <use xlink:href="#DejaVuSans-55"/>
       <use x="63.623047" xlink:href="#DejaVuSans-46"/>
       <use x="95.410156" xlink:href="#DejaVuSans-53"/>
      </g>
     </g>
    </g>
   </g>
   <g id="matplotlib.axis_4">
    <g id="ytick_1">
     <g id="line2d_7">
      <defs>
       <path d="M 0 0 
L -6 0 
" id="md39dc44b79" style="stroke:#000000;stroke-width:0.8;"/>
      </defs>
      <g>
       <use style="stroke:#000000;stroke-width:0.8;" x="56.16" xlink:href="#md39dc44b79" y="187.598437"/>
      </g>
     </g>
     <g id="text_7">
      <!-- 0.0 -->
      <g transform="translate(30.756875 191.397656)scale(0.1 -0.1)">
       <use xlink:href="#DejaVuSans-48"/>
       <use x="63.623047" xlink:href="#DejaVuSans-46"/>
       <use x="95.410156" xlink:href="#DejaVuSans-48"/>
      </g>
     </g>
    </g>
    <g id="ytick_2">
     <g id="line2d_8">
      <g>
       <use style="stroke:#000000;stroke-width:0.8;" x="56.16" xlink:href="#md39dc44b79" y="157.358437"/>
      </g>
     </g>
     <g id="text_8">
      <!-- 0.2 -->
      <g transform="translate(30.756875 161.157656)scale(0.1 -0.1)">
       <use xlink:href="#DejaVuSans-48"/>
       <use x="63.623047" xlink:href="#DejaVuSans-46"/>
       <use x="95.410156" xlink:href="#DejaVuSans-50"/>
      </g>
     </g>
    </g>
    <g id="ytick_3">
     <g id="line2d_9">
      <g>
       <use style="stroke:#000000;stroke-width:0.8;" x="56.16" xlink:href="#md39dc44b79" y="127.118437"/>
      </g>
     </g>
     <g id="text_9">
      <!-- 0.4 -->
      <defs>
       <path d="M 37.796875 64.3125 
L 12.890625 25.390625 
L 37.796875 25.390625 
z
M 35.203125 72.90625 
L 47.609375 72.90625 
L 47.609375 25.390625 
L 58.015625 25.390625 
L 58.015625 17.1875 
L 47.609375 17.1875 
L 47.609375 0 
L 37.796875 0 
L 37.796875 17.1875 
L 4.890625 17.1875 
L 4.890625 26.703125 
z
" id="DejaVuSans-52"/>
      </defs>
      <g transform="translate(30.756875 130.917656)scale(0.1 -0.1)">
       <use xlink:href="#DejaVuSans-48"/>
       <use x="63.623047" xlink:href="#DejaVuSans-46"/>
       <use x="95.410156" xlink:href="#DejaVuSans-52"/>
      </g>
     </g>
    </g>
    <g id="ytick_4">
     <g id="line2d_10">
      <g>
       <use style="stroke:#000000;stroke-width:0.8;" x="56.16" xlink:href="#md39dc44b79" y="96.878437"/>
      </g>
     </g>
     <g id="text_10">
      <!-- 0.6 -->
      <defs>
       <path d="M 33.015625 40.375 
Q 26.375 40.375 22.484375 35.828125 
Q 18.609375 31.296875 18.609375 23.390625 
Q 18.609375 15.53125 22.484375 10.953125 
Q 26.375 6.390625 33.015625 6.390625 
Q 39.65625 6.390625 43.53125 10.953125 
Q 47.40625 15.53125 47.40625 23.390625 
Q 47.40625 31.296875 43.53125 35.828125 
Q 39.65625 40.375 33.015625 40.375 
z
M 52.59375 71.296875 
L 52.59375 62.3125 
Q 48.875 64.0625 45.09375 64.984375 
Q 41.3125 65.921875 37.59375 65.921875 
Q 27.828125 65.921875 22.671875 59.328125 
Q 17.53125 52.734375 16.796875 39.40625 
Q 19.671875 43.65625 24.015625 45.921875 
Q 28.375 48.1875 33.59375 48.1875 
Q 44.578125 48.1875 50.953125 41.515625 
Q 57.328125 34.859375 57.328125 23.390625 
Q 57.328125 12.15625 50.6875 5.359375 
Q 44.046875 -1.421875 33.015625 -1.421875 
Q 20.359375 -1.421875 13.671875 8.265625 
Q 6.984375 17.96875 6.984375 36.375 
Q 6.984375 53.65625 15.1875 63.9375 
Q 23.390625 74.21875 37.203125 74.21875 
Q 40.921875 74.21875 44.703125 73.484375 
Q 48.484375 72.75 52.59375 71.296875 
z
" id="DejaVuSans-54"/>
      </defs>
      <g transform="translate(30.756875 100.677656)scale(0.1 -0.1)">
       <use xlink:href="#DejaVuSans-48"/>
       <use x="63.623047" xlink:href="#DejaVuSans-46"/>
       <use x="95.410156" xlink:href="#DejaVuSans-54"/>
      </g>
     </g>
    </g>
    <g id="ytick_5">
     <g id="line2d_11">
      <g>
       <use style="stroke:#000000;stroke-width:0.8;" x="56.16" xlink:href="#md39dc44b79" y="66.638437"/>
      </g>
     </g>
     <g id="text_11">
      <!-- 0.8 -->
      <defs>
       <path d="M 31.78125 34.625 
Q 24.75 34.625 20.71875 30.859375 
Q 16.703125 27.09375 16.703125 20.515625 
Q 16.703125 13.921875 20.71875 10.15625 
Q 24.75 6.390625 31.78125 6.390625 
Q 38.8125 6.390625 42.859375 10.171875 
Q 46.921875 13.96875 46.921875 20.515625 
Q 46.921875 27.09375 42.890625 30.859375 
Q 38.875 34.625 31.78125 34.625 
z
M 21.921875 38.8125 
Q 15.578125 40.375 12.03125 44.71875 
Q 8.5 49.078125 8.5 55.328125 
Q 8.5 64.0625 14.71875 69.140625 
Q 20.953125 74.21875 31.78125 74.21875 
Q 42.671875 74.21875 48.875 69.140625 
Q 55.078125 64.0625 55.078125 55.328125 
Q 55.078125 49.078125 51.53125 44.71875 
Q 48 40.375 41.703125 38.8125 
Q 48.828125 37.15625 52.796875 32.3125 
Q 56.78125 27.484375 56.78125 20.515625 
Q 56.78125 9.90625 50.3125 4.234375 
Q 43.84375 -1.421875 31.78125 -1.421875 
Q 19.734375 -1.421875 13.25 4.234375 
Q 6.78125 9.90625 6.78125 20.515625 
Q 6.78125 27.484375 10.78125 32.3125 
Q 14.796875 37.15625 21.921875 38.8125 
z
M 18.3125 54.390625 
Q 18.3125 48.734375 21.84375 45.5625 
Q 25.390625 42.390625 31.78125 42.390625 
Q 38.140625 42.390625 41.71875 45.5625 
Q 45.3125 48.734375 45.3125 54.390625 
Q 45.3125 60.0625 41.71875 63.234375 
Q 38.140625 66.40625 31.78125 66.40625 
Q 25.390625 66.40625 21.84375 63.234375 
Q 18.3125 60.0625 18.3125 54.390625 
z
" id="DejaVuSans-56"/>
      </defs>
      <g transform="translate(30.756875 70.437656)scale(0.1 -0.1)">
       <use xlink:href="#DejaVuSans-48"/>
       <use x="63.623047" xlink:href="#DejaVuSans-46"/>
       <use x="95.410156" xlink:href="#DejaVuSans-56"/>
      </g>
     </g>
    </g>
   </g>
   <g id="LineCollection_1">
    <path clip-path="url(#p209315a5d9)" d="M 53.830957 159.565604 
L 53.830957 142.998445 
" style="fill:none;stroke:#ba55d3;stroke-opacity:0.25;stroke-width:1.5;"/>
    <path clip-path="url(#p209315a5d9)" d="M 55.92301 159.927438 
L 55.92301 144.022611 
" style="fill:none;stroke:#ba55d3;stroke-opacity:0.25;stroke-width:1.5;"/>
    <path clip-path="url(#p209315a5d9)" d="M 58.015063 155.471098 
L 58.015063 138.671867 
" style="fill:none;stroke:#ba55d3;stroke-opacity:0.25;stroke-width:1.5;"/>
    <path clip-path="url(#p209315a5d9)" d="M 60.107116 158.52691 
L 60.107116 142.202327 
" style="fill:none;stroke:#ba55d3;stroke-opacity:0.25;stroke-width:1.5;"/>
    <path clip-path="url(#p209315a5d9)" d="M 62.199169 165.643536 
L 62.199169 142.390803 
" style="fill:none;stroke:#ba55d3;stroke-opacity:0.25;stroke-width:1.5;"/>
    <path clip-path="url(#p209315a5d9)" d="M 64.291222 157.123087 
L 64.291222 143.238608 
" style="fill:none;stroke:#ba55d3;stroke-opacity:0.25;stroke-width:1.5;"/>
    <path clip-path="url(#p209315a5d9)" d="M 66.383275 160.961946 
L 66.383275 137.215665 
" style="fill:none;stroke:#ba55d3;stroke-opacity:0.25;stroke-width:1.5;"/>
    <path clip-path="url(#p209315a5d9)" d="M 68.475328 157.408058 
L 68.475328 143.079007 
" style="fill:none;stroke:#ba55d3;stroke-opacity:0.25;stroke-width:1.5;"/>
    <path clip-path="url(#p209315a5d9)" d="M 70.567381 153.389 
L 70.567381 130.617769 
" style="fill:none;stroke:#ba55d3;stroke-opacity:0.25;stroke-width:1.5;"/>
    <path clip-path="url(#p209315a5d9)" d="M 72.659434 155.898521 
L 72.659434 138.469354 
" style="fill:none;stroke:#ba55d3;stroke-opacity:0.25;stroke-width:1.5;"/>
    <path clip-path="url(#p209315a5d9)" d="M 74.751487 166.048524 
L 74.751487 149.414145 
" style="fill:none;stroke:#ba55d3;stroke-opacity:0.25;stroke-width:1.5;"/>
    <path clip-path="url(#p209315a5d9)" d="M 76.843541 161.464109 
L 76.843541 143.428798 
" style="fill:none;stroke:#ba55d3;stroke-opacity:0.25;stroke-width:1.5;"/>
    <path clip-path="url(#p209315a5d9)" d="M 78.935594 165.869839 
L 78.935594 147.61337 
" style="fill:none;stroke:#ba55d3;stroke-opacity:0.25;stroke-width:1.5;"/>
    <path clip-path="url(#p209315a5d9)" d="M 81.027647 163.82286 
L 81.027647 140.782641 
" style="fill:none;stroke:#ba55d3;stroke-opacity:0.25;stroke-width:1.5;"/>
    <path clip-path="url(#p209315a5d9)" d="M 83.1197 160.101612 
L 83.1197 143.061567 
" style="fill:none;stroke:#ba55d3;stroke-opacity:0.25;stroke-width:1.5;"/>
    <path clip-path="url(#p209315a5d9)" d="M 85.211753 164.616818 
L 85.211753 140.792689 
" style="fill:none;stroke:#ba55d3;stroke-opacity:0.25;stroke-width:1.5;"/>
    <path clip-path="url(#p209315a5d9)" d="M 87.303806 160.262972 
L 87.303806 140.990551 
" style="fill:none;stroke:#ba55d3;stroke-opacity:0.25;stroke-width:1.5;"/>
    <path clip-path="url(#p209315a5d9)" d="M 89.395859 164.924674 
L 89.395859 137.227103 
" style="fill:none;stroke:#ba55d3;stroke-opacity:0.25;stroke-width:1.5;"/>
    <path clip-path="url(#p209315a5d9)" d="M 91.487912 160.399002 
L 91.487912 139.459449 
" style="fill:none;stroke:#ba55d3;stroke-opacity:0.25;stroke-width:1.5;"/>
    <path clip-path="url(#p209315a5d9)" d="M 93.579965 166.008873 
L 93.579965 150.117438 
" style="fill:none;stroke:#ba55d3;stroke-opacity:0.25;stroke-width:1.5;"/>
    <path clip-path="url(#p209315a5d9)" d="M 95.672018 171.735527 
L 95.672018 148.105138 
" style="fill:none;stroke:#ba55d3;stroke-opacity:0.25;stroke-width:1.5;"/>
    <path clip-path="url(#p209315a5d9)" d="M 97.764071 174.185599 
L 97.764071 150.954626 
" style="fill:none;stroke:#ba55d3;stroke-opacity:0.25;stroke-width:1.5;"/>
    <path clip-path="url(#p209315a5d9)" d="M 99.856124 163.728949 
L 99.856124 146.047718 
" style="fill:none;stroke:#ba55d3;stroke-opacity:0.25;stroke-width:1.5;"/>
    <path clip-path="url(#p209315a5d9)" d="M 101.948178 164.315172 
L 101.948178 150.500487 
" style="fill:none;stroke:#ba55d3;stroke-opacity:0.25;stroke-width:1.5;"/>
    <path clip-path="url(#p209315a5d9)" d="M 104.040231 166.740148 
L 104.040231 150.828233 
" style="fill:none;stroke:#ba55d3;stroke-opacity:0.25;stroke-width:1.5;"/>
    <path clip-path="url(#p209315a5d9)" d="M 106.132284 166.64123 
L 106.132284 148.580527 
" style="fill:none;stroke:#ba55d3;stroke-opacity:0.25;stroke-width:1.5;"/>
    <path clip-path="url(#p209315a5d9)" d="M 108.224337 163.883983 
L 108.224337 147.306152 
" style="fill:none;stroke:#ba55d3;stroke-opacity:0.25;stroke-width:1.5;"/>
    <path clip-path="url(#p209315a5d9)" d="M 110.31639 170.871308 
L 110.31639 154.305457 
" style="fill:none;stroke:#ba55d3;stroke-opacity:0.25;stroke-width:1.5;"/>
    <path clip-path="url(#p209315a5d9)" d="M 112.408443 173.443187 
L 112.408443 158.158066 
" style="fill:none;stroke:#ba55d3;stroke-opacity:0.25;stroke-width:1.5;"/>
    <path clip-path="url(#p209315a5d9)" d="M 114.500496 174.633473 
L 114.500496 155.581654 
" style="fill:none;stroke:#ba55d3;stroke-opacity:0.25;stroke-width:1.5;"/>
    <path clip-path="url(#p209315a5d9)" d="M 116.592549 171.970599 
L 116.592549 156.275274 
" style="fill:none;stroke:#ba55d3;stroke-opacity:0.25;stroke-width:1.5;"/>
    <path clip-path="url(#p209315a5d9)" d="M 118.684602 173.751021 
L 118.684602 159.000486 
" style="fill:none;stroke:#ba55d3;stroke-opacity:0.25;stroke-width:1.5;"/>
    <path clip-path="url(#p209315a5d9)" d="M 120.776655 175.734439 
L 120.776655 156.529196 
" style="fill:none;stroke:#ba55d3;stroke-opacity:0.25;stroke-width:1.5;"/>
    <path clip-path="url(#p209315a5d9)" d="M 122.868708 174.172741 
L 122.868708 157.58513 
" style="fill:none;stroke:#ba55d3;stroke-opacity:0.25;stroke-width:1.5;"/>
    <path clip-path="url(#p209315a5d9)" d="M 124.960762 172.867457 
L 124.960762 155.83 
" style="fill:none;stroke:#ba55d3;stroke-opacity:0.25;stroke-width:1.5;"/>
    <path clip-path="url(#p209315a5d9)" d="M 127.052815 179.556223 
L 127.052815 155.234468 
" style="fill:none;stroke:#ba55d3;stroke-opacity:0.25;stroke-width:1.5;"/>
    <path clip-path="url(#p209315a5d9)" d="M 129.144868 178.820567 
L 129.144868 155.32828 
" style="fill:none;stroke:#ba55d3;stroke-opacity:0.25;stroke-width:1.5;"/>
    <path clip-path="url(#p209315a5d9)" d="M 131.236921 176.224145 
L 131.236921 152.602966 
" style="fill:none;stroke:#ba55d3;stroke-opacity:0.25;stroke-width:1.5;"/>
    <path clip-path="url(#p209315a5d9)" d="M 133.328974 181.292432 
L 133.328974 150.631885 
" style="fill:none;stroke:#ba55d3;stroke-opacity:0.25;stroke-width:1.5;"/>
    <path clip-path="url(#p209315a5d9)" d="M 135.421027 178.238692 
L 135.421027 145.588991 
" style="fill:none;stroke:#ba55d3;stroke-opacity:0.25;stroke-width:1.5;"/>
    <path clip-path="url(#p209315a5d9)" d="M 137.51308 175.276685 
L 137.51308 145.409692 
" style="fill:none;stroke:#ba55d3;stroke-opacity:0.25;stroke-width:1.5;"/>
    <path clip-path="url(#p209315a5d9)" d="M 139.605133 180.099232 
L 139.605133 148.866983 
" style="fill:none;stroke:#ba55d3;stroke-opacity:0.25;stroke-width:1.5;"/>
    <path clip-path="url(#p209315a5d9)" d="M 141.697186 184.517501 
L 141.697186 152.820406 
" style="fill:none;stroke:#ba55d3;stroke-opacity:0.25;stroke-width:1.5;"/>
    <path clip-path="url(#p209315a5d9)" d="M 143.789239 182.144537 
L 143.789239 149.455582 
" style="fill:none;stroke:#ba55d3;stroke-opacity:0.25;stroke-width:1.5;"/>
    <path clip-path="url(#p209315a5d9)" d="M 145.881292 179.365081 
L 145.881292 147.494162 
" style="fill:none;stroke:#ba55d3;stroke-opacity:0.25;stroke-width:1.5;"/>
    <path clip-path="url(#p209315a5d9)" d="M 147.973346 170.001258 
L 147.973346 143.178921 
" style="fill:none;stroke:#ba55d3;stroke-opacity:0.25;stroke-width:1.5;"/>
    <path clip-path="url(#p209315a5d9)" d="M 150.065399 175.684199 
L 150.065399 150.038902 
" style="fill:none;stroke:#ba55d3;stroke-opacity:0.25;stroke-width:1.5;"/>
    <path clip-path="url(#p209315a5d9)" d="M 152.157452 182.321001 
L 152.157452 151.991898 
" style="fill:none;stroke:#ba55d3;stroke-opacity:0.25;stroke-width:1.5;"/>
    <path clip-path="url(#p209315a5d9)" d="M 154.249505 183.110803 
L 154.249505 148.729472 
" style="fill:none;stroke:#ba55d3;stroke-opacity:0.25;stroke-width:1.5;"/>
    <path clip-path="url(#p209315a5d9)" d="M 156.341558 185.047469 
L 156.341558 157.996348 
" style="fill:none;stroke:#ba55d3;stroke-opacity:0.25;stroke-width:1.5;"/>
    <path clip-path="url(#p209315a5d9)" d="M 158.433611 175.992494 
L 158.433611 152.232211 
" style="fill:none;stroke:#ba55d3;stroke-opacity:0.25;stroke-width:1.5;"/>
    <path clip-path="url(#p209315a5d9)" d="M 160.525664 177.136899 
L 160.525664 152.470782 
" style="fill:none;stroke:#ba55d3;stroke-opacity:0.25;stroke-width:1.5;"/>
    <path clip-path="url(#p209315a5d9)" d="M 162.617717 193.606961 
L 162.617717 160.934356 
" style="fill:none;stroke:#ba55d3;stroke-opacity:0.25;stroke-width:1.5;"/>
    <path clip-path="url(#p209315a5d9)" d="M 164.70977 184.907114 
L 164.70977 160.562959 
" style="fill:none;stroke:#ba55d3;stroke-opacity:0.25;stroke-width:1.5;"/>
    <path clip-path="url(#p209315a5d9)" d="M 166.801823 197.680382 
L 166.801823 169.524313 
" style="fill:none;stroke:#ba55d3;stroke-opacity:0.25;stroke-width:1.5;"/>
    <path clip-path="url(#p209315a5d9)" d="M 168.893876 195.453652 
L 168.893876 172.301537 
" style="fill:none;stroke:#ba55d3;stroke-opacity:0.25;stroke-width:1.5;"/>
    <path clip-path="url(#p209315a5d9)" d="M 170.98593 203.537681 
L 170.98593 175.945588 
" style="fill:none;stroke:#ba55d3;stroke-opacity:0.25;stroke-width:1.5;"/>
    <path clip-path="url(#p209315a5d9)" d="M 173.077983 198.366034 
L 173.077983 169.787441 
" style="fill:none;stroke:#ba55d3;stroke-opacity:0.25;stroke-width:1.5;"/>
    <path clip-path="url(#p209315a5d9)" d="M 175.170036 191.913793 
L 175.170036 177.839756 
" style="fill:none;stroke:#ba55d3;stroke-opacity:0.25;stroke-width:1.5;"/>
    <path clip-path="url(#p209315a5d9)" d="M 177.262089 201.749088 
L 177.262089 175.756737 
" style="fill:none;stroke:#ba55d3;stroke-opacity:0.25;stroke-width:1.5;"/>
    <path clip-path="url(#p209315a5d9)" d="M 179.354142 193.740026 
L 179.354142 171.678619 
" style="fill:none;stroke:#ba55d3;stroke-opacity:0.25;stroke-width:1.5;"/>
    <path clip-path="url(#p209315a5d9)" d="M 181.446195 197.975574 
L 181.446195 178.722465 
" style="fill:none;stroke:#ba55d3;stroke-opacity:0.25;stroke-width:1.5;"/>
    <path clip-path="url(#p209315a5d9)" d="M 183.538248 202.960419 
L 183.538248 176.892408 
" style="fill:none;stroke:#ba55d3;stroke-opacity:0.25;stroke-width:1.5;"/>
    <path clip-path="url(#p209315a5d9)" d="M 185.630301 196.429037 
L 185.630301 177.315184 
" style="fill:none;stroke:#ba55d3;stroke-opacity:0.25;stroke-width:1.5;"/>
    <path clip-path="url(#p209315a5d9)" d="M 187.722354 198.770964 
L 187.722354 177.542901 
" style="fill:none;stroke:#ba55d3;stroke-opacity:0.25;stroke-width:1.5;"/>
    <path clip-path="url(#p209315a5d9)" d="M 189.814407 201.676402 
L 189.814407 178.571561 
" style="fill:none;stroke:#ba55d3;stroke-opacity:0.25;stroke-width:1.5;"/>
    <path clip-path="url(#p209315a5d9)" d="M 191.90646 205.653887 
L 191.90646 177.063172 
" style="fill:none;stroke:#ba55d3;stroke-opacity:0.25;stroke-width:1.5;"/>
    <path clip-path="url(#p209315a5d9)" d="M 193.998514 204.827028 
L 193.998514 178.406505 
" style="fill:none;stroke:#ba55d3;stroke-opacity:0.25;stroke-width:1.5;"/>
    <path clip-path="url(#p209315a5d9)" d="M 196.090567 197.337942 
L 196.090567 174.928299 
" style="fill:none;stroke:#ba55d3;stroke-opacity:0.25;stroke-width:1.5;"/>
    <path clip-path="url(#p209315a5d9)" d="M 198.18262 195.845997 
L 198.18262 175.223118 
" style="fill:none;stroke:#ba55d3;stroke-opacity:0.25;stroke-width:1.5;"/>
    <path clip-path="url(#p209315a5d9)" d="M 200.274673 199.471281 
L 200.274673 178.469118 
" style="fill:none;stroke:#ba55d3;stroke-opacity:0.25;stroke-width:1.5;"/>
    <path clip-path="url(#p209315a5d9)" d="M 202.366726 199.563975 
L 202.366726 179.2743 
" style="fill:none;stroke:#ba55d3;stroke-opacity:0.25;stroke-width:1.5;"/>
    <path clip-path="url(#p209315a5d9)" d="M 204.458779 197.936298 
L 204.458779 172.606641 
" style="fill:none;stroke:#ba55d3;stroke-opacity:0.25;stroke-width:1.5;"/>
    <path clip-path="url(#p209315a5d9)" d="M 206.550832 200.791487 
L 206.550832 176.42857 
" style="fill:none;stroke:#ba55d3;stroke-opacity:0.25;stroke-width:1.5;"/>
    <path clip-path="url(#p209315a5d9)" d="M 208.642885 198.381496 
L 208.642885 176.819285 
" style="fill:none;stroke:#ba55d3;stroke-opacity:0.25;stroke-width:1.5;"/>
    <path clip-path="url(#p209315a5d9)" d="M 210.734938 190.600701 
L 210.734938 170.179254 
" style="fill:none;stroke:#ba55d3;stroke-opacity:0.25;stroke-width:1.5;"/>
    <path clip-path="url(#p209315a5d9)" d="M 212.826991 183.657877 
L 212.826991 170.59931 
" style="fill:none;stroke:#ba55d3;stroke-opacity:0.25;stroke-width:1.5;"/>
    <path clip-path="url(#p209315a5d9)" d="M 214.919044 187.383014 
L 214.919044 167.334829 
" style="fill:none;stroke:#ba55d3;stroke-opacity:0.25;stroke-width:1.5;"/>
    <path clip-path="url(#p209315a5d9)" d="M 217.011097 179.469072 
L 217.011097 166.317765 
" style="fill:none;stroke:#ba55d3;stroke-opacity:0.25;stroke-width:1.5;"/>
    <path clip-path="url(#p209315a5d9)" d="M 219.103151 174.336294 
L 219.103151 162.619581 
" style="fill:none;stroke:#ba55d3;stroke-opacity:0.25;stroke-width:1.5;"/>
    <path clip-path="url(#p209315a5d9)" d="M 221.195204 177.497063 
L 221.195204 159.635968 
" style="fill:none;stroke:#ba55d3;stroke-opacity:0.25;stroke-width:1.5;"/>
    <path clip-path="url(#p209315a5d9)" d="M 223.287257 176.432007 
L 223.287257 160.416894 
" style="fill:none;stroke:#ba55d3;stroke-opacity:0.25;stroke-width:1.5;"/>
    <path clip-path="url(#p209315a5d9)" d="M 225.37931 171.13429 
L 225.37931 158.646389 
" style="fill:none;stroke:#ba55d3;stroke-opacity:0.25;stroke-width:1.5;"/>
    <path clip-path="url(#p209315a5d9)" d="M 227.471363 176.457297 
L 227.471363 159.706668 
" style="fill:none;stroke:#ba55d3;stroke-opacity:0.25;stroke-width:1.5;"/>
    <path clip-path="url(#p209315a5d9)" d="M 229.563416 169.835528 
L 229.563416 151.940245 
" style="fill:none;stroke:#ba55d3;stroke-opacity:0.25;stroke-width:1.5;"/>
    <path clip-path="url(#p209315a5d9)" d="M 231.655469 168.552609 
L 231.655469 154.240866 
" style="fill:none;stroke:#ba55d3;stroke-opacity:0.25;stroke-width:1.5;"/>
    <path clip-path="url(#p209315a5d9)" d="M 233.747522 161.031825 
L 233.747522 145.953942 
" style="fill:none;stroke:#ba55d3;stroke-opacity:0.25;stroke-width:1.5;"/>
    <path clip-path="url(#p209315a5d9)" d="M 235.839575 159.997331 
L 235.839575 146.593804 
" style="fill:none;stroke:#ba55d3;stroke-opacity:0.25;stroke-width:1.5;"/>
    <path clip-path="url(#p209315a5d9)" d="M 237.931628 157.597789 
L 237.931628 139.88027 
" style="fill:none;stroke:#ba55d3;stroke-opacity:0.25;stroke-width:1.5;"/>
    <path clip-path="url(#p209315a5d9)" d="M 240.023681 155.746373 
L 240.023681 139.868272 
" style="fill:none;stroke:#ba55d3;stroke-opacity:0.25;stroke-width:1.5;"/>
    <path clip-path="url(#p209315a5d9)" d="M 242.115735 160.70407 
L 242.115735 143.718353 
" style="fill:none;stroke:#ba55d3;stroke-opacity:0.25;stroke-width:1.5;"/>
    <path clip-path="url(#p209315a5d9)" d="M 244.207788 149.817044 
L 244.207788 130.307413 
" style="fill:none;stroke:#ba55d3;stroke-opacity:0.25;stroke-width:1.5;"/>
    <path clip-path="url(#p209315a5d9)" d="M 246.299841 151.182739 
L 246.299841 135.568058 
" style="fill:none;stroke:#ba55d3;stroke-opacity:0.25;stroke-width:1.5;"/>
    <path clip-path="url(#p209315a5d9)" d="M 248.391894 153.935581 
L 248.391894 142.038668 
" style="fill:none;stroke:#ba55d3;stroke-opacity:0.25;stroke-width:1.5;"/>
    <path clip-path="url(#p209315a5d9)" d="M 250.483947 146.644831 
L 250.483947 127.68602 
" style="fill:none;stroke:#ba55d3;stroke-opacity:0.25;stroke-width:1.5;"/>
    <path clip-path="url(#p209315a5d9)" d="M 252.576 149.490629 
L 252.576 135.3679 
" style="fill:none;stroke:#ba55d3;stroke-opacity:0.25;stroke-width:1.5;"/>
   </g>
   <g id="line2d_12">
    <path clip-path="url(#p209315a5d9)" d="M 60.041739 124.173523 
L 62.135261 124.287 
L 64.228784 124.467247 
L 66.322306 124.739103 
L 68.415828 125.151704 
L 70.50935 125.770472 
L 72.602872 126.6474 
L 74.696395 127.78503 
L 76.789917 129.123705 
L 78.883439 130.567691 
L 80.976961 132.031166 
L 83.070484 133.466138 
L 85.164006 134.853717 
L 87.257528 136.176842 
L 89.35105 137.406342 
L 91.444573 138.511619 
L 93.538095 139.478743 
L 95.631617 140.315441 
L 97.725139 141.0439 
L 99.818661 141.695047 
L 101.912184 142.304193 
L 104.005706 142.895582 
L 106.099228 143.460469 
L 108.19275 143.954896 
L 110.286273 144.327083 
L 112.379795 144.546747 
L 114.473317 144.607467 
L 116.566839 144.512822 
L 118.660362 144.27726 
L 120.753884 143.943168 
L 122.847406 143.580856 
L 124.940928 143.250274 
L 127.03445 142.947737 
L 129.127973 142.578511 
L 131.221495 141.967164 
L 133.315017 140.888994 
L 135.408539 139.117747 
L 137.502062 136.501002 
L 139.595584 133.04142 
L 141.689106 128.922408 
L 143.782628 124.461407 
L 145.87615 120.05828 
L 147.969673 116.183558 
L 150.063195 113.34391 
L 152.156717 111.959351 
L 154.250239 112.210114 
L 156.343762 113.971558 
L 158.437284 116.879374 
L 160.530806 120.473902 
L 162.624328 124.341902 
L 164.717851 128.188418 
L 166.811373 131.821296 
L 168.904895 135.09793 
L 170.998417 137.899897 
L 173.091939 140.148042 
L 175.185462 141.823228 
L 177.278984 142.967254 
L 179.372506 143.668782 
L 181.466028 144.04689 
L 183.559551 144.23355 
L 185.653073 144.349082 
L 187.746595 144.473034 
L 189.840117 144.626525 
L 191.933639 144.7805 
L 194.027162 144.88572 
L 196.120684 144.903097 
L 198.214206 144.812614 
L 200.307728 144.599458 
L 202.401251 144.241089 
L 204.494773 143.716964 
L 206.588295 143.03127 
L 208.681817 142.219012 
L 210.77534 141.322688 
L 212.868862 140.358639 
L 214.962384 139.305832 
L 217.055906 138.130984 
L 219.149428 136.826425 
L 221.242951 135.419831 
L 223.336473 133.945612 
L 225.429995 132.416511 
L 227.523517 130.837216 
L 229.61704 129.248704 
L 231.710562 127.74988 
L 233.804084 126.465305 
L 235.897606 125.484164 
L 237.991128 124.821082 
L 240.084651 124.424369 
L 242.178173 124.215659 
L 244.271695 124.12751 
L 246.365217 124.119248 
" style="fill:none;stroke:#db5f57;stroke-linecap:square;stroke-opacity:0.7;stroke-width:1.5;"/>
   </g>
   <g id="line2d_13">
    <defs>
     <path d="M 0 1 
C 0.265203 1 0.51958 0.894634 0.707107 0.707107 
C 0.894634 0.51958 1 0.265203 1 0 
C 1 -0.265203 0.894634 -0.51958 0.707107 -0.707107 
C 0.51958 -0.894634 0.265203 -1 0 -1 
C -0.265203 -1 -0.51958 -0.894634 -0.707107 -0.707107 
C -0.894634 -0.51958 -1 -0.265203 -1 0 
C -1 0.265203 -0.894634 0.51958 -0.707107 0.707107 
C -0.51958 0.894634 -0.265203 1 0 1 
z
" id="m50881875be" style="stroke:#ba55d3;"/>
    </defs>
    <g clip-path="url(#p209315a5d9)">
     <use style="fill:#ffffff;stroke:#ba55d3;" x="53.830957" xlink:href="#m50881875be" y="151.282024"/>
     <use style="fill:#ffffff;stroke:#ba55d3;" x="55.92301" xlink:href="#m50881875be" y="151.975024"/>
     <use style="fill:#ffffff;stroke:#ba55d3;" x="58.015063" xlink:href="#m50881875be" y="147.071483"/>
     <use style="fill:#ffffff;stroke:#ba55d3;" x="60.107116" xlink:href="#m50881875be" y="150.364618"/>
     <use style="fill:#ffffff;stroke:#ba55d3;" x="62.199169" xlink:href="#m50881875be" y="154.017169"/>
     <use style="fill:#ffffff;stroke:#ba55d3;" x="64.291222" xlink:href="#m50881875be" y="150.180847"/>
     <use style="fill:#ffffff;stroke:#ba55d3;" x="66.383275" xlink:href="#m50881875be" y="149.088805"/>
     <use style="fill:#ffffff;stroke:#ba55d3;" x="68.475328" xlink:href="#m50881875be" y="150.243532"/>
     <use style="fill:#ffffff;stroke:#ba55d3;" x="70.567381" xlink:href="#m50881875be" y="142.003384"/>
     <use style="fill:#ffffff;stroke:#ba55d3;" x="72.659434" xlink:href="#m50881875be" y="147.183937"/>
     <use style="fill:#ffffff;stroke:#ba55d3;" x="74.751487" xlink:href="#m50881875be" y="157.731334"/>
     <use style="fill:#ffffff;stroke:#ba55d3;" x="76.843541" xlink:href="#m50881875be" y="152.446453"/>
     <use style="fill:#ffffff;stroke:#ba55d3;" x="78.935594" xlink:href="#m50881875be" y="156.741604"/>
     <use style="fill:#ffffff;stroke:#ba55d3;" x="81.027647" xlink:href="#m50881875be" y="152.30275"/>
     <use style="fill:#ffffff;stroke:#ba55d3;" x="83.1197" xlink:href="#m50881875be" y="151.581589"/>
     <use style="fill:#ffffff;stroke:#ba55d3;" x="85.211753" xlink:href="#m50881875be" y="152.704753"/>
     <use style="fill:#ffffff;stroke:#ba55d3;" x="87.303806" xlink:href="#m50881875be" y="150.626761"/>
     <use style="fill:#ffffff;stroke:#ba55d3;" x="89.395859" xlink:href="#m50881875be" y="151.075888"/>
     <use style="fill:#ffffff;stroke:#ba55d3;" x="91.487912" xlink:href="#m50881875be" y="149.929225"/>
     <use style="fill:#ffffff;stroke:#ba55d3;" x="93.579965" xlink:href="#m50881875be" y="158.063155"/>
     <use style="fill:#ffffff;stroke:#ba55d3;" x="95.672018" xlink:href="#m50881875be" y="159.920332"/>
     <use style="fill:#ffffff;stroke:#ba55d3;" x="97.764071" xlink:href="#m50881875be" y="162.570112"/>
     <use style="fill:#ffffff;stroke:#ba55d3;" x="99.856124" xlink:href="#m50881875be" y="154.888333"/>
     <use style="fill:#ffffff;stroke:#ba55d3;" x="101.948178" xlink:href="#m50881875be" y="157.407829"/>
     <use style="fill:#ffffff;stroke:#ba55d3;" x="104.040231" xlink:href="#m50881875be" y="158.78419"/>
     <use style="fill:#ffffff;stroke:#ba55d3;" x="106.132284" xlink:href="#m50881875be" y="157.610878"/>
     <use style="fill:#ffffff;stroke:#ba55d3;" x="108.224337" xlink:href="#m50881875be" y="155.595067"/>
     <use style="fill:#ffffff;stroke:#ba55d3;" x="110.31639" xlink:href="#m50881875be" y="162.588382"/>
     <use style="fill:#ffffff;stroke:#ba55d3;" x="112.408443" xlink:href="#m50881875be" y="165.800626"/>
     <use style="fill:#ffffff;stroke:#ba55d3;" x="114.500496" xlink:href="#m50881875be" y="165.107563"/>
     <use style="fill:#ffffff;stroke:#ba55d3;" x="116.592549" xlink:href="#m50881875be" y="164.122936"/>
     <use style="fill:#ffffff;stroke:#ba55d3;" x="118.684602" xlink:href="#m50881875be" y="166.375753"/>
     <use style="fill:#ffffff;stroke:#ba55d3;" x="120.776655" xlink:href="#m50881875be" y="166.131817"/>
     <use style="fill:#ffffff;stroke:#ba55d3;" x="122.868708" xlink:href="#m50881875be" y="165.878935"/>
     <use style="fill:#ffffff;stroke:#ba55d3;" x="124.960762" xlink:href="#m50881875be" y="164.348728"/>
     <use style="fill:#ffffff;stroke:#ba55d3;" x="127.052815" xlink:href="#m50881875be" y="167.395345"/>
     <use style="fill:#ffffff;stroke:#ba55d3;" x="129.144868" xlink:href="#m50881875be" y="167.074423"/>
     <use style="fill:#ffffff;stroke:#ba55d3;" x="131.236921" xlink:href="#m50881875be" y="164.413555"/>
     <use style="fill:#ffffff;stroke:#ba55d3;" x="133.328974" xlink:href="#m50881875be" y="165.962158"/>
     <use style="fill:#ffffff;stroke:#ba55d3;" x="135.421027" xlink:href="#m50881875be" y="161.913841"/>
     <use style="fill:#ffffff;stroke:#ba55d3;" x="137.51308" xlink:href="#m50881875be" y="160.343188"/>
     <use style="fill:#ffffff;stroke:#ba55d3;" x="139.605133" xlink:href="#m50881875be" y="164.483107"/>
     <use style="fill:#ffffff;stroke:#ba55d3;" x="141.697186" xlink:href="#m50881875be" y="168.668953"/>
     <use style="fill:#ffffff;stroke:#ba55d3;" x="143.789239" xlink:href="#m50881875be" y="165.800059"/>
     <use style="fill:#ffffff;stroke:#ba55d3;" x="145.881292" xlink:href="#m50881875be" y="163.429621"/>
     <use style="fill:#ffffff;stroke:#ba55d3;" x="147.973346" xlink:href="#m50881875be" y="156.590089"/>
     <use style="fill:#ffffff;stroke:#ba55d3;" x="150.065399" xlink:href="#m50881875be" y="162.86155"/>
     <use style="fill:#ffffff;stroke:#ba55d3;" x="152.157452" xlink:href="#m50881875be" y="167.156449"/>
     <use style="fill:#ffffff;stroke:#ba55d3;" x="154.249505" xlink:href="#m50881875be" y="165.920137"/>
     <use style="fill:#ffffff;stroke:#ba55d3;" x="156.341558" xlink:href="#m50881875be" y="171.521908"/>
     <use style="fill:#ffffff;stroke:#ba55d3;" x="158.433611" xlink:href="#m50881875be" y="164.112352"/>
     <use style="fill:#ffffff;stroke:#ba55d3;" x="160.525664" xlink:href="#m50881875be" y="164.80384"/>
     <use style="fill:#ffffff;stroke:#ba55d3;" x="162.617717" xlink:href="#m50881875be" y="177.270658"/>
     <use style="fill:#ffffff;stroke:#ba55d3;" x="164.70977" xlink:href="#m50881875be" y="172.735036"/>
     <use style="fill:#ffffff;stroke:#ba55d3;" x="166.801823" xlink:href="#m50881875be" y="183.602347"/>
     <use style="fill:#ffffff;stroke:#ba55d3;" x="168.893876" xlink:href="#m50881875be" y="183.877594"/>
     <use style="fill:#ffffff;stroke:#ba55d3;" x="170.98593" xlink:href="#m50881875be" y="189.741635"/>
     <use style="fill:#ffffff;stroke:#ba55d3;" x="173.077983" xlink:href="#m50881875be" y="184.076737"/>
     <use style="fill:#ffffff;stroke:#ba55d3;" x="175.170036" xlink:href="#m50881875be" y="184.876774"/>
     <use style="fill:#ffffff;stroke:#ba55d3;" x="177.262089" xlink:href="#m50881875be" y="188.752912"/>
     <use style="fill:#ffffff;stroke:#ba55d3;" x="179.354142" xlink:href="#m50881875be" y="182.709322"/>
     <use style="fill:#ffffff;stroke:#ba55d3;" x="181.446195" xlink:href="#m50881875be" y="188.349019"/>
     <use style="fill:#ffffff;stroke:#ba55d3;" x="183.538248" xlink:href="#m50881875be" y="189.926413"/>
     <use style="fill:#ffffff;stroke:#ba55d3;" x="185.630301" xlink:href="#m50881875be" y="186.87211"/>
     <use style="fill:#ffffff;stroke:#ba55d3;" x="187.722354" xlink:href="#m50881875be" y="188.156932"/>
     <use style="fill:#ffffff;stroke:#ba55d3;" x="189.814407" xlink:href="#m50881875be" y="190.123981"/>
     <use style="fill:#ffffff;stroke:#ba55d3;" x="191.90646" xlink:href="#m50881875be" y="191.35853"/>
     <use style="fill:#ffffff;stroke:#ba55d3;" x="193.998514" xlink:href="#m50881875be" y="191.616766"/>
     <use style="fill:#ffffff;stroke:#ba55d3;" x="196.090567" xlink:href="#m50881875be" y="186.13312"/>
     <use style="fill:#ffffff;stroke:#ba55d3;" x="198.18262" xlink:href="#m50881875be" y="185.534557"/>
     <use style="fill:#ffffff;stroke:#ba55d3;" x="200.274673" xlink:href="#m50881875be" y="188.970199"/>
     <use style="fill:#ffffff;stroke:#ba55d3;" x="202.366726" xlink:href="#m50881875be" y="189.419137"/>
     <use style="fill:#ffffff;stroke:#ba55d3;" x="204.458779" xlink:href="#m50881875be" y="185.271469"/>
     <use style="fill:#ffffff;stroke:#ba55d3;" x="206.550832" xlink:href="#m50881875be" y="188.610028"/>
     <use style="fill:#ffffff;stroke:#ba55d3;" x="208.642885" xlink:href="#m50881875be" y="187.60039"/>
     <use style="fill:#ffffff;stroke:#ba55d3;" x="210.734938" xlink:href="#m50881875be" y="180.389977"/>
     <use style="fill:#ffffff;stroke:#ba55d3;" x="212.826991" xlink:href="#m50881875be" y="177.128593"/>
     <use style="fill:#ffffff;stroke:#ba55d3;" x="214.919044" xlink:href="#m50881875be" y="177.358921"/>
     <use style="fill:#ffffff;stroke:#ba55d3;" x="217.011097" xlink:href="#m50881875be" y="172.893418"/>
     <use style="fill:#ffffff;stroke:#ba55d3;" x="219.103151" xlink:href="#m50881875be" y="168.477937"/>
     <use style="fill:#ffffff;stroke:#ba55d3;" x="221.195204" xlink:href="#m50881875be" y="168.566515"/>
     <use style="fill:#ffffff;stroke:#ba55d3;" x="223.287257" xlink:href="#m50881875be" y="168.42445"/>
     <use style="fill:#ffffff;stroke:#ba55d3;" x="225.37931" xlink:href="#m50881875be" y="164.890339"/>
     <use style="fill:#ffffff;stroke:#ba55d3;" x="227.471363" xlink:href="#m50881875be" y="168.081982"/>
     <use style="fill:#ffffff;stroke:#ba55d3;" x="229.563416" xlink:href="#m50881875be" y="160.887886"/>
     <use style="fill:#ffffff;stroke:#ba55d3;" x="231.655469" xlink:href="#m50881875be" y="161.396737"/>
     <use style="fill:#ffffff;stroke:#ba55d3;" x="233.747522" xlink:href="#m50881875be" y="153.492884"/>
     <use style="fill:#ffffff;stroke:#ba55d3;" x="235.839575" xlink:href="#m50881875be" y="153.295567"/>
     <use style="fill:#ffffff;stroke:#ba55d3;" x="237.931628" xlink:href="#m50881875be" y="148.739029"/>
     <use style="fill:#ffffff;stroke:#ba55d3;" x="240.023681" xlink:href="#m50881875be" y="147.807322"/>
     <use style="fill:#ffffff;stroke:#ba55d3;" x="242.115735" xlink:href="#m50881875be" y="152.211211"/>
     <use style="fill:#ffffff;stroke:#ba55d3;" x="244.207788" xlink:href="#m50881875be" y="140.062228"/>
     <use style="fill:#ffffff;stroke:#ba55d3;" x="246.299841" xlink:href="#m50881875be" y="143.375398"/>
     <use style="fill:#ffffff;stroke:#ba55d3;" x="248.391894" xlink:href="#m50881875be" y="147.987124"/>
     <use style="fill:#ffffff;stroke:#ba55d3;" x="250.483947" xlink:href="#m50881875be" y="137.165425"/>
     <use style="fill:#ffffff;stroke:#ba55d3;" x="252.576" xlink:href="#m50881875be" y="142.429264"/>
    </g>
   </g>
   <g id="patch_5">
    <path d="M 56.16 202.718437 
L 56.16 36.398437 
" style="fill:none;stroke:#000000;stroke-linecap:square;stroke-linejoin:miter;stroke-width:0.8;"/>
   </g>
   <g id="patch_6">
    <path d="M 250.246957 202.718437 
L 250.246957 36.398437 
" style="fill:none;stroke:#000000;stroke-linecap:square;stroke-linejoin:miter;stroke-width:0.8;"/>
   </g>
   <g id="patch_7">
    <path d="M 56.16 202.718437 
L 250.246957 202.718437 
" style="fill:none;stroke:#000000;stroke-linecap:square;stroke-linejoin:miter;stroke-width:0.8;"/>
   </g>
   <g id="patch_8">
    <path d="M 56.16 36.398437 
L 250.246957 36.398437 
" style="fill:none;stroke:#000000;stroke-linecap:square;stroke-linejoin:miter;stroke-width:0.8;"/>
   </g>
   <g id="text_12">
    <!--  $A$= 5.7  $\lambda=$30 -->
    <defs>
     <path id="DejaVuSans-32"/>
     <path d="M 36.8125 72.90625 
L 48 72.90625 
L 61.53125 0 
L 51.21875 0 
L 48.1875 18.703125 
L 15.375 18.703125 
L 5.078125 0 
L -5.328125 0 
z
M 40.375 63.1875 
L 19.921875 26.90625 
L 46.6875 26.90625 
z
" id="DejaVuSans-Oblique-65"/>
     <path d="M 10.59375 45.40625 
L 73.1875 45.40625 
L 73.1875 37.203125 
L 10.59375 37.203125 
z
M 10.59375 25.484375 
L 73.1875 25.484375 
L 73.1875 17.1875 
L 10.59375 17.1875 
z
" id="DejaVuSans-61"/>
     <path d="M 36.71875 67.4375 
L 48.828125 0 
L 39.3125 0 
L 31.84375 40.4375 
L 5.125 0 
L -4.390625 0 
L 29.734375 52.4375 
L 28.03125 62.109375 
Q 26.953125 68.265625 21.734375 68.265625 
L 17.046875 68.265625 
L 18.5 75.984375 
L 24.21875 75.875 
Q 35.203125 75.734375 36.71875 67.4375 
z
" id="DejaVuSans-Oblique-955"/>
     <path d="M 40.578125 39.3125 
Q 47.65625 37.796875 51.625 33 
Q 55.609375 28.21875 55.609375 21.1875 
Q 55.609375 10.40625 48.1875 4.484375 
Q 40.765625 -1.421875 27.09375 -1.421875 
Q 22.515625 -1.421875 17.65625 -0.515625 
Q 12.796875 0.390625 7.625 2.203125 
L 7.625 11.71875 
Q 11.71875 9.328125 16.59375 8.109375 
Q 21.484375 6.890625 26.8125 6.890625 
Q 36.078125 6.890625 40.9375 10.546875 
Q 45.796875 14.203125 45.796875 21.1875 
Q 45.796875 27.640625 41.28125 31.265625 
Q 36.765625 34.90625 28.71875 34.90625 
L 20.21875 34.90625 
L 20.21875 43.015625 
L 29.109375 43.015625 
Q 36.375 43.015625 40.234375 45.921875 
Q 44.09375 48.828125 44.09375 54.296875 
Q 44.09375 59.90625 40.109375 62.90625 
Q 36.140625 65.921875 28.71875 65.921875 
Q 24.65625 65.921875 20.015625 65.03125 
Q 15.375 64.15625 9.8125 62.3125 
L 9.8125 71.09375 
Q 15.4375 72.65625 20.34375 73.4375 
Q 25.25 74.21875 29.59375 74.21875 
Q 40.828125 74.21875 47.359375 69.109375 
Q 53.90625 64.015625 53.90625 55.328125 
Q 53.90625 49.265625 50.4375 45.09375 
Q 46.96875 40.921875 40.578125 39.3125 
z
" id="DejaVuSans-51"/>
    </defs>
    <g transform="translate(61.012174 51.518437)scale(0.1 -0.1)">
     <use transform="translate(0 0.015625)" xlink:href="#DejaVuSans-32"/>
     <use transform="translate(31.787109 0.015625)" xlink:href="#DejaVuSans-Oblique-65"/>
     <use transform="translate(100.195312 0.015625)" xlink:href="#DejaVuSans-61"/>
     <use transform="translate(183.984375 0.015625)" xlink:href="#DejaVuSans-32"/>
     <use transform="translate(215.771484 0.015625)" xlink:href="#DejaVuSans-53"/>
     <use transform="translate(279.394531 0.015625)" xlink:href="#DejaVuSans-46"/>
     <use transform="translate(303.431641 0.015625)" xlink:href="#DejaVuSans-55"/>
     <use transform="translate(367.054688 0.015625)" xlink:href="#DejaVuSans-32"/>
     <use transform="translate(398.841797 0.015625)" xlink:href="#DejaVuSans-32"/>
     <use transform="translate(430.628906 0.015625)" xlink:href="#DejaVuSans-Oblique-955"/>
     <use transform="translate(509.291016 0.015625)" xlink:href="#DejaVuSans-61"/>
     <use transform="translate(612.5625 0.015625)" xlink:href="#DejaVuSans-51"/>
     <use transform="translate(676.185547 0.015625)" xlink:href="#DejaVuSans-48"/>
    </g>
   </g>
   <g id="text_13">
    <!-- $\kappa$= 0.25 -->
    <defs>
     <path d="M 14.65625 54.6875 
L 23.921875 54.6875 
L 19.484375 31.984375 
L 47.515625 54.6875 
L 58.453125 54.6875 
L 32.90625 34.078125 
L 51.171875 0 
L 40.1875 0 
L 25.4375 28.21875 
L 17.53125 21.921875 
L 13.28125 0 
L 4 0 
z
" id="DejaVuSans-Oblique-954"/>
    </defs>
    <g transform="translate(63.091677 66.638437)scale(0.1 -0.1)">
     <use transform="translate(0 0.78125)" xlink:href="#DejaVuSans-Oblique-954"/>
     <use transform="translate(58.935547 0.78125)" xlink:href="#DejaVuSans-61"/>
     <use transform="translate(142.724609 0.78125)" xlink:href="#DejaVuSans-32"/>
     <use transform="translate(174.511719 0.78125)" xlink:href="#DejaVuSans-48"/>
     <use transform="translate(238.134766 0.78125)" xlink:href="#DejaVuSans-46"/>
     <use transform="translate(264.421875 0.78125)" xlink:href="#DejaVuSans-50"/>
     <use transform="translate(328.044922 0.78125)" xlink:href="#DejaVuSans-53"/>
    </g>
   </g>
  </g>
  <g id="axes_3">
   <g id="patch_9">
    <path d="M 308.473043 202.718437 
L 502.56 202.718437 
L 502.56 36.398437 
L 308.473043 36.398437 
z
" style="fill:#ffffff;"/>
   </g>
   <g id="axes_4">
    <g id="patch_10">
     <path d="M 308.473043 36.398437 
L 502.56 36.398437 
L 502.56 36.398437 
L 308.473043 36.398437 
z
" style="fill:#ffffff;"/>
    </g>
    <g id="matplotlib.axis_5">
     <g id="xtick_7">
      <g id="line2d_14">
       <g>
        <use style="stroke:#000000;stroke-width:0.8;" x="356.994783" xlink:href="#mb72dc0ef62" y="36.398437"/>
       </g>
      </g>
      <g id="text_14">
       <!-- −0.25 -->
       <g transform="translate(341.672126 27.31875)scale(0.1 -0.1)">
        <use xlink:href="#DejaVuSans-8722"/>
        <use x="83.789062" xlink:href="#DejaVuSans-48"/>
        <use x="147.412109" xlink:href="#DejaVuSans-46"/>
        <use x="179.199219" xlink:href="#DejaVuSans-50"/>
        <use x="242.822266" xlink:href="#DejaVuSans-53"/>
       </g>
      </g>
     </g>
     <g id="xtick_8">
      <g id="line2d_15">
       <g>
        <use style="stroke:#000000;stroke-width:0.8;" x="405.516522" xlink:href="#mb72dc0ef62" y="36.398437"/>
       </g>
      </g>
      <g id="text_15">
       <!-- 0.00 -->
       <g transform="translate(394.383709 27.31875)scale(0.1 -0.1)">
        <use xlink:href="#DejaVuSans-48"/>
        <use x="63.623047" xlink:href="#DejaVuSans-46"/>
        <use x="95.410156" xlink:href="#DejaVuSans-48"/>
        <use x="159.033203" xlink:href="#DejaVuSans-48"/>
       </g>
      </g>
     </g>
     <g id="xtick_9">
      <g id="line2d_16">
       <g>
        <use style="stroke:#000000;stroke-width:0.8;" x="454.038261" xlink:href="#mb72dc0ef62" y="36.398437"/>
       </g>
      </g>
      <g id="text_16">
       <!-- 0.25 -->
       <g transform="translate(442.905448 27.31875)scale(0.1 -0.1)">
        <use xlink:href="#DejaVuSans-48"/>
        <use x="63.623047" xlink:href="#DejaVuSans-46"/>
        <use x="95.410156" xlink:href="#DejaVuSans-50"/>
        <use x="159.033203" xlink:href="#DejaVuSans-53"/>
       </g>
      </g>
     </g>
    </g>
    <g id="matplotlib.axis_6"/>
    <g id="patch_11">
     <path d="M 308.473043 36.398437 
L 502.56 36.398437 
" style="fill:none;stroke:#000000;stroke-linecap:square;stroke-linejoin:miter;stroke-width:0.8;"/>
    </g>
   </g>
   <g id="matplotlib.axis_7">
    <g id="xtick_10">
     <g id="line2d_17">
      <g>
       <use style="stroke:#000000;stroke-width:0.8;" x="356.994783" xlink:href="#m5fe254085f" y="202.718437"/>
      </g>
     </g>
     <g id="text_17">
      <!-- −7.5 -->
      <g transform="translate(344.853376 219.816875)scale(0.1 -0.1)">
       <use xlink:href="#DejaVuSans-8722"/>
       <use x="83.789062" xlink:href="#DejaVuSans-55"/>
       <use x="147.412109" xlink:href="#DejaVuSans-46"/>
       <use x="179.199219" xlink:href="#DejaVuSans-53"/>
      </g>
     </g>
    </g>
    <g id="xtick_11">
     <g id="line2d_18">
      <g>
       <use style="stroke:#000000;stroke-width:0.8;" x="405.516522" xlink:href="#m5fe254085f" y="202.718437"/>
      </g>
     </g>
     <g id="text_18">
      <!-- 0.0 -->
      <g transform="translate(397.564959 219.816875)scale(0.1 -0.1)">
       <use xlink:href="#DejaVuSans-48"/>
       <use x="63.623047" xlink:href="#DejaVuSans-46"/>
       <use x="95.410156" xlink:href="#DejaVuSans-48"/>
      </g>
     </g>
    </g>
    <g id="xtick_12">
     <g id="line2d_19">
      <g>
       <use style="stroke:#000000;stroke-width:0.8;" x="454.038261" xlink:href="#m5fe254085f" y="202.718437"/>
      </g>
     </g>
     <g id="text_19">
      <!-- 7.5 -->
      <g transform="translate(446.086698 219.816875)scale(0.1 -0.1)">
       <use xlink:href="#DejaVuSans-55"/>
       <use x="63.623047" xlink:href="#DejaVuSans-46"/>
       <use x="95.410156" xlink:href="#DejaVuSans-53"/>
      </g>
     </g>
    </g>
   </g>
   <g id="matplotlib.axis_8">
    <g id="ytick_6">
     <g id="line2d_20">
      <g>
       <use style="stroke:#000000;stroke-width:0.8;" x="308.473043" xlink:href="#md39dc44b79" y="202.718437"/>
      </g>
     </g>
     <g id="text_20">
      <!-- 0.0 -->
      <g transform="translate(283.069918 206.517656)scale(0.1 -0.1)">
       <use xlink:href="#DejaVuSans-48"/>
       <use x="63.623047" xlink:href="#DejaVuSans-46"/>
       <use x="95.410156" xlink:href="#DejaVuSans-48"/>
      </g>
     </g>
    </g>
    <g id="ytick_7">
     <g id="line2d_21">
      <g>
       <use style="stroke:#000000;stroke-width:0.8;" x="308.473043" xlink:href="#md39dc44b79" y="178.078438"/>
      </g>
     </g>
     <g id="text_21">
      <!-- 0.2 -->
      <g transform="translate(283.069918 181.877656)scale(0.1 -0.1)">
       <use xlink:href="#DejaVuSans-48"/>
       <use x="63.623047" xlink:href="#DejaVuSans-46"/>
       <use x="95.410156" xlink:href="#DejaVuSans-50"/>
      </g>
     </g>
    </g>
    <g id="ytick_8">
     <g id="line2d_22">
      <g>
       <use style="stroke:#000000;stroke-width:0.8;" x="308.473043" xlink:href="#md39dc44b79" y="153.438437"/>
      </g>
     </g>
     <g id="text_22">
      <!-- 0.4 -->
      <g transform="translate(283.069918 157.237656)scale(0.1 -0.1)">
       <use xlink:href="#DejaVuSans-48"/>
       <use x="63.623047" xlink:href="#DejaVuSans-46"/>
       <use x="95.410156" xlink:href="#DejaVuSans-52"/>
      </g>
     </g>
    </g>
    <g id="ytick_9">
     <g id="line2d_23">
      <g>
       <use style="stroke:#000000;stroke-width:0.8;" x="308.473043" xlink:href="#md39dc44b79" y="128.798437"/>
      </g>
     </g>
     <g id="text_23">
      <!-- 0.6 -->
      <g transform="translate(283.069918 132.597656)scale(0.1 -0.1)">
       <use xlink:href="#DejaVuSans-48"/>
       <use x="63.623047" xlink:href="#DejaVuSans-46"/>
       <use x="95.410156" xlink:href="#DejaVuSans-54"/>
      </g>
     </g>
    </g>
    <g id="ytick_10">
     <g id="line2d_24">
      <g>
       <use style="stroke:#000000;stroke-width:0.8;" x="308.473043" xlink:href="#md39dc44b79" y="104.158437"/>
      </g>
     </g>
     <g id="text_24">
      <!-- 0.8 -->
      <g transform="translate(283.069918 107.957656)scale(0.1 -0.1)">
       <use xlink:href="#DejaVuSans-48"/>
       <use x="63.623047" xlink:href="#DejaVuSans-46"/>
       <use x="95.410156" xlink:href="#DejaVuSans-56"/>
      </g>
     </g>
    </g>
    <g id="ytick_11">
     <g id="line2d_25">
      <g>
       <use style="stroke:#000000;stroke-width:0.8;" x="308.473043" xlink:href="#md39dc44b79" y="79.518437"/>
      </g>
     </g>
     <g id="text_25">
      <!-- 1.0 -->
      <defs>
       <path d="M 12.40625 8.296875 
L 28.515625 8.296875 
L 28.515625 63.921875 
L 10.984375 60.40625 
L 10.984375 69.390625 
L 28.421875 72.90625 
L 38.28125 72.90625 
L 38.28125 8.296875 
L 54.390625 8.296875 
L 54.390625 0 
L 12.40625 0 
z
" id="DejaVuSans-49"/>
      </defs>
      <g transform="translate(283.069918 83.317656)scale(0.1 -0.1)">
       <use xlink:href="#DejaVuSans-49"/>
       <use x="63.623047" xlink:href="#DejaVuSans-46"/>
       <use x="95.410156" xlink:href="#DejaVuSans-48"/>
      </g>
     </g>
    </g>
    <g id="text_26">
     <!-- Normalized speed $v(x)$ -->
     <defs>
      <path d="M 9.8125 72.90625 
L 23.09375 72.90625 
L 55.421875 11.921875 
L 55.421875 72.90625 
L 64.984375 72.90625 
L 64.984375 0 
L 51.703125 0 
L 19.390625 60.984375 
L 19.390625 0 
L 9.8125 0 
z
" id="DejaVuSans-78"/>
      <path d="M 30.609375 48.390625 
Q 23.390625 48.390625 19.1875 42.75 
Q 14.984375 37.109375 14.984375 27.296875 
Q 14.984375 17.484375 19.15625 11.84375 
Q 23.34375 6.203125 30.609375 6.203125 
Q 37.796875 6.203125 41.984375 11.859375 
Q 46.1875 17.53125 46.1875 27.296875 
Q 46.1875 37.015625 41.984375 42.703125 
Q 37.796875 48.390625 30.609375 48.390625 
z
M 30.609375 56 
Q 42.328125 56 49.015625 48.375 
Q 55.71875 40.765625 55.71875 27.296875 
Q 55.71875 13.875 49.015625 6.21875 
Q 42.328125 -1.421875 30.609375 -1.421875 
Q 18.84375 -1.421875 12.171875 6.21875 
Q 5.515625 13.875 5.515625 27.296875 
Q 5.515625 40.765625 12.171875 48.375 
Q 18.84375 56 30.609375 56 
z
" id="DejaVuSans-111"/>
      <path d="M 41.109375 46.296875 
Q 39.59375 47.171875 37.8125 47.578125 
Q 36.03125 48 33.890625 48 
Q 26.265625 48 22.1875 43.046875 
Q 18.109375 38.09375 18.109375 28.8125 
L 18.109375 0 
L 9.078125 0 
L 9.078125 54.6875 
L 18.109375 54.6875 
L 18.109375 46.1875 
Q 20.953125 51.171875 25.484375 53.578125 
Q 30.03125 56 36.53125 56 
Q 37.453125 56 38.578125 55.875 
Q 39.703125 55.765625 41.0625 55.515625 
z
" id="DejaVuSans-114"/>
      <path d="M 52 44.1875 
Q 55.375 50.25 60.0625 53.125 
Q 64.75 56 71.09375 56 
Q 79.640625 56 84.28125 50.015625 
Q 88.921875 44.046875 88.921875 33.015625 
L 88.921875 0 
L 79.890625 0 
L 79.890625 32.71875 
Q 79.890625 40.578125 77.09375 44.375 
Q 74.3125 48.1875 68.609375 48.1875 
Q 61.625 48.1875 57.5625 43.546875 
Q 53.515625 38.921875 53.515625 30.90625 
L 53.515625 0 
L 44.484375 0 
L 44.484375 32.71875 
Q 44.484375 40.625 41.703125 44.40625 
Q 38.921875 48.1875 33.109375 48.1875 
Q 26.21875 48.1875 22.15625 43.53125 
Q 18.109375 38.875 18.109375 30.90625 
L 18.109375 0 
L 9.078125 0 
L 9.078125 54.6875 
L 18.109375 54.6875 
L 18.109375 46.1875 
Q 21.1875 51.21875 25.484375 53.609375 
Q 29.78125 56 35.6875 56 
Q 41.65625 56 45.828125 52.96875 
Q 50 49.953125 52 44.1875 
z
" id="DejaVuSans-109"/>
      <path d="M 34.28125 27.484375 
Q 23.390625 27.484375 19.1875 25 
Q 14.984375 22.515625 14.984375 16.5 
Q 14.984375 11.71875 18.140625 8.90625 
Q 21.296875 6.109375 26.703125 6.109375 
Q 34.1875 6.109375 38.703125 11.40625 
Q 43.21875 16.703125 43.21875 25.484375 
L 43.21875 27.484375 
z
M 52.203125 31.203125 
L 52.203125 0 
L 43.21875 0 
L 43.21875 8.296875 
Q 40.140625 3.328125 35.546875 0.953125 
Q 30.953125 -1.421875 24.3125 -1.421875 
Q 15.921875 -1.421875 10.953125 3.296875 
Q 6 8.015625 6 15.921875 
Q 6 25.140625 12.171875 29.828125 
Q 18.359375 34.515625 30.609375 34.515625 
L 43.21875 34.515625 
L 43.21875 35.40625 
Q 43.21875 41.609375 39.140625 45 
Q 35.0625 48.390625 27.6875 48.390625 
Q 23 48.390625 18.546875 47.265625 
Q 14.109375 46.140625 10.015625 43.890625 
L 10.015625 52.203125 
Q 14.9375 54.109375 19.578125 55.046875 
Q 24.21875 56 28.609375 56 
Q 40.484375 56 46.34375 49.84375 
Q 52.203125 43.703125 52.203125 31.203125 
z
" id="DejaVuSans-97"/>
      <path d="M 9.421875 75.984375 
L 18.40625 75.984375 
L 18.40625 0 
L 9.421875 0 
z
" id="DejaVuSans-108"/>
      <path d="M 9.421875 54.6875 
L 18.40625 54.6875 
L 18.40625 0 
L 9.421875 0 
z
M 9.421875 75.984375 
L 18.40625 75.984375 
L 18.40625 64.59375 
L 9.421875 64.59375 
z
" id="DejaVuSans-105"/>
      <path d="M 5.515625 54.6875 
L 48.1875 54.6875 
L 48.1875 46.484375 
L 14.40625 7.171875 
L 48.1875 7.171875 
L 48.1875 0 
L 4.296875 0 
L 4.296875 8.203125 
L 38.09375 47.515625 
L 5.515625 47.515625 
z
" id="DejaVuSans-122"/>
      <path d="M 56.203125 29.59375 
L 56.203125 25.203125 
L 14.890625 25.203125 
Q 15.484375 15.921875 20.484375 11.0625 
Q 25.484375 6.203125 34.421875 6.203125 
Q 39.59375 6.203125 44.453125 7.46875 
Q 49.3125 8.734375 54.109375 11.28125 
L 54.109375 2.78125 
Q 49.265625 0.734375 44.1875 -0.34375 
Q 39.109375 -1.421875 33.890625 -1.421875 
Q 20.796875 -1.421875 13.15625 6.1875 
Q 5.515625 13.8125 5.515625 26.8125 
Q 5.515625 40.234375 12.765625 48.109375 
Q 20.015625 56 32.328125 56 
Q 43.359375 56 49.78125 48.890625 
Q 56.203125 41.796875 56.203125 29.59375 
z
M 47.21875 32.234375 
Q 47.125 39.59375 43.09375 43.984375 
Q 39.0625 48.390625 32.421875 48.390625 
Q 24.90625 48.390625 20.390625 44.140625 
Q 15.875 39.890625 15.1875 32.171875 
z
" id="DejaVuSans-101"/>
      <path d="M 45.40625 46.390625 
L 45.40625 75.984375 
L 54.390625 75.984375 
L 54.390625 0 
L 45.40625 0 
L 45.40625 8.203125 
Q 42.578125 3.328125 38.25 0.953125 
Q 33.9375 -1.421875 27.875 -1.421875 
Q 17.96875 -1.421875 11.734375 6.484375 
Q 5.515625 14.40625 5.515625 27.296875 
Q 5.515625 40.1875 11.734375 48.09375 
Q 17.96875 56 27.875 56 
Q 33.9375 56 38.25 53.625 
Q 42.578125 51.265625 45.40625 46.390625 
z
M 14.796875 27.296875 
Q 14.796875 17.390625 18.875 11.75 
Q 22.953125 6.109375 30.078125 6.109375 
Q 37.203125 6.109375 41.296875 11.75 
Q 45.40625 17.390625 45.40625 27.296875 
Q 45.40625 37.203125 41.296875 42.84375 
Q 37.203125 48.484375 30.078125 48.484375 
Q 22.953125 48.484375 18.875 42.84375 
Q 14.796875 37.203125 14.796875 27.296875 
z
" id="DejaVuSans-100"/>
      <path d="M 44.28125 53.078125 
L 44.28125 44.578125 
Q 40.484375 46.53125 36.375 47.5 
Q 32.28125 48.484375 27.875 48.484375 
Q 21.1875 48.484375 17.84375 46.4375 
Q 14.5 44.390625 14.5 40.28125 
Q 14.5 37.15625 16.890625 35.375 
Q 19.28125 33.59375 26.515625 31.984375 
L 29.59375 31.296875 
Q 39.15625 29.25 43.1875 25.515625 
Q 47.21875 21.78125 47.21875 15.09375 
Q 47.21875 7.46875 41.1875 3.015625 
Q 35.15625 -1.421875 24.609375 -1.421875 
Q 20.21875 -1.421875 15.453125 -0.5625 
Q 10.6875 0.296875 5.421875 2 
L 5.421875 11.28125 
Q 10.40625 8.6875 15.234375 7.390625 
Q 20.0625 6.109375 24.8125 6.109375 
Q 31.15625 6.109375 34.5625 8.28125 
Q 37.984375 10.453125 37.984375 14.40625 
Q 37.984375 18.0625 35.515625 20.015625 
Q 33.0625 21.96875 24.703125 23.78125 
L 21.578125 24.515625 
Q 13.234375 26.265625 9.515625 29.90625 
Q 5.8125 33.546875 5.8125 39.890625 
Q 5.8125 47.609375 11.28125 51.796875 
Q 16.75 56 26.8125 56 
Q 31.78125 56 36.171875 55.265625 
Q 40.578125 54.546875 44.28125 53.078125 
z
" id="DejaVuSans-115"/>
      <path d="M 18.109375 8.203125 
L 18.109375 -20.796875 
L 9.078125 -20.796875 
L 9.078125 54.6875 
L 18.109375 54.6875 
L 18.109375 46.390625 
Q 20.953125 51.265625 25.265625 53.625 
Q 29.59375 56 35.59375 56 
Q 45.5625 56 51.78125 48.09375 
Q 58.015625 40.1875 58.015625 27.296875 
Q 58.015625 14.40625 51.78125 6.484375 
Q 45.5625 -1.421875 35.59375 -1.421875 
Q 29.59375 -1.421875 25.265625 0.953125 
Q 20.953125 3.328125 18.109375 8.203125 
z
M 48.6875 27.296875 
Q 48.6875 37.203125 44.609375 42.84375 
Q 40.53125 48.484375 33.40625 48.484375 
Q 26.265625 48.484375 22.1875 42.84375 
Q 18.109375 37.203125 18.109375 27.296875 
Q 18.109375 17.390625 22.1875 11.75 
Q 26.265625 6.109375 33.40625 6.109375 
Q 40.53125 6.109375 44.609375 11.75 
Q 48.6875 17.390625 48.6875 27.296875 
z
" id="DejaVuSans-112"/>
      <path d="M 7.171875 54.6875 
L 16.703125 54.6875 
L 24.703125 8.203125 
L 50.875 54.6875 
L 60.40625 54.6875 
L 29.296875 0 
L 17.1875 0 
z
" id="DejaVuSans-Oblique-118"/>
      <path d="M 31 75.875 
Q 24.46875 64.65625 21.28125 53.65625 
Q 18.109375 42.671875 18.109375 31.390625 
Q 18.109375 20.125 21.3125 9.0625 
Q 24.515625 -2 31 -13.1875 
L 23.1875 -13.1875 
Q 15.875 -1.703125 12.234375 9.375 
Q 8.59375 20.453125 8.59375 31.390625 
Q 8.59375 42.28125 12.203125 53.3125 
Q 15.828125 64.359375 23.1875 75.875 
z
" id="DejaVuSans-40"/>
      <path d="M 60.015625 54.6875 
L 34.90625 27.875 
L 50.296875 0 
L 39.984375 0 
L 28.421875 21.6875 
L 8.296875 0 
L -2.59375 0 
L 24.3125 28.8125 
L 10.015625 54.6875 
L 20.3125 54.6875 
L 30.8125 34.90625 
L 49.125 54.6875 
z
" id="DejaVuSans-Oblique-120"/>
      <path d="M 8.015625 75.875 
L 15.828125 75.875 
Q 23.140625 64.359375 26.78125 53.3125 
Q 30.421875 42.28125 30.421875 31.390625 
Q 30.421875 20.453125 26.78125 9.375 
Q 23.140625 -1.703125 15.828125 -13.1875 
L 8.015625 -13.1875 
Q 14.5 -2 17.703125 9.0625 
Q 20.90625 20.125 20.90625 31.390625 
Q 20.90625 42.671875 17.703125 53.65625 
Q 14.5 64.65625 8.015625 75.875 
z
" id="DejaVuSans-41"/>
     </defs>
     <g transform="translate(276.969918 176.108437)rotate(-90)scale(0.1 -0.1)">
      <use transform="translate(0 0.015625)" xlink:href="#DejaVuSans-78"/>
      <use transform="translate(74.804688 0.015625)" xlink:href="#DejaVuSans-111"/>
      <use transform="translate(135.986328 0.015625)" xlink:href="#DejaVuSans-114"/>
      <use transform="translate(177.099609 0.015625)" xlink:href="#DejaVuSans-109"/>
      <use transform="translate(274.511719 0.015625)" xlink:href="#DejaVuSans-97"/>
      <use transform="translate(335.791016 0.015625)" xlink:href="#DejaVuSans-108"/>
      <use transform="translate(363.574219 0.015625)" xlink:href="#DejaVuSans-105"/>
      <use transform="translate(391.357422 0.015625)" xlink:href="#DejaVuSans-122"/>
      <use transform="translate(443.847656 0.015625)" xlink:href="#DejaVuSans-101"/>
      <use transform="translate(505.371094 0.015625)" xlink:href="#DejaVuSans-100"/>
      <use transform="translate(568.847656 0.015625)" xlink:href="#DejaVuSans-32"/>
      <use transform="translate(600.634766 0.015625)" xlink:href="#DejaVuSans-115"/>
      <use transform="translate(652.734375 0.015625)" xlink:href="#DejaVuSans-112"/>
      <use transform="translate(716.210938 0.015625)" xlink:href="#DejaVuSans-101"/>
      <use transform="translate(777.734375 0.015625)" xlink:href="#DejaVuSans-101"/>
      <use transform="translate(839.257812 0.015625)" xlink:href="#DejaVuSans-100"/>
      <use transform="translate(902.734375 0.015625)" xlink:href="#DejaVuSans-32"/>
      <use transform="translate(934.521484 0.015625)" xlink:href="#DejaVuSans-Oblique-118"/>
      <use transform="translate(993.701172 0.015625)" xlink:href="#DejaVuSans-40"/>
      <use transform="translate(1032.714844 0.015625)" xlink:href="#DejaVuSans-Oblique-120"/>
      <use transform="translate(1091.894531 0.015625)" xlink:href="#DejaVuSans-41"/>
     </g>
    </g>
   </g>
   <g id="LineCollection_2">
    <path clip-path="url(#p06c5697cef)" d="M 308.473043 80.407689 
L 308.473043 74.99484 
" style="fill:none;stroke:#ba55d3;stroke-opacity:0.25;stroke-width:1.5;"/>
    <path clip-path="url(#p06c5697cef)" d="M 315.165697 80.407689 
L 315.165697 74.99484 
" style="fill:none;stroke:#ba55d3;stroke-opacity:0.25;stroke-width:1.5;"/>
    <path clip-path="url(#p06c5697cef)" d="M 321.858351 85.678348 
L 321.858351 78.529933 
" style="fill:none;stroke:#ba55d3;stroke-opacity:0.25;stroke-width:1.5;"/>
    <path clip-path="url(#p06c5697cef)" d="M 328.551004 93.357409 
L 328.551004 87.624029 
" style="fill:none;stroke:#ba55d3;stroke-opacity:0.25;stroke-width:1.5;"/>
    <path clip-path="url(#p06c5697cef)" d="M 335.243658 101.103258 
L 335.243658 92.845072 
" style="fill:none;stroke:#ba55d3;stroke-opacity:0.25;stroke-width:1.5;"/>
    <path clip-path="url(#p06c5697cef)" d="M 341.936312 112.255996 
L 341.936312 103.846922 
" style="fill:none;stroke:#ba55d3;stroke-opacity:0.25;stroke-width:1.5;"/>
    <path clip-path="url(#p06c5697cef)" d="M 348.628966 118.007513 
L 348.628966 110.711397 
" style="fill:none;stroke:#ba55d3;stroke-opacity:0.25;stroke-width:1.5;"/>
    <path clip-path="url(#p06c5697cef)" d="M 355.321619 126.463372 
L 355.321619 121.123103 
" style="fill:none;stroke:#ba55d3;stroke-opacity:0.25;stroke-width:1.5;"/>
    <path clip-path="url(#p06c5697cef)" d="M 362.014273 135.407422 
L 362.014273 126.290073 
" style="fill:none;stroke:#ba55d3;stroke-opacity:0.25;stroke-width:1.5;"/>
    <path clip-path="url(#p06c5697cef)" d="M 368.706927 141.31639 
L 368.706927 131.963368 
" style="fill:none;stroke:#ba55d3;stroke-opacity:0.25;stroke-width:1.5;"/>
    <path clip-path="url(#p06c5697cef)" d="M 375.39958 147.652363 
L 375.39958 140.053781 
" style="fill:none;stroke:#ba55d3;stroke-opacity:0.25;stroke-width:1.5;"/>
    <path clip-path="url(#p06c5697cef)" d="M 382.092234 158.374172 
L 382.092234 149.588883 
" style="fill:none;stroke:#ba55d3;stroke-opacity:0.25;stroke-width:1.5;"/>
    <path clip-path="url(#p06c5697cef)" d="M 388.784888 162.24194 
L 388.784888 154.253834 
" style="fill:none;stroke:#ba55d3;stroke-opacity:0.25;stroke-width:1.5;"/>
    <path clip-path="url(#p06c5697cef)" d="M 395.477541 182.171135 
L 395.477541 170.311886 
" style="fill:none;stroke:#ba55d3;stroke-opacity:0.25;stroke-width:1.5;"/>
    <path clip-path="url(#p06c5697cef)" d="M 402.170195 176.013924 
L 402.170195 167.147416 
" style="fill:none;stroke:#ba55d3;stroke-opacity:0.25;stroke-width:1.5;"/>
    <path clip-path="url(#p06c5697cef)" d="M 408.862849 177.073343 
L 408.862849 167.352214 
" style="fill:none;stroke:#ba55d3;stroke-opacity:0.25;stroke-width:1.5;"/>
    <path clip-path="url(#p06c5697cef)" d="M 415.555502 158.879541 
L 415.555502 150.692832 
" style="fill:none;stroke:#ba55d3;stroke-opacity:0.25;stroke-width:1.5;"/>
    <path clip-path="url(#p06c5697cef)" d="M 422.248156 145.336467 
L 422.248156 139.727186 
" style="fill:none;stroke:#ba55d3;stroke-opacity:0.25;stroke-width:1.5;"/>
    <path clip-path="url(#p06c5697cef)" d="M 428.94081 142.207262 
L 428.94081 130.525549 
" style="fill:none;stroke:#ba55d3;stroke-opacity:0.25;stroke-width:1.5;"/>
    <path clip-path="url(#p06c5697cef)" d="M 435.633463 133.388064 
L 435.633463 123.607419 
" style="fill:none;stroke:#ba55d3;stroke-opacity:0.25;stroke-width:1.5;"/>
    <path clip-path="url(#p06c5697cef)" d="M 442.326117 133.796259 
L 442.326117 119.002399 
" style="fill:none;stroke:#ba55d3;stroke-opacity:0.25;stroke-width:1.5;"/>
    <path clip-path="url(#p06c5697cef)" d="M 449.018771 120.657072 
L 449.018771 112.774789 
" style="fill:none;stroke:#ba55d3;stroke-opacity:0.25;stroke-width:1.5;"/>
    <path clip-path="url(#p06c5697cef)" d="M 455.711424 119.930492 
L 455.711424 110.571038 
" style="fill:none;stroke:#ba55d3;stroke-opacity:0.25;stroke-width:1.5;"/>
    <path clip-path="url(#p06c5697cef)" d="M 462.404078 117.567572 
L 462.404078 103.417349 
" style="fill:none;stroke:#ba55d3;stroke-opacity:0.25;stroke-width:1.5;"/>
    <path clip-path="url(#p06c5697cef)" d="M 469.096732 103.169638 
L 469.096732 94.365379 
" style="fill:none;stroke:#ba55d3;stroke-opacity:0.25;stroke-width:1.5;"/>
    <path clip-path="url(#p06c5697cef)" d="M 475.789385 90.747746 
L 475.789385 82.155112 
" style="fill:none;stroke:#ba55d3;stroke-opacity:0.25;stroke-width:1.5;"/>
    <path clip-path="url(#p06c5697cef)" d="M 482.482039 82.239297 
L 482.482039 76.440776 
" style="fill:none;stroke:#ba55d3;stroke-opacity:0.25;stroke-width:1.5;"/>
    <path clip-path="url(#p06c5697cef)" d="M 489.174693 78.913052 
L 489.174693 72.993401 
" style="fill:none;stroke:#ba55d3;stroke-opacity:0.25;stroke-width:1.5;"/>
    <path clip-path="url(#p06c5697cef)" d="M 495.867346 78.586351 
L 495.867346 70.532924 
" style="fill:none;stroke:#ba55d3;stroke-opacity:0.25;stroke-width:1.5;"/>
    <path clip-path="url(#p06c5697cef)" d="M 502.56 78.586351 
L 502.56 70.532924 
" style="fill:none;stroke:#ba55d3;stroke-opacity:0.25;stroke-width:1.5;"/>
   </g>
   <g id="line2d_26">
    <path clip-path="url(#p06c5697cef)" d="M 310.284522 81.531817 
L 312.377533 81.531817 
L 314.470544 81.585198 
L 316.563555 81.819914 
L 318.656566 82.022942 
L 320.749577 82.43156 
L 322.842588 83.450093 
L 324.935599 84.670843 
L 327.02861 86.0134 
L 329.121621 86.760709 
L 331.214632 88.623614 
L 333.307643 90.650238 
L 335.400654 93.489621 
L 337.493665 94.976367 
L 339.586676 97.816623 
L 341.679687 100.302912 
L 343.772698 101.724987 
L 345.865709 105.83899 
L 347.95872 109.048538 
L 350.051731 109.845468 
L 352.144742 113.148185 
L 354.237753 115.674129 
L 356.330763 119.257144 
L 358.423774 121.000825 
L 360.516785 120.609274 
L 362.609796 123.889541 
L 364.702807 125.342686 
L 366.795818 127.318195 
L 368.888829 130.376596 
L 370.98184 131.827749 
L 373.074851 137.270421 
L 375.167862 139.20948 
L 377.260873 143.422077 
L 379.353884 143.901194 
L 381.446895 145.916039 
L 383.539906 148.16403 
L 385.632917 150.668912 
L 387.725928 153.262584 
L 389.818939 155.690438 
L 391.91195 160.456741 
L 394.004961 167.062633 
L 396.097972 169.10338 
L 398.190983 170.656643 
L 400.283994 174.382404 
L 402.377005 176.325886 
L 404.470016 176.691141 
L 406.563027 176.535907 
L 408.656038 176.522487 
L 410.749049 173.143815 
L 412.84206 171.505088 
L 414.935071 168.314025 
L 417.028082 167.081366 
L 419.121093 162.449777 
L 421.214104 157.491629 
L 423.307115 154.581374 
L 425.400126 150.608924 
L 427.493137 147.521282 
L 429.586148 143.864114 
L 431.679159 141.927108 
L 433.77217 139.937162 
L 435.865181 138.531173 
L 437.958192 136.940357 
L 440.051203 133.574684 
L 442.144214 131.212407 
L 444.237225 129.615968 
L 446.330236 125.478722 
L 448.423247 123.141909 
L 450.516258 121.826257 
L 452.609269 118.496908 
L 454.70228 115.18353 
L 456.795291 112.788411 
L 458.888302 111.165748 
L 460.981313 109.15001 
L 463.074324 109.462327 
L 465.167335 105.023569 
L 467.260346 102.696005 
L 469.353357 98.092133 
L 471.446368 97.12748 
L 473.539379 96.195185 
L 475.63239 95.318581 
L 477.725401 90.085474 
L 479.818412 88.618807 
L 481.911423 87.04674 
L 484.004434 85.6381 
L 486.097445 85.161323 
L 488.190456 83.528035 
L 490.283467 82.706375 
L 492.376478 82.275361 
L 494.469489 81.490186 
L 496.5625 81.514555 
L 498.655511 81.496572 
L 500.748522 81.496572 
" style="fill:none;stroke:#db5f57;stroke-linecap:square;stroke-opacity:0.7;stroke-width:1.5;"/>
   </g>
   <g id="line2d_27">
    <g clip-path="url(#p06c5697cef)">
     <use style="fill:#ffffff;stroke:#ba55d3;" x="308.473043" xlink:href="#m50881875be" y="77.701264"/>
     <use style="fill:#ffffff;stroke:#ba55d3;" x="315.165697" xlink:href="#m50881875be" y="77.701264"/>
     <use style="fill:#ffffff;stroke:#ba55d3;" x="321.858351" xlink:href="#m50881875be" y="82.104141"/>
     <use style="fill:#ffffff;stroke:#ba55d3;" x="328.551004" xlink:href="#m50881875be" y="90.490719"/>
     <use style="fill:#ffffff;stroke:#ba55d3;" x="335.243658" xlink:href="#m50881875be" y="96.974165"/>
     <use style="fill:#ffffff;stroke:#ba55d3;" x="341.936312" xlink:href="#m50881875be" y="108.051459"/>
     <use style="fill:#ffffff;stroke:#ba55d3;" x="348.628966" xlink:href="#m50881875be" y="114.359455"/>
     <use style="fill:#ffffff;stroke:#ba55d3;" x="355.321619" xlink:href="#m50881875be" y="123.793238"/>
     <use style="fill:#ffffff;stroke:#ba55d3;" x="362.014273" xlink:href="#m50881875be" y="130.848747"/>
     <use style="fill:#ffffff;stroke:#ba55d3;" x="368.706927" xlink:href="#m50881875be" y="136.639879"/>
     <use style="fill:#ffffff;stroke:#ba55d3;" x="375.39958" xlink:href="#m50881875be" y="143.853072"/>
     <use style="fill:#ffffff;stroke:#ba55d3;" x="382.092234" xlink:href="#m50881875be" y="153.981528"/>
     <use style="fill:#ffffff;stroke:#ba55d3;" x="388.784888" xlink:href="#m50881875be" y="158.247887"/>
     <use style="fill:#ffffff;stroke:#ba55d3;" x="395.477541" xlink:href="#m50881875be" y="176.241511"/>
     <use style="fill:#ffffff;stroke:#ba55d3;" x="402.170195" xlink:href="#m50881875be" y="171.58067"/>
     <use style="fill:#ffffff;stroke:#ba55d3;" x="408.862849" xlink:href="#m50881875be" y="172.212778"/>
     <use style="fill:#ffffff;stroke:#ba55d3;" x="415.555502" xlink:href="#m50881875be" y="154.786187"/>
     <use style="fill:#ffffff;stroke:#ba55d3;" x="422.248156" xlink:href="#m50881875be" y="142.531827"/>
     <use style="fill:#ffffff;stroke:#ba55d3;" x="428.94081" xlink:href="#m50881875be" y="136.366405"/>
     <use style="fill:#ffffff;stroke:#ba55d3;" x="435.633463" xlink:href="#m50881875be" y="128.497742"/>
     <use style="fill:#ffffff;stroke:#ba55d3;" x="442.326117" xlink:href="#m50881875be" y="126.399329"/>
     <use style="fill:#ffffff;stroke:#ba55d3;" x="449.018771" xlink:href="#m50881875be" y="116.715931"/>
     <use style="fill:#ffffff;stroke:#ba55d3;" x="455.711424" xlink:href="#m50881875be" y="115.250765"/>
     <use style="fill:#ffffff;stroke:#ba55d3;" x="462.404078" xlink:href="#m50881875be" y="110.49246"/>
     <use style="fill:#ffffff;stroke:#ba55d3;" x="469.096732" xlink:href="#m50881875be" y="98.767508"/>
     <use style="fill:#ffffff;stroke:#ba55d3;" x="475.789385" xlink:href="#m50881875be" y="86.451429"/>
     <use style="fill:#ffffff;stroke:#ba55d3;" x="482.482039" xlink:href="#m50881875be" y="79.340037"/>
     <use style="fill:#ffffff;stroke:#ba55d3;" x="489.174693" xlink:href="#m50881875be" y="75.953226"/>
     <use style="fill:#ffffff;stroke:#ba55d3;" x="495.867346" xlink:href="#m50881875be" y="74.559637"/>
     <use style="fill:#ffffff;stroke:#ba55d3;" x="502.56" xlink:href="#m50881875be" y="74.559637"/>
    </g>
   </g>
   <g id="patch_12">
    <path d="M 308.473043 202.718437 
L 308.473043 36.398437 
" style="fill:none;stroke:#000000;stroke-linecap:square;stroke-linejoin:miter;stroke-width:0.8;"/>
   </g>
   <g id="patch_13">
    <path d="M 502.56 202.718437 
L 502.56 36.398437 
" style="fill:none;stroke:#000000;stroke-linecap:square;stroke-linejoin:miter;stroke-width:0.8;"/>
   </g>
   <g id="patch_14">
    <path d="M 308.473043 202.718437 
L 502.56 202.718437 
" style="fill:none;stroke:#000000;stroke-linecap:square;stroke-linejoin:miter;stroke-width:0.8;"/>
   </g>
   <g id="patch_15">
    <path d="M 308.473043 36.398437 
L 502.56 36.398437 
" style="fill:none;stroke:#000000;stroke-linecap:square;stroke-linejoin:miter;stroke-width:0.8;"/>
   </g>
   <g id="legend_1">
    <g id="line2d_28">
     <path d="M 347.781522 49.538437 
L 365.781522 49.538437 
" style="fill:none;stroke:#db5f57;stroke-linecap:square;stroke-opacity:0.7;stroke-width:1.5;"/>
    </g>
    <g id="line2d_29"/>
    <g id="text_27">
     <!-- $K^*$= 3.0 $D_r^*=$0.015 -->
     <defs>
      <path d="M 16.890625 72.90625 
L 26.8125 72.90625 
L 20.796875 42.1875 
L 59.078125 72.90625 
L 72.21875 72.90625 
L 28.90625 38.09375 
L 60.59375 0 
L 48.578125 0 
L 19.484375 35.5 
L 12.59375 0 
L 2.6875 0 
z
" id="DejaVuSans-Oblique-75"/>
      <path d="M 47.015625 60.890625 
L 29.5 51.421875 
L 47.015625 41.890625 
L 44.1875 37.109375 
L 27.78125 47.015625 
L 27.78125 28.609375 
L 22.21875 28.609375 
L 22.21875 47.015625 
L 5.8125 37.109375 
L 2.984375 41.890625 
L 20.515625 51.421875 
L 2.984375 60.890625 
L 5.8125 65.71875 
L 22.21875 55.8125 
L 22.21875 74.21875 
L 27.78125 74.21875 
L 27.78125 55.8125 
L 44.1875 65.71875 
z
" id="DejaVuSans-42"/>
      <path d="M 16.890625 72.90625 
L 38.09375 72.90625 
Q 54.984375 72.90625 63.59375 65.75 
Q 72.21875 58.59375 72.21875 44.484375 
Q 72.21875 35.15625 68.9375 26.53125 
Q 65.671875 17.921875 59.90625 12.015625 
Q 54.109375 5.953125 45.171875 2.96875 
Q 36.234375 0 24.03125 0 
L 2.6875 0 
z
M 25.203125 64.796875 
L 14.203125 8.109375 
L 27.09375 8.109375 
Q 43.65625 8.109375 52.734375 17.625 
Q 61.8125 27.15625 61.8125 44.484375 
Q 61.8125 54.984375 55.953125 59.890625 
Q 50.09375 64.796875 37.59375 64.796875 
z
" id="DejaVuSans-Oblique-68"/>
      <path d="M 44.578125 46.390625 
Q 43.21875 47.125 41.453125 47.515625 
Q 39.703125 47.90625 37.703125 47.90625 
Q 30.515625 47.90625 25.140625 42.453125 
Q 19.78125 37.015625 18.015625 27.875 
L 12.5 0 
L 3.515625 0 
L 14.203125 54.6875 
L 23.1875 54.6875 
L 21.484375 46.1875 
Q 25.046875 50.921875 30 53.453125 
Q 34.96875 56 40.578125 56 
Q 42.046875 56 43.453125 55.828125 
Q 44.875 55.671875 46.296875 55.28125 
z
" id="DejaVuSans-Oblique-114"/>
     </defs>
     <g transform="translate(372.981522 52.688437)scale(0.09 -0.09)">
      <use transform="translate(0 0.765625)" xlink:href="#DejaVuSans-Oblique-75"/>
      <use transform="translate(86.230638 39.046875)scale(0.7)" xlink:href="#DejaVuSans-42"/>
      <use transform="translate(137.602708 0.765625)" xlink:href="#DejaVuSans-61"/>
      <use transform="translate(221.391771 0.765625)" xlink:href="#DejaVuSans-32"/>
      <use transform="translate(253.17888 0.765625)" xlink:href="#DejaVuSans-51"/>
      <use transform="translate(316.801927 0.765625)" xlink:href="#DejaVuSans-46"/>
      <use transform="translate(348.589036 0.765625)" xlink:href="#DejaVuSans-48"/>
      <use transform="translate(412.212083 0.765625)" xlink:href="#DejaVuSans-32"/>
      <use transform="translate(443.999193 0.765625)" xlink:href="#DejaVuSans-Oblique-68"/>
      <use transform="translate(541.655612 39.046875)scale(0.7)" xlink:href="#DejaVuSans-42"/>
      <use transform="translate(521.001146 -26.578125)scale(0.7)" xlink:href="#DejaVuSans-Oblique-114"/>
      <use transform="translate(612.510104 0.765625)" xlink:href="#DejaVuSans-61"/>
      <use transform="translate(715.781589 0.765625)" xlink:href="#DejaVuSans-48"/>
      <use transform="translate(779.404635 0.765625)" xlink:href="#DejaVuSans-46"/>
      <use transform="translate(811.191745 0.765625)" xlink:href="#DejaVuSans-48"/>
      <use transform="translate(874.814792 0.765625)" xlink:href="#DejaVuSans-49"/>
      <use transform="translate(938.437839 0.765625)" xlink:href="#DejaVuSans-53"/>
     </g>
    </g>
    <g id="LineCollection_3">
     <path d="M 356.781522 67.897031 
L 356.781522 58.897031 
" style="fill:none;stroke:#ba55d3;stroke-opacity:0.25;stroke-width:1.5;"/>
    </g>
    <g id="line2d_30"/>
    <g id="line2d_31">
     <g>
      <use style="fill:#ffffff;stroke:#ba55d3;" x="356.781522" xlink:href="#m50881875be" y="63.397031"/>
     </g>
    </g>
    <g id="text_28">
     <!-- Experiment -->
     <defs>
      <path d="M 9.8125 72.90625 
L 55.90625 72.90625 
L 55.90625 64.59375 
L 19.671875 64.59375 
L 19.671875 43.015625 
L 54.390625 43.015625 
L 54.390625 34.71875 
L 19.671875 34.71875 
L 19.671875 8.296875 
L 56.78125 8.296875 
L 56.78125 0 
L 9.8125 0 
z
" id="DejaVuSans-69"/>
      <path d="M 54.890625 54.6875 
L 35.109375 28.078125 
L 55.90625 0 
L 45.3125 0 
L 29.390625 21.484375 
L 13.484375 0 
L 2.875 0 
L 24.125 28.609375 
L 4.6875 54.6875 
L 15.28125 54.6875 
L 29.78125 35.203125 
L 44.28125 54.6875 
z
" id="DejaVuSans-120"/>
      <path d="M 54.890625 33.015625 
L 54.890625 0 
L 45.90625 0 
L 45.90625 32.71875 
Q 45.90625 40.484375 42.875 44.328125 
Q 39.84375 48.1875 33.796875 48.1875 
Q 26.515625 48.1875 22.3125 43.546875 
Q 18.109375 38.921875 18.109375 30.90625 
L 18.109375 0 
L 9.078125 0 
L 9.078125 54.6875 
L 18.109375 54.6875 
L 18.109375 46.1875 
Q 21.34375 51.125 25.703125 53.5625 
Q 30.078125 56 35.796875 56 
Q 45.21875 56 50.046875 50.171875 
Q 54.890625 44.34375 54.890625 33.015625 
z
" id="DejaVuSans-110"/>
      <path d="M 18.3125 70.21875 
L 18.3125 54.6875 
L 36.8125 54.6875 
L 36.8125 47.703125 
L 18.3125 47.703125 
L 18.3125 18.015625 
Q 18.3125 11.328125 20.140625 9.421875 
Q 21.96875 7.515625 27.59375 7.515625 
L 36.8125 7.515625 
L 36.8125 0 
L 27.59375 0 
Q 17.1875 0 13.234375 3.875 
Q 9.28125 7.765625 9.28125 18.015625 
L 9.28125 47.703125 
L 2.6875 47.703125 
L 2.6875 54.6875 
L 9.28125 54.6875 
L 9.28125 70.21875 
z
" id="DejaVuSans-116"/>
     </defs>
     <g transform="translate(372.981522 66.547031)scale(0.09 -0.09)">
      <use xlink:href="#DejaVuSans-69"/>
      <use x="63.183594" xlink:href="#DejaVuSans-120"/>
      <use x="122.363281" xlink:href="#DejaVuSans-112"/>
      <use x="185.839844" xlink:href="#DejaVuSans-101"/>
      <use x="247.363281" xlink:href="#DejaVuSans-114"/>
      <use x="288.476562" xlink:href="#DejaVuSans-105"/>
      <use x="316.259766" xlink:href="#DejaVuSans-109"/>
      <use x="413.671875" xlink:href="#DejaVuSans-101"/>
      <use x="475.195312" xlink:href="#DejaVuSans-110"/>
      <use x="538.574219" xlink:href="#DejaVuSans-116"/>
     </g>
    </g>
   </g>
  </g>
  <g id="text_29">
   <!-- $x$ ($\mathrm{\mu m}$) -->
   <defs>
    <path d="M 8.5 -20.796875 
L 8.5 54.6875 
L 17.484375 54.6875 
L 17.484375 20.703125 
Q 17.484375 13.625 20.84375 10 
Q 24.21875 6.390625 30.8125 6.390625 
Q 38.03125 6.390625 41.671875 10.484375 
Q 45.3125 14.59375 45.3125 22.796875 
L 45.3125 54.6875 
L 54.296875 54.6875 
L 54.296875 12.59375 
Q 54.296875 9.671875 55.140625 8.28125 
Q 56 6.890625 57.8125 6.890625 
Q 58.25 6.890625 59.03125 7.15625 
Q 59.8125 7.421875 61.1875 8.015625 
L 61.1875 0.78125 
Q 59.1875 -0.34375 57.390625 -0.875 
Q 55.609375 -1.421875 53.90625 -1.421875 
Q 50.53125 -1.421875 48.53125 0.484375 
Q 46.53125 2.390625 45.796875 6.296875 
Q 43.359375 2.4375 39.8125 0.5 
Q 36.28125 -1.421875 31.5 -1.421875 
Q 26.515625 -1.421875 23.015625 0.484375 
Q 19.53125 2.390625 17.484375 6.203125 
L 17.484375 -20.796875 
z
" id="DejaVuSans-956"/>
   </defs>
   <g transform="translate(267.13 230.798437)scale(0.1 -0.1)">
    <use transform="translate(0 0.125)" xlink:href="#DejaVuSans-Oblique-120"/>
    <use transform="translate(59.179688 0.125)" xlink:href="#DejaVuSans-32"/>
    <use transform="translate(90.966797 0.125)" xlink:href="#DejaVuSans-40"/>
    <use transform="translate(129.980469 0.125)" xlink:href="#DejaVuSans-956"/>
    <use transform="translate(193.603516 0.125)" xlink:href="#DejaVuSans-109"/>
    <use transform="translate(291.015625 0.125)" xlink:href="#DejaVuSans-41"/>
   </g>
  </g>
  <g id="text_30">
   <!-- x/$\lambda$ -->
   <defs>
    <path d="M 25.390625 72.90625 
L 33.6875 72.90625 
L 8.296875 -9.28125 
L 0 -9.28125 
z
" id="DejaVuSans-47"/>
   </defs>
   <g transform="translate(276.03 14.798437)scale(0.1 -0.1)">
    <use transform="translate(0 0.015625)" xlink:href="#DejaVuSans-120"/>
    <use transform="translate(59.179688 0.015625)" xlink:href="#DejaVuSans-47"/>
    <use transform="translate(92.871094 0.015625)" xlink:href="#DejaVuSans-Oblique-955"/>
   </g>
  </g>
  <g id="text_31">
   <!-- Normalized intensity $I(x)$ -->
   <defs>
    <path d="M 32.171875 -5.078125 
Q 28.375 -14.84375 24.75 -17.8125 
Q 21.140625 -20.796875 15.09375 -20.796875 
L 7.90625 -20.796875 
L 7.90625 -13.28125 
L 13.1875 -13.28125 
Q 16.890625 -13.28125 18.9375 -11.515625 
Q 21 -9.765625 23.484375 -3.21875 
L 25.09375 0.875 
L 2.984375 54.6875 
L 12.5 54.6875 
L 29.59375 11.921875 
L 46.6875 54.6875 
L 56.203125 54.6875 
z
" id="DejaVuSans-121"/>
    <path d="M 16.890625 72.90625 
L 26.8125 72.90625 
L 12.59375 0 
L 2.6875 0 
z
" id="DejaVuSans-Oblique-73"/>
   </defs>
   <g transform="translate(14.8 180.128437)rotate(-90)scale(0.1 -0.1)">
    <use transform="translate(0 0.015625)" xlink:href="#DejaVuSans-78"/>
    <use transform="translate(74.804688 0.015625)" xlink:href="#DejaVuSans-111"/>
    <use transform="translate(135.986328 0.015625)" xlink:href="#DejaVuSans-114"/>
    <use transform="translate(177.099609 0.015625)" xlink:href="#DejaVuSans-109"/>
    <use transform="translate(274.511719 0.015625)" xlink:href="#DejaVuSans-97"/>
    <use transform="translate(335.791016 0.015625)" xlink:href="#DejaVuSans-108"/>
    <use transform="translate(363.574219 0.015625)" xlink:href="#DejaVuSans-105"/>
    <use transform="translate(391.357422 0.015625)" xlink:href="#DejaVuSans-122"/>
    <use transform="translate(443.847656 0.015625)" xlink:href="#DejaVuSans-101"/>
    <use transform="translate(505.371094 0.015625)" xlink:href="#DejaVuSans-100"/>
    <use transform="translate(568.847656 0.015625)" xlink:href="#DejaVuSans-32"/>
    <use transform="translate(600.634766 0.015625)" xlink:href="#DejaVuSans-105"/>
    <use transform="translate(628.417969 0.015625)" xlink:href="#DejaVuSans-110"/>
    <use transform="translate(691.796875 0.015625)" xlink:href="#DejaVuSans-116"/>
    <use transform="translate(731.005859 0.015625)" xlink:href="#DejaVuSans-101"/>
    <use transform="translate(792.529297 0.015625)" xlink:href="#DejaVuSans-110"/>
    <use transform="translate(855.908203 0.015625)" xlink:href="#DejaVuSans-115"/>
    <use transform="translate(908.007812 0.015625)" xlink:href="#DejaVuSans-105"/>
    <use transform="translate(935.791016 0.015625)" xlink:href="#DejaVuSans-116"/>
    <use transform="translate(975 0.015625)" xlink:href="#DejaVuSans-121"/>
    <use transform="translate(1034.179688 0.015625)" xlink:href="#DejaVuSans-32"/>
    <use transform="translate(1065.966797 0.015625)" xlink:href="#DejaVuSans-Oblique-73"/>
    <use transform="translate(1095.458984 0.015625)" xlink:href="#DejaVuSans-40"/>
    <use transform="translate(1134.472656 0.015625)" xlink:href="#DejaVuSans-Oblique-120"/>
    <use transform="translate(1193.652344 0.015625)" xlink:href="#DejaVuSans-41"/>
   </g>
  </g>
 </g>
 <defs>
  <clipPath id="p209315a5d9">
   <rect height="166.32" width="194.086957" x="56.16" y="36.398437"/>
  </clipPath>
  <clipPath id="p06c5697cef">
   <rect height="166.32" width="194.086957" x="308.473043" y="36.398437"/>
  </clipPath>
 </defs>
</svg>
