<?xml version="1.0" encoding="utf-8" standalone="no"?>
<!DOCTYPE svg PUBLIC "-//W3C//DTD SVG 1.1//EN"
  "http://www.w3.org/Graphics/SVG/1.1/DTD/svg11.dtd">
<!-- Created with matplotlib (https://matplotlib.org/) -->
<svg height="240.098437pt" version="1.1" viewBox="0 0 509.76 240.098437" width="509.76pt" xmlns="http://www.w3.org/2000/svg" xmlns:xlink="http://www.w3.org/1999/xlink">
 <defs>
  <style type="text/css">
*{stroke-linecap:butt;stroke-linejoin:round;}
  </style>
 </defs>
 <g id="figure_1">
  <g id="patch_1">
   <path d="M 0 240.098437 
L 509.76 240.098437 
L 509.76 0 
L 0 0 
z
" style="fill:#ffffff;"/>
  </g>
  <g id="axes_1">
   <g id="patch_2">
    <path d="M 56.16 202.718437 
L 250.246957 202.718437 
L 250.246957 36.398437 
L 56.16 36.398437 
z
" style="fill:#ffffff;"/>
   </g>
   <g id="axes_2">
    <g id="patch_3">
     <path d="M 56.16 36.398437 
L 250.246957 36.398437 
L 250.246957 36.398437 
L 56.16 36.398437 
z
" style="fill:#ffffff;"/>
    </g>
    <g id="matplotlib.axis_1">
     <g id="xtick_1">
      <g id="line2d_1">
       <defs>
        <path d="M 0 0 
L 0 -3.5 
" id="md79104b0a6" style="stroke:#000000;stroke-width:0.8;"/>
       </defs>
       <g>
        <use style="stroke:#000000;stroke-width:0.8;" x="104.681739" xlink:href="#md79104b0a6" y="36.398437"/>
       </g>
      </g>
      <g id="text_1">
       <!-- −0.25 -->
       <defs>
        <path d="M 10.59375 35.5 
L 73.1875 35.5 
L 73.1875 27.203125 
L 10.59375 27.203125 
z
" id="DejaVuSans-8722"/>
        <path d="M 31.78125 66.40625 
Q 24.171875 66.40625 20.328125 58.90625 
Q 16.5 51.421875 16.5 36.375 
Q 16.5 21.390625 20.328125 13.890625 
Q 24.171875 6.390625 31.78125 6.390625 
Q 39.453125 6.390625 43.28125 13.890625 
Q 47.125 21.390625 47.125 36.375 
Q 47.125 51.421875 43.28125 58.90625 
Q 39.453125 66.40625 31.78125 66.40625 
z
M 31.78125 74.21875 
Q 44.046875 74.21875 50.515625 64.515625 
Q 56.984375 54.828125 56.984375 36.375 
Q 56.984375 17.96875 50.515625 8.265625 
Q 44.046875 -1.421875 31.78125 -1.421875 
Q 19.53125 -1.421875 13.0625 8.265625 
Q 6.59375 17.96875 6.59375 36.375 
Q 6.59375 54.828125 13.0625 64.515625 
Q 19.53125 74.21875 31.78125 74.21875 
z
" id="DejaVuSans-48"/>
        <path d="M 10.6875 12.40625 
L 21 12.40625 
L 21 0 
L 10.6875 0 
z
" id="DejaVuSans-46"/>
        <path d="M 19.1875 8.296875 
L 53.609375 8.296875 
L 53.609375 0 
L 7.328125 0 
L 7.328125 8.296875 
Q 12.9375 14.109375 22.625 23.890625 
Q 32.328125 33.6875 34.8125 36.53125 
Q 39.546875 41.84375 41.421875 45.53125 
Q 43.3125 49.21875 43.3125 52.78125 
Q 43.3125 58.59375 39.234375 62.25 
Q 35.15625 65.921875 28.609375 65.921875 
Q 23.96875 65.921875 18.8125 64.3125 
Q 13.671875 62.703125 7.8125 59.421875 
L 7.8125 69.390625 
Q 13.765625 71.78125 18.9375 73 
Q 24.125 74.21875 28.421875 74.21875 
Q 39.75 74.21875 46.484375 68.546875 
Q 53.21875 62.890625 53.21875 53.421875 
Q 53.21875 48.921875 51.53125 44.890625 
Q 49.859375 40.875 45.40625 35.40625 
Q 44.1875 33.984375 37.640625 27.21875 
Q 31.109375 20.453125 19.1875 8.296875 
z
" id="DejaVuSans-50"/>
        <path d="M 10.796875 72.90625 
L 49.515625 72.90625 
L 49.515625 64.59375 
L 19.828125 64.59375 
L 19.828125 46.734375 
Q 21.96875 47.46875 24.109375 47.828125 
Q 26.265625 48.1875 28.421875 48.1875 
Q 40.625 48.1875 47.75 41.5 
Q 54.890625 34.8125 54.890625 23.390625 
Q 54.890625 11.625 47.5625 5.09375 
Q 40.234375 -1.421875 26.90625 -1.421875 
Q 22.3125 -1.421875 17.546875 -0.640625 
Q 12.796875 0.140625 7.71875 1.703125 
L 7.71875 11.625 
Q 12.109375 9.234375 16.796875 8.0625 
Q 21.484375 6.890625 26.703125 6.890625 
Q 35.15625 6.890625 40.078125 11.328125 
Q 45.015625 15.765625 45.015625 23.390625 
Q 45.015625 31 40.078125 35.4375 
Q 35.15625 39.890625 26.703125 39.890625 
Q 22.75 39.890625 18.8125 39.015625 
Q 14.890625 38.140625 10.796875 36.28125 
z
" id="DejaVuSans-53"/>
       </defs>
       <g transform="translate(89.359083 27.31875)scale(0.1 -0.1)">
        <use xlink:href="#DejaVuSans-8722"/>
        <use x="83.789062" xlink:href="#DejaVuSans-48"/>
        <use x="147.412109" xlink:href="#DejaVuSans-46"/>
        <use x="179.199219" xlink:href="#DejaVuSans-50"/>
        <use x="242.822266" xlink:href="#DejaVuSans-53"/>
       </g>
      </g>
     </g>
     <g id="xtick_2">
      <g id="line2d_2">
       <g>
        <use style="stroke:#000000;stroke-width:0.8;" x="153.203478" xlink:href="#md79104b0a6" y="36.398437"/>
       </g>
      </g>
      <g id="text_2">
       <!-- 0.00 -->
       <g transform="translate(142.070666 27.31875)scale(0.1 -0.1)">
        <use xlink:href="#DejaVuSans-48"/>
        <use x="63.623047" xlink:href="#DejaVuSans-46"/>
        <use x="95.410156" xlink:href="#DejaVuSans-48"/>
        <use x="159.033203" xlink:href="#DejaVuSans-48"/>
       </g>
      </g>
     </g>
     <g id="xtick_3">
      <g id="line2d_3">
       <g>
        <use style="stroke:#000000;stroke-width:0.8;" x="201.725217" xlink:href="#md79104b0a6" y="36.398437"/>
       </g>
      </g>
      <g id="text_3">
       <!-- 0.25 -->
       <g transform="translate(190.592405 27.31875)scale(0.1 -0.1)">
        <use xlink:href="#DejaVuSans-48"/>
        <use x="63.623047" xlink:href="#DejaVuSans-46"/>
        <use x="95.410156" xlink:href="#DejaVuSans-50"/>
        <use x="159.033203" xlink:href="#DejaVuSans-53"/>
       </g>
      </g>
     </g>
    </g>
    <g id="matplotlib.axis_2"/>
    <g id="patch_4">
     <path d="M 56.16 36.398437 
L 250.246957 36.398437 
" style="fill:none;stroke:#000000;stroke-linecap:square;stroke-linejoin:miter;stroke-width:0.8;"/>
    </g>
   </g>
   <g id="matplotlib.axis_3">
    <g id="xtick_4">
     <g id="line2d_4">
      <defs>
       <path d="M 0 0 
L 0 6 
" id="m2649ee1069" style="stroke:#000000;stroke-width:0.8;"/>
      </defs>
      <g>
       <use style="stroke:#000000;stroke-width:0.8;" x="104.681739" xlink:href="#m2649ee1069" y="202.718437"/>
      </g>
     </g>
     <g id="text_4">
      <!-- −5.25 -->
      <g transform="translate(89.359083 219.816875)scale(0.1 -0.1)">
       <use xlink:href="#DejaVuSans-8722"/>
       <use x="83.789062" xlink:href="#DejaVuSans-53"/>
       <use x="147.412109" xlink:href="#DejaVuSans-46"/>
       <use x="179.199219" xlink:href="#DejaVuSans-50"/>
       <use x="242.822266" xlink:href="#DejaVuSans-53"/>
      </g>
     </g>
    </g>
    <g id="xtick_5">
     <g id="line2d_5">
      <g>
       <use style="stroke:#000000;stroke-width:0.8;" x="153.203478" xlink:href="#m2649ee1069" y="202.718437"/>
      </g>
     </g>
     <g id="text_5">
      <!-- 0.00 -->
      <g transform="translate(142.070666 219.816875)scale(0.1 -0.1)">
       <use xlink:href="#DejaVuSans-48"/>
       <use x="63.623047" xlink:href="#DejaVuSans-46"/>
       <use x="95.410156" xlink:href="#DejaVuSans-48"/>
       <use x="159.033203" xlink:href="#DejaVuSans-48"/>
      </g>
     </g>
    </g>
    <g id="xtick_6">
     <g id="line2d_6">
      <g>
       <use style="stroke:#000000;stroke-width:0.8;" x="201.725217" xlink:href="#m2649ee1069" y="202.718437"/>
      </g>
     </g>
     <g id="text_6">
      <!-- 5.25 -->
      <g transform="translate(190.592405 219.816875)scale(0.1 -0.1)">
       <use xlink:href="#DejaVuSans-53"/>
       <use x="63.623047" xlink:href="#DejaVuSans-46"/>
       <use x="95.410156" xlink:href="#DejaVuSans-50"/>
       <use x="159.033203" xlink:href="#DejaVuSans-53"/>
      </g>
     </g>
    </g>
   </g>
   <g id="matplotlib.axis_4">
    <g id="ytick_1">
     <g id="line2d_7">
      <defs>
       <path d="M 0 0 
L -6 0 
" id="m60e99eaace" style="stroke:#000000;stroke-width:0.8;"/>
      </defs>
      <g>
       <use style="stroke:#000000;stroke-width:0.8;" x="56.16" xlink:href="#m60e99eaace" y="202.718437"/>
      </g>
     </g>
     <g id="text_7">
      <!-- 0.0 -->
      <g transform="translate(30.756875 206.517656)scale(0.1 -0.1)">
       <use xlink:href="#DejaVuSans-48"/>
       <use x="63.623047" xlink:href="#DejaVuSans-46"/>
       <use x="95.410156" xlink:href="#DejaVuSans-48"/>
      </g>
     </g>
    </g>
    <g id="ytick_2">
     <g id="line2d_8">
      <g>
       <use style="stroke:#000000;stroke-width:0.8;" x="56.16" xlink:href="#m60e99eaace" y="169.295365"/>
      </g>
     </g>
     <g id="text_8">
      <!-- 4.4 -->
      <defs>
       <path d="M 37.796875 64.3125 
L 12.890625 25.390625 
L 37.796875 25.390625 
z
M 35.203125 72.90625 
L 47.609375 72.90625 
L 47.609375 25.390625 
L 58.015625 25.390625 
L 58.015625 17.1875 
L 47.609375 17.1875 
L 47.609375 0 
L 37.796875 0 
L 37.796875 17.1875 
L 4.890625 17.1875 
L 4.890625 26.703125 
z
" id="DejaVuSans-52"/>
      </defs>
      <g transform="translate(30.756875 173.094583)scale(0.1 -0.1)">
       <use xlink:href="#DejaVuSans-52"/>
       <use x="63.623047" xlink:href="#DejaVuSans-46"/>
       <use x="95.410156" xlink:href="#DejaVuSans-52"/>
      </g>
     </g>
    </g>
    <g id="ytick_3">
     <g id="line2d_9">
      <g>
       <use style="stroke:#000000;stroke-width:0.8;" x="56.16" xlink:href="#m60e99eaace" y="135.872292"/>
      </g>
     </g>
     <g id="text_9">
      <!-- 8.8 -->
      <defs>
       <path d="M 31.78125 34.625 
Q 24.75 34.625 20.71875 30.859375 
Q 16.703125 27.09375 16.703125 20.515625 
Q 16.703125 13.921875 20.71875 10.15625 
Q 24.75 6.390625 31.78125 6.390625 
Q 38.8125 6.390625 42.859375 10.171875 
Q 46.921875 13.96875 46.921875 20.515625 
Q 46.921875 27.09375 42.890625 30.859375 
Q 38.875 34.625 31.78125 34.625 
z
M 21.921875 38.8125 
Q 15.578125 40.375 12.03125 44.71875 
Q 8.5 49.078125 8.5 55.328125 
Q 8.5 64.0625 14.71875 69.140625 
Q 20.953125 74.21875 31.78125 74.21875 
Q 42.671875 74.21875 48.875 69.140625 
Q 55.078125 64.0625 55.078125 55.328125 
Q 55.078125 49.078125 51.53125 44.71875 
Q 48 40.375 41.703125 38.8125 
Q 48.828125 37.15625 52.796875 32.3125 
Q 56.78125 27.484375 56.78125 20.515625 
Q 56.78125 9.90625 50.3125 4.234375 
Q 43.84375 -1.421875 31.78125 -1.421875 
Q 19.734375 -1.421875 13.25 4.234375 
Q 6.78125 9.90625 6.78125 20.515625 
Q 6.78125 27.484375 10.78125 32.3125 
Q 14.796875 37.15625 21.921875 38.8125 
z
M 18.3125 54.390625 
Q 18.3125 48.734375 21.84375 45.5625 
Q 25.390625 42.390625 31.78125 42.390625 
Q 38.140625 42.390625 41.71875 45.5625 
Q 45.3125 48.734375 45.3125 54.390625 
Q 45.3125 60.0625 41.71875 63.234375 
Q 38.140625 66.40625 31.78125 66.40625 
Q 25.390625 66.40625 21.84375 63.234375 
Q 18.3125 60.0625 18.3125 54.390625 
z
" id="DejaVuSans-56"/>
      </defs>
      <g transform="translate(30.756875 139.671511)scale(0.1 -0.1)">
       <use xlink:href="#DejaVuSans-56"/>
       <use x="63.623047" xlink:href="#DejaVuSans-46"/>
       <use x="95.410156" xlink:href="#DejaVuSans-56"/>
      </g>
     </g>
    </g>
    <g id="ytick_4">
     <g id="line2d_10">
      <g>
       <use style="stroke:#000000;stroke-width:0.8;" x="56.16" xlink:href="#m60e99eaace" y="102.449219"/>
      </g>
     </g>
     <g id="text_10">
      <!-- 13.2 -->
      <defs>
       <path d="M 12.40625 8.296875 
L 28.515625 8.296875 
L 28.515625 63.921875 
L 10.984375 60.40625 
L 10.984375 69.390625 
L 28.421875 72.90625 
L 38.28125 72.90625 
L 38.28125 8.296875 
L 54.390625 8.296875 
L 54.390625 0 
L 12.40625 0 
z
" id="DejaVuSans-49"/>
       <path d="M 40.578125 39.3125 
Q 47.65625 37.796875 51.625 33 
Q 55.609375 28.21875 55.609375 21.1875 
Q 55.609375 10.40625 48.1875 4.484375 
Q 40.765625 -1.421875 27.09375 -1.421875 
Q 22.515625 -1.421875 17.65625 -0.515625 
Q 12.796875 0.390625 7.625 2.203125 
L 7.625 11.71875 
Q 11.71875 9.328125 16.59375 8.109375 
Q 21.484375 6.890625 26.8125 6.890625 
Q 36.078125 6.890625 40.9375 10.546875 
Q 45.796875 14.203125 45.796875 21.1875 
Q 45.796875 27.640625 41.28125 31.265625 
Q 36.765625 34.90625 28.71875 34.90625 
L 20.21875 34.90625 
L 20.21875 43.015625 
L 29.109375 43.015625 
Q 36.375 43.015625 40.234375 45.921875 
Q 44.09375 48.828125 44.09375 54.296875 
Q 44.09375 59.90625 40.109375 62.90625 
Q 36.140625 65.921875 28.71875 65.921875 
Q 24.65625 65.921875 20.015625 65.03125 
Q 15.375 64.15625 9.8125 62.3125 
L 9.8125 71.09375 
Q 15.4375 72.65625 20.34375 73.4375 
Q 25.25 74.21875 29.59375 74.21875 
Q 40.828125 74.21875 47.359375 69.109375 
Q 53.90625 64.015625 53.90625 55.328125 
Q 53.90625 49.265625 50.4375 45.09375 
Q 46.96875 40.921875 40.578125 39.3125 
z
" id="DejaVuSans-51"/>
      </defs>
      <g transform="translate(24.394375 106.248438)scale(0.1 -0.1)">
       <use xlink:href="#DejaVuSans-49"/>
       <use x="63.623047" xlink:href="#DejaVuSans-51"/>
       <use x="127.246094" xlink:href="#DejaVuSans-46"/>
       <use x="159.033203" xlink:href="#DejaVuSans-50"/>
      </g>
     </g>
    </g>
    <g id="ytick_5">
     <g id="line2d_11">
      <g>
       <use style="stroke:#000000;stroke-width:0.8;" x="56.16" xlink:href="#m60e99eaace" y="69.026146"/>
      </g>
     </g>
     <g id="text_11">
      <!-- 17.6 -->
      <defs>
       <path d="M 8.203125 72.90625 
L 55.078125 72.90625 
L 55.078125 68.703125 
L 28.609375 0 
L 18.3125 0 
L 43.21875 64.59375 
L 8.203125 64.59375 
z
" id="DejaVuSans-55"/>
       <path d="M 33.015625 40.375 
Q 26.375 40.375 22.484375 35.828125 
Q 18.609375 31.296875 18.609375 23.390625 
Q 18.609375 15.53125 22.484375 10.953125 
Q 26.375 6.390625 33.015625 6.390625 
Q 39.65625 6.390625 43.53125 10.953125 
Q 47.40625 15.53125 47.40625 23.390625 
Q 47.40625 31.296875 43.53125 35.828125 
Q 39.65625 40.375 33.015625 40.375 
z
M 52.59375 71.296875 
L 52.59375 62.3125 
Q 48.875 64.0625 45.09375 64.984375 
Q 41.3125 65.921875 37.59375 65.921875 
Q 27.828125 65.921875 22.671875 59.328125 
Q 17.53125 52.734375 16.796875 39.40625 
Q 19.671875 43.65625 24.015625 45.921875 
Q 28.375 48.1875 33.59375 48.1875 
Q 44.578125 48.1875 50.953125 41.515625 
Q 57.328125 34.859375 57.328125 23.390625 
Q 57.328125 12.15625 50.6875 5.359375 
Q 44.046875 -1.421875 33.015625 -1.421875 
Q 20.359375 -1.421875 13.671875 8.265625 
Q 6.984375 17.96875 6.984375 36.375 
Q 6.984375 53.65625 15.1875 63.9375 
Q 23.390625 74.21875 37.203125 74.21875 
Q 40.921875 74.21875 44.703125 73.484375 
Q 48.484375 72.75 52.59375 71.296875 
z
" id="DejaVuSans-54"/>
      </defs>
      <g transform="translate(24.394375 72.825365)scale(0.1 -0.1)">
       <use xlink:href="#DejaVuSans-49"/>
       <use x="63.623047" xlink:href="#DejaVuSans-55"/>
       <use x="127.246094" xlink:href="#DejaVuSans-46"/>
       <use x="159.033203" xlink:href="#DejaVuSans-54"/>
      </g>
     </g>
    </g>
   </g>
   <g id="LineCollection_1">
    <path clip-path="url(#p5a6869f428)" d="M 52.64795 203.577401 
L 52.64795 200.216332 
" style="fill:none;stroke:#ba55d3;stroke-opacity:0.25;stroke-width:1.5;"/>
    <path clip-path="url(#p5a6869f428)" d="M 55.649608 204.018064 
L 55.649608 200.552148 
" style="fill:none;stroke:#ba55d3;stroke-opacity:0.25;stroke-width:1.5;"/>
    <path clip-path="url(#p5a6869f428)" d="M 58.651265 202.641768 
L 58.651265 200.405848 
" style="fill:none;stroke:#ba55d3;stroke-opacity:0.25;stroke-width:1.5;"/>
    <path clip-path="url(#p5a6869f428)" d="M 61.652923 202.693714 
L 61.652923 200.505241 
" style="fill:none;stroke:#ba55d3;stroke-opacity:0.25;stroke-width:1.5;"/>
    <path clip-path="url(#p5a6869f428)" d="M 64.654581 202.815568 
L 64.654581 199.837048 
" style="fill:none;stroke:#ba55d3;stroke-opacity:0.25;stroke-width:1.5;"/>
    <path clip-path="url(#p5a6869f428)" d="M 67.656238 202.860939 
L 67.656238 200.043414 
" style="fill:none;stroke:#ba55d3;stroke-opacity:0.25;stroke-width:1.5;"/>
    <path clip-path="url(#p5a6869f428)" d="M 70.657896 202.745361 
L 70.657896 200.696379 
" style="fill:none;stroke:#ba55d3;stroke-opacity:0.25;stroke-width:1.5;"/>
    <path clip-path="url(#p5a6869f428)" d="M 73.659553 202.586825 
L 73.659553 200.069052 
" style="fill:none;stroke:#ba55d3;stroke-opacity:0.25;stroke-width:1.5;"/>
    <path clip-path="url(#p5a6869f428)" d="M 76.661211 202.911189 
L 76.661211 200.037245 
" style="fill:none;stroke:#ba55d3;stroke-opacity:0.25;stroke-width:1.5;"/>
    <path clip-path="url(#p5a6869f428)" d="M 79.662868 202.846432 
L 79.662868 200.507858 
" style="fill:none;stroke:#ba55d3;stroke-opacity:0.25;stroke-width:1.5;"/>
    <path clip-path="url(#p5a6869f428)" d="M 82.664526 202.841502 
L 82.664526 200.146748 
" style="fill:none;stroke:#ba55d3;stroke-opacity:0.25;stroke-width:1.5;"/>
    <path clip-path="url(#p5a6869f428)" d="M 85.666183 202.737232 
L 85.666183 200.266478 
" style="fill:none;stroke:#ba55d3;stroke-opacity:0.25;stroke-width:1.5;"/>
    <path clip-path="url(#p5a6869f428)" d="M 88.667841 203.606263 
L 88.667841 200.414444 
" style="fill:none;stroke:#ba55d3;stroke-opacity:0.25;stroke-width:1.5;"/>
    <path clip-path="url(#p5a6869f428)" d="M 91.669498 203.125854 
L 91.669498 200.91167 
" style="fill:none;stroke:#ba55d3;stroke-opacity:0.25;stroke-width:1.5;"/>
    <path clip-path="url(#p5a6869f428)" d="M 94.671156 202.427336 
L 94.671156 200.137632 
" style="fill:none;stroke:#ba55d3;stroke-opacity:0.25;stroke-width:1.5;"/>
    <path clip-path="url(#p5a6869f428)" d="M 97.672814 202.516261 
L 97.672814 199.997159 
" style="fill:none;stroke:#ba55d3;stroke-opacity:0.25;stroke-width:1.5;"/>
    <path clip-path="url(#p5a6869f428)" d="M 100.674471 202.059926 
L 100.674471 199.077305 
" style="fill:none;stroke:#ba55d3;stroke-opacity:0.25;stroke-width:1.5;"/>
    <path clip-path="url(#p5a6869f428)" d="M 103.676129 202.032982 
L 103.676129 199.305371 
" style="fill:none;stroke:#ba55d3;stroke-opacity:0.25;stroke-width:1.5;"/>
    <path clip-path="url(#p5a6869f428)" d="M 106.677786 202.348198 
L 106.677786 199.275409 
" style="fill:none;stroke:#ba55d3;stroke-opacity:0.25;stroke-width:1.5;"/>
    <path clip-path="url(#p5a6869f428)" d="M 109.679444 201.264881 
L 109.679444 198.030002 
" style="fill:none;stroke:#ba55d3;stroke-opacity:0.25;stroke-width:1.5;"/>
    <path clip-path="url(#p5a6869f428)" d="M 112.681101 201.594026 
L 112.681101 199.226433 
" style="fill:none;stroke:#ba55d3;stroke-opacity:0.25;stroke-width:1.5;"/>
    <path clip-path="url(#p5a6869f428)" d="M 115.682759 201.453563 
L 115.682759 197.823907 
" style="fill:none;stroke:#ba55d3;stroke-opacity:0.25;stroke-width:1.5;"/>
    <path clip-path="url(#p5a6869f428)" d="M 118.684416 201.776508 
L 118.684416 193.791936 
" style="fill:none;stroke:#ba55d3;stroke-opacity:0.25;stroke-width:1.5;"/>
    <path clip-path="url(#p5a6869f428)" d="M 121.686074 201.9264 
L 121.686074 185.153518 
" style="fill:none;stroke:#ba55d3;stroke-opacity:0.25;stroke-width:1.5;"/>
    <path clip-path="url(#p5a6869f428)" d="M 124.687732 200.814626 
L 124.687732 168.641084 
" style="fill:none;stroke:#ba55d3;stroke-opacity:0.25;stroke-width:1.5;"/>
    <path clip-path="url(#p5a6869f428)" d="M 127.689389 196.792135 
L 127.689389 148.729955 
" style="fill:none;stroke:#ba55d3;stroke-opacity:0.25;stroke-width:1.5;"/>
    <path clip-path="url(#p5a6869f428)" d="M 130.691047 185.181072 
L 130.691047 128.688843 
" style="fill:none;stroke:#ba55d3;stroke-opacity:0.25;stroke-width:1.5;"/>
    <path clip-path="url(#p5a6869f428)" d="M 133.692704 172.578658 
L 133.692704 106.418826 
" style="fill:none;stroke:#ba55d3;stroke-opacity:0.25;stroke-width:1.5;"/>
    <path clip-path="url(#p5a6869f428)" d="M 136.694362 156.286437 
L 136.694362 80.271843 
" style="fill:none;stroke:#ba55d3;stroke-opacity:0.25;stroke-width:1.5;"/>
    <path clip-path="url(#p5a6869f428)" d="M 139.696019 137.114267 
L 139.696019 55.270397 
" style="fill:none;stroke:#ba55d3;stroke-opacity:0.25;stroke-width:1.5;"/>
    <path clip-path="url(#p5a6869f428)" d="M 142.697677 115.892969 
L 142.697677 30.314601 
" style="fill:none;stroke:#ba55d3;stroke-opacity:0.25;stroke-width:1.5;"/>
    <path clip-path="url(#p5a6869f428)" d="M 145.699334 97.812012 
L 145.699334 15.160565 
" style="fill:none;stroke:#ba55d3;stroke-opacity:0.25;stroke-width:1.5;"/>
    <path clip-path="url(#p5a6869f428)" d="M 148.700992 85.859786 
L 148.700992 2.37724 
" style="fill:none;stroke:#ba55d3;stroke-opacity:0.25;stroke-width:1.5;"/>
    <path clip-path="url(#p5a6869f428)" d="M 151.702649 82.08169 
L 151.702649 -1 
" style="fill:none;stroke:#ba55d3;stroke-opacity:0.25;stroke-width:1.5;"/>
    <path clip-path="url(#p5a6869f428)" d="M 154.704307 81.552427 
L 154.704307 -1 
" style="fill:none;stroke:#ba55d3;stroke-opacity:0.25;stroke-width:1.5;"/>
    <path clip-path="url(#p5a6869f428)" d="M 157.705965 86.255946 
L 157.705965 -0.976512 
" style="fill:none;stroke:#ba55d3;stroke-opacity:0.25;stroke-width:1.5;"/>
    <path clip-path="url(#p5a6869f428)" d="M 160.707622 94.638611 
L 160.707622 7.359267 
" style="fill:none;stroke:#ba55d3;stroke-opacity:0.25;stroke-width:1.5;"/>
    <path clip-path="url(#p5a6869f428)" d="M 163.70928 107.046882 
L 163.70928 17.637712 
" style="fill:none;stroke:#ba55d3;stroke-opacity:0.25;stroke-width:1.5;"/>
    <path clip-path="url(#p5a6869f428)" d="M 166.710937 118.698186 
L 166.710937 33.439934 
" style="fill:none;stroke:#ba55d3;stroke-opacity:0.25;stroke-width:1.5;"/>
    <path clip-path="url(#p5a6869f428)" d="M 169.712595 134.689001 
L 169.712595 56.177099 
" style="fill:none;stroke:#ba55d3;stroke-opacity:0.25;stroke-width:1.5;"/>
    <path clip-path="url(#p5a6869f428)" d="M 172.714252 151.285516 
L 172.714252 80.327319 
" style="fill:none;stroke:#ba55d3;stroke-opacity:0.25;stroke-width:1.5;"/>
    <path clip-path="url(#p5a6869f428)" d="M 175.71591 164.91083 
L 175.71591 103.506242 
" style="fill:none;stroke:#ba55d3;stroke-opacity:0.25;stroke-width:1.5;"/>
    <path clip-path="url(#p5a6869f428)" d="M 178.717567 177.364302 
L 178.717567 131.433626 
" style="fill:none;stroke:#ba55d3;stroke-opacity:0.25;stroke-width:1.5;"/>
    <path clip-path="url(#p5a6869f428)" d="M 181.719225 188.283135 
L 181.719225 158.155975 
" style="fill:none;stroke:#ba55d3;stroke-opacity:0.25;stroke-width:1.5;"/>
    <path clip-path="url(#p5a6869f428)" d="M 184.720883 195.613493 
L 184.720883 178.382847 
" style="fill:none;stroke:#ba55d3;stroke-opacity:0.25;stroke-width:1.5;"/>
    <path clip-path="url(#p5a6869f428)" d="M 187.72254 199.404443 
L 187.72254 187.568919 
" style="fill:none;stroke:#ba55d3;stroke-opacity:0.25;stroke-width:1.5;"/>
    <path clip-path="url(#p5a6869f428)" d="M 190.724198 201.153529 
L 190.724198 191.175588 
" style="fill:none;stroke:#ba55d3;stroke-opacity:0.25;stroke-width:1.5;"/>
    <path clip-path="url(#p5a6869f428)" d="M 193.725855 202.160485 
L 193.725855 194.425458 
" style="fill:none;stroke:#ba55d3;stroke-opacity:0.25;stroke-width:1.5;"/>
    <path clip-path="url(#p5a6869f428)" d="M 196.727513 202.612606 
L 196.727513 197.796633 
" style="fill:none;stroke:#ba55d3;stroke-opacity:0.25;stroke-width:1.5;"/>
    <path clip-path="url(#p5a6869f428)" d="M 199.72917 202.946588 
L 199.72917 199.650284 
" style="fill:none;stroke:#ba55d3;stroke-opacity:0.25;stroke-width:1.5;"/>
    <path clip-path="url(#p5a6869f428)" d="M 202.730828 203.209888 
L 202.730828 200.817643 
" style="fill:none;stroke:#ba55d3;stroke-opacity:0.25;stroke-width:1.5;"/>
    <path clip-path="url(#p5a6869f428)" d="M 205.732485 203.534869 
L 205.732485 201.391556 
" style="fill:none;stroke:#ba55d3;stroke-opacity:0.25;stroke-width:1.5;"/>
    <path clip-path="url(#p5a6869f428)" d="M 208.734143 203.415575 
L 208.734143 201.468581 
" style="fill:none;stroke:#ba55d3;stroke-opacity:0.25;stroke-width:1.5;"/>
    <path clip-path="url(#p5a6869f428)" d="M 211.735801 203.186771 
L 211.735801 200.510246 
" style="fill:none;stroke:#ba55d3;stroke-opacity:0.25;stroke-width:1.5;"/>
    <path clip-path="url(#p5a6869f428)" d="M 214.737458 202.761939 
L 214.737458 200.334316 
" style="fill:none;stroke:#ba55d3;stroke-opacity:0.25;stroke-width:1.5;"/>
    <path clip-path="url(#p5a6869f428)" d="M 217.739116 202.669688 
L 217.739116 200.643653 
" style="fill:none;stroke:#ba55d3;stroke-opacity:0.25;stroke-width:1.5;"/>
    <path clip-path="url(#p5a6869f428)" d="M 220.740773 202.579931 
L 220.740773 200.682692 
" style="fill:none;stroke:#ba55d3;stroke-opacity:0.25;stroke-width:1.5;"/>
    <path clip-path="url(#p5a6869f428)" d="M 223.742431 203.49974 
L 223.742431 200.503987 
" style="fill:none;stroke:#ba55d3;stroke-opacity:0.25;stroke-width:1.5;"/>
    <path clip-path="url(#p5a6869f428)" d="M 226.744088 202.927001 
L 226.744088 200.937353 
" style="fill:none;stroke:#ba55d3;stroke-opacity:0.25;stroke-width:1.5;"/>
    <path clip-path="url(#p5a6869f428)" d="M 229.745746 202.755273 
L 229.745746 200.853407 
" style="fill:none;stroke:#ba55d3;stroke-opacity:0.25;stroke-width:1.5;"/>
    <path clip-path="url(#p5a6869f428)" d="M 232.747403 202.829203 
L 232.747403 200.774229 
" style="fill:none;stroke:#ba55d3;stroke-opacity:0.25;stroke-width:1.5;"/>
    <path clip-path="url(#p5a6869f428)" d="M 235.749061 202.984803 
L 235.749061 201.020291 
" style="fill:none;stroke:#ba55d3;stroke-opacity:0.25;stroke-width:1.5;"/>
    <path clip-path="url(#p5a6869f428)" d="M 238.750718 202.563257 
L 238.750718 199.856356 
" style="fill:none;stroke:#ba55d3;stroke-opacity:0.25;stroke-width:1.5;"/>
    <path clip-path="url(#p5a6869f428)" d="M 241.752376 202.784656 
L 241.752376 200.485142 
" style="fill:none;stroke:#ba55d3;stroke-opacity:0.25;stroke-width:1.5;"/>
    <path clip-path="url(#p5a6869f428)" d="M 244.754034 202.070938 
L 244.754034 200.080461 
" style="fill:none;stroke:#ba55d3;stroke-opacity:0.25;stroke-width:1.5;"/>
    <path clip-path="url(#p5a6869f428)" d="M 247.755691 203.089718 
L 247.755691 200.402355 
" style="fill:none;stroke:#ba55d3;stroke-opacity:0.25;stroke-width:1.5;"/>
    <path clip-path="url(#p5a6869f428)" d="M 250.757349 202.187915 
L 250.757349 200.562049 
" style="fill:none;stroke:#ba55d3;stroke-opacity:0.25;stroke-width:1.5;"/>
    <path clip-path="url(#p5a6869f428)" d="M 253.759006 202.461277 
L 253.759006 199.837603 
" style="fill:none;stroke:#ba55d3;stroke-opacity:0.25;stroke-width:1.5;"/>
   </g>
   <g id="line2d_12">
    <path clip-path="url(#p5a6869f428)" d="M 60.041739 200.486841 
L 63.046957 200.518315 
L 66.052174 200.566379 
L 69.057391 200.622291 
L 72.062609 200.675535 
L 75.067826 200.717813 
L 78.073043 200.746575 
L 81.078261 200.764729 
L 84.083478 200.776227 
L 87.088696 200.781507 
L 90.093913 200.777204 
L 93.09913 200.759882 
L 96.104348 200.729141 
L 99.109565 200.6868 
L 102.114783 200.633966 
L 105.12 200.569567 
L 108.125217 200.490763 
L 111.130435 200.392671 
L 114.135652 200.265799 
L 117.14087 200.091018 
L 120.146087 199.829659 
L 123.151304 199.39969 
L 126.156522 198.618947 
L 129.161739 197.08752 
L 132.166957 193.999426 
L 135.172174 187.979325 
L 138.177391 177.256608 
L 141.182609 160.60708 
L 144.187826 139.037496 
L 147.193043 117.059341 
L 150.198261 101.734327 
L 153.203478 99.066974 
L 156.208696 110.150249 
L 159.213913 130.430505 
L 162.21913 152.763082 
L 165.224348 171.475085 
L 168.229565 184.343525 
L 171.234783 191.954778 
L 174.24 196.005356 
L 177.245217 198.050472 
L 180.250435 199.0885 
L 183.255652 199.643632 
L 186.26087 199.963137 
L 189.266087 200.160729 
L 192.271304 200.290977 
L 195.276522 200.383072 
L 198.281739 200.455089 
L 201.286957 200.517915 
L 204.292174 200.574501 
L 207.297391 200.620698 
L 210.302609 200.651007 
L 213.307826 200.66562 
L 216.313043 200.671808 
L 219.318261 200.678021 
L 222.323478 200.686766 
L 225.328696 200.692851 
L 228.333913 200.687477 
L 231.33913 200.664234 
L 234.344348 200.623457 
L 237.349565 200.572971 
L 240.354783 200.524894 
L 243.36 200.49057 
L 246.365217 200.477094 
" style="fill:none;stroke:#db5f57;stroke-linecap:square;stroke-opacity:0.7;stroke-width:1.5;"/>
   </g>
   <g id="line2d_13">
    <defs>
     <path d="M 0 1 
C 0.265203 1 0.51958 0.894634 0.707107 0.707107 
C 0.894634 0.51958 1 0.265203 1 0 
C 1 -0.265203 0.894634 -0.51958 0.707107 -0.707107 
C 0.51958 -0.894634 0.265203 -1 0 -1 
C -0.265203 -1 -0.51958 -0.894634 -0.707107 -0.707107 
C -0.894634 -0.51958 -1 -0.265203 -1 0 
C -1 0.265203 -0.894634 0.51958 -0.707107 0.707107 
C -0.51958 0.894634 -0.265203 1 0 1 
z
" id="mb4b424a72d" style="stroke:#ba55d3;"/>
    </defs>
    <g clip-path="url(#p5a6869f428)">
     <use style="fill:#ffffff;stroke:#ba55d3;" x="52.64795" xlink:href="#mb4b424a72d" y="201.896867"/>
     <use style="fill:#ffffff;stroke:#ba55d3;" x="55.649608" xlink:href="#mb4b424a72d" y="202.285106"/>
     <use style="fill:#ffffff;stroke:#ba55d3;" x="58.651265" xlink:href="#mb4b424a72d" y="201.523808"/>
     <use style="fill:#ffffff;stroke:#ba55d3;" x="61.652923" xlink:href="#mb4b424a72d" y="201.599477"/>
     <use style="fill:#ffffff;stroke:#ba55d3;" x="64.654581" xlink:href="#mb4b424a72d" y="201.326308"/>
     <use style="fill:#ffffff;stroke:#ba55d3;" x="67.656238" xlink:href="#mb4b424a72d" y="201.452176"/>
     <use style="fill:#ffffff;stroke:#ba55d3;" x="70.657896" xlink:href="#mb4b424a72d" y="201.72087"/>
     <use style="fill:#ffffff;stroke:#ba55d3;" x="73.659553" xlink:href="#mb4b424a72d" y="201.327938"/>
     <use style="fill:#ffffff;stroke:#ba55d3;" x="76.661211" xlink:href="#mb4b424a72d" y="201.474217"/>
     <use style="fill:#ffffff;stroke:#ba55d3;" x="79.662868" xlink:href="#mb4b424a72d" y="201.677145"/>
     <use style="fill:#ffffff;stroke:#ba55d3;" x="82.664526" xlink:href="#mb4b424a72d" y="201.494125"/>
     <use style="fill:#ffffff;stroke:#ba55d3;" x="85.666183" xlink:href="#mb4b424a72d" y="201.501855"/>
     <use style="fill:#ffffff;stroke:#ba55d3;" x="88.667841" xlink:href="#mb4b424a72d" y="202.010353"/>
     <use style="fill:#ffffff;stroke:#ba55d3;" x="91.669498" xlink:href="#mb4b424a72d" y="202.018762"/>
     <use style="fill:#ffffff;stroke:#ba55d3;" x="94.671156" xlink:href="#mb4b424a72d" y="201.282484"/>
     <use style="fill:#ffffff;stroke:#ba55d3;" x="97.672814" xlink:href="#mb4b424a72d" y="201.25671"/>
     <use style="fill:#ffffff;stroke:#ba55d3;" x="100.674471" xlink:href="#mb4b424a72d" y="200.568615"/>
     <use style="fill:#ffffff;stroke:#ba55d3;" x="103.676129" xlink:href="#mb4b424a72d" y="200.669177"/>
     <use style="fill:#ffffff;stroke:#ba55d3;" x="106.677786" xlink:href="#mb4b424a72d" y="200.811803"/>
     <use style="fill:#ffffff;stroke:#ba55d3;" x="109.679444" xlink:href="#mb4b424a72d" y="199.647441"/>
     <use style="fill:#ffffff;stroke:#ba55d3;" x="112.681101" xlink:href="#mb4b424a72d" y="200.41023"/>
     <use style="fill:#ffffff;stroke:#ba55d3;" x="115.682759" xlink:href="#mb4b424a72d" y="199.638735"/>
     <use style="fill:#ffffff;stroke:#ba55d3;" x="118.684416" xlink:href="#mb4b424a72d" y="197.784222"/>
     <use style="fill:#ffffff;stroke:#ba55d3;" x="121.686074" xlink:href="#mb4b424a72d" y="193.539959"/>
     <use style="fill:#ffffff;stroke:#ba55d3;" x="124.687732" xlink:href="#mb4b424a72d" y="184.727855"/>
     <use style="fill:#ffffff;stroke:#ba55d3;" x="127.689389" xlink:href="#mb4b424a72d" y="172.761045"/>
     <use style="fill:#ffffff;stroke:#ba55d3;" x="130.691047" xlink:href="#mb4b424a72d" y="156.934957"/>
     <use style="fill:#ffffff;stroke:#ba55d3;" x="133.692704" xlink:href="#mb4b424a72d" y="139.498742"/>
     <use style="fill:#ffffff;stroke:#ba55d3;" x="136.694362" xlink:href="#mb4b424a72d" y="118.27914"/>
     <use style="fill:#ffffff;stroke:#ba55d3;" x="139.696019" xlink:href="#mb4b424a72d" y="96.192332"/>
     <use style="fill:#ffffff;stroke:#ba55d3;" x="142.697677" xlink:href="#mb4b424a72d" y="73.103785"/>
     <use style="fill:#ffffff;stroke:#ba55d3;" x="145.699334" xlink:href="#mb4b424a72d" y="56.486289"/>
     <use style="fill:#ffffff;stroke:#ba55d3;" x="148.700992" xlink:href="#mb4b424a72d" y="44.118513"/>
     <use style="fill:#ffffff;stroke:#ba55d3;" x="151.702649" xlink:href="#mb4b424a72d" y="38.243894"/>
     <use style="fill:#ffffff;stroke:#ba55d3;" x="154.704307" xlink:href="#mb4b424a72d" y="37.158053"/>
     <use style="fill:#ffffff;stroke:#ba55d3;" x="157.705965" xlink:href="#mb4b424a72d" y="42.639717"/>
     <use style="fill:#ffffff;stroke:#ba55d3;" x="160.707622" xlink:href="#mb4b424a72d" y="50.998939"/>
     <use style="fill:#ffffff;stroke:#ba55d3;" x="163.70928" xlink:href="#mb4b424a72d" y="62.342297"/>
     <use style="fill:#ffffff;stroke:#ba55d3;" x="166.710937" xlink:href="#mb4b424a72d" y="76.06906"/>
     <use style="fill:#ffffff;stroke:#ba55d3;" x="169.712595" xlink:href="#mb4b424a72d" y="95.43305"/>
     <use style="fill:#ffffff;stroke:#ba55d3;" x="172.714252" xlink:href="#mb4b424a72d" y="115.806417"/>
     <use style="fill:#ffffff;stroke:#ba55d3;" x="175.71591" xlink:href="#mb4b424a72d" y="134.208536"/>
     <use style="fill:#ffffff;stroke:#ba55d3;" x="178.717567" xlink:href="#mb4b424a72d" y="154.398964"/>
     <use style="fill:#ffffff;stroke:#ba55d3;" x="181.719225" xlink:href="#mb4b424a72d" y="173.219555"/>
     <use style="fill:#ffffff;stroke:#ba55d3;" x="184.720883" xlink:href="#mb4b424a72d" y="186.99817"/>
     <use style="fill:#ffffff;stroke:#ba55d3;" x="187.72254" xlink:href="#mb4b424a72d" y="193.486681"/>
     <use style="fill:#ffffff;stroke:#ba55d3;" x="190.724198" xlink:href="#mb4b424a72d" y="196.164559"/>
     <use style="fill:#ffffff;stroke:#ba55d3;" x="193.725855" xlink:href="#mb4b424a72d" y="198.292971"/>
     <use style="fill:#ffffff;stroke:#ba55d3;" x="196.727513" xlink:href="#mb4b424a72d" y="200.204619"/>
     <use style="fill:#ffffff;stroke:#ba55d3;" x="199.72917" xlink:href="#mb4b424a72d" y="201.298436"/>
     <use style="fill:#ffffff;stroke:#ba55d3;" x="202.730828" xlink:href="#mb4b424a72d" y="202.013766"/>
     <use style="fill:#ffffff;stroke:#ba55d3;" x="205.732485" xlink:href="#mb4b424a72d" y="202.463213"/>
     <use style="fill:#ffffff;stroke:#ba55d3;" x="208.734143" xlink:href="#mb4b424a72d" y="202.442078"/>
     <use style="fill:#ffffff;stroke:#ba55d3;" x="211.735801" xlink:href="#mb4b424a72d" y="201.848509"/>
     <use style="fill:#ffffff;stroke:#ba55d3;" x="214.737458" xlink:href="#mb4b424a72d" y="201.548127"/>
     <use style="fill:#ffffff;stroke:#ba55d3;" x="217.739116" xlink:href="#mb4b424a72d" y="201.656671"/>
     <use style="fill:#ffffff;stroke:#ba55d3;" x="220.740773" xlink:href="#mb4b424a72d" y="201.631311"/>
     <use style="fill:#ffffff;stroke:#ba55d3;" x="223.742431" xlink:href="#mb4b424a72d" y="202.001863"/>
     <use style="fill:#ffffff;stroke:#ba55d3;" x="226.744088" xlink:href="#mb4b424a72d" y="201.932177"/>
     <use style="fill:#ffffff;stroke:#ba55d3;" x="229.745746" xlink:href="#mb4b424a72d" y="201.80434"/>
     <use style="fill:#ffffff;stroke:#ba55d3;" x="232.747403" xlink:href="#mb4b424a72d" y="201.801716"/>
     <use style="fill:#ffffff;stroke:#ba55d3;" x="235.749061" xlink:href="#mb4b424a72d" y="202.002547"/>
     <use style="fill:#ffffff;stroke:#ba55d3;" x="238.750718" xlink:href="#mb4b424a72d" y="201.209806"/>
     <use style="fill:#ffffff;stroke:#ba55d3;" x="241.752376" xlink:href="#mb4b424a72d" y="201.634899"/>
     <use style="fill:#ffffff;stroke:#ba55d3;" x="244.754034" xlink:href="#mb4b424a72d" y="201.075699"/>
     <use style="fill:#ffffff;stroke:#ba55d3;" x="247.755691" xlink:href="#mb4b424a72d" y="201.746036"/>
     <use style="fill:#ffffff;stroke:#ba55d3;" x="250.757349" xlink:href="#mb4b424a72d" y="201.374982"/>
     <use style="fill:#ffffff;stroke:#ba55d3;" x="253.759006" xlink:href="#mb4b424a72d" y="201.14944"/>
    </g>
   </g>
   <g id="patch_5">
    <path d="M 56.16 202.718437 
L 56.16 36.398437 
" style="fill:none;stroke:#000000;stroke-linecap:square;stroke-linejoin:miter;stroke-width:0.8;"/>
   </g>
   <g id="patch_6">
    <path d="M 250.246957 202.718437 
L 250.246957 36.398437 
" style="fill:none;stroke:#000000;stroke-linecap:square;stroke-linejoin:miter;stroke-width:0.8;"/>
   </g>
   <g id="patch_7">
    <path d="M 56.16 202.718437 
L 250.246957 202.718437 
" style="fill:none;stroke:#000000;stroke-linecap:square;stroke-linejoin:miter;stroke-width:0.8;"/>
   </g>
   <g id="patch_8">
    <path d="M 56.16 36.398437 
L 250.246957 36.398437 
" style="fill:none;stroke:#000000;stroke-linecap:square;stroke-linejoin:miter;stroke-width:0.8;"/>
   </g>
   <g id="text_12">
    <!--  $A$= 7.9  $\lambda=$21 -->
    <defs>
     <path id="DejaVuSans-32"/>
     <path d="M 36.8125 72.90625 
L 48 72.90625 
L 61.53125 0 
L 51.21875 0 
L 48.1875 18.703125 
L 15.375 18.703125 
L 5.078125 0 
L -5.328125 0 
z
M 40.375 63.1875 
L 19.921875 26.90625 
L 46.6875 26.90625 
z
" id="DejaVuSans-Oblique-65"/>
     <path d="M 10.59375 45.40625 
L 73.1875 45.40625 
L 73.1875 37.203125 
L 10.59375 37.203125 
z
M 10.59375 25.484375 
L 73.1875 25.484375 
L 73.1875 17.1875 
L 10.59375 17.1875 
z
" id="DejaVuSans-61"/>
     <path d="M 10.984375 1.515625 
L 10.984375 10.5 
Q 14.703125 8.734375 18.5 7.8125 
Q 22.3125 6.890625 25.984375 6.890625 
Q 35.75 6.890625 40.890625 13.453125 
Q 46.046875 20.015625 46.78125 33.40625 
Q 43.953125 29.203125 39.59375 26.953125 
Q 35.25 24.703125 29.984375 24.703125 
Q 19.046875 24.703125 12.671875 31.3125 
Q 6.296875 37.9375 6.296875 49.421875 
Q 6.296875 60.640625 12.9375 67.421875 
Q 19.578125 74.21875 30.609375 74.21875 
Q 43.265625 74.21875 49.921875 64.515625 
Q 56.59375 54.828125 56.59375 36.375 
Q 56.59375 19.140625 48.40625 8.859375 
Q 40.234375 -1.421875 26.421875 -1.421875 
Q 22.703125 -1.421875 18.890625 -0.6875 
Q 15.09375 0.046875 10.984375 1.515625 
z
M 30.609375 32.421875 
Q 37.25 32.421875 41.125 36.953125 
Q 45.015625 41.5 45.015625 49.421875 
Q 45.015625 57.28125 41.125 61.84375 
Q 37.25 66.40625 30.609375 66.40625 
Q 23.96875 66.40625 20.09375 61.84375 
Q 16.21875 57.28125 16.21875 49.421875 
Q 16.21875 41.5 20.09375 36.953125 
Q 23.96875 32.421875 30.609375 32.421875 
z
" id="DejaVuSans-57"/>
     <path d="M 36.71875 67.4375 
L 48.828125 0 
L 39.3125 0 
L 31.84375 40.4375 
L 5.125 0 
L -4.390625 0 
L 29.734375 52.4375 
L 28.03125 62.109375 
Q 26.953125 68.265625 21.734375 68.265625 
L 17.046875 68.265625 
L 18.5 75.984375 
L 24.21875 75.875 
Q 35.203125 75.734375 36.71875 67.4375 
z
" id="DejaVuSans-Oblique-955"/>
    </defs>
    <g transform="translate(61.012174 53.030437)scale(0.1 -0.1)">
     <use transform="translate(0 0.015625)" xlink:href="#DejaVuSans-32"/>
     <use transform="translate(31.787109 0.015625)" xlink:href="#DejaVuSans-Oblique-65"/>
     <use transform="translate(100.195312 0.015625)" xlink:href="#DejaVuSans-61"/>
     <use transform="translate(183.984375 0.015625)" xlink:href="#DejaVuSans-32"/>
     <use transform="translate(215.771484 0.015625)" xlink:href="#DejaVuSans-55"/>
     <use transform="translate(279.394531 0.015625)" xlink:href="#DejaVuSans-46"/>
     <use transform="translate(311.181641 0.015625)" xlink:href="#DejaVuSans-57"/>
     <use transform="translate(374.804688 0.015625)" xlink:href="#DejaVuSans-32"/>
     <use transform="translate(406.591797 0.015625)" xlink:href="#DejaVuSans-32"/>
     <use transform="translate(438.378906 0.015625)" xlink:href="#DejaVuSans-Oblique-955"/>
     <use transform="translate(517.041016 0.015625)" xlink:href="#DejaVuSans-61"/>
     <use transform="translate(620.3125 0.015625)" xlink:href="#DejaVuSans-50"/>
     <use transform="translate(683.935547 0.015625)" xlink:href="#DejaVuSans-49"/>
    </g>
   </g>
   <g id="text_13">
    <!-- $\kappa$= 0.71 -->
    <defs>
     <path d="M 14.65625 54.6875 
L 23.921875 54.6875 
L 19.484375 31.984375 
L 47.515625 54.6875 
L 58.453125 54.6875 
L 32.90625 34.078125 
L 51.171875 0 
L 40.1875 0 
L 25.4375 28.21875 
L 17.53125 21.921875 
L 13.28125 0 
L 4 0 
z
" id="DejaVuSans-Oblique-954"/>
    </defs>
    <g transform="translate(63.091677 69.662437)scale(0.1 -0.1)">
     <use transform="translate(0 0.78125)" xlink:href="#DejaVuSans-Oblique-954"/>
     <use transform="translate(58.935547 0.78125)" xlink:href="#DejaVuSans-61"/>
     <use transform="translate(142.724609 0.78125)" xlink:href="#DejaVuSans-32"/>
     <use transform="translate(174.511719 0.78125)" xlink:href="#DejaVuSans-48"/>
     <use transform="translate(238.134766 0.78125)" xlink:href="#DejaVuSans-46"/>
     <use transform="translate(262.171875 0.78125)" xlink:href="#DejaVuSans-55"/>
     <use transform="translate(325.794922 0.78125)" xlink:href="#DejaVuSans-49"/>
    </g>
   </g>
  </g>
  <g id="axes_3">
   <g id="patch_9">
    <path d="M 308.473043 202.718437 
L 502.56 202.718437 
L 502.56 36.398437 
L 308.473043 36.398437 
z
" style="fill:#ffffff;"/>
   </g>
   <g id="axes_4">
    <g id="patch_10">
     <path d="M 308.473043 36.398437 
L 502.56 36.398437 
L 502.56 36.398437 
L 308.473043 36.398437 
z
" style="fill:#ffffff;"/>
    </g>
    <g id="matplotlib.axis_5">
     <g id="xtick_7">
      <g id="line2d_14">
       <g>
        <use style="stroke:#000000;stroke-width:0.8;" x="356.994783" xlink:href="#md79104b0a6" y="36.398437"/>
       </g>
      </g>
      <g id="text_14">
       <!-- −0.25 -->
       <g transform="translate(341.672126 27.31875)scale(0.1 -0.1)">
        <use xlink:href="#DejaVuSans-8722"/>
        <use x="83.789062" xlink:href="#DejaVuSans-48"/>
        <use x="147.412109" xlink:href="#DejaVuSans-46"/>
        <use x="179.199219" xlink:href="#DejaVuSans-50"/>
        <use x="242.822266" xlink:href="#DejaVuSans-53"/>
       </g>
      </g>
     </g>
     <g id="xtick_8">
      <g id="line2d_15">
       <g>
        <use style="stroke:#000000;stroke-width:0.8;" x="405.516522" xlink:href="#md79104b0a6" y="36.398437"/>
       </g>
      </g>
      <g id="text_15">
       <!-- 0.00 -->
       <g transform="translate(394.383709 27.31875)scale(0.1 -0.1)">
        <use xlink:href="#DejaVuSans-48"/>
        <use x="63.623047" xlink:href="#DejaVuSans-46"/>
        <use x="95.410156" xlink:href="#DejaVuSans-48"/>
        <use x="159.033203" xlink:href="#DejaVuSans-48"/>
       </g>
      </g>
     </g>
     <g id="xtick_9">
      <g id="line2d_16">
       <g>
        <use style="stroke:#000000;stroke-width:0.8;" x="454.038261" xlink:href="#md79104b0a6" y="36.398437"/>
       </g>
      </g>
      <g id="text_16">
       <!-- 0.25 -->
       <g transform="translate(442.905448 27.31875)scale(0.1 -0.1)">
        <use xlink:href="#DejaVuSans-48"/>
        <use x="63.623047" xlink:href="#DejaVuSans-46"/>
        <use x="95.410156" xlink:href="#DejaVuSans-50"/>
        <use x="159.033203" xlink:href="#DejaVuSans-53"/>
       </g>
      </g>
     </g>
    </g>
    <g id="matplotlib.axis_6"/>
    <g id="patch_11">
     <path d="M 308.473043 36.398437 
L 502.56 36.398437 
" style="fill:none;stroke:#000000;stroke-linecap:square;stroke-linejoin:miter;stroke-width:0.8;"/>
    </g>
   </g>
   <g id="matplotlib.axis_7">
    <g id="xtick_10">
     <g id="line2d_17">
      <g>
       <use style="stroke:#000000;stroke-width:0.8;" x="356.994783" xlink:href="#m2649ee1069" y="202.718437"/>
      </g>
     </g>
     <g id="text_17">
      <!-- −5.25 -->
      <g transform="translate(341.672126 219.816875)scale(0.1 -0.1)">
       <use xlink:href="#DejaVuSans-8722"/>
       <use x="83.789062" xlink:href="#DejaVuSans-53"/>
       <use x="147.412109" xlink:href="#DejaVuSans-46"/>
       <use x="179.199219" xlink:href="#DejaVuSans-50"/>
       <use x="242.822266" xlink:href="#DejaVuSans-53"/>
      </g>
     </g>
    </g>
    <g id="xtick_11">
     <g id="line2d_18">
      <g>
       <use style="stroke:#000000;stroke-width:0.8;" x="405.516522" xlink:href="#m2649ee1069" y="202.718437"/>
      </g>
     </g>
     <g id="text_18">
      <!-- 0.00 -->
      <g transform="translate(394.383709 219.816875)scale(0.1 -0.1)">
       <use xlink:href="#DejaVuSans-48"/>
       <use x="63.623047" xlink:href="#DejaVuSans-46"/>
       <use x="95.410156" xlink:href="#DejaVuSans-48"/>
       <use x="159.033203" xlink:href="#DejaVuSans-48"/>
      </g>
     </g>
    </g>
    <g id="xtick_12">
     <g id="line2d_19">
      <g>
       <use style="stroke:#000000;stroke-width:0.8;" x="454.038261" xlink:href="#m2649ee1069" y="202.718437"/>
      </g>
     </g>
     <g id="text_19">
      <!-- 5.25 -->
      <g transform="translate(442.905448 219.816875)scale(0.1 -0.1)">
       <use xlink:href="#DejaVuSans-53"/>
       <use x="63.623047" xlink:href="#DejaVuSans-46"/>
       <use x="95.410156" xlink:href="#DejaVuSans-50"/>
       <use x="159.033203" xlink:href="#DejaVuSans-53"/>
      </g>
     </g>
    </g>
   </g>
   <g id="matplotlib.axis_8">
    <g id="ytick_6">
     <g id="line2d_20">
      <g>
       <use style="stroke:#000000;stroke-width:0.8;" x="308.473043" xlink:href="#m60e99eaace" y="202.718437"/>
      </g>
     </g>
     <g id="text_20">
      <!-- 0.0 -->
      <g transform="translate(283.069918 206.517656)scale(0.1 -0.1)">
       <use xlink:href="#DejaVuSans-48"/>
       <use x="63.623047" xlink:href="#DejaVuSans-46"/>
       <use x="95.410156" xlink:href="#DejaVuSans-48"/>
      </g>
     </g>
    </g>
    <g id="ytick_7">
     <g id="line2d_21">
      <g>
       <use style="stroke:#000000;stroke-width:0.8;" x="308.473043" xlink:href="#m60e99eaace" y="178.078438"/>
      </g>
     </g>
     <g id="text_21">
      <!-- 0.2 -->
      <g transform="translate(283.069918 181.877656)scale(0.1 -0.1)">
       <use xlink:href="#DejaVuSans-48"/>
       <use x="63.623047" xlink:href="#DejaVuSans-46"/>
       <use x="95.410156" xlink:href="#DejaVuSans-50"/>
      </g>
     </g>
    </g>
    <g id="ytick_8">
     <g id="line2d_22">
      <g>
       <use style="stroke:#000000;stroke-width:0.8;" x="308.473043" xlink:href="#m60e99eaace" y="153.438437"/>
      </g>
     </g>
     <g id="text_22">
      <!-- 0.4 -->
      <g transform="translate(283.069918 157.237656)scale(0.1 -0.1)">
       <use xlink:href="#DejaVuSans-48"/>
       <use x="63.623047" xlink:href="#DejaVuSans-46"/>
       <use x="95.410156" xlink:href="#DejaVuSans-52"/>
      </g>
     </g>
    </g>
    <g id="ytick_9">
     <g id="line2d_23">
      <g>
       <use style="stroke:#000000;stroke-width:0.8;" x="308.473043" xlink:href="#m60e99eaace" y="128.798437"/>
      </g>
     </g>
     <g id="text_23">
      <!-- 0.6 -->
      <g transform="translate(283.069918 132.597656)scale(0.1 -0.1)">
       <use xlink:href="#DejaVuSans-48"/>
       <use x="63.623047" xlink:href="#DejaVuSans-46"/>
       <use x="95.410156" xlink:href="#DejaVuSans-54"/>
      </g>
     </g>
    </g>
    <g id="ytick_10">
     <g id="line2d_24">
      <g>
       <use style="stroke:#000000;stroke-width:0.8;" x="308.473043" xlink:href="#m60e99eaace" y="104.158437"/>
      </g>
     </g>
     <g id="text_24">
      <!-- 0.8 -->
      <g transform="translate(283.069918 107.957656)scale(0.1 -0.1)">
       <use xlink:href="#DejaVuSans-48"/>
       <use x="63.623047" xlink:href="#DejaVuSans-46"/>
       <use x="95.410156" xlink:href="#DejaVuSans-56"/>
      </g>
     </g>
    </g>
    <g id="ytick_11">
     <g id="line2d_25">
      <g>
       <use style="stroke:#000000;stroke-width:0.8;" x="308.473043" xlink:href="#m60e99eaace" y="79.518437"/>
      </g>
     </g>
     <g id="text_25">
      <!-- 1.0 -->
      <g transform="translate(283.069918 83.317656)scale(0.1 -0.1)">
       <use xlink:href="#DejaVuSans-49"/>
       <use x="63.623047" xlink:href="#DejaVuSans-46"/>
       <use x="95.410156" xlink:href="#DejaVuSans-48"/>
      </g>
     </g>
    </g>
    <g id="text_26">
     <!-- Normalized speed $v(x)$ -->
     <defs>
      <path d="M 9.8125 72.90625 
L 23.09375 72.90625 
L 55.421875 11.921875 
L 55.421875 72.90625 
L 64.984375 72.90625 
L 64.984375 0 
L 51.703125 0 
L 19.390625 60.984375 
L 19.390625 0 
L 9.8125 0 
z
" id="DejaVuSans-78"/>
      <path d="M 30.609375 48.390625 
Q 23.390625 48.390625 19.1875 42.75 
Q 14.984375 37.109375 14.984375 27.296875 
Q 14.984375 17.484375 19.15625 11.84375 
Q 23.34375 6.203125 30.609375 6.203125 
Q 37.796875 6.203125 41.984375 11.859375 
Q 46.1875 17.53125 46.1875 27.296875 
Q 46.1875 37.015625 41.984375 42.703125 
Q 37.796875 48.390625 30.609375 48.390625 
z
M 30.609375 56 
Q 42.328125 56 49.015625 48.375 
Q 55.71875 40.765625 55.71875 27.296875 
Q 55.71875 13.875 49.015625 6.21875 
Q 42.328125 -1.421875 30.609375 -1.421875 
Q 18.84375 -1.421875 12.171875 6.21875 
Q 5.515625 13.875 5.515625 27.296875 
Q 5.515625 40.765625 12.171875 48.375 
Q 18.84375 56 30.609375 56 
z
" id="DejaVuSans-111"/>
      <path d="M 41.109375 46.296875 
Q 39.59375 47.171875 37.8125 47.578125 
Q 36.03125 48 33.890625 48 
Q 26.265625 48 22.1875 43.046875 
Q 18.109375 38.09375 18.109375 28.8125 
L 18.109375 0 
L 9.078125 0 
L 9.078125 54.6875 
L 18.109375 54.6875 
L 18.109375 46.1875 
Q 20.953125 51.171875 25.484375 53.578125 
Q 30.03125 56 36.53125 56 
Q 37.453125 56 38.578125 55.875 
Q 39.703125 55.765625 41.0625 55.515625 
z
" id="DejaVuSans-114"/>
      <path d="M 52 44.1875 
Q 55.375 50.25 60.0625 53.125 
Q 64.75 56 71.09375 56 
Q 79.640625 56 84.28125 50.015625 
Q 88.921875 44.046875 88.921875 33.015625 
L 88.921875 0 
L 79.890625 0 
L 79.890625 32.71875 
Q 79.890625 40.578125 77.09375 44.375 
Q 74.3125 48.1875 68.609375 48.1875 
Q 61.625 48.1875 57.5625 43.546875 
Q 53.515625 38.921875 53.515625 30.90625 
L 53.515625 0 
L 44.484375 0 
L 44.484375 32.71875 
Q 44.484375 40.625 41.703125 44.40625 
Q 38.921875 48.1875 33.109375 48.1875 
Q 26.21875 48.1875 22.15625 43.53125 
Q 18.109375 38.875 18.109375 30.90625 
L 18.109375 0 
L 9.078125 0 
L 9.078125 54.6875 
L 18.109375 54.6875 
L 18.109375 46.1875 
Q 21.1875 51.21875 25.484375 53.609375 
Q 29.78125 56 35.6875 56 
Q 41.65625 56 45.828125 52.96875 
Q 50 49.953125 52 44.1875 
z
" id="DejaVuSans-109"/>
      <path d="M 34.28125 27.484375 
Q 23.390625 27.484375 19.1875 25 
Q 14.984375 22.515625 14.984375 16.5 
Q 14.984375 11.71875 18.140625 8.90625 
Q 21.296875 6.109375 26.703125 6.109375 
Q 34.1875 6.109375 38.703125 11.40625 
Q 43.21875 16.703125 43.21875 25.484375 
L 43.21875 27.484375 
z
M 52.203125 31.203125 
L 52.203125 0 
L 43.21875 0 
L 43.21875 8.296875 
Q 40.140625 3.328125 35.546875 0.953125 
Q 30.953125 -1.421875 24.3125 -1.421875 
Q 15.921875 -1.421875 10.953125 3.296875 
Q 6 8.015625 6 15.921875 
Q 6 25.140625 12.171875 29.828125 
Q 18.359375 34.515625 30.609375 34.515625 
L 43.21875 34.515625 
L 43.21875 35.40625 
Q 43.21875 41.609375 39.140625 45 
Q 35.0625 48.390625 27.6875 48.390625 
Q 23 48.390625 18.546875 47.265625 
Q 14.109375 46.140625 10.015625 43.890625 
L 10.015625 52.203125 
Q 14.9375 54.109375 19.578125 55.046875 
Q 24.21875 56 28.609375 56 
Q 40.484375 56 46.34375 49.84375 
Q 52.203125 43.703125 52.203125 31.203125 
z
" id="DejaVuSans-97"/>
      <path d="M 9.421875 75.984375 
L 18.40625 75.984375 
L 18.40625 0 
L 9.421875 0 
z
" id="DejaVuSans-108"/>
      <path d="M 9.421875 54.6875 
L 18.40625 54.6875 
L 18.40625 0 
L 9.421875 0 
z
M 9.421875 75.984375 
L 18.40625 75.984375 
L 18.40625 64.59375 
L 9.421875 64.59375 
z
" id="DejaVuSans-105"/>
      <path d="M 5.515625 54.6875 
L 48.1875 54.6875 
L 48.1875 46.484375 
L 14.40625 7.171875 
L 48.1875 7.171875 
L 48.1875 0 
L 4.296875 0 
L 4.296875 8.203125 
L 38.09375 47.515625 
L 5.515625 47.515625 
z
" id="DejaVuSans-122"/>
      <path d="M 56.203125 29.59375 
L 56.203125 25.203125 
L 14.890625 25.203125 
Q 15.484375 15.921875 20.484375 11.0625 
Q 25.484375 6.203125 34.421875 6.203125 
Q 39.59375 6.203125 44.453125 7.46875 
Q 49.3125 8.734375 54.109375 11.28125 
L 54.109375 2.78125 
Q 49.265625 0.734375 44.1875 -0.34375 
Q 39.109375 -1.421875 33.890625 -1.421875 
Q 20.796875 -1.421875 13.15625 6.1875 
Q 5.515625 13.8125 5.515625 26.8125 
Q 5.515625 40.234375 12.765625 48.109375 
Q 20.015625 56 32.328125 56 
Q 43.359375 56 49.78125 48.890625 
Q 56.203125 41.796875 56.203125 29.59375 
z
M 47.21875 32.234375 
Q 47.125 39.59375 43.09375 43.984375 
Q 39.0625 48.390625 32.421875 48.390625 
Q 24.90625 48.390625 20.390625 44.140625 
Q 15.875 39.890625 15.1875 32.171875 
z
" id="DejaVuSans-101"/>
      <path d="M 45.40625 46.390625 
L 45.40625 75.984375 
L 54.390625 75.984375 
L 54.390625 0 
L 45.40625 0 
L 45.40625 8.203125 
Q 42.578125 3.328125 38.25 0.953125 
Q 33.9375 -1.421875 27.875 -1.421875 
Q 17.96875 -1.421875 11.734375 6.484375 
Q 5.515625 14.40625 5.515625 27.296875 
Q 5.515625 40.1875 11.734375 48.09375 
Q 17.96875 56 27.875 56 
Q 33.9375 56 38.25 53.625 
Q 42.578125 51.265625 45.40625 46.390625 
z
M 14.796875 27.296875 
Q 14.796875 17.390625 18.875 11.75 
Q 22.953125 6.109375 30.078125 6.109375 
Q 37.203125 6.109375 41.296875 11.75 
Q 45.40625 17.390625 45.40625 27.296875 
Q 45.40625 37.203125 41.296875 42.84375 
Q 37.203125 48.484375 30.078125 48.484375 
Q 22.953125 48.484375 18.875 42.84375 
Q 14.796875 37.203125 14.796875 27.296875 
z
" id="DejaVuSans-100"/>
      <path d="M 44.28125 53.078125 
L 44.28125 44.578125 
Q 40.484375 46.53125 36.375 47.5 
Q 32.28125 48.484375 27.875 48.484375 
Q 21.1875 48.484375 17.84375 46.4375 
Q 14.5 44.390625 14.5 40.28125 
Q 14.5 37.15625 16.890625 35.375 
Q 19.28125 33.59375 26.515625 31.984375 
L 29.59375 31.296875 
Q 39.15625 29.25 43.1875 25.515625 
Q 47.21875 21.78125 47.21875 15.09375 
Q 47.21875 7.46875 41.1875 3.015625 
Q 35.15625 -1.421875 24.609375 -1.421875 
Q 20.21875 -1.421875 15.453125 -0.5625 
Q 10.6875 0.296875 5.421875 2 
L 5.421875 11.28125 
Q 10.40625 8.6875 15.234375 7.390625 
Q 20.0625 6.109375 24.8125 6.109375 
Q 31.15625 6.109375 34.5625 8.28125 
Q 37.984375 10.453125 37.984375 14.40625 
Q 37.984375 18.0625 35.515625 20.015625 
Q 33.0625 21.96875 24.703125 23.78125 
L 21.578125 24.515625 
Q 13.234375 26.265625 9.515625 29.90625 
Q 5.8125 33.546875 5.8125 39.890625 
Q 5.8125 47.609375 11.28125 51.796875 
Q 16.75 56 26.8125 56 
Q 31.78125 56 36.171875 55.265625 
Q 40.578125 54.546875 44.28125 53.078125 
z
" id="DejaVuSans-115"/>
      <path d="M 18.109375 8.203125 
L 18.109375 -20.796875 
L 9.078125 -20.796875 
L 9.078125 54.6875 
L 18.109375 54.6875 
L 18.109375 46.390625 
Q 20.953125 51.265625 25.265625 53.625 
Q 29.59375 56 35.59375 56 
Q 45.5625 56 51.78125 48.09375 
Q 58.015625 40.1875 58.015625 27.296875 
Q 58.015625 14.40625 51.78125 6.484375 
Q 45.5625 -1.421875 35.59375 -1.421875 
Q 29.59375 -1.421875 25.265625 0.953125 
Q 20.953125 3.328125 18.109375 8.203125 
z
M 48.6875 27.296875 
Q 48.6875 37.203125 44.609375 42.84375 
Q 40.53125 48.484375 33.40625 48.484375 
Q 26.265625 48.484375 22.1875 42.84375 
Q 18.109375 37.203125 18.109375 27.296875 
Q 18.109375 17.390625 22.1875 11.75 
Q 26.265625 6.109375 33.40625 6.109375 
Q 40.53125 6.109375 44.609375 11.75 
Q 48.6875 17.390625 48.6875 27.296875 
z
" id="DejaVuSans-112"/>
      <path d="M 7.171875 54.6875 
L 16.703125 54.6875 
L 24.703125 8.203125 
L 50.875 54.6875 
L 60.40625 54.6875 
L 29.296875 0 
L 17.1875 0 
z
" id="DejaVuSans-Oblique-118"/>
      <path d="M 31 75.875 
Q 24.46875 64.65625 21.28125 53.65625 
Q 18.109375 42.671875 18.109375 31.390625 
Q 18.109375 20.125 21.3125 9.0625 
Q 24.515625 -2 31 -13.1875 
L 23.1875 -13.1875 
Q 15.875 -1.703125 12.234375 9.375 
Q 8.59375 20.453125 8.59375 31.390625 
Q 8.59375 42.28125 12.203125 53.3125 
Q 15.828125 64.359375 23.1875 75.875 
z
" id="DejaVuSans-40"/>
      <path d="M 60.015625 54.6875 
L 34.90625 27.875 
L 50.296875 0 
L 39.984375 0 
L 28.421875 21.6875 
L 8.296875 0 
L -2.59375 0 
L 24.3125 28.8125 
L 10.015625 54.6875 
L 20.3125 54.6875 
L 30.8125 34.90625 
L 49.125 54.6875 
z
" id="DejaVuSans-Oblique-120"/>
      <path d="M 8.015625 75.875 
L 15.828125 75.875 
Q 23.140625 64.359375 26.78125 53.3125 
Q 30.421875 42.28125 30.421875 31.390625 
Q 30.421875 20.453125 26.78125 9.375 
Q 23.140625 -1.703125 15.828125 -13.1875 
L 8.015625 -13.1875 
Q 14.5 -2 17.703125 9.0625 
Q 20.90625 20.125 20.90625 31.390625 
Q 20.90625 42.671875 17.703125 53.65625 
Q 14.5 64.65625 8.015625 75.875 
z
" id="DejaVuSans-41"/>
     </defs>
     <g transform="translate(276.969918 176.108437)rotate(-90)scale(0.1 -0.1)">
      <use transform="translate(0 0.015625)" xlink:href="#DejaVuSans-78"/>
      <use transform="translate(74.804688 0.015625)" xlink:href="#DejaVuSans-111"/>
      <use transform="translate(135.986328 0.015625)" xlink:href="#DejaVuSans-114"/>
      <use transform="translate(177.099609 0.015625)" xlink:href="#DejaVuSans-109"/>
      <use transform="translate(274.511719 0.015625)" xlink:href="#DejaVuSans-97"/>
      <use transform="translate(335.791016 0.015625)" xlink:href="#DejaVuSans-108"/>
      <use transform="translate(363.574219 0.015625)" xlink:href="#DejaVuSans-105"/>
      <use transform="translate(391.357422 0.015625)" xlink:href="#DejaVuSans-122"/>
      <use transform="translate(443.847656 0.015625)" xlink:href="#DejaVuSans-101"/>
      <use transform="translate(505.371094 0.015625)" xlink:href="#DejaVuSans-100"/>
      <use transform="translate(568.847656 0.015625)" xlink:href="#DejaVuSans-32"/>
      <use transform="translate(600.634766 0.015625)" xlink:href="#DejaVuSans-115"/>
      <use transform="translate(652.734375 0.015625)" xlink:href="#DejaVuSans-112"/>
      <use transform="translate(716.210938 0.015625)" xlink:href="#DejaVuSans-101"/>
      <use transform="translate(777.734375 0.015625)" xlink:href="#DejaVuSans-101"/>
      <use transform="translate(839.257812 0.015625)" xlink:href="#DejaVuSans-100"/>
      <use transform="translate(902.734375 0.015625)" xlink:href="#DejaVuSans-32"/>
      <use transform="translate(934.521484 0.015625)" xlink:href="#DejaVuSans-Oblique-118"/>
      <use transform="translate(993.701172 0.015625)" xlink:href="#DejaVuSans-40"/>
      <use transform="translate(1032.714844 0.015625)" xlink:href="#DejaVuSans-Oblique-120"/>
      <use transform="translate(1091.894531 0.015625)" xlink:href="#DejaVuSans-41"/>
     </g>
    </g>
   </g>
   <g id="LineCollection_2">
    <path clip-path="url(#p0e74dcd826)" d="M 313.094161 86.755775 
L 313.094161 63.14736 
" style="fill:none;stroke:#ba55d3;stroke-opacity:0.25;stroke-width:1.5;"/>
    <path clip-path="url(#p0e74dcd826)" d="M 322.822831 86.755775 
L 322.822831 63.14736 
" style="fill:none;stroke:#ba55d3;stroke-opacity:0.25;stroke-width:1.5;"/>
    <path clip-path="url(#p0e74dcd826)" d="M 332.5515 94.705551 
L 332.5515 76.438796 
" style="fill:none;stroke:#ba55d3;stroke-opacity:0.25;stroke-width:1.5;"/>
    <path clip-path="url(#p0e74dcd826)" d="M 342.28017 131.364874 
L 342.28017 99.209058 
" style="fill:none;stroke:#ba55d3;stroke-opacity:0.25;stroke-width:1.5;"/>
    <path clip-path="url(#p0e74dcd826)" d="M 352.008839 129.658726 
L 352.008839 99.668702 
" style="fill:none;stroke:#ba55d3;stroke-opacity:0.25;stroke-width:1.5;"/>
    <path clip-path="url(#p0e74dcd826)" d="M 361.737509 124.304793 
L 361.737509 101.619049 
" style="fill:none;stroke:#ba55d3;stroke-opacity:0.25;stroke-width:1.5;"/>
    <path clip-path="url(#p0e74dcd826)" d="M 371.466178 134.619682 
L 371.466178 109.83444 
" style="fill:none;stroke:#ba55d3;stroke-opacity:0.25;stroke-width:1.5;"/>
    <path clip-path="url(#p0e74dcd826)" d="M 381.194848 157.306023 
L 381.194848 128.010205 
" style="fill:none;stroke:#ba55d3;stroke-opacity:0.25;stroke-width:1.5;"/>
    <path clip-path="url(#p0e74dcd826)" d="M 390.923517 170.93914 
L 390.923517 157.225831 
" style="fill:none;stroke:#ba55d3;stroke-opacity:0.25;stroke-width:1.5;"/>
    <path clip-path="url(#p0e74dcd826)" d="M 400.652187 193.19431 
L 400.652187 184.378793 
" style="fill:none;stroke:#ba55d3;stroke-opacity:0.25;stroke-width:1.5;"/>
    <path clip-path="url(#p0e74dcd826)" d="M 410.380856 192.372798 
L 410.380856 186.868622 
" style="fill:none;stroke:#ba55d3;stroke-opacity:0.25;stroke-width:1.5;"/>
    <path clip-path="url(#p0e74dcd826)" d="M 420.109526 185.932176 
L 420.109526 172.447159 
" style="fill:none;stroke:#ba55d3;stroke-opacity:0.25;stroke-width:1.5;"/>
    <path clip-path="url(#p0e74dcd826)" d="M 429.838195 180.760523 
L 429.838195 147.267854 
" style="fill:none;stroke:#ba55d3;stroke-opacity:0.25;stroke-width:1.5;"/>
    <path clip-path="url(#p0e74dcd826)" d="M 439.566865 180.591847 
L 439.566865 146.723292 
" style="fill:none;stroke:#ba55d3;stroke-opacity:0.25;stroke-width:1.5;"/>
    <path clip-path="url(#p0e74dcd826)" d="M 449.295534 203.969107 
L 449.295534 165.341448 
" style="fill:none;stroke:#ba55d3;stroke-opacity:0.25;stroke-width:1.5;"/>
    <path clip-path="url(#p0e74dcd826)" d="M 459.024204 161.840307 
L 459.024204 106.421288 
" style="fill:none;stroke:#ba55d3;stroke-opacity:0.25;stroke-width:1.5;"/>
    <path clip-path="url(#p0e74dcd826)" d="M 468.752873 155.116813 
L 468.752873 105.957139 
" style="fill:none;stroke:#ba55d3;stroke-opacity:0.25;stroke-width:1.5;"/>
    <path clip-path="url(#p0e74dcd826)" d="M 478.481543 115.524539 
L 478.481543 67.343062 
" style="fill:none;stroke:#ba55d3;stroke-opacity:0.25;stroke-width:1.5;"/>
    <path clip-path="url(#p0e74dcd826)" d="M 488.210212 100.844156 
L 488.210212 76.417004 
" style="fill:none;stroke:#ba55d3;stroke-opacity:0.25;stroke-width:1.5;"/>
    <path clip-path="url(#p0e74dcd826)" d="M 497.938882 100.844156 
L 497.938882 76.417004 
" style="fill:none;stroke:#ba55d3;stroke-opacity:0.25;stroke-width:1.5;"/>
   </g>
   <g id="line2d_26">
    <path clip-path="url(#p0e74dcd826)" d="M 309.397267 81.092663 
L 312.400994 81.092663 
L 315.40472 82.054041 
L 318.408447 83.847381 
L 321.412174 87.807064 
L 324.415901 90.439303 
L 327.419627 94.2726 
L 330.423354 98.900469 
L 333.427081 104.70835 
L 336.430807 107.012175 
L 339.434534 112.722797 
L 342.438261 113.389829 
L 345.441988 118.277934 
L 348.445714 120.758909 
L 351.449441 120.760371 
L 354.453168 118.40116 
L 357.456894 119.784669 
L 360.460621 121.20482 
L 363.464348 121.375074 
L 366.468075 123.734368 
L 369.471801 127.13396 
L 372.475528 132.945056 
L 375.479255 139.747848 
L 378.482981 148.1595 
L 381.486708 156.633938 
L 384.490435 167.155983 
L 387.494161 176.896844 
L 390.497888 184.821228 
L 393.501615 191.29599 
L 396.505342 195.493131 
L 399.509068 198.14371 
L 402.512795 199.313886 
L 405.516522 199.473708 
L 408.520248 198.712051 
L 411.523975 196.885868 
L 414.527702 193.325309 
L 417.531429 187.538088 
L 420.535155 180.674187 
L 423.538882 171.730989 
L 426.542609 161.788496 
L 429.546335 151.386462 
L 432.550062 141.201032 
L 435.553789 133.356974 
L 438.557516 127.86578 
L 441.561242 123.425354 
L 444.564969 121.670331 
L 447.568696 118.892537 
L 450.572422 121.8731 
L 453.576149 123.290031 
L 456.579876 121.968907 
L 459.583602 119.618558 
L 462.587329 115.585848 
L 465.591056 116.71459 
L 468.594783 121.553274 
L 471.598509 113.0228 
L 474.602236 106.255366 
L 477.605963 100.856996 
L 480.609689 97.240113 
L 483.613416 92.160314 
L 486.617143 87.981298 
L 489.62087 85.129926 
L 492.624596 82.780857 
L 495.628323 81.2679 
L 498.63205 80.906622 
L 501.635776 80.906622 
" style="fill:none;stroke:#db5f57;stroke-linecap:square;stroke-opacity:0.7;stroke-width:1.5;"/>
   </g>
   <g id="line2d_27">
    <g clip-path="url(#p0e74dcd826)">
     <use style="fill:#ffffff;stroke:#ba55d3;" x="313.094161" xlink:href="#mb4b424a72d" y="74.951567"/>
     <use style="fill:#ffffff;stroke:#ba55d3;" x="322.822831" xlink:href="#mb4b424a72d" y="74.951567"/>
     <use style="fill:#ffffff;stroke:#ba55d3;" x="332.5515" xlink:href="#mb4b424a72d" y="85.572173"/>
     <use style="fill:#ffffff;stroke:#ba55d3;" x="342.28017" xlink:href="#mb4b424a72d" y="115.286966"/>
     <use style="fill:#ffffff;stroke:#ba55d3;" x="352.008839" xlink:href="#mb4b424a72d" y="114.663714"/>
     <use style="fill:#ffffff;stroke:#ba55d3;" x="361.737509" xlink:href="#mb4b424a72d" y="112.961921"/>
     <use style="fill:#ffffff;stroke:#ba55d3;" x="371.466178" xlink:href="#mb4b424a72d" y="122.227061"/>
     <use style="fill:#ffffff;stroke:#ba55d3;" x="381.194848" xlink:href="#mb4b424a72d" y="142.658114"/>
     <use style="fill:#ffffff;stroke:#ba55d3;" x="390.923517" xlink:href="#mb4b424a72d" y="164.082486"/>
     <use style="fill:#ffffff;stroke:#ba55d3;" x="400.652187" xlink:href="#mb4b424a72d" y="188.786551"/>
     <use style="fill:#ffffff;stroke:#ba55d3;" x="410.380856" xlink:href="#mb4b424a72d" y="189.62071"/>
     <use style="fill:#ffffff;stroke:#ba55d3;" x="420.109526" xlink:href="#mb4b424a72d" y="179.189667"/>
     <use style="fill:#ffffff;stroke:#ba55d3;" x="429.838195" xlink:href="#mb4b424a72d" y="164.014188"/>
     <use style="fill:#ffffff;stroke:#ba55d3;" x="439.566865" xlink:href="#mb4b424a72d" y="163.657569"/>
     <use style="fill:#ffffff;stroke:#ba55d3;" x="449.295534" xlink:href="#mb4b424a72d" y="184.655277"/>
     <use style="fill:#ffffff;stroke:#ba55d3;" x="459.024204" xlink:href="#mb4b424a72d" y="134.130797"/>
     <use style="fill:#ffffff;stroke:#ba55d3;" x="468.752873" xlink:href="#mb4b424a72d" y="130.536976"/>
     <use style="fill:#ffffff;stroke:#ba55d3;" x="478.481543" xlink:href="#mb4b424a72d" y="91.433801"/>
     <use style="fill:#ffffff;stroke:#ba55d3;" x="488.210212" xlink:href="#mb4b424a72d" y="88.63058"/>
     <use style="fill:#ffffff;stroke:#ba55d3;" x="497.938882" xlink:href="#mb4b424a72d" y="88.63058"/>
    </g>
   </g>
   <g id="patch_12">
    <path d="M 308.473043 202.718437 
L 308.473043 36.398437 
" style="fill:none;stroke:#000000;stroke-linecap:square;stroke-linejoin:miter;stroke-width:0.8;"/>
   </g>
   <g id="patch_13">
    <path d="M 502.56 202.718437 
L 502.56 36.398437 
" style="fill:none;stroke:#000000;stroke-linecap:square;stroke-linejoin:miter;stroke-width:0.8;"/>
   </g>
   <g id="patch_14">
    <path d="M 308.473043 202.718437 
L 502.56 202.718437 
" style="fill:none;stroke:#000000;stroke-linecap:square;stroke-linejoin:miter;stroke-width:0.8;"/>
   </g>
   <g id="patch_15">
    <path d="M 308.473043 36.398437 
L 502.56 36.398437 
" style="fill:none;stroke:#000000;stroke-linecap:square;stroke-linejoin:miter;stroke-width:0.8;"/>
   </g>
   <g id="legend_1">
    <g id="line2d_28">
     <path d="M 347.781522 49.538437 
L 365.781522 49.538437 
" style="fill:none;stroke:#db5f57;stroke-linecap:square;stroke-opacity:0.7;stroke-width:1.5;"/>
    </g>
    <g id="line2d_29"/>
    <g id="text_27">
     <!-- $K^*$= 3.0 $D_r^*=$0.015 -->
     <defs>
      <path d="M 16.890625 72.90625 
L 26.8125 72.90625 
L 20.796875 42.1875 
L 59.078125 72.90625 
L 72.21875 72.90625 
L 28.90625 38.09375 
L 60.59375 0 
L 48.578125 0 
L 19.484375 35.5 
L 12.59375 0 
L 2.6875 0 
z
" id="DejaVuSans-Oblique-75"/>
      <path d="M 47.015625 60.890625 
L 29.5 51.421875 
L 47.015625 41.890625 
L 44.1875 37.109375 
L 27.78125 47.015625 
L 27.78125 28.609375 
L 22.21875 28.609375 
L 22.21875 47.015625 
L 5.8125 37.109375 
L 2.984375 41.890625 
L 20.515625 51.421875 
L 2.984375 60.890625 
L 5.8125 65.71875 
L 22.21875 55.8125 
L 22.21875 74.21875 
L 27.78125 74.21875 
L 27.78125 55.8125 
L 44.1875 65.71875 
z
" id="DejaVuSans-42"/>
      <path d="M 16.890625 72.90625 
L 38.09375 72.90625 
Q 54.984375 72.90625 63.59375 65.75 
Q 72.21875 58.59375 72.21875 44.484375 
Q 72.21875 35.15625 68.9375 26.53125 
Q 65.671875 17.921875 59.90625 12.015625 
Q 54.109375 5.953125 45.171875 2.96875 
Q 36.234375 0 24.03125 0 
L 2.6875 0 
z
M 25.203125 64.796875 
L 14.203125 8.109375 
L 27.09375 8.109375 
Q 43.65625 8.109375 52.734375 17.625 
Q 61.8125 27.15625 61.8125 44.484375 
Q 61.8125 54.984375 55.953125 59.890625 
Q 50.09375 64.796875 37.59375 64.796875 
z
" id="DejaVuSans-Oblique-68"/>
      <path d="M 44.578125 46.390625 
Q 43.21875 47.125 41.453125 47.515625 
Q 39.703125 47.90625 37.703125 47.90625 
Q 30.515625 47.90625 25.140625 42.453125 
Q 19.78125 37.015625 18.015625 27.875 
L 12.5 0 
L 3.515625 0 
L 14.203125 54.6875 
L 23.1875 54.6875 
L 21.484375 46.1875 
Q 25.046875 50.921875 30 53.453125 
Q 34.96875 56 40.578125 56 
Q 42.046875 56 43.453125 55.828125 
Q 44.875 55.671875 46.296875 55.28125 
z
" id="DejaVuSans-Oblique-114"/>
     </defs>
     <g transform="translate(372.981522 52.688437)scale(0.09 -0.09)">
      <use transform="translate(0 0.765625)" xlink:href="#DejaVuSans-Oblique-75"/>
      <use transform="translate(86.230638 39.046875)scale(0.7)" xlink:href="#DejaVuSans-42"/>
      <use transform="translate(137.602708 0.765625)" xlink:href="#DejaVuSans-61"/>
      <use transform="translate(221.391771 0.765625)" xlink:href="#DejaVuSans-32"/>
      <use transform="translate(253.17888 0.765625)" xlink:href="#DejaVuSans-51"/>
      <use transform="translate(316.801927 0.765625)" xlink:href="#DejaVuSans-46"/>
      <use transform="translate(348.589036 0.765625)" xlink:href="#DejaVuSans-48"/>
      <use transform="translate(412.212083 0.765625)" xlink:href="#DejaVuSans-32"/>
      <use transform="translate(443.999193 0.765625)" xlink:href="#DejaVuSans-Oblique-68"/>
      <use transform="translate(541.655612 39.046875)scale(0.7)" xlink:href="#DejaVuSans-42"/>
      <use transform="translate(521.001146 -26.578125)scale(0.7)" xlink:href="#DejaVuSans-Oblique-114"/>
      <use transform="translate(612.510104 0.765625)" xlink:href="#DejaVuSans-61"/>
      <use transform="translate(715.781589 0.765625)" xlink:href="#DejaVuSans-48"/>
      <use transform="translate(779.404635 0.765625)" xlink:href="#DejaVuSans-46"/>
      <use transform="translate(811.191745 0.765625)" xlink:href="#DejaVuSans-48"/>
      <use transform="translate(874.814792 0.765625)" xlink:href="#DejaVuSans-49"/>
      <use transform="translate(938.437839 0.765625)" xlink:href="#DejaVuSans-53"/>
     </g>
    </g>
    <g id="LineCollection_3">
     <path d="M 356.781522 67.897031 
L 356.781522 58.897031 
" style="fill:none;stroke:#ba55d3;stroke-opacity:0.25;stroke-width:1.5;"/>
    </g>
    <g id="line2d_30"/>
    <g id="line2d_31">
     <g>
      <use style="fill:#ffffff;stroke:#ba55d3;" x="356.781522" xlink:href="#mb4b424a72d" y="63.397031"/>
     </g>
    </g>
    <g id="text_28">
     <!-- Experiment -->
     <defs>
      <path d="M 9.8125 72.90625 
L 55.90625 72.90625 
L 55.90625 64.59375 
L 19.671875 64.59375 
L 19.671875 43.015625 
L 54.390625 43.015625 
L 54.390625 34.71875 
L 19.671875 34.71875 
L 19.671875 8.296875 
L 56.78125 8.296875 
L 56.78125 0 
L 9.8125 0 
z
" id="DejaVuSans-69"/>
      <path d="M 54.890625 54.6875 
L 35.109375 28.078125 
L 55.90625 0 
L 45.3125 0 
L 29.390625 21.484375 
L 13.484375 0 
L 2.875 0 
L 24.125 28.609375 
L 4.6875 54.6875 
L 15.28125 54.6875 
L 29.78125 35.203125 
L 44.28125 54.6875 
z
" id="DejaVuSans-120"/>
      <path d="M 54.890625 33.015625 
L 54.890625 0 
L 45.90625 0 
L 45.90625 32.71875 
Q 45.90625 40.484375 42.875 44.328125 
Q 39.84375 48.1875 33.796875 48.1875 
Q 26.515625 48.1875 22.3125 43.546875 
Q 18.109375 38.921875 18.109375 30.90625 
L 18.109375 0 
L 9.078125 0 
L 9.078125 54.6875 
L 18.109375 54.6875 
L 18.109375 46.1875 
Q 21.34375 51.125 25.703125 53.5625 
Q 30.078125 56 35.796875 56 
Q 45.21875 56 50.046875 50.171875 
Q 54.890625 44.34375 54.890625 33.015625 
z
" id="DejaVuSans-110"/>
      <path d="M 18.3125 70.21875 
L 18.3125 54.6875 
L 36.8125 54.6875 
L 36.8125 47.703125 
L 18.3125 47.703125 
L 18.3125 18.015625 
Q 18.3125 11.328125 20.140625 9.421875 
Q 21.96875 7.515625 27.59375 7.515625 
L 36.8125 7.515625 
L 36.8125 0 
L 27.59375 0 
Q 17.1875 0 13.234375 3.875 
Q 9.28125 7.765625 9.28125 18.015625 
L 9.28125 47.703125 
L 2.6875 47.703125 
L 2.6875 54.6875 
L 9.28125 54.6875 
L 9.28125 70.21875 
z
" id="DejaVuSans-116"/>
     </defs>
     <g transform="translate(372.981522 66.547031)scale(0.09 -0.09)">
      <use xlink:href="#DejaVuSans-69"/>
      <use x="63.183594" xlink:href="#DejaVuSans-120"/>
      <use x="122.363281" xlink:href="#DejaVuSans-112"/>
      <use x="185.839844" xlink:href="#DejaVuSans-101"/>
      <use x="247.363281" xlink:href="#DejaVuSans-114"/>
      <use x="288.476562" xlink:href="#DejaVuSans-105"/>
      <use x="316.259766" xlink:href="#DejaVuSans-109"/>
      <use x="413.671875" xlink:href="#DejaVuSans-101"/>
      <use x="475.195312" xlink:href="#DejaVuSans-110"/>
      <use x="538.574219" xlink:href="#DejaVuSans-116"/>
     </g>
    </g>
   </g>
  </g>
  <g id="text_29">
   <!-- $x$ ($\mathrm{\mu m}$) -->
   <defs>
    <path d="M 8.5 -20.796875 
L 8.5 54.6875 
L 17.484375 54.6875 
L 17.484375 20.703125 
Q 17.484375 13.625 20.84375 10 
Q 24.21875 6.390625 30.8125 6.390625 
Q 38.03125 6.390625 41.671875 10.484375 
Q 45.3125 14.59375 45.3125 22.796875 
L 45.3125 54.6875 
L 54.296875 54.6875 
L 54.296875 12.59375 
Q 54.296875 9.671875 55.140625 8.28125 
Q 56 6.890625 57.8125 6.890625 
Q 58.25 6.890625 59.03125 7.15625 
Q 59.8125 7.421875 61.1875 8.015625 
L 61.1875 0.78125 
Q 59.1875 -0.34375 57.390625 -0.875 
Q 55.609375 -1.421875 53.90625 -1.421875 
Q 50.53125 -1.421875 48.53125 0.484375 
Q 46.53125 2.390625 45.796875 6.296875 
Q 43.359375 2.4375 39.8125 0.5 
Q 36.28125 -1.421875 31.5 -1.421875 
Q 26.515625 -1.421875 23.015625 0.484375 
Q 19.53125 2.390625 17.484375 6.203125 
L 17.484375 -20.796875 
z
" id="DejaVuSans-956"/>
   </defs>
   <g transform="translate(267.13 230.798437)scale(0.1 -0.1)">
    <use transform="translate(0 0.125)" xlink:href="#DejaVuSans-Oblique-120"/>
    <use transform="translate(59.179688 0.125)" xlink:href="#DejaVuSans-32"/>
    <use transform="translate(90.966797 0.125)" xlink:href="#DejaVuSans-40"/>
    <use transform="translate(129.980469 0.125)" xlink:href="#DejaVuSans-956"/>
    <use transform="translate(193.603516 0.125)" xlink:href="#DejaVuSans-109"/>
    <use transform="translate(291.015625 0.125)" xlink:href="#DejaVuSans-41"/>
   </g>
  </g>
  <g id="text_30">
   <!-- x/$\lambda$ -->
   <defs>
    <path d="M 25.390625 72.90625 
L 33.6875 72.90625 
L 8.296875 -9.28125 
L 0 -9.28125 
z
" id="DejaVuSans-47"/>
   </defs>
   <g transform="translate(276.03 14.798437)scale(0.1 -0.1)">
    <use transform="translate(0 0.015625)" xlink:href="#DejaVuSans-120"/>
    <use transform="translate(59.179688 0.015625)" xlink:href="#DejaVuSans-47"/>
    <use transform="translate(92.871094 0.015625)" xlink:href="#DejaVuSans-Oblique-955"/>
   </g>
  </g>
  <g id="text_31">
   <!-- Normalized intensity $I(x)$ -->
   <defs>
    <path d="M 32.171875 -5.078125 
Q 28.375 -14.84375 24.75 -17.8125 
Q 21.140625 -20.796875 15.09375 -20.796875 
L 7.90625 -20.796875 
L 7.90625 -13.28125 
L 13.1875 -13.28125 
Q 16.890625 -13.28125 18.9375 -11.515625 
Q 21 -9.765625 23.484375 -3.21875 
L 25.09375 0.875 
L 2.984375 54.6875 
L 12.5 54.6875 
L 29.59375 11.921875 
L 46.6875 54.6875 
L 56.203125 54.6875 
z
" id="DejaVuSans-121"/>
    <path d="M 16.890625 72.90625 
L 26.8125 72.90625 
L 12.59375 0 
L 2.6875 0 
z
" id="DejaVuSans-Oblique-73"/>
   </defs>
   <g transform="translate(14.8 180.128437)rotate(-90)scale(0.1 -0.1)">
    <use transform="translate(0 0.015625)" xlink:href="#DejaVuSans-78"/>
    <use transform="translate(74.804688 0.015625)" xlink:href="#DejaVuSans-111"/>
    <use transform="translate(135.986328 0.015625)" xlink:href="#DejaVuSans-114"/>
    <use transform="translate(177.099609 0.015625)" xlink:href="#DejaVuSans-109"/>
    <use transform="translate(274.511719 0.015625)" xlink:href="#DejaVuSans-97"/>
    <use transform="translate(335.791016 0.015625)" xlink:href="#DejaVuSans-108"/>
    <use transform="translate(363.574219 0.015625)" xlink:href="#DejaVuSans-105"/>
    <use transform="translate(391.357422 0.015625)" xlink:href="#DejaVuSans-122"/>
    <use transform="translate(443.847656 0.015625)" xlink:href="#DejaVuSans-101"/>
    <use transform="translate(505.371094 0.015625)" xlink:href="#DejaVuSans-100"/>
    <use transform="translate(568.847656 0.015625)" xlink:href="#DejaVuSans-32"/>
    <use transform="translate(600.634766 0.015625)" xlink:href="#DejaVuSans-105"/>
    <use transform="translate(628.417969 0.015625)" xlink:href="#DejaVuSans-110"/>
    <use transform="translate(691.796875 0.015625)" xlink:href="#DejaVuSans-116"/>
    <use transform="translate(731.005859 0.015625)" xlink:href="#DejaVuSans-101"/>
    <use transform="translate(792.529297 0.015625)" xlink:href="#DejaVuSans-110"/>
    <use transform="translate(855.908203 0.015625)" xlink:href="#DejaVuSans-115"/>
    <use transform="translate(908.007812 0.015625)" xlink:href="#DejaVuSans-105"/>
    <use transform="translate(935.791016 0.015625)" xlink:href="#DejaVuSans-116"/>
    <use transform="translate(975 0.015625)" xlink:href="#DejaVuSans-121"/>
    <use transform="translate(1034.179688 0.015625)" xlink:href="#DejaVuSans-32"/>
    <use transform="translate(1065.966797 0.015625)" xlink:href="#DejaVuSans-Oblique-73"/>
    <use transform="translate(1095.458984 0.015625)" xlink:href="#DejaVuSans-40"/>
    <use transform="translate(1134.472656 0.015625)" xlink:href="#DejaVuSans-Oblique-120"/>
    <use transform="translate(1193.652344 0.015625)" xlink:href="#DejaVuSans-41"/>
   </g>
  </g>
 </g>
 <defs>
  <clipPath id="p5a6869f428">
   <rect height="166.32" width="194.086957" x="56.16" y="36.398437"/>
  </clipPath>
  <clipPath id="p0e74dcd826">
   <rect height="166.32" width="194.086957" x="308.473043" y="36.398437"/>
  </clipPath>
 </defs>
</svg>
